<?xml version="1.0" encoding="utf-8"?>
<!-- Generator: Adobe Illustrator 19.2.1, SVG Export Plug-In . SVG Version: 6.00 Build 0)  -->
<svg version="1.1" id="Layer_1" xmlns="http://www.w3.org/2000/svg" xmlns:xlink="http://www.w3.org/1999/xlink" x="0px" y="0px"
	 viewBox="0 0 600 700" style="enable-background:new 0 0 600 700;" xml:space="preserve">
<style type="text/css">
	.st0{fill:none;stroke:#000000;stroke-width:8.3386;stroke-miterlimit:10;}
	.st1{fill:#FFFFFF;}
</style>
<title>catface</title>
<path class="st0" d="M402.6,229.4c20.8-21,105.6-103.5,132.8-86.8c27,16.6-8.5,127.7-32.5,186.1"/>
<path class="st0" d="M488.4,303.7c19.3-47.7,42.4-115.8,26.2-125.7c-15-9.2-61,32.6-88.7,60.1"/>
<path class="st0" d="M199.3,229.4c-20.8-21-105.6-103.5-132.8-86.8C39.5,159.2,75,270.3,99,328.7"/>
<path class="st0" d="M113.5,303.7C94.2,256,71.1,187.9,87.3,178c15.5-9.5,64.2,35.6,91.5,63"/>
<path class="st0" d="M473.8,284.5c-71.2-82-172.8-81.7-172.8-81.7s-101.6-0.3-172.8,81.7C48.5,376.3,36,575.3,301,575.3
	S553.6,376.3,473.8,284.5z"/>
<path d="M345.1,417.9c86.4,40.7,97.7-46.7,97.7-46.7C359.8,338.3,345.1,417.9,345.1,417.9z M352.4,414.5c0,0,12.5-67.6,83.1-39.7
	C435.5,374.8,426,449.1,352.4,414.5z"/>
<path d="M393.7,365.8c0,0-25.3,30.1,2,60.2C395.6,426.1,417.9,394.1,393.7,365.8z"/>
<path class="st1" d="M408.4,381.8c0,4-3.2,7.2-7.2,7.2c-4,0-7.2-3.2-7.2-7.2s3.2-7.2,7.2-7.2c0,0,0,0,0,0c3.9-0.1,7.1,3.1,7.2,7
	C408.4,381.7,408.4,381.7,408.4,381.8z"/>
<path d="M159.2,371.2c0,0,11.3,87.2,97.7,46.7C256.8,417.9,242.1,338.3,159.2,371.2z M166.4,374.8c70.7-27.9,83.1,39.7,83.1,39.7
	C175.9,449.1,166.4,374.8,166.4,374.8z"/>
<path d="M208.2,365.8c0,0,25.3,30.1-2,60.2C206.4,426.1,184.1,394.1,208.2,365.8z"/>
<circle class="st1" cx="200.7" cy="381.8" r="7.2"/>
<path d="M284.8,521.6c0,0,14.4,14,32.5,0l-16.3-28L284.8,521.6z"/>
<path d="M387.8,485.4c-0.2,1.6-12.9,37.8-44.9,37.8c-29.3,0-37-31.4-38.4-37.9v-0.1l0,0c-0.1-0.5-0.2-0.9-0.2-1l-3.4,0.5l-3.4-0.5
	c0,0.1-0.1,0.5-0.2,1l0,0v0.1c-1.4,6.7-9.1,37.9-38.4,37.9c-32.1,0-44.5-36.3-44.8-37.8l-0.5,0.1c0.1,0.4,7.1,44.8,45.3,44.8
	c25,0,36.8-19.2,42-32.6c5.2,13.3,17,32.6,42,32.6c38.3,0,45.2-44.4,45.3-44.8L387.8,485.4z"/>
<path d="M329.5,465.4c-2.2-7.8-28.5-7.8-28.6-7.8l0,0c-0.1,0-26.4,0-28.6,7.8c-2.2,7.8,6.9,8.2,14.3,12.1
	c7.4,3.9,5.6,13.3,14.3,13.3l0,0c8.7,0,6.9-9.5,14.3-13.3C322.6,473.6,331.7,473.1,329.5,465.4z"/>
<ellipse cx="335.4" cy="489.6" rx="4.7" ry="3.9"/>
<ellipse cx="349.6" cy="506" rx="4.7" ry="3.9"/>
<ellipse cx="361.4" cy="489.6" rx="4.7" ry="3.9"/>
<path d="M337.4,490.7c73-38.7,164.7-46.9,244.9-34.5c1.7,0.2,2.2-2.3,0.6-2.5c-80.9-12.5-173.3-4.2-246.8,34.8
	c-0.6,0.3-0.9,1.1-0.5,1.7C335.9,490.9,336.7,491.1,337.4,490.7C337.3,490.8,337.4,490.8,337.4,490.7L337.4,490.7z"/>
<path d="M362.4,491.6c66.7-24.1,152.8-6.6,218.7,8.4c0.7,0.1,1.4-0.3,1.5-1c0.1-0.6-0.3-1.3-0.9-1.5c-66.3-15.1-153-32.5-220-8.4
	C360,489.7,360.8,492.2,362.4,491.6L362.4,491.6L362.4,491.6z"/>
<path d="M349.5,507.5c72.1-5.2,148.2,23.3,209.3,58.5c0.6,0.3,1.4,0.1,1.8-0.5c0.3-0.6,0.1-1.4-0.5-1.8
	c-61.6-35.4-138.1-64.1-210.7-58.8c-0.7,0-1.3,0.6-1.3,1.4C348.2,507,348.8,507.5,349.5,507.5L349.5,507.5L349.5,507.5z"/>
<ellipse cx="263.6" cy="489.6" rx="4.7" ry="3.9"/>
<ellipse cx="249.4" cy="506" rx="4.7" ry="3.9"/>
<ellipse cx="237.6" cy="489.6" rx="4.7" ry="3.9"/>
<path d="M261.5,490.7c-73-38.7-164.7-46.9-244.9-34.5c-1.7,0.2-2.2-2.3-0.6-2.5c80.9-12.5,173.3-4.2,246.8,34.8
	c0.6,0.3,0.9,1.1,0.5,1.7C263,490.9,262.2,491.1,261.5,490.7C261.6,490.8,261.5,490.8,261.5,490.7L261.5,490.7z"/>
<path d="M236.6,491.6C169.9,467.5,83.8,485,17.9,500c-0.7,0.1-1.4-0.3-1.5-1c-0.1-0.6,0.3-1.3,0.9-1.5c66.3-15.1,153-32.5,220-8.4
	C238.9,489.7,238.2,492.2,236.6,491.6L236.6,491.6z"/>
<path d="M249.5,507.5c-72.1-5.2-148.2,23.3-209.3,58.5c-0.6,0.3-1.4,0.1-1.8-0.5c-0.3-0.6-0.1-1.4,0.5-1.8l0,0
	c61.6-35.4,138.1-64.1,210.7-58.8C251.3,505.1,251.2,507.6,249.5,507.5L249.5,507.5L249.5,507.5z"/>
</svg>
