<svg id="Layer_1" data-name="Layer 1" xmlns="http://www.w3.org/2000/svg" viewBox="0 0 136.51 106.33"><defs><style>.cls-1{fill:none;stroke:#000;stroke-miterlimit:10;stroke-width:2px;}.cls-2{fill:#fff;}</style></defs><title>catface-small</title><path class="cls-1" d="M123.5,113.8c5-5,25.3-24.8,31.8-20.8s-2.1,30.6-7.8,44.6" transform="translate(-30.45 -91.47)"/><path class="cls-1" d="M144,131.7c4.6-11.4,10.2-27.8,6.3-30.2-3.6-2.2-14.6,7.8-21.3,14.4" transform="translate(-30.45 -91.47)"/><path class="cls-1" d="M74.7,113.8c-5-5-25.3-24.8-31.9-20.8s2,30.6,7.8,44.6" transform="translate(-30.45 -91.47)"/><path class="cls-1" d="M54.1,131.7c-4.6-11.5-10.2-27.8-6.3-30.2,3.7-2.3,15.4,8.6,21.9,15.1" transform="translate(-30.45 -91.47)"/><path class="cls-1" d="M140.5,127.1C123.4,107.4,99,107.5,99,107.5s-24.4-.1-41.5,19.6c-19,22-22,69.7,41.6,69.7S159.7,149.1,140.5,127.1Z" transform="translate(-30.45 -91.47)"/><path d="M109.7,159.1c20.7,9.8,23.4-11.2,23.4-11.2C113.2,140,109.7,159.1,109.7,159.1Zm1.7-.8s3-16.2,19.9-9.5C131.3,148.7,129.1,166.6,111.4,158.3Z" transform="translate(-30.45 -91.47)"/><path d="M121.3,146.6s-6.1,7.2.5,14.4C121.8,161,127.1,153.3,121.3,146.6Z" transform="translate(-30.45 -91.47)"/><path class="cls-2" d="M124.8,150.4a1.75,1.75,0,0,1-1.7,1.7,1.84,1.84,0,0,1-1.8-1.7,1.77,1.77,0,0,1,1.8-1.7A1.63,1.63,0,0,1,124.8,150.4Z" transform="translate(-30.45 -91.47)"/><path d="M65.1,147.8s2.7,20.9,23.4,11.2C88.5,159.1,85,140,65.1,147.8Zm1.7,0.9c16.9-6.7,19.9,9.5,19.9,9.5C69.1,166.6,66.8,148.7,66.8,148.7Z" transform="translate(-30.45 -91.47)"/><path d="M76.8,146.6s6.1,7.2-.5,14.4C76.4,161,71,153.3,76.8,146.6Z" transform="translate(-30.45 -91.47)"/><circle class="cls-2" cx="44.55" cy="58.93" r="1.7"/><path d="M95.2,183.9s3.4,3.4,7.8,0l-3.9-6.7Z" transform="translate(-30.45 -91.47)"/><path d="M119.9,175.3c-0.1.4-3.1,9.1-10.8,9.1-7,0-8.9-7.5-9.2-9.1h0c0-.1-0.1-0.2-0.1-0.3l-0.8.1-0.8-.1a0.77,0.77,0,0,1-.1.3h0c-0.3,1.6-2.2,9.1-9.2,9.1-7.7,0-10.7-8.7-10.8-9.1H78c0,0.1,1.7,10.8,10.9,10.8,6,0,8.8-4.6,10.1-7.8,1.3,3.2,4.1,7.8,10.1,7.8,9.2-.1,10.9-10.7,10.8-10.8h0Z" transform="translate(-30.45 -91.47)"/><path d="M105.9,170.4c-0.5-1.9-6.8-1.9-6.8-1.9h0s-6.3,0-6.8,1.9,1.7,2,3.4,2.9,1.3,3.2,3.4,3.2h0c2.1,0,1.7-2.3,3.4-3.2S106.4,172.3,105.9,170.4Z" transform="translate(-30.45 -91.47)"/><ellipse cx="76.85" cy="84.83" rx="1.1" ry="0.9"/><ellipse cx="80.25" cy="88.73" rx="1.1" ry="0.9"/><ellipse cx="83.15" cy="84.83" rx="1.1" ry="0.9"/><path d="M107.8,176.5c17.5-9.3,39.5-11.3,58.8-8.3,0.4,0.1.5-.6,0.1-0.6-19.4-3-41.6-1-59.2,8.4-0.4.2,0,.7,0.3,0.5h0Z" transform="translate(-30.45 -91.47)"/><path d="M113.8,176.7c16-5.8,36.6-1.6,52.4,2,0.4,0.1.5-.5,0.1-0.6-15.9-3.6-36.7-7.8-52.8-2-0.3.2-.1,0.8,0.3,0.6h0Z" transform="translate(-30.45 -91.47)"/><path d="M110.7,180.6c17.3-1.3,35.5,5.6,50.2,14,0.4,0.2.6-.4,0.3-0.6-14.8-8.5-33.1-15.4-50.5-14.1a0.35,0.35,0,0,0,0,.7h0Z" transform="translate(-30.45 -91.47)"/><ellipse cx="59.65" cy="84.83" rx="1.1" ry="0.9"/><ellipse cx="56.25" cy="88.73" rx="1.1" ry="0.9"/><ellipse cx="53.45" cy="84.83" rx="1.1" ry="0.9"/><path d="M89.6,176.5c-17.5-9.3-39.5-11.3-58.8-8.3-0.4.1-.5-0.6-0.1-0.6,19.4-3,41.6-1,59.2,8.4,0.4,0.2.1,0.7-.3,0.5h0Z" transform="translate(-30.45 -91.47)"/><path d="M83.6,176.7c-16-5.8-36.7-1.6-52.5,2-0.4.1-.5-0.5-0.1-0.6,15.9-3.6,36.7-7.8,52.8-2,0.4,0.2.2,0.8-.2,0.6h0Z" transform="translate(-30.45 -91.47)"/><path d="M86.7,180.6c-17.3-1.3-35.5,5.6-50.2,14-0.4.2-.6-0.4-0.3-0.6,14.8-8.5,33.1-15.4,50.5-14.1a0.35,0.35,0,0,1,0,.7h0Z" transform="translate(-30.45 -91.47)"/></svg>