<svg id="Layer_1" data-name="Layer 1" xmlns="http://www.w3.org/2000/svg" viewBox="0 0 181.27 188.55"><defs><style>.cls-1,.cls-2{stroke:#000;stroke-miterlimit:10;}.cls-1{stroke-width:1.55px;}.cls-2{fill:none;stroke-width:2.4px;}</style></defs><title>giraffe-small</title><path d="M167.88,133c-3.12,3.45-6.57,7.77-11.1,9.36l1.35,0.54a7.35,7.35,0,0,0-2.43-2.37,30.12,30.12,0,0,0-3.69-2.43,28,28,0,0,0-7.68-2.76,46.78,46.78,0,0,0-16.35.12c-11.22,1.74-22.17,6.06-33.6,6.42a28.4,28.4,0,0,1-7.65-.66c-0.6-.15-1.17-0.3-1.77-0.48s0,0.15-.36-0.15c0.27,0.21-.06-0.09-0.15-0.15a1.25,1.25,0,0,1-.3-0.45,26,26,0,0,1-2.46-7.8,264,264,0,0,1-3.93-27.45c-0.93-8.61-1.56-17.25-2.61-25.86a1.26,1.26,0,0,0-.87-1.17c-0.54-.15-1-0.3-1.59-0.42-0.12.78-.21,1.56-0.33,2.37,5.22,0.18,10.44-1.77,14.85-4.47,4.08-2.49,8.07-6,9.69-10.59a1.21,1.21,0,0,0-.54-1.35c-10.44-5-22.29,1.41-30.18,8.28l1.44-.18c-2.25-1.74,1.71-6.75,2.67-8.25,1.38-2.19,4.26-5.91,2.49-8.58A3.74,3.74,0,0,0,69,53a5.25,5.25,0,0,0-3,2.4c-2,2.79-2.79,6.21-4.38,9.18-0.45.84-1.2,2.34-2.19,2.58a1.5,1.5,0,0,1-1.05-.3c0.15,0.12.09,0.12,0.06,0V66.37A15.85,15.85,0,0,1,60,62c0.78-1.71,1.62-3.36,2.31-5.1,0.87-2.1,2.31-6.18-.87-7.11-3.9-1.14-6.24,2.91-7.41,5.91-0.9,2.28-1.5,4.65-2.43,6.93-0.66,1.59-1.62,3.69-3.72,3-2.82-1-4.65-3.78-7.23-5.19-3.57-2-8.28-2.1-12.24-2.4a1.18,1.18,0,0,0-1.2,1.2C28,65.38,31.8,71.35,37.38,74.08c0.09-.72.18-1.47,0.3-2.19-5.88,1.26-9.21,7.74-13,11.76-2.19,2.31-4.74,3.54-7.47,5.07a16.73,16.73,0,0,0-6.09,5.1c-3.21,4.92-1,12,3.6,15.21,5,3.51,11.55,2.67,17,.75,7.47-2.61,14.28-6.42,21.09-10.38-0.6-.36-1.2-0.69-1.8-1,0.84,16.5,2.58,32.91,4.44,49.29,0.93,8.31,1.89,16.62,2.76,25,0.48,4.62,1,9.24,1.08,13.89,0.24,7.92.24,15.81,1,23.7,0.66,7.23,1.56,15.3,5.37,21.63a12.18,12.18,0,0,0,7.14,5.88c3.75,1,7.62-.33,10.92-2.07a1.21,1.21,0,0,0,.6-1c0-2.85-.39-5.7-0.66-8.52-0.39-4-.75-8-0.93-12A47.06,47.06,0,0,1,83,203.41,8.22,8.22,0,0,1,84.24,200c0.9-1.17,2.85-1.77,4.17-2.25,2.07-.78,5.19-1.68,6.33.9,1,2.37.63,5.46,0.42,7.95-0.63,7.08-1.41,14.64.72,21.54,0.87,2.82,2.55,5.4,5.52,6.24,3.63,1,7.71-.48,11.07-1.8a1.22,1.22,0,0,0,.87-1.17,81.07,81.07,0,0,1,1-17.67,36.88,36.88,0,0,1,4-12.69,13.28,13.28,0,0,1,3.57-4.17c2-1.44,4.53-1.83,6.9-2.22,4.68-.75,10.2-0.81,13.86,2.67,3.12,3,4.26,7.47,5.19,11.52,1.14,5,2,10.11,2.94,15.15,0.78,4,2.46,7.65,7,7.68a14.72,14.72,0,0,0,3.63-.51,9.77,9.77,0,0,0,3-1,3.72,3.72,0,0,0,1.32-1.92,23.27,23.27,0,0,0,1-6.75,203.55,203.55,0,0,0-.54-23.82c-0.93-14.67-2.34-29.31-4-43.92,0-.36-0.06-0.72-0.12-1.08a7.15,7.15,0,0,0-.54-1.53,5.18,5.18,0,0,1-.3-0.72c-0.09-.33-0.09.48,0.06-0.3a5,5,0,0,1,.84-2c1.44-2,3.69-3.6,5.46-5.34,1.59-1.53,3.18-3.06,4.74-4.62a64.9,64.9,0,0,0,5.19-5.55c1.14-1.41,1.86-2.67,1.41-4.56-1.11-4.59-6.36.12-8,1.68-1,1.08-2.07,2.25-3.15,3.36a1.21,1.21,0,0,0,1.71,1.71c2.25-2.28,4.35-4.86,7.14-6.27,0.12-.06-0.06-0.21-0.06,0a7.07,7.07,0,0,1,.06,1.14,5,5,0,0,1-1,1.5,70,70,0,0,1-4.8,5.1c-1.59,1.59-3.21,3.15-4.83,4.74a71.86,71.86,0,0,0-5.34,5.13,7,7,0,0,0-1.71,3.39,5,5,0,0,0,.63,3.15c0.21,0.48.12,0.9,0.12,0a0.1,0.1,0,0,1,0,.09,1.32,1.32,0,0,0,.06.48c1.32,13.68,2.88,27.3,3.81,41,0.57,8.16,1.08,16.35.87,24.54a39.69,39.69,0,0,1-.66,7.59,7.92,7.92,0,0,1-.66,1.83c0.12-.27.06-0.06-0.06,0a0.68,0.68,0,1,0,.06-0.06s0,0-.06,0a0.92,0.92,0,1,0-.27.06,20.89,20.89,0,0,1-4.5,1c-1.68.09-3.12-.27-4-1.8a17.47,17.47,0,0,1-1.62-5.94c-0.84-5-1.77-10.14-3.06-15.09-1-3.87-2.43-7.95-5.37-10.8-3.45-3.3-8.31-4-12.93-3.69s-9.63,1.17-13,4.8c-2.82,3.09-4.35,7.2-5.4,11.16A80.82,80.82,0,0,0,110.88,230c0,0.45,0,.9.06,1.35,0.3-.39.6-0.78,0.87-1.17-2.91,1.17-6.69,2.73-9.9,1.77-2.61-.78-3.6-3.57-4.14-6a48.26,48.26,0,0,1-.84-12.81c0.12-3,.63-6,0.78-8.94,0.12-2.52.15-5.58-1.41-7.71-1.77-2.46-5-2.31-7.59-1.5-3.15,1-6.27,2.25-7.47,5.49-1.14,3.06-1.17,6.6-1.17,9.84,0,4.65.42,9.3,0.84,13.95,0.33,3.39.81,6.84,0.84,10.26l0.6-1.05c-2.67,1.38-5.85,2.58-8.88,1.86a9.62,9.62,0,0,1-5.67-4.44c-3.75-5.91-4.59-13.68-5.25-20.49-0.72-7.68-.75-15.36-1-23.07-0.3-11.94-2.07-23.88-3.42-35.73-2-17.73-4-35.49-4.89-53.34a1.22,1.22,0,0,0-1.8-1.05A137.19,137.19,0,0,1,34.68,106c-5.07,2.07-10.62,4.11-16.11,2.28-5-1.68-8.61-8.1-5.67-13,2.64-4.41,8.64-5.49,12.27-8.85,2.34-2.19,4.2-4.8,6.3-7.2,1.83-2.13,3.93-4.41,6.78-5a1.21,1.21,0,0,0,.3-2.19,16.93,16.93,0,0,1-9-12.72l-1.2,1.2c3.6,0.27,8.1.36,11.31,2.22C42,64,43.62,66.22,46,67.42c1.83,0.93,4,1.11,5.58-.36a11.22,11.22,0,0,0,2.61-4.62c0.75-2,1.32-4.11,2.13-6.12,0.57-1.44,1.38-3.39,2.88-4.08a2.35,2.35,0,0,1,1.56-.15c0.18,0.06.21,0.15,0.24,0.51,0.09,1.35-.69,2.88-1.2,4.08-1.29,3-3.45,6.18-3.78,9.51A3.21,3.21,0,0,0,61.11,69c2.52-1.65,3.57-5.34,4.68-7.95,0.6-1.41,2.31-6.48,4.44-5.61,2.34,1-2.43,7-3.15,8.22-1.77,2.91-4.14,7.14-.69,9.78a1.22,1.22,0,0,0,1.44-.18c7-6.06,18-12.39,27.27-7.89L94.56,64c-1.44,4.11-5.34,7.23-9,9.39-4,2.37-8.58,4.08-13.26,3.93A1.22,1.22,0,0,0,72,79.72c0.54,0.15,1.05.3,1.59,0.42-0.3-.39-0.6-0.78-0.87-1.17,2.1,17,2.88,34.2,6.06,51.09a49.88,49.88,0,0,0,2.49,9.57,8,8,0,0,0,1.53,2.64c1.08,1.08,2.94,1.32,4.38,1.59,11,2,22.41-2,33-4.35,6.3-1.44,12.75-2.67,19.23-2.28a28.18,28.18,0,0,1,8.91,1.92,22.36,22.36,0,0,1,4.2,2.19c1.05,0.66,3,1.71,3.48,2.88a1.16,1.16,0,0,0,1.35.54c5-1.77,8.7-6.18,12.15-10C170.61,133.57,168.93,131.86,167.88,133Z" transform="translate(-9.56 -49.47)"/><path d="M179.16,127.48c-1.5-.63-1.68-3.21-1.59-4.59a5.62,5.62,0,0,1,2.55-4.32c2.85-1.74,6.63-1.35,9.75-2.34l-1.53-1.17c0.24,3.48.33,8.13-2.4,10.77-1.53,1.47-6.18,3.36-7.59.87a1.2,1.2,0,0,0-2.07,1.2c2.07,3.66,7.62,2.4,10.44.39,4-2.88,4.32-8.73,4-13.23a1.23,1.23,0,0,0-1.53-1.17c-4,1.26-9.06.6-12.06,4a8.57,8.57,0,0,0-2,6.3c0.15,1.89.81,4.5,2.76,5.34,1.44,0.6,2.64-1.47,1.23-2.07h0Z" transform="translate(-9.56 -49.47)"/><path d="M10,99.4c0.63,2.28,4.38,1,5.82.54,2.07-.75,4.35-2.22,2.73-4.65a8.22,8.22,0,0,0-3.27-2.52c-0.87-.42-1.8-1-2.7-0.48-2.19,1.32-2.85,4.5-2.64,6.81,0.15,1.53,2.55,1.53,2.4,0a5.9,5.9,0,0,1,.75-3.9c0.18-.3.48-0.51,0.69-0.81s0.09-.09.18-0.15L13,94.36a11.45,11.45,0,0,1,2.85,1.56,2,2,0,0,1,.84,1c0,0.12.24-.33,0,0a0.62,0.62,0,0,1-.3.18,9.43,9.43,0,0,1-2.52.93c-0.39.09-.78,0.18-1.2,0.24a2.17,2.17,0,0,0-.63,0c-0.39.21-.12-1,0.3,0.48C11.85,97.3,9.54,97.93,10,99.4Z" transform="translate(-9.56 -49.47)"/><path class="cls-1" d="M14.16,107.41c4.47,4.44,11.4,1.83,13.56-6.39,0.6-2.25-1.38-4.23-2-2-1.65,6.3-7.5,11.16-11,7.71-1.29-1.29-1.83-.63-0.57.63h0Z" transform="translate(-9.56 -49.47)"/><path d="M90.42,149.92c-2.43,0-5.37.33-7.32,1.89-2.49,2-1.53,5.34.57,7.23,3.63,3.3,9.87-.06,10.68-4.47,0.57-3.15-2.34-4.47-5-4.62-1.53-.09-1.53,2.31,0,2.4,1.86,0.12,3.3.78,2.28,2.7a5.67,5.67,0,0,1-4.32,3c-1.65.09-4.32-2.25-3.12-4s4.44-1.68,6.21-1.71a1.22,1.22,0,0,0,0-2.43h0Z" transform="translate(-9.56 -49.47)"/><path d="M128.46,141.85c-2.43,0-5.37.33-7.32,1.89-2.49,2-1.53,5.34.57,7.23,3.63,3.3,9.87-.06,10.68-4.47,0.57-3.15-2.34-4.47-5-4.62-1.53-.09-1.53,2.31,0,2.4,1.83,0.12,3.3.78,2.28,2.7a5.67,5.67,0,0,1-4.32,3c-1.65.09-4.32-2.25-3.12-4s4.44-1.68,6.21-1.71a1.22,1.22,0,0,0,0-2.43h0Z" transform="translate(-9.56 -49.47)"/><path d="M109.41,148.87c-2.37,0-5.16.15-7.29,1.29-2.43,1.32-2.07,3.87-.21,5.55a6.84,6.84,0,0,0,6.87,1c1.8-.63,4-1.92,4.59-3.93,0.87-3.06-2.85-3.87-5.07-4-1.53-.06-1.53,2.34,0,2.4,0.75,0,2.22,0,2.73.66a1,1,0,0,1-.39.9,6.23,6.23,0,0,1-4.92,2c-1-.06-4.26-1.59-2.43-2.58s4.14-1,6.06-1a1.2,1.2,0,0,0,.06-2.4h0Z" transform="translate(-9.56 -49.47)"/><path d="M112.08,158.47c-2.4,0-5.31.39-7.17,2-2.31,2.07-1.38,5.58.66,7.53,3.72,3.54,9.6-.45,10.32-4.77,0.51-3.12-2.07-4.62-4.83-4.8-1.53-.09-1.53,2.31,0,2.4,1.83,0.12,3,1,2.25,2.82a5.44,5.44,0,0,1-4.14,3.36c-1.89.15-4.14-2.67-3-4.38s4.14-1.77,5.88-1.77a1.22,1.22,0,0,0,0-2.43h0Z" transform="translate(-9.56 -49.47)"/><path d="M147.51,141.58c-2.4,0-5.31.39-7.17,2.07-2.31,2.07-1.35,5.58.66,7.53,3.72,3.54,9.6-.45,10.32-4.77,0.51-3.12-2.07-4.62-4.83-4.8-1.53-.09-1.53,2.31,0,2.4,1.83,0.12,3,1,2.25,2.82a5.44,5.44,0,0,1-4.14,3.36c-1.89.15-4.14-2.67-3-4.38s4.14-1.77,5.88-1.77a1.23,1.23,0,0,0,0-2.46h0Z" transform="translate(-9.56 -49.47)"/><path d="M136.23,153.73c-4.44,0-9.54.36-13.53,2.52a5.71,5.71,0,0,0-3.33,4.47c-0.12,2.37,1.53,4.71,3.24,6.21,3.39,2.94,8.1,3.12,12.12,1.53,3.36-1.32,7.2-4,8.19-7.68,1.47-5.37-5-6.84-8.88-7-1.53-.06-1.53,2.34,0,2.4,2.13,0.09,7.26.48,6.63,3.75-0.51,2.73-3.54,4.8-5.85,5.91-3,1.47-6.78,1.92-9.72,0a7.27,7.27,0,0,1-3.33-4.47c-0.21-1.47.93-2.4,2.1-3,3.6-1.92,8.31-2.16,12.3-2.19a1.22,1.22,0,0,0,.06-2.43h0Z" transform="translate(-9.56 -49.47)"/><path d="M64.56,58.12c-1.17,2.58,2.31,4.08,4.32,4.14,2.52,0.09,3.15-1.8,3.75-3.84,0.57-1.89.93-5.49-2-5.52-2.58,0-4.89,3.27-6.06,5.22a1.2,1.2,0,0,0,2.07,1.2,11.42,11.42,0,0,1,3.21-3.66c0.39-.27.66-0.51,0.81-0.27a3.17,3.17,0,0,1-.18,1.89,14.36,14.36,0,0,1-.63,1.92c-0.06.15-.12,0.3-0.18,0.48s-0.21.27-.06,0.18a1,1,0,0,0-.54,0A4.52,4.52,0,0,1,68,59.68a3.23,3.23,0,0,1-.87-0.39c-0.51-.33-0.21-0.42-0.42.06C67.26,57.94,65.19,56.74,64.56,58.12Z" transform="translate(-9.56 -49.47)"/><path d="M54.33,54.67c-1.2,2.64,2.55,4,4.53,4.14a3,3,0,0,0,3-1.35,13.8,13.8,0,0,0,.75-2.22c0.51-1.92.9-5.64-2-5.76-2.67-.15-5.07,3.21-6.27,5.19a1.2,1.2,0,0,0,2.07,1.2,10.9,10.9,0,0,1,3.39-3.72c0.51-.3.66-0.45,0.78,0a4.87,4.87,0,0,1-.18,2.07,19,19,0,0,1-.54,1.86,4.37,4.37,0,0,0-.21.57c-0.12.42,0.18-.24,0.09-0.3s-0.87.06-.93,0.06a5.83,5.83,0,0,1-1-.21,4.64,4.64,0,0,1-1-.42c-0.54-.36-0.18-0.36-0.39.15C57.06,54.49,55,53.26,54.33,54.67Z" transform="translate(-9.56 -49.47)"/><ellipse class="cls-2" cx="42.57" cy="81.51" rx="6.48" ry="4.92" transform="translate(-58.14 44.16) rotate(-70)"/><ellipse class="cls-2" cx="56.27" cy="87.51" rx="6.48" ry="4.92" transform="translate(-54.77 60.98) rotate(-70)"/><ellipse cx="41.73" cy="79.51" rx="3.15" ry="2.49" transform="translate(-56.82 42.05) rotate(-70)"/><ellipse cx="55.27" cy="85.85" rx="3.15" ry="2.49" transform="translate(-53.87 58.95) rotate(-70)"/></svg>