<?xml version="1.0" encoding="utf-8"?>
<!-- Generator: Adobe Illustrator 19.2.1, SVG Export Plug-In . SVG Version: 6.00 Build 0)  -->
<svg version="1.1" id="Layer_1" xmlns="http://www.w3.org/2000/svg" xmlns:xlink="http://www.w3.org/1999/xlink" x="0px" y="0px"
	 viewBox="0 0 600 700" style="enable-background:new 0 0 600 700;" xml:space="preserve">
<style type="text/css">
	.st0{stroke:#000000;stroke-width:4.8566;stroke-miterlimit:10;}
	.st1{fill:none;stroke:#000000;stroke-width:7.4971;stroke-miterlimit:10;}
</style>
<g>
	<g>
		<path d="M512.2,335c-9.7,10.8-20.5,24.3-34.7,29.2c1.4,0.6,2.8,1.1,4.2,1.7c-1.3-3.1-5-5.3-7.6-7.4c-3.7-2.8-7.5-5.3-11.5-7.6
			c-7.5-4-15.7-6.9-24-8.6c-16.9-3.4-34.1-2.2-51.1,0.4c-35,5.4-69.3,18.9-105,20.1c-8.1,0.3-16.1-0.2-23.9-2.1
			c-1.9-0.5-3.7-0.9-5.5-1.5c-2.1-0.7,0.1,0.5-1.1-0.5c0.8,0.7-0.2-0.3-0.5-0.5c-0.5-0.5-0.4-0.4-0.9-1.4c-4.2-7.2-6-16.2-7.7-24.4
			c-6.1-28.2-9.2-57.1-12.3-85.7c-2.9-26.9-4.9-53.9-8.2-80.8c-0.2-1.7-1-3.2-2.7-3.7c-1.7-0.5-3.3-0.9-5-1.3
			c-0.4,2.4-0.7,4.9-1,7.4c16.3,0.6,32.6-5.5,46.4-14c12.7-7.8,25.2-18.6,30.3-33.1c0.5-1.4-0.3-3.6-1.7-4.2
			c-32.6-15.7-69.6,4.4-94.3,25.9c1.5-0.2,3-0.4,4.5-0.6c-7-5.4,5.3-21.1,8.3-25.8c4.3-6.8,13.3-18.5,7.8-26.8
			c-2.4-3.7-7.5-5.6-11.7-4.7c-4.1,0.9-7.2,4.1-9.5,7.5c-6.1,8.7-8.7,19.4-13.7,28.7c-1.4,2.6-3.7,7.3-6.8,8.1
			c-0.9,0.2-2.2-0.2-3.3-0.9c0.5,0.4,0.3,0.4,0.2-0.1c0,0.3,0-1.2,0-1.6c0.6-4.7,3-9.3,4.9-13.5c2.4-5.3,5.1-10.5,7.2-15.9
			c2.7-6.6,7.2-19.3-2.7-22.2c-12.2-3.6-19.5,9.1-23.1,18.5c-2.8,7.1-4.7,14.5-7.6,21.6c-2.1,5-5.1,11.5-11.6,9.4
			c-8.8-3-14.5-11.8-22.6-16.2c-11.2-6.1-25.9-6.6-38.2-7.5c-1.9-0.2-4,1.9-3.7,3.7c2.4,19,14.3,37.7,31.8,46.2
			c0.3-2.2,0.6-4.6,0.9-6.8c-18.4,3.9-28.8,24.2-40.8,36.7c-6.8,7.2-14.8,11.1-23.3,15.8c-7.2,4.1-14.4,8.8-19,15.9
			c-10,15.4-3.1,37.6,11.2,47.5c15.7,11,36.1,8.3,53,2.3c23.3-8.2,44.6-20.1,65.9-32.4c-1.9-1.1-3.7-2.2-5.6-3.3
			c2.6,51.5,8.1,102.8,13.9,154c2.9,26,5.9,51.9,8.6,78c1.5,14.4,3,28.9,3.4,43.4c0.7,24.7,0.7,49.4,3,74
			c2.1,22.6,4.9,47.8,16.8,67.6c5.1,8.4,12.5,15.8,22.3,18.4c11.7,3,23.8-1,34.1-6.5c1.1-0.6,1.9-2,1.9-3.3c0-8.9-1.2-17.8-2.1-26.6
			c-1.2-12.5-2.3-24.9-2.9-37.4c-0.5-11.1-0.8-22.5,1.2-33.4c0.7-3.7,1.6-7.8,3.8-10.8c2.8-3.7,8.9-5.5,13-7
			c6.5-2.4,16.2-5.2,19.8,2.8c3.3,7.4,2,17.1,1.3,24.8c-2,22.1-4.4,45.7,2.2,67.3c2.7,8.8,8,16.9,17.2,19.5
			c11.3,3.2,24.1-1.5,34.6-5.6c1.5-0.6,2.8-1.9,2.7-3.7c-1-18.3,0-37.1,3-55.2c2.2-13.6,5.5-27.6,12.5-39.6c2.9-5,6.5-9.7,11.2-13
			c6.3-4.5,14.2-5.7,21.6-6.9c14.6-2.3,31.9-2.5,43.3,8.3c9.7,9.3,13.3,23.3,16.2,36c3.6,15.7,6.1,31.6,9.2,47.3
			c2.4,12.4,7.7,23.9,22,24c3.8,0,7.7-0.7,11.3-1.6c3-0.7,6.8-1.4,9.5-3.2c2.2-1.4,3.3-3.7,4.1-6c2.4-6.6,2.7-14.2,3.1-21.1
			c1.4-24.7-0.2-49.8-1.7-74.4c-2.9-45.8-7.3-91.6-12.5-137.2c-0.1-1.1-0.2-2.2-0.4-3.4c-0.3-1.7-1-3.2-1.7-4.8
			c-0.3-0.7-0.7-1.5-0.9-2.2c-0.3-1-0.3,1.5,0.2-0.9c0.5-2.3,1.2-4.3,2.6-6.3c4.5-6.3,11.5-11.2,17.1-16.7c5-4.8,9.9-9.6,14.8-14.4
			c5.6-5.5,11.2-11.2,16.2-17.3c3.6-4.4,5.8-8.3,4.4-14.2c-3.5-14.3-19.9,0.4-24.8,5.2C518.8,327.9,515.6,331.5,512.2,335
			c-3.4,3.5,1.9,8.7,5.3,5.3c7-7.1,13.6-15.2,22.3-19.6c0.4-0.2-0.2-0.7-0.2-0.1c-0.1,1.1,0.5,2.3,0.2,3.6c-0.3,1.2-1.9,3.3-3.1,4.7
			c-4.6,5.6-9.8,10.8-15,15.9c-5,5-10,9.8-15.1,14.8c-5.4,5.3-11.8,10.1-16.7,16c-2.6,3.1-4.7,6.6-5.3,10.6c-0.7,3.8,0.5,6.5,2,9.8
			c0.7,1.5,0.4,2.8,0.4,0.1c0,0.1,0.1,0.2,0,0.3c-0.1,0.4,0.1,1.1,0.2,1.5c4.1,42.7,9,85.3,11.9,128.1c1.8,25.5,3.4,51.1,2.7,76.7
			c-0.2,8-0.4,16.1-2.1,23.7c-0.7,2.9-1.2,3.7-2.1,5.7c0.4-0.8,0.2-0.2-0.2,0.1c0.9-0.8,0.5-0.3,0.2-0.2c-0.1,0-0.1,0.1-0.2,0.1
			c1-0.5,0.7-0.4-0.8,0.2c-4.6,1.4-9.2,2.9-14.1,3.3c-5.2,0.3-9.7-0.8-12.6-5.6c-3.2-5.4-4-12.4-5.1-18.6
			c-2.6-15.7-5.5-31.7-9.6-47.1c-3.1-12.1-7.6-24.8-16.8-33.7c-10.8-10.3-26-12.7-40.4-11.5c-14.7,1.1-30.1,3.7-40.5,15
			c-8.8,9.7-13.6,22.5-16.9,34.9c-5.8,22.4-7.3,46.1-6.7,69.2c0,1.4,0.1,2.8,0.2,4.2c0.9-1.2,1.9-2.4,2.7-3.7
			c-9.1,3.7-20.9,8.5-30.9,5.5c-8.2-2.4-11.2-11.2-12.9-18.7c-2.9-12.8-3.3-26.9-2.6-40c0.4-9.4,2-18.6,2.4-27.9
			c0.4-7.9,0.5-17.4-4.4-24.1c-5.5-7.7-15.5-7.2-23.7-4.7c-9.8,3.1-19.6,7-23.3,17.1c-3.6,9.6-3.7,20.6-3.7,30.7
			c0,14.5,1.3,29.1,2.6,43.6c1,10.6,2.5,21.4,2.6,32.1c0.7-1.1,1.2-2.2,1.9-3.3c-8.3,4.3-18.3,8.1-27.7,5.8
			c-7.7-1.8-13.5-7.4-17.7-13.9c-11.7-18.5-14.3-42.7-16.4-64c-2.2-24-2.3-48-3-72.1c-0.9-37.3-6.5-74.6-10.7-111.6
			c-6.3-55.4-12.5-110.9-15.3-166.6c-0.1-2.8-3.1-4.7-5.6-3.3c-17.1,9.9-34.1,19.8-52.5,27.3c-15.8,6.5-33.2,12.8-50.3,7.1
			c-15.7-5.2-26.9-25.3-17.7-40.8c8.2-13.8,27-17.1,38.3-27.6c7.3-6.8,13.1-15,19.7-22.5c5.7-6.7,12.3-13.8,21.2-15.7
			c3.1-0.7,3.7-5.4,0.9-6.8c-14.9-7.3-26-23.2-28-39.7c-1.2,1.2-2.5,2.5-3.7,3.7c11.2,0.8,25.3,1.1,35.3,6.9
			c7.1,4.1,12.3,11.1,19.7,14.8c5.7,2.9,12.4,3.5,17.4-1.1c4.1-3.7,6.3-9.3,8.2-14.4c2.3-6.3,4.1-12.8,6.7-19.1
			c1.8-4.5,4.3-10.6,9-12.7c1.4-0.7,3.5-0.9,4.9-0.5c0.6,0.2,0.7,0.5,0.7,1.6c0.3,4.2-2.2,9-3.7,12.7c-4,9.4-10.8,19.3-11.8,29.7
			c-0.8,8.8,8.9,13.4,15.9,8.8c7.9-5.2,11.2-16.7,14.6-24.8c1.9-4.4,7.2-20.2,13.9-17.5c7.3,3.1-7.6,21.9-9.8,25.7
			c-5.5,9.1-12.9,22.3-2.2,30.6c1.4,1,3.4,0.4,4.5-0.6c21.8-18.9,56.1-38.7,85.2-24.6c-0.6-1.4-1.1-2.8-1.7-4.2
			c-4.5,12.8-16.7,22.6-28,29.3c-12.4,7.4-26.8,12.7-41.4,12.3c-4.2-0.2-5.1,6.3-1,7.4c1.7,0.5,3.3,0.9,5,1.3
			c-0.9-1.2-1.9-2.4-2.7-3.7c6.6,53.1,9,106.8,18.9,159.6c1.9,10,3.9,20.4,7.8,29.9c1.2,2.9,2.5,6,4.8,8.2c3.4,3.4,9.2,4.1,13.7,5
			c34.4,6.4,70-6.1,103.2-13.6c19.7-4.5,39.8-8.3,60.1-7.1c9.6,0.6,19,2.4,27.8,6c4.6,1.8,9,4.1,13.1,6.8c3.3,2.1,9.3,5.3,10.9,9
			c0.6,1.4,2.8,2.2,4.2,1.7c15.7-5.5,27.2-19.3,38-31.2C520.8,336.7,515.5,331.4,512.2,335z"/>
	</g>
</g>
<g>
	<g>
		<path d="M547.5,317.7c-4.7-2-5.2-10-5-14.3c0.5-5.4,3.3-10.6,8-13.5c8.9-5.4,20.7-4.2,30.5-7.3c-1.6-1.2-3.2-2.4-4.8-3.7
			c0.7,10.9,1,25.4-7.5,33.6c-4.8,4.6-19.3,10.5-23.7,2.7c-2.3-4.2-8.9-0.5-6.5,3.7c6.5,11.4,23.8,7.5,32.6,1.2
			c12.6-9,13.5-27.3,12.6-41.3c-0.2-2.3-2.2-4.4-4.8-3.7c-12.4,3.9-28.3,1.9-37.7,12.6c-4.7,5.3-6.7,12.7-6.2,19.7
			c0.5,5.9,2.5,14.1,8.6,16.7C548.1,326,551.9,319.5,547.5,317.7L547.5,317.7z"/>
	</g>
</g>
<g>
	<g>
		<path d="M18.9,230c2,7.1,13.7,3.3,18.2,1.7c6.5-2.3,13.6-6.9,8.5-14.5c-2.3-3.6-6.5-6-10.2-7.9c-2.7-1.3-5.6-3.2-8.4-1.5
			c-6.8,4.1-8.9,14.1-8.2,21.3c0.5,4.8,8,4.8,7.5,0c-0.4-4.2-0.1-8.5,2.3-12.2c0.6-0.9,1.5-1.6,2.2-2.5c0.5-0.7,0.3-0.3,0.6-0.5
			c-0.9,0.1-2,0.3-2.9,0.4c3.1,1.2,6.3,2.8,8.9,4.9c0.8,0.7,2.4,1.8,2.6,3c0.1,0.4,0.7-1,0,0.1c-0.2,0.3-0.7,0.5-0.9,0.6
			c-2.4,1.4-5.2,2.2-7.9,2.9c-1.2,0.3-2.4,0.6-3.7,0.7c-0.4,0-1.7-0.1-2,0.1c-1.2,0.7-0.4-3.1,0.9,1.5
			C24.8,223.4,17.6,225.4,18.9,230z"/>
	</g>
</g>
<g>
	<path class="st0" d="M32,255c14,13.9,35.6,5.7,42.4-20c1.9-7-4.3-13.2-6.2-6.1c-5.2,19.7-23.4,34.9-34.4,24.1
		C29.8,249,28.1,251,32,255L32,255z"/>
</g>
<g>
	<g>
		<g>
			<path d="M270.3,387.8c-7.6,0-16.8,1-22.9,5.9c-7.8,6.1-4.8,16.7,1.8,22.6c11.3,10.3,30.8-0.2,33.4-14c1.8-9.8-7.3-14-15.6-14.4
				c-4.8-0.3-4.8,7.2,0,7.5c5.8,0.4,10.3,2.4,7.1,8.4c-2.5,4.8-8.1,9-13.5,9.3c-5.2,0.3-13.5-7-9.7-12.4c3.6-5.1,13.9-5.2,19.4-5.3
				C275.1,395.2,275.1,387.7,270.3,387.8L270.3,387.8z"/>
		</g>
	</g>
	<g>
		<g>
			<path d="M389.1,362.6c-7.6,0-16.8,1-22.9,5.9c-7.8,6.1-4.8,16.7,1.8,22.6c11.3,10.3,30.8-0.2,33.4-14c1.8-9.8-7.3-14-15.6-14.4
				c-4.8-0.3-4.8,7.2,0,7.5c5.7,0.4,10.3,2.4,7.1,8.4c-2.5,4.8-8.1,9-13.5,9.3c-5.2,0.3-13.5-7-9.7-12.4c3.6-5.1,13.9-5.2,19.4-5.3
				C394,370.1,394,362.6,389.1,362.6L389.1,362.6z"/>
		</g>
	</g>
	<g>
		<g>
			<path d="M329.6,384.5c-7.4,0-16.1,0.5-22.8,4c-7.6,4.1-6.5,12.1-0.7,17.3c5.8,5.2,14.3,5.7,21.5,3.2c5.6-2,12.6-6,14.3-12.3
				c2.7-9.6-8.9-12.1-15.8-12.4c-4.8-0.2-4.8,7.3,0,7.5c2.3,0.1,6.9,0.1,8.5,2.1c0.4,0.5-0.2,1.6-1.2,2.8c-3.5,4.2-10,6.7-15.4,6.3
				c-3.2-0.2-13.3-5-7.6-8.1c5.4-2.9,12.9-3,18.9-3C334.5,392,334.5,384.5,329.6,384.5L329.6,384.5z"/>
		</g>
	</g>
	<g>
		<g>
			<path d="M337.9,414.5c-7.5,0.1-16.6,1.2-22.4,6.4c-7.2,6.5-4.3,17.4,2.1,23.5c11.6,11.1,30-1.4,32.2-14.9
				c1.6-9.7-6.5-14.4-15.1-15c-4.8-0.3-4.8,7.2,0,7.5c5.7,0.4,9.5,3,7,8.8c-2.1,5-7.3,10.1-12.9,10.5c-5.9,0.5-12.9-8.3-9.3-13.7
				c3.5-5.1,12.9-5.5,18.4-5.5C342.8,422,342.8,414.5,337.9,414.5L337.9,414.5z"/>
		</g>
	</g>
	<g>
		<g>
			<path d="M448.6,361.7c-7.5,0.1-16.6,1.2-22.4,6.5c-7.2,6.5-4.2,17.4,2.1,23.5c11.6,11.1,30-1.4,32.2-14.9
				c1.6-9.7-6.5-14.4-15.1-15c-4.8-0.3-4.8,7.2,0,7.5c5.7,0.4,9.5,3,7,8.8c-2.1,5-7.3,10.1-12.9,10.5c-5.9,0.5-12.9-8.3-9.3-13.7
				c3.5-5.1,12.9-5.5,18.4-5.5C453.4,369.2,453.4,361.7,448.6,361.7L448.6,361.7z"/>
		</g>
	</g>
	<g>
		<g>
			<path d="M413.4,399.7c-13.9,0-29.8,1.1-42.3,7.9c-5.3,2.9-10,7.6-10.4,14c-0.4,7.4,4.8,14.7,10.1,19.4
				c10.6,9.2,25.3,9.7,37.9,4.8c10.5-4.1,22.5-12.5,25.6-24c4.6-16.8-15.5-21.4-27.7-21.9c-4.8-0.2-4.8,7.3,0,7.5
				c6.7,0.3,22.7,1.5,20.7,11.7c-1.6,8.5-11.1,15-18.3,18.5c-9.4,4.6-21.2,6-30.4,0.1c-4.6-2.9-9.6-8.3-10.4-14
				c-0.7-4.6,2.9-7.5,6.6-9.5c11.2-6,26-6.7,38.4-6.8C418.2,407.1,418.2,399.6,413.4,399.7L413.4,399.7z"/>
		</g>
	</g>
</g>
<g>
	<g>
		<g>
			<path d="M189.5,101c-3.7,8.1,7.2,12.7,13.5,12.9c7.9,0.3,9.8-5.6,11.7-12c1.8-5.9,2.9-17.1-6.3-17.2
				C200.3,84.7,193.1,94.9,189.5,101c-2.5,4.1,4,7.9,6.5,3.7c2.5-4.2,5.9-8.7,10-11.4c1.2-0.8,2.1-1.6,2.5-0.8
				c0.8,1.4-0.2,4.5-0.6,5.9c-0.5,2.1-1.2,4-2,6c-0.2,0.5-0.4,0.9-0.6,1.5c-0.2,0.5-0.7,0.8-0.2,0.6c0.5-0.3-1.4,0-1.7,0
				c-1.1,0-2.2-0.3-3.4-0.6c-0.9-0.3-1.9-0.7-2.7-1.2c-1.6-1-0.7-1.3-1.3,0.2C197.9,100.4,191.4,96.7,189.5,101z"/>
		</g>
	</g>
	<g>
		<g>
			<path d="M157.5,90.2c-3.7,8.2,8,12.6,14.2,12.9c3.7,0.2,7.7-0.7,9.4-4.2c1-2.2,1.7-4.6,2.3-6.9c1.6-6,2.8-17.6-6.3-18
				C168.8,73.5,161.3,84,157.5,90.2c-2.5,4.1,3.9,7.9,6.5,3.7c2.6-4.3,6.2-9,10.6-11.6c1.6-0.9,2.1-1.4,2.4,0c0.5,2-0.1,4.5-0.6,6.5
				s-1,3.9-1.7,5.8c-0.2,0.6-0.6,1.2-0.7,1.8c-0.4,1.3,0.6-0.7,0.3-0.9c-0.2-0.1-2.7,0.2-2.9,0.2c-1-0.1-2.1-0.4-3.1-0.7
				c-1-0.4-2.2-0.7-3-1.3c-1.7-1.1-0.6-1.1-1.2,0.5C166,89.7,159.6,85.8,157.5,90.2z"/>
		</g>
	</g>
</g>
<ellipse transform="matrix(0.342 -0.9397 0.9397 0.342 -84.1049 228.0201)" class="st1" cx="120.8" cy="174.1" rx="20.2" ry="15.4"/>
<ellipse transform="matrix(0.342 -0.9397 0.9397 0.342 -73.575 280.5684)" class="st1" cx="163.6" cy="192.8" rx="20.2" ry="15.4"/>
<ellipse transform="matrix(0.342 -0.9397 0.9397 0.342 -79.9793 221.4374)" cx="118.1" cy="167.8" rx="9.8" ry="7.8"/>
<ellipse transform="matrix(0.342 -0.9397 0.9397 0.342 -70.7642 274.2277)" cx="160.4" cy="187.6" rx="9.8" ry="7.8"/>
</svg>
