<svg id="Layer_1" data-name="Layer 1" xmlns="http://www.w3.org/2000/svg" viewBox="0 0 172.33 166.29"><defs><style>.cls-1,.cls-2,.cls-4{fill:none;}.cls-1,.cls-2,.cls-3,.cls-4{stroke:#000;stroke-miterlimit:10;}.cls-1{stroke-width:2.1px;}.cls-2{stroke-width:1.2px;}.cls-3{stroke-width:0.6px;}.cls-4{stroke-width:2.4px;}</style></defs><title>lion-small</title><path d="M62.52,150.44c-7.41,1.32-14.58,4.44-19.59,10.26-4.71,5.49-7.08,12.51-8.16,19.59-0.6,3.93-.72,7.86-1,11.82A78,78,0,0,0,33.66,203c0.51,6.51,2.79,14.4,10.05,16.05,4,0.9,8.34.6,12.39,0.27s7.89-.84,11.79-1.56a1.14,1.14,0,0,0,.84-0.84,8.23,8.23,0,0,0-1.59-7.65c-1.65-2.07-4-3.51-5.58-5.61-4.17-5.28-2.31-14.25,4.17-16.65,3.72-1.38,8.25-1.95,10.41,2.1,2,3.72,1.83,8.55,1.68,12.6-0.15,4.74-.9,9.51-0.66,14.25a1.26,1.26,0,0,0,.87,1.17,33.38,33.38,0,0,0,16-.42,1.2,1.2,0,0,0,.87-1.17c0.33-3.21-.39-6.63-0.63-9.81-0.3-4-.72-8.43.3-12.42,0.3-1.17.75-2.64,1.89-3.24a3.13,3.13,0,0,1,3.45.6c1.17,1.2,1.5,3.18,1.77,4.77a45.7,45.7,0,0,1,.39,7c0,4.74-.84,9.75,0,14.43a1.19,1.19,0,0,0,.84.84,29.77,29.77,0,0,0,14.79-.51,1.19,1.19,0,0,0,.87-1.17c0.27-5.94-.24-11.88-0.36-17.79-0.12-5.73-.12-11.73,2-17.16,0.54-1.44-1.77-2.07-2.31-.63-2.07,5.46-2.13,11.58-2,17.34,0.12,6.09.66,12.18,0.39,18.27,0.3-.39.6-0.78,0.87-1.17a26.52,26.52,0,0,1-13.53.51l0.84,0.84a28.06,28.06,0,0,1-.09-5.94c0.09-2.67.21-5.37,0.21-8,0-4.11.27-10.11-2.85-13.32a5.27,5.27,0,0,0-8.4,1.23c-2,3.66-1.68,8.58-1.47,12.6,0.12,2.52.36,5,.6,7.56a27.36,27.36,0,0,1,.24,5.19c0.3-.39.6-0.78,0.87-1.17a30.11,30.11,0,0,1-14.79.42c0.3,0.39.6,0.78,0.87,1.17-0.24-4.5.48-9.06,0.63-13.56,0.18-4.65.27-9.87-1.8-14.16S72,182.9,67.62,184A12.67,12.67,0,0,0,57.21,199c0.57,3.75,2.43,6.39,5.16,8.88,2.58,2.34,5.07,4.56,4.08,8.37l0.84-.84c-6.63,1.2-13.62,2.16-20.34,1.65-2.88-.21-5.43-1-7.35-3.33-2.16-2.61-3-6.18-3.36-9.48a64.23,64.23,0,0,1-.12-10.47c0.21-3.54.3-7.05,0.69-10.59,0.78-6.75,2.55-13.59,6.54-19.2,4.68-6.57,12.09-9.93,19.86-11.31,1.47-.21.84-2.52-0.69-2.25h0Z" transform="translate(-12.71 -53.39)"/><path class="cls-1" d="M40.11,166.94c-6.39-1.44-11.46-.15-16.41-4.11-7.5-6-2.73-12.36,1.05-18.36,0.87-1.38.15-3.09-1.26-2.28-8.16,4.65-11.82,12.06-8.52,21,3.24,8.79,22.14,10.53,22.14,10.53Z" transform="translate(-12.71 -53.39)"/><path d="M26.07,142.52c-0.54-1.95-2.43-9.9,1.41-9.57,2.73,0.24,4.35,2.28,3.12,4.8-1,2-3.27,4-5.67,3.87-1.53-.12-1.53,2.28,0,2.4,4.68,0.36,10.62-5.91,8-10.53A6.77,6.77,0,0,0,26,130.67c-2.19.6-2.94,2.94-3.12,5a21.65,21.65,0,0,0,.9,7.47,1.18,1.18,0,0,0,2.28-.6h0Z" transform="translate(-12.71 -53.39)"/><path d="M127.86,53.39A87.46,87.46,0,0,0,117,53.9a89,89,0,0,0-8.88,1.65A63.27,63.27,0,0,0,87,64.64C75.87,71.9,66.33,81.23,60.63,93.35c-10.14,21.6-8.61,49.38,8.58,67,9.06,9.3,21.39,15.69,33.84,19.05s26.25,3.81,38.76-.15c26.28-8.28,43-36.6,43.23-63.3,0.15-15.06-4.89-29.79-13-42.39-3.69-5.73-8.37-11.13-14.46-14.4A51.48,51.48,0,0,0,139.41,54a93.11,93.11,0,0,0-11.55-.6,1.2,1.2,0,0,0,0,2.4c6.81,0,13.65.42,20.25,2.31a34.57,34.57,0,0,1,16.47,9.69c4.56,4.92,7.92,10.89,10.83,16.92A72.84,72.84,0,0,1,182,106.28a68,68,0,0,1-6.87,39.9c-5.85,11.43-14.79,22-26.4,27.75-22.68,11.28-51.6,5.28-71.25-9.48a50.9,50.9,0,0,1-19.11-28.59,63.3,63.3,0,0,1,8.91-49.44,63.64,63.64,0,0,1,12.6-13.56A77.35,77.35,0,0,1,98.88,61a67.2,67.2,0,0,1,18.93-4.74,94.39,94.39,0,0,1,10.08-.42,1.2,1.2,0,0,0,0-2.4h0Z" transform="translate(-12.71 -53.39)"/><path class="cls-2" d="M137.82,90.23c0-.12,0-0.24,0-0.36,0,0.06-.06.15-0.09,0.21Z" transform="translate(-12.71 -53.39)"/><path d="M166.77,110.9a26.67,26.67,0,0,0-8.7-14.16l0.18,1.44c1.77-2.46,3.12-5.43,2.64-8.55A9.19,9.19,0,0,0,157,83.69a16,16,0,0,0-14.85-1.62,8.75,8.75,0,0,0-5.25,6.06,1.2,1.2,0,0,0,.3,1.17c-0.54-.45-0.15-0.45-0.33-0.78,0.09,0.15,0-.15,0-0.15a1.94,1.94,0,0,0-.12.6c-0.21.93-.48,1.83-0.75,2.73-1.41,4.86-2.85,9.69-4.29,14.55-1.56,5.22-3.12,10.47-4.65,15.69a1.2,1.2,0,0,0,.84,1.47A10.68,10.68,0,0,1,125.73,144a39,39,0,0,1-7.71.06,10.67,10.67,0,0,1-1.86-21,1.2,1.2,0,0,0,.84-1.47q-3.87-14.58-7.77-29.19c-0.36-1.38-.72-2.73-1.11-4.11a1.22,1.22,0,0,0-1.17-.87c-2.46.3-4.41-2.25-6-3.78-1.86-1.83-3.93-3.51-6.6-3.93A10.11,10.11,0,0,0,82.89,90.32a14.88,14.88,0,0,0,3.78,9.18V97.79a34.24,34.24,0,0,0-9.54,29.31,37.24,37.24,0,0,0,15,24.18,28.26,28.26,0,0,0,12.57,5,59.21,59.21,0,0,0,7.65.15c3.06,0,6.15.15,9.21,0.27,11.64,0.48,24.45.69,33.63-7.68a39.89,39.89,0,0,0,11.58-38.16,1.2,1.2,0,0,0-2.31.63,37.21,37.21,0,0,1-8.28,33.06,27.92,27.92,0,0,1-14.1,8.64c-5.46,1.35-11.13,1.38-16.71,1.2s-11.25-.45-16.89-0.33A24.19,24.19,0,0,1,96.36,151a34.19,34.19,0,0,1-16-20.55,31.8,31.8,0,0,1,8-31,1.25,1.25,0,0,0,0-1.71,11.81,11.81,0,0,1-3-9.42,7.57,7.57,0,0,1,7-6.27c3.12-.27,5.34,1.77,7.38,3.81,1.89,1.89,4.23,4.35,7.17,4-0.39-.3-0.78-0.6-1.17-0.87q3.87,14.58,7.77,29.19c0.36,1.38.72,2.73,1.11,4.11l0.84-1.47a13.07,13.07,0,0,0-1,25,16.94,16.94,0,0,0,5.88.72c1.68,0,3.39.09,5.07-.06a13.08,13.08,0,0,0,3.06-25.38l0.84,1.47c2.43-8.19,4.89-16.38,7.29-24.6,0.84-2.82,1.8-5.61,2.43-8.46a1.84,1.84,0,0,0-.21-1.92c0.09,0.39.21,0.78,0.3,1.17,1.86-8.07,17.13-6.75,19.2.6,0.78,2.73-.63,5.46-2.19,7.62a1.17,1.17,0,0,0,.18,1.44,24.39,24.39,0,0,1,8.07,13.11C164.79,113,167.1,112.4,166.77,110.9Z" transform="translate(-12.71 -53.39)"/><path d="M138,87.11c-5.73-3.75-12.93-4.89-19.65-4.08-4.17.51-9.15,1.77-12.3,4.77a1.2,1.2,0,0,0-.3,1.17q3.87,14.58,7.77,29.19c0.36,1.38.72,2.73,1.11,4.11a1.23,1.23,0,0,0,1.47.84,24.09,24.09,0,0,1,5.7-.36,17.93,17.93,0,0,1,6.06.66c1.47,0.48,2.1-1.83.63-2.31a20.23,20.23,0,0,0-6.69-.75,26.37,26.37,0,0,0-6.33.45l1.47,0.84q-3.87-14.58-7.77-29.19c-0.36-1.38-.72-2.73-1.11-4.11-0.09.39-.21,0.78-0.3,1.17,2.58-2.46,7.38-3.72,11.07-4.14a27.51,27.51,0,0,1,18,3.78c1.29,0.87,2.49-1.2,1.2-2h0Z" transform="translate(-12.71 -53.39)"/><path class="cls-3" d="M122.64,130.73a21.64,21.64,0,0,1-.3,4.8,0.43,0.43,0,0,1,.06.21c0.18,2.07,1.65,4,3.93,3.9s3.57-2.28,3.81-4.47c0.09-.84,1.41-0.84,1.32,0-0.3,2.85-2.1,6-5.4,5.79a5.06,5.06,0,0,1-4.44-3.12,5.51,5.51,0,0,1-3.66,3.24c-4.38,1.14-6.09-3.78-5.88-7.26,0.06-.84,1.38-0.84,1.32,0-0.15,2.43.87,7.26,4.41,5.91,3.36-1.26,3.81-5.67,3.57-9.12l-5.16-8.31h11.7Z" transform="translate(-12.71 -53.39)"/><ellipse class="cls-4" cx="86.8" cy="60.12" rx="6" ry="7.86"/><ellipse class="cls-4" cx="133.06" cy="60.12" rx="6" ry="7.86"/></svg>