<?xml version="1.0" encoding="utf-8"?>
<!-- Generator: Adobe Illustrator 19.2.1, SVG Export Plug-In . SVG Version: 6.00 Build 0)  -->
<svg version="1.1" id="Layer_1" xmlns="http://www.w3.org/2000/svg" xmlns:xlink="http://www.w3.org/1999/xlink" x="0px" y="0px"
	 viewBox="0 0 700 700" style="enable-background:new 0 0 700 700;" xml:space="preserve">
<style type="text/css">
	.st0{fill:none;stroke:#000000;stroke-width:6.577;stroke-miterlimit:10;}
	.st1{fill:none;stroke:#000000;stroke-width:7.6989;stroke-miterlimit:10;}
</style>
<title>unicorn</title>
<path d="M461.3,440.5c2.2-25.1,37.3-27.6,56.2-25.8c10.1,1,22.2,3.1,30.5,9.5c5.6,4.4,9.7,10.9,13.4,16.9
	c11.2,18.5,19.8,38.5,30.1,57.5c9.6,17.6,20.5,36.4,37.1,48.2c7.8,5.5,17.3,8.9,26.9,8c12.1-1,22.4-7.4,31.6-15
	c-2.5-1-5.1-2.1-7.5-3.1c-0.3,20.5-19.7,28.3-37.4,29.7c-19,1.5-39.2-1-53.1-15c-6.8-6.8-12.5-14.6-19.1-21.6
	c-7.1-7.8-15.2-14.6-24.1-20.3c-15.4-9.6-32.8-14.6-48.8-22.8c-8.2-4.2-15.9-9.1-22-16.2c-7.7-8.8-11.5-20-13.6-31.3
	c-1-5.6-9.5-3.2-8.5,2.3c3.8,20.8,14.3,37.9,32.6,48.9c16.6,10,35.7,14.8,52.6,24.6c10,5.9,19,13.3,26.7,22
	c7.1,7.7,13.3,16.4,21.2,23.4c15.7,14,38.5,16.7,58.8,14.5c22-2.4,43.3-13.5,43.8-38.3c0.1-4.1-4.7-5.4-7.5-3.1
	c-7.7,6.4-17,12.2-27.3,12.4c-8.2,0.2-15.8-3.2-22.2-8.2c-16.5-13-26.9-33.4-36.4-51.7c-9.7-18.6-17.9-38.4-29.8-55.7
	c-4.4-6.4-9.5-12.5-16.4-16.3c-10.3-5.5-22.4-7.8-34-8.6c-24.4-1.5-59.4,5.3-62,34.9C452,446.2,460.8,446.1,461.3,440.5L461.3,440.5
	L461.3,440.5z"/>
<path d="M258.2,260.5c6.3-1.7,12.8-2.6,19.4-2.6c6.3,0.1,12.2,2.3,18.5,2.6c2.6,0.1,5.3-3,4.3-5.6c-11.5-29.5-36.7-53.8-68-61.2
	c-2.5-0.5-5.8,1.3-5.6,4.3c1,11.3,2,22.5,3,33.9c0,2,1.3,3.7,3.2,4.3c5.3,1.8,11.4,3.5,15.5,7.6c3.4,3.4,4,8,4.2,12.5
	c0.2,5.6,9,5.7,8.8,0c-0.2-6.6-1.4-13.1-6-18.1c-5.2-5.6-13.1-8.2-20.1-10.6c1.1,1.4,2.2,2.9,3.2,4.3c-1-11.3-2-22.5-3-33.9
	l-5.6,4.3c28,6.6,51.4,28.5,61.8,55l4.3-5.6c-6.9-0.4-13.4-2.7-20.5-2.6c-6.7,0.3-13.3,1.3-19.7,3
	C250.3,253.4,252.7,261.9,258.2,260.5z"/>
<path d="M265,281.7c-5.4,26.1-13.7,53.5-12.2,80.4c0.5,10.1,3.1,20.3,9.3,28.5c7,9.1,17.7,14.3,28.7,16.8c8.6,1.8,17.4,2.7,26.2,2.5
	c6,0,12.1-0.4,18.3-0.8c5.7-0.3,11.8,0,17.4-0.9c4.1-0.7,3.8-6.2,1.1-8c-10.1-6.9-22-10.1-33.7-13.2c-10.1-2.7-22.3-5.3-29.4-13.7
	c-6.7-8-5.2-17.4-3.2-26.7c2.4-11.7,5.6-23,8.5-34.5c1.4-5.5,2.7-11.1,3.7-16.7c0.5-3.4,1.3-7.5,0.2-10.9c-0.5-1.9-2.3-3.2-4.3-3.2
	c-8.1,0.3-17.5,0-25.3-2.4c-5.4-1.8-7.7,6.8-2.3,8.5c8.5,2.7,18.7,3.1,27.6,2.7c-1.4-1.1-2.9-2.2-4.3-3.2c0.7,1.9-0.1,5.8-0.5,8.5
	c-1,5.3-2.3,10.6-3.6,15.7c-3.1,12-6.5,24-8.8,36.1c-1.9,10-2.6,19.5,3.1,28.5c6.2,9.8,17,14.4,27.7,17.6
	c13.6,4.2,28.2,6.5,40.1,14.7c0.3-2.6,0.7-5.4,1.1-8c-4.5,0.7-9.5,0.3-14.1,0.5c-5.3,0.3-10.7,0.7-15.9,0.8
	c-7.7,0.2-15.4-0.2-23-1.4c-10.1-1.8-20.5-5.2-27.3-13.2c-13.2-15.3-8.9-40.1-5.7-58.1c2.6-14.8,6-29.6,9-44.4
	C274.7,278.5,266.2,276.2,265,281.7z"/>
<path d="M199.3,218.3c-5.4-17-20.8-24.7-36.4-30.6c-1.9-0.5-3.9,0.3-4.9,2c-8.2,14-5.1,29.5,3.4,42.6l6-6
	c-19.6-9.3-37.1,7.6-50.9,19.5c-8.4,7.3-16.1,13.9-27.4,15.3c-13.4,1.6-25.6,3-34.8,14.1c-14.5,17.7-8,42.8,9.6,55.5
	c15.2,11,35.6,11.4,53.6,9.9c21.4-1.9,42.3-7.7,63.8-10.1l-4.4-4.4c0.3,2.5,0.7,5.7-0.3,7.9c-0.9,1.7-2,3.3-3.1,4.8
	c-2.6,4.2-5.4,8.2-8.1,12.3c-6.8,10.2-13.7,20.5-20.6,30.8c-5.8,8.9-11.8,17.9-16.6,27.5c-5.9,11.9-9.5,23.9-12.6,36.6
	c-3.2,12.5-9,22.8-20.2,29.9c-9,5.7-19.1,6.9-29.1,9.9c-22.1,6.5-30.7,30.4-31.3,51.7c-0.3,10.1,1.5,21.9,9.3,29.1
	c9.3,8.7,22.7,6.7,33.4,2.4c1.6-0.7,3.5-2.2,3.2-4.3c-2.2-16.6-4-38.2,9.5-50.8c13.4-12.6,35.5-13,52.6-13.3
	c-1.3-0.8-2.5-1.4-3.8-2.2c7,13.4-1.3,25.6-9.6,36.2c-10,12.8-20.9,25-26.5,40.4c-5.3,14.5-4.4,31.1,0.2,45.8
	c4.5,14.3,14.6,28.3,31.3,23.5c14.3-4.1,13.9-17.7,10.2-29.6c-2-6.6-4.8-13.1-5.8-19.9c-1.2-8.1,3.5-16.6,7.7-23.3
	c18.7-29.6,54-5.6,77.2,4.5c46.2,20.1,97.7,14.5,146.1,6.4c-1.8-1-3.6-2.1-5.4-3.1c6.6,37.6,32.1,74.9,68.8,88.3
	c11.1,4.1,23.5,5.3,35.2,5.4c12.1,0.1,25.4-1.1,36.1-7.1c12.1-6.8,15.2-19.5,10.1-32.1c-0.9-2.3-2.9-3.7-5.4-3.1
	c-21.9,5.3-48.1,8.6-68.1-4.1c-21.7-13.6-26-41.6-25.8-65.1l-4.4,4.4c13.3,0.4,22,9.2,30,18.9c8,9.7,15.9,20.1,27.6,25.6
	c13,6,27.6,5.1,41.1,1.8c12.4-3,26.3-8.5,34.4-18.9c10.1-13,4.1-27.5-6.6-37.9c-1.8-1.7-4.5-1.7-6.3,0c-11.4,10.1-27.5,23.9-44.2,21
	c-17.2-3-28.5-21.6-36.6-35.2c-0.9,2.2-1.8,4.3-2.6,6.5c12.6-4.9,23-13.3,27.8-26.3c4.5-12.1,3.2-25.7-0.1-37.8
	c-7.7-28-26.8-54.6-51.8-69.7c-32.8-19.9-69.8-13.1-106-13c-23.2,0.1-49.8-4.7-55.2-30.9c-2.5-12.4-0.9-25.7,1.2-38.2
	c2.6-16.1,6.4-32,9.7-48c-1.8,1-3.6,2.1-5.4,3.1c8.7,2.9,18.1,4.2,26.8,0.4c8-3.5,13.3-10.6,17-18.3c1-1.7,0.7-3.9-0.7-5.3
	c-14.1-15.6-36.7-16.2-55.9-11.7c1.8,1,3.6,2.1,5.4,3.1c-1.5-5.9-2.9-12.4-7-17.2c-4.7-5.3-12.2-8.1-18.5-11.2
	c-5.1-2.4-9.6,5.2-4.4,7.6c5.2,2.4,12.2,4.8,16.2,9.2c3.3,3.6,4.1,9.3,5.3,13.9c0.6,2.3,3.1,3.7,5.4,3.1c16.2-3.7,35.4-3.8,47.3,9.5
	l-0.7-5.3c-2.9,5.9-6.5,11.9-12.8,14.6c-6.8,3-14.3,1.4-21-0.9c-2.3-0.6-4.7,0.7-5.4,3.1c-5.2,25.3-12.9,51.4-12.3,77.4
	c0.2,9.9,2.1,20.2,7.5,28.7c5.6,8.7,14.3,14.4,24.1,17.7c15,5.1,31.2,4.7,46.9,3.8c18.5-1.1,37.5-2.5,56,0.5
	c31.7,5.3,56.8,26.6,71.6,54.7c6.8,12.9,12,27.7,11.2,42.5c-0.8,15.4-10,26.8-24.2,32.3c-2.5,1-4.2,3.8-2.6,6.5
	c9.7,16.1,22.9,36.1,42.9,39.4c19.8,3.2,37.8-11.1,51.7-23.4h-6.3c8.5,8.4,13.4,19,3.8,28.6c-8.7,8.6-21.8,12.6-33.5,14.7
	c-12.5,2.2-25.1,1.4-35.6-6.3c-9.1-6.7-15.4-16.5-22.9-24.9c-8.7-9.7-19-16.4-32.2-16.8c-2.4,0-4.4,2-4.4,4.4
	c-0.1,21.9,3.3,45.5,18.3,62.6c12.3,14,30.7,19.6,48.8,19.9c12.8,0.2,25.6-1.9,37.9-4.8c-1.8-1-3.6-2.1-5.4-3.1
	c3.5,8.9,2.9,17.2-6,22.1c-9.3,5.3-21.2,6-31.7,5.9c-10.4-0.1-21.1-1.2-31.1-4.5c-15.7-5.2-29.3-16.1-39.7-28.7
	c-12.8-15.6-21.4-34.2-24.9-54.1c-0.4-2.5-3.3-3.4-5.4-3.1c-43.7,7.3-91,13.1-133.3-3.1c-14-5.3-27.1-12.9-41-18.1
	c-12.3-4.5-26.4-7.1-38.6-0.9c-6.4,3.3-11.3,8.7-15.2,14.6c-4.3,6.6-9.1,15.6-9.6,23.6c-0.8,13.1,8.5,24.4,8.5,37.3
	c0,6.4-5.4,9.6-11.5,9.2c-6.6-0.4-10.9-7.6-13.3-13c-5.9-13.5-7.4-30.5-2.7-44.5c5.5-17,18.8-29.8,29.1-43.9
	c9.2-12.5,14.5-26.6,6.7-41.4c-0.8-1.4-2.3-2.2-3.8-2.2c-19.6,0.9-43.6,2-58.7,16.4s-14.6,37.9-12,57.1c1.1-1.4,2.2-2.9,3.2-4.3
	c-8.5,3.4-20.1,6.4-26.7-2.1c-5.5-7.1-5.6-17.8-4.5-26.3c1.3-10.8,4.8-23.9,12.9-31.6c6.4-6.2,15.7-7.1,23.9-9.2
	c10.6-2.6,20.2-7.4,28.2-15c8.2-7.8,12.5-17.7,15.3-28.6c3.1-12.2,6.4-23.9,12.2-35.1c4.7-9.1,10.4-17.7,15.9-26.3
	c7.1-11,14.6-21.9,21.9-32.9c2.7-4.2,5.5-8.2,8.1-12.4c3-4.4,4.1-9.8,3.2-15.1c-0.2-2.2-1.8-4.7-4.4-4.4
	c-16.5,1.9-32.7,5.8-49.1,8.4c-16.8,2.6-35.3,4.6-51.9-0.8c-16.4-5.6-30.7-23.4-23.3-41.5c2.5-5.9,7-10.8,12.6-13.9
	c6-3.1,13.1-3.3,19.7-4.1c8.8-0.9,17.1-4.3,24-9.8c8.4-6.4,15.8-14,24.3-20.1c7.4-5.3,16.5-10.3,25.6-6c3.6,1.8,8.6-2.1,6-6
	c-6.8-10.3-10.1-22.3-3.4-33.7l-4.9,2c12.5,4.7,26,10.7,30.2,24.4C192.4,226,201,223.7,199.3,218.3L199.3,218.3L199.3,218.3z"/>
<path d="M198.6,232c7.9-31,9.6-63.2,20.2-93.6l-7.4,2c8.5,6.6,10.9,18.7,12.6,28.7c2.1,12.1,2.5,24.4,3.2,36.7
	c0.2,5.2,0.8,10.3,1.3,15.5c0.3,3.2,1.4,7.9-0.8,10.7c-2.9,3.6-10,4.6-14.2,5.2c-6.9,1.1-12.3-0.3-15-7.4c-2-5.3-10.4-3-8.5,2.3
	c4.5,12.1,14.3,15.6,26.5,13.4c8.8-1.5,19.4-4.8,20.9-15c0.7-4.5-0.1-9.1-0.7-13.6c-0.5-5.1-0.8-10.1-1-15.2
	c-0.4-11.9-1.5-23.8-3.4-35.6c-2-11.2-5.3-24.5-14.7-31.9c-2.6-2.1-6.2-1.4-7.4,2c-10.6,30.4-12.2,62.7-20.2,93.6
	C188.7,235.2,197.2,237.5,198.6,232L198.6,232L198.6,232z"/>
<path d="M78.8,271.8c15.9-2.6,16.5,17.5,17,28.6c0.3,6.7,0.7,14-1.5,20.5c-1.1,3.2-3.2,6-5.9,8c-1.2,0.9-2.6,1.4-1.6,1.3
	c-4.8,0.4-12-2.9-16.1-4.8c-7.7-3.8-14.1-10-15.5-18.8c-1.1-6.7,0.4-14.4,3.2-20.6C62,277.7,70.5,273.5,78.8,271.8
	c5.5-1.2,3.2-9.7-2.3-8.5c-19.1,4.1-30.5,19.1-30.6,38.6c-0.1,12.9,7.1,23.6,18.1,29.9c6,3.5,14.8,7.3,22.1,7.1
	c6.3-0.1,12.4-6.5,15-11.8c4-7.9,4-17.4,3.6-26.1c-0.4-9.5-1-20.3-5.8-28.7c-4.8-8.4-13.3-10.7-22.4-9.1
	C70.9,264.2,73.2,272.6,78.8,271.8z"/>
<path class="st0" d="M56.8,318.6c12.5,10.8,20,6.9,27.8-18.6c2.5-8.1-3.5-15.8-5.9-7.7c-6.2,19.9-15.1,19.6-24.4,11.5
	c-4.2-3.6-4.8,4.6-0.8,8.1L56.8,318.6z"/>
<ellipse transform="matrix(0.342 -0.9397 0.9397 0.342 -151.4353 313.2521)" class="st1" cx="148" cy="264.8" rx="17.9" ry="13.7"/>
<ellipse transform="matrix(0.342 -0.9397 0.9397 0.342 -142.0251 360.0663)" class="st1" cx="186.1" cy="281.4" rx="17.9" ry="13.7"/>
<ellipse transform="matrix(0.342 -0.9397 0.9397 0.342 -147.6283 307.3493)" cx="145.7" cy="259.1" rx="8.8" ry="6.9"/>
<ellipse transform="matrix(0.342 -0.9397 0.9397 0.342 -139.3872 354.445)" cx="183.4" cy="276.8" rx="8.8" ry="6.9"/>
</svg>
