<?xml version="1.0" encoding="utf-8"?>
<!-- Generator: Adobe Illustrator 19.2.1, SVG Export Plug-In . SVG Version: 6.00 Build 0)  -->
<svg version="1.1" id="background" xmlns="http://www.w3.org/2000/svg" xmlns:xlink="http://www.w3.org/1999/xlink" x="0px" y="0px"
	 viewBox="0 0 113.3 109.1" style="enable-background:new 0 0 113.3 109.1;" xml:space="preserve">
<style type="text/css">
	.st0{fill:#E89C2D;}
	.st1{fill:#F9C032;}
	.st2{fill:#8A603C;}
	.st3{clip-path:url(#SVGID_2_);}
	.st4{fill:#F3DBBD;}
	.st5{fill:#3B3E43;}
	.st6{fill:#FFFFFF;}
	.st7{fill:none;stroke:#3D342F;stroke-width:2;stroke-linecap:round;stroke-miterlimit:10;}
</style>
<title>avatar.lion</title>
<path class="st0" d="M113.3,56.7c0,31.3-26.7,52.4-56.4,52.4S0,87.9,0,56.7C0,25.4,25.4,0,56.7,0S113.3,25.4,113.3,56.7z"/>
<circle class="st1" cx="34.2" cy="32.2" r="16"/>
<circle class="st2" cx="34.2" cy="32.2" r="9.6"/>
<circle class="st1" cx="77.9" cy="32.2" r="16"/>
<circle class="st2" cx="77.9" cy="32.2" r="9.6"/>
<path class="st1" d="M88.8,57.4c-4.8-23.9-12-30.3-32.5-30.3h-0.5c-20.5,0-27.7,6.4-32.5,30.3c-7.1,9.5-6.1,38.4,31.1,38.4h3.3
	C94.8,95.8,95.9,66.9,88.8,57.4z"/>
<g>
	<g>
		<defs>
			<path id="SVGID_1_" d="M88.8,56.3C84,31.6,76.8,25,56.3,25h-0.5C35.3,25,28,31.6,23.3,56.3c-7.1,9.8-6.1,39.5,31.1,39.5h3.3
				C94.8,95.8,95.9,66,88.8,56.3z"/>
		</defs>
		<clipPath id="SVGID_2_">
			<use xlink:href="#SVGID_1_"  style="overflow:visible;"/>
		</clipPath>
		<g class="st3">
			<path class="st4" d="M97.8,104.2c0,17.7-17.2,32-41.4,32S15,121.8,15,104.2s17.2-37.9,41.4-37.9S97.8,86.5,97.8,104.2z"/>
		</g>
	</g>
</g>
<circle class="st2" cx="38.9" cy="54.1" r="6.3"/>
<circle class="st5" cx="38.9" cy="54.2" r="3.2"/>
<circle class="st6" cx="37.9" cy="51.6" r="1.7"/>
<path class="st5" d="M64.5,68.8c0,2.9-3.4,5.4-7.6,5.4s-7.6-2.5-7.6-5.4s3.4-5.3,7.6-5.3S64.5,65.9,64.5,68.8z"/>
<path class="st5" d="M48.9,84.3c-2.1,0-4.4-1-6.9-3.1c-0.3-0.3-0.4-0.8-0.1-1.1c0.3-0.3,0.8-0.4,1.1-0.1c2.9,2.4,5.4,3.2,7.5,2.4
	c4.1-1.5,5.3-8.8,5.3-8.9c0.1-0.4,0.5-0.7,0.9-0.6s0.7,0.5,0.6,0.9l0,0c-0.1,0.3-1.4,8.3-6.3,10.1C50.4,84.1,49.6,84.3,48.9,84.3z"
	/>
<path class="st5" d="M63.4,85c-0.6,0-1.3-0.1-1.8-0.4C56.9,82.7,56,74.1,56,73.7s0.3-0.8,0.7-0.9c0.4,0,0.8,0.3,0.9,0.7
	c0.2,2.2,1.5,8.3,4.6,9.6c1.7,0.7,3.9-0.1,6.5-2.4c0.4-0.2,0.8-0.1,1.1,0.2c0.2,0.3,0.2,0.7-0.1,0.9C67.4,84,65.3,85,63.4,85z"/>
<ellipse transform="matrix(0.2462 -0.9692 0.9692 0.2462 -19.563 108.277)" class="st6" cx="59.8" cy="66.7" rx="1.3" ry="2.1"/>
<circle class="st2" cx="73.2" cy="54.1" r="6.3"/>
<circle class="st5" cx="73.2" cy="54.2" r="3.2"/>
<circle class="st6" cx="74.2" cy="51.6" r="1.7"/>
<path class="st7" d="M41.2,71.1c0,0-8.5-5.4-32.1-5.8"/>
<path class="st7" d="M40.1,73.6c0,0-10.1-3.4-33.2,1"/>
<path class="st7" d="M40.1,76.6c0,0-10.9-1.5-32.4,6.9"/>
<path class="st7" d="M71.6,71.8c0,0,8.5-5.4,32.1-5.8"/>
<path class="st7" d="M72.7,74.4c0,0,10.1-3.4,33.2,1"/>
<path class="st7" d="M72.8,77.4c0,0,10.9-1.5,32.4,6.9"/>
</svg>
