<svg id="background" xmlns="http://www.w3.org/2000/svg" viewBox="0 0 121.05 98.2"><defs><style>.cls-1{fill:#ccc8c0;}.cls-2{fill:#e0dcd3;stroke:#ccc8c0;}.cls-2,.cls-3{stroke-miterlimit:10;stroke-width:2px;}.cls-3{fill:#f7f1e6;stroke:#babcbe;}.cls-4{fill:#313439;}.cls-5{fill:#fff;}</style></defs><title>avatar.elephant</title><path class="cls-1" d="M1375.9,1179a12,12,0,0,0-1.81-2.06,23.07,23.07,0,0,0-12.32-6c-9.29-1.39-24.49,7.21-26.56,35.09s9.19,30.63,18,30.63c7.28,0,15.68-5.14,22.08-12.44C1379.36,1209,1375.9,1179,1375.9,1179Z" transform="translate(-1334.96 -1170.14)"/><path class="cls-1" d="M1415.69,1179.32a12,12,0,0,1,1.81-2.06,23.07,23.07,0,0,1,12.31-6c9.29-1.39,23.86,6.58,25.93,34.46s-8.55,31.26-17.33,31.26c-7.28,0-15.68-5.14-22.08-12.44C1412.23,1209.3,1415.69,1179.33,1415.69,1179.32Z" transform="translate(-1334.96 -1170.14)"/><path class="cls-2" d="M1431.5,1260.66c-0.46-1.84,3.22-2.18,4-8s-4-.23-4-0.23-3.44,4-17.21,3.09c-12.68-.79-9.16-16-9.12-21.14,0-1.48.5-2.8,1-3s1.7,0.49,2.47,1.75c1.92,3.09,3.62,8.12,4.55,11.17,0.44,1.41,1.49,1.6,2,.22,1.69-4.6.45-10.89-.74-15-0.4-1.42.5-2.88,1-4.09,12.53-31.36.35-46.29,0.35-46.17a15.52,15.52,0,0,1-2-1.58,28.43,28.43,0,0,0-36.06-.17c-0.86.69-1.54,1.29-1.84,1.54-12.91,23.56-1.21,45.17-.79,45.59s0.75,0.74.71,0.71a15.22,15.22,0,0,0-1,2.47c-1.26,3.88-3.19,11.41-1.25,16.69,0.51,1.38,1.57,1.2,2-.21,1-3.36,3-9.16,5.17-12.08,0.87-1.19,1.9-.52,1.85,1-0.28,9-1.44,17.19,11.88,27.78,11.51,9.15,21,6,31.86,5.32,1.48-.09,3.48-0.54,4.94-0.28a15.05,15.05,0,0,0,3.45.18C1438.85,1265.94,1432,1262.49,1431.5,1260.66Z" transform="translate(-1334.96 -1170.14)"/><path class="cls-3" d="M1378.8,1222.32l-3.73,2.46a56.68,56.68,0,0,0-2.31,16.25c2.66,12,3.49,2.39,4.77-1.4a20.07,20.07,0,0,1,4.78-7Z" transform="translate(-1334.96 -1170.14)"/><path class="cls-3" d="M1414,1224.78l-4.38-2.46-4.11,10.3s4.1,3.23,5.61,7,2.48,13.44,5.59,1.4A48.74,48.74,0,0,0,1414,1224.78Z" transform="translate(-1334.96 -1170.14)"/><circle class="cls-4" cx="51.02" cy="30.69" r="4.91"/><circle class="cls-5" cx="48.23" cy="26.74" r="3.14"/><circle class="cls-4" cx="71.06" cy="30.69" r="4.91"/><circle class="cls-5" cx="73.85" cy="26.74" r="3.14"/></svg>