<svg id="background" xmlns="http://www.w3.org/2000/svg" viewBox="0 0 122.06 94.13"><defs><style>.cls-1{fill:#7b5735;}.cls-2{fill:#f3dbbd;}.cls-3{fill:#8a603c;}.cls-4{fill:#d1bea5;}.cls-5{fill:#3d342f;}.cls-6{fill:#fff;}.cls-7{fill:#3b3e43;}</style></defs><title>avatar.monkey</title><circle class="cls-1" cx="107.12" cy="45.02" r="14.94"/><circle class="cls-2" cx="107.12" cy="45.02" r="9.57"/><circle class="cls-1" cx="14.94" cy="43.11" r="14.94"/><circle class="cls-2" cx="14.94" cy="43.11" r="9.57"/><circle class="cls-3" cx="60.69" cy="46.92" r="46.92"/><path class="cls-2" d="M1752.79,1215.51a20.43,20.43,0,0,0-39.6-7.15,20.43,20.43,0,1,0-19.3,27.36l0.93,0a28.92,28.92,0,0,0-2.08,10.11,20.43,20.43,0,0,0,40.86,0,31.72,31.72,0,0,0-1.8-10h0.49A20.43,20.43,0,0,0,1752.79,1215.51Z" transform="translate(-1652.4 -1172.09)"/><circle class="cls-4" cx="79.79" cy="43.92" r="10.55"/><circle class="cls-5" cx="79.36" cy="44" r="6.28"/><circle class="cls-6" cx="81.45" cy="38.82" r="2.99"/><circle class="cls-4" cx="41.96" cy="43.92" r="10.55"/><circle class="cls-5" cx="42.38" cy="44" r="6.28"/><circle class="cls-6" cx="40.29" cy="38.82" r="2.99"/><path class="cls-7" d="M1719.93,1230.06c0,2.24-2.62,5-5.84,5s-5.84-2.79-5.84-5,2.62-4.05,5.84-4.05S1719.93,1227.82,1719.93,1230.06Z" transform="translate(-1652.4 -1172.09)"/><circle class="cls-2" cx="57.92" cy="61.03" r="2.07"/><circle class="cls-2" cx="65.3" cy="61.03" r="2.07"/><ellipse class="cls-5" cx="61.76" cy="78.11" rx="8.14" ry="5.73"/><ellipse class="cls-2" cx="61.76" cy="73.12" rx="8.33" ry="4.52"/></svg>