<?xml version="1.0" encoding="utf-8"?>
<!-- Generator: Adobe Illustrator 19.2.1, SVG Export Plug-In . SVG Version: 6.00 Build 0)  -->
<svg version="1.1" id="background" xmlns="http://www.w3.org/2000/svg" xmlns:xlink="http://www.w3.org/1999/xlink" x="0px" y="0px"
	 viewBox="0 0 80.6 109.7" style="enable-background:new 0 0 80.6 109.7;" xml:space="preserve">
<style type="text/css">
	.st0{fill:#825D42;}
	.st1{fill:#EA692B;}
	.st2{clip-path:url(#SVGID_2_);}
	.st3{fill:#F3DBBD;}
	.st4{fill:#3D342F;}
	.st5{fill:#FFFFFF;}
</style>
<title>avatar.dogred</title>
<path class="st0" d="M26.3,27.5c0.7,8.3-25.4,37.3-25.4,37.3s0.4-0.6,0.4-34.7C1.7,16.2,12.8,1.4,14.2,1S25.6,19.2,26.3,27.5z"/>
<path class="st0" d="M54.8,26.5c-0.7,8.3,25.4,37.3,25.4,37.3s-0.4-0.6-0.4-34.7C79.4,15.2,68.3,0.4,66.9,0S55.5,18.2,54.8,26.5z"/>
<path class="st1" d="M80.4,69.7c1.8,26.9-16.2,40-41.3,40S-4.2,94.7,0.8,60.8c3.5-24.1,14.4-39.6,41.4-39.6
	C75.5,21.2,78.8,46.8,80.4,69.7z"/>
<g>
	<defs>
		<path id="SVGID_1_" d="M80.4,69.7c2.5,26-16.2,40-41.3,40S-3.5,94.7,0.8,60.8c3.1-24.2,15-37.7,42-37.7
			C76.1,23,78.3,46.8,80.4,69.7z"/>
	</defs>
	<clipPath id="SVGID_2_">
		<use xlink:href="#SVGID_1_"  style="overflow:visible;"/>
	</clipPath>
	<g class="st2">
		<path class="st3" d="M41.2,70.3c-10,0-27,15.3-30.7,41.3c-3.4,23.7,62,20.3,59.3-2.7C67.6,90.8,51.2,70.3,41.2,70.3z"/>
	</g>
</g>
<circle class="st3" cx="63.3" cy="56" r="10.5"/>
<circle class="st4" cx="62.8" cy="56.1" r="6.3"/>
<circle class="st5" cx="64.9" cy="50.9" r="3"/>
<circle class="st3" cx="19" cy="56.9" r="10.5"/>
<circle class="st4" cx="17.9" cy="57.6" r="6.3"/>
<circle class="st5" cx="15.9" cy="52.5" r="3"/>
<path class="st4" d="M52.8,80.4c0,2.4-9.1,6.2-12.3,6.2s-12.7-3.7-12.7-6.1s5.3-4.3,11.9-4.3S52.8,78,52.8,80.4z"/>
<path class="st4" d="M40.7,103.7c-4.4-0.1-8.6-1.6-12.1-4.3c-0.4-0.3-0.4-0.9-0.1-1.3c0.3-0.4,0.9-0.4,1.3-0.1l0,0l0,0
	c0.4,0.3,10.2,8.4,20.8,0.3c0.4-0.3,1-0.2,1.3,0.2c0.3,0.4,0.2,1-0.2,1.3C48.6,102.2,44.8,103.6,40.7,103.7z"/>
<rect x="39.5" y="84.1" class="st4" width="2.3" height="19.4"/>
</svg>
