<svg id="background" xmlns="http://www.w3.org/2000/svg" xmlns:xlink="http://www.w3.org/1999/xlink" viewBox="0 0 80.57 127.78"><defs><style>.cls-1{fill:none;}.cls-2{fill:#825d42;}.cls-3{fill:#ea692b;}.cls-4{clip-path:url(#clip-path);}.cls-5{fill:#f3dbbd;}.cls-6{fill:#3d342f;}.cls-7{fill:#fff;}</style><clipPath id="clip-path" transform="translate(-1684.16 -635.34)"><path class="cls-1" d="M1764.59,705c2.47,26-16.19,40-41.3,40s-42.64-14.93-38.33-48.89c3.07-24.16,15-37.72,42-37.72C1760.3,658.38,1762.43,682.19,1764.59,705Z"/></clipPath></defs><title>avatar.dogred</title><path class="cls-2" d="M1710.42,662.87c0.66,8.3-25.37,37.26-25.37,37.26s0.39-.61.39-34.68c0.43-13.91,11.5-28.67,12.94-29.08S1709.76,654.57,1710.42,662.87Z" transform="translate(-1684.16 -635.34)"/><path class="cls-2" d="M1739,661.85c-0.66,8.3,25.36,37.26,25.36,37.26s-0.39-.61-0.39-34.68c-0.43-13.91-11.5-28.67-12.94-29.08S1739.65,653.55,1739,661.85Z" transform="translate(-1684.16 -635.34)"/><path class="cls-3" d="M1764.59,705c1.85,26.94-16.19,40-41.3,40S1680,730.06,1685,696.1c3.5-24.1,14.42-39.57,41.42-39.57C1759.68,656.53,1763,682.15,1764.59,705Z" transform="translate(-1684.16 -635.34)"/><g class="cls-4"><path class="cls-5" d="M1725.4,705.62c-10,0-27,15.32-30.7,41.26-3.37,23.69,62,20.33,59.25-2.66C1751.78,726.17,1735.39,705.62,1725.4,705.62Z" transform="translate(-1684.16 -635.34)"/></g><circle class="cls-5" cx="63.27" cy="56" r="10.53"/><circle class="cls-6" cx="62.84" cy="56.08" r="6.27"/><circle class="cls-7" cx="64.93" cy="50.91" r="2.98"/><circle class="cls-5" cx="19.05" cy="56.92" r="10.53"/><circle class="cls-6" cx="17.94" cy="57.62" r="6.27"/><circle class="cls-7" cx="15.85" cy="52.45" r="2.98"/><path class="cls-6" d="M1737,715.71c0,2.37-9.14,6.18-12.33,6.18S1712,718.2,1712,715.83s5.34-4.29,11.93-4.29S1737,713.34,1737,715.71Z" transform="translate(-1684.16 -635.34)"/><path class="cls-6" d="M1724.89,739a20.53,20.53,0,0,1-12.06-4.29,0.92,0.92,0,0,1,1.2-1.4h0c0.41,0.35,10.17,8.42,20.77.26a0.92,0.92,0,1,1,1.13,1.46A17.78,17.78,0,0,1,1724.89,739Z" transform="translate(-1684.16 -635.34)"/><rect class="cls-6" x="39.46" y="84.06" width="2.31" height="19.37"/></svg>