<svg id="background" xmlns="http://www.w3.org/2000/svg" viewBox="0 0 126.41 88.36"><defs><style>.cls-1{fill:#e0dcd3;}.cls-2{fill:#fff;}.cls-3{fill:#3b3e43;}</style></defs><title>avatar.koala</title><circle class="cls-1" cx="24.45" cy="24.45" r="24.45"/><circle class="cls-2" cx="25.83" cy="25.83" r="16.19"/><circle class="cls-1" cx="101.95" cy="24.45" r="24.45"/><circle class="cls-2" cx="100.42" cy="25.83" r="16.19"/><path class="cls-1" d="M1084.27,707.55c0,22.73-21,36.16-46.92,36.16s-46.92-13.43-46.92-36.16,21-41.16,46.92-41.16S1084.27,684.82,1084.27,707.55Z" transform="translate(-975.5 -655.35)"/><circle class="cls-2" cx="85.24" cy="42.91" r="8.32"/><circle class="cls-3" cx="85.24" cy="42.98" r="4.21"/><circle class="cls-2" cx="86.5" cy="39.68" r="2.21"/><circle class="cls-2" cx="38.48" cy="42.91" r="8.32"/><circle class="cls-3" cx="38.48" cy="42.98" r="4.21"/><circle class="cls-2" cx="37.21" cy="39.68" r="2.21"/><path class="cls-3" d="M1047.75,704.94c0,6.22-4.65,14-10.39,14s-10.39-7.74-10.39-14,4.65-11.25,10.39-11.25S1047.75,698.72,1047.75,704.94Z" transform="translate(-975.5 -655.35)"/><path class="cls-2" d="M1044.12,701.75a2.19,2.19,0,0,1-3.17,1.62,3.69,3.69,0,0,1-2.29-3.78,2.19,2.19,0,0,1,3.17-1.62A3.69,3.69,0,0,1,1044.12,701.75Z" transform="translate(-975.5 -655.35)"/><path class="cls-3" d="M1030.45,729.25c-2.1,0-4.42-1-6.93-3.09a0.78,0.78,0,1,1,1-1.21c2.94,2.41,5.47,3.23,7.53,2.45,4.09-1.56,5.3-8.88,5.32-9a0.78,0.78,0,1,1,1.55.25c-0.05.34-1.38,8.29-6.31,10.17A6,6,0,0,1,1030.45,729.25Z" transform="translate(-975.5 -655.35)"/><path class="cls-3" d="M1045,729.93a5,5,0,0,1-1.86-.35c-4.69-1.88-5.57-10.57-5.6-10.94a0.78,0.78,0,0,1,1.56-.15c0.22,2.25,1.47,8.37,4.63,9.63,1.73,0.69,3.94-.11,6.56-2.38a0.78,0.78,0,0,1,1,1.19C1049,728.93,1046.9,729.93,1045,729.93Z" transform="translate(-975.5 -655.35)"/></svg>