<svg id="background" xmlns="http://www.w3.org/2000/svg" xmlns:xlink="http://www.w3.org/1999/xlink" viewBox="0 0 91.41 120.06"><defs><style>.cls-1{fill:none;}.cls-2{fill:#313439;}.cls-3{fill:#fff;}.cls-4{fill:#f7f1e6;}.cls-5{clip-path:url(#clip-path);}.cls-6{fill:#3b3e43;}</style><clipPath id="clip-path" transform="translate(-993.02 -1157.8)"><path class="cls-1" d="M1073,1232.52c0,23.43,6,42.42-34.33,42.42s-34.33-19-34.33-42.42,14.94-42.42,34.33-42.42S1073,1209.09,1073,1232.52Z"/></clipPath></defs><title>avatar.zebra</title><ellipse class="cls-2" cx="1057.59" cy="1186.62" rx="29.52" ry="9.76" transform="translate(-1322.77 804.59) rotate(-77.5)"/><path class="cls-3" d="M1055.54,1185.09c-1.78,11.51-1.76,21.53.89,22.37s5.55-7.81,7.32-19.32a64.45,64.45,0,0,0-.89-22.37A49.38,49.38,0,0,0,1055.54,1185.09Z" transform="translate(-993.02 -1157.8)"/><ellipse class="cls-2" cx="1018.12" cy="1186.62" rx="9.76" ry="29.52" transform="translate(-1225.65 -909.39) rotate(-12.5)"/><path class="cls-3" d="M1018.27,1185.09c1.19,11.51,1.18,21.53-.6,22.37s-3.72-7.81-4.92-19.32a95.32,95.32,0,0,1,.6-22.37A64.53,64.53,0,0,1,1018.27,1185.09Z" transform="translate(-993.02 -1157.8)"/><path class="cls-4" d="M1073,1232.52c0,27.27,9.5,42.42-34.33,42.42s-34.33-17.78-34.33-42.42c0-23.43,14.94-42.42,34.33-42.42S1073,1209.09,1073,1232.52Z" transform="translate(-993.02 -1157.8)"/><ellipse class="cls-2" cx="45.9" cy="101.63" rx="34.81" ry="18.43"/><g class="cls-5"><path class="cls-2" d="M1083.25,1228.48l-0.26.23c-0.16.13-.41,0.36-0.72,0.57a13.52,13.52,0,0,1-2.48,1.42,13.21,13.21,0,0,1-3.36,1c-0.3,0-.61.08-0.91,0.1s-0.58.06-.87,0.07a11.68,11.68,0,0,1-1.72,0,12.39,12.39,0,0,1-1.7-.3,9.9,9.9,0,0,1-1.61-.4,11.73,11.73,0,0,1-1.54-.64,16.24,16.24,0,0,1-1.51-.74,13.93,13.93,0,0,1-2.31-1.65c-0.28-.24-0.51-0.49-0.66-0.64s-0.24-.26-0.24-0.26,0.07-.11.21-0.28,0.34-.43.61-0.69a13.3,13.3,0,0,1,2.21-1.85,12.59,12.59,0,0,1,1.51-.87,13.5,13.5,0,0,1,1.84-.61,14.37,14.37,0,0,1,2-.36,15.59,15.59,0,0,1,2,.07,15.85,15.85,0,0,1,2,.33c0.32,0.08.65,0.16,0.95,0.26s0.57,0.22.85,0.35a13.26,13.26,0,0,1,3,1.86,13.67,13.67,0,0,1,2,2c0.24,0.29.41,0.57,0.54,0.74S1083.25,1228.48,1083.25,1228.48Z" transform="translate(-993.02 -1157.8)"/><path class="cls-2" d="M1074.3,1198.83s0,0.13-.14.33-0.23.51-.43,0.85a14.63,14.63,0,0,1-1.74,2.46l-1.23,1.32a14.36,14.36,0,0,1-1.37,1.23,17.47,17.47,0,0,1-1.54,1.06,14.93,14.93,0,0,1-1.7.91,16.52,16.52,0,0,1-3.66,1.18,17.37,17.37,0,0,1-1.85.26c-0.6.06-1.22,0-1.78,0a17.53,17.53,0,0,1-3-.33c-0.38-.07-0.71-0.18-0.93-0.22l-0.35-.1s0-.13.07-0.35,0.13-.55.25-0.93a11.29,11.29,0,0,1,.51-1.29,14.81,14.81,0,0,1,.8-1.48,13.29,13.29,0,0,1,1.11-1.51,13,13,0,0,1,1.4-1.43,15.3,15.3,0,0,1,1.66-1.25,12.49,12.49,0,0,1,1.86-1,17.85,17.85,0,0,1,2-.74,12.44,12.44,0,0,1,2.07-.44,15.53,15.53,0,0,1,2-.14,9,9,0,0,1,1.84.17,14.62,14.62,0,0,1,2.89.83c0.36,0.14.67,0.31,0.87,0.4Z" transform="translate(-993.02 -1157.8)"/><path class="cls-2" d="M1084.42,1250.33l-0.4,0c-0.25,0-.64,0-1.09,0s-1,0-1.55,0-1.23-.07-1.9-0.16-1.39-.18-2.11-0.33-1.46-.34-2.2-0.55a19.9,19.9,0,0,1-2.24-.73c-0.37-.15-0.74-0.29-1.1-0.46l-1.1-.47a22.35,22.35,0,0,1-2.11-1.1c-0.67-.42-1.35-0.8-2-1.22a20.4,20.4,0,0,1-1.81-1.35c-0.28-.24-0.56-0.48-0.82-0.72s-0.53-.44-0.78-0.66a20.82,20.82,0,0,1-2.37-2.52c-0.29-.35-0.5-0.68-0.65-0.88s-0.23-.34-0.23-0.34,0.13-.07.36-0.17,0.57-.26,1-0.4a17.14,17.14,0,0,1,3.53-.79c0.36,0,.74-0.07,1.13-0.1s0.77,0,1.17,0a23,23,0,0,1,2.48.27,13.81,13.81,0,0,1,2.55.62c0.84,0.29,1.67.62,2.49,1,0.41,0.2.82,0.38,1.21,0.6s0.77,0.46,1.14.7a24,24,0,0,1,2.1,1.54,19.51,19.51,0,0,1,1.77,1.74,15.44,15.44,0,0,1,1.41,1.79,19.32,19.32,0,0,1,1,1.71,13.45,13.45,0,0,1,.66,1.48,9.63,9.63,0,0,1,.33,1C1084.4,1250.18,1084.42,1250.33,1084.42,1250.33Z" transform="translate(-993.02 -1157.8)"/><path class="cls-2" d="M994.88,1229.13s0.06-.11.19-0.29,0.31-.46.55-0.75a13.92,13.92,0,0,1,2.06-2.05,13.77,13.77,0,0,1,3.05-1.88,9.72,9.72,0,0,1,1.83-.63,16.06,16.06,0,0,1,2-.36,10.87,10.87,0,0,1,4,.2,13.37,13.37,0,0,1,1.86.53,14.76,14.76,0,0,1,1.58.78,13.71,13.71,0,0,1,2.36,1.72c0.29,0.25.51,0.51,0.66,0.65s0.23,0.26.23,0.26-0.08.11-.23,0.27-0.36.42-.64,0.67a13.86,13.86,0,0,1-2.28,1.79,14.36,14.36,0,0,1-1.52.83,13.48,13.48,0,0,1-1.6.71,11.35,11.35,0,0,1-1.69.47,14.88,14.88,0,0,1-1.78.32,12.86,12.86,0,0,1-1.81.07c-0.59,0-1.22-.08-1.84-0.16a13.63,13.63,0,0,1-3.44-1,13.82,13.82,0,0,1-2.54-1.4c-0.31-.21-0.57-0.44-0.73-0.56S994.88,1229.13,994.88,1229.13Z" transform="translate(-993.02 -1157.8)"/><path class="cls-2" d="M999.88,1200.67l0.34-.16c0.22-.09.54-0.25,0.94-0.38a16.55,16.55,0,0,1,3.15-.77,17.69,17.69,0,0,1,4.12-.11,13.11,13.11,0,0,1,2.2.37,20.83,20.83,0,0,1,2.2.67,19.38,19.38,0,0,1,4.06,2.05,18.08,18.08,0,0,1,1.69,1.33,18.33,18.33,0,0,1,1.42,1.42,17.15,17.15,0,0,1,1.12,1.39,14.48,14.48,0,0,1,.79,1.24c0.21,0.36.36,0.7,0.46,0.9s0.15,0.35.15,0.35l-0.35.14c-0.22.07-.56,0.22-1,0.33a17.52,17.52,0,0,1-3.17.63,18.47,18.47,0,0,1-2,.09,17.51,17.51,0,0,1-2.1-.15,18.07,18.07,0,0,1-4.25-1,21.35,21.35,0,0,1-3.92-2,17.77,17.77,0,0,1-3.2-2.6,16.42,16.42,0,0,1-2-2.54c-0.23-.34-0.39-0.67-0.51-0.87S999.88,1200.67,999.88,1200.67Z" transform="translate(-993.02 -1157.8)"/><path class="cls-2" d="M993,1250.72s0-.15.1-0.4a10.2,10.2,0,0,1,.35-1.05,14.6,14.6,0,0,1,.7-1.51,18.77,18.77,0,0,1,4.35-5.37,25.59,25.59,0,0,1,2.17-1.59,16.84,16.84,0,0,1,2.41-1.36c0.84-.39,1.7-0.74,2.57-1,0.43-.15.86-0.3,1.3-0.41s0.89-.19,1.33-0.27a24.26,24.26,0,0,1,2.56-.31c0.41,0,.81,0,1.2,0s0.79,0,1.16.08a17.84,17.84,0,0,1,3.64.75c0.44,0.13.79,0.3,1,.39s0.37,0.17.37,0.17-0.08.13-.24,0.35-0.38.54-.68,0.89a21.69,21.69,0,0,1-2.46,2.55l-1.65,1.42a21.45,21.45,0,0,1-1.87,1.39c-0.33.22-.67,0.43-1,0.63l-1,.65a24.29,24.29,0,0,1-2.19,1.15c-0.76.32-1.51,0.68-2.27,1a21.79,21.79,0,0,1-2.32.78c-0.76.24-1.52,0.45-2.27,0.61s-1.49.26-2.17,0.38-1.35.16-2,.19-1.13.06-1.59,0.05-0.85,0-1.11,0Z" transform="translate(-993.02 -1157.8)"/></g><circle class="cls-4" cx="33.74" cy="97.37" r="4.68"/><circle class="cls-4" cx="60.14" cy="97.37" r="4.68"/><circle class="cls-3" cx="57.07" cy="67.09" r="7.58"/><circle class="cls-3" cx="34.74" cy="67.09" r="7.58"/><circle class="cls-6" cx="34.29" cy="67.41" r="4.29"/><circle class="cls-3" cx="31.84" cy="63.95" r="2.74"/><circle class="cls-6" cx="57.07" cy="67.41" r="4.29"/><circle class="cls-3" cx="59.52" cy="63.95" r="2.74"/><path class="cls-2" d="M1022.69,1201.32l6.21-16.54a20.72,20.72,0,0,1,3.18-6.25c4.48-5.26,13.39-2.63,16,4.05s-0.53,15.09-6.06,18.85-12.69,3.42-18.63.57" transform="translate(-993.02 -1157.8)"/></svg>