<svg id="background" xmlns="http://www.w3.org/2000/svg" viewBox="0 0 117.28 113"><defs><style>.cls-1,.cls-5{fill:none;}.cls-1,.cls-2,.cls-5{stroke:#26a9e0;stroke-miterlimit:10;}.cls-1{stroke-width:4px;}.cls-2,.cls-4{fill:#fff;}.cls-2{stroke-width:2px;}.cls-3{fill:#26a9e0;}.cls-5{stroke-linecap:round;stroke-width:1.24px;}</style></defs><title>avatar.addnew</title><path class="cls-1" d="M1627.76,557.39c0,31.28-26.72,52.36-56.41,52.36s-56.87-21.08-56.87-52.36A56.64,56.64,0,1,1,1627.76,557.39Z" transform="translate(-1512.48 -498.76)"/><circle class="cls-2" cx="36.16" cy="34.17" r="16.01"/><circle class="cls-2" cx="36.16" cy="34.17" r="9.61"/><circle class="cls-2" cx="79.89" cy="34.17" r="16.01"/><circle class="cls-2" cx="79.89" cy="34.17" r="9.61"/><path class="cls-2" d="M1603.24,558.16c-4.73-23.88-11.94-30.33-32.46-30.33h-0.54c-20.52,0-27.73,6.44-32.46,30.33-7.1,9.48-6.05,38.36,31.1,38.36h3.26C1609.29,596.52,1610.34,567.64,1603.24,558.16Z" transform="translate(-1512.48 -498.76)"/><circle class="cls-2" cx="40.86" cy="56.09" r="6.31"/><circle class="cls-3" cx="40.87" cy="56.15" r="3.19"/><path class="cls-3" d="M1578.94,569.52c0,2.92-3.41,5.39-7.62,5.39s-7.62-2.47-7.62-5.39,3.41-5.29,7.62-5.29S1578.94,566.6,1578.94,569.52Z" transform="translate(-1512.48 -498.76)"/><path class="cls-3" d="M1563.39,585c-2.09,0-4.4-1-6.91-3.08a0.78,0.78,0,1,1,1-1.21c2.93,2.4,5.45,3.22,7.5,2.44,4.08-1.55,5.28-8.84,5.29-8.92a0.78,0.78,0,0,1,1.54.25c-0.05.34-1.37,8.27-6.28,10.13A6,6,0,0,1,1563.39,585Z" transform="translate(-1512.48 -498.76)"/><path class="cls-3" d="M1577.89,585.7a4.94,4.94,0,0,1-1.85-.36c-4.67-1.87-5.55-10.53-5.58-10.9a0.78,0.78,0,0,1,1.56-.15c0.21,2.24,1.46,8.34,4.61,9.6,1.73,0.69,3.93-.11,6.54-2.37a0.78,0.78,0,0,1,1,1.18C1581.88,584.7,1579.77,585.7,1577.89,585.7Z" transform="translate(-1512.48 -498.76)"/><ellipse class="cls-4" cx="1574.29" cy="567.43" rx="1.31" ry="2.06" transform="translate(-875.67 1454.85) rotate(-75.75)"/><circle class="cls-2" cx="75.18" cy="56.09" r="6.31"/><circle class="cls-3" cx="75.18" cy="56.15" r="3.19"/><path class="cls-5" d="M1555.7,571.81s-8.54-5.4-32.06-5.84" transform="translate(-1512.48 -498.76)"/><path class="cls-5" d="M1554.62,574.34s-10.06-3.42-33.22,1" transform="translate(-1512.48 -498.76)"/><path class="cls-5" d="M1554.52,577.34s-10.86-1.47-32.44,6.94" transform="translate(-1512.48 -498.76)"/><path class="cls-5" d="M1586.1,572.59s8.54-5.4,32.06-5.85" transform="translate(-1512.48 -498.76)"/><path class="cls-5" d="M1587.19,575.12s10.06-3.42,33.22,1" transform="translate(-1512.48 -498.76)"/><path class="cls-5" d="M1587.29,578.12s10.85-1.47,32.44,6.94" transform="translate(-1512.48 -498.76)"/></svg>