<svg id="background" xmlns="http://www.w3.org/2000/svg" xmlns:xlink="http://www.w3.org/1999/xlink" viewBox="0 0 113.29 136.19"><defs><style>.cls-1,.cls-9{fill:none;}.cls-2{fill:#ea692b;}.cls-3{fill:#e39335;}.cls-4{fill:#8a603c;}.cls-5{clip-path:url(#clip-path);}.cls-6{fill:#f3dbbd;}.cls-7{fill:#3b3e43;}.cls-8{fill:#fff;}.cls-9{stroke:#3d342f;stroke-linecap:round;stroke-miterlimit:10;stroke-width:2px;}</style><clipPath id="clip-path" transform="translate(-1518.44 -640.22)"><path class="cls-1" d="M1607.21,696.47c-4.74-24.61-11.94-31.25-32.46-31.25h-0.54c-20.52,0-27.73,6.64-32.46,31.25-7.1,9.77-6.05,39.52,31.1,39.52h3.26C1613.26,736,1614.31,706.23,1607.21,696.47Z"/></clipPath></defs><title>avatar.lion</title><path class="cls-2" d="M1631.73,696.87c0,31.28-26.73,52.37-56.41,52.37s-56.87-21.08-56.87-52.37A56.64,56.64,0,1,1,1631.73,696.87Z" transform="translate(-1518.44 -640.22)"/><circle class="cls-3" cx="34.16" cy="32.17" r="16.01"/><circle class="cls-4" cx="34.16" cy="32.17" r="9.61"/><circle class="cls-3" cx="77.89" cy="32.17" r="16.01"/><circle class="cls-4" cx="77.9" cy="32.17" r="9.61"/><path class="cls-3" d="M1607.21,697.63c-4.74-23.88-11.94-30.33-32.46-30.33h-0.54c-20.52,0-27.73,6.44-32.46,30.33-7.1,9.48-6.05,38.36,31.1,38.36h3.26C1613.26,736,1614.31,707.11,1607.21,697.63Z" transform="translate(-1518.44 -640.22)"/><g class="cls-5"><path class="cls-6" d="M1616.23,744.38c0,17.69-17.24,32-41.4,32s-41.41-14.34-41.41-32,17.24-37.89,41.41-37.89S1616.23,726.69,1616.23,744.38Z" transform="translate(-1518.44 -640.22)"/></g><circle class="cls-4" cx="38.87" cy="54.1" r="6.31"/><circle class="cls-7" cx="38.87" cy="54.15" r="3.19"/><circle class="cls-8" cx="37.91" cy="51.64" r="1.68"/><path class="cls-7" d="M1582.91,709c0,2.92-3.41,5.39-7.62,5.39s-7.62-2.47-7.62-5.39,3.41-5.29,7.62-5.29S1582.91,706.07,1582.91,709Z" transform="translate(-1518.44 -640.22)"/><path class="cls-7" d="M1567.35,724.49c-2.09,0-4.4-1-6.91-3.08a0.78,0.78,0,1,1,1-1.21c2.93,2.4,5.45,3.22,7.5,2.44,4.08-1.55,5.28-8.85,5.29-8.92a0.78,0.78,0,0,1,1.54.25c-0.05.34-1.37,8.27-6.28,10.14A6,6,0,0,1,1567.35,724.49Z" transform="translate(-1518.44 -640.22)"/><path class="cls-7" d="M1581.86,725.17a4.94,4.94,0,0,1-1.85-.36c-4.67-1.87-5.55-10.54-5.58-10.9a0.78,0.78,0,0,1,1.56-.15c0.21,2.24,1.46,8.34,4.61,9.6,1.73,0.69,3.93-.11,6.54-2.37a0.78,0.78,0,0,1,1,1.18C1585.84,724.17,1583.74,725.17,1581.86,725.17Z" transform="translate(-1518.44 -640.22)"/><ellipse class="cls-8" cx="1578.25" cy="706.9" rx="1.31" ry="2.06" transform="translate(-1013.82 1422.37) rotate(-75.75)"/><circle class="cls-4" cx="73.19" cy="54.1" r="6.31"/><circle class="cls-7" cx="73.19" cy="54.15" r="3.19"/><circle class="cls-8" cx="74.15" cy="51.64" r="1.68"/><path class="cls-9" d="M1559.67,711.28s-8.54-5.4-32.06-5.84" transform="translate(-1518.44 -640.22)"/><path class="cls-9" d="M1558.58,713.81s-10.06-3.42-33.22,1" transform="translate(-1518.44 -640.22)"/><path class="cls-9" d="M1558.49,716.81s-10.86-1.47-32.45,6.94" transform="translate(-1518.44 -640.22)"/><path class="cls-9" d="M1590.07,712.06s8.54-5.4,32.06-5.85" transform="translate(-1518.44 -640.22)"/><path class="cls-9" d="M1591.16,714.59s10.06-3.42,33.22,1" transform="translate(-1518.44 -640.22)"/><path class="cls-9" d="M1591.25,717.59s10.86-1.47,32.44,6.94" transform="translate(-1518.44 -640.22)"/></svg>