<svg id="background" xmlns="http://www.w3.org/2000/svg" xmlns:xlink="http://www.w3.org/1999/xlink" viewBox="0 0 110.36 156.12"><defs><style>.cls-1,.cls-7{fill:none;}.cls-2{fill:#ea692b;}.cls-3{fill:#f3dbbd;}.cls-4{fill:#3d342f;}.cls-5{fill:#fff;}.cls-6{clip-path:url(#clip-path);}.cls-7{stroke:#3d342f;stroke-linecap:round;stroke-miterlimit:10;stroke-width:2px;}</style><clipPath id="clip-path" transform="translate(-1515.34 -810.23)"><path class="cls-1" d="M1600.07,896.45c5,7.73,8.41,27.62-30.37,27.62s-32.16-20.82-28.85-27.8c-1.39-22.5,11.76-39.85,30-39.85S1600.81,873.31,1600.07,896.45Z"/></clipPath></defs><title>avatar.rabbitred</title><path class="cls-2" d="M1567.39,848.19s-1,30.06-6.35,30.68-13.19-28.42-13.19-28.42-10.42-39,6.45-40.19S1567.39,848.19,1567.39,848.19Z" transform="translate(-1515.34 -810.23)"/><path class="cls-3" d="M1564.69,848.5s-0.69,21.74-4.6,22.19-9.54-20.56-9.54-20.56-7.32-33.37,4.67-34.2S1564.69,848.5,1564.69,848.5Z" transform="translate(-1515.34 -810.23)"/><path class="cls-2" d="M1574.33,848.19s1,30.06,6.35,30.68,13.19-28.42,13.19-28.42,10.42-39-6.45-40.19S1574.33,848.19,1574.33,848.19Z" transform="translate(-1515.34 -810.23)"/><path class="cls-3" d="M1577,848.5s0.69,21.74,4.6,22.19,9.54-20.56,9.54-20.56,7.32-33.37-4.67-34.2S1577,848.5,1577,848.5Z" transform="translate(-1515.34 -810.23)"/><path class="cls-2" d="M1600.07,896.45c5,7.73,8.41,27.62-30.37,27.62s-32.16-20.82-28.85-27.8c-1.39-22.5,11.76-39.85,30-39.85S1600.81,873.31,1600.07,896.45Z" transform="translate(-1515.34 -810.23)"/><circle class="cls-3" cx="66.76" cy="72.75" r="6.3"/><circle class="cls-4" cx="66.51" cy="72.8" r="3.75"/><circle class="cls-5" cx="67.75" cy="69.7" r="1.78"/><circle class="cls-3" cx="45.1" cy="72.38" r="6.3"/><circle class="cls-4" cx="44.43" cy="72.8" r="3.75"/><circle class="cls-5" cx="43.18" cy="69.7" r="1.78"/><g class="cls-6"><path class="cls-3" d="M1588.55,894.62a37,37,0,0,0-18,4.66,37,37,0,0,0-18-4.66c-20.52,0-37.15,14.06-37.15,34.58a37.16,37.16,0,0,0,55.18,32.49,37.16,37.16,0,0,0,55.18-32.49C1625.7,908.67,1609.06,894.62,1588.55,894.62Z" transform="translate(-1515.34 -810.23)"/></g><path class="cls-4" d="M1578.12,899.22c0,2.38-5.07,6.08-7.1,6.08s-8.11-3.7-8.11-6.08,3.4-4.31,7.6-4.31S1578.12,896.84,1578.12,899.22Z" transform="translate(-1515.34 -810.23)"/><path class="cls-4" d="M1563.18,913.94c-2,0-4.15-1-6.5-2.9a0.74,0.74,0,1,1,.93-1.14c2.76,2.26,5.14,3,7.06,2.3,3.84-1.46,5-8.33,5-8.4a0.74,0.74,0,0,1,1.45.23c-0.05.32-1.29,7.79-5.92,9.55A5.57,5.57,0,0,1,1563.18,913.94Z" transform="translate(-1515.34 -810.23)"/><path class="cls-4" d="M1576.84,914.59a4.64,4.64,0,0,1-1.75-.33c-4.4-1.76-5.22-9.92-5.26-10.27a0.74,0.74,0,0,1,1.47-.14c0.2,2.11,1.38,7.86,4.34,9,1.63,0.65,3.7-.1,6.16-2.24a0.74,0.74,0,0,1,1,1.11C1580.6,913.64,1578.61,914.59,1576.84,914.59Z" transform="translate(-1515.34 -810.23)"/><path class="cls-7" d="M1587.26,904s6-5.88,23.66-8.58" transform="translate(-1515.34 -810.23)"/><path class="cls-7" d="M1588.27,906.26s7.3-4.18,25.07-2.33" transform="translate(-1515.34 -810.23)"/><path class="cls-7" d="M1588.58,909.06s8.05-2.43,24.95,3.35" transform="translate(-1515.34 -810.23)"/><path class="cls-7" d="M1550.75,903.26s-6-5.89-23.66-8.58" transform="translate(-1515.34 -810.23)"/><path class="cls-7" d="M1549.73,905.53s-7.3-4.18-25.07-2.33" transform="translate(-1515.34 -810.23)"/><path class="cls-7" d="M1549.43,908.33s-8.05-2.43-24.95,3.36" transform="translate(-1515.34 -810.23)"/></svg>