<svg id="background" xmlns="http://www.w3.org/2000/svg" xmlns:xlink="http://www.w3.org/1999/xlink" viewBox="0 0 80.57 127.78"><defs><style>.cls-1{fill:none;}.cls-2{fill:#825d42;}.cls-3{fill:#966a4d;}.cls-4{clip-path:url(#clip-path);}.cls-5{fill:#f3dbbd;}.cls-6{fill:#3d342f;}.cls-7{fill:#fff;}</style><clipPath id="clip-path" transform="translate(-1355.16 -815.26)"><path class="cls-1" d="M1435.59,884.89c2.47,26-16.19,40-41.3,40S1351.65,910,1356,876c3.07-24.16,15-37.72,42-37.72C1431.3,838.3,1433.43,862.11,1435.59,884.89Z"/></clipPath></defs><title>avatar.dogbrown</title><path class="cls-2" d="M1381.42,842.79c0.66,8.3-25.37,37.26-25.37,37.26s0.39-.61.39-34.68c0.43-13.91,11.5-28.67,12.94-29.08S1380.76,834.49,1381.42,842.79Z" transform="translate(-1355.16 -815.26)"/><path class="cls-2" d="M1410,841.77c-0.66,8.3,25.36,37.26,25.36,37.26s-0.39-.61-0.39-34.68c-0.43-13.91-11.5-28.67-12.94-29.08S1410.65,833.47,1410,841.77Z" transform="translate(-1355.16 -815.26)"/><path class="cls-3" d="M1435.59,884.89c1.85,26.94-16.19,40-41.3,40S1351,910,1356,876c3.5-24.1,14.42-39.57,41.42-39.57C1430.68,836.45,1434,862.07,1435.59,884.89Z" transform="translate(-1355.16 -815.26)"/><g class="cls-4"><path class="cls-5" d="M1396.4,885.54c-10,0-27,15.32-30.7,41.26-3.37,23.69,62,20.33,59.25-2.66C1422.78,906.09,1406.39,885.54,1396.4,885.54Z" transform="translate(-1355.16 -815.26)"/></g><circle class="cls-5" cx="63.27" cy="56" r="10.53"/><circle class="cls-6" cx="62.84" cy="56.08" r="6.27"/><circle class="cls-7" cx="64.93" cy="50.91" r="2.98"/><circle class="cls-5" cx="19.05" cy="56.92" r="10.53"/><circle class="cls-6" cx="17.94" cy="57.62" r="6.27"/><circle class="cls-7" cx="15.85" cy="52.45" r="2.98"/><path class="cls-6" d="M1408,895.63c0,2.37-9.14,6.18-12.33,6.18s-12.72-3.69-12.72-6.06,5.34-4.29,11.93-4.29S1408,893.26,1408,895.63Z" transform="translate(-1355.16 -815.26)"/><path class="cls-6" d="M1395.89,918.92a20.53,20.53,0,0,1-12.06-4.29,0.92,0.92,0,0,1,1.2-1.4h0c0.41,0.35,10.17,8.42,20.77.26a0.92,0.92,0,1,1,1.13,1.46A17.78,17.78,0,0,1,1395.89,918.92Z" transform="translate(-1355.16 -815.26)"/><rect class="cls-6" x="39.46" y="84.06" width="2.31" height="19.37"/></svg>