<?xml version="1.0" encoding="utf-8"?>
<!-- Generator: Adobe Illustrator 19.2.1, SVG Export Plug-In . SVG Version: 6.00 Build 0)  -->
<svg version="1.1" id="background" xmlns="http://www.w3.org/2000/svg" xmlns:xlink="http://www.w3.org/1999/xlink" x="0px" y="0px"
	 viewBox="0 0 91.4 92.7" style="enable-background:new 0 0 91.4 92.7;" xml:space="preserve">
<style type="text/css">
	.st0{fill:#00B7FF;}
	.st1{fill:#FFFFFF;}
	.st2{fill:#3B3E43;}
	.st3{fill:#262262;}
	.st4{fill:none;stroke:#262262;stroke-width:3;stroke-linecap:round;stroke-miterlimit:10;}
	.st5{fill:#0CE3ED;}
</style>
<title>avatar.lizardblue</title>
<ellipse class="st0" cx="45.7" cy="50.7" rx="36.6" ry="32.8"/>
<ellipse class="st1" cx="29.5" cy="47.7" rx="9.6" ry="12.1"/>
<ellipse class="st2" cx="29.5" cy="47.7" rx="5.4" ry="6.9"/>
<ellipse class="st1" cx="32.2" cy="42.4" rx="3.7" ry="4.4"/>
<ellipse class="st1" cx="62.8" cy="47.7" rx="9.5" ry="12.1"/>
<ellipse class="st2" cx="62.8" cy="47.7" rx="5.4" ry="6.9"/>
<ellipse class="st1" cx="65.3" cy="42.4" rx="3.7" ry="4.4"/>
<ellipse class="st3" cx="43.9" cy="61.1" rx="1.7" ry="2.7"/>
<ellipse class="st3" cx="48.9" cy="61.1" rx="1.7" ry="2.7"/>
<path class="st4" d="M62.5,67.6c0,4-7.4,7.2-16.5,7.2s-16.5-3.2-16.5-7.2"/>
<path class="st5" d="M45.2,9.3c4.3-0.1,11,10.5,11,10.5H34.8C34.8,19.8,40.7,9.3,45.2,9.3z"/>
<path class="st5" d="M45.6,33.8c0,0,4.7-0.9,10.7-14.2c-6.8-3.1-14.7-3.1-21.5,0C40.4,33.5,45.6,33.8,45.6,33.8z"/>
</svg>
