<svg id="Layer_1" data-name="Layer 1" xmlns="http://www.w3.org/2000/svg" viewBox="0 0 116 116"><defs><style>.cls-1,.cls-4{fill:#fff;}.cls-1,.cls-3{stroke:#26a9e0;stroke-width:4px;}.cls-1{stroke-miterlimit:10;}.cls-2{fill:#26a9e0;}.cls-3{fill:#66d7ff;stroke-linejoin:round;}</style></defs><title>draw_button_large</title><circle class="cls-1" cx="2787.13" cy="3891.17" r="56" transform="translate(-4658.61 -756.21) rotate(-44.59)"/><path class="cls-2" d="M2782.24,3914.33s-19.69,12.43-24.16,7.91,8.15-24,8.15-24,4.88-2.08,11,4C2783.6,3908.72,2782.24,3914.33,2782.24,3914.33Z" transform="translate(-2729.13 -3833.17)"/><path class="cls-3" d="M2820.76,3874.4s2.06-4.9-4.34-11.33c-6.08-6.11-10.25-3.32-10.25-3.32L2767.93,3898s3.46-2.08,9.54,4c6.41,6.43,5.05,10.63,5.05,10.63Z" transform="translate(-2729.13 -3833.17)"/><path class="cls-4" d="M2816.56,3882.6s0.06-6.9-6.34-13.33c-6.08-6.11-12.25-5.32-12.25-5.32l-6.42,6.42s6.17-.79,12.25,5.32c6.41,6.43,6.34,13.33,6.34,13.33Z" transform="translate(-2729.13 -3833.17)"/></svg>