<svg id="Layer_1" data-name="Layer 1" xmlns="http://www.w3.org/2000/svg" xmlns:xlink="http://www.w3.org/1999/xlink" viewBox="0 0 169.48 152.23"><defs><style>.cls-1,.cls-2{fill:none;}.cls-2,.cls-4{stroke:#000;stroke-miterlimit:10;}.cls-2{stroke-width:2.4px;}.cls-3{clip-path:url(#clip-path);}.cls-4{stroke-width:3.32px;}</style><clipPath id="clip-path" transform="translate(-16.34 -65.56)"><path class="cls-1" d="M161.72,100.87c-20.49-20.94-46.8-23.07-58.44-23.49V77.29s-0.57,0-1.59,0-1.59,0-1.59,0v0.09c-11.64.45-38.94,1.65-58.44,23.49C14.75,131,24.59,173,38.9,187.3c13.8,13.8,31.2,28.89,61.2,29.25v0c0.54,0,1,0,1.59,0s1,0,1.59,0v0c30-.36,47.4-15.45,61.2-29.25C178.76,173,191.21,131,161.72,100.87Z"/></clipPath></defs><title>tigerface-small</title><path class="cls-2" d="M161.72,100.87c-20.49-20.94-46.8-23.07-58.44-23.49V77.29s-0.57,0-1.59,0-1.59,0-1.59,0v0.09c-11.64.45-38.94,1.65-58.44,23.49C14.75,131,24.59,173,38.9,187.3c13.8,13.8,31.2,28.89,61.2,29.25v0c0.54,0,1,0,1.59,0s1,0,1.59,0v0c30-.36,47.4-15.45,61.2-29.25C178.76,173,191.21,131,161.72,100.87Z" transform="translate(-16.34 -65.56)"/><g class="cls-3"><path class="cls-2" d="M86.39,164.56c-24.24,3.75-42.6,16.2-45.15,31.44,14.43,10.77,35.13,20.25,58.86,20.55v0c0.54,0,1,0,1.59,0s1,0,1.59,0v0c23.73-.3,44.4-9.78,58.86-20.55-2.52-15.24-20.88-27.69-45.15-31.44" transform="translate(-16.34 -65.56)"/></g><g class="cls-3"><polygon class="cls-2" points="51.87 15.27 67.56 44.55 65.64 12.81 51.87 15.27"/><path class="cls-2" d="M86,78.49l14.55,29.67,14.67-30.24L104.9,68.44S86.84,73.24,86,74.2,86,78.49,86,78.49Z" transform="translate(-16.34 -65.56)"/><polygon class="cls-2" points="115.95 14.19 101.01 44.55 102.18 11.73 115.95 14.19"/><polygon class="cls-2" points="162.39 54.42 139.98 65.55 167.76 75.42 162.39 54.42"/><polygon class="cls-2" points="164.37 87.36 136.08 78.51 160.02 110.34 164.37 87.36"/><polygon class="cls-2" points="9.6 54.42 32.01 65.55 4.23 75.42 9.6 54.42"/><polygon class="cls-2" points="7.59 87.36 35.91 78.51 11.94 110.34 7.59 87.36"/></g><path id="SVGID" class="cls-2" d="M161.72,100.87c-20.49-20.94-46.8-23.07-58.44-23.49V77.29s-0.57,0-1.59,0-1.59,0-1.59,0v0.09c-11.64.45-38.94,1.65-58.44,23.49C14.75,131,24.59,173,38.9,187.3c13.8,13.8,31.2,28.89,61.2,29.25v0c0.54,0,1,0,1.59,0s1,0,1.59,0v0c30-.36,47.4-15.45,61.2-29.25C178.76,173,191.21,131,161.72,100.87Z" transform="translate(-16.34 -65.56)"/><circle class="cls-2" cx="60.3" cy="68.55" r="11.67"/><circle class="cls-4" cx="65.73" cy="64.56" r="4.29"/><circle class="cls-2" cx="108.93" cy="68.55" r="11.67"/><path class="cls-4" d="M135,130.12a4.29,4.29,0,1,1-4.29-4.29A4.29,4.29,0,0,1,135,130.12Z" transform="translate(-16.34 -65.56)"/><path class="cls-2" d="M100.73,196.36c-18.51,0-21.48-15.9-21.51-16.05l2-.36c0.09,0.6,2.73,14.34,19.47,14.34,7,0,12.48-2.43,16.11-7.2a18.63,18.63,0,0,0,3.36-7.14l2,0.36C122.18,180.46,119.21,196.36,100.73,196.36Z" transform="translate(-16.34 -65.56)"/><path class="cls-2" d="M117.14,160.72c-2.64-9.78-15.45-9.78-15.45-9.78s-12.81,0-15.45,9.78c-1.8,6.63,8.28,15.18,15.45,15.18S118.91,167.35,117.14,160.72Z" transform="translate(-16.34 -65.56)"/><path class="cls-2" d="M30.86,117.31A27.16,27.16,0,1,1,69.35,82.54" transform="translate(-16.34 -65.56)"/><path class="cls-2" d="M35.39,109a17.73,17.73,0,1,1,25.26-22.8" transform="translate(-16.34 -65.56)"/><path class="cls-2" d="M131.54,82.18a27.15,27.15,0,1,1,41,33.3" transform="translate(-16.34 -65.56)"/><path class="cls-2" d="M140.3,85.69a17.72,17.72,0,1,1,27.09,21.81" transform="translate(-16.34 -65.56)"/></svg>