<?xml version="1.0" encoding="utf-8"?>
<!-- Generator: Adobe Illustrator 19.2.1, SVG Export Plug-In . SVG Version: 6.00 Build 0)  -->
<svg version="1.1" id="Layer_1" xmlns="http://www.w3.org/2000/svg" xmlns:xlink="http://www.w3.org/1999/xlink" x="0px" y="0px"
	 viewBox="0 0 600 700" style="enable-background:new 0 0 600 700;" xml:space="preserve">
<style type="text/css">
	.st0{fill:none;stroke:#000000;stroke-width:6;stroke-miterlimit:10;}
	.st1{fill:none;stroke:#000000;stroke-width:8;stroke-miterlimit:10;}
	.st2{clip-path:url(#SVGID_2_);fill:none;}
	.st3{clip-path:url(#SVGID_2_);}
	.st4{stroke:#000000;stroke-width:5.18;stroke-miterlimit:10;}
</style>
<title>shark</title>
<ellipse transform="matrix(8.715574e-002 -0.9962 0.9962 8.715574e-002 85.3638 780.3397)" class="st0" cx="468.5" cy="343.6" rx="16.5" ry="16.4"/>
<ellipse transform="matrix(8.715574e-002 -0.9962 0.9962 8.715574e-002 90.4528 786.9945)" cx="474.7" cy="344.1" rx="8.1" ry="8.3"/>
<path class="st1" d="M360.5,439.9c0,9.6-5.5,26.4-42.3,28.5c-2.8-9.3-3.9-20.9-4.3-28.6"/>
<g>
	<defs>
		<path id="SVGID_1_" d="M263.8,431.4c-32.8-6.4-55-15.6-80.3-24.8"/>
	</defs>
	<clipPath id="SVGID_2_">
		<use xlink:href="#SVGID_1_"  style="overflow:visible;"/>
	</clipPath>
	<path class="st2" d="M151.7,396.7"/>
	<path class="st2" d="M386.2,302.4"/>
	<g class="st3">
		<path class="st1" d="M202.2,420.1c0,0,101.3-43.7,304.6-17.7s-238.6,59.1-238.6,59.1L202.2,420.1z"/>
	</g>
</g>
<path class="st1" d="M151.7,396.7"/>
<path class="st1" d="M263.8,431.4c-32.8-6.4-55-15.6-80.3-24.8"/>
<path class="st1" d="M386.2,302.4"/>
<path class="st1" d="M452,424.3c0,0-13.5-41.6-106.3-41.6c0,0-41.6,94.8-91.6,77.1c20.2-44.1,25.4-74.8,25.4-74.8
	c-66.9,6.2-93,16.3-93,16.3l-3.6,5.1c-9,13-26.7,33.2-45.9,26.8c12.5-16.4,14.2-30.9,13.7-39.5c0,0-12.7-8.8-33.9-15.7
	c-12.3-4-25.2-5.5-38-4.7c0,0-9.2,41.4-43,58.3c26.1-43,0-156.5-6.1-179.6c21.5,9.2,47.6,90.5,47.6,90.5l59.8-2.3
	c0,0,13.6-24.9,13.3-31.2c12.7,2.2,23.9,25.3,23.9,25.3c30.7-13,70.1-25.6,122.5-30.7h2c11.6-25.7,23.2-55.8,22.4-71.5
	c35.2,6,55,40.8,65.7,70.3h2.4c50.3,3.2,108.7,13.5,180.6,37.1C500.5,430,402,446.9,313.7,437.8"/>
<path class="st4" d="M506.8,399.8c-14.9,14.8-38,6.1-45.2-21.3c-2-7.5,4.7-14.1,6.6-6.5c5.5,21,25,37.2,36.7,25.7
	C509.2,393.5,511.1,395.6,506.8,399.8L506.8,399.8L506.8,399.8z"/>
</svg>
