<svg id="Layer_1" data-name="Layer 1" xmlns="http://www.w3.org/2000/svg" viewBox="0 0 618.05 180.16"><defs><style>.cls-1{fill:none;}.cls-2{fill:#26a9e0;}.cls-3{opacity:0.6;}.cls-4{fill:#fff;}.cls-5{fill:#41b4e4;}</style></defs><title>headeravatarbackground3</title><path class="cls-1" d="M3055.67,3657.38h0Z" transform="translate(-2655.06 -3629.34)"/><path class="cls-1" d="M3055.54,3655c-0.78-.51-1.06.08-1,0.79a1.71,1.71,0,0,0,1.14,1.64A6.24,6.24,0,0,1,3055.54,3655Z" transform="translate(-2655.06 -3629.34)"/><path class="cls-1" d="M3110.36,3738.83c-1.11-.91-3.08,0-4.56.95s-2.45,1.9-1.34,1.12C3106.92,3741.49,3109.12,3741.11,3110.36,3738.83Z" transform="translate(-2655.06 -3629.34)"/><path class="cls-2" d="M3010.7,3716c3.37,0,5.19-.43,6.61-0.45s2.43,0.53,4.24,2.23c1.68-.34,3.41-0.59,5.1-0.79a42.79,42.79,0,0,1,5-.23,21.71,21.71,0,0,1,4.57.52,12.2,12.2,0,0,1,3.92,1.49c3.07-2.13,6.24-2.89,8.19-1.85,0.42-2.25,1.59-2.72,2.7-2.93s2-.33,1.64-1.71a5.06,5.06,0,0,0,3,.77,5.93,5.93,0,0,0,2.79-.9,12.23,12.23,0,0,0,4.16-4.68c0.54-.88.89-1.83,1.3-2.62a18.44,18.44,0,0,1,1-2.18,2.92,2.92,0,0,1,3.33-1.63,40.71,40.71,0,0,1,.93-9.27,32.7,32.7,0,0,1,3.36-8.6,2.59,2.59,0,0,1-2.41-1.48c-0.43-.95-0.27-2.25,1.08-4-2.19-.17-3.7-1.93-4.83-4.45a50.65,50.65,0,0,1-2.75-9.58,1.76,1.76,0,0,1-1.68,0,9.78,9.78,0,0,1-2.43-1.3,9.45,9.45,0,0,1-3.85-5h0a6.24,6.24,0,0,1-.13-2.43c-0.78-.51-1.06.08-1,0.79a1.71,1.71,0,0,0,1.14,1.64h0a40.8,40.8,0,0,1-6.21-2.41,8.86,8.86,0,0,1-2.35-1.74,6.23,6.23,0,0,1-1.5-2.56c-1.11,1.17-3.08,1.45-5,1.41a9.6,9.6,0,0,1-5.34-1.39c0.14,0.89,0,1.48-.39,1.63s-1.17-.13-2.45-0.78c-0.78.43,0,1.85,0.29,3a14.07,14.07,0,0,1-1.9.71,7.45,7.45,0,0,1-1.48.38,6.79,6.79,0,0,0-.86.23l-0.88.23-0.85.2-0.1,0h0l0.17-.1h-0.07l-0.19,0-0.38.1a9.46,9.46,0,0,0-6,4.27c0.2-1.85,0-2.36-.7-2.18a7.77,7.77,0,0,0-2.46,2.15,28,28,0,0,1-2.43,2.7c-0.65.56-1.21,0.56-1.48-.78a8.71,8.71,0,0,0-.64,1.67,8.41,8.41,0,0,0-.18,1.45c-0.05.87,0.07,1.58,0,2.12a1.38,1.38,0,0,1-.95,1.19,6.63,6.63,0,0,1-1.38.36c-0.58.11-1.31,0.23-2.24,0.37,1.36,0.5,1.71,1.1,1.68,1.84a3.42,3.42,0,0,1-.39,1.21c-0.19.45-.46,0.95-0.73,1.49a9.6,9.6,0,0,0-1.06,3.84,4.93,4.93,0,0,0,1.66,4,1.26,1.26,0,0,0-1.78-.19c-0.46.28-.81,0.57-1.15-0.31a1.31,1.31,0,0,0-.48,1.4l0.11,1.11a9.77,9.77,0,0,1,.06,1.65c1.15-.82,1.38-2,1.34-3.46a28.3,28.3,0,0,0,1.56,4.38c0.66,1.73,1.09,3.38-.2,4.22a3.41,3.41,0,0,1,2.72.48,4.89,4.89,0,0,1,1.41,2c0.72,1.61,1.44,3.63,3,4.38a68.38,68.38,0,0,0,6.48,11.61,55.59,55.59,0,0,0,7.67,9,41.55,41.55,0,0,0,9.59,6.73A42.94,42.94,0,0,0,3052,3729a45.17,45.17,0,0,0,21,7.82,85,85,0,0,0,19.49-1.26c-0.41,2.67,1.85,1.78,2,3.66-0.81-1.9,2.7-5.92,3.44-.37,1.71-3.2,2.7.31,7,0-1.88-2.52.89-3.43,4.46-3.85,0.89-.12,1.84-0.18,2.79-0.25s1.89-.12,2.77-0.15c1.76-.11,3.3-0.12,4.1-0.13,0.91-.48.12-1.9-0.12-3a33.44,33.44,0,0,0,11.2-4.39,16.72,16.72,0,0,0,5.8-6.09,14.6,14.6,0,0,0,1.65-7.61l-0.23-2.22-0.51-2.39-0.82-2.58-1.11-2.62c1.05,0.32,1.55.37,1.7,0.18s0-.58-0.51-1.21l-1.67-2.19-0.11-.15-0.05-.08h0l0.05,0.17h0l0,0-0.21-.22-0.39-.44c-0.25-.29-0.43-0.59-0.62-0.86a7.69,7.69,0,0,0,3.79-1c-3.35-2.19-6.48-4.44-9.82-6.93s-6.86-5.25-10.84-8.08a4.69,4.69,0,0,0-1,1.25,1.28,1.28,0,0,1-1.35.61c0.15-1.71-.45-2.1-1.61-1.77a12.9,12.9,0,0,0-4.24,2.41,5.67,5.67,0,0,0-2.14,4.66,13.57,13.57,0,0,0,.46,3.12,11.76,11.76,0,0,0,.5,1.61c0.22,0.54.3,0.92,0.65,1.69l0.43,1,0.21,0.52,0.05,0.13v0h0l-0.06-.19,0,0.05,0.11,0.21c0.3,0.56.56,1.13,0.87,1.68l1,1.68q0.53,0.83,1,1.67c1.45,2.22,3.05,4.41,4.69,6.65,3,4.19,6.14,8.43,9.47,11.53s6.93,4.95,10.64,4.18c-1.08,1.41.43,2.27,1.85,3.17s2.77,1.82,1.35,3.6c5-1.23,9.2.14,14.13,1.69a51.7,51.7,0,0,0,7.89,1.92,20.75,20.75,0,0,0,8.71-.53c1.13,0.32,0,.84.15,1.91,0.85-.08,1.64-0.24,2.43-0.39s1.75-.4,2.66-0.61l0.35-.09,0.09,0h0l-0.11,0h0.06l0.15,0,0.62-.2c0.42-.12.82-0.28,1.22-0.43a25.16,25.16,0,0,0,2.34-1,17.32,17.32,0,0,0,6.9-6,21.16,21.16,0,0,0,2.81-7.27c0.48-2.31.68-4.31,1.06-5.62-2.13-1.56-2.08-3.43-2.35-5.51a7,7,0,0,0-.89-2.92,3.79,3.79,0,0,0-2.85-1.74c-0.22-.69,1.26-1.3,2.18-2a11.83,11.83,0,0,0-2.27-1.29c-0.27-.09-0.5-0.08-0.32.15a1.06,1.06,0,0,0,.25.21l0.23,0.13,0.3,0.12a2.49,2.49,0,0,0,.38.1,4,4,0,0,0,.5.07,4.4,4.4,0,0,0,1.14-.08,4,4,0,0,0,1.12-.39,3.89,3.89,0,0,0,.67-0.41l0.3-.25,0.13-.13,0,0-0.13.12-0.06.06,0,0h0l0.36-.37h0l-0.2.21a3.69,3.69,0,0,1-.81.63,1.18,1.18,0,0,1-1.44-.06,2.87,2.87,0,0,1-.1,3.11,2.47,2.47,0,0,0-.29,2.75c-1.15-1.51-1.41-1.06-1.75-.24a3.89,3.89,0,0,1-.59,1.22,1.81,1.81,0,0,1-1.47.63c0.16-.07.29,0.33,0.35,0.93a2.68,2.68,0,0,0,.66,1.44,3.72,3.72,0,0,0,.86.13,11.59,11.59,0,0,1,1.47.68,37.13,37.13,0,0,0,6.66,3.62c2.62,0.92,5.25,1,7-1.31a31.47,31.47,0,0,0,11,2.25,65,65,0,0,0,11.74-.74c7.88-1.12,15.69-3.12,23.08-3.88-0.07,1.57,1,1.55,1.17,2.76,1.37-1.67,5.3-2.1,9.71-2.15,2.21,0,4.53.05,6.76,0.15,1.14,0.06,2.22.11,3.35,0.19l0.84,0.06,0.89,0.08c0.26,0,.67.08,1,0.12l0.49,0.07c0.28,0.05.65,0.14,1,.23s0.73,0.19,1,.24a0.36,0.36,0,0,0,.43-0.07,2,2,0,0,0,.44-0.53,1.89,1.89,0,0,1,.56-0.8l-2.49,4.68-1.71,3.22c-0.47.88-.74,1.49-0.74,1.49a1.34,1.34,0,0,0,0-.83,1.74,1.74,0,0,0-.6-0.66,4.72,4.72,0,0,0-2.26-.6,32.48,32.48,0,0,0-6.92.79c-5.32,1-11.72,2.12-17.17-.23-1.45,2.51-1.24,1.12-4.06,2.4a9.12,9.12,0,0,0,.65-2c-4.48.09-9,1.75-13.54,3.22s-9.2,2.72-13.73,2c-1.68-.28-6.54,0-12-0.64a37.1,37.1,0,0,1-8.16-1.76,14.92,14.92,0,0,1-6.26-3.85,13,13,0,0,1-5.73-2.16,9.67,9.67,0,0,1-1.29-1.11,10.14,10.14,0,0,1-1.08-1.42,8.12,8.12,0,0,1-.79-1.66,8.33,8.33,0,0,1-.46-1.79,14.26,14.26,0,0,1,.82-6.88,28.21,28.21,0,0,1,2.82-5.71c0.54-.9,1.15-1.7,1.73-2.54,0.3-.41.61-0.8,0.92-1.2l0.47-.59,0.23-.3,0.12-.15,0.36-.37,0.12-.13,0.21-.18,0.31-.24a6.47,6.47,0,0,1,.67-0.42c0.2-.09.4-0.18,0.6-0.26a5.43,5.43,0,0,1,2.5-.31,6.64,6.64,0,0,1,3.14,1.26,12.72,12.72,0,0,1,2.87,3,26.41,26.41,0,0,1,3.06,5.85,37.62,37.62,0,0,1,1.74,6,36.89,36.89,0,0,1,.44,12.36,26.85,26.85,0,0,1-4.52,11.8,25.46,25.46,0,0,1-4.33,4.7,30.26,30.26,0,0,1-5.18,3.47,42.22,42.22,0,0,1-5.51,2.42l-0.7.25-0.35.12,0,0-0.19,0h0l-0.08,0-0.15,0-1.23.4c-0.74.28-1.8,0.53-2.79,0.79-1.49-.4-0.68-3.6-2.35-3.6-1.08.15-1.09,0.94-.66,1.65a2,2,0,0,0,1.87,1.14,65.33,65.33,0,0,1-8.18.18,69.54,69.54,0,0,1-8.69-1,75.64,75.64,0,0,1-17.45-5.28,65.82,65.82,0,0,1-12.51-6.89c-3.93-2.87-7.05-6.31-8-9.56a4.63,4.63,0,0,1-3.43-.73,10.63,10.63,0,0,1-2.93-2.82,12,12,0,0,1-1-1.61,6.74,6.74,0,0,1-.49-1.45c-0.17-.84,0-1.38.63-1.37-1.67-.19-4.32-2.23-6.27-5.23a14.54,14.54,0,0,1-1.29-2.37,12.69,12.69,0,0,1-.86-2.53,10.3,10.3,0,0,1-.26-3.64l0-.14v-0.07h0a0.26,0.26,0,1,1,0-.1h0v0l0.07-.25q0.07-.25.16-0.49c-1.63-1.13-2.81-4.28-3-6.94,0-.69,0-1.35,0-2s0.17-1.21.26-1.71a12.55,12.55,0,0,1,.55-1.87,2.29,2.29,0,0,0-.07-0.63,8.57,8.57,0,0,1,0-1.25,4.07,4.07,0,0,1,1.23-2.88,4.58,4.58,0,0,1,2-.08c0.43,0,.83.11,1.14,0.15a1.37,1.37,0,0,0,.57.07c1-1,.48-1.15-0.26-1.27s-1.67-.21-0.78-1.63a9.26,9.26,0,0,1,6.69-3.69,17.8,17.8,0,0,1,7.44,1c2.31,0.75,4.42,1.71,6.55,2.4a19.42,19.42,0,0,0,6.8,1.13,9.94,9.94,0,0,0,5,6.21c0.59,0.37,1.24.72,1.88,1.16a22.31,22.31,0,0,1,2,1.41,16.13,16.13,0,0,1,2.11,1.87c0.34,0.36.7,0.74,1,1.15s0.63,0.88.95,1.35l-5.1,2.67c1.95-.64,2.36.05,2.67,0.76a2.15,2.15,0,0,0,.64.95h0l0,0.1h0l0,0,0.06,0,0.14,0.06a1.63,1.63,0,0,0,.35.09,3.83,3.83,0,0,0,1.06,0,0.65,0.65,0,0,0,.41-0.51,0.41,0.41,0,0,0-.1-0.22h0l-0.05-.17h0l0,0-0.06-.07-0.14-.14a3.11,3.11,0,0,1-1.16-1.71,2.42,2.42,0,0,1,2.34,1.12,3.29,3.29,0,0,1,.17.29l0,0.08,0,0v0l0.07,0.23,0,0.13a2.87,2.87,0,0,1,.13.56,4.22,4.22,0,0,1,0,1.24c-0.27,1.63-1.54,3.8-3.06,4.25,0.6,1.49,2.06,1.62,2.59.55,0,0.73-.12,1.61-0.15,2.53s0.07,1.86.13,2.79a7.42,7.42,0,0,0,.7,2.53,3.35,3.35,0,0,0,1.67,1.74,1.61,1.61,0,0,0-1.43,1.32,5.51,5.51,0,0,0,.25,1.89c0.35,1.33.16,2.73-2.73,2.39,0.93,1.07,1.09,2.65.8,4.51a14.46,14.46,0,0,1-1,2.78,18.35,18.35,0,0,1-1.75,2.62,22,22,0,0,1-2.21,2.14,19.65,19.65,0,0,1-2.33,1.48,7.19,7.19,0,0,1-3.74.92,5.4,5.4,0,0,1-2.75,3.76c-0.65.43-1.37,0.85-2.15,1.33a18.84,18.84,0,0,0-2.52,2c2-2.49.09-2.65-2.82-2,0.34,0.87,1.34.28,2.1,0.21,0.38,3.3-1.75,1.6-3.56,1.3-0.36,1.7-1.89,2.95-4.11,3.86a28.29,28.29,0,0,1-8,1.62c-6,.51-12.39-0.07-16.26.75-2.65-.61-1.11-1.35-1.18-3.75a3.83,3.83,0,0,1-2.55,1.15,4.81,4.81,0,0,1,1.07,2.81,33.48,33.48,0,0,1-12-.39l-3.34-.61-3.64-.82c-2.47-.64-4.91-1.44-7.4-2.28-3.21-1.06-7.32-2-11.83-3.26a99.94,99.94,0,0,1-13.95-4.87,48.13,48.13,0,0,1-12.06-7.39c-3.22-2.85-5.39-6-5.84-9.12-5.1-2.91-9.59-8-13.45-14.48a66.24,66.24,0,0,1-5.14-10.81,56,56,0,0,1-1.94-6.31,47.32,47.32,0,0,1-1.22-7c1.45,0.89,2.06.83,2.21,0.31a8.75,8.75,0,0,0-.39-2.81,12.56,12.56,0,0,1-.29-3.95c0.13-1.23.7-2.17,1.71-2.32-1-1.23-.95-3.25.11-5.56a21.13,21.13,0,0,1,5.7-6.89,48.36,48.36,0,0,1,8.61-5.53l8.52-4.32c0.45-.27,1.05-0.55,1.55-0.85s1-.65,1.52-0.93c1-.58,1.94-1.25,2.92-1.82a30.48,30.48,0,0,1,5.87-3c3.89-1.32,7.65-.86,8.91,3.33a3.56,3.56,0,0,1,1.93-.82,4.53,4.53,0,0,1,1.86.23,24.88,24.88,0,0,0,5,1.19c-0.88.34-1,.79-0.65,1.24a6.47,6.47,0,0,0,2.09,1.37,25.65,25.65,0,0,0,3.21,1.22,8.47,8.47,0,0,0,2.91.51c0.87,1.18-.58.62-1.13,1.55,3.11,1.82,4.36,2.37,5.33,3s1.58,1.52,2.73,4.55c-1.36.62-.47-1.14-1.85-2.06a2.32,2.32,0,0,0,.86,3.21c0.88,0.74,2,1.48,1.68,2.88a1.28,1.28,0,0,1,1.86-.36,6.51,6.51,0,0,1,2.21,2.29c1.36,2.1,1.91,5.09.82,6.54,0.56,0.89,1.91,0,3-.3a39.25,39.25,0,0,0,1.41,8.21,58.71,58.71,0,0,1,1.76,10.24,27.77,27.77,0,0,1-1.45,11.2,15.92,15.92,0,0,1-6.19,8.18c-0.4.29-3.27-.49-3.44-0.29-0.61.7-.09,0.94,0.6,0.92a2.06,2.06,0,0,0,1.48-.44c0.88,2.1-2,5.57-6.21,7.94a37.11,37.11,0,0,1-6.57,2.84c-0.54.18-1.07,0.37-1.59,0.53l-1.51.44c-1,.32-1.85.58-2.62,0.84a82.47,82.47,0,0,1-14.23,3.91c-4.91.81-9.73,1-13.56,0,0.73-1.88.15-2.37-.63-2.63s-1.78-.34-1.92-1.27c-1.75-.35.07,2.78,0.78,2.91,0.18,1.43-5.43-.36-2.57-2-3.88,1.85-5.57,1.3-10.56.13,0.64-.8,1.25-1.6.23-1.91,0.15-1.41,5.25-.88,1.09-1.82,0.34-1.19,2.67-1,2.56.25C3015.61,3717.22,3011.8,3716.54,3010.7,3716Zm93.76,24.92c2.46,0.59,4.66.21,5.9-2.06-1.11-.91-3.08,0-4.56.95S3103.35,3741.69,3104.46,3740.9Z" transform="translate(-2655.06 -3629.34)"/><path class="cls-2" d="M3144.45,3703.74a2.28,2.28,0,0,0,.18-1.33A9.23,9.23,0,0,0,3144.45,3703.74Z" transform="translate(-2655.06 -3629.34)"/><g class="cls-3"><path class="cls-1" d="M3107.2,3775h0v0Z" transform="translate(-2655.06 -3629.34)"/><path class="cls-1" d="M3104.74,3774.71c-0.68.61-.23,1.07,0.49,1.19a1.76,1.76,0,0,0,2-.87A4.36,4.36,0,0,1,3104.74,3774.71Z" transform="translate(-2655.06 -3629.34)"/><path class="cls-1" d="M3146.07,3703.38c-0.5-1.24-2.26-.88-3.57-0.33s-2.22,1.3-1.25.78C3142.94,3704.93,3144.48,3705.13,3146.07,3703.38Z" transform="translate(-2655.06 -3629.34)"/><path class="cls-2" d="M3057.59,3715.62c2.72-.89,4.13-1.78,5.34-2s2.18,0,4,1.44a20.4,20.4,0,0,1,4.28-1.33,17.48,17.48,0,0,1,4.38-.34,13,13,0,0,1,4,.84,8.52,8.52,0,0,1,3.08,2.13c3-1.42,6.14-.91,7.11.93,1.33-1.89,2.57-1.56,3.53-1.16s1.68,1,2.31-.32a7.1,7.1,0,0,0,.66,1.45,5.9,5.9,0,0,0,.86,1.16,8,8,0,0,0,2.25,1.56,52.13,52.13,0,0,0,5.86,1.92,15.21,15.21,0,0,1,5.36,2.63c1.27,1.14,1.81,2.48.9,4a12.52,12.52,0,0,1,6.59,8.21,11.51,11.51,0,0,1-1.64,9.52,2.34,2.34,0,0,1,2.19,1.77c0.24,1-.24,2.46-2.15,3.51,2,0.87,2.69,3.38,1.95,6.33a15,15,0,0,1-6,8.27c0.8,0.37.91,2.33,0,4.43s-2.91,4.21-5.27,4.53v0a4.36,4.36,0,0,1-2.46-.32c-0.68.61-.23,1.07,0.49,1.19a1.76,1.76,0,0,0,2-.87h0a13.06,13.06,0,0,1-5.56,5.52c-2.38,1.15-5,1.18-6.61-.38-0.43,1.59-2.79,2.79-5.41,2.8s-5.2-1.07-6.05-2.58c-0.24.86-.65,1.34-1.21,1.23a3.6,3.6,0,0,1-1.93-2.15c-0.94-.19-1.29,1.38-1.83,2.39a13.15,13.15,0,0,1-2.55-1.26l-0.54-.34a3.68,3.68,0,0,1-.37-0.3c-0.22-.19-0.43-0.38-0.62-0.57s-0.37-.38-0.54-0.57l-0.06-.07h0l-0.18-.12h0l0,0,0,0-0.13-.17-0.25-.33-0.94-1.27a13.14,13.14,0,0,0-2.13-2.33,13.54,13.54,0,0,0-3.64-2.38c1.91,0,2.34-.45,2.08-1a4.06,4.06,0,0,0-.85-1c-0.39-.39-0.87-0.81-1.37-1.24s-1-.88-1.47-1.3a5.73,5.73,0,0,1-1-1.3c-0.42-.79-0.24-1.29,1.07-1.3-2-1.5-3.68-1.88-4.65-2.59a1.46,1.46,0,0,1-.62-1.56,8.66,8.66,0,0,1,1.79-3.26c-1.29.6-2,.46-2.52-0.18a7.31,7.31,0,0,1-.62-3.11c-0.08-.64,0-1.35,0-2.05a13.46,13.46,0,0,0-.18-2.15,7.8,7.8,0,0,0-.44-2.17,11.07,11.07,0,0,0-1.15-2.19,1.17,1.17,0,0,0,1.72.48c0.5-.22.89-0.41,1.09,0.44a1.3,1.3,0,0,0,.73-1.19,6.73,6.73,0,0,1,.56-2.38c-1.4.23-1.93,1.34-2.19,2.76a32.57,32.57,0,0,1,0-4.72,10.21,10.21,0,0,1,.24-1.36,3.71,3.71,0,0,1,.51-1.09,1.69,1.69,0,0,1,1.74-.84,3.1,3.1,0,0,1-1.72-2.18,4.59,4.59,0,0,1,.58-2.42c0.37-.85,1-1.64,1.4-2.46a5.55,5.55,0,0,0,.76-2.54,53.94,53.94,0,0,1,9.33-8.35l2.19-1.57,2.16-1.43c1.38-1,2.82-1.8,4.13-2.74,2.73-1.75,5.3-3.61,8-5.72s5.54-4.6,8.92-7.56c3.31-.8,6.65-1.5,9.93-2.09l2.45-.43,2.45-.33c0.79-.14,1.65-0.17,2.46-0.25l1.22-.12c0.4,0,.77,0,1.15,0l1.13,0,0.56,0h0.63l2.21,0c1.45,0,2.86-.08,4.22-0.14,2.72-.13,5.24-0.34,7.49-0.59-0.59,2.61,1.34,1.94,1.27,3.85-0.49-2,3-5.55,2.77.07,1.85-2.89,2.13.67,5.43,1.3-0.89-2.86,1.53-3.21,4.48-2.48a21.25,21.25,0,0,1,7.25,3.47c0.83,0.06,1.08-1.52,1.52-2.58a43.64,43.64,0,0,1,9.56,5.53,29.37,29.37,0,0,1,5.82,5.95,25.23,25.23,0,0,1,3.77,7.58l0.59,2.4c0.16,0.84.27,1.71,0.41,2.65s0.13,1.89.19,2.92,0,2.17-.09,3.36c-1.59-1.83-1.72-1.17-1.51.22l0.37,2.28,0.07,0.62v0.25h0l-0.05.17h0v0l0,0.37a7.71,7.71,0,0,1-.25,1.4,5.62,5.62,0,0,0-3.37-2,10.34,10.34,0,0,1-.32,6.19,13.94,13.94,0,0,1-4,5.88,15.46,15.46,0,0,1-6.59,3.45,13.25,13.25,0,0,1-7.23-.21c-0.62.79-.38,2.37-2.09,2.31,0-1.73-.59-2-1.79-1.79-0.61,0-1.4.27-2.41,0.29-0.25,0-.52,0-0.79,0l-0.87-.09a7.79,7.79,0,0,1-1.93-.49,11.17,11.17,0,0,1-3.89-2.57l-0.44-.44-0.38-.49c-0.25-.33-0.51-0.67-0.74-1a13.9,13.9,0,0,1-1.09-2.23l-0.42-1.17-0.27-1.17a15.29,15.29,0,0,1-.33-2.34,21.1,21.1,0,0,1,.16-4.64c0.1-.88.21-1.41,0.33-2l0.17-.9,0.35-1.22a26.37,26.37,0,0,1,1.54-4.07,27.32,27.32,0,0,1,4.7-7c3.53-3.8,7.75-6.17,11.12-8.34s6-4.25,6.91-7.78c0.75,1.62,2.07.8,3.43,0.19s2.73-1.05,3.38,1.13c1.41-4.43,5.2-6.55,9.75-7.91,2.29-.68,4.79-1.16,7.42-1.68s5.42-1.06,8.52-1.78c1.16,0.36-.07.84,0,1.92,0.8-.08,1.63-0.06,2.47-0.09s1.81,0.07,2.71.12l1.17,0.13,0.59,0.06,0.15,0,0.3,0.06,0.34,0.06a24.51,24.51,0,0,1,2.71.62,22.1,22.1,0,0,1,5.31,2.28,19.18,19.18,0,0,1,9,12.72,13.32,13.32,0,0,1,0,6.31c2.07,1.78,1.6,4.12,1,6.26s-1.29,4.22.2,7.06c-0.46.93-1.88,0.13-3-.11a10.93,10.93,0,0,1-2.09,7.22,7.63,7.63,0,0,1-4.51,2.88,6,6,0,0,1-1.7.1,4.43,4.43,0,0,1-1.39-.33c-0.75-.32-1-0.7-0.85-0.93a3.88,3.88,0,0,1-1.71-.29,6,6,0,0,1-.9-0.45c-0.1-.07-0.08,0-0.11,0h-0.18l-0.22,0h0l-0.34-.37h-0.08l-0.1,0a2.25,2.25,0,0,1-.37-0.1,2.89,2.89,0,0,1-1.08-.79,3.65,3.65,0,0,0-2.77-1.53c2-.36,1.54-0.82.85-1.64s-1.69-2-.84-3.44c0,0.23-.46-0.11-1.12-0.84a14.21,14.21,0,0,1-2.28-3.73,12.6,12.6,0,0,1-.77-7.21,16.29,16.29,0,0,1,.59-2,18.08,18.08,0,0,1,.89-1.8,17.56,17.56,0,0,1,1-1.44,11.18,11.18,0,0,1,1-1.06,12.25,12.25,0,0,1,6-3,31,31,0,0,1,5.1-.47c3-.12,5.3-0.42,6.78-3a57.37,57.37,0,0,0,10.2,1.91,94.85,94.85,0,0,0,10.15.35c6.77-.07,13.55-0.52,19.55.12-0.37,1.52.47,1.7,0.38,2.93,1.4-1.39,4.6-1,7.91-.41,1.65,0.31,3.34.69,4.77,0.93a16,16,0,0,0,1.82.22h0.51c0.1,0,0,0,0,0h-0.11l-0.16,0-0.31.08c-0.47.13-1,.29-0.81,0a2.37,2.37,0,0,0-.16-0.65,2.23,2.23,0,0,1-.3-0.92l2.13,4.85,1.47,3.33c0.4,0.9.61,1.53,0.61,1.53a6,6,0,0,0-.87-0.6,3.37,3.37,0,0,0-.76-0.45,5.42,5.42,0,0,0-1.9-.41c-1.48-.1-3.46.07-5.68,0.14-4.44.16-9.76,0-13.61-3.3-1.64,2.19-1.21.86-3.69,1.61a10.53,10.53,0,0,0,.9-1.85c-3.59-.72-7.51.15-11.35,1s-7.59,1.63-11.09.72c-1.3-.33-5.14-0.29-9.28-0.24l-6.22.09-5.62,0a5.73,5.73,0,0,0-1.59,3.81,7.44,7.44,0,0,0,1.16,3.44,23.74,23.74,0,0,0,2.35,3.29c0.41,0.54.93,1.07,1.37,1.61l1.46,1.59,0.75,0.79,0.37,0.4,0,0c-3,2-.83.59-1.49,1.05v0l0,0.07-0.07.27,0,0.14-0.07,0a0.43,0.43,0,0,0-.14.08,0.18,0.18,0,0,0-.08.12,0.31,0.31,0,0,0,0-.09,2,2,0,0,0-.17-0.74,6.37,6.37,0,0,0-.68-1.2q-0.12-.18-0.25-0.35l-0.06-.08h0l0,0a9,9,0,0,0,.71-1.07,17.34,17.34,0,0,0,.81-1.62,31.1,31.1,0,0,0,2.17-7.63,23.51,23.51,0,0,0,0-7.72,13,13,0,0,0-2.89-6.31,11.35,11.35,0,0,0-5.67-3.41,13.43,13.43,0,0,0-3.4-.46l-1.06,0a5,5,0,0,0-.85.07l-0.77.1c-0.26,0-.58.11-0.86,0.16-0.8-.58,0-3.72-1.21-3.82-0.82.1-.81,0.9-0.53,1.63s0.81,1.37,1.17,1.24a33.72,33.72,0,0,0-11,2,56.5,56.5,0,0,0-5.83,2.35c-1.94.88-3.86,1.88-5.75,2.92-2.63,1.44-5.65,3.51-8.57,5.3s-5.79,3.29-8.59,3.46c0.59,2-.7,3.79-2.18,4.94s-3.19,1.7-3.55.67c0.32,1.42-.36,3.66-1.43,5.71a16.91,16.91,0,0,1-1.91,2.93,8.57,8.57,0,0,1-.57.64l-0.31.3,0,0h0l0-.11h0l0,0-0.08.09-0.16.17a6.77,6.77,0,0,1-1.43,1.14c0.15,0.45.35,0.82,0.46,1.23a10.44,10.44,0,0,1,.25,1.19,7.61,7.61,0,0,1,.13,1.2,10.51,10.51,0,0,1,.1,1.08c0,0.36.08,0.63,0.08,0.93a4.53,4.53,0,0,0,.08.73l0,0.52,0.05,0.24a2.54,2.54,0,0,0,.89.22,1.57,1.57,0,0,1,.54.11,0.25,0.25,0,0,1,.19.3c0,0.07-.47.68-0.77,1.3a4.31,4.31,0,0,0-.51,1.35c0.74,0.33.77-.21,0.92-0.76a1.85,1.85,0,0,1,1.08-1.4,2.59,2.59,0,0,1,2.32-.06,18.42,18.42,0,0,0,3.35,1,6.72,6.72,0,0,0,4.06-.48,4.25,4.25,0,0,0,2.38-3.56c2.52,1.07,3.91.06,4.54-1.54s0.59-3.83.87-5.88l5.36,2.07c-1.79-1-1.72-1.44-1.59-1.93l0-.18h0l0,0.08h0v-0.18a0.83,0.83,0,0,0-.09-0.43,2.49,2.49,0,0,0-1.35-.94c-0.73,0-.69.21-0.54,0.6l0.12,0.31,0,0.08v0.07h0l0-.15h0a1.24,1.24,0,0,1,0,.15,0.73,0.73,0,0,1-.14.61,4.35,4.35,0,0,1-1-.77,1.66,1.66,0,0,1-.25-0.35l0-.08h0l-0.06.19h0v-0.08a1.44,1.44,0,0,1,0-.22,2.23,2.23,0,0,1,.84-1.69,4.71,4.71,0,0,1,.95-0.68,6.92,6.92,0,0,1,1.07-.39,6,6,0,0,1,2.41-.21,1.5,1.5,0,0,0-2.23-1.16,5.18,5.18,0,0,0,.75-1.47,6.6,6.6,0,0,0,.25-0.89,3.76,3.76,0,0,0,0-.9,2.36,2.36,0,0,0-.65-1.55,2.93,2.93,0,0,0-1.87-.73c1-.28,1.28-0.61,1.22-0.9a1.93,1.93,0,0,0-.77-0.79c-0.61-.52-1.11-0.82,1.52-2.06a7.23,7.23,0,0,1-1.66-.27,5.34,5.34,0,0,1-1.37-.55,6.94,6.94,0,0,1-2-1.61,10.8,10.8,0,0,1-1.48-2.13,1.48,1.48,0,1,0-2.48-1.62,3.84,3.84,0,0,1-1.29-.15,5.4,5.4,0,0,0-3.35-.2c2.08-.88,1.6-2.07-0.18-3.07-0.28.89,0.47,0.93,0.85,1.27-1.63,2.87-1.47.38-2.32-.69-1.93,2.51-5.11,1.79-9.07.76s-8.53-2.42-11.49-1.94c-1.92-.84-0.72-1.44-0.58-3.83a2.8,2.8,0,0,1-2.06,1,5.66,5.66,0,0,1,.63,2.87,24.7,24.7,0,0,1-9.17-.75l-1.24-.28-0.63-.15-0.16,0h0.16l-0.33-.06-2.61-.46-2.12-.29c-0.83,0-1.69,0-2.58,0a19.8,19.8,0,0,0-7.89,3,74.33,74.33,0,0,0-8.43,6.08c-5.5,4.38-10.19,8.56-15.51,8.21-2.06,3.85-5.3,7.12-8.19,11.29a26.07,26.07,0,0,0-3.46,6.92,17.28,17.28,0,0,0-.75,3.89c0,0.66,0,1.32.06,2l0,0.49,0.11,0.49,0.23,1c-1.47-.44-2.08-0.46-2.22-0.12a1,1,0,0,0,.09.69,3.39,3.39,0,0,0,.55.94,9,9,0,0,1,1.25,2,1.16,1.16,0,0,1-.59,1.68,3.27,3.27,0,0,1,1.74.59,3.21,3.21,0,0,1,1.16,1.33c0.23,0.58.59,1.22,0.84,2,0.14,0.38.24,0.81,0.38,1.24s0.35,0.86.53,1.33l0.53,1.47,0.74,1.48,0.78,1.56c0.3,0.51.65,1,1,1.49a16.77,16.77,0,0,0,2.24,2.8c0.42,0.42.84,0.82,1.27,1.2l0.65,0.55,0.33,0.26,0.08,0.06,0,0h0l-0.07,0h0l0,0,0.18,0.12a7.13,7.13,0,0,0,2.31,1,9,9,0,0,0,2.24.23,13.9,13.9,0,0,0,2.12-.22c0.66-.17,1.26-0.26,1.81-0.43,2.22-.57,3.26-0.63,5.16,3a2.59,2.59,0,0,1,1.81-1.93,10.66,10.66,0,0,0,1.19-.5,3.51,3.51,0,0,0,1.22-1.24c0,0.78.2,1.18,0.6,1.26a2,2,0,0,0,1.53-.56,4.51,4.51,0,0,0,1.81-3.82c0.88-.3.55,0.64,1.32,1.39a11,11,0,0,0,1.67-3.76c0.26-.72.78-1,2.72-2.3,1.1,1-.7.53-0.94,1.64,1.72,0.53,2.12-.21,2.32-1.06s0.23-1.8,1.45-2c-1.54-.23-1.67-1.87-1.18-3.43s1.62-3.22,3.3-3.56c0-.79-1.62-0.89-2.71-1.2a7.26,7.26,0,0,0,1.6-5.2,18.25,18.25,0,0,0-1.51-6.4,60.18,60.18,0,0,0-3-5.72,19.78,19.78,0,0,1-2.24-5.49c0-.28,1.25-2.77,1.07-2.93-0.52-.46-0.77,0-0.88.63a1.59,1.59,0,0,0,0,1.2c-1.92.89-3.63-.63-5.93-2.37s-5.13-3.77-7.33-4.26a40.61,40.61,0,0,0-10.25-.62,44.39,44.39,0,0,1-9.77-.31c0.38-1.92-.08-2.38-0.71-2.58s-1.41-.11-1.64-1c-1.41-.12.42,2.74,0.95,2.78,0.32,1.39-4.09.34-2.21-1.66-2.67,2.45-3.91,2.22-7.9,2.36,0.25-.92.5-1.85-0.36-1.89-0.3-1.39,3.82-2.16.33-2-0.07-1.23,1.85-1.64,2.06-.4C3061.88,3715.55,3058.65,3715.87,3057.59,3715.62Zm83.66-11.79c1.69,1.1,3.23,1.31,4.82-.45-0.5-1.24-2.26-.88-3.57-0.33S3140.28,3704.35,3141.25,3703.83Z" transform="translate(-2655.06 -3629.34)"/><path class="cls-2" d="M3167.08,3726.77a1.15,1.15,0,0,0-.6.63A3.7,3.7,0,0,0,3167.08,3726.77Z" transform="translate(-2655.06 -3629.34)"/></g><path class="cls-1" d="M2869.08,3650.88h0l0,0Z" transform="translate(-2655.06 -3629.34)"/><path class="cls-1" d="M2871.74,3651.2c0.85-.67.41-1.14-0.36-1.26a2.27,2.27,0,0,0-2.29.93A4.83,4.83,0,0,1,2871.74,3651.2Z" transform="translate(-2655.06 -3629.34)"/><path class="cls-1" d="M2821.38,3734.76c0.69,1.25,2.82.95,4.41,0.42s2.69-1.26,1.51-.76C2825.17,3733.28,2823.23,3733,2821.38,3734.76Z" transform="translate(-2655.06 -3629.34)"/><path class="cls-2" d="M2920.81,3722.86c-3.34,1-5.09,1.88-6.57,2.16s-2.65.08-4.8-1.39a28.41,28.41,0,0,1-5.24,1.36,24.51,24.51,0,0,1-5.33.33,18.44,18.44,0,0,1-4.86-.88,11.25,11.25,0,0,1-3.78-2.21c-3.59,1.33-7.42.66-8.67-1.27a3.18,3.18,0,0,1-4.2.92c-1.18-.51-2.05-1.18-2.74.12a9.37,9.37,0,0,0-4.68-4.74c-2-1.09-4.49-1.87-6.84-3a28.29,28.29,0,0,1-3.37-1.79,13.9,13.9,0,0,1-2.63-2.18c-1.41-1.54-1.89-3.23-.92-4.71a16.07,16.07,0,0,1-6.08-11.09,14.87,14.87,0,0,1,3.14-11,2.5,2.5,0,0,1-1.82-2.46c0-1.28.72-2.85,2.83-3.84-1.82-1.32-2-4.31-.58-7.63a18.53,18.53,0,0,1,3.12-4.92,21.3,21.3,0,0,1,4.84-4.08,1.77,1.77,0,0,1-.35-1.79,9.65,9.65,0,0,1,1.29-3.14c1.36-2.26,3.86-4.49,6.49-4.82l0,0,0,0a4.83,4.83,0,0,1,2.65.32c0.85-.67.41-1.14-0.36-1.26a2.27,2.27,0,0,0-2.29.93h0a17.73,17.73,0,0,1,6.81-5.85,10.21,10.21,0,0,1,4-1,5.53,5.53,0,0,1,3.41,1.07c0.53-1.61,3.16-3,6.14-3.19s6.07,0.76,7.3,2.18c0.18-.89.58-1.36,1.24-1.28s1.58,0.69,2.57,2.09c1.14,0.15,1.29-1.46,1.77-2.5a21.25,21.25,0,0,1,3,1.15,23.06,23.06,0,0,1,2.37,1.46,5.53,5.53,0,0,1,.78.67l0.64,0.64,0.6,0.63,0.07,0.08h0l0.18,0.11h0l0,0,0,0,0.15,0.17,0.31,0.34a22.39,22.39,0,0,0,2.75,2.6,27,27,0,0,0,4.44,2.66c-2.08-.08-2.52.4-2.12,1a15.32,15.32,0,0,0,2.84,2.46,16.63,16.63,0,0,1,3.13,2.94c0.58,0.89.48,1.46-.93,1.43a12,12,0,0,0,1.68,1.11,15.53,15.53,0,0,0,1.47.77,11.92,11.92,0,0,1,2.24,1.16,2,2,0,0,1,.86,1.82,5.66,5.66,0,0,1-.3,1.58,13.82,13.82,0,0,1-1,2.2c1.23-.7,2.05-0.55,2.58.23a5.22,5.22,0,0,1,.66,1.54c0.15,0.64.27,1.36,0.38,2.14,0.16,1.57.28,3.33,0.51,5.07a13.55,13.55,0,0,0,1.77,5.23c-0.67-1.13-1.27-.8-1.74-0.53s-0.85.54-1.12-.5a1.81,1.81,0,0,0-.69,1.48c0,0.33-.05.73-0.13,1.21a11.18,11.18,0,0,1-.49,1.71c1.34-.37,2-1.7,2.25-3.45a37.87,37.87,0,0,1-.06,5.72c-0.33,2.29-1.22,4.28-2.75,4.07a3.09,3.09,0,0,1,1.56,2.47,6,6,0,0,1-.82,2.89c-1,2-2.64,3.9-2.84,5.93a65.74,65.74,0,0,1-11.21,10.11c-3.6,2.63-7,4.77-10.34,6.92s-6.57,4.27-10,6.72-7.05,5.21-11.35,8.46c-8,1.94-16.08,3.63-23.84,4-7.55.06-14.35,0.27-19.84,0.77,0.68-2.61-1.67-2-1.62-3.87,0.63,2-3.55,5.53-3.41-.11-2.2,2.87-2.63-.69-6.71-1.39,1.2,2.88-1.74,3.19-5.36,2.4-0.9-.21-1.84-0.47-2.76-0.78s-1.81-.67-2.63-1a25.79,25.79,0,0,1-3.63-1.93c-1-.1-1.16,1.51-1.59,2.56a53.28,53.28,0,0,1-11.83-6.19,33.15,33.15,0,0,1-7.28-6.9,26.45,26.45,0,0,1-4.53-9.12l-0.64-2.9-0.37-3.21c0-1.11-.06-2.27-0.07-3.52s0.18-2.62.32-4c0.73,1.08,1.16,1.41,1.37,1.28a2.3,2.3,0,0,0,.18-1.5l-0.2-2.74v-0.31h0l0.05-.17h0v-0.06l0-.44c0-.3.07-0.59,0.12-0.88a7,7,0,0,1,.42-1.63c0.44,1.08,1.62,1.82,3.19,2.35a13,13,0,0,1,1.28-7.15,18.34,18.34,0,0,1,5.32-6.54,19.91,19.91,0,0,1,8-3.74,17,17,0,0,1,8.5.25,6.53,6.53,0,0,0,.89-1.43,1.66,1.66,0,0,1,1.79-.77c-0.1,1.77.57,2,2,1.89a25.1,25.1,0,0,1,2.87-.11,10.37,10.37,0,0,1,4.16,1,12.37,12.37,0,0,1,4.28,3.36c0.29,0.38.59,0.76,0.87,1.16l0.7,1.27a7.36,7.36,0,0,1,.58,1.32c0.16,0.45.33,0.91,0.48,1.37a20.57,20.57,0,0,1,.66,5.49,19.67,19.67,0,0,1-.18,2.73l-0.2,1.4c0,0.22-.07.5-0.11,0.68l-0.11.55-0.23,1.1-0.12.55,0,0.14,0,0.07v0l-0.08.23-0.1.31c-0.27.83-.52,1.68-0.83,2.49s-0.65,1.61-1,2.4-0.78,1.54-1.18,2.3a36.66,36.66,0,0,1-6.13,8,43.24,43.24,0,0,1-7,5.5c-2.34,1.56-4.67,2.84-6.74,4.12-4.2,2.51-7.53,4.83-9.11,8.58-0.62-1.66-2.29-.79-3.95-0.07s-3.34,1.2-3.8-1.06c-2.29,4.68-7,6.93-12.57,8.36-2.81.69-5.83,1.21-9,1.68l-10.36,1.48c-1.38-.44.12-0.84,0-1.92-1,0-2,0-3.06-.08s-2-.18-3-0.28l-0.36,0h-0.11l-0.15,0h0l-0.2,0-0.79-.14c-0.53-.09-1.06-0.22-1.59-0.33a30.9,30.9,0,0,1-3.2-.93,25.37,25.37,0,0,1-6.15-3.14,22.57,22.57,0,0,1-5-4.8,23.32,23.32,0,0,1-4.46-11,17.29,17.29,0,0,1,.46-7.51c-1.92-2.3-1.2-5-.3-7.57a26.92,26.92,0,0,0,1.19-3.91,10.34,10.34,0,0,0-.17-4.56c0.69-1.11,2-.08,3.06.28a11.67,11.67,0,0,1,1.63-4.43,8.85,8.85,0,0,1,2.22-2.43,10.58,10.58,0,0,1,.94-0.61,9,9,0,0,1,1.25-.54,7.3,7.3,0,0,1,3.52-.27,7.18,7.18,0,0,1,1.84.57,7.8,7.8,0,0,1,1.84,1.22l0.29,0.28,0.38,0.39v0l0,0,0.06,0.07,0.11,0.14a5.25,5.25,0,0,1,.63,1.06,1.16,1.16,0,0,1-.21,1.51,3.36,3.36,0,0,1,3.38,1.39,5.76,5.76,0,0,0,3.11,2.36c-2.1,0-1.62.67-.84,1.75a8.87,8.87,0,0,1,1.09,2.06,2.86,2.86,0,0,1-.22,2.42c0.05-.28.48,0.28,1.1,1.43a13.29,13.29,0,0,1,1.27,6,16.71,16.71,0,0,1-.23,2.14,17.72,17.72,0,0,1-.62,2.2,21.37,21.37,0,0,1-1,2.07c-0.38.61-.79,1.22-1.22,1.78a16.31,16.31,0,0,1-4.88,4.12,17.18,17.18,0,0,1-6.1,1.85c-2,.28-3.86.29-5.57,0.39-3.41.17-6.18,0.6-7.86,3.21a77.67,77.67,0,0,0-12.29-1.42c-4.09-.17-8.22-0.06-12.34.12-8.23.37-16.46,1.08-23.86,0.65,0.32-1.54-.73-1.68-0.71-2.91-1.6,1.44-5.55,1.2-9.7.69-2.07-.25-4.2-0.57-6-0.76-0.91-.09-1.77-0.15-2.42-0.14h-0.47l-0.35,0a0.53,0.53,0,0,0-.18,0l-0.06,0a3,3,0,0,0,.44-0.09,2.66,2.66,0,0,1,.5-0.11c0.22-.05.06,0.11,0.09,0.19a2,2,0,0,0,.12.67,1.87,1.87,0,0,1,.25.94l-2-4.9-1.38-3.37c-0.38-.91-0.58-1.54-0.58-1.54a4.65,4.65,0,0,0,.93.59,3.78,3.78,0,0,0,.9.41,7.94,7.94,0,0,0,2.33.32c1.83,0,4.24-.21,6.95-0.37,5.41-.32,11.92-0.35,16.92,2.81,1.82-2.26,1.4-.91,4.38-1.76a9.24,9.24,0,0,0-.94,1.89c4.45,0.59,9.17-.45,13.81-1.45s9.2-2,13.57-1.22c1.63,0.27,6.34,0,11.51-.22l7.79-.39c2.53-.1,4.87-0.15,7,0a14.88,14.88,0,0,0,3.77-3.93,5.86,5.86,0,0,0,.8-4.21,11.87,11.87,0,0,0-1.73-4.14,35.44,35.44,0,0,0-3-4.08c-0.53-.67-1.16-1.32-1.72-2l-0.91-1-0.45-.49-0.23-.24-0.06-.06,0,0v0c2.61-1.78.73-.52,1.31-0.93l0.05-.31a0.69,0.69,0,0,1,.07-0.27,0.47,0.47,0,0,0,.16-0.06,0.2,0.2,0,0,0,.12-0.13,0.35,0.35,0,0,0,0,.06,1,1,0,0,0,0,.31,2.17,2.17,0,0,0,.13.52,3.73,3.73,0,0,0,.28.66,4.48,4.48,0,0,0,.43.75c0,0.06,0,0,0,.05a7.14,7.14,0,0,0-1,1.21,22.53,22.53,0,0,0-2.1,4.17,34.37,34.37,0,0,0-1.47,4.75,29.14,29.14,0,0,0-.69,9.71,16.87,16.87,0,0,0,3.11,8.35,14.39,14.39,0,0,0,6.9,4.91,19.26,19.26,0,0,0,4.29.94l0.55,0.05,0.28,0h0l-0.15,0h0.28l1.29,0.05a11.37,11.37,0,0,0,2.23-.11c0.91,0.64-.2,3.73,1.31,3.88,1,0,1-.84.73-1.59s-1-1.44-1.42-1.3a38.63,38.63,0,0,0,6.68-.29A54,54,0,0,0,2774,3735a89.11,89.11,0,0,0,14.81-5.75c3.37-1.62,7.3-4,11-6.07s7.28-4,10.49-4.28a4.37,4.37,0,0,1,.88-3.13,10.68,10.68,0,0,1,2.48-2.54,9.36,9.36,0,0,1,2.64-1.43c0.75-.21,1.32-0.1,1.41.48-0.09-1.61,1.11-4.23,2.62-6.73s3.36-5,5.51-6.3a25.36,25.36,0,0,1-.35-6.07,19.73,19.73,0,0,0-.16-3.28,0.76,0.76,0,0,0-.29-0.22l-0.67-.28c-0.42-.25-0.91-0.35-0.86-0.81,0-.1.41-0.67,0.74-1.34a8.31,8.31,0,0,0,.41-1,0.92,0.92,0,0,0,.08-0.46c-0.87-.53-0.89,0-1,0.64a1.4,1.4,0,0,1-1.2,1.29,5.77,5.77,0,0,1-3.18-.41,21.74,21.74,0,0,0-4.37-1.17,10.36,10.36,0,0,0-5.18.55,6,6,0,0,0-3.57,3.88,4.18,4.18,0,0,0-5.61,2c-1.08,1.9-1.49,4.48-2.14,7.06l-5.26-2.34c1.69,1.08,1.55,1.68,1.37,2.28a1.36,1.36,0,0,0-.08.91h0l0-.09h0v0l0,0.06,0.08,0.13a1.63,1.63,0,0,0,.25.27,3.84,3.84,0,0,0,.91.55,0.65,0.65,0,0,0,.62-0.2,0.41,0.41,0,0,0,0-.23v-0.05h0l-0.05.17h0v-0.06l0-.13a1.55,1.55,0,0,1,.07-1.43,2.39,2.39,0,0,1,1.21,1.77,1.17,1.17,0,0,1,0,.2v0h0l0.07-.21h0v0l0,0.13a2.86,2.86,0,0,1-.2.53,4.21,4.21,0,0,1-.71,1,5.55,5.55,0,0,1-4.63,1.79,1.42,1.42,0,0,0,2.17,1.4,6,6,0,0,0-.85,1.82,5.68,5.68,0,0,0-.33,2.23,3.52,3.52,0,0,0,.63,1.94,2.82,2.82,0,0,0,1.89,1c-1,.34-1.27.73-1.21,1.1a2.61,2.61,0,0,0,.83,1c0.64,0.68,1.21,1.11-1.37,2.49a7,7,0,0,1,3.25,1.22,6.77,6.77,0,0,1,1.34,1,8.78,8.78,0,0,1,1.22,1.18,9.66,9.66,0,0,1,1.15,1.3,10.31,10.31,0,0,1,1.05,1.35,6.52,6.52,0,0,1,1.27,2.55,4.61,4.61,0,0,1,3.67-.26,11,11,0,0,0,1.79.47,6.72,6.72,0,0,0,2.44,0c-2.53.8-1.7,2,.58,3.19,0.25-.9-0.68-1-1.19-1.37,1.66-2.85,1.81-.3,3,0.84,2.16-2.47,6.28-1.56,11.3-.42s10.74,2.59,14.4,2.14c2.39,0.85.92,1.44,0.77,3.84a3.77,3.77,0,0,1,2.53-1,4.88,4.88,0,0,1-.81-2.88,38.22,38.22,0,0,1,11.35.78l1.53,0.28,0.78,0.15,0.39,0.07h-0.06l0.1,0,0.2,0,2.86,0.47a29.17,29.17,0,0,0,6.26.08,28.66,28.66,0,0,0,10-3.48,97,97,0,0,0,10.91-7c3.55-2.52,6.9-5.07,10.07-7s6.14-3.2,9.13-3.23c2.93-4.46,7.07-8.46,10.72-13.61a32.4,32.4,0,0,0,4.45-8.56,19.71,19.71,0,0,0,1-4.84,14.91,14.91,0,0,0-.41-4.89c1.49,0.51,2.1.51,2.22,0.09a3.34,3.34,0,0,0-.74-2c-1-1.7-2.59-3.31-1-4.55-3.05-.29-3.73-3.51-6.15-8a38.39,38.39,0,0,0-4.68-7,25.23,25.23,0,0,0-6.54-5.66,7.11,7.11,0,0,0-1.37-.61,8.37,8.37,0,0,0-1.37-.39,11.93,11.93,0,0,0-2.82-.24,24.29,24.29,0,0,0-4.88.76c-2.82.69-4.56,0.86-7-2.59a4.3,4.3,0,0,1-1.09,1.5,5.1,5.1,0,0,1-1.31.66,6.41,6.41,0,0,0-3.33,2.08c0.15-.83-0.08-1.22-0.57-1.28a3.14,3.14,0,0,0-2,.73,8.27,8.27,0,0,0-2.05,2,4.7,4.7,0,0,0-.93,2.31c-1.1.4-.49-0.69-1.22-1.48a16.67,16.67,0,0,0-2.82,4.34c-0.48.84-1.15,1.26-3.59,2.7-0.93-1.13.91-.6,1.45-1.9a1.91,1.91,0,0,0-2.78,1.21c-0.43,1-.7,2.1-2,2.33a1.34,1.34,0,0,1,1.1,1.49,6.17,6.17,0,0,1-.74,2.65c-1,1.86-2.48,3.83-4.27,4.06-0.17,1,1.43,1.24,2.45,1.73-3,2.83-3.63,9-2.47,14.53a49.52,49.52,0,0,0,2.37,7.72,47.86,47.86,0,0,1,2.25,6.93c0,0.35-1.3,2.81-1.12,3,0.56,0.65.83,0.13,1-.52a1.74,1.74,0,0,0-.07-1.35c2.09-.58,4.06,1.47,6.8,3.73a40.77,40.77,0,0,0,4.52,3.24c0.4,0.24.78,0.48,1.18,0.69l1.18,0.57c0.38,0.18.75,0.34,1.11,0.48s0.72,0.23,1.06.32a50.29,50.29,0,0,0,12.69,1.17c4.37,0,8.58-.18,12.15.39-0.51,1.92.06,2.38,0.83,2.58s1.73,0.09,2,1c1.74,0.1-.46-2.74-1.1-2.77-0.36-1.39,5.06-.38,2.69,1.64,3.35-2.5,4.9-2.28,9.81-2.52-0.35.94-.7,1.87,0.35,1.89,0.3,1.39-4.76,2.26-.5,2,0,1.23-2.33,1.69-2.54.45C2915.6,3723,2919.54,3722.63,2920.81,3722.86Zm-93.52,11.55c-2.12-1.14-4.06-1.39-5.92.34,0.69,1.25,2.82.95,4.41,0.42S2828.48,3733.92,2827.3,3734.42Z" transform="translate(-2655.06 -3629.34)"/><path class="cls-2" d="M2794.26,3706.33a1.47,1.47,0,0,0,.64-0.8A4.89,4.89,0,0,0,2794.26,3706.33Z" transform="translate(-2655.06 -3629.34)"/><g class="cls-3"><polygon class="cls-1" points="175.09 139.65 175.09 139.65 175.07 139.64 175.09 139.65"/><path class="cls-1" d="M2829.83,3771.18c0.59,0.42.92-.13,1-0.78a1.14,1.14,0,0,0-.67-1.41A6.57,6.57,0,0,1,2829.83,3771.18Z" transform="translate(-2655.06 -3629.34)"/><path class="cls-1" d="M2783.93,3699.31c1,0.92,2.53.05,3.72-.87s2-1.86,1.07-1.09C2786.67,3696.73,2784.86,3697.07,2783.93,3699.31Z" transform="translate(-2655.06 -3629.34)"/><path class="cls-2" d="M2872.18,3722.5c-2.74.09-4.22,0.53-5.37,0.57s-1.94-.48-3.38-2.18a39.78,39.78,0,0,1-4.14.82,25.2,25.2,0,0,1-4,.22,14,14,0,0,1-3.68-.56,9.41,9.41,0,0,1-3.19-1.56c-2.45,2-5,2.66-6.62,1.52-0.26,2.22-1.19,2.58-2.09,2.72s-1.66.17-1.27,1.55a4.32,4.32,0,0,0-2.51-1,4,4,0,0,0-2.31.59,7.25,7.25,0,0,0-1.93,1.65,13.63,13.63,0,0,0-1.45,2.2c-0.83,1.52-1.32,3-2,4s-1.48,1.33-3.07.81a17.49,17.49,0,0,1-5.76,13.61,2.52,2.52,0,0,1,2.14,1.47c0.28,0.79-.11,1.77-1.75,3,2.14,0.37,3.27,1.86,3.86,3.92a28.64,28.64,0,0,1,.61,7.9c0.76-.48,2.25.12,3.5,1.09a5.47,5.47,0,0,1,2.37,4.19h0a6.57,6.57,0,0,1-.32,2.19c0.59,0.42.92-.13,1-0.78a1.14,1.14,0,0,0-.67-1.41h0a23,23,0,0,1,4.65,1.75,5.29,5.29,0,0,1,2.56,3.82,4.85,4.85,0,0,1,3.73-1.77,6.29,6.29,0,0,1,4.13,1.16c-0.22-.88-0.21-1.42.1-1.59s0.92,0.1,2,.72c0.56-.45-0.29-1.81-0.68-2.88a9.21,9.21,0,0,1,1.27-.59l0.29-.08c0.1,0,.26-0.11.39-0.15s0.54-.2.8-0.28l0.76-.21h0.09l-0.18.11,0.08,0,0.16,0,0.32-.08,1.24-.29a7.45,7.45,0,0,0,2.42-1,8.17,8.17,0,0,0,2.14-2.63c0.08,1.62.4,2.13,0.94,2a2.1,2.1,0,0,0,.9-0.62c0.3-.34.61-0.77,0.93-1.21s0.64-.89.95-1.28a7.31,7.31,0,0,1,.79-1c0.51-.46,1-0.44,1.49.74,0.83-2,0-3.58-.08-4.47a0.89,0.89,0,0,1,.75-1,16.77,16.77,0,0,1,3.34-.56c-1.36-.42-1.84-0.94-1.83-1.52a4.62,4.62,0,0,1,.78-2.2,5.88,5.88,0,0,0,.55-1.46,7.39,7.39,0,0,0,.28-1.64,4.69,4.69,0,0,0-.47-1.67,3.5,3.5,0,0,0-1.33-1.46,1.49,1.49,0,0,0,1.8.1c0.44-.24.78-0.48,1.18,0.22,0.94-.7.13-1.23,0.33-3.39a2.89,2.89,0,0,0-1.4,2.86,23,23,0,0,0-1.45-3.48c-0.49-1.39-.91-2.71.46-3.48a3.56,3.56,0,0,1-2.59-.26,3,3,0,0,1-1.2-1.56,13.9,13.9,0,0,0-.88-2,2.93,2.93,0,0,0-1.52-1.48,56.56,56.56,0,0,0-4.53-9.75l-1.29-2.12-1.4-2a37.35,37.35,0,0,0-3-3.62,29.42,29.42,0,0,0-7.57-5.72,29.93,29.93,0,0,0-10.47-3.23,35.12,35.12,0,0,0-8-4.76c-0.71-.29-1.42-0.59-2.14-0.86l-2.18-.66a19.27,19.27,0,0,0-2.15-.48,14,14,0,0,0-2.19-.31l-1.13-.08-0.56,0H2810c-1.44,0-2.83.1-4.16,0.21a49.82,49.82,0,0,0-7.25,1.1c0.3-2.67-1.53-1.79-1.7-3.67,0.68,1.91-2.09,5.89-2.8.34-1.32,3.18-2.2-.33-5.72-0.07,1.62,2.54-.61,3.41-3.5,3.75a69.92,69.92,0,0,1-7.9.27c-0.72.43,0,1.86,0.33,3-7.74,1.82-11.52,5.09-13.22,8.78a12.18,12.18,0,0,0-1,6.17l0.27,1.78c0.13,0.61.32,1.26,0.49,1.91s0.48,1.35.72,2.06,0.63,1.37.94,2.08c-2-.46-2-0.07-1.29.81l1.5,1.76,0.39,0.49,0.09,0.13,0,0.06,0,0h0l0-.17h0l0.17,0.17a3,3,0,0,1,.51.68,9.62,9.62,0,0,0-3.79.91,54.81,54.81,0,0,1,7.94,5.58c2.46,2.07,4.84,4.57,7.79,7.46,0.74-.53.93-2.09,2-1.77-0.21,1.74.23,2,1.17,1.85a11.82,11.82,0,0,0,3.33-1.93,3.77,3.77,0,0,0,1.21-1.51,4.72,4.72,0,0,0,.29-0.87,6.76,6.76,0,0,0,.08-1v-0.52l-0.07-.58a8.29,8.29,0,0,0-.21-1.2,15.58,15.58,0,0,0-.8-2.49l-0.11-.29-0.05-.15-0.09-.21-0.35-.85-0.34-.85,0-.11h0l0.06,0.18h0v0l0,0-0.09-.17-0.17-.34c-0.42-.9-0.92-1.79-1.42-2.69-1-1.8-2.13-3.62-3.27-5.5-2.12-3.51-4.18-7.25-6.68-9.95s-5.33-4.34-8.59-3.45c1.11-1.37-.05-2.16-1.15-2.95s-2.11-1.64-.69-3.4c-4.37,1.34-7.69.13-11.57-1.33A38.74,38.74,0,0,0,2745,3703a14.19,14.19,0,0,0-6.94.29c-0.89-.39,0-0.84-0.05-1.92-0.67,0-1.33.18-2,.26s-1.24.26-1.88,0.39l-1.14.31-0.57.16-0.14,0h0l0.13,0h0l-0.06,0-0.24.09a18.34,18.34,0,0,0-1.87.75,14,14,0,0,0-5.56,4.4c-2.56,3.46-2.93,7.71-3.89,9.72,2,1.37,1.78,2.81,1.8,4.49s0.31,3.47,3,4c0.1,0.62-1.44,1.05-2.46,1.56,1.38,1.07,2.81,2.27,3.24,2.52a0.52,0.52,0,1,0-.06,0,3.62,3.62,0,0,0-3-.09c-0.5.25-.63,0.58-0.52,0.82a2.28,2.28,0,0,0-.54-0.1,2,2,0,0,0-.62.05,3,3,0,0,0-.69.25l-0.16.09c-0.05,0-.12.08-0.1,0l0-.12,0-.22v-0.08h0l-0.34.37h0v-0.09a2,2,0,0,1,0-.34,2,2,0,0,1,.38-1,2.15,2.15,0,0,0,.25-2.47c1.07,1.53,1.36,1.14,1.66.44s0.63-1.61,2.16-1.4c-0.17,0-.23-0.36-0.2-1a10.3,10.3,0,0,0-.09-2c-0.12-.6-0.48-0.77-0.58-0.37a0.64,0.64,0,0,0,0,.31,0.65,0.65,0,0,0,.05.3,0.72,0.72,0,0,0,.12.28,1.55,1.55,0,0,0-.68-1,7.71,7.71,0,0,0-2.37-1.6c-1.88-.82-4-0.79-5.35,1.59a19.91,19.91,0,0,0-8.73-1.81,43.06,43.06,0,0,0-9.4,1.16c-6.29,1.39-12.48,3.62-18.44,4.6-0.05-1.57-.92-1.51-1.15-2.72-1,1.7-4.18,2.25-7.8,2.43-1.81.09-3.73,0.09-5.62,0.07-0.95,0-1.88,0-2.88-.07l-0.74,0-0.82-.05c-0.23,0-.61-0.06-0.92-0.09l-0.47-.06h-0.06l-0.13,0-0.26-.06-0.52-.13c-0.82-.22-1.54-0.43-1.52-0.22a2.41,2.41,0,0,0-.42.53,2.27,2.27,0,0,1-.55.8l2.53-4.66,1.74-3.2c0.48-.88.74-1.49,0.74-1.49a1,1,0,0,0,.33,1.42,3.24,3.24,0,0,0,1.85.51,22,22,0,0,0,5.58-1c4.26-1.11,9.38-2.45,14-.28,1-2.55.93-1.15,3.14-2.52a10.37,10.37,0,0,0-.39,2c3.64-.23,7.18-2,10.8-3.66s7.33-3.05,11.07-2.49c1.38,0.22,5.34-.23,9.85.17a24.22,24.22,0,0,1,6.78,1.51,9.11,9.11,0,0,1,4.85,3.89,6.38,6.38,0,0,1,4.13,3.23,9.4,9.4,0,0,1,.67,5.67,19,19,0,0,1-1.61,5.07c-0.35.8-.77,1.52-1.17,2.27s-0.86,1.44-1.32,2.12l-0.7,1-0.36.51-0.41.46-0.19.18-0.29.24a5.78,5.78,0,0,1-.61.42,5.37,5.37,0,0,1-1.17.47,4.86,4.86,0,0,1-1.24.15,4.75,4.75,0,0,1-1.1-.12l-0.49-.13-0.39-.15a7.27,7.27,0,0,1-2.13-1.36,13.12,13.12,0,0,1-2.11-2.54,20.78,20.78,0,0,1-1.36-2.45,31.93,31.93,0,0,1-2.74-10,31.3,31.3,0,0,1,.48-10.26,23,23,0,0,1,4.53-9.59,24.25,24.25,0,0,1,8.33-6.41,34.7,34.7,0,0,1,4.7-1.87l1-.35c0.32-.12.82-0.23,1.22-0.35l1.28-.34,1.2-.28c1.16,0.5.41,3.65,1.77,3.71,0.89-.08.93-0.88,0.61-1.61s-1-1.42-1.51-1.22a58.26,58.26,0,0,1,28.17,6.13,50.18,50.18,0,0,1,10,6.23c3.08,2.58,5.42,5.67,5.8,8.63,2.07-.62,4.16,1.09,5.29,3s1.25,4,.12,3.94c1.53,0.11,3.69,1.89,5.15,4.48a11.58,11.58,0,0,1,1.42,4.22c0,0.37.06,0.73,0.07,1.08V3732l0,0.12h0v0.09l0,0.12,0,0.23a6.73,6.73,0,0,1-.59,1.72,6,6,0,0,1,1.76,2.61,14.21,14.21,0,0,1,.46,1.66,15.93,15.93,0,0,1,.14,1.76,10.5,10.5,0,0,1-1.09,4.66c-0.08.12,0.14,0.81,0,1.67a5.09,5.09,0,0,1-.34,1.34,2.59,2.59,0,0,1-.91,1.07,3.72,3.72,0,0,1-1.85-.19,12.31,12.31,0,0,0-1.56-.45c-0.9.79-.43,1,0.25,1.23s1.53,0.44.71,1.64a7.58,7.58,0,0,1-5.9,3,14.56,14.56,0,0,1-6.26-1.34c-1.9-.81-3.61-1.73-5.34-2.43a14,14,0,0,0-5.8-1.05,7.07,7.07,0,0,0-3.66-5.7c-1-.66-2.11-1.32-3.28-2.26a16.81,16.81,0,0,1-1.76-1.62,15.32,15.32,0,0,1-1.61-2.16l5.27-2.34c-1.94.56-2.26,0-2.52-.61l0-.11,0-.05v0h0l0-.09a1.57,1.57,0,0,0-.09-0.19,0.83,0.83,0,0,0-.3-0.32,2.5,2.5,0,0,0-1.64-.1c-0.64.35-.48,0.54-0.16,0.79l0.26,0.21,0.07,0.06,0,0,0,0h0l0,0.15h0l0.15,0.16a1.66,1.66,0,0,1,.4.87,2.74,2.74,0,0,1-1.34-.2,2,2,0,0,1-.49-0.31l-0.05,0,0,0h0l-0.06-.2h0l-0.08-.08-0.14-.17a2.22,2.22,0,0,1-.16-1.88,5.25,5.25,0,0,1,.46-1.09,5.85,5.85,0,0,1,.76-1.16,4.3,4.3,0,0,1,2.08-1.41,1.46,1.46,0,0,0-2.55-.43,20.45,20.45,0,0,0,.28-2.08,10.23,10.23,0,0,0,0-1.15,10.71,10.71,0,0,0-.05-1.16,5.59,5.59,0,0,0-.67-2.09,3.25,3.25,0,0,0-1.7-1.46c1-.24,1.34-0.61,1.4-1.07a4,4,0,0,0-.33-1.58c-0.39-1.11-.32-2.31,2.56-1.93a3.79,3.79,0,0,1-1-1.69,6.55,6.55,0,0,1-.16-2.2,10,10,0,0,1,2-4.72,11.5,11.5,0,0,1,3.77-3.22,5.54,5.54,0,0,1,3.25-.77,4.43,4.43,0,0,1,.68-2.17,4.69,4.69,0,0,1,1.36-1.36,18.72,18.72,0,0,0,3.79-3.09c-1.57,2.43.15,2.57,2.57,2-0.36-.86-1.16-0.32-1.82-0.27-0.59-3.22,1.39-1.54,2.94-1.18,0.37-3.35,5-4.85,9.95-5.2s10.28,0.21,13.46-.58c2.19,0.63.92,1.35,1,3.75a2.88,2.88,0,0,1,2.08-1.14,5.54,5.54,0,0,1-.9-2.82,22.87,22.87,0,0,1,9.82.42l1.29,0.29,0.65,0.15,0.16,0h0.4l0.08,0,0.32,0.09,2.69,0.79,3.34,1c1,0.4,2,.79,3.05,1.15,2.6,1.06,6,1.79,9.75,2.9a78.06,78.06,0,0,1,11.53,4.13c7.53,3.43,13.91,8.82,13.93,14.52,4.26,2.38,7.77,6.78,10.76,12.19a65.41,65.41,0,0,1,4,9c0.66,1.61,1.08,3.39,1.66,5.17q0.31,1.38.66,2.81l0.18,0.72,0.12,0.74,0.25,1.51c-1.48-.7-2.09-0.63-2.22-0.21a1.76,1.76,0,0,0,.1.93c0.13,0.39.3,0.86,0.42,1.37a12.06,12.06,0,0,1,.59,3.27,1.86,1.86,0,0,1-1.52,1.95c2.47,2,.28,7-3.93,10.77-0.52.47-1.06,0.94-1.61,1.41l-1.79,1.22-1.8,1.2c-0.61.37-1.26,0.69-1.87,1-1.24.67-2.41,1.4-3.61,2q-0.88.45-1.7,0.93l-0.8.48-0.38.25-0.09.06-0.17.1-0.19.11a24.92,24.92,0,0,0-2.24,1.61c-0.78.64-1.53,1.24-2.27,1.86s-1.51,1.19-2.27,1.76a17.81,17.81,0,0,1-2.38,1.4c-3.19,1.56-6.66,1.31-7.75-2.78a3,3,0,0,1-3.27.81c-0.55-.17-1.14-0.37-1.83-0.54a13,13,0,0,0-2.48-.44c0.81-.35.93-0.8,0.67-1.23a4.62,4.62,0,0,0-1.72-1.26,13.15,13.15,0,0,0-5.28-1.56c-0.63-1.1.62-.58,1.25-1.45-2.53-1.68-3.62-2.19-4.4-2.78s-1.23-1.41-1.71-4.15c1.39-.5.21,1,1.34,1.89,1-1.52.49-2.18-.2-2.86s-1.55-1.37-1-2.55c-1.07,1.16-2.64,0-3.51-1.87s-0.89-4.46.47-5.57c-0.4-.78-1.86-0.18-3,0a24.63,24.63,0,0,0,.07-7,55.29,55.29,0,0,1-.25-8.65,23.12,23.12,0,0,1,2.44-9,12.69,12.69,0,0,1,6-5.94c0.39-.17,3,1,3.13.83,0.56-.51.08-0.81-0.55-0.92a1.55,1.55,0,0,0-1.34.15c-0.41-1,0-2.16,1-3.32a12.69,12.69,0,0,1,1.85-1.64,18.9,18.9,0,0,1,2.43-1.44c3.53-1.79,7.75-2.55,10.25-3.41a74.4,74.4,0,0,1,11.69-3.36c4-.73,8-0.88,11.16,0-0.62,1.88-.15,2.37.48,2.63s1.45,0.32,1.55,1.25c1.43,0.34,0-2.77-.59-2.9-0.12-1.42,4.45.32,2.07,2,3.22-1.89,4.61-1.36,8.67-.29-0.55.81-1.08,1.62-.26,1.91-0.18,1.41-4.32,1-1,1.83-0.32,1.19-2.21,1-2.08-.21C2868.24,3721.35,2871.32,3722,2872.18,3722.5Zm-83.47-25.14c-2-.63-3.86-0.28-4.79,2,1,0.92,2.53.05,3.72-.87S2789.6,3696.59,2788.72,3697.35Z" transform="translate(-2655.06 -3629.34)"/><path class="cls-2" d="M2756.11,3729.12a1.67,1.67,0,0,0-.25,1.1A6.69,6.69,0,0,0,2756.11,3729.12Z" transform="translate(-2655.06 -3629.34)"/></g><circle class="cls-4" cx="2967.38" cy="3721.4" r="84.49" transform="translate(-4417.36 -441.11) rotate(-45)"/><path class="cls-4" d="M2906.38,3783.31c-0.56-.58-0.64-0.09-0.79-0.12C2906.64,3784.06,2906.43,3783.21,2906.38,3783.31Z" transform="translate(-2655.06 -3629.34)"/><polygon class="cls-4" points="262.03 161.79 261.73 161.79 263.57 162.56 262.03 161.79"/><path class="cls-4" d="M2927.54,3797.62c-0.67-1.2-4-2-5.69-3.45l-0.22-.33-1.15,0c1.17,0.66,2.51,1.41,3.8,2A27.68,27.68,0,0,1,2927.54,3797.62Z" transform="translate(-2655.06 -3629.34)"/><path class="cls-4" d="M2932.87,3801.83c-0.27-.42,1.42.36-1.39-0.7l0.23,0.18C2932,3801.41,2932.29,3801.56,2932.87,3801.83Z" transform="translate(-2655.06 -3629.34)"/><path class="cls-4" d="M2931.7,3801.31c-1.22-.51.7,0.56,0,0h0Z" transform="translate(-2655.06 -3629.34)"/><path class="cls-4" d="M2937.41,3803.45l-1.71-.38c0.28,0.28,1.72.86,1.14,0.77C2938.56,3804.34,2938.26,3804.06,2937.41,3803.45Z" transform="translate(-2655.06 -3629.34)"/><path class="cls-4" d="M2939.12,3803.51l-0.44-.09-0.44-.11A1.05,1.05,0,0,0,2939.12,3803.51Z" transform="translate(-2655.06 -3629.34)"/><path class="cls-4" d="M2936.39,3802.86l1.85,0.46c-0.2-.2-0.14-0.42-0.84-0.23C2937.62,3802.94,2937.2,3803,2936.39,3802.86Z" transform="translate(-2655.06 -3629.34)"/><path class="cls-4" d="M2935.42,3802.37c-0.86-.47-2-1.07-0.27-0.64C2932.09,3800.53,2932.32,3801.22,2935.42,3802.37Z" transform="translate(-2655.06 -3629.34)"/><path class="cls-4" d="M2928.44,3797.24l-0.52-.37c-0.26-.19-0.51-0.39-0.51-0.39l-1.07-.32a7.34,7.34,0,0,1,1.23.71A1.35,1.35,0,0,0,2928.44,3797.24Z" transform="translate(-2655.06 -3629.34)"/><path class="cls-4" d="M2947.68,3806.87a2.34,2.34,0,0,0-.56-0.74s-0.32,0-.64-0.06l-0.64-.08A6.76,6.76,0,0,1,2947.68,3806.87Z" transform="translate(-2655.06 -3629.34)"/><path class="cls-4" d="M2947.12,3806.14l1.92,0.15C2947.39,3805.9,2947.06,3805.95,2947.12,3806.14Z" transform="translate(-2655.06 -3629.34)"/><path class="cls-4" d="M2939.67,3802.86s-0.79-.09-1.56-0.25l-1.55-.29,1.84,0.4c0.45,0.11.92,0.17,1.27,0.23l0.58,0.1Z" transform="translate(-2655.06 -3629.34)"/><path class="cls-4" d="M2954.9,3808.25l-1.13.17,1-.1,1-.15Z" transform="translate(-2655.06 -3629.34)"/><path class="cls-4" d="M2959.76,3808.73c-0.83.23,1.07,0.57,0.2,0.69a17,17,0,0,0,3.51-.29A12.46,12.46,0,0,1,2959.76,3808.73Z" transform="translate(-2655.06 -3629.34)"/><path class="cls-4" d="M2965.19,3808.85c-0.54.06-1.1,0.17-1.72,0.29A10.51,10.51,0,0,0,2965.19,3808.85Z" transform="translate(-2655.06 -3629.34)"/><path class="cls-4" d="M2952.22,3807a2.76,2.76,0,0,0,1.41.68l-0.67-.55Z" transform="translate(-2655.06 -3629.34)"/><path class="cls-4" d="M2952.93,3807.1l0,0,1.6,0.29Z" transform="translate(-2655.06 -3629.34)"/><path class="cls-4" d="M2952,3807l0.19,0A0.14,0.14,0,0,0,2952,3807Z" transform="translate(-2655.06 -3629.34)"/><path class="cls-4" d="M2944.3,3804.68c1.14,0.06,3.43.41,1.37-.52C2944.83,3804.23,2946,3804.77,2944.3,3804.68Z" transform="translate(-2655.06 -3629.34)"/><path class="cls-4" d="M2951.21,3806.28s-0.49-.11-1-0.25l-1-.26c0,0.12.34,0.36-.23,0.36l1.09,0.09C2950.67,3806.26,2951.21,3806.28,2951.21,3806.28Z" transform="translate(-2655.06 -3629.34)"/><polygon class="cls-4" points="297.15 176.97 296.15 176.94 296.88 177.1 297.15 176.97"/><path class="cls-4" d="M2961.73,3808.29a28.8,28.8,0,0,1,2.92-.09l-3.48-.31C2961,3808,2960.48,3808.22,2961.73,3808.29Z" transform="translate(-2655.06 -3629.34)"/><path class="cls-4" d="M2957.44,3807.79h0.2C2957.52,3807.74,2957.43,3807.71,2957.44,3807.79Z" transform="translate(-2655.06 -3629.34)"/><path class="cls-4" d="M2975.28,3807.9l-0.18-.06,0,0.08h0.21Z" transform="translate(-2655.06 -3629.34)"/><path class="cls-4" d="M2961,3807.8a4.85,4.85,0,0,0-1.89,0c0.65,0,1.34,0,2.08.08C2961.25,3807.84,2961.26,3807.8,2961,3807.8Z" transform="translate(-2655.06 -3629.34)"/><path class="cls-4" d="M2968.18,3808.68l-1.51-.23A3.32,3.32,0,0,0,2968.18,3808.68Z" transform="translate(-2655.06 -3629.34)"/><path class="cls-4" d="M2957.92,3807.94h-0.13C2958.06,3808.07,2958,3808,2957.92,3807.94Z" transform="translate(-2655.06 -3629.34)"/><path class="cls-4" d="M2957.92,3807.94a8.49,8.49,0,0,0,1.17-.12c-0.53,0-1,0-1.45,0A1.54,1.54,0,0,1,2957.92,3807.94Z" transform="translate(-2655.06 -3629.34)"/><path class="cls-4" d="M2978.13,3804.82c-0.09.38-2.27,1.1-4.23,0.77-1.86.43-.56,1.64,1.2,2.25,0-.19,0-0.3,2-0.78-0.72-.08-4.42-0.12-2.79-0.6a7.65,7.65,0,0,1,3.43,0c-1.12-.35,3.2-1.12,2.51-1.79,0,0-.54.17-1.1,0.3l-1.11.26C2978,3805.12,2978.77,3804.85,2978.13,3804.82Z" transform="translate(-2655.06 -3629.34)"/><path class="cls-4" d="M2971.3,3808.06l-0.82.07a24.49,24.49,0,0,1,2.88.38c1.36-.29,1.63-0.46,1.71-0.6l-2,.12-1.39.08H2971Z" transform="translate(-2655.06 -3629.34)"/><path class="cls-4" d="M2966.79,3808.19c0.65-.39,2.6-0.66,1.4-1.09-2.38,0-1.67.34-3.11,0.51,3.88,0-1.12.21,1.68,0.52-0.77.06-1.46,0.06-2.11,0.06,0.7,0.07,1.38.15,2,.24l-0.09,0h0c-0.17-.06-0.22-0.09,0-0.06h0.08a0.45,0.45,0,0,1,.18-0.16c1.13,0.12.18,0.12-.18,0.16a0.28,0.28,0,0,0,0,.06h0s1,0,2-.13l1.95-.16C2969.65,3808.07,2968.62,3808.15,2966.79,3808.19Z" transform="translate(-2655.06 -3629.34)"/><path class="cls-4" d="M2947.87,3803.76c0.11,0.06.09,0.09,0.1,0.12C2948.22,3803.88,2948.32,3803.87,2947.87,3803.76Z" transform="translate(-2655.06 -3629.34)"/><path class="cls-4" d="M2949.35,3804.35a3.31,3.31,0,0,1-1.42-.12c-0.74-.29.05-0.2,0-0.35-0.56,0-1.93-.13-0.31.46h0.28a10.19,10.19,0,0,1,3,1.43A5.5,5.5,0,0,0,2949.35,3804.35Z" transform="translate(-2655.06 -3629.34)"/><path class="cls-4" d="M2958,3806.61l0.5,0c0.3,0,.7,0,1.1,0h1.61l-1.59-.49,0.06,0.23C2957.92,3806.17,2958.29,3806.46,2958,3806.61Z" transform="translate(-2655.06 -3629.34)"/><path class="cls-4" d="M2975.67,3808.09l-0.39.48s0.46-.18.91-0.41l0.9-.43Z" transform="translate(-2655.06 -3629.34)"/><path class="cls-4" d="M2979.87,3807.53l-0.1.41,0.54-.2,0.53-.21h-1Z" transform="translate(-2655.06 -3629.34)"/><path class="cls-4" d="M2987.76,3641.86l-0.9-.12A8.74,8.74,0,0,0,2987.76,3641.86Z" transform="translate(-2655.06 -3629.34)"/><path class="cls-4" d="M2994,3643.75l0.22-.14C2993.92,3643.62,2993.77,3643.66,2994,3643.75Z" transform="translate(-2655.06 -3629.34)"/><path class="cls-4" d="M3052,3741.34c0.66-1.27,1.56-2.7,1.08-2.62l-0.52.33A10.17,10.17,0,0,1,3052,3741.34Z" transform="translate(-2655.06 -3629.34)"/><path class="cls-4" d="M3037.64,3674.63l0.12,0.4,0.83,0.55C3038.3,3675.29,3038,3675,3037.64,3674.63Z" transform="translate(-2655.06 -3629.34)"/><path class="cls-4" d="M3035.61,3674.86l-0.77-1.59A14.2,14.2,0,0,0,3035.61,3674.86Z" transform="translate(-2655.06 -3629.34)"/><path class="cls-4" d="M2952.41,3641.14l-0.48.3-0.47.32C2953.07,3641.45,2952.32,3641.38,2952.41,3641.14Z" transform="translate(-2655.06 -3629.34)"/><path class="cls-4" d="M3019.43,3790.94a25.52,25.52,0,0,0,2.53-1.63C3020.66,3790,3019.52,3790.42,3019.43,3790.94Z" transform="translate(-2655.06 -3629.34)"/><path class="cls-4" d="M2991.53,3638.11a1,1,0,0,0-.86,0C2991.27,3638.23,2991.62,3638.24,2991.53,3638.11Z" transform="translate(-2655.06 -3629.34)"/><path class="cls-4" d="M3024.63,3787.06c-0.19.11-.36,0.22-0.55,0.34a18.44,18.44,0,0,1-2.11,1.91A7.74,7.74,0,0,0,3024.63,3787.06Z" transform="translate(-2655.06 -3629.34)"/><path class="cls-4" d="M2886.87,3737c0,0.1,0,.21,0,0.3S2886.92,3737.24,2886.87,3737Z" transform="translate(-2655.06 -3629.34)"/><path class="cls-4" d="M2898.71,3773.79c-0.26-.29-0.65-0.8-1-1.27A10.57,10.57,0,0,0,2898.71,3773.79Z" transform="translate(-2655.06 -3629.34)"/><path class="cls-4" d="M2996.46,3803.64c-0.84.32-.12,0.1,0,0h0Z" transform="translate(-2655.06 -3629.34)"/><path class="cls-4" d="M2991.81,3803.35a0.45,0.45,0,0,0,.27-0.31A0.6,0.6,0,0,1,2991.81,3803.35Z" transform="translate(-2655.06 -3629.34)"/><path class="cls-4" d="M3029.09,3779l0.05-.05C3028.9,3779.07,3028.94,3779,3029.09,3779Z" transform="translate(-2655.06 -3629.34)"/><path class="cls-4" d="M2995.11,3803.88c0.34-.05.72-0.13,1.14-0.23C2996.06,3803.68,2995.71,3803.74,2995.11,3803.88Z" transform="translate(-2655.06 -3629.34)"/><path class="cls-4" d="M2995.35,3804l-0.76.2C2994.5,3804.33,2994.61,3804.34,2995.35,3804Z" transform="translate(-2655.06 -3629.34)"/><path class="cls-4" d="M2997.63,3803.18c-0.48.19-.94,0.34-1.38,0.47,0.18,0,.25,0,0.21,0Z" transform="translate(-2655.06 -3629.34)"/><path class="cls-4" d="M2901.37,3670.83l-0.15.12C2900.84,3671.74,2901,3671.42,2901.37,3670.83Z" transform="translate(-2655.06 -3629.34)"/><path class="cls-4" d="M3049.79,3718.32l0,0.1v-0.13Z" transform="translate(-2655.06 -3629.34)"/><path class="cls-4" d="M3049.29,3715.29a4.67,4.67,0,0,1,.53,3l0.61-.53,0.6-.54Z" transform="translate(-2655.06 -3629.34)"/><path class="cls-4" d="M2972.3,3639.58l2.1,0.54c-2.61.45-4.41,0.12-2.47,0.79,0.18-.64,2.25-0.6,4.29-0.39,1,0.11,2,.21,2.85.21s1.37,0,1.5-.37l1.34,0.52c-0.39-.08-0.47,0-0.86-0.09,2.57,1.08,2.18-.61,5.62.32,1.18,0.39,2,.83,1.1.76l2.74,0.39c0.76,0.24.51,0.41-.25,0.18l0.64,0.16,1.38,0.41,2,0.59,0,0a20.51,20.51,0,0,1,2.7.27c0.93,0.56-.55-0.06-0.36.2l1.15,0.26,0.79,0.18,0.36,0.09c0.37,0.35.08,0.41-.49,0.31a10.21,10.21,0,0,1-2.17-.63,2.6,2.6,0,0,0,2,1.24,9.89,9.89,0,0,1,3.86,1.71l-0.32-.12-0.71-.24-1-.35A6.66,6.66,0,0,0,3002,3648a29.19,29.19,0,0,1,2.65,1.73c-0.38-.47-3.86-3.26-1.47-2.46a8.86,8.86,0,0,0,2.75,1.23c-0.21.43,1,1,2.46,1.76l-0.42.5a10.43,10.43,0,0,0,2.72.7c1.66,1.11,1.74,1.74,1.89,2.36,2.55,1.9-1.36-1.92,1.8.14,0.51,0.43,1,.81,1.49,1.15s0.94,0.71,1.44,1c1,0.67,2.11,1.29,3.43,2.21,1.27,1.39-.5.08-0.11,0.66l1.59,0.69c0.3,0.27.1,0.3,0,.32,1.17,0.79.52-.41,2.24,1,0.45,0,1.13.91,1.93,2.08a11.16,11.16,0,0,0,3,3.29c0.3,0.63-.5,0-0.55.34,2.82,2.48,2.39,2.14,4.83,4.15l0.64,1.17c0.31,0.59.59,1.19,0.59,1.19-0.71-1.86,1.15-.18,2.8,1.36-0.2-.7-0.38-1.3-0.53-1.69l1.15,1.35c0.57,0.68,1.1,1.4,1.1,1.4,0.14,0.42-.24.23-0.77-0.11l0.47,0.46c0.47,1.19-.2.83-1,0.27l-0.34-1.28c-0.82-.49-1.63-0.91-1.84-0.55a5.68,5.68,0,0,1,.79.83c-0.22-.12-0.37-0.19-0.37-0.07a3.28,3.28,0,0,0,.78.73l-0.18,1h0.34l1,2c0.26,0.5.46,1,.64,1.41l0.28,0.64c0.54,0.61,1.1,1.19,1.67,1.79s1.08,1.25,1.64,2a19.22,19.22,0,0,1,1.69,2.37,26.57,26.57,0,0,1,1.68,3.09c-0.94-1-.89.06-1.49,0.22a5.27,5.27,0,0,0-1-2.66c-0.56-1-1.31-2.09-1.84-3.3,0.55,1.27.15,1.12-.1,0.85l0.41,0.62c0.25,0.37.57,0.87,0.86,1.38l1.21,2c-0.51.1,0.06,1.06,0.28,2.29,0.3-.62.77,0.15,1.28,1.28s1,2.67,1.43,3.53c-0.28.21-.75-0.12-1.39-2.37,0.05,2.68,2.2,2.81,2.22,5.47a2,2,0,0,0-.41-1,11.4,11.4,0,0,1,.81,2.6c0.17,0.88.15,1.52-.07,1.18l-0.13-.56,1.45,7.13c0.45,2.45.93,4.5,1.37,4.75a3.55,3.55,0,0,1-1.26-.61s0.23,0.4.54,1l1.15,2.27c0.44,0.83.8,1.68,1.09,2.33l0.47,1.08c-0.74-.58-2.43,1.74-2.92-1.4a16.68,16.68,0,0,0,.08,3.91c0.13-.61,1.08-1.54,1.14-0.69a37.2,37.2,0,0,0-1.27,4.44c0.22-.91,1.29.17,1.15,1.65-0.15-.24-1.14,0-1.22-0.5l0.43,1.86c0.2,0.93.35,1.88,0.35,1.88-0.09-.93-0.93-0.26-1.34.5,0.13-.17,0,0.6-0.1,1.54s-0.39,2-.41,2.52l0.51-1.47c-0.84,4,.86,4.3-0.15,8.33-0.09-.55-1.07-1.53-1.74.43a16.4,16.4,0,0,1,.65,8.54l-0.56.55-0.33,1.41c-0.16.71-.38,1.39-0.38,1.39,0-1-.07-2.82,0-4.71s-0.07-3.88,0-5.23c-0.71,1.39-.5.29-1.17,2.48-0.54.67-.06-1.33,0.12-2l-0.91,2.48c-0.21.62-.48,1.23-0.67,1.68l-0.32.76c0.36,0,.16,1-0.06,2s-0.54,2-.24,2l0.26-.87c0.17-.52.36-1.22,0.52-1.94l0.69-2.82c0.36,0,.51.94,0.39,2.34a12.86,12.86,0,0,1-.42,2.37,18.12,18.12,0,0,1-1,2.61c-0.63.78-.8-1.16-1-1.17a7.48,7.48,0,0,1-.57,2,7.78,7.78,0,0,1-.86,1.72l0.39-1.6a8.62,8.62,0,0,0-1,2.65,6.36,6.36,0,0,1-1.53,2.74c-0.44.76-2.06,1.8-1.81,2.13,1.4-.79,3.61.15,3.58,1.28l-1.76,2a18.11,18.11,0,0,1-2.32,2.23c-1.33.85,0.08-2.62-1.06-1.89a2.59,2.59,0,0,1-.28,1.25c-0.66.67-.25-0.64-1.32,1,0.35,0.67-2.54,3.19-.11,1.1a27.28,27.28,0,0,1-2.82,3.38c0.81-.3-0.18,2.58-1.42,4.19,0-.2-0.52,0-0.75.06-0.72.73-1.36,1.36-2,1.95s-1.23,1.06-1.81,1.56l-1.77,1.51c-0.63.5-1.29,1-2,1.65-0.37.11-1.89,1.13-1.48,0.4a7.59,7.59,0,0,1-1.51,1.64c-2.14.91,2-1.66,0.2-1.17,0.12,0.38-2,2.31-3.26,3.42a3.44,3.44,0,0,0,2-1.14c0.83-.74,1.7-1.65,2.28-2.26,0.27,0.33,0,1.1-.78,2.16a15.27,15.27,0,0,1-1.45,1.75c-0.6.6-1.3,1.25-2.08,1.91-2.55,2-1.46.31-1.86,0.73a20.35,20.35,0,0,0-2.81,1.95,16.41,16.41,0,0,0-1.55,1.38,9,9,0,0,1-4.05,2.42c-2,.4-0.54-0.92-1.11-1.08a16.36,16.36,0,0,1,2.89-1.34,18.65,18.65,0,0,0,2.34-1l-2,.83a12.07,12.07,0,0,1,3-1.84,12,12,0,0,0-2.15.94l-1.6.84-1.86.9c-0.65.31-1.31,0.65-2,1l-2.05.85a28,28,0,0,1-3.77,1.29c-0.7.45-2,1.13-1.26,1.1l1.34-.58c1.41-.07-2.37,1.53-0.57,1.07a31.22,31.22,0,0,1-2.86,1.47c-0.53.24-1.09,0.47-1.69,0.67a17.77,17.77,0,0,1-1.94.46l-0.66-.46a5.25,5.25,0,0,0,2.55-.51c-1.06.55-4.3,0.36-5.36,1.35h1c0.5,0,1,0,1,0-0.92.42-2,.85-3.08,1.29a12.45,12.45,0,0,1-3.57.87c1.23,0.4.55-.16,2.44,0.23-1.68-.53,6.27-1.35,3.64-1.71a6.94,6.94,0,0,0,2.61-.11,20,20,0,0,1,3-.38c-0.13-.17-0.92-0.11,1.11-0.66a2.62,2.62,0,0,1,.38-0.31l0.14,0H2995c0.08-.06.08-0.07,0,0a3.4,3.4,0,0,1-1.11,0,11.64,11.64,0,0,1,2.44-1.26c1-.47,2-0.91,2.49-1.22,1.19-.35-0.4.4,0.31,0.36l0.72-.46,0.7-.5c0.32,0.35,3.32-.63.73,0.78l2.44-1a17.25,17.25,0,0,0,4.58-2.08c1.14-.53,2.52-2,1.74-1.14l1.74-1.14,1.69-1.22,0.09,0.07a52.44,52.44,0,0,0,5.1-3.74,46.25,46.25,0,0,1,5.47-4c0.48-.49,1-1,1.57-1.55s1.24-1.23,2.12-2l0.6,0c0.61-.64,1.58-1.55,2.46-2.38a6.58,6.58,0,0,0,1.74-2,5.87,5.87,0,0,0,1.8-1.36,18.73,18.73,0,0,0,2.08-2.47c0.68-.94,1.4-1.89,2-2.82s1.17-1.76,1.65-2.38l-0.35-.38a26.28,26.28,0,0,0,1.69-2.76l0.83-1.52c0.27-.54.52-1.11,0.81-1.72l-0.47-.08a28.44,28.44,0,0,1,2-3.72l1.29-2.21c0.41-.78.79-1.6,1.15-2.43a3.85,3.85,0,0,1-.7,1.67,13.84,13.84,0,0,0,1.62-2.91,32.54,32.54,0,0,0,1-3.22c0.31-1.07.51-2.17,0.8-3.19a19.17,19.17,0,0,1,1.06-2.89,6.76,6.76,0,0,1,.62-2.28,1.29,1.29,0,0,0,0,.24l0.11-.39a13.46,13.46,0,0,0,.55-1.26c-0.2.38-.36,0.74-0.49,1.06a27.14,27.14,0,0,0,.49-3l0.57-.37,0-.26c0.41-1,0-.91-0.52-0.41a7.66,7.66,0,0,0,0-1.5c0.89-.75.27-2.91,1.2-4a16.26,16.26,0,0,1,0-3.19c0-1.39-.12-2.76-0.52-3.07,0.11,0,.19-0.35.15,0.24a10.22,10.22,0,0,0,.1-3.57l0.62-.51-0.38-1.35-0.44-1.34c0.33-1.64.53-2.34,1-.71-0.39-2-.52-2.75-0.65-3.47a19.22,19.22,0,0,0-.72-3l0.41,0.12c-0.16-1.19-.91-3-0.67-3.77,0.17-1.37-.32-4.66-1.18-8.4s-2.21-7.89-3.18-11.22c-0.31.84-.46,0-0.68-0.95s-0.55-2.17-1-2.11c0.09-.48-0.15-1.43.52-0.5-0.8-1.58-1.35-2.78-1.82-3.88a8.06,8.06,0,0,0-1.93-2.89c0-.49.72,0.46,0.69,0.07a3.32,3.32,0,0,1-.79-1.27c0-.4.45,0.34,0.83,0.77a13.16,13.16,0,0,0-1.2-1.8,4,4,0,0,0-1-.84,1.72,1.72,0,0,0-1.42-.14,8.54,8.54,0,0,0-1-2,5.48,5.48,0,0,0-1.4-1.25c-0.14-.66-0.53-1.69.82,0.09l-0.93-1.45-0.69-1.05-0.8-1.07c-1.08-1.41-2.13-2.66-2.44-2.49a6.09,6.09,0,0,0-1.37-1.56c-0.89-1.08-1.38-1.67-1.9-2.21s-1-1.1-2-2.07l0.45,0.63c-1.28-.26-1.73-1.49-3.4-2.95h0.1a16,16,0,0,0-1.77-1.86,7.19,7.19,0,0,0-.84-0.66,6.26,6.26,0,0,1-.82-0.66l-1.81-1.78-0.08.54c-0.5.26-1.28-.53-2.25-1.58a15.5,15.5,0,0,0-3.55-2.91l0.71,0.82a7,7,0,0,1-2.21-2.13,11.25,11.25,0,0,0-2.12-2.39c-0.27-.25.56,0.14,1,0.34-3.39-2.62-.79.27-3.6-1.14-0.35-.57,1.08-0.42-0.78-1.46a18.28,18.28,0,0,0-3.61-1.37,19.8,19.8,0,0,1-4.84-2c0.5,0.47,1,.93-0.44.6-2.08-.73-5.37-3-7.56-2.71a0.51,0.51,0,0,1-.33-0.3c-0.86-.11-2.21-0.43-3.5-0.58a13,13,0,0,0-3-.17,3.28,3.28,0,0,0-2.17-1,20.61,20.61,0,0,0-3.55-.34c-1.23,0-2.39-.09-3.25-0.15s-1.4-.24-1.36-0.62c0,0-1.31-.09-2.62-0.13l-2.62,0,0.14-.15a15.6,15.6,0,0,0-3.67.17,10,10,0,0,0-2,.55c-0.77,0-.22-0.23-0.16-0.32a28.16,28.16,0,0,0-5,.28,23.12,23.12,0,0,0-4.3,1.26l-0.5-.42c-1,.39-7.14.54-11.58,2.58a0.82,0.82,0,0,1,.44-0.37c-2.5,1.08-5.66,1.84-8.33,2.78s-4.85,2-5.32,3.22c0,0-.76.47-1.47,1l-1.44,1.06c4.06-2.1-.21,1,1.57.36a10.5,10.5,0,0,1-2.48,1.1c-0.64.21-.88,0.12,0-0.48l0.35-.09c0.2-1.28-5,2.67-5.24,2.12a91.4,91.4,0,0,0-19.76,17.45l0.59-.16c0.29-.08.59-0.14,0.59-0.14s-0.13.13-.3,0.35l-0.63.79-0.92,1.15c-0.61.51-1.1,0.48,0.23-1.18a5.63,5.63,0,0,0-1.77,3.18c-2.61,3.23.23-1.82-.51-0.8l-0.95,1.46,0.29-.27c-0.28.66-.37,1.06-0.58,1.55a16.34,16.34,0,0,1-1.2,2.15c-1,1.29-.82.46-1.18,1a1.73,1.73,0,0,0-.53.82s-0.13.19-.31,0.5l-0.65,1.12-0.94,1.62,1.24-1c-0.57,1.58-1.71,3.05-.32,1.85-1,.87-2.7,3.93-4,7-0.67,1.54-1.18,3.11-1.66,4.34a25.39,25.39,0,0,1-.94,2.55c-0.08.58-.18,1.15-0.3,1.73s-0.22,1.16-.35,1.75c-0.27,1.18-.64,2.4-0.94,3.78,0.27-.66,1-0.91.4,1.42-0.54-.57-1,0.48-1.32,1.92a16.77,16.77,0,0,1-1.3,4.16c0.42-.84.25,0.9,0.13,2.51s-0.06,3.1.47,1.76c-0.25,2-.51.08-0.93,1.6,0.19,4.86-.59,10.73.36,16.72,0.19,0.07.33-1,.75,0.28l-0.08.51c-0.05.31-.1,0.71-0.14,1.12l-0.17,1.64c0.31,1.16,1.12.9,1,3.14,0.08-.33.2-0.82,0.43-0.06a61.06,61.06,0,0,0,5.29,17c2.51,5.49,5.48,10.71,8.34,16-0.65-1.53,0-.66.71,0.34-0.4-.71.36-0.24,0.46-0.51l0.39,0.68,0.87,1.49,0.87,1.5c0.24,0.41.42,0.67,0.42,0.67a7.59,7.59,0,0,1,2.28,2.11c0.84,1,1.74,1.84,2.13,1.82l-1.17-1.06c1,0.5.79-.3,0.48-1.29s-0.68-2.19-.22-2.39a4.59,4.59,0,0,1-1.41-1.37c-0.41-.6-0.78-1.33-1.19-2.08a13.25,13.25,0,0,0-3.27-4.31c-0.31-.78.66,0.4,0.59-0.08-0.9-.53-1.56-1.47-2.52-3.35l0.21,0.15a37.71,37.71,0,0,1-2-3.4,32,32,0,0,1-1.42-3c-0.44-1-.88-2-1.29-3.24s-0.95-2.49-1.44-4.07l-0.27.63a11.6,11.6,0,0,1-.54-2.35c-1.26-1.29,1.38,3.76.11,2.65a7.05,7.05,0,0,0-.45-2.4l-1-3.36a26.46,26.46,0,0,1-.83-3.29,3.75,3.75,0,0,1,0-2.1c-0.46-2.14-.4.75-0.86-1.39l0.17-.63-0.49-.46c-0.26-1.42,0-2.21.26-2.3a12.41,12.41,0,0,0,.32,1.32,15.89,15.89,0,0,0-.48-3.35,16.32,16.32,0,0,1-.41-2.44l0,1.05c0,0.53,0,1.05,0,1.05-1.18-5.88-1-13.19-1.05-19l-0.25.42a14.57,14.57,0,0,1,.09-2.5,15.47,15.47,0,0,1,.27-1.53c0.18-.93.46-1.89,0.78-4.3l0,0.18a12.41,12.41,0,0,1,.42-3.6c0,1.25,1-2.14.93-.5a22.43,22.43,0,0,0,.41-3.38,9.28,9.28,0,0,1-.1-2.29l0.58-.59a8.08,8.08,0,0,1,.59-3.63c-0.41,2,1.08-1.26.69,1a18.56,18.56,0,0,0,1.4-3.06c0.35-.92.62-1.73,0.85-2.47a6,6,0,0,1,1.95-3.4c0.06-1.28-.56-0.36-1.14.74s-1.06,2.37-.91,1.72c-0.37.44-.35-0.09-0.15-0.9a13.54,13.54,0,0,1,1.09-2.59,7.13,7.13,0,0,1,1.76-1.93,12.48,12.48,0,0,0,1.26-1.35c0.22-.28.45-0.59,0.69-0.95s0.52-.73.78-1.16c-0.22.34-.17,0.41-0.39,0.75a8.9,8.9,0,0,0,1.2-2,12.15,12.15,0,0,1,.6-1.07,6.26,6.26,0,0,1,.89-1c0.09-1.22,1.42-2,1-2.69l-2,3.2c0.52-.93.88-1.94,1.41-3.06a13.16,13.16,0,0,1,2.58-3.53,10.19,10.19,0,0,1-.87,1.92c0.82-.66,1.07-1.69,2-2.34,0.19,0.36-.48,1.28-1.31,2.39-0.42.55-.88,1.15-1.28,1.75a10.15,10.15,0,0,0-.92,1.78,9.14,9.14,0,0,0,1.35-2c0.42-.67.73-1.09,0.72-0.38a4.69,4.69,0,0,1,1.46-2.62,10.62,10.62,0,0,0,2.29-3.06l0.24,0.45a8.47,8.47,0,0,1,1.24-1.77l-0.55,1.47c1.16-2,3.25-2.81,4.62-4.44-1.61,1.53-1.89,1.61-2,1.43s0-.64-0.75-0.07c3.56-4.32,3.08-1.39,7.59-5.54-0.6.57-2.56,1.81-1.72,0.79a13.19,13.19,0,0,1,3-1.76c3.16-2.57-.79,0,0.4-1.3,1.44-.41,1.48-1.37,2.86-2.57l0.28,0.39a15.32,15.32,0,0,0,1.84-1.26,1.09,1.09,0,0,0,.39-0.62c0.08-.34.13-0.64,2-1.61l-1.17,1.52,0.88-.66,0.61-.45,0.29-.19-0.11.7a15.41,15.41,0,0,1,2.25-1.59,18.28,18.28,0,0,1,2.46-1.14c-0.64-.06-0.12-0.92,1.74-1.86,1.41-.34-0.54.72,2.13-0.52a3.3,3.3,0,0,1-2.33,1.32c0,0.2-.45.56-0.5,0.76a34.73,34.73,0,0,0,4.44-1.94,6.61,6.61,0,0,1-1.09.35l1.82-1.15,1.87-1.06c0.69-.07.24,0.26-0.2,0.58a24.73,24.73,0,0,1,2.45-1.23c-0.18.48,0,.81-1.58,1.61l0.56-.29c0.34-.17.79-0.41,1.25-0.6l1.85-.82c0.31,0.07,2.1-.17,1.65.12a19.63,19.63,0,0,0,3.73-1.26,17.38,17.38,0,0,1,4.34-1.12,3.45,3.45,0,0,1,1-.38c0.69-.09,1.36-0.16,2-0.22l2-.11c0.69,0,1.38-.13,2.11-0.23a19,19,0,0,0,2.31-.4l1,0.28c0.47,0.13.95,0.31,0.95,0.31,2.57-.22-2.58-0.83,1.73-1.19,3.06-.29,1.15.56,2.21,0.77a27.44,27.44,0,0,1,3-.53,11.27,11.27,0,0,1,4,.36C2973.89,3639.74,2973.17,3639.59,2972.3,3639.58Zm30.82,7.68c-0.3-.09-0.76-0.21-1.18-0.35a1.87,1.87,0,0,1-1-.51C3001.85,3646.17,3002.25,3646.64,3003.12,3647.26Zm36.29,31.93a4.41,4.41,0,0,1-1-1.76A7.82,7.82,0,0,1,3039.41,3679.19Zm-34,120.27,0.05-.05C3006.83,3798.94,3006.33,3799.1,3005.38,3799.47Zm-2.83,1.09c-0.25.18-.21,0.24-0.06,0.25a4.8,4.8,0,0,1,1.49-.76A2.56,2.56,0,0,0,3002.55,3800.56Zm-109.14-123.85,0.42-.43C2893.25,3677.47,2893.34,3677.09,2893.41,3676.71Z" transform="translate(-2655.06 -3629.34)"/><path class="cls-4" d="M3035.85,3674.85a0.46,0.46,0,0,1,.06-0.37C3035.71,3674.32,3035.63,3674.37,3035.85,3674.85Z" transform="translate(-2655.06 -3629.34)"/><path class="cls-4" d="M2952.59,3641h-0.1a0.22,0.22,0,0,0-.08.1Z" transform="translate(-2655.06 -3629.34)"/><path class="cls-4" d="M3034.94,3768.78a4.36,4.36,0,0,1,.86-0.8C3035.72,3767.89,3035.48,3768.06,3034.94,3768.78Z" transform="translate(-2655.06 -3629.34)"/><path class="cls-4" d="M2987.57,3806.47s0.47-.12.94-0.29l0.93-.31a5.69,5.69,0,0,1-1.74.28C2987.76,3806.26,2988.17,3806.33,2987.57,3806.47Z" transform="translate(-2655.06 -3629.34)"/><path class="cls-4" d="M2970.66,3805.77c-0.27.07-.59,0-0.86,0.09l0.08,0.22C2971.07,3806,2971.88,3805.84,2970.66,3805.77Z" transform="translate(-2655.06 -3629.34)"/><path class="cls-4" d="M2985.46,3805.29c-0.24-.38-1.37.07-2.68,0.34l0.23,0C2982.73,3806.23,2984.11,3805.8,2985.46,3805.29Z" transform="translate(-2655.06 -3629.34)"/><path class="cls-4" d="M2982.48,3805.7c-0.4.09-.82,0.17-1.22,0.22C2981.14,3806.17,2981.76,3805.88,2982.48,3805.7Z" transform="translate(-2655.06 -3629.34)"/><path class="cls-4" d="M2999.11,3802.29c-0.64.13-.19,0.63-0.59,0.6C2998,3803.64,3002.31,3800.76,2999.11,3802.29Z" transform="translate(-2655.06 -3629.34)"/><polygon class="cls-4" points="329.08 174.88 329.64 175.26 330.29 174.71 329.08 174.88"/><path class="cls-4" d="M2994.35,3801.86l-2.06.52a0.7,0.7,0,0,1-.49.34A11.49,11.49,0,0,0,2994.35,3801.86Z" transform="translate(-2655.06 -3629.34)"/><path class="cls-4" d="M2991.79,3802.72a10.72,10.72,0,0,0-1.63.54A15.09,15.09,0,0,0,2991.79,3802.72Z" transform="translate(-2655.06 -3629.34)"/><path class="cls-4" d="M2986.93,3803.45l0.63,0,1.45-.35-1,.21C2987.46,3803.38,2986.93,3803.45,2986.93,3803.45Z" transform="translate(-2655.06 -3629.34)"/><path class="cls-4" d="M3014.83,3791.88l1.82-1.44c0.09-.27-0.48,0-1.15.55C3015.11,3791.4,3014.44,3791.94,3014.83,3791.88Z" transform="translate(-2655.06 -3629.34)"/><path class="cls-4" d="M3008.18,3794.35a2.55,2.55,0,0,1,1.07-.16l-0.25-.57Z" transform="translate(-2655.06 -3629.34)"/><path class="cls-4" d="M3013.78,3790.76c0.09-.28,2.42-2.29.09-0.62C3013.78,3790.43,3012,3791.81,3013.78,3790.76Z" transform="translate(-2655.06 -3629.34)"/><polygon class="cls-4" points="383.26 137.47 382.95 137.97 383.85 138.46 383.26 137.47"/><path class="cls-4" d="M3047.43,3738.17c-0.81,2.53.49,0.76-.34,3,0.1,0.67.68-1.86,0.74-1.19C3047.92,3738.38,3048.24,3737.59,3047.43,3738.17Z" transform="translate(-2655.06 -3629.34)"/><path class="cls-4" d="M3047.82,3740c0,0.26,0,.54,0,0.84A5.31,5.31,0,0,0,3047.82,3740Z" transform="translate(-2655.06 -3629.34)"/><path class="cls-4" d="M2902.49,3779.25s0.25,0.39.53,0.74l0.55,0.73-0.55-1.08Z" transform="translate(-2655.06 -3629.34)"/><path class="cls-4" d="M2905.41,3781.26l-0.17.76,1.16,0.37A4.23,4.23,0,0,1,2905.41,3781.26Z" transform="translate(-2655.06 -3629.34)"/><path class="cls-4" d="M3006.71,3650.6l0.19-.07a3.15,3.15,0,0,0-1.17-.89Z" transform="translate(-2655.06 -3629.34)"/><polygon class="cls-4" points="330.47 12.64 330.85 12.74 330.26 12.01 330.47 12.64"/><path class="cls-4" d="M2966.37,3640.69c0.78,0,1.7-.12,2.49-0.07C2967.16,3640.66,2966.15,3640,2966.37,3640.69Z" transform="translate(-2655.06 -3629.34)"/><circle class="cls-4" cx="2967.03" cy="3721.41" r="84.49" transform="translate(-4446.31 196.52) rotate(-52.69)"/><path class="cls-5" d="M3020.66,3650c0.63,0.54.89-.3,1.09-0.34C3020.5,3648.94,3020.56,3650.15,3020.66,3650Z" transform="translate(-2655.06 -3629.34)"/><polygon class="cls-5" points="353.19 14.94 353.56 14.75 351.42 14.59 353.19 14.94"/><path class="cls-5" d="M2996.83,3639.15c0.59,1.77,4.32,1.38,6.15,2.83l0.2,0.45,1.4-.63c-1.29-.47-2.79-0.94-4.21-1.33A13.86,13.86,0,0,1,2996.83,3639.15Z" transform="translate(-2655.06 -3629.34)"/><path class="cls-5" d="M2991.29,3634.16c0.26,0.65-1.57.05,1.5,0.61a2.41,2.41,0,0,1-.24-0.21C2992.28,3634.49,2991.91,3634.38,2991.29,3634.16Z" transform="translate(-2655.06 -3629.34)"/><path class="cls-5" d="M2992.55,3634.55c1.33,0.33-.73-0.69,0,0h0Z" transform="translate(-2655.06 -3629.34)"/><path class="cls-5" d="M2986.37,3633.3l1.86-.08c-0.29-.4-1.85-0.84-1.21-0.94C2985.15,3632.13,2985.47,3632.54,2986.37,3633.3Z" transform="translate(-2655.06 -3629.34)"/><path class="cls-5" d="M2984.51,3634l0.47,0h0.47C2985.32,3633.77,2985.09,3633.66,2984.51,3634Z" transform="translate(-2655.06 -3629.34)"/><path class="cls-5" d="M2987.45,3633.95h-2c0.2,0.28.13,0.74,0.91,0C2986.11,3634.36,2986.57,3634.05,2987.45,3633.95Z" transform="translate(-2655.06 -3629.34)"/><path class="cls-5" d="M2988.48,3634.41c0.91,0.51,2.08,1.06.24,1.08,1.65,0.33,2.42.26,2.37,0S2990.17,3634.7,2988.48,3634.41Z" transform="translate(-2655.06 -3629.34)"/><path class="cls-5" d="M2995.73,3640.34l0.54,0.4c0.27,0.2.52,0.42,0.52,0.42l1.2,0a3.77,3.77,0,0,1-1.32-.57C2996.19,3640.3,2995.76,3640.12,2995.73,3640.34Z" transform="translate(-2655.06 -3629.34)"/><path class="cls-5" d="M2975.41,3630.86c-0.14.29,0.53,0.86,0.62,1.25,0,0,.34-0.07.67-0.11l0.67-.09C2976.73,3631.6,2975.46,3631.32,2975.41,3630.86Z" transform="translate(-2655.06 -3629.34)"/><path class="cls-5" d="M2976,3632.11l-2,.36C2975.77,3632.68,2976.11,3632.46,2976,3632.11Z" transform="translate(-2655.06 -3629.34)"/><path class="cls-5" d="M2983.89,3635.47s0.83-.14,1.66-0.22l1.67-.18-2,.12c-0.49,0-1,.08-1.35.12l-0.61.07Z" transform="translate(-2655.06 -3629.34)"/><path class="cls-5" d="M2967.8,3630.43l1.15-.67-1,.5-1,.54Z" transform="translate(-2655.06 -3629.34)"/><path class="cls-5" d="M2962.75,3630.66c0.81-.63-1.2-0.91-0.33-1.33a10.53,10.53,0,0,0-3.55,1.29A7,7,0,0,1,2962.75,3630.66Z" transform="translate(-2655.06 -3629.34)"/><path class="cls-5" d="M2957.18,3631.48a13.36,13.36,0,0,0,1.7-.85A6.48,6.48,0,0,0,2957.18,3631.48Z" transform="translate(-2655.06 -3629.34)"/><path class="cls-5" d="M2970.71,3632.13a2.14,2.14,0,0,0-1.52-.92l0.75,0.88Z" transform="translate(-2655.06 -3629.34)"/><path class="cls-5" d="M2970,3632.12l0,0-1.67-.1Z" transform="translate(-2655.06 -3629.34)"/><path class="cls-5" d="M2970.9,3632.14h-0.19C2970.78,3632.21,2970.82,3632.24,2970.9,3632.14Z" transform="translate(-2655.06 -3629.34)"/><path class="cls-5" d="M2979,3633.88c-1.2.32-3.57,0.53-1.41,1.55C2978.48,3635,2977.23,3634.38,2979,3633.88Z" transform="translate(-2655.06 -3629.34)"/><path class="cls-5" d="M2971.8,3633.23s0.51,0.07,1,.16l1,0.18c0-.23-0.37-0.59.21-0.78l-1.13.21C2972.36,3633.11,2971.8,3633.23,2971.8,3633.23Z" transform="translate(-2655.06 -3629.34)"/><polygon class="cls-5" points="315.72 4.13 316.74 3.9 315.98 3.8 315.72 4.13"/><path class="cls-5" d="M2960.83,3632a11.55,11.55,0,0,1-2.95.72c1.2,0,2.43,0,3.59,0C2961.62,3632.35,2962.11,3631.84,2960.83,3632Z" transform="translate(-2655.06 -3629.34)"/><path class="cls-5" d="M2965.27,3632l-0.2.05C2965.2,3632.11,2965.3,3632.13,2965.27,3632Z" transform="translate(-2655.06 -3629.34)"/><path class="cls-5" d="M2947.1,3634.43l0.21,0.12v-0.15Z" transform="translate(-2655.06 -3629.34)"/><path class="cls-5" d="M2961.68,3632.78a2.72,2.72,0,0,0,1.91-.43,18.16,18.16,0,0,1-2.12.28C2961.41,3632.76,2961.4,3632.84,2961.68,3632.78Z" transform="translate(-2655.06 -3629.34)"/><path class="cls-5" d="M2954.17,3632.25c0.49,0.1,1,.17,1.61.26C2955.28,3632.28,2954.3,3632,2954.17,3632.25Z" transform="translate(-2655.06 -3629.34)"/><path class="cls-5" d="M2964.77,3631.81l0.13,0C2964.6,3631.59,2964.64,3631.68,2964.77,3631.81Z" transform="translate(-2655.06 -3629.34)"/><path class="cls-5" d="M2964.77,3631.81a5.44,5.44,0,0,0-1.17.54,10.1,10.1,0,0,0,1.48-.31A1.34,1.34,0,0,1,2964.77,3631.81Z" transform="translate(-2655.06 -3629.34)"/><path class="cls-5" d="M2945.31,3640.54c-0.07-.77,1.92-2.14,4-1.66,1.73-1,0-3.28-2-4.34,0,0.36.07,0.63-1.78,1.6,0.79,0.19,4.58,0,3.08,1.05-2.48.94-2.16,0.23-3.52,0.13,1.29,0.67-2.86,2.24-1.88,3.51,0,0,.5-0.31,1-0.56l1-.53C2945.35,3639.95,2944.65,3640.5,2945.31,3640.54Z" transform="translate(-2655.06 -3629.34)"/><path class="cls-5" d="M2951.15,3633.84l0.82-.23a11.73,11.73,0,0,1-3.08-.51c-1.31.67-1.53,1-1.57,1.29l2-.37,1.41-.25,0.64-.09Z" transform="translate(-2655.06 -3629.34)"/><path class="cls-5" d="M2955.72,3633c-0.56.9-2.46,1.62-1.12,2.34,2.39-.4,1.59-0.92,3-1.47-3.91.65,1.08-.6-1.83-0.77a15.92,15.92,0,0,1,2.12-.46c-0.73,0-1.43-.08-2.11-0.16l0.1,0h0c0.19,0.09.25,0.15,0,.11l-0.08,0a0.84,0.84,0,0,1-.14.34c-1.18,0-.21-0.2.14-0.34a0.7,0.7,0,0,0,0-.13h0s-1,.22-2,0.51l-1.94.55A25.63,25.63,0,0,0,2955.72,3633Z" transform="translate(-2655.06 -3629.34)"/><path class="cls-5" d="M2975.36,3637a0.22,0.22,0,0,1-.1-0.21C2975,3636.92,2974.9,3637,2975.36,3637Z" transform="translate(-2655.06 -3629.34)"/><path class="cls-5" d="M2973.84,3636.4a1.91,1.91,0,0,1,1.45-.26c0.76,0.32,0,.41,0,0.7,0.56-.19,2-0.43.3-1l-0.28.09c-1.51-.42-3.46-1.66-3.19-1.75A6.49,6.49,0,0,0,2973.84,3636.4Z" transform="translate(-2655.06 -3629.34)"/><path class="cls-5" d="M2964.86,3634.47l-0.51.07c-0.3,0-.71.1-1.11,0.18l-1.61.31,1.68,0.64-0.1-.44C2965,3635.34,2964.64,3634.83,2964.86,3634.47Z" transform="translate(-2655.06 -3629.34)"/><path class="cls-5" d="M2946.63,3634.1l0.23-1s-0.41.4-.8,0.85l-0.79.87Z" transform="translate(-2655.06 -3629.34)"/><path class="cls-5" d="M2942.44,3635.29l-0.06-.8-0.49.39-0.49.4h1Z" transform="translate(-2655.06 -3629.34)"/><path class="cls-5" d="M2957.76,3800.61l0.89-.11A4.24,4.24,0,0,0,2957.76,3800.61Z" transform="translate(-2655.06 -3629.34)"/><path class="cls-5" d="M2951.49,3799.58l-0.23.35C2951.6,3799.78,2951.74,3799.64,2951.49,3799.58Z" transform="translate(-2655.06 -3629.34)"/><path class="cls-5" d="M2878,3712.75c-0.85,1.35-2.13,2.91-1.22,2.79l0.9-.38A5.45,5.45,0,0,1,2878,3712.75Z" transform="translate(-2655.06 -3629.34)"/><path class="cls-5" d="M2903.75,3777.1l-0.07-.46-1.21-.16C2902.86,3776.66,2903.27,3776.9,2903.75,3777.1Z" transform="translate(-2655.06 -3629.34)"/><path class="cls-5" d="M2907.06,3775.4l0.75,1.64A7.76,7.76,0,0,0,2907.06,3775.4Z" transform="translate(-2655.06 -3629.34)"/><path class="cls-5" d="M2991.73,3796.26l0.34-.57,0.33-.59C2990.93,3795.61,2991.71,3795.8,2991.73,3796.26Z" transform="translate(-2655.06 -3629.34)"/><path class="cls-5" d="M2904.48,3657.78a13.89,13.89,0,0,0-2.54,1.84C2903.35,3658.89,2904.71,3658.57,2904.48,3657.78Z" transform="translate(-2655.06 -3629.34)"/><path class="cls-5" d="M2953.93,3809.4c0.62-.08.89-0.22,0.9-0.41C2954.2,3809.05,2953.83,3809.17,2953.93,3809.4Z" transform="translate(-2655.06 -3629.34)"/><path class="cls-5" d="M2899.54,3662.27c0.21-.11.39-0.24,0.59-0.35a11.31,11.31,0,0,1,1.81-2.31A4.4,4.4,0,0,0,2899.54,3662.27Z" transform="translate(-2655.06 -3629.34)"/><path class="cls-5" d="M3042.39,3695.92c0-.1,0-0.21,0-0.3S3042.31,3695.75,3042.39,3695.92Z" transform="translate(-2655.06 -3629.34)"/><path class="cls-5" d="M3029.42,3659c0.32,0.24.79,0.7,1.23,1.12A5.55,5.55,0,0,0,3029.42,3659Z" transform="translate(-2655.06 -3629.34)"/><path class="cls-5" d="M2926,3641.38c0.8-.47.08-0.16,0,0h0Z" transform="translate(-2655.06 -3629.34)"/><path class="cls-5" d="M2931.45,3642.55a0.57,0.57,0,0,0-.15.54A0.73,0.73,0,0,1,2931.45,3642.55Z" transform="translate(-2655.06 -3629.34)"/><path class="cls-5" d="M2898.23,3672.64l0,0.06C2898.47,3672.59,2898.42,3672.6,2898.23,3672.64Z" transform="translate(-2655.06 -3629.34)"/><path class="cls-5" d="M2927.4,3641.12a7.56,7.56,0,0,0-1.18.28A8.94,8.94,0,0,0,2927.4,3641.12Z" transform="translate(-2655.06 -3629.34)"/><path class="cls-5" d="M2927,3640.83l0.77-.28C2927.86,3640.38,2927.72,3640.34,2927,3640.83Z" transform="translate(-2655.06 -3629.34)"/><path class="cls-5" d="M2924.85,3642a9.43,9.43,0,0,1,1.36-.63c-0.19,0-.28,0-0.25,0Z" transform="translate(-2655.06 -3629.34)"/><path class="cls-5" d="M3038.08,3762a2,2,0,0,1,.16-0.12C3038.36,3761,3038.22,3761.36,3038.08,3762Z" transform="translate(-2655.06 -3629.34)"/><path class="cls-5" d="M2887.77,3735.15s0-.05-0.06-0.09v0.13Z" transform="translate(-2655.06 -3629.34)"/><path class="cls-5" d="M2889,3737.95a2.62,2.62,0,0,1-1.27-2.75l-1.15.71-1.14.72,1.79,0.68Z" transform="translate(-2655.06 -3629.34)"/><path class="cls-5" d="M2972.93,3800.67l-2.1-.65c2.4-1.43,4.15-1.11,2.18-2.08,0,1.34-2,1.61-4,1.7a13.81,13.81,0,0,0-2.74.31,1.51,1.51,0,0,0-1.4,1.18l-1.34-.62c0.39,0,.46-0.12.84-0.08-2.57-1.37-2.06,1.88-5.51,1.23-1.18-.33-2-0.85-1.11-1.06l-2.74.32c-0.77-.16-0.5-0.59.26-0.44l-0.64-.05-1.39-.18-2-.25,0-.07a14.2,14.2,0,0,1-2.79.77c-0.94-.62.58-0.16,0.39-0.55l-1.19.06-0.82,0h-0.37c-0.36-.47,0-0.73.55-0.83a5.07,5.07,0,0,1,2.22.16c-0.72-1.56-1.2-1.49-2-1.36a4.89,4.89,0,0,1-3.92-1.15l0.33,0.05,0.73,0.08,1.06,0.12a3.9,3.9,0,0,0-1.85-1.78,14.15,14.15,0,0,1-2.61-1.67c0.31,0.63,3.7,3.8,1.2,3.67a4.22,4.22,0,0,0-2.85-.71c0.32-.91-1-1.16-2.47-1.69l0.59-1.14c-1.74-.28-1.85.31-3,0.44a2.76,2.76,0,0,1-1.68-2.93c-2.63-1.58,1.19,2.4-2.17.94a10.37,10.37,0,0,0-1.54-1,11.81,11.81,0,0,0-1.55-.76c-1.09-.44-2.33-0.75-3.83-1.31-1.29-1.36.69-.48,0.34-1.15l-1.91,0c-0.32-.24,0-0.43.11-0.52-1.35-.44-0.81,1-2.78,0-0.64.39-1.28-.66-2.06-1.89s-1.75-2.59-3.27-2.87c-0.25-.71.75-0.38,0.92-0.89a39.71,39.71,0,0,0-6-2.58l-0.62-1.2c-0.3-.6-0.58-1.23-0.58-1.23,0.59,2.06-1.86,1.07-4.06.06a16.55,16.55,0,0,0,.36,2l-1.46-1.08c-0.72-.55-1.41-1.13-1.41-1.13-0.11-.47.45-0.47,1.23-0.37-0.23-.12-0.46-0.22-0.65-0.3-0.44-1.28.55-1.23,1.66-1l0.2,1.48c1.17,0.12,2.34.13,2.78-.51a3.08,3.08,0,0,1-1-.59c0.31,0,.54,0,0.57-0.16a1.76,1.76,0,0,0-1-.45l0.59-1.52-0.55.22-1.06-2c-0.27-.48-0.49-1-0.68-1.38l-0.3-.63c-0.75-.41-1.53-0.77-2.33-1.16s-1.56-.84-2.37-1.34a14.23,14.23,0,0,1-2.42-1.82,16.47,16.47,0,0,1-2.37-2.65c1.52,0.62,1.62-.6,2.73-1.15-0.25.93,0.41,1.69,1.21,2.52a14.23,14.23,0,0,1,2.46,2.82c-0.64-1.2,0-1.27.38-1.11l-0.56-.49c-0.34-.29-0.78-0.69-1.19-1.11l-1.71-1.67c0.92-.42.14-1.22,0-2.48-0.66.88-1.36,0.29-2.08-.71s-1.36-2.44-2.06-3.16c0.56-.39,1.38-0.27,2.22,1.86,0.13-1.47-.74-1.94-1.66-2.42s-1.82-1-1.72-2.39c0.23,0.52.26,0.84,0.66,0.91a5.63,5.63,0,0,1-1.23-2.38c-0.23-.86-0.16-1.54.23-1.28l0.2,0.52c-0.26-.9-0.64-2-1.08-3.17s-0.84-2.42-1.32-3.55c-0.88-2.28-1.86-4.17-2.73-4.26a10.36,10.36,0,0,1,2.5.15s-0.46-.31-1.1-0.81-1.52-1.17-2.4-1.86-1.72-1.43-2.35-2l-1.06-.94c1.54,0.35,4.62-2.39,5.92.52a7.33,7.33,0,0,0-.62-3.77c-0.15.61-1.92,1.78-2.15,1,1.38-2.48.65-1.71,1.79-4.61-0.26.93-2.6,0.11-2.62-1.37,0.36,0.21,2.25-.25,2.52.25l-1.24-1.72c-0.6-.87-1.16-1.77-1.16-1.77,0.42,0.9,1.91.11,2.53-.69-0.22.19-.22-0.58-0.2-1.51a15,15,0,0,0,.06-2.49l-0.57,1.49c0.46-4-3-4.15-2.49-8.28,0.4,0.56,2.69,1.51,3.23-.46a24.61,24.61,0,0,1-2.87-3.35,10.41,10.41,0,0,1-2.08-5.57l0.8-.56,0-1.5c0-.75,0-1.5,0-1.5,0.56,1.09,1.51,3.1,2.38,5.1s1.86,4,2.33,5.41c0.77-1.39.84-.29,1.17-2.48,0.74-.65.71,1.35,0.63,2l0.65-2.47c0.15-.62.36-1.23,0.5-1.68l0.24-.76c-0.68,0-.79-1.07-0.87-2.11s0-2.07-.6-2.13l0,0.91c0,0.54,0,1.27,0,2l0,2.89c-0.68,0-1.43-1-1.87-2.47a8.26,8.26,0,0,1-.36-2.49,9,9,0,0,1,.49-2.73c0.77-.77,2.1,1.38,2.55,1.41a4.4,4.4,0,0,1,0-2.06,3.78,3.78,0,0,1,.62-1.77l0.18,1.71a4.38,4.38,0,0,0,.37-2.78,3.27,3.27,0,0,1,1.15-2.85c0.37-.79,2.57-1.66,1.91-2.1-2,.62-6.48-0.91-7.12-2.29,0.11-.13.95-1.09,1.89-2.07a12.83,12.83,0,0,1,2.62-2.24c1.73-.73,1.56,3.24,3,2.6a2.22,2.22,0,0,1-.33-1.47c0.69-.66.84,0.86,1.59-1-1-.94,2.11-3.41-0.54-1.36,0.66-1.86,1.23-1.67,2.41-3.61-1.13.17-1.44-3.37-.57-5.26a1.3,1.3,0,0,0,1.14.13c0.62-.81,1.2-1.5,1.75-2.14s1.14-1.16,1.68-1.7l1.64-1.65c0.58-.56,1.17-1.16,1.8-1.86,0.47,0,2-1.11,1.89-.14a4.3,4.3,0,0,1,1-2.07c2.4-.76-1.67,2,0.54,1.73-0.46-.64,1.25-2.91,2.17-4.34-0.59-.27-1.37.31-2,1.21a22.48,22.48,0,0,0-1.67,2.79c-0.62-.58-0.74-1.68-0.4-3.09a10.56,10.56,0,0,1,.85-2.3,18.91,18.91,0,0,1,1.57-2.47c2.16-2.49,1.78-.1,2-0.66a10.57,10.57,0,0,0,2.46-2.45,10.29,10.29,0,0,0,1.1-1.95,5.31,5.31,0,0,1,3.62-3.2c2.27-.24,1.25,1.74,2.06,2.13a8,8,0,0,1-2.74,1.64,9.73,9.73,0,0,0-2.33,1.17l2-.9a6.22,6.22,0,0,1-2.61,2.35,6.38,6.38,0,0,0,2.14-1c0.46-.29,1-0.64,1.49-1l1.73-1.12c0.6-.39,1.21-0.81,1.85-1.2l1.93-1.09a18.75,18.75,0,0,1,3.65-1.6c0.54-.7,1.61-1.7.83-1.77l-1.21.83c-1.6-.12,1.88-2.38,0-1.85a23.54,23.54,0,0,1,2.47-2.28,10.83,10.83,0,0,1,1.56-1,9.24,9.24,0,0,1,1.92-.67l1,0.93c-0.19-.31-2,0-2.56.69,0.43-.48,1.59-0.52,2.7-0.68s2.17-.42,2.5-1.38l-1.08-.06c-0.54,0-1.08,0-1.08,0,0.81-.69,1.73-1.49,2.74-2.25a7.55,7.55,0,0,1,3.44-1.56c-1.48-.8-0.51.3-2.71-0.49,2.06,1.11-6.22,2.2-3.18,3.05a4.46,4.46,0,0,0-2.85,0,9.72,9.72,0,0,1-3.21.38c0.24,0.33,1.11.32-.93,1.08a2.22,2.22,0,0,1-.27.53l-0.15,0h0.13c-0.06.09-.06,0.11,0,0a2.45,2.45,0,0,1,1.26.08,6.5,6.5,0,0,1-2.11,2,15.54,15.54,0,0,0-2.23,1.8c-1.2.43,0.24-.66-0.58-0.71l-0.58.72-0.55.75c-0.59-.7-3.67.47-1.35-1.54l-2.35,1.38a9.87,9.87,0,0,0-4.49,2.63c-1.16.62-2,2.75-1.54,1.51l-1.53,1.51-1.46,1.58-0.17-.15a37.88,37.88,0,0,0-4.52,4.68,20.12,20.12,0,0,1-5.24,4.59c-0.39.61-.77,1.22-1.27,1.9a15.84,15.84,0,0,1-1.91,2.28l-0.9-.12a24.24,24.24,0,0,1-2.26,2.72c-0.83.94-1.55,1.81-1.41,2.37a3.82,3.82,0,0,0-2,1.39,13,13,0,0,0-1.84,2.8c-0.55,1.07-1.11,2.18-1.57,3.23a18.9,18.9,0,0,1-1.36,2.67l0.85,0.56a18.12,18.12,0,0,0-1.28,3.09c-0.18.55-.36,1.11-0.54,1.71s-0.3,1.24-.46,1.91l0.89,0.18a12.25,12.25,0,0,1-1.54,4c-0.38.75-.79,1.54-1.18,2.36a17.82,17.82,0,0,0-.9,2.6c-0.26-.33.08-1.22,0.46-1.8a7.65,7.65,0,0,0-1.55,3.1,18.77,18.77,0,0,0-.36,3.47c-0.07,1.16,0,2.32-.11,3.41a8.54,8.54,0,0,1-.84,3.06,3.63,3.63,0,0,1-.32,2.41,0.71,0.71,0,0,0,0-.25,4,4,0,0,0-.06.41,12.14,12.14,0,0,0-.62,1.34,7.13,7.13,0,0,0,.59-1.12,16.6,16.6,0,0,0,.08,3.11l-1,.42c0,0.09,0,.17,0,0.27-0.45,1.11.38,0.93,1.15,0.38a5.47,5.47,0,0,0,.51,1.53c-1.56.85,0.38,3-1.23,4.2,0.41,0.39.58,1.82,0.87,3.22s0.81,2.75,1.68,3c-0.22.05-.3,0.39-0.35-0.21a5.91,5.91,0,0,0,.42,3.6l-1.16.67,1,1.26,1,1.23c-0.48,1.74-.79,2.52-2,1a30.92,30.92,0,0,1,1.61,3.34,11.45,11.45,0,0,0,1.61,2.81l-0.81,0c0.34,1.18,1.84,2.77,1.4,3.65-0.34,1.5.58,4.76,1.94,8.43s3.28,7.67,4.42,11.09c0.7-1.17.84-.32,1.07,0.73s0.55,2.3,1.39,1.95c-0.26.64,0,1.65-1,.92a22.89,22.89,0,0,1,2.37,3.71,4.9,4.9,0,0,0,2.64,2.48c-0.19.67-1.11-.14-1.15,0.35a1.84,1.84,0,0,1,1,1.14c0,0.5-.69-0.15-1.23-0.47a7.24,7.24,0,0,0,1.61,1.57,3.08,3.08,0,0,0,1.42.48,4.08,4.08,0,0,0,2.3-.76,4.68,4.68,0,0,0,1.06,2,3.54,3.54,0,0,0,1.9.78c0,0.82.37,2-1.3,0.44l1.09,1.38,0.81,1c0.3,0.33.62,0.66,0.94,1,1.28,1.29,2.56,2.35,3.06,1.91a3.21,3.21,0,0,0,1.61,1.36c1,1,1.58,1.52,2.18,2s1.18,1,2.31,1.8l-0.47-.65c1.79-.51,2,1.12,4,2.29l-0.14.09a11,11,0,0,0,1.91,1.8,3.76,3.76,0,0,0,1,.51,3.26,3.26,0,0,1,.93.52c0.41,0.33,1,.84,1.94,1.75l0.25-1c0.73-.77,1.52,0,2.53,1.16s2.31,2.42,3.8,2.74l-0.7-1c0.86,0.07,1.57,1.14,2.26,2.36s1.37,2.58,2.1,3c0.27,0.29-.65.07-1.16,0,3.6,2.75,1-.95,4.1,0,0.32,0.84-1.34,1.36.69,2.23,0.43,0.43,2.13.43,4,.56A9.71,9.71,0,0,1,2946,3808c-0.52-.66-1-1.3.53-1.35,1.13,0.14,2.5,1,3.94,1.58s2.9,1,4,.29a0.59,0.59,0,0,1,.35.46c0.9-.11,2.32-0.06,3.66-0.19a7.51,7.51,0,0,0,3.13-.72,2.39,2.39,0,0,0,2.29,1.29,13.4,13.4,0,0,0,3.63-.32,24.39,24.39,0,0,1,3.29-.5c0.87,0,1.45.19,1.49,1,0,0,1.34-.11,2.67-0.27l2.65-.38-0.1.32a9.52,9.52,0,0,0,3.68-.81,6.92,6.92,0,0,0,1.88-1.31c0.81,0,.3.44,0.26,0.61a17.64,17.64,0,0,0,5.08-.84,15.47,15.47,0,0,0,4-2.48l0.7,0.82c0.46-.44,2.29-0.58,4.53-1.1,0.56-.12,1.15-0.26,1.75-0.42s1.19-.39,1.79-0.63a12,12,0,0,0,3.35-1.86,0.81,0.81,0,0,1-.3.64c2.26-1.69,5.5-2.59,8.19-3.76s4.79-2.51,4.6-4.55c0,0,.64-0.67,1.22-1.41l1.18-1.44c-3.87,2.55-.39-1.67-2.26-1a5.56,5.56,0,0,1,2.46-1.23c0.71-.17,1.08,0,0.26.79l-0.39.07c0.54,2,4.88-3.1,5.59-2.1,3.44-3.08,6.73-6.24,9.82-9.53a68.65,68.65,0,0,0,8.17-10.52l-0.88.05-0.89,0s0.11-.15.26-0.39l0.54-.88,0.79-1.28c0.69-.51,1.53-0.36.39,1.49,1.3-.58,1.21-3.49.92-3.7,2.46-3.48.75,2.27,1.37,1.14l0.72-1.64-0.34.28c0.06-.78,0-1.26,0-1.84a7,7,0,0,1,.78-2.41c0.94-1.37,1.17-.4,1.49-1,0.09,0,.23-0.14.45-0.89,0,0,.11-0.21.25-0.55l0.52-1.21,0.76-1.77-1.64,1c0.1-1.77,1.34-3.3-.5-2.13,1.38-.84,2.74-4.14,3.62-7.44,0.47-1.64.75-3.3,1.07-4.61a11.94,11.94,0,0,1,.7-2.68,12.21,12.21,0,0,1-.16-1.82,16.6,16.6,0,0,1,0-1.82c0.07-1.23.29-2.5,0.43-3.93-0.3.69-1.62,1-1.27-1.43,1.28,0.55,1.72-.55,2-2s0.45-3.35,1.36-4.37c-0.63.91-.73-0.88-0.9-2.51s-0.53-3.13-1.34-1.68c0.09-2.06,1-.18,1.52-1.79a27.34,27.34,0,0,1-.69-3.85l-0.33-4.19c-0.06-.72-0.09-1.46-0.16-2.2l-0.29-2.23a24.53,24.53,0,0,0-1-4.47c-0.36,0-.63,1.13-1.46,0l0.14-.56c0.09-.34.19-0.78,0.27-1.23l0.36-1.81c-0.55-1.12-2.21-.45-1.82-2.92-0.17.39-.44,1-0.82,0.25-1.19-5.92-4.17-11.4-7.51-16.53s-7-10-10.09-15.56c0.63,1.7-.17.92-1,0,0.44,0.72-.64.59-0.87,1l-0.41-.7-0.92-1.55-0.93-1.56c-0.26-.43-0.45-0.69-0.45-0.69-0.8.17-1.83-.71-2.82-1.57s-2-1.61-2.6-1.3l1.39,0.83c-1.31-.09-1.24,1-1.09,2.29s0.37,2.76-.38,3.38a2.41,2.41,0,0,1,1.69,1,15.35,15.35,0,0,1,1.2,2.12c0.83,1.52,1.69,3.15,3.84,3.69,0.25,0.85-.93-0.1-1,0.52,1.25,0.11,2.09.9,3.13,2.72l-0.31-.05a26.14,26.14,0,0,1,2.34,3.06,23.82,23.82,0,0,1,1.66,2.85c0.5,1,1,1.94,1.5,3.09s1.11,2.36,1.73,3.86l0.6-.88a6.09,6.09,0,0,1,.53,2.37c2,0.75-1.79-3.48.29-3a4,4,0,0,0,.37,2.48c0.38,1,.86,2.08,1.36,3.17a16.68,16.68,0,0,1,1.14,3.13,2.52,2.52,0,0,1-.18,2.21c0.72,2,.81-1,1.53,1l-0.36.73,0.91,0.25c0.38,1.37-.17,2.29-0.62,2.48a6,6,0,0,0-.56-1.2,7.55,7.55,0,0,0,.81,3.18,9,9,0,0,1,.8,2.26l-0.08-1c0-.52-0.09-1-0.09-1a40.59,40.59,0,0,1,1.33,4.35c0.33,1.53.71,3.1,0.93,4.68l0.42,2.36c0.11,0.78.23,1.56,0.37,2.33,0.31,1.52.53,3,.93,4.41l0.42-.45a9.24,9.24,0,0,1,.38,2.44,7.57,7.57,0,0,1-.14,1.52,16.46,16.46,0,0,0-.3,4.28l-0.1-.18a7,7,0,0,1,.38,3.57c-0.43-1.24-1.2,2.16-1.65.54,0.21,2.36.26,3,.49,3.37a7.72,7.72,0,0,1,1.14,2.33l-0.86.59a4.93,4.93,0,0,1,.51,3.75c-0.18-2.06-1.45,1.25-1.78-1.07a9.13,9.13,0,0,0-1.19,3.1,17.21,17.21,0,0,0-.32,2.56c-0.08,1.55-.27,2.75-1.76,3.44,0.61,1.41,1.22.49,1.69-.64s0.7-2.46.75-1.77c0.47-.43.71,0.14,0.75,1a6.94,6.94,0,0,1-.56,2.74c-0.28.77-1.11,1.21-2.09,1.9a7.9,7.9,0,0,0-1.46,1.31,6.77,6.77,0,0,0-.68,1,8.24,8.24,0,0,0-.65,1.21c0.17-.36,0-0.44.21-0.8a4.29,4.29,0,0,0-.88,2.07,5.91,5.91,0,0,1-.39,1.14,3.24,3.24,0,0,1-.87,1c0.64,1.48-1.14,2.07.11,3.09l1.37-3.46a31.25,31.25,0,0,0-.45,3.44,6.92,6.92,0,0,1-2,3.85,6.45,6.45,0,0,1,.17-2.25c-0.92.63-.69,1.87-1.67,2.49-0.57-.54-0.08-1.54.56-2.73,0.32-.6.69-1.24,1-1.89a5.29,5.29,0,0,0,.41-2c-0.55.32-.74,1.39-1,2.13s-0.48,1.19-1,.29c0.55,1.22,0,2-.68,2.94a5.27,5.27,0,0,0-1.6,3.4l-0.69-.68a5.05,5.05,0,0,1-.73,2l-0.18-1.85c-0.42,2.36-3.14,2.84-4,4.75,1.34-1.68,1.71-1.71,2-1.43s0.4,0.88,1.22.34c-2.38,5.06-3.8,1-7.39,5.65,0.45-.67,2.43-1.87,1.93-0.63a8,8,0,0,1-3.05,1.7c-2.62,2.95,1.12.26,0.35,1.87-1.75.16-1.08,1.69-2.13,3.18l-0.66-.71a5.71,5.71,0,0,0-1.6,1.47,1.11,1.11,0,0,0-.09.9c0.13,0.53.27,1-1.56,2.06l0.5-2.16-0.71.82-0.49.56-0.23.24-0.33-1.13a7.79,7.79,0,0,1-1.78,2.05,11.91,11.91,0,0,1-2.3,1.3c0.82,0.26.75,1.61-.94,2.78-1.48.27,0.17-1.16-2.21,0.45,0.24-.87.45-1.82,2-1.78-0.07-.33.19-0.86,0.13-1.19-1.55.3-3.18,1.83-4,2.38a3.25,3.25,0,0,1,1.06-.38l-1.43,1.64-1.5,1.57c-0.75,0-.42-0.51-0.11-1a15.75,15.75,0,0,1-2.05,1.79c-0.07-.84-0.48-1.51.85-2.66l-0.47.41c-0.28.25-.65,0.58-1,0.87l-1.57,1.23c-0.38-.19-2.19,0-1.85-0.48a9.13,9.13,0,0,0-3.29,1.93,8.9,8.9,0,0,1-3.94,1.83,2,2,0,0,1-.88.7c-0.66.16-1.31,0.26-2,.36s-1.31.13-2,.24a12.57,12.57,0,0,0-2,.48,9.36,9.36,0,0,0-2.11.92l-1-.5c-0.5-.24-1-0.53-1-0.53-2.41.7,2.74,1.36-1.31,2.54-2.89.91-1.27-1-2.34-1.26a15,15,0,0,1-2.75,1.51,5.67,5.67,0,0,1-3.86.07A12.79,12.79,0,0,1,2972.93,3800.67Zm-30.71-3.08c0.32,0,.81-0.05,1.25,0a1,1,0,0,1,1,.44C2943.47,3798.89,2943.09,3798.24,2942.22,3797.59Zm-40.11-25.34a2.19,2.19,0,0,1,1.1,1.66A4.1,4.1,0,0,1,2902.12,3772.25Zm15.52-125.05,0,0.08C2916.15,3647.8,2916.67,3647.63,2917.64,3647.2Zm2.84-1.32c0.2-.28.11-0.38-0.08-0.43a2.59,2.59,0,0,1-1.36,1.05A1.47,1.47,0,0,0,2920.48,3645.87Zm127.62,110.7-0.48.45C3047.92,3755.68,3048,3756.12,3048.1,3756.57Z" transform="translate(-2655.06 -3629.34)"/><path class="cls-5" d="M2906.67,3775.59a0.92,0.92,0,0,1-.21.54C2906.74,3776.2,2906.88,3776.08,2906.67,3775.59Z" transform="translate(-2655.06 -3629.34)"/><path class="cls-5" d="M2991.61,3796.47l0.09,0a0.4,0.4,0,0,0,0-.19Z" transform="translate(-2655.06 -3629.34)"/><path class="cls-5" d="M2895.49,3684.41a2.64,2.64,0,0,1-1,.77C2894.74,3685.31,2895,3685.17,2895.49,3684.41Z" transform="translate(-2655.06 -3629.34)"/><path class="cls-5" d="M2934.59,3637.06s-0.46.22-.9,0.48l-0.88.51a3.51,3.51,0,0,1,1.8-.39C2934.48,3637.47,2934,3637.3,2934.59,3637.06Z" transform="translate(-2655.06 -3629.34)"/><path class="cls-5" d="M2952.5,3638.28c0.25-.16.58-0.1,0.83-0.27l-0.15-.43C2952,3637.8,2951.27,3638.29,2952.5,3638.28Z" transform="translate(-2655.06 -3629.34)"/><path class="cls-5" d="M2937.43,3639.44c0.43,0.73,1.45,0,2.71-.53a1.53,1.53,0,0,1-.23.07C2939.95,3637.78,2938.66,3638.57,2937.43,3639.44Z" transform="translate(-2655.06 -3629.34)"/><path class="cls-5" d="M2940.44,3638.79a6.85,6.85,0,0,1,1.19-.39C2941.65,3637.92,2941.12,3638.46,2940.44,3638.79Z" transform="translate(-2655.06 -3629.34)"/><path class="cls-5" d="M2923.61,3643.41c0.68-.13-0.13-1.11.36-1C2924.1,3641.15,2920.68,3645.64,2923.61,3643.41Z" transform="translate(-2655.06 -3629.34)"/><polygon class="cls-5" points="284.29 12.25 283.51 11.47 283.08 12.48 284.29 12.25"/><path class="cls-5" d="M2929.38,3645l2-.67c-0.1-.14.1-0.34,0.37-0.56C2930.6,3644.26,2929.2,3644.71,2929.38,3645Z" transform="translate(-2655.06 -3629.34)"/><path class="cls-5" d="M2931.79,3643.73a5.06,5.06,0,0,0,1.51-.83A8.89,8.89,0,0,0,2931.79,3643.73Z" transform="translate(-2655.06 -3629.34)"/><path class="cls-5" d="M2936.74,3642.86l-0.66,0-1.4.51,1-.28C2936.21,3643,2936.74,3642.86,2936.74,3642.86Z" transform="translate(-2655.06 -3629.34)"/><path class="cls-5" d="M2910.27,3657.58l-1.52,1.79c0.06,0.41.67,0.14,1.21-.55C2910.21,3658.27,2910.76,3657.58,2910.27,3657.58Z" transform="translate(-2655.06 -3629.34)"/><path class="cls-5" d="M2917.39,3655.3a2.13,2.13,0,0,1-1.26,0l0.7,1Z" transform="translate(-2655.06 -3629.34)"/><path class="cls-5" d="M2912.47,3659.68c0.06,0.42-1.72,2.93.3,1C2912.7,3660.22,2914.2,3658.51,2912.47,3659.68Z" transform="translate(-2655.06 -3629.34)"/><polygon class="cls-5" points="235.84 56.68 236.06 56.15 234.19 55.35 235.84 56.68"/><path class="cls-5" d="M2888.16,3715.7c0.7-2.51-1.21-.72-0.4-3-0.43-.66-0.67,1.86-1,1.2C2887.12,3715.53,2886.77,3716.32,2888.16,3715.7Z" transform="translate(-2655.06 -3629.34)"/><path class="cls-5" d="M2886.74,3713.92a7,7,0,0,0-.24-0.83A3,3,0,0,0,2886.74,3713.92Z" transform="translate(-2655.06 -3629.34)"/><path class="cls-5" d="M3025.19,3653.54s-0.27-.4-0.57-0.77L3024,3652l0.5,1.28Z" transform="translate(-2655.06 -3629.34)"/><path class="cls-5" d="M3021.49,3652.47l0.46-1.29-1.58.24A2.27,2.27,0,0,1,3021.49,3652.47Z" transform="translate(-2655.06 -3629.34)"/><path class="cls-5" d="M2938.82,3793.59l-0.23.25a1.7,1.7,0,0,0,1.15.9Z" transform="translate(-2655.06 -3629.34)"/><polygon class="cls-5" points="304.89 170.22 304.51 170.16 305.13 171.39 304.89 170.22"/><path class="cls-5" d="M2978.29,3797.54c-0.74.09-1.58,0.44-2.33,0.47C2977.54,3797.65,2978.7,3798.95,2978.29,3797.54Z" transform="translate(-2655.06 -3629.34)"/></svg>