<svg id="Layer_1" data-name="Layer 1" xmlns="http://www.w3.org/2000/svg" viewBox="0 0 616.32 182.01"><defs><style>.cls-1{fill:none;}.cls-2{fill:#eb008b;}.cls-3{fill:#f6921e;}.cls-4{opacity:0.8;}.cls-5{fill:#fff;}.cls-6{fill:#ee209a;}</style></defs><title>headeravatarbackground2</title><path class="cls-1" d="M4378,3657.68h0Z" transform="translate(-3977.68 -3629.62)"/><path class="cls-1" d="M4377.6,3655.6c-0.79-.53-1-0.07-0.83.54a2.21,2.21,0,0,0,1.28,1.55A5.44,5.44,0,0,1,4377.6,3655.6Z" transform="translate(-3977.68 -3629.62)"/><path class="cls-1" d="M4431.88,3739.44c-1.06-.64-3,0.13-4.54.88s-2.48,1.51-1.36.88C4428.4,3741.58,4430.56,3741.21,4431.88,3739.44Z" transform="translate(-3977.68 -3629.62)"/><path class="cls-2" d="M4332.22,3718c3.37,0.09,5.18-.14,6.6-0.13s2.45,0.47,4.31,1.78c1.68-.22,3.41-0.38,5.12-0.52s3.4-.19,5-0.16a30.71,30.71,0,0,1,4.61.34,14.33,14.33,0,0,1,3.9,1c3.14-1.7,6.39-2.44,8.25-1.77a3.42,3.42,0,0,1,2.88-2.44c1.1-.27,2-0.43,1.78-1.48a5.24,5.24,0,0,0,2.84.32,7.56,7.56,0,0,0,2.79-1,14.63,14.63,0,0,0,4.5-4.46c0.62-.83,1.07-1.75,1.56-2.52s0.87-1.54,1.25-2.18c0.82-1.24,1.63-2.06,3-2,0.44-3.4,1-6.46,1.58-9.5a55.77,55.77,0,0,1,2.55-8.9,2.22,2.22,0,0,1-1.88-1.6,4.69,4.69,0,0,1,.59-4c-1.69-.32-3-2.22-4.15-4.85s-2.27-6-3.4-9.5a1.41,1.41,0,0,1-1.42-.22,13.06,13.06,0,0,1-2.29-1.53,14.48,14.48,0,0,1-4.18-5h0a5.44,5.44,0,0,1-.45-2.08c-0.79-.53-1-0.07-0.83.54a2.21,2.21,0,0,0,1.28,1.55h0c-2.1-.91-4.37-1.85-6.29-2.83a14.1,14.1,0,0,1-2.56-1.64,6.14,6.14,0,0,1-1.74-2.11c-1,.82-3.09.9-5.17,0.83s-4.25-.23-5.58-0.94a1,1,0,0,1-.5,1.27,4.92,4.92,0,0,1-2.47-.43c-0.82.4-.15,1.44,0,2.27-0.74.3-1.41,0.58-2,.76a11.6,11.6,0,0,1-1.59.51c-0.53.15-1.17,0.4-1.7,0.56l-0.82.25-0.1,0h0l0.13-.08h0l0,0-0.19.06-0.37.13a12.72,12.72,0,0,0-3,1.39,13,13,0,0,0-3.21,3c1-3.23-.94-1.64-2.85.41-1,1-1.84,2.15-2.52,2.73s-1.12.67-1.18-.5a11.3,11.3,0,0,0-.77,1.6,9.81,9.81,0,0,0-.34,1.37c-0.17.81-.15,1.47-0.27,2a2,2,0,0,1-.94,1.27,5.87,5.87,0,0,1-1.17.51c-0.48.18-1.07,0.37-1.83,0.6,2,0.72,1,2.16,0,4.47a11.84,11.84,0,0,0-1,4,6,6,0,0,0,1.23,4.12c-0.58-.78-1-0.52-1.34-0.23s-0.6.56-.87-0.34a1.53,1.53,0,0,0-.33,1.41l0.12,1.12a13.1,13.1,0,0,1,.11,1.66c0.84-.76,1-2,0.89-3.46a29.43,29.43,0,0,0,1.37,4.55c0.62,1.8,1.11,3.5.17,4.21a2.59,2.59,0,0,1,2.19.73,7,7,0,0,1,1.34,2.09c0.76,1.66,1.59,3.66,3,4.58a69,69,0,0,0,7.08,11.43,61.88,61.88,0,0,0,8,8.73,49.07,49.07,0,0,0,9.65,6.73,50,50,0,0,0,12.66,4.63,49.46,49.46,0,0,0,21.38,7.33,102.51,102.51,0,0,0,19.54-1c-0.44,2,1.83,1.31,2,2.72-0.79-1.42,2.81-4.49,3.44-.34,1.77-2.45,2.69.18,7-.19-1.8-1.84,1-2.6,4.57-3.07,0.89-.13,1.84-0.22,2.79-0.31s1.88-.19,2.76-0.26c1.74-.19,3.26-0.29,4-0.36,0.92-.43.25-1.47,0.1-2.31a35.29,35.29,0,0,0,11.28-4.61,18.18,18.18,0,0,0,6-6.19,15.84,15.84,0,0,0,2-7.8l-0.12-2.31-0.4-2.49-0.71-2.7-1-2.8c0.83,0.41,1.21.5,1.31,0.32a1.77,1.77,0,0,0-.47-1.25l-1.43-2.26-0.1-.16,0-.08h0l0,0.13h0v0l0,0-0.19-.25-0.36-.5c-0.23-.33-0.4-0.66-0.6-1a4.23,4.23,0,0,0,2.92-.58c-2.85-2.47-5.91-5.15-9.42-7.78a97.15,97.15,0,0,0-11.55-7.5,3.76,3.76,0,0,0-1,.92,1.55,1.55,0,0,1-1.41.44c0.14-1.28-.46-1.59-1.66-1.31a13.18,13.18,0,0,0-4.59,2.23,6.59,6.59,0,0,0-2.73,5.14,13.84,13.84,0,0,0,.32,3.42,13,13,0,0,0,.46,1.75c0.21,0.59.3,1.05,0.62,1.81l0.41,1,0.2,0.52,0.05,0.13v0h0l0-.14,0,0.06,0.11,0.22c0.3,0.59.55,1.2,0.87,1.79l1,1.77,1.06,1.75c1.48,2.31,3.15,4.57,4.87,6.82a79.36,79.36,0,0,0,10,11.29c3.45,3,7,4.93,10.45,4.73-0.87,1,.67,1.89,2.11,2.77s2.84,1.74,1.65,3c4.65-.49,8.93,1,13.94,2.52a55.79,55.79,0,0,0,8,1.89,24.91,24.91,0,0,0,8.92-.28c1.17,0.23,0,.63.13,1.43,0.87-.06,1.68-0.21,2.51-0.35s1.78-.37,2.7-0.57a27.93,27.93,0,0,0,4.94-1.77,18.2,18.2,0,0,0,7.43-6.21,21.09,21.09,0,0,0,3-7.74c0.47-2.44.6-4.52,0.87-5.86-1.62-1.66-1.68-3.63-2-5.77s-1-4.34-3.4-5.14c-0.28-.74.85-1.15,1.53-1.68a16.33,16.33,0,0,0-2.19-1.68c-0.3-.18-0.58-0.27-0.57-0.17a0.26,0.26,0,0,0,.1.11,1.2,1.2,0,0,0,.31.15,2.51,2.51,0,0,0,.56.11,3,3,0,0,0,.76,0,2.58,2.58,0,0,0,.75-0.26,2.48,2.48,0,0,0,.46-0.28l0.2-.18,0.09-.09,0,0-0.13.12-0.06.06,0,0h0l0.27-.28h0l-0.21.22a5,5,0,0,1-.78.68,1,1,0,0,1-1.23.13,3.13,3.13,0,0,1-.51,2.89,3.05,3.05,0,0,0-.64,2.71c-0.75-1.33-1-.84-1.43,0a6.5,6.5,0,0,1-.65,1.33,1.88,1.88,0,0,1-1.26.85c0.13-.1.19,0.32,0.17,1a5.58,5.58,0,0,0,.43,2,3.21,3.21,0,0,0,1.15,1.13,19.88,19.88,0,0,0,1.9,1.11,37.2,37.2,0,0,0,7.28,3.44c2.72,0.83,5.37.94,7.14-.75,7,2.29,15.07,2.09,23,1.16s15.79-2.59,23.18-3.31c-0.1,1.18,1,1.14,1.11,2.05,1.39-1.28,5.33-1.68,9.71-1.79,2.19-.05,4.49,0,6.68,0,1.11,0,2.16.08,3.24,0.15,0.52,0,1.08.08,1.62,0.13,0.24,0,.6.08,0.88,0.11l0.43,0.06c0.23,0,.53.12,0.79,0.19a1.91,1.91,0,0,0,1.2.17,1.24,1.24,0,0,0,.37-0.38,1.13,1.13,0,0,1,.46-0.58l-1.93,3.48-1.33,2.39c-0.37.66-.58,1.11-0.58,1.11a0.94,0.94,0,0,0-.1-0.65,1.87,1.87,0,0,0-.64-0.53,5.77,5.77,0,0,0-2.27-.48,38.65,38.65,0,0,0-6.93.64c-5.33.8-11.75,1.81-17.14,0.15-1.5,1.91-1.26.87-4.1,1.88a6,6,0,0,0,.69-1.52c-4.48.15-9,1.48-13.58,2.64s-9.2,2.14-13.71,1.58c-1.67-.22-6.52,0-11.92-0.59a41.8,41.8,0,0,1-8.11-1.59,16.83,16.83,0,0,1-6.35-3.37,13.37,13.37,0,0,1-5.49-2.38,8.52,8.52,0,0,1-3.27-5.76,13.66,13.66,0,0,1,.93-6.53,28.17,28.17,0,0,1,2.84-5.51c0.54-.87,1.15-1.65,1.73-2.47l0.92-1.17,0.47-.58,0.23-.29,0.12-.14,0.3-.31,0.13-.13,0.18-.15,0.25-.19a5.61,5.61,0,0,1,.54-0.34l0.49-.21a4.44,4.44,0,0,1,2-.25,5.66,5.66,0,0,1,2.67,1.09,11.78,11.78,0,0,1,2.63,2.74,25.81,25.81,0,0,1,2.94,5.64,37.22,37.22,0,0,1,1.71,5.84,35.9,35.9,0,0,1,.48,12,25.57,25.57,0,0,1-4.35,11.37,24,24,0,0,1-4.18,4.49,28.16,28.16,0,0,1-5,3.28,38.35,38.35,0,0,1-5.35,2.24l-0.68.22-0.34.11h0l-0.15,0h0l-0.08,0-0.15,0-1.24.36c-0.76.26-1.77,0.46-2.73,0.67-1.42-.27-0.57-2.69-2.22-2.66-2.17.24,0,2.39,1.14,2.08a61.26,61.26,0,0,1-8,.12,67.35,67.35,0,0,1-8.51-1,76.56,76.56,0,0,1-17.12-5.33,70.49,70.49,0,0,1-12.32-6.78c-3.9-2.78-7.08-6-8.32-8.9a5,5,0,0,1-3.11-1,13.18,13.18,0,0,1-2.88-2.78,15.1,15.1,0,0,1-1-1.52,7.93,7.93,0,0,1-.59-1.33c-0.24-.76-0.15-1.22.38-1.13-1.45-.36-3.92-2.48-5.81-5.42s-3.08-6.65-2.6-9.22c-1.37-1.27-2.41-4.28-2.58-6.83a12.64,12.64,0,0,1,.72-5.26,2.49,2.49,0,0,0,0-.58,8.86,8.86,0,0,1,.07-1.13,4.27,4.27,0,0,1,1.19-2.62,4,4,0,0,1,1.66-.24l0.94,0a1.18,1.18,0,0,0,.49,0c1-.95.53-1-0.1-1s-1.41,0-.53-1.26a9.3,9.3,0,0,1,6.25-3.28,18,18,0,0,1,7.06.69c2.24,0.63,4.32,1.48,6.38,2.17a26.18,26.18,0,0,0,6.4,1.47,12.67,12.67,0,0,0,5.09,5.69c2.15,1.51,5,3.26,7.29,7l-3.8,2c1.49-.43,1.87.26,2.17,1a2.61,2.61,0,0,0,.57.94h0l0,0.07h0l0,0,0.05,0,0.11,0.07a1.18,1.18,0,0,0,.28.11,2.34,2.34,0,0,0,.81,0,0.53,0.53,0,0,0,.28-0.47,0.54,0.54,0,0,0-.09-0.22h0l0-.13h0l0,0-0.05-.07-0.12-.14a3.65,3.65,0,0,1-1-1.68,2.21,2.21,0,0,1,1.89,1.2l0.15,0.28,0,0.07,0,0v0l0.06,0.17,0,0.13a3.86,3.86,0,0,1,.13.55,5.28,5.28,0,0,1,.05,1.21c-0.08,1.59-1,3.57-2.1,3.94,0.53,1.49,1.64,1.66,2,.66,0,0.68,0,1.53,0,2.44s0.12,1.82.16,2.72a9.2,9.2,0,0,0,.53,2.46,2.8,2.8,0,0,0,1.23,1.64,1.51,1.51,0,0,0-1.1,1.29,6.24,6.24,0,0,0,.12,1.78c0.22,1.25,0,2.52-2.22,2.4,0.66,1,.66,2.39.29,4.1a16.6,16.6,0,0,1-1,2.56,20.42,20.42,0,0,1-1.68,2.44,25.07,25.07,0,0,1-2.08,2,22.87,22.87,0,0,1-2.17,1.46,8,8,0,0,1-3.43,1.13,5.85,5.85,0,0,1-2.87,3.26c-0.64.39-1.34,0.79-2.11,1.22a25.16,25.16,0,0,0-2.51,1.72c2.1-2.08.29-2.06-2.54-1.34,0.27,0.65,1.26.12,2,0,0.13,2.53-1.76,1.37-3.48,1.24-0.45,1.34-2,2.38-4.17,3.19a33.44,33.44,0,0,1-7.88,1.56c-5.86.6-12.19,0.26-16,.92-2.62-.43-1.08-1-1.13-2.8a4.49,4.49,0,0,1-2.55.89,3.1,3.1,0,0,1,1,2.1,42.41,42.41,0,0,1-11.91-.24l-3.29-.46-1.64-.29-1.9-.37c-2.4-.53-4.81-1.23-7.26-2-3.16-1-7.21-2-11.61-3.29a99.45,99.45,0,0,1-13.57-5.13,54.76,54.76,0,0,1-11.81-7.34c-3.21-2.73-5.48-5.65-6.25-8.38-4.83-3.1-9.28-8.09-13.11-14.38a60.46,60.46,0,0,1-5.06-10.53,49.08,49.08,0,0,1-1.81-6.13,41.58,41.58,0,0,1-1-6.77c1.08,0.85,1.54.79,1.66,0.28a11.57,11.57,0,0,0-.25-2.71,13.71,13.71,0,0,1-.07-3.76,2.51,2.51,0,0,1,1.44-2.29c-0.73-1.09-.52-3,0.51-5.17a22.58,22.58,0,0,1,5.35-6.73,48,48,0,0,1,8.12-5.71c2.88-1.64,5.7-3.13,8.28-4.49,0.45-.27,1-0.53,1.53-0.82s1-.61,1.51-0.86c1-.53,1.93-1.13,2.91-1.62a30.22,30.22,0,0,1,5.75-2.51c3.76-1.07,7.27-.65,8.67,2.59a3.57,3.57,0,0,1,1.83-.53,5.22,5.22,0,0,1,1.79.28,39.24,39.24,0,0,0,4.76,1.3c-0.79.19-.85,0.54-0.5,0.93a8.82,8.82,0,0,0,2.08,1.29c1,0.43,2,1,3.07,1.32a9.61,9.61,0,0,0,2.66.73c0.9,1.09-.44.46-0.84,1.17,3,1.88,4.11,2.51,5,3.16s1.53,1.49,2.84,4.32c-1.07.4-.53-1.07-1.8-2-0.44,1.43.25,2.2,1.1,3s1.8,1.56,1.72,2.81c0.55-1.17,2.24.1,3.51,2.2s2,4.93,1.25,6.23c0.51,0.9,1.49.17,2.32,0a65.49,65.49,0,0,0,1.59,8,52.64,52.64,0,0,1,1.5,10,28.4,28.4,0,0,1-1.56,10.77,17.14,17.14,0,0,1-5.7,8c-0.35.3-2.7-.08-2.87,0.12-1.23,1.42,1.75.49,1.71,0.19,0.51,1.76-2.28,5.06-6.29,7.41a37.34,37.34,0,0,1-6.32,2.89c-0.53.19-1,.39-1.54,0.55l-1.47.46c-0.94.32-1.81,0.58-2.56,0.83a77.26,77.26,0,0,1-14,3.57,41.45,41.45,0,0,1-13.38.08c0.7-1.4.12-1.78-.65-2s-1.77-.28-1.93-1c-1.75-.29.11,2.09,0.82,2.2,0.21,1.08-5.39-.36-2.58-1.55-3.81,1.3-5.49.85-10.47-.2,0.6-.58,1.18-1.17.15-1.43,0.09-1.06,5.19-.49,1-1.34,0.29-.89,2.63-0.66,2.56.28C4337.17,3719.06,4333.34,3718.42,4332.22,3718Zm93.76,23.25c2.42,0.38,4.58,0,5.91-1.76-1.06-.64-3,0.13-4.54.88S4424.86,3741.83,4426,3741.21Z" transform="translate(-3977.68 -3629.62)"/><path class="cls-2" d="M4465.11,3705.18a2.61,2.61,0,0,0,.08-1.26A10.49,10.49,0,0,0,4465.11,3705.18Z" transform="translate(-3977.68 -3629.62)"/><polygon class="cls-1" points="450.34 145.78 450.34 145.77 450.36 145.75 450.34 145.78"/><path class="cls-1" d="M4425.91,3775.39c-0.67.58-.32,0.92,0.31,0.94a2,2,0,0,0,1.8-.94A3.72,3.72,0,0,1,4425.91,3775.39Z" transform="translate(-3977.68 -3629.62)"/><path class="cls-1" d="M4467.82,3704c-0.56-1-2.3-.76-3.59-0.4s-2.19.91-1.23,0.55C4464.73,3705,4466.32,3705.24,4467.82,3704Z" transform="translate(-3977.68 -3629.62)"/><path class="cls-3" d="M4379.34,3717.59c2.72-.77,4.14-1.49,5.35-1.72s2.15-.09,3.9,1a24,24,0,0,1,4.26-1.06,21.29,21.29,0,0,1,4.33-.27,16,16,0,0,1,4,.66,9.46,9.46,0,0,1,3.1,1.67c2.91-1,6-.47,7.05,1a2.62,2.62,0,0,1,3.35-.67c1,0.37,1.68.9,2.18-.08a7.43,7.43,0,0,0,1.65,2.15,11.08,11.08,0,0,0,2.26,1.44c1.68,0.79,3.64,1.41,5.56,2.17a16.38,16.38,0,0,1,4.94,2.79c1.19,1.11,1.77,2.34,1.17,3.58a13.62,13.62,0,0,1,5.94,8.11,12.51,12.51,0,0,1-.89,9.11,2,2,0,0,1,1.65,1.73,3.58,3.58,0,0,1-1.66,3.45c1.49,0.81,1.95,3.19,1.22,6a16.57,16.57,0,0,1-5.29,8.22c0.61,0.26.51,2.05-.45,4s-2.84,4-4.91,4.49v0l0,0a3.72,3.72,0,0,1-2.11,0c-0.67.58-.32,0.92,0.31,0.94a2,2,0,0,0,1.8-.94h0a14,14,0,0,1-5.45,5c-2.23,1.09-4.61,1.26-6.1.15-0.49,1.24-2.73,2.23-5.2,2.23s-4.92-.91-5.82-2.12a0.94,0.94,0,0,1-1.07.88,3.82,3.82,0,0,1-1.94-1.79c-0.9-.22-1.09,1-1.52,1.73a13.85,13.85,0,0,1-2.39-1.17,6.46,6.46,0,0,1-.88-0.59c-0.23-.18-0.44-0.36-0.64-0.54l-0.57-.53-0.07-.07h0l-0.14-.09h0l0,0,0,0-0.14-.15-0.26-.3-1-1.15a20.79,20.79,0,0,0-5.62-4.57c1.66,0.17,2-.13,1.7-0.63a5.56,5.56,0,0,0-.86-0.92c-0.37-.38-0.84-0.8-1.31-1.24s-1-.88-1.41-1.3a6.62,6.62,0,0,1-1-1.26c-0.43-.75-0.34-1.18.75-1-1.82-1.56-3.21-2.09-4.06-2.83a1.72,1.72,0,0,1-.64-1.48,7.59,7.59,0,0,1,1.15-2.93,1.34,1.34,0,0,1-2-.35,8.86,8.86,0,0,1-.64-3,17.75,17.75,0,0,1-.09-2,17.16,17.16,0,0,0-.19-2.09,9.5,9.5,0,0,0-.33-2.11,13.36,13.36,0,0,0-.84-2.09c0.89,1.74,1.84-.85,2.09.85,0.88-.62.3-1.36,1.09-3.55-1.09.29-1.5,1.38-1.74,2.77a31.23,31.23,0,0,1,.14-4.57,12.81,12.81,0,0,1,.25-1.32,4.36,4.36,0,0,1,.47-1.07,1.52,1.52,0,0,1,1.4-.92,2.38,2.38,0,0,1-1.18-1.94,5.64,5.64,0,0,1,.66-2.32c0.36-.83.9-1.61,1.33-2.4a7,7,0,0,0,.86-2.41,54.79,54.79,0,0,1,8.73-8.53l2.08-1.64,2.07-1.5c1.32-1,2.71-1.88,4-2.85,2.66-1.81,5.21-3.69,8-5.72l9.11-7c3.2-.94,6.46-1.76,9.69-2.43l2.41-.48,2.41-.37c0.78-.15,1.62-0.19,2.42-0.28a21.73,21.73,0,0,1,2.35-.18c0.78,0,1.46-.08,2.3-0.08l2.2,0,4.22-.1c2.72-.08,5.23-0.22,7.46-0.38-0.55,2,1.36,1.48,1.32,2.91-0.51-1.51,2.88-4.12,2.78.11,1.79-2.13,2.14.54,5.47,1.13-1-2.18,1.41-2.38,4.36-1.7a24.81,24.81,0,0,1,7.33,3.07c0.82,0.11.94-1.1,1.29-1.88a40.42,40.42,0,0,1,9.48,5.3,26.3,26.3,0,0,1,5.64,5.84,23.27,23.27,0,0,1,3.42,7.41l0.48,2.32c0.13,0.81.2,1.65,0.3,2.56s0.06,1.82.08,2.82-0.12,2.07-.2,3.2c-1.13-1.65-1.26-1-1.16.3l0.13,2.22,0,0.61v0.25h0l0,0.13v0l0,0.35a9.11,9.11,0,0,1-.29,1.31,3.53,3.53,0,0,0-2.48-1.67c0.59,3.45-1.15,8.14-4.77,11.26s-8.74,4.75-13.07,3.77c-0.64.62-.44,1.81-2.08,1.8,0-1.3-.54-1.49-1.71-1.33a11.07,11.07,0,0,1-5.66-.48,10.61,10.61,0,0,1-5.93-6.34l-0.36-1.09-0.23-1.09a14,14,0,0,1-.26-2.2,20.4,20.4,0,0,1,.24-4.37c0.1-.81.23-1.35,0.36-2l0.2-.9v-0.08l0.05-.17,0-.13,0.08-.25,0.16-.5a26.67,26.67,0,0,1,1.53-3.9,29,29,0,0,1,4.53-6.8c3.36-3.76,7.31-6.31,10.57-8.54s5.9-4.26,7.12-7.24c0.52,1.24,1.81.43,3.14-.2s2.66-1.12,3,.56c1.78-3.71,5.51-5.71,10-7.08,2.25-.68,4.69-1.19,7.27-1.71s5.32-1,8.33-1.52c1.13,0.27-.07.63,0,1.44,0.78-.06,1.59,0,2.41,0s1.74,0.09,2.61.16l1.17,0.15,0.59,0.08,0.15,0,0.26,0.05,0.32,0.06a23.94,23.94,0,0,1,2.6.64,21.41,21.41,0,0,1,5,2.24,18.5,18.5,0,0,1,8.46,12.11,14.51,14.51,0,0,1,.13,6.06c1.56,1.73,1.18,4,.64,6s-1.17,4.13-.2,6.67c-0.42.89-1.47,0.25-2.31,0.1a11.52,11.52,0,0,1-2.23,6.63,6.57,6.57,0,0,1-3.78,2.47,4.79,4.79,0,0,1-1.36.09,3.49,3.49,0,0,1-1.1-.25c-0.59-.24-0.79-0.54-0.69-0.71a3.14,3.14,0,0,1-1.35-.25,4.91,4.91,0,0,1-.71-0.36,0.52,0.52,0,0,0-.24,0H4525l-0.26-.28h-0.07l-0.09,0-0.32-.13a3.51,3.51,0,0,1-1-.82,4.1,4.1,0,0,0-2.45-1.65c1.58-.12,1.18-0.57.54-1.38s-1.56-2-1-3.18c0,0.2-.38-0.14-1-0.85a14.37,14.37,0,0,1-2-3.51,11.39,11.39,0,0,1-.6-6.35,15,15,0,0,1,.52-1.75c0.23-.54.5-1.06,0.77-1.54s0.59-.86.89-1.23a10,10,0,0,1,.87-0.92,11.63,11.63,0,0,1,5.38-2.73,29.49,29.49,0,0,1,4.76-.61c2.87-.21,5.14-0.47,6.61-2.4a84.11,84.11,0,0,0,10,1.45c3.33,0.28,6.7.4,10.06,0.45,6.71,0.11,13.42,0,19.42.68-0.31,1.14.53,1.3,0.47,2.22,1.35-1,4.55-.63,7.9-0.05,1.67,0.29,3.39.62,4.88,0.82a18.25,18.25,0,0,0,2,.18h0.38l0.27,0a0.3,0.3,0,0,0,.14,0h0a2.36,2.36,0,0,0-.36.07c-0.31.09-.65,0.2-0.52,0a1.41,1.41,0,0,0-.09-0.5,1.3,1.3,0,0,1-.19-0.7l1.55,3.66,1.07,2.51c0.29,0.68.44,1.15,0.44,1.15a3.84,3.84,0,0,0-.75-0.43,3.06,3.06,0,0,0-.72-0.31,7.53,7.53,0,0,0-1.89-.3c-1.49-.08-3.46,0-5.67,0-4.42,0-9.71-.31-13.66-2.92-1.56,1.6-1.17.61-3.62,1.1a6.65,6.65,0,0,0,.84-1.37c-3.6-.66-7.47-0.12-11.29.41s-7.56,1-11.09.32a65.84,65.84,0,0,0-9.35-.19c-2.1.05-4.27,0.15-6.29,0.27s-3.86.3-5.52,0.5a6,6,0,0,0-1.91,3.73,7.36,7.36,0,0,0,.92,3.72,21.44,21.44,0,0,0,2.25,3.51c0.41,0.58.91,1.13,1.34,1.69l1.44,1.66,0.74,0.82,0.37,0.41,0,0.05c-1.54.85-.43,0.26-0.78,0.46v0l0,0.07-0.07.27,0,0.14-0.07,0a0.43,0.43,0,0,0-.14.08,0.19,0.19,0,0,0-.08.12,0.3,0.3,0,0,0,0-.09,2,2,0,0,0-.17-0.74c-0.07-.19-0.16-0.32-0.28-0.56a2.69,2.69,0,0,0-.16-0.26h0l0.12-.12a7.76,7.76,0,0,0,.89-1.25,17.28,17.28,0,0,0,.88-1.72,31,31,0,0,0,2.25-7.92,24.43,24.43,0,0,0-.06-8,14.15,14.15,0,0,0-3.09-6.72,12.74,12.74,0,0,0-6-3.79,15.4,15.4,0,0,0-3.57-.63l-1-.08a7,7,0,0,0-.89,0l-0.84,0c-0.28,0-.6.07-0.9,0.1-0.85-.44,0-2.79-1.28-2.88-1.64.17,0,2.36,0.67,2.15a35.83,35.83,0,0,0-11.38,1.94,56.15,56.15,0,0,0-6,2.31c-2,.87-4,1.87-5.91,2.92-2.7,1.45-5.81,3.52-8.75,5.41s-5.75,3.59-8.24,4.11c0.26,1.69-1.13,3.46-2.57,4.7s-2.95,2-3.13,1.08c0.09,1.25-.78,3.44-1.9,5.56a30.73,30.73,0,0,1-1.85,3.09q-0.24.36-.51,0.7l-0.27.33,0,0h0l0-.08h0l0,0-0.07.09-0.14.18a7.13,7.13,0,0,1-1.18,1.21,15.84,15.84,0,0,1,.46,3.69c0,0.41.07,0.79,0.07,1.17s0.08,0.7.09,1a4.68,4.68,0,0,0,.11.82c0,0.23.06,0.44,0.09,0.59l0.08,0.28a2.71,2.71,0,0,0,.77.4,1.66,1.66,0,0,1,.51.27,0.59,0.59,0,0,1,.28.39c0,0.08-.28.6-0.44,1.11a3.2,3.2,0,0,0-.25,1.13c0.76,0.39.73-.06,0.77-0.51a0.94,0.94,0,0,1,.86-1,6.46,6.46,0,0,1,2.76.32,18.67,18.67,0,0,0,3.72.67c2.78,0.22,6.13-.84,7-4a3.62,3.62,0,0,0,4.43-2.06,27.3,27.3,0,0,0,1.6-5.9l4,1.52c-1.32-.76-1.23-1.26-1.08-1.76l0.06-.19h0l0,0.06h0v-0.18a1,1,0,0,0,0-.41,1.63,1.63,0,0,0-1-.83c-0.56,0-.54.25-0.46,0.62l0.07,0.3,0,0.08v0.06h0l0-.11h0v0.15a1.07,1.07,0,0,1-.18.64,2.53,2.53,0,0,1-.7-0.7,1.37,1.37,0,0,1-.16-0.35l0-.09h0l0,0.14h0v-0.08a1.77,1.77,0,0,1,0-.22,2.85,2.85,0,0,1,.75-1.71,4.9,4.9,0,0,1,.77-0.73,5.05,5.05,0,0,1,.84-0.49,3.55,3.55,0,0,1,1.85-.36,1,1,0,0,0-1.63-1.07,6.43,6.43,0,0,0,.62-1.55,9.19,9.19,0,0,0,.22-0.92,5,5,0,0,0,0-.93,2.94,2.94,0,0,0-.48-1.62,2.11,2.11,0,0,0-1.42-.83c0.72-.28,1-0.61.9-0.92a2.35,2.35,0,0,0-.63-0.89c-0.49-.6-0.93-1,1-2a4.85,4.85,0,0,1-1.33-.45,5,5,0,0,1-1.18-.76,13.63,13.63,0,0,1-2-2c-1.22-1.47-2.57-3.13-2.78-4.33a4.25,4.25,0,0,1-1.65.28,6,6,0,0,1-1.3-.3,6.91,6.91,0,0,0-3.4-.56c2-.46,1.39-1.49-0.48-2.43-0.2.67,0.56,0.77,1,1.08-1.35,2.11-1.46.14-2.4-.75-1.74,1.77-5.09,1-9.18,0s-8.75-2.09-11.74-1.77c-1.95-.65-0.75-1.09-0.63-2.89a3.22,3.22,0,0,1-2.06.71,3.47,3.47,0,0,1,.67,2.16,34.56,34.56,0,0,1-9.25-.6l-1.25-.21-0.63-.11-0.16,0h0.08l-0.33,0c-0.85-.1-1.82-0.24-2.62-0.31l-2.28-.12c-0.85,0-1.73.1-2.64,0.19a24.4,24.4,0,0,0-8.13,3,74.43,74.43,0,0,0-8.82,5.84c-5.75,4.26-10.66,8.59-15.31,9-2.33,3.67-5.61,7.07-8.52,11.4a29.12,29.12,0,0,0-3.53,7.18,20.44,20.44,0,0,0-.86,4.05q0,1,0,2.09v0.52l0.08,0.52,0.17,1c-1.1-.47-1.56-0.48-1.67-0.13a1.4,1.4,0,0,0,.06.72,3.6,3.6,0,0,0,.43,1,11.67,11.67,0,0,1,1,2.14,1.29,1.29,0,0,1-.32,1.72,2.63,2.63,0,0,1,1.39.77,4.47,4.47,0,0,1,1.07,1.5c0.24,0.64.64,1.32,1,2.13l0.49,1.28c0.22,0.43.43,0.87,0.65,1.34l0.66,1.46,0.87,1.45,0.91,1.51c0.34,0.49.72,1,1.09,1.43a23.11,23.11,0,0,0,5,4.87,9,9,0,0,0,2.3,1.08,10.41,10.41,0,0,0,2.25.43,16.24,16.24,0,0,0,2.14,0c0.68-.09,1.3-0.1,1.88-0.2,2.34-.3,3.69-0.39,5.49,2.28a3,3,0,0,1,2-1.59c0.38-.15.81-0.28,1.27-0.51a4.53,4.53,0,0,0,1.38-1.14c-0.12.64,0.06,0.93,0.44,1a2.64,2.64,0,0,0,1.55-.65c1.19-.85,2.28-2.46,2.25-3.53,0.85-.4.41,0.49,1,1a12.88,12.88,0,0,0,2-3.64c0.32-.71.84-1.09,2.6-2.53,0.79,0.78-.64.6-1,1.67a1.56,1.56,0,0,0,2.06-1.28c0.28-.83.39-1.74,1.4-2.09-1.21-.06-1.13-1.63-0.59-3.23s1.53-3.38,2.83-3.82c0-.79-1.19-0.8-2-1.05a9.28,9.28,0,0,0,1.39-5.42,20.86,20.86,0,0,0-1.29-6.69,43.81,43.81,0,0,0-2.9-6.13,40.4,40.4,0,0,1-2.72-5.55c-0.09-.26.73-2.3,0.54-2.46-1-.92-0.68,1.59-0.49,1.51-1.58.52-3.4-1.14-5.85-2.87s-5.46-3.62-7.7-4.15a43.5,43.5,0,0,0-10.44-1,77.82,77.82,0,0,1-9.95-.26c0.41-1.44-.05-1.78-0.68-1.93s-1.41-.05-1.62-0.73c-1.42-.06.37,2.05,0.9,2.07,0.29,1-4.13.34-2.19-1.2-2.74,1.91-4,1.77-8,2,0.29-.71.58-1.42-0.28-1.42-0.24-1,3.88-1.77.41-1.54,0-.93,1.9-1.3,2.07-0.38C4383.58,3717.4,4380.37,3717.75,4379.34,3717.59Zm83.66-13.46c1.73,0.88,3.31,1.11,4.82-.15-0.56-1-2.3-.76-3.59-0.4S4462,3704.49,4463,3704.13Z" transform="translate(-3977.68 -3629.62)"/><path class="cls-3" d="M4489.68,3728.19a1.32,1.32,0,0,0-.49.69A4.48,4.48,0,0,0,4489.68,3728.19Z" transform="translate(-3977.68 -3629.62)"/><path class="cls-1" d="M4191.46,3653.06h0l0,0Z" transform="translate(-3977.68 -3629.62)"/><path class="cls-1" d="M4193.8,3653c0.84-.65.5-1-0.19-1a2.64,2.64,0,0,0-2.15,1A4.39,4.39,0,0,1,4193.8,3653Z" transform="translate(-3977.68 -3629.62)"/><path class="cls-1" d="M4142.9,3736.64c0.74,1,2.85.83,4.43,0.48s2.66-.86,1.48-0.52C4146.65,3735.68,4144.68,3735.4,4142.9,3736.64Z" transform="translate(-3977.68 -3629.62)"/><path class="cls-3" d="M4242.33,3723.37c-3.34.83-5.1,1.59-6.57,1.83a6.71,6.71,0,0,1-4.73-.94,33.6,33.6,0,0,1-5.22,1.09,29.64,29.64,0,0,1-5.29.26,22.89,22.89,0,0,1-4.83-.71,13.09,13.09,0,0,1-3.8-1.75c-3.53.9-7.27,0.22-8.61-1.34-1.39,1.33-2.84.89-4,.44s-2-1.07-2.6-.11a11.45,11.45,0,0,0-4.81-4.17c-2-1.09-4.33-2-6.5-3.2-4.44-2.22-8.07-5.84-6.76-8.39a17.41,17.41,0,0,1-5.43-10.86,16.39,16.39,0,0,1,2.32-10.67c-0.72-.16-1.29-1.08-1.29-2.33a4.74,4.74,0,0,1,2.35-3.86c-1.32-1.18-1.25-4,.09-7.23a21.16,21.16,0,0,1,2.92-4.85,23.56,23.56,0,0,1,4.39-4.22c-0.29-.17-0.31-0.74-0.09-1.57a11.12,11.12,0,0,1,1.43-2.91c1.4-2.13,3.79-4.29,6.16-4.84l0,0,0,0a4.39,4.39,0,0,1,2.34,0c0.84-.65.5-1-0.19-1a2.64,2.64,0,0,0-2.15,1h0a19.54,19.54,0,0,1,6.73-5.42,11.62,11.62,0,0,1,3.82-1.08,5.55,5.55,0,0,1,3.17.61c0.61-1.26,3.15-2.42,6-2.62s5.81,0.62,7.05,1.74a1,1,0,0,1,1.13-.91,4.79,4.79,0,0,1,2.56,1.73c1.1,0.18,1.13-1,1.51-1.82a24.22,24.22,0,0,1,2.84,1.1c0.85,0.45,1.6.89,2.26,1.32a14.67,14.67,0,0,1,1.47,1.2l0.63,0.57,0.08,0.07h0l0.14,0.08h0l0,0,0,0,0.16,0.16,0.31,0.31a31.46,31.46,0,0,0,2.78,2.43,39.56,39.56,0,0,0,4.26,2.71c-3.69-.5-1.38,1.09,1,3a19.44,19.44,0,0,1,3,2.91c0.59,0.85.57,1.35-.63,1.15a14.48,14.48,0,0,0,1.55,1.18c0.47,0.34.9,0.62,1.31,0.86a12.22,12.22,0,0,1,2,1.28,2.34,2.34,0,0,1,.87,1.74,5.59,5.59,0,0,1-.09,1.43,12.44,12.44,0,0,1-.61,2,1.31,1.31,0,0,1,2,.43,6.44,6.44,0,0,1,.63,1.5c0.15,0.61.3,1.31,0.42,2.06,0.2,1.51.38,3.21,0.58,4.92a17.42,17.42,0,0,0,1.34,5.07c-0.49-1.08-.94-0.76-1.3-0.48s-0.65.54-.84-0.48a2.17,2.17,0,0,0-.54,1.47c0,0.33-.06.72-0.13,1.2a14.5,14.5,0,0,1-.44,1.71c1-.43,1.61-1.74,1.8-3.45a36.63,36.63,0,0,1-.25,5.55c-0.37,2.22-1.2,4.16-2.38,4.09a2.53,2.53,0,0,1,1,2.22,7.26,7.26,0,0,1-.9,2.78c-1,2-2.49,3.86-2.86,5.73a66.58,66.58,0,0,1-10.62,10.3c-3.45,2.73-6.75,5-10,7.18l-10,6.72c-3.47,2.37-7.15,5-11.54,7.91-7.78,2.23-15.8,4.09-23.48,4.45-7.52.09-14.33,0.2-19.79,0.51,0.65-1.95-1.69-1.49-1.67-2.93,0.65,1.51-3.44,4.1-3.41-.14-2.14,2.11-2.64-.57-6.75-1.22,1.29,2.21-1.63,2.37-5.25,1.62-0.9-.2-1.84-0.43-2.76-0.71s-1.82-.6-2.65-0.91a30.24,30.24,0,0,1-3.69-1.71c-1-.15-1,1.08-1.38,1.87a50,50,0,0,1-11.75-6,30.34,30.34,0,0,1-7.09-6.8,24.78,24.78,0,0,1-4.17-8.93l-0.53-2.82-0.26-3.1c0-1.07,0-2.2,0-3.41s0.25-2.5.42-3.86c0.51,1,.82,1.28,1,1.14a3.08,3.08,0,0,0,.22-1.46c0-.74,0-1.69,0-2.67v-0.3h0l0-.13h0v-0.05l0.07-.42,0.16-.83a7.45,7.45,0,0,1,.45-1.54,3.09,3.09,0,0,0,2.32,1.93,13.89,13.89,0,0,1,1.73-6.68,19.53,19.53,0,0,1,5.27-6.17c4.45-3.51,10.64-5.16,15.77-4.07a5.08,5.08,0,0,0,.9-1.09,1.8,1.8,0,0,1,1.73-.6c-0.11,1.33.55,1.45,2,1.44a22.61,22.61,0,0,1,2.76,0,10.54,10.54,0,0,1,3.91,1.1,11.51,11.51,0,0,1,3.94,3.2l0.79,1.09,0.63,1.19a6.58,6.58,0,0,1,.52,1.24c0.14,0.42.29,0.85,0.42,1.28a19.37,19.37,0,0,1,.52,5.19,18.94,18.94,0,0,1-.22,2.59c-0.14.84-.27,1.86-0.45,2.5l-0.26,1.09-0.13.55,0,0.14,0,0.07v0l-0.06.18-0.1.3c-0.27.79-.52,1.61-0.83,2.39s-0.65,1.55-1,2.31l-1.17,2.22a39.07,39.07,0,0,1-6,7.83,46.6,46.6,0,0,1-6.66,5.59c-2.24,1.62-4.48,3-6.5,4.28-4.09,2.58-7.45,4.85-9.3,8-0.41-1.28-2.05-.41-3.68.33s-3.27,1.28-3.49-.48c-2.63,3.94-7.27,6.08-12.76,7.53a138.25,138.25,0,0,1-19,2.94c-1.35-.35.11-0.63,0-1.44-0.94,0-1.95,0-3-.12s-1.95-.21-2.91-0.32a31.89,31.89,0,0,1-6.23-1.57,24.65,24.65,0,0,1-5.88-3.08,21.76,21.76,0,0,1-4.73-4.61,22.85,22.85,0,0,1-4.25-10.53,18.82,18.82,0,0,1,.27-7.27c-1.41-2.21-.79-4.83,0-7.31s1.79-4.89,1.36-8c0.63-1.06,1.58-.23,2.4,0a12.17,12.17,0,0,1,1.71-4,8.25,8.25,0,0,1,2-2.11c0.24-.17.53-0.35,0.8-0.51a7.69,7.69,0,0,1,1-.44,5.89,5.89,0,0,1,2.83-.22,5.73,5.73,0,0,1,1.47.45,6.34,6.34,0,0,1,1.46,1l0.28,0.27,0.29,0.3v0l0,0,0.05,0.07,0.11,0.14a6.56,6.56,0,0,1,.65,1,1,1,0,0,1,0,1.32,3.58,3.58,0,0,1,3,1.6,6.71,6.71,0,0,0,2.76,2.41c-1.69-.2-1.25.45-0.52,1.5a10.31,10.31,0,0,1,1,2,2.94,2.94,0,0,1,0,2.19c0-.25.38,0.28,0.92,1.37a12.54,12.54,0,0,1,1,5.41,15.53,15.53,0,0,1-.23,1.89,16.54,16.54,0,0,1-.57,1.93c-0.26.62-.56,1.22-0.88,1.81s-0.72,1.07-1.1,1.57a15.17,15.17,0,0,1-4.45,3.69,17.78,17.78,0,0,1-5.69,1.84c-1.88.33-3.68,0.43-5.34,0.57-3.31.27-6.06,0.65-7.76,2.65a152.64,152.64,0,0,0-24.39-1c-8.19.18-16.36,0.56-23.75,0.09,0.29-1.15-.76-1.28-0.77-2.2-1.57,1.05-5.52.79-9.7,0.33-2.09-.23-4.24-0.49-6.13-0.64-0.93-.07-1.83-0.11-2.54-0.1a8.46,8.46,0,0,0-.93.06,1.67,1.67,0,0,0-.28.05l-0.12,0,0.27-.05c0.22-.06.47-0.13,0.33,0.1a1.2,1.2,0,0,0,.05.52,1.11,1.11,0,0,1,.15.72L3985,3726l-1-2.54c-0.27-.69-0.42-1.16-0.42-1.16a3.29,3.29,0,0,0,.81.41,3.73,3.73,0,0,0,.86.28,11.3,11.3,0,0,0,2.32.21c1.83,0,4.25-.14,6.95-0.22,5.4-.16,11.89,0,16.95,2.43,1.78-1.66,1.38-.65,4.34-1.24a6.07,6.07,0,0,0-.91,1.4c4.45,0.53,9.14-.17,13.77-0.86s9.2-1.38,13.59-.82a99.82,99.82,0,0,0,11.56-.28c2.6-.16,5.31-0.36,7.84-0.56s4.87-.41,6.87-0.5a15,15,0,0,0,4-3.71,6.32,6.32,0,0,0,1.15-4.43,11.69,11.69,0,0,0-1.62-4.48,33,33,0,0,0-3-4.28c-0.53-.7-1.16-1.37-1.72-2.06l-0.91-1-0.45-.5-0.23-.25-0.06-.06,0,0v0c1.16-.5.33-0.16,0.59-0.28l0.05-.31a0.69,0.69,0,0,1,.07-0.27,0.47,0.47,0,0,0,.16-0.06,0.2,0.2,0,0,0,.12-0.13,0.31,0.31,0,0,0,0,.06,1,1,0,0,0,0,.31,2.15,2.15,0,0,0,.13.52,2.53,2.53,0,0,0,.12.33L4067,3702l0,0.07h0l0,0-0.09.07a7.21,7.21,0,0,0-1.21,1.43,22.92,22.92,0,0,0-2.22,4.38,34.78,34.78,0,0,0-1.5,4.9,30.08,30.08,0,0,0-.66,10,18.08,18.08,0,0,0,3.28,8.78,15.78,15.78,0,0,0,7.22,5.32,21.22,21.22,0,0,0,4.44,1.13l0.57,0.08,0.28,0h0l-0.11,0h0.28l1.28,0.1a14.73,14.73,0,0,0,2.3,0c1,0.51-.09,2.81,1.44,2.95,2,0,.17-2.38-0.75-2.17a41.27,41.27,0,0,0,6.87-.23,55.69,55.69,0,0,0,7.43-1.44,86.3,86.3,0,0,0,15.14-5.7c3.44-1.63,7.46-4,11.2-6.17s7.25-4.25,10.17-4.94a4.76,4.76,0,0,1,1.19-2.83,15.52,15.52,0,0,1,2.54-2.57,12.7,12.7,0,0,1,2.49-1.63c0.68-.29,1.15-0.26,1.15.25,0.13-1.43,1.51-4,3.07-6.54s3.32-5.2,5.09-6.71a48.36,48.36,0,0,1,.07-6.18,15.8,15.8,0,0,0-.24-3.56,1,1,0,0,0-.25-0.28l-0.58-.4a2,2,0,0,1-.9-1.07,10.2,10.2,0,0,1,.4-1.19,7,7,0,0,0,.22-0.81,0.73,0.73,0,0,0,0-.4c-0.89-.59-0.83-0.11-0.87.4a0.78,0.78,0,0,1-1,.92,17.82,17.82,0,0,1-3.62-.82,21.52,21.52,0,0,0-4.76-.91,12.78,12.78,0,0,0-5.35.78,7.38,7.38,0,0,0-4,3.53,5.16,5.16,0,0,0-5.53,2.56,29.36,29.36,0,0,0-2.87,7l-4-1.71c1.23,0.86,1.06,1.47.87,2.09a1.82,1.82,0,0,0-.15.91h0l0-.07h0v0l0,0.06,0.06,0.12a1.2,1.2,0,0,0,.17.24,2.35,2.35,0,0,0,.66.47,0.45,0.45,0,0,0,.54-0.47V3702h0l0,0.12h0v-0.2a2.09,2.09,0,0,1,.2-1.47,1.94,1.94,0,0,1,.76,1.69,1.75,1.75,0,0,1,0,.21v0.05h0l0-.16h0v0l0,0.13a3.81,3.81,0,0,1-.19.54,5.24,5.24,0,0,1-.62,1,4.56,4.56,0,0,1-3.66,2.1c-0.11,1.48.87,1.9,1.58,1.29a7.2,7.2,0,0,0-.72,1.91,7.13,7.13,0,0,0-.31,2.3,4.56,4.56,0,0,0,.46,2,2.22,2.22,0,0,0,1.45,1.06,1.13,1.13,0,0,0-.88,1.13,3.37,3.37,0,0,0,.69,1.13c0.51,0.76,1,1.31-.86,2.48a6.48,6.48,0,0,1,2.74,1.63,9.79,9.79,0,0,1,1.3,1.23,15.72,15.72,0,0,1,1.28,1.36,16.63,16.63,0,0,1,1.28,1.4,15.92,15.92,0,0,1,1.21,1.37,8.06,8.06,0,0,1,1.58,2.34,5.42,5.42,0,0,1,3.56.24,13,13,0,0,0,1.83.58,8.27,8.27,0,0,0,2.45.24c-2.47.39-1.5,1.46,0.86,2.54,0.17-.68-0.77-0.83-1.3-1.17,1.41-2.08,1.81-.06,3,0.9,2-1.73,6.27-.73,11.4.32s10.95,2.26,14.63,2c2.42,0.67.94,1.09,0.82,2.89a4.52,4.52,0,0,1,2.53-.69,3.1,3.1,0,0,1-.85-2.17,53.77,53.77,0,0,1,11.42.63l1.54,0.21,0.78,0.11,0.39,0.06h0.08l0.2,0,1.58,0.18,1.38,0.13a33.76,33.76,0,0,0,6.4-.22,34.54,34.54,0,0,0,10.24-3.45,97.2,97.2,0,0,0,11.29-6.7c3.68-2.46,7.14-5,10.31-7s6-3.55,8.71-4c3.2-4.26,7.38-8.41,11.06-13.72a35.4,35.4,0,0,0,4.53-8.84,22.51,22.51,0,0,0,1.08-5,17.46,17.46,0,0,0-.21-5.16c1.12,0.56,1.58.55,1.67,0.12a4.36,4.36,0,0,0-.59-2.12c-0.8-1.8-2.18-3.64-1.09-4.77-2.4-.56-3.34-4.1-6.11-8.56a40.61,40.61,0,0,0-5.17-6.8,29.5,29.5,0,0,0-6.79-5.49,8.68,8.68,0,0,0-1.39-.64,10,10,0,0,0-1.39-.46,14.1,14.1,0,0,0-2.83-.43,25.88,25.88,0,0,0-5,.29c-3,.44-4.94.65-7.21-1.85a4.39,4.39,0,0,1-1.2,1.21,8.19,8.19,0,0,1-1.38.61,8.21,8.21,0,0,0-3.53,2c0.24-.68.06-1-0.41-1a4.08,4.08,0,0,0-2,.81,10.32,10.32,0,0,0-2.2,1.93,5.28,5.28,0,0,0-1.18,2.09c-1.07.5-.36-0.53-0.93-1.1a19.43,19.43,0,0,0-3.13,4.17c-0.54.81-1.2,1.29-3.49,2.93-0.65-.91.85-0.67,1.5-1.92-1.43-.31-2,0.52-2.54,1.46s-0.86,2-2,2.4c1.26,0.11.77,2-.19,3.86s-2.4,4-3.84,4.37c-0.22,1,1,1.09,1.77,1.48-2.62,3.08-3.51,9.26-2.56,15a42.16,42.16,0,0,0,2.26,8.16c0.94,2.52,2,4.79,2.74,7.08,0.07,0.34-.73,2.4-0.55,2.63,1.11,1.28.75-1.65,0.51-1.57,1.72-.24,3.8,2,6.73,4.26s6.7,4.5,9.45,5.22a53.19,53.19,0,0,0,12.88,1.51c4.43,0.08,8.73,0,12.32.35-0.54,1.45,0,1.78.81,1.93s1.74,0,2,.71c1.74,0-.41-2.05-1.06-2.06-0.34-1,5.11-.38,2.67,1.18,3.42-2,5-1.84,9.9-2.19-0.38.72-.77,1.44,0.28,1.42,0.24,1-4.82,1.87-.57,1.56,0,0.93-2.37,1.35-2.54.42C4237.15,3723.66,4241.08,3723.24,4242.33,3723.37Zm-93.52,13.23c-2.17-.92-4.14-1.19-5.92,0,0.74,1,2.85.83,4.43,0.48S4150,3736.26,4148.81,3736.6Z" transform="translate(-3977.68 -3629.62)"/><path class="cls-3" d="M4114.92,3707.37a1.8,1.8,0,0,0,.54-0.87A6.27,6.27,0,0,0,4114.92,3707.37Z" transform="translate(-3977.68 -3629.62)"/><g class="cls-4"><polygon class="cls-1" points="173.29 141.49 173.29 141.49 173.27 141.48 173.29 141.49"/><path class="cls-1" d="M4151,3773c0.6,0.45.83,0,.81-0.53a1.45,1.45,0,0,0-.83-1.35A5,5,0,0,1,4151,3773Z" transform="translate(-3977.68 -3629.62)"/><path class="cls-1" d="M4105.68,3701.19c0.9,0.65,2.5-.06,3.7-0.8s2-1.46,1.09-.86C4108.47,3699.12,4106.69,3699.45,4105.68,3701.19Z" transform="translate(-3977.68 -3629.62)"/><path class="cls-2" d="M4193.93,3723c-2.74,0-4.21.24-5.36,0.24s-2-.43-3.45-1.72c-1.37.23-2.77,0.41-4.15,0.55a38.84,38.84,0,0,1-4.06.15,19.36,19.36,0,0,1-3.72-.38,10.46,10.46,0,0,1-3.18-1.1c-2.52,1.61-5.13,2.21-6.68,1.45a2.56,2.56,0,0,1-2.27,2.24c-0.9.18-1.67,0.27-1.4,1.31-3.18-1.75-6.52.91-8.38,3.77s-2.64,5.57-5.18,5a39.05,39.05,0,0,1-2,7.52,29.45,29.45,0,0,1-3.64,6.6,2,2,0,0,1,1.6,1.51c0.21,0.82-.06,1.85-1.26,3.07,1.62,0.43,2.53,2.05,3.13,4.22a53.07,53.07,0,0,1,1.27,7.94c0.56-.37,1.85.4,3.06,1.5a8.38,8.38,0,0,1,2.73,4.23h0a5,5,0,0,1,0,1.88c0.6,0.45.83,0,.81-0.53a1.45,1.45,0,0,0-.83-1.35h0c1.65,0.74,3.38,1.44,4.76,2.22a6.24,6.24,0,0,1,3.06,3.3c0.85-.87,2.39-1.13,3.94-1.2a9.18,9.18,0,0,1,4.37.69c-0.29-1.32.16-1.69,2.27-.87,0.61-.42-0.09-1.41-0.36-2.22,0.59-.27,1-0.51,1.43-0.67l0.32-.12c0.11,0,.26-0.12.39-0.17l0.77-.32,0.73-.26h0.09l-0.13.08,0.08,0,0.16-.06,0.31-.11,1.21-.41a9.8,9.8,0,0,0,2.38-1.13,11.45,11.45,0,0,0,2.33-2.6c-0.17,1.41.06,1.81,0.56,1.61a2.72,2.72,0,0,0,.89-0.66c0.31-.35.64-0.78,1-1.22s0.68-.89,1-1.29a12.53,12.53,0,0,1,.82-1c0.5-.5.93-0.54,1.17,0.48,1-2,.42-3.37.51-4.23a1.21,1.21,0,0,1,.74-1,11.09,11.09,0,0,1,2.7-.9c-1-.3-1.35-0.77-1.29-1.36a6.81,6.81,0,0,1,.76-2.31,6.7,6.7,0,0,0,.48-1.53,10.53,10.53,0,0,0,.26-1.7,6.41,6.41,0,0,0-.35-1.73,3.53,3.53,0,0,0-1-1.55c1.26,1.26,1.61-1,2.25.39,0.68-.69.07-1.25,0.13-3.41a3.1,3.1,0,0,0-1,2.84,24,24,0,0,0-1.26-3.64c-0.44-1.45-.92-2.81.09-3.45a2.49,2.49,0,0,1-2-.5,4,4,0,0,1-1.12-1.67,15.49,15.49,0,0,0-.95-2.09,3.79,3.79,0,0,0-1.42-1.62,57.32,57.32,0,0,0-5.13-9.58l-1.4-2.06-1.49-1.9a43.14,43.14,0,0,0-3.15-3.51,35.19,35.19,0,0,0-17.89-9.5,39.41,39.41,0,0,0-8.21-4.43c-0.73-.27-1.45-0.55-2.18-0.8l-2.21-.62a20.47,20.47,0,0,0-2.19-.45,15,15,0,0,0-2.21-.29c-0.73,0-1.55-.12-2.19-0.12h-2.19c-1.44,0-2.83.08-4.17,0.17a61,61,0,0,0-7.28.89c0.33-2-1.5-1.32-1.65-2.73,0.65,1.42-2.2,4.46-2.79.31-1.39,2.42-2.19-.21-5.69.1,1.53,1.86-.73,2.58-3.62,3s-6.52.57-7.82,0.67c-0.73.39-.1,1.43,0.1,2.26-7.79,2-11.6,5.36-13.48,9.12a13.43,13.43,0,0,0-1.31,6.34l0.16,1.86c0.09,0.64.25,1.31,0.37,2s0.4,1.42.61,2.17,0.56,1.47.83,2.24c-1.59-.63-1.52-0.21-0.94.74l1.27,1.82,0.33,0.51,0.08,0.13,0,0.06,0,0h0l0-.13h0l0.15,0.2a4.34,4.34,0,0,1,.48.77,5.09,5.09,0,0,0-2.89.54c2.5,2,4.86,4.17,7.48,6.39s5.39,4.6,8.54,6.93c0.73-.37.86-1.53,2-1.26-0.19,1.3.28,1.54,1.25,1.4a12.23,12.23,0,0,0,3.66-1.72,4.76,4.76,0,0,0,1.54-1.65,5.64,5.64,0,0,0,.45-1,7.25,7.25,0,0,0,.21-1.15l0.06-.6,0-.65a8.47,8.47,0,0,0-.14-1.34,16.31,16.31,0,0,0-.71-2.75c-0.09-.24-0.11-0.4-0.24-0.71l-0.33-.85-0.32-.86,0-.11h0l0,0.14h0v0l0,0-0.08-.18-0.17-.36c-0.42-1-.92-1.91-1.43-2.86-1-1.9-2.21-3.79-3.45-5.69a61.79,61.79,0,0,0-7.23-9.75c-2.59-2.63-5.41-4.33-8.38-4,0.87-1-.3-1.79-1.43-2.55s-2.19-1.57-1-2.84c-4,.62-7.37-0.71-11.33-2.15a42.46,42.46,0,0,0-6.37-1.85,17.39,17.39,0,0,0-7.14,0c-0.92-.29,0-0.63-0.05-1.44-0.69,0-1.37.15-2.07,0.21s-1.31.24-2,.36l-1.14.29-0.57.15-0.14,0h0l0.09,0h0l-0.06,0-0.25.08a19.32,19.32,0,0,0-2,.74,14.9,14.9,0,0,0-6.09,4.6,17.22,17.22,0,0,0-2.79,5.85c-0.53,1.88-.8,3.51-1.17,4.56,1.51,1.42,1.36,3,1.45,4.71s0.43,3.56,2.59,4.37c0.14,0.66-1,.94-1.78,1.35,1.2,1.22,2.5,2.6,3.09,3.1,0.14,0.14.21,0.17,0.16,0.17a2.58,2.58,0,0,0-.64-0.14,2.12,2.12,0,0,0-1.27.2,0.5,0.5,0,0,0-.35.61,1.41,1.41,0,0,0-.81-0.06,2,2,0,0,0-.48.17l-0.11.06s-0.08.05-.07,0V3733h0l-0.26.28h0v-0.08a2,2,0,0,1,0-.31,2.59,2.59,0,0,1,.47-1,2.51,2.51,0,0,0,.56-2.35c0.69,1.29,1,.89,1.34.18s0.76-1.66,2-1.65c-0.34.16,0.18-1.64,0.17-3.16a1.36,1.36,0,0,0-.41-1.21c-0.15,0-.16.12-0.3,0a7.59,7.59,0,0,0-1.35-1.26,10.48,10.48,0,0,0-2.72-1.46c-2-.74-4.17-0.74-5.53,1a25.15,25.15,0,0,0-8.92-1.35,53.87,53.87,0,0,0-9.49,1.06c-6.35,1.21-12.61,3.11-18.58,4,0-1.18-.86-1.11-1.05-2-1,1.32-4.23,1.84-7.81,2.08-1.79.12-3.68,0.17-5.51,0.18-0.92,0-1.82,0-2.75,0l-0.69,0-0.74,0c-0.22,0-.54-0.05-0.81-0.08l-0.41-.05c-0.17,0-.53-0.11-0.78-0.18a2,2,0,0,0-1.23-.19,1.44,1.44,0,0,0-.35.38,1.33,1.33,0,0,1-.44.59l1.95-3.47,1.34-2.39c0.37-.66.57-1.11,0.57-1.11a0.93,0.93,0,0,0,0,.62,1.42,1.42,0,0,0,.51.49,3.93,3.93,0,0,0,1.85.4,26.31,26.31,0,0,0,5.59-.86c4.28-1,9.43-2.15,13.93-.66,1.08-2,1-.9,3.2-2a6.55,6.55,0,0,0-.45,1.54c3.63-.29,7.22-1.76,10.86-3.08s7.36-2.47,11.07-2.09c1.37,0.15,5.32-.24,9.78.12a26.75,26.75,0,0,1,6.71,1.34,9.81,9.81,0,0,1,4.94,3.41,6.38,6.38,0,0,1,3.81,3.3,9,9,0,0,1,.44,5.39,18.74,18.74,0,0,1-1.7,4.85c-0.36.77-.79,1.46-1.19,2.19s-0.87,1.39-1.34,2.05l-0.71,1-0.36.49-0.36.4-0.16.14-0.23.19a4.9,4.9,0,0,1-.49.33,4,4,0,0,1-2,.5,3.78,3.78,0,0,1-.9-0.1,3.84,3.84,0,0,1-.73-0.23,6.26,6.26,0,0,1-1.83-1.19,12.17,12.17,0,0,1-1.94-2.36,20.15,20.15,0,0,1-1.29-2.34,31.69,31.69,0,0,1-2.67-9.66,30.29,30.29,0,0,1,.42-9.94,21.69,21.69,0,0,1,4.32-9.18,22.43,22.43,0,0,1,8-6,31.33,31.33,0,0,1,4.54-1.69l1-.31c0.32-.11.78-0.19,1.17-0.29l1.22-.29c0.4-.09.77-0.15,1.16-0.23,1.11,0.36.35,2.73,1.7,2.77,1.78-.11.09-2.41-0.87-2.12,8.43-.43,18.62,1.79,27.46,6.28a54,54,0,0,1,9.82,6.11c3.06,2.48,5.47,5.37,6.14,8,1.74-.29,3.73,1.43,4.89,3.26s1.5,3.69.55,3.53c1.29,0.27,3.27,2.11,4.68,4.63a13.18,13.18,0,0,1,1.48,4.06c0.06,0.35.1,0.69,0.13,1l0,0.49v0l0,0.09h0v0.2l0,0.22a7.1,7.1,0,0,1-.33,1.65,6.74,6.74,0,0,1,1.45,2.58c0.15,0.52.28,1.06,0.38,1.6s0.09,1.13.11,1.67a10.33,10.33,0,0,1-1,4.38c-0.08.12,0.06,0.73-.08,1.49a5.48,5.48,0,0,1-.37,1.19,2.72,2.72,0,0,1-.82,1,3,3,0,0,1-1.52,0,7.89,7.89,0,0,0-1.3-.22c-0.88.73-.47,0.84,0.1,1s1.28,0.25.49,1.26a7.54,7.54,0,0,1-5.45,2.58,14.62,14.62,0,0,1-5.9-1.06c-1.83-.69-3.52-1.49-5.18-2.19a17.81,17.81,0,0,0-5.37-1.36,8.57,8.57,0,0,0-3.77-5.18c-1.74-1.33-4.14-2.86-5.93-6l3.94-1.79c-1.47.37-1.76-.2-2-0.78l0-.11,0-.05v0h0l0-.08c0-.07-0.05-0.13-0.08-0.19a1,1,0,0,0-.25-0.33,1.63,1.63,0,0,0-1.27-.2c-0.46.31-.33,0.5-0.07,0.77l0.21,0.22,0.06,0.06,0,0v0h0l0,0.11h0l0.13,0.16a0.57,0.57,0,1,1-.68.57,1.94,1.94,0,0,1-.4-0.31l0,0,0,0h0l0-.15h0l-0.07-.08-0.12-.18a2.84,2.84,0,0,1-.25-1.85,5.07,5.07,0,0,1,.28-1,5.25,5.25,0,0,1,.53-1.06,2.92,2.92,0,0,1,1.52-1.26c-0.46-1.21-1.55-1.35-2-.52,0-.58.15-1.27,0.15-2,0-.37,0-0.74,0-1.11s0-.76,0-1.13a6.9,6.9,0,0,0-.51-2,2.55,2.55,0,0,0-1.26-1.37,1.27,1.27,0,0,0,1.08-1,4.45,4.45,0,0,0-.19-1.48c-0.26-1-.14-2.12,2-1.95a3.16,3.16,0,0,1-.67-1.51,7,7,0,0,1,0-2,10.52,10.52,0,0,1,2-4.33,12.14,12.14,0,0,1,3.48-3.08,5.93,5.93,0,0,1,2.93-1,4.19,4.19,0,0,1,.82-1.82,5.08,5.08,0,0,1,1.35-1.2,24.77,24.77,0,0,0,3.74-2.73c-1.63,2-.07,2,2.27,1.4-0.28-.64-1.08-0.16-1.7-0.08-0.31-2.46,1.4-1.3,2.86-1.12,0.56-2.62,5-4,9.84-4.45s10.06-.12,13.21-0.75c2.15,0.45.9,1,1,2.81a3.24,3.24,0,0,1,2.08-.88,3.44,3.44,0,0,1-.87-2.11,28.93,28.93,0,0,1,9.74.27l2.82,0.48c0.88,0.21,1.68.38,2.68,0.64l3.19,0.88c1,0.35,2,.69,3,1,2.56,1,5.92,1.72,9.51,2.92a77.3,77.3,0,0,1,11.13,4.37c7.27,3.55,13.44,8.78,14.13,13.73,4,2.57,7.46,6.83,10.43,12.08a57.91,57.91,0,0,1,3.92,8.76c0.64,1.57,1,3.29,1.54,5l0.57,2.71,0.15,0.69,0.09,0.71,0.19,1.44c-1.11-.67-1.57-0.61-1.67-0.19a2.17,2.17,0,0,0,.07.9,12.78,12.78,0,0,1,.3,1.32,13.87,13.87,0,0,1,.36,3.11,2,2,0,0,1-1.25,1.91c1.8,1.82-.16,6.47-4,10.23l-1.47,1.42-1.66,1.26-1.67,1.25c-0.57.39-1.18,0.73-1.76,1.09-1.17.71-2.28,1.47-3.44,2.06s-2.15,1.27-3.23,2c-1.45.89-3.06,2.15-4.51,3.19-0.73.55-1.5,1-2.25,1.52a18.39,18.39,0,0,1-2.31,1.17c-3.07,1.29-6.23,1.06-7.43-2.06a3.24,3.24,0,0,1-3.09.47c-0.52-.16-1.09-0.36-1.75-0.54a17.32,17.32,0,0,0-2.33-.54c0.71-.21.79-0.55,0.51-0.92a6.07,6.07,0,0,0-1.69-1.17,16.51,16.51,0,0,0-4.85-1.84c-0.66-1,.47-0.43.93-1.1-2.39-1.72-3.34-2.3-4.06-2.9s-1.17-1.37-1.84-3.92c1.07-.32.27,1,1.29,1.85a2,2,0,0,0-.46-2.63c-0.63-.69-1.39-1.42-1.08-2.48-0.74,1-2.1-.19-2.92-2.06s-1-4.31,0-5.32c-0.35-.78-1.43-0.27-2.28-0.17a37.14,37.14,0,0,0-.14-6.75,48.07,48.07,0,0,1,0-8.37,23.8,23.8,0,0,1,2.5-8.62,13.88,13.88,0,0,1,5.54-5.89c0.35-.18,2.44.5,2.6,0.36,1.13-1-1.62-.76-1.55-0.45-0.25-.85.27-1.85,1.22-2.93a15.06,15.06,0,0,1,1.81-1.56,20.6,20.6,0,0,1,2.33-1.41c3.37-1.78,7.42-2.71,9.88-3.52a68.54,68.54,0,0,1,11.51-3,29.85,29.85,0,0,1,11,0c-0.59,1.4-.12,1.78.51,2s1.44,0.27,1.56,1c1.42,0.28-.05-2.08-0.63-2.19-0.15-1.07,4.41.32,2.08,1.53,3.15-1.35,4.52-.91,8.57,0-0.51.59-1,1.18-.18,1.43-0.12,1.06-4.26.58-.88,1.35-0.27.89-2.17,0.71-2.08-.23C4189.95,3722,4193,3722.57,4193.93,3723Zm-83.46-23.47c-2-.41-3.78-0.08-4.79,1.66,0.9,0.65,2.5-.06,3.7-0.8S4111.37,3698.92,4110.47,3699.53Z" transform="translate(-3977.68 -3629.62)"/><path class="cls-2" d="M4078.72,3730.2a1.86,1.86,0,0,0-.14,1A7.32,7.32,0,0,0,4078.72,3730.2Z" transform="translate(-3977.68 -3629.62)"/></g><circle class="cls-5" cx="4288.38" cy="3723.4" r="84.49" transform="translate(-5250.02 1248.02) rotate(-52.69)"/><path class="cls-5" d="M4236.22,3792.92c-0.63-.5-0.65,0-0.79,0C4236.58,3793.63,4236.25,3792.81,4236.22,3792.92Z" transform="translate(-3977.68 -3629.62)"/><polygon class="cls-5" points="270.2 169.62 269.91 169.66 271.83 170.18 270.2 169.62"/><path class="cls-5" d="M4259.1,3804.26c-0.83-1.1-4.21-1.46-6.1-2.66l-0.26-.3-1.14.11c1.24,0.5,2.67,1.07,4,1.52A27.69,27.69,0,0,1,4259.1,3804.26Z" transform="translate(-3977.68 -3629.62)"/><path class="cls-5" d="M4264.95,3807.73c-0.32-.38,1.45.16-1.48-0.51l0.25,0.14C4264,3807.44,4264.34,3807.54,4264.95,3807.73Z" transform="translate(-3977.68 -3629.62)"/><path class="cls-5" d="M4263.72,3807.37c-1.28-.34.77,0.46,0,0h0Z" transform="translate(-3977.68 -3629.62)"/><path class="cls-5" d="M4269.66,3808.72l-1.75-.15c0.32,0.24,1.82.63,1.23,0.61C4270.92,3809.46,4270.59,3809.21,4269.66,3808.72Z" transform="translate(-3977.68 -3629.62)"/><path class="cls-5" d="M4271.37,3808.56l-0.45,0-0.45,0A1.05,1.05,0,0,0,4271.37,3808.56Z" transform="translate(-3977.68 -3629.62)"/><path class="cls-5" d="M4268.57,3808.27l1.9,0.21c-0.22-.17-0.2-0.4-0.87-0.12C4269.8,3808.19,4269.39,3808.31,4268.57,3808.27Z" transform="translate(-3977.68 -3629.62)"/><path class="cls-5" d="M4267.55,3807.92c-0.91-.36-2.08-0.8-0.35-0.59C4264,3806.55,4264.31,3807.19,4267.55,3807.92Z" transform="translate(-3977.68 -3629.62)"/><path class="cls-5" d="M4259.94,3803.77l-0.57-.3c-0.28-.15-0.56-0.32-0.56-0.32l-1.11-.18a7.34,7.34,0,0,1,1.31.54A1.35,1.35,0,0,0,4259.94,3803.77Z" transform="translate(-3977.68 -3629.62)"/><path class="cls-5" d="M4280.3,3810.74a2.35,2.35,0,0,0-.65-0.65s-0.32,0-.65,0h-0.64A6.76,6.76,0,0,1,4280.3,3810.74Z" transform="translate(-3977.68 -3629.62)"/><path class="cls-5" d="M4279.65,3810.09l1.93-.1C4279.88,3809.81,4279.56,3809.91,4279.65,3810.09Z" transform="translate(-3977.68 -3629.62)"/><path class="cls-5" d="M4271.82,3807.83s-0.79,0-1.58,0l-1.58-.08,1.87,0.15c0.46,0,.94,0,1.29.06l0.59,0Z" transform="translate(-3977.68 -3629.62)"/><path class="cls-5" d="M4287.64,3811.14l-1.1.32,1-.23,1-.28Z" transform="translate(-3977.68 -3629.62)"/><path class="cls-5" d="M4292.52,3811c-0.79.34,1.13,0.42,0.29,0.66a17,17,0,0,0,3.44-.76A12.45,12.45,0,0,1,4292.52,3811Z" transform="translate(-3977.68 -3629.62)"/><path class="cls-5" d="M4297.91,3810.35c-0.53.13-1.07,0.31-1.67,0.51A10.48,10.48,0,0,0,4297.91,3810.35Z" transform="translate(-3977.68 -3629.62)"/><path class="cls-5" d="M4284.81,3810.25a2.76,2.76,0,0,0,1.49.48l-0.74-.45Z" transform="translate(-3977.68 -3629.62)"/><path class="cls-5" d="M4285.54,3810.27h0l1.62,0.08Z" transform="translate(-3977.68 -3629.62)"/><path class="cls-5" d="M4284.62,3810.24h0.19A0.14,0.14,0,0,0,4284.62,3810.24Z" transform="translate(-3977.68 -3629.62)"/><path class="cls-5" d="M4276.66,3809c1.14-.09,3.45-0.05,1.28-0.7C4277.12,3808.51,4278.36,3808.88,4276.66,3809Z" transform="translate(-3977.68 -3629.62)"/><path class="cls-5" d="M4283.72,3809.68s-0.5,0-1-.11l-1-.13c0,0.12.38,0.31-.18,0.38l1.09-.06C4283.17,3809.73,4283.72,3809.68,4283.72,3809.68Z" transform="translate(-3977.68 -3629.62)"/><polygon class="cls-5" points="307.04 179.96 306.04 180.06 306.79 180.12 307.04 179.96"/><path class="cls-5" d="M4294.41,3810.27a28.78,28.78,0,0,1,2.89-.48l-3.49.16C4293.65,3810.09,4293.17,3810.36,4294.41,3810.27Z" transform="translate(-3977.68 -3629.62)"/><path class="cls-5" d="M4290.09,3810.34l0.19,0C4290.17,3810.28,4290.07,3810.27,4290.09,3810.34Z" transform="translate(-3977.68 -3629.62)"/><path class="cls-5" d="M4307.79,3808.07l-0.18,0s0,0.05,0,.08Z" transform="translate(-3977.68 -3629.62)"/><path class="cls-5" d="M4293.6,3809.88a4.86,4.86,0,0,0-1.87.27c0.65-.08,1.33-0.15,2.07-0.2C4293.87,3809.88,4293.88,3809.84,4293.6,3809.88Z" transform="translate(-3977.68 -3629.62)"/><path class="cls-5" d="M4300.85,3809.79l-1.53,0A3.32,3.32,0,0,0,4300.85,3809.79Z" transform="translate(-3977.68 -3629.62)"/><path class="cls-5" d="M4290.58,3810.43l-0.13,0C4290.74,3810.54,4290.71,3810.49,4290.58,3810.43Z" transform="translate(-3977.68 -3629.62)"/><path class="cls-5" d="M4290.58,3810.43a8.45,8.45,0,0,0,1.15-.28c-0.53,0-1,.1-1.44.17A1.53,1.53,0,0,1,4290.58,3810.43Z" transform="translate(-3977.68 -3629.62)"/><path class="cls-5" d="M4310.2,3804.63c0,0.39-2.1,1.4-4.09,1.33-1.79.68-.34,1.71,1.49,2.07,0-.19,0-0.3,1.86-1-0.72,0-4.4.47-2.84-.22a7.64,7.64,0,0,1,3.39-.46c-1.16-.2,3-1.53,2.25-2.11,0,0-.52.25-1,0.44l-1.06.41C4310.09,3804.95,4310.84,3804.57,4310.2,3804.63Z" transform="translate(-3977.68 -3629.62)"/><path class="cls-5" d="M4303.86,3808.75l-0.8.18a24.51,24.51,0,0,1,2.9,0c1.31-.47,1.55-0.67,1.62-0.82l-2,.39-1.37.27-0.63.1Z" transform="translate(-3977.68 -3629.62)"/><path class="cls-5" d="M4299.41,3809.49c0.59-.47,2.49-1,1.24-1.26-2.36.37-1.61,0.56-3,.92,3.84-.53-1.08.36,1.74,0.29-0.75.16-1.43,0.26-2.08,0.35,0.7,0,1.38,0,2,0l-0.09,0h0c-0.17,0-.23-0.06,0-0.05l0.08,0a0.46,0.46,0,0,1,.15-0.18c1.13,0,.19.09-0.15,0.18a0.28,0.28,0,0,0,0,.07h0s1-.16,1.92-0.39l1.91-.42C4302.23,3809,4301.22,3809.21,4299.41,3809.49Z" transform="translate(-3977.68 -3629.62)"/><path class="cls-5" d="M4280.07,3807.63c0.11,0,.11.08,0.11,0.11C4280.43,3807.71,4280.53,3807.68,4280.07,3807.63Z" transform="translate(-3977.68 -3629.62)"/><path class="cls-5" d="M4281.61,3808a3.31,3.31,0,0,1-1.42.07c-0.77-.19,0-0.21,0-0.35-0.55.08-1.93,0.13-.25,0.5l0.28,0a10.19,10.19,0,0,1,3.2,1A5.5,5.5,0,0,0,4281.61,3808Z" transform="translate(-3977.68 -3629.62)"/><path class="cls-5" d="M4290.53,3809.1l0.5,0c0.3,0,.7-0.05,1.1-0.11l1.59-.21-1.65-.27,0.09,0.22C4290.35,3808.68,4290.75,3808.91,4290.53,3809.1Z" transform="translate(-3977.68 -3629.62)"/><path class="cls-5" d="M4308.2,3808.2l-0.32.53s0.43-.24.85-0.53l0.84-.55Z" transform="translate(-3977.68 -3629.62)"/><path class="cls-5" d="M4312.29,3807.09l0,0.42,0.51-.27,0.5-.28Z" transform="translate(-3977.68 -3629.62)"/><path class="cls-5" d="M4297.93,3641.85H4297A8.65,8.65,0,0,0,4297.93,3641.85Z" transform="translate(-3977.68 -3629.62)"/><path class="cls-5" d="M4304.39,3642.88l0.2-.16C4304.27,3642.77,4304.13,3642.83,4304.39,3642.88Z" transform="translate(-3977.68 -3629.62)"/><path class="cls-5" d="M4375,3731.83c0.48-1.35,1.18-2.88.72-2.74l-0.47.4A10.18,10.18,0,0,1,4375,3731.83Z" transform="translate(-3977.68 -3629.62)"/><path class="cls-5" d="M4351.74,3667.65l0.17,0.38,0.9,0.43C4352.49,3668.21,4352.14,3667.92,4351.74,3667.65Z" transform="translate(-3977.68 -3629.62)"/><path class="cls-5" d="M4349.77,3668.15l-1-1.48A14.28,14.28,0,0,0,4349.77,3668.15Z" transform="translate(-3977.68 -3629.62)"/><path class="cls-5" d="M4262.8,3645.86l-0.43.36-0.42.38C4263.49,3646.09,4262.75,3646.12,4262.8,3645.86Z" transform="translate(-3977.68 -3629.62)"/><path class="cls-5" d="M4349.27,3785.35a25.58,25.58,0,0,0,2.29-2C4350.37,3784.26,4349.29,3784.82,4349.27,3785.35Z" transform="translate(-3977.68 -3629.62)"/><path class="cls-5" d="M4301.16,3637.62a1,1,0,0,0-.85.16C4300.92,3637.78,4301.27,3637.75,4301.16,3637.62Z" transform="translate(-3977.68 -3629.62)"/><path class="cls-5" d="M4353.9,3780.81c-0.17.13-.33,0.27-0.5,0.41a18.43,18.43,0,0,1-1.83,2.18A7.74,7.74,0,0,0,4353.9,3780.81Z" transform="translate(-3977.68 -3629.62)"/><path class="cls-5" d="M4210.69,3749.69c0,0.1,0,.2.05,0.29S4210.76,3749.86,4210.69,3749.69Z" transform="translate(-3977.68 -3629.62)"/><path class="cls-5" d="M4227.34,3784.52c-0.3-.26-0.75-0.7-1.19-1.12A10.54,10.54,0,0,0,4227.34,3784.52Z" transform="translate(-3977.68 -3629.62)"/><path class="cls-5" d="M4328.21,3801c-0.79.43-.1,0.12,0,0h0Z" transform="translate(-3977.68 -3629.62)"/><path class="cls-5" d="M4323.56,3801.35a0.45,0.45,0,0,0,.23-0.34A0.6,0.6,0,0,1,4323.56,3801.35Z" transform="translate(-3977.68 -3629.62)"/><path class="cls-5" d="M4357.24,3772.22l0-.06C4357.06,3772.32,4357.1,3772.29,4357.24,3772.22Z" transform="translate(-3977.68 -3629.62)"/><path class="cls-5" d="M4326.9,3801.43c0.33-.1.7-0.22,1.09-0.38C4327.82,3801.1,4327.48,3801.21,4326.9,3801.43Z" transform="translate(-3977.68 -3629.62)"/><path class="cls-5" d="M4327.16,3801.54l-0.73.3C4326.36,3802,4326.47,3801.95,4327.16,3801.54Z" transform="translate(-3977.68 -3629.62)"/><path class="cls-5" d="M4329.3,3800.39c-0.45.25-.88,0.46-1.3,0.65,0.17-.06.25-0.07,0.21,0Z" transform="translate(-3977.68 -3629.62)"/><path class="cls-5" d="M4216.19,3682.12l-0.13.14C4215.79,3683.1,4216,3682.75,4216.19,3682.12Z" transform="translate(-3977.68 -3629.62)"/><path class="cls-5" d="M4369.63,3709.32l0,0.09s0-.09,0-0.13Z" transform="translate(-3977.68 -3629.62)"/><path class="cls-5" d="M4368.73,3706.38a4.67,4.67,0,0,1,.93,2.9l0.54-.61,0.53-.62Z" transform="translate(-3977.68 -3629.62)"/><path class="cls-5" d="M4282.3,3641.65l2.15,0.26c-2.52.79-4.36,0.71-2.35,1.12,0.09-.66,2.15-0.9,4.2-1,1,0,2.06-.07,2.85-0.18s1.35-.23,1.43-0.57l1.4,0.33c-0.4,0-.47.05-0.87,0,2.69,0.73,2.08-.9,5.61-0.43,1.22,0.23,2,.56,1.2.6l2.77,0c0.79,0.14.56,0.34-.23,0.21l0.65,0.07,1.42,0.22,2.07,0.32,0,0a20.48,20.48,0,0,1,2.71-.1c1,0.43-.56,0-0.33.25l1.18,0.1L4309,3643l0.37,0c0.41,0.3.13,0.4-.44,0.37a10.22,10.22,0,0,1-2.23-.34,2.6,2.6,0,0,0,2.19,1,9.9,9.9,0,0,1,4.06,1.18l-0.33-.08-0.74-.15-1.07-.21a6.66,6.66,0,0,0,2.11,1.24,29.19,29.19,0,0,1,2.86,1.36c-0.44-.41-4.27-2.71-1.79-2.24a8.85,8.85,0,0,0,2.89.85c-0.15.46,1.12,0.83,2.67,1.41l-0.35.55a10.43,10.43,0,0,0,2.79.33c1.8,0.88,2,1.49,2.19,2.09,2.78,1.54-1.61-1.72,1.81-.1,0.56,0.36,1.1.66,1.63,0.94s1,0.57,1.57.84c1.07,0.53,2.27,1,3.7,1.73,1.45,1.2-.49.15,0,0.67l1.67,0.47c0.33,0.23.14,0.29,0,.32,1.27,0.62.46-.47,2.35,0.68,0.44-.1,1.24.75,2.19,1.8a11.16,11.16,0,0,0,3.38,2.86c0.38,0.58-.5.08-0.51,0.41,3.13,2.08,2.66,1.8,5.34,3.47l0.79,1.07c0.39,0.54.74,1.1,0.74,1.1-1-1.75,1.12-.33,3,1-0.3-.67-0.55-1.24-0.75-1.6l1.32,1.18c0.65,0.6,1.27,1.24,1.27,1.24,0.19,0.4-.2.26-0.77,0l0.53,0.4c0.62,1.12-.08.85-0.92,0.4l-0.5-1.22c-0.88-.38-1.74-0.68-1.89-0.3a5.69,5.69,0,0,1,.89.72c-0.23-.09-0.4-0.14-0.37,0a3.29,3.29,0,0,0,.87.62l0,1.06,0.34,0,1.26,1.87c0.33,0.46.6,1,.82,1.31l0.36,0.6c0.62,0.53,1.25,1,1.89,1.55s1.24,1.1,1.89,1.72a19.2,19.2,0,0,1,2,2.12,26.58,26.58,0,0,1,2.08,2.83c-1.07-.88-0.87.18-1.45,0.42a5.26,5.26,0,0,0-1.35-2.5c-0.69-.93-1.58-1.9-2.27-3,0.71,1.18.3,1.09,0,.86l0.49,0.56c0.3,0.33.68,0.78,1,1.25l1.48,1.86c-0.49.16,0.2,1,.58,2.23,0.22-.65.78,0,1.44,1.1s1.31,2.51,1.89,3.31c-0.25.25-.76,0-1.7-2.16,0.41,2.65,2.56,2.49,2.94,5.13a2,2,0,0,0-.55-1,11.43,11.43,0,0,1,1.15,2.46c0.28,0.85.35,1.49,0.09,1.18l-0.2-.53,2.39,6.88c0.78,2.36,1.53,4.34,2,4.52a3.56,3.56,0,0,1-1.33-.44s0.29,0.36.67,0.93l1.44,2.09c0.54,0.77,1,1.56,1.39,2.16l0.61,1c-0.82-.48-2.18,2-3.08-1a16.65,16.65,0,0,0,.6,3.87c0-.62.87-1.67,1-0.83a37.17,37.17,0,0,0-.66,4.57c0.1-.93,1.3,0,1.36,1.48-0.19-.22-1.12.19-1.27-0.34l0.68,1.78c0.32,0.9.6,1.81,0.6,1.81-0.22-.91-1-0.13-1.26.68,0.11-.19.11,0.59,0.11,1.54s-0.11,2.07-.07,2.55l0.31-1.53c-0.3,4.08,1.43,4.14,1,8.28-0.17-.53-1.26-1.37-1.67.66a16.4,16.4,0,0,1,1.79,8.38l-0.48.62-0.14,1.44c-0.07.72-.19,1.43-0.19,1.43-0.14-1-.45-2.79-0.68-4.66s-0.59-3.84-.7-5.18c-0.51,1.47-.46.36-0.83,2.61-0.44.73-.24-1.31-0.14-2l-0.56,2.58c-0.13.65-.32,1.28-0.44,1.76l-0.22.8c0.35,0,.29,1,0.21,2s-0.27,2,0,2l0.14-.9c0.1-.54.2-1.26,0.26-2l0.31-2.89c0.35,0,.63.86,0.7,2.27a12.89,12.89,0,0,1-.1,2.4,18.12,18.12,0,0,1-.63,2.72c-0.52.86-.95-1-1.19-1a7.47,7.47,0,0,1-.3,2,7.76,7.76,0,0,1-.62,1.82l0.17-1.63a8.63,8.63,0,0,0-.64,2.76,6.36,6.36,0,0,1-1.15,2.93c-0.33.81-1.8,2.06-1.5,2.35,1.28-1,3.6-.34,3.72.79l-1.48,2.22a18.09,18.09,0,0,1-2,2.52c-1.2,1-.27-2.6-1.31-1.73a2.59,2.59,0,0,1-.11,1.27c-0.56.75-.33-0.6-1.17,1.22,0.44,0.62-2.09,3.5,0,1.1a27.28,27.28,0,0,1-2.35,3.72c0.76-.4.17,2.58-0.85,4.34-0.07-.2-0.52,0-0.73.16-0.61.82-1.17,1.53-1.69,2.19s-1.07,1.21-1.58,1.78l-1.55,1.73c-0.56.58-1.14,1.2-1.77,1.91-0.35.16-1.72,1.37-1.41,0.6a7.59,7.59,0,0,1-1.28,1.83c-2,1.19,1.75-1.91,0-1.18,0.17,0.36-1.68,2.56-2.77,3.82a3.44,3.44,0,0,0,1.87-1.41c0.72-.85,1.47-1.87,2-2.54,0.31,0.29.12,1.1-.48,2.24a15.27,15.27,0,0,1-1.2,1.92c-0.52.68-1.12,1.41-1.8,2.17-2.26,2.3-1.41.5-1.74,1a20.35,20.35,0,0,0-2.53,2.3,16.41,16.41,0,0,0-1.35,1.57,9,9,0,0,1-3.69,2.94c-2,.67-0.66-0.84-1.24-0.92a16.35,16.35,0,0,1,2.68-1.71,18.7,18.7,0,0,0,2.18-1.35l-1.88,1.09a12.06,12.06,0,0,1,2.7-2.22,12,12,0,0,0-2,1.22l-1.47,1-1.73,1.14c-0.6.39-1.21,0.82-1.84,1.21l-1.92,1.12a27.91,27.91,0,0,1-3.56,1.79c-0.63.54-1.78,1.38-1.1,1.26l1.25-.76c1.39-.26-2.14,1.84-0.42,1.14a31.2,31.2,0,0,1-2.64,1.84c-0.49.31-1,.61-1.58,0.89a17.79,17.79,0,0,1-1.86.72l-0.72-.36a5.26,5.26,0,0,0,2.46-.84c-1,.69-4.21.93-5.13,2.06l1-.14c0.5-.06,1-0.16,1-0.16-0.86.54-1.83,1.11-2.88,1.69a12.45,12.45,0,0,1-3.42,1.34c1.27,0.24.53-.23,2.44-0.1-1.73-.3,6-2.17,3.38-2.18a7,7,0,0,0,2.57-.46,20,20,0,0,1,2.93-.78c-0.15-.15-0.93,0,1-0.8a2.6,2.6,0,0,1,.34-0.36l0.13,0-0.12,0c0.07-.07.07-0.08,0,0a3.4,3.4,0,0,1-1.1.18,11.66,11.66,0,0,1,2.25-1.57c0.93-.6,1.88-1.17,2.31-1.54,1.13-.5-0.34.45,0.36,0.32l0.65-.55,0.63-.59c0.36,0.31,3.21-1.07.83,0.68l2.28-1.35a17.24,17.24,0,0,0,4.27-2.67c1.06-.67,2.23-2.29,1.57-1.36l1.57-1.36,1.51-1.43,0.1,0.06a52.41,52.41,0,0,0,4.56-4.38,46.25,46.25,0,0,1,4.89-4.68c0.41-.55.84-1.11,1.35-1.75s1.06-1.38,1.83-2.24l0.59-.11c0.52-.72,1.36-1.75,2.12-2.69a6.58,6.58,0,0,0,1.45-2.24,5.87,5.87,0,0,0,1.6-1.59,18.7,18.7,0,0,0,1.73-2.73c0.55-1,1.14-2.06,1.61-3.06s0.92-1.9,1.32-2.58l-0.4-.33a26.43,26.43,0,0,0,1.3-3l0.61-1.62c0.2-.57.37-1.17,0.57-1.81h-0.48a28.46,28.46,0,0,1,1.49-4l1-2.36c0.3-.83.57-1.69,0.81-2.56a3.85,3.85,0,0,1-.47,1.75,13.86,13.86,0,0,0,1.21-3.1,32.55,32.55,0,0,0,.55-3.33c0.17-1.1.21-2.22,0.37-3.27a19.15,19.15,0,0,1,.66-3,6.76,6.76,0,0,1,.31-2.35,1.35,1.35,0,0,0,0,.24l0.06-.4a13.52,13.52,0,0,0,.38-1.33c-0.14.4-.26,0.78-0.35,1.11a27.1,27.1,0,0,0,.08-3l0.52-.44v-0.26c0.27-1.09-.16-0.89-0.57-0.33a7.66,7.66,0,0,0-.22-1.49c0.79-.86-0.12-2.92.66-4.12a16.27,16.27,0,0,1-.46-3.15c-0.21-1.37-.49-2.71-0.93-3,0.11,0,.14-0.37.18,0.22a10.23,10.23,0,0,0-.37-3.55l0.55-.59-0.56-1.29-0.62-1.27c0.11-1.66.22-2.39,0.94-.85-0.65-1.9-.88-2.66-1.11-3.36a19.19,19.19,0,0,0-1.12-2.87l0.43,0.07c-0.31-1.16-1.3-2.86-1.17-3.64,0-1.38-.94-4.57-2.3-8.16s-3.25-7.53-4.65-10.7c-0.2.87-.45,0.1-0.8-0.85s-0.83-2.07-1.29-2c0-.49-0.34-1.4.44-0.56-1-1.46-1.71-2.58-2.32-3.61a8.06,8.06,0,0,0-2.3-2.61c0-.49.78,0.36,0.69,0a3.32,3.32,0,0,1-1-1.15c-0.09-.39.5,0.27,0.93,0.65a13.09,13.09,0,0,0-1.43-1.62,4,4,0,0,0-1.09-.7,1.72,1.72,0,0,0-1.42.06,8.55,8.55,0,0,0-1.22-1.84,5.47,5.47,0,0,0-1.56-1c-0.23-.64-0.75-1.6.83,0l-1.12-1.32-0.82-.95-0.93-1c-1.26-1.25-2.47-2.35-2.75-2.14a6.09,6.09,0,0,0-1.57-1.36c-1-1-1.59-1.47-2.18-1.94s-1.17-1-2.26-1.79l0.53,0.56c-1.3-.09-1.91-1.25-3.76-2.47l0.1,0a16.12,16.12,0,0,0-2-1.61,7.22,7.22,0,0,0-.92-0.54,6.28,6.28,0,0,1-.9-0.54l-2-1.52v0.55c-0.47.33-1.34-.35-2.44-1.26a15.49,15.49,0,0,0-3.91-2.4l0.81,0.72a7,7,0,0,1-2.47-1.81,11.25,11.25,0,0,0-2.42-2.08c-0.3-.21.58,0.06,1.05,0.2-3.71-2.14-.75.37-3.72-0.64-0.43-.52,1-0.56-1-1.34a18.29,18.29,0,0,0-3.76-.87,19.81,19.81,0,0,1-5.06-1.29c0.56,0.4,1.11.79-.36,0.66-2.16-.45-5.72-2.22-7.85-1.67a0.51,0.51,0,0,1-.37-0.25c-0.86,0-2.24-.13-3.55-0.11a13,13,0,0,0-3,.24,3.28,3.28,0,0,0-2.28-.69,20.62,20.62,0,0,0-3.56.13c-1.22.14-2.38,0.24-3.24,0.28s-1.42-.05-1.43-0.44c0,0-1.31.09-2.61,0.22l-2.6.33,0.12-.17a15.59,15.59,0,0,0-3.62.66,10,10,0,0,0-1.92.82c-0.77.06-.25-0.2-0.2-0.29a28.17,28.17,0,0,0-4.95,1,23.12,23.12,0,0,0-4.09,1.82l-0.55-.35c-1,.53-7,1.49-11.13,4.1a0.81,0.81,0,0,1,.38-0.43c-2.33,1.4-5.36,2.58-7.88,3.87s-4.54,2.62-4.84,3.91c0,0-.69.57-1.32,1.21l-1.29,1.24c3.74-2.63-.08,1,1.6.15a10.5,10.5,0,0,1-2.31,1.42c-0.61.29-.86,0.23,0-0.48l0.33-.14c0-1.29-4.62,3.32-4.91,2.8a91.4,91.4,0,0,0-17.24,19.93l0.56-.23c0.27-.12.57-0.22,0.57-0.22s-0.11.15-.25,0.39l-0.52.87-0.76,1.27c-0.54.59-1,.62,0.07-1.2a5.63,5.63,0,0,0-1.33,3.39c-2.16,3.55,0-1.84-.61-0.72l-0.75,1.57,0.25-.31c-0.19.69-.23,1.1-0.36,1.62a16.31,16.31,0,0,1-.91,2.29c-0.79,1.4-.75.57-1,1.13a1.74,1.74,0,0,0-.42.88s-0.11.21-.24,0.54l-0.49,1.19-0.72,1.74,1.09-1.19c-0.35,1.64-1.29,3.25-.07,1.88-0.9,1-2.15,4.26-3,7.51-0.46,1.61-.75,3.24-1.06,4.53a25.47,25.47,0,0,1-.59,2.65c0,0.59,0,1.17-.07,1.75s-0.06,1.18-.12,1.78c-0.11,1.21-.32,2.46-0.43,3.87,0.18-.69.86-1,0.58,1.36-0.62-.49-0.9.6-1,2.07a16.77,16.77,0,0,1-.73,4.29c0.31-.89.37,0.86,0.47,2.47s0.35,3.08.7,1.68c0,2-.49.15-0.71,1.71,0.84,4.79.85,10.71,2.6,16.52,0.19,0,.2-1,0.78.18v0.51c0,0.31,0,.72,0,1.13l0.05,1.65c0.46,1.11,1.24.75,1.41,3,0-.34.09-0.84,0.41-0.11a61.07,61.07,0,0,0,7.53,16.17c3.22,5.1,6.87,9.88,10.42,14.78-0.85-1.43-.09-0.65.75,0.25-0.49-.65.32-0.29,0.39-0.57l0.48,0.62,1.06,1.36,1.07,1.37c0.29,0.38.51,0.6,0.51,0.6a7.59,7.59,0,0,1,2.54,1.79c1,0.86,2,1.59,2.36,1.52l-1.3-.9c1.06,0.37.74-.41,0.3-1.35s-1-2.08-.54-2.34a4.58,4.58,0,0,1-1.58-1.17c-0.49-.54-0.95-1.22-1.46-1.9a13.25,13.25,0,0,0-3.81-3.83c-0.41-.73.7,0.31,0.57-0.16-1-.4-1.74-1.25-2.95-3l0.23,0.12a37.61,37.61,0,0,1-2.39-3.11,32,32,0,0,1-1.82-2.82c-0.57-.95-1.14-1.91-1.71-3s-1.27-2.34-2-3.84l-0.18.66a11.6,11.6,0,0,1-.85-2.26c-1.42-1.11,1.87,3.54.46,2.61a7.06,7.06,0,0,0-.77-2.31l-1.47-3.2a26.49,26.49,0,0,1-1.26-3.15,3.75,3.75,0,0,1-.31-2.07c-0.74-2.06-.29.8-1-1.26l0.08-.65-0.55-.39c-0.45-1.37-.25-2.2,0-2.32a12.56,12.56,0,0,0,.49,1.27,15.84,15.84,0,0,0-.92-3.26,16.31,16.31,0,0,1-.73-2.36l0.17,1c0.09,0.52.18,1,.18,1-2-5.67-2.72-12.94-3.58-18.67l-0.2.45a14.63,14.63,0,0,1-.24-2.5,15.46,15.46,0,0,1,.06-1.55c0.05-.94.2-1.93,0.19-4.37l0,0.18a12.4,12.4,0,0,1-.07-3.62c0.16,1.24.69-2.25,0.85-.62a22.39,22.39,0,0,0,0-3.4,9.25,9.25,0,0,1-.41-2.26l0.5-.66a8.07,8.07,0,0,1,.1-3.67c-0.14,2,.9-1.4.81,0.87a18.58,18.58,0,0,0,1-3.22c0.22-1,.39-1.8.52-2.56a6,6,0,0,1,1.48-3.63c-0.11-1.27-.6-0.28-1,0.88s-0.73,2.49-.67,1.83c-0.31.48-.36,0-0.27-0.87a13.55,13.55,0,0,1,.73-2.71,7.12,7.12,0,0,1,1.48-2.15,12.51,12.51,0,0,0,1.06-1.5c0.18-.31.37-0.65,0.56-1s0.41-.79.62-1.26c-0.17.37-.11,0.42-0.28,0.79a8.88,8.88,0,0,0,.92-2.11,12.18,12.18,0,0,1,.45-1.14,6.26,6.26,0,0,1,.75-1.12c-0.07-1.22,1.14-2.14.58-2.79l-1.56,3.43c0.39-1,.61-2,1-3.22a13.16,13.16,0,0,1,2.08-3.85,10.18,10.18,0,0,1-.61,2c0.73-.77.83-1.81,1.63-2.58,0.24,0.33-.31,1.33-1,2.54-0.34.6-.72,1.26-1,1.9a10.16,10.16,0,0,0-.67,1.89,9.13,9.13,0,0,0,1.07-2.16c0.33-.72.58-1.18,0.66-0.47a4.69,4.69,0,0,1,1.1-2.79,10.63,10.63,0,0,0,1.86-3.34l0.29,0.42a8.46,8.46,0,0,1,1-1.92l-0.35,1.53c0.88-2.1,2.85-3.22,4-5-1.39,1.74-1.65,1.85-1.76,1.68s-0.06-.64-0.76,0c3-4.75,2.87-1.79,6.78-6.5-0.52.64-2.29,2.14-1.59,1a13.19,13.19,0,0,1,2.74-2.14c2.79-3-.79.1,0.23-1.34,1.37-.6,1.28-1.56,2.49-2.93l0.33,0.35a15.38,15.38,0,0,0,1.66-1.49,1.09,1.09,0,0,0,.31-0.67c0-.35,0-0.65,1.79-1.86l-1,1.66,0.79-.77,0.54-.53,0.26-.23,0,0.71a15.43,15.43,0,0,1,2-1.87,18.35,18.35,0,0,1,2.28-1.46c-0.64,0-.24-0.89,1.48-2.07,1.35-.52-0.44.79,2-0.8a3.3,3.3,0,0,1-2.13,1.62c0,0.21-.37.62-0.4,0.82a34.78,34.78,0,0,0,4.14-2.52,6.58,6.58,0,0,1-1,.49l1.65-1.38,1.71-1.3c0.68-.16.27,0.22-0.12,0.6a24.73,24.73,0,0,1,2.26-1.55c-0.12.5,0.12,0.8-1.35,1.81l0.52-.36c0.31-.22.73-0.51,1.16-0.76l1.72-1.06c0.31,0,2.06-.45,1.65-0.1a19.62,19.62,0,0,0,3.52-1.75,17.39,17.39,0,0,1,4.15-1.69,3.46,3.46,0,0,1,1-.52c0.67-.19,1.33-0.34,2-0.5l2-.38c0.67-.14,1.35-0.31,2.06-0.51a19,19,0,0,0,2.24-.71l1,0.15c0.49,0.07,1,.18,1,0.18,2.52-.56-2.66-0.47,1.55-1.41,3-.7,1.21.41,2.3,0.46a27.41,27.41,0,0,1,2.91-.93,11.27,11.27,0,0,1,4-.17C4283.9,3641.61,4283.16,3641.55,4282.3,3641.65Zm31.57,3.49c-0.31-.05-0.78-0.1-1.22-0.19a1.87,1.87,0,0,1-1-.37C4312.47,3644.24,4312.93,3644.64,4313.87,3645.14Zm40.24,26.79a4.4,4.4,0,0,1-1.19-1.62A7.82,7.82,0,0,1,4354.11,3671.93Zm-17.62,123.75,0-.06C4337.85,3795,4337.38,3795.19,4336.49,3795.68Zm-2.66,1.46c-0.23.21-.17,0.26,0,0.25a4.79,4.79,0,0,1,1.37-.95A2.56,2.56,0,0,0,4333.83,3797.14ZM4209.09,3689l0.36-.48C4209,3689.79,4209.07,3689.4,4209.09,3689Z" transform="translate(-3977.68 -3629.62)"/><path class="cls-5" d="M4350,3668.1a0.46,0.46,0,0,1,0-.37C4349.79,3667.6,4349.72,3667.66,4350,3668.1Z" transform="translate(-3977.68 -3629.62)"/><path class="cls-5" d="M4263,3645.73l-0.09,0a0.22,0.22,0,0,0-.07.11Z" transform="translate(-3977.68 -3629.62)"/><path class="cls-5" d="M4361.67,3761.31a4.36,4.36,0,0,1,.75-0.91C4362.33,3760.32,4362.11,3760.52,4361.67,3761.31Z" transform="translate(-3977.68 -3629.62)"/><path class="cls-5" d="M4319.78,3805s0.45-.18.89-0.41l0.88-.44a5.7,5.7,0,0,1-1.69.51C4319.94,3804.76,4320.35,3804.79,4319.78,3805Z" transform="translate(-3977.68 -3629.62)"/><path class="cls-5" d="M4302.92,3806.57c-0.26.1-.58,0.1-0.84,0.2l0.11,0.21C4303.36,3806.78,4304.14,3806.48,4302.92,3806.57Z" transform="translate(-3977.68 -3629.62)"/><path class="cls-5" d="M4317.53,3804.12c-0.29-.35-1.35.25-2.61,0.7l0.23-.07C4314.94,3805.41,4316.26,3804.8,4317.53,3804.12Z" transform="translate(-3977.68 -3629.62)"/><path class="cls-5" d="M4314.63,3804.92c-0.39.14-.79,0.28-1.18,0.38C4313.36,3805.56,4313.94,3805.19,4314.63,3804.92Z" transform="translate(-3977.68 -3629.62)"/><path class="cls-5" d="M4330.65,3799.31c-0.62.22-.11,0.65-0.51,0.68C4329.77,3800.8,4333.62,3797.37,4330.65,3799.31Z" transform="translate(-3977.68 -3629.62)"/><polygon class="cls-5" points="338.4 173.61 339.01 173.92 339.57 173.28 338.4 173.61"/><path class="cls-5" d="M4325.88,3799.53l-2,.79a0.7,0.7,0,0,1-.44.4A11.48,11.48,0,0,0,4325.88,3799.53Z" transform="translate(-3977.68 -3629.62)"/><path class="cls-5" d="M4323.46,3800.72a10.72,10.72,0,0,0-1.54.75A15.07,15.07,0,0,0,4323.46,3800.72Z" transform="translate(-3977.68 -3629.62)"/><path class="cls-5" d="M4318.73,3802.1l0.62-.12,1.39-.54-1,.34C4319.25,3802,4318.73,3802.1,4318.73,3802.1Z" transform="translate(-3977.68 -3629.62)"/><path class="cls-5" d="M4344.83,3786.89l1.61-1.68c0.06-.28-0.48.07-1.07,0.7C4345.05,3786.38,4344.46,3787,4344.83,3786.89Z" transform="translate(-3977.68 -3629.62)"/><path class="cls-5" d="M4338.57,3790.24a2.55,2.55,0,0,1,1-.3l-0.32-.53Z" transform="translate(-3977.68 -3629.62)"/><path class="cls-5" d="M4343.64,3785.93c0.06-.29,2.1-2.6,0-0.62C4343.61,3785.6,4342,3787.21,4343.64,3785.93Z" transform="translate(-3977.68 -3629.62)"/><polygon class="cls-5" points="387.08 129.29 386.85 129.83 387.81 130.19 387.08 129.29"/><path class="cls-5" d="M4370,3729.31c-0.46,2.62.59,0.68,0.07,3,0.19,0.65.43-1.93,0.57-1.28C4370.47,3729.45,4370.68,3728.62,4370,3729.31Z" transform="translate(-3977.68 -3629.62)"/><path class="cls-5" d="M4370.59,3731.08c0,0.26,0,.54.09,0.84A5.34,5.34,0,0,0,4370.59,3731.08Z" transform="translate(-3977.68 -3629.62)"/><path class="cls-5" d="M4231.82,3789.41s0.3,0.35.62,0.67l0.64,0.65-0.69-1Z" transform="translate(-3977.68 -3629.62)"/><path class="cls-5" d="M4235,3791l-0.07.78,1.2,0.21A4.23,4.23,0,0,1,4235,3791Z" transform="translate(-3977.68 -3629.62)"/><path class="cls-5" d="M4317.88,3648l0.18-.1a3.14,3.14,0,0,0-1.28-.73Z" transform="translate(-3977.68 -3629.62)"/><polygon class="cls-5" points="318.06 12.65 318.45 12.69 317.76 12.05 318.06 12.65"/><path class="cls-5" d="M4276.58,3643.56c0.77-.12,1.67-0.34,2.45-0.4C4277.35,3643.42,4276.27,3642.87,4276.58,3643.56Z" transform="translate(-3977.68 -3629.62)"/><circle class="cls-5" cx="4288.78" cy="3721.69" r="84.49" transform="translate(-5248.5 1247.66) rotate(-52.69)"/><path class="cls-6" d="M4342.41,3650.23c0.63,0.54.89-.3,1.09-0.34C4342.25,3649.22,4342.31,3650.43,4342.41,3650.23Z" transform="translate(-3977.68 -3629.62)"/><polygon class="cls-6" points="352.32 14.94 352.69 14.75 350.55 14.59 352.32 14.94"/><path class="cls-6" d="M4318.57,3639.43c0.59,1.77,4.32,1.38,6.15,2.83l0.2,0.45,1.4-.63c-1.29-.47-2.79-0.94-4.21-1.33A13.86,13.86,0,0,1,4318.57,3639.43Z" transform="translate(-3977.68 -3629.62)"/><path class="cls-6" d="M4313,3634.44c0.26,0.65-1.57.05,1.5,0.61a2.35,2.35,0,0,1-.24-0.21C4314,3634.76,4313.65,3634.66,4313,3634.44Z" transform="translate(-3977.68 -3629.62)"/><path class="cls-6" d="M4314.29,3634.83c1.33,0.33-.73-0.69,0,0h0Z" transform="translate(-3977.68 -3629.62)"/><path class="cls-6" d="M4308.12,3633.58l1.86-.08c-0.29-.4-1.85-0.84-1.21-0.94C4306.9,3632.41,4307.21,3632.82,4308.12,3633.58Z" transform="translate(-3977.68 -3629.62)"/><path class="cls-6" d="M4306.25,3634.24l0.47,0h0.47C4307.07,3634.05,4306.84,3633.94,4306.25,3634.24Z" transform="translate(-3977.68 -3629.62)"/><path class="cls-6" d="M4309.2,3634.23h-2c0.2,0.28.13,0.74,0.91,0C4307.86,3634.64,4308.32,3634.33,4309.2,3634.23Z" transform="translate(-3977.68 -3629.62)"/><path class="cls-6" d="M4310.23,3634.69c0.9,0.51,2.08,1.06.24,1.08,1.65,0.33,2.42.26,2.37,0S4311.91,3635,4310.23,3634.69Z" transform="translate(-3977.68 -3629.62)"/><path class="cls-6" d="M4317.48,3640.62l0.54,0.4c0.27,0.2.52,0.42,0.52,0.42l1.2,0a3.78,3.78,0,0,1-1.32-.57C4317.94,3640.57,4317.51,3640.4,4317.48,3640.62Z" transform="translate(-3977.68 -3629.62)"/><path class="cls-6" d="M4297.16,3631.14c-0.14.29,0.53,0.86,0.62,1.25,0,0,.34-0.07.67-0.11l0.67-.09C4298.48,3631.88,4297.21,3631.6,4297.16,3631.14Z" transform="translate(-3977.68 -3629.62)"/><path class="cls-6" d="M4297.78,3632.39l-2,.36C4297.51,3633,4297.86,3632.73,4297.78,3632.39Z" transform="translate(-3977.68 -3629.62)"/><path class="cls-6" d="M4305.64,3635.74s0.83-.14,1.66-0.22l1.67-.18-2,.12c-0.49,0-1,.08-1.35.12l-0.61.07Z" transform="translate(-3977.68 -3629.62)"/><path class="cls-6" d="M4289.55,3630.71l1.15-.67-1,.5-1,.54Z" transform="translate(-3977.68 -3629.62)"/><path class="cls-6" d="M4284.5,3630.94c0.81-.63-1.2-0.91-0.33-1.33a10.53,10.53,0,0,0-3.55,1.29A7,7,0,0,1,4284.5,3630.94Z" transform="translate(-3977.68 -3629.62)"/><path class="cls-6" d="M4278.92,3631.76a13.4,13.4,0,0,0,1.69-.85A6.47,6.47,0,0,0,4278.92,3631.76Z" transform="translate(-3977.68 -3629.62)"/><path class="cls-6" d="M4292.45,3632.4a2.14,2.14,0,0,0-1.52-.92l0.75,0.88Z" transform="translate(-3977.68 -3629.62)"/><path class="cls-6" d="M4291.71,3632.39l0,0-1.67-.1Z" transform="translate(-3977.68 -3629.62)"/><path class="cls-6" d="M4292.65,3632.41h-0.19C4292.52,3632.49,4292.57,3632.52,4292.65,3632.41Z" transform="translate(-3977.68 -3629.62)"/><path class="cls-6" d="M4300.77,3634.16c-1.2.32-3.57,0.53-1.41,1.55C4300.23,3635.23,4299,3634.65,4300.77,3634.16Z" transform="translate(-3977.68 -3629.62)"/><path class="cls-6" d="M4293.55,3633.51s0.51,0.07,1,.16l1,0.18c0-.23-0.37-0.59.21-0.78l-1.13.21C4294.11,3633.38,4293.55,3633.51,4293.55,3633.51Z" transform="translate(-3977.68 -3629.62)"/><polygon class="cls-6" points="314.85 4.13 315.87 3.9 315.11 3.8 314.85 4.13"/><path class="cls-6" d="M4282.58,3632.23a11.56,11.56,0,0,1-2.95.72c1.2,0,2.43,0,3.59,0C4283.37,3632.63,4283.86,3632.12,4282.58,3632.23Z" transform="translate(-3977.68 -3629.62)"/><path class="cls-6" d="M4287,3632.27l-0.2.05C4286.95,3632.39,4287,3632.41,4287,3632.27Z" transform="translate(-3977.68 -3629.62)"/><path class="cls-6" d="M4268.85,3634.71l0.21,0.12v-0.15Z" transform="translate(-3977.68 -3629.62)"/><path class="cls-6" d="M4283.43,3633.06a2.72,2.72,0,0,0,1.91-.43,18.12,18.12,0,0,1-2.12.28C4283.16,3633,4283.15,3633.12,4283.43,3633.06Z" transform="translate(-3977.68 -3629.62)"/><path class="cls-6" d="M4275.91,3632.53c0.49,0.1,1,.17,1.61.26C4277,3632.56,4276,3632.28,4275.91,3632.53Z" transform="translate(-3977.68 -3629.62)"/><path class="cls-6" d="M4286.51,3632.09l0.13,0C4286.35,3631.87,4286.39,3632,4286.51,3632.09Z" transform="translate(-3977.68 -3629.62)"/><path class="cls-6" d="M4286.51,3632.09a5.43,5.43,0,0,0-1.17.54,10.06,10.06,0,0,0,1.48-.31A1.33,1.33,0,0,1,4286.51,3632.09Z" transform="translate(-3977.68 -3629.62)"/><path class="cls-6" d="M4267.06,3640.82c-0.07-.77,1.92-2.14,4-1.66,1.73-1,0-3.28-2-4.34,0,0.36.07,0.63-1.78,1.6,0.79,0.19,4.58,0,3.08,1.05-2.48.94-2.16,0.23-3.52,0.13,1.29,0.67-2.86,2.24-1.88,3.51,0,0,.5-0.31,1-0.56l1-.53C4267.09,3640.23,4266.4,3640.78,4267.06,3640.82Z" transform="translate(-3977.68 -3629.62)"/><path class="cls-6" d="M4272.9,3634.12l0.82-.23a11.74,11.74,0,0,1-3.08-.51c-1.31.67-1.53,1-1.57,1.29l2-.37,1.41-.25,0.64-.09Z" transform="translate(-3977.68 -3629.62)"/><path class="cls-6" d="M4277.46,3633.32c-0.56.9-2.46,1.62-1.12,2.34,2.39-.4,1.59-0.92,3-1.47-3.91.65,1.08-.6-1.83-0.77a16,16,0,0,1,2.12-.46c-0.73,0-1.43-.08-2.11-0.16l0.1,0h0c0.19,0.09.25,0.15,0,.11l-0.08,0a0.83,0.83,0,0,1-.14.34c-1.17,0-.21-0.2.14-0.34a0.73,0.73,0,0,0,0-.13h0s-1,.22-2,0.51l-1.94.55A25.64,25.64,0,0,0,4277.46,3633.32Z" transform="translate(-3977.68 -3629.62)"/><path class="cls-6" d="M4297.11,3637.32a0.22,0.22,0,0,1-.1-0.21C4296.75,3637.2,4296.65,3637.26,4297.11,3637.32Z" transform="translate(-3977.68 -3629.62)"/><path class="cls-6" d="M4295.59,3636.67a1.91,1.91,0,0,1,1.45-.26c0.76,0.32,0,.41,0,0.7,0.56-.19,2-0.43.3-1l-0.28.09c-1.51-.42-3.46-1.66-3.19-1.75A6.5,6.5,0,0,0,4295.59,3636.67Z" transform="translate(-3977.68 -3629.62)"/><path class="cls-6" d="M4286.6,3634.75l-0.51.07c-0.3,0-.71.1-1.11,0.18l-1.61.31,1.68,0.64-0.1-.44C4286.79,3635.62,4286.38,3635.11,4286.6,3634.75Z" transform="translate(-3977.68 -3629.62)"/><path class="cls-6" d="M4268.38,3634.37l0.23-1s-0.41.4-.8,0.85l-0.79.87Z" transform="translate(-3977.68 -3629.62)"/><path class="cls-6" d="M4264.18,3635.57l-0.06-.8-0.49.39-0.48.4h1Z" transform="translate(-3977.68 -3629.62)"/><path class="cls-6" d="M4279.51,3800.89l0.89-.11A4.26,4.26,0,0,0,4279.51,3800.89Z" transform="translate(-3977.68 -3629.62)"/><path class="cls-6" d="M4273.24,3799.86l-0.23.35C4273.34,3800.05,4273.49,3799.92,4273.24,3799.86Z" transform="translate(-3977.68 -3629.62)"/><path class="cls-6" d="M4199.73,3713c-0.85,1.35-2.13,2.91-1.23,2.79l0.9-.38A5.45,5.45,0,0,1,4199.73,3713Z" transform="translate(-3977.68 -3629.62)"/><path class="cls-6" d="M4225.5,3777.38l-0.07-.46-1.21-.16C4224.61,3776.94,4225,3777.18,4225.5,3777.38Z" transform="translate(-3977.68 -3629.62)"/><path class="cls-6" d="M4228.81,3775.68l0.75,1.64A7.77,7.77,0,0,0,4228.81,3775.68Z" transform="translate(-3977.68 -3629.62)"/><path class="cls-6" d="M4313.48,3796.54l0.34-.57,0.33-.59C4312.67,3795.89,4313.46,3796.08,4313.48,3796.54Z" transform="translate(-3977.68 -3629.62)"/><path class="cls-6" d="M4226.22,3658.06a13.89,13.89,0,0,0-2.54,1.84C4225.1,3659.16,4226.46,3658.85,4226.22,3658.06Z" transform="translate(-3977.68 -3629.62)"/><path class="cls-6" d="M4275.68,3809.68c0.62-.08.89-0.22,0.9-0.41C4276,3809.33,4275.58,3809.45,4275.68,3809.68Z" transform="translate(-3977.68 -3629.62)"/><path class="cls-6" d="M4221.28,3662.55c0.21-.11.39-0.24,0.59-0.35a11.31,11.31,0,0,1,1.81-2.31A4.4,4.4,0,0,0,4221.28,3662.55Z" transform="translate(-3977.68 -3629.62)"/><path class="cls-6" d="M4364.13,3696.2c0-.1,0-0.21,0-0.3S4364.05,3696,4364.13,3696.2Z" transform="translate(-3977.68 -3629.62)"/><path class="cls-6" d="M4351.17,3659.23c0.32,0.24.79,0.7,1.23,1.12A5.54,5.54,0,0,0,4351.17,3659.23Z" transform="translate(-3977.68 -3629.62)"/><path class="cls-6" d="M4247.72,3641.66c0.8-.47.08-0.16,0,0h0Z" transform="translate(-3977.68 -3629.62)"/><path class="cls-6" d="M4253.19,3642.83a0.57,0.57,0,0,0-.15.54A0.73,0.73,0,0,1,4253.19,3642.83Z" transform="translate(-3977.68 -3629.62)"/><path class="cls-6" d="M4220,3672.92l0,0.06C4220.22,3672.86,4220.17,3672.88,4220,3672.92Z" transform="translate(-3977.68 -3629.62)"/><path class="cls-6" d="M4249.15,3641.4a7.59,7.59,0,0,0-1.18.28A8.9,8.9,0,0,0,4249.15,3641.4Z" transform="translate(-3977.68 -3629.62)"/><path class="cls-6" d="M4248.79,3641.11l0.77-.28C4249.61,3640.65,4249.47,3640.62,4248.79,3641.11Z" transform="translate(-3977.68 -3629.62)"/><path class="cls-6" d="M4246.6,3642.31a9.46,9.46,0,0,1,1.36-.63c-0.19,0-.28,0-0.25,0Z" transform="translate(-3977.68 -3629.62)"/><path class="cls-6" d="M4359.83,3762.32a2,2,0,0,1,.16-0.12C4360.11,3761.29,4360,3761.64,4359.83,3762.32Z" transform="translate(-3977.68 -3629.62)"/><path class="cls-6" d="M4209.52,3735.43s0-.05-0.06-0.09v0.13Z" transform="translate(-3977.68 -3629.62)"/><path class="cls-6" d="M4210.72,3738.23a2.62,2.62,0,0,1-1.27-2.76l-1.15.71-1.14.72,1.79,0.68Z" transform="translate(-3977.68 -3629.62)"/><path class="cls-6" d="M4294.68,3800.95l-2.1-.65c2.4-1.43,4.15-1.11,2.18-2.08,0,1.34-2,1.61-4,1.7a13.8,13.8,0,0,0-2.74.31,1.51,1.51,0,0,0-1.4,1.18l-1.34-.62c0.39,0,.46-0.12.84-0.08-2.57-1.37-2.06,1.88-5.51,1.23-1.18-.33-2-0.85-1.11-1.06l-2.74.32c-0.77-.16-0.5-0.59.25-0.44l-0.64-.05-1.39-.18-2-.25,0-.07a14.21,14.21,0,0,1-2.79.77c-0.94-.62.58-0.16,0.39-0.55l-1.19.06-0.82,0h-0.37c-0.36-.47,0-0.73.55-0.83a5.07,5.07,0,0,1,2.22.16c-0.72-1.56-1.2-1.49-2-1.36a4.89,4.89,0,0,1-3.92-1.15l0.33,0.05,0.73,0.08,1.06,0.12a3.9,3.9,0,0,0-1.85-1.78,14.17,14.17,0,0,1-2.61-1.67c0.31,0.63,3.7,3.8,1.2,3.67a4.22,4.22,0,0,0-2.85-.71c0.32-.91-1-1.16-2.47-1.69l0.59-1.14c-1.74-.28-1.85.31-3,0.44a2.76,2.76,0,0,1-1.68-2.93c-2.63-1.58,1.19,2.4-2.17.94a10.38,10.38,0,0,0-1.54-1,11.86,11.86,0,0,0-1.55-.76c-1.09-.44-2.33-0.75-3.83-1.31-1.29-1.36.69-.48,0.34-1.15l-1.91,0c-0.32-.24,0-0.43.11-0.52-1.35-.44-0.81,1-2.78,0-0.64.39-1.28-.66-2.06-1.89s-1.75-2.59-3.27-2.87c-0.25-.71.75-0.38,0.92-0.89a39.74,39.74,0,0,0-6-2.58l-0.62-1.2c-0.3-.6-0.58-1.23-0.58-1.23,0.59,2.06-1.86,1.07-4.06.06a16.42,16.42,0,0,0,.36,2l-1.46-1.08c-0.72-.55-1.41-1.13-1.41-1.13-0.12-.47.45-0.47,1.23-0.37-0.23-.12-0.46-0.22-0.65-0.3-0.44-1.28.55-1.23,1.66-1l0.2,1.48c1.17,0.12,2.34.13,2.78-.51a3.09,3.09,0,0,1-1-.59c0.31,0,.54,0,0.57-0.16a1.76,1.76,0,0,0-1-.45l0.59-1.52-0.55.22-1.06-2c-0.27-.48-0.49-1-0.68-1.38l-0.3-.63c-0.75-.41-1.53-0.77-2.33-1.16s-1.56-.84-2.37-1.34a14.21,14.21,0,0,1-2.42-1.82,16.43,16.43,0,0,1-2.37-2.65c1.52,0.62,1.61-.6,2.73-1.15-0.25.93,0.41,1.69,1.21,2.52a14.25,14.25,0,0,1,2.46,2.82c-0.64-1.2,0-1.27.38-1.11l-0.56-.49c-0.34-.29-0.77-0.69-1.19-1.11l-1.71-1.67c0.92-.42.14-1.22,0-2.48-0.66.88-1.36,0.29-2.08-.71s-1.35-2.44-2.06-3.16c0.56-.39,1.38-0.27,2.22,1.86,0.13-1.48-.74-1.94-1.65-2.42s-1.82-1-1.72-2.39c0.23,0.52.26,0.84,0.66,0.91a5.63,5.63,0,0,1-1.23-2.38c-0.23-.86-0.16-1.54.23-1.28l0.2,0.52c-0.26-.9-0.64-2-1.08-3.17s-0.84-2.42-1.32-3.55c-0.88-2.28-1.86-4.17-2.73-4.26a10.37,10.37,0,0,1,2.5.15s-0.46-.31-1.1-0.81-1.52-1.17-2.4-1.86-1.72-1.43-2.35-2l-1.06-.94c1.54,0.35,4.62-2.39,5.92.52a7.33,7.33,0,0,0-.62-3.77c-0.15.61-1.92,1.78-2.15,1,1.38-2.48.65-1.71,1.79-4.61-0.26.93-2.6,0.11-2.62-1.37,0.36,0.21,2.25-.25,2.52.25l-1.24-1.72c-0.6-.87-1.16-1.77-1.16-1.77,0.42,0.9,1.91.11,2.53-.69-0.22.19-.22-0.58-0.2-1.51a15,15,0,0,0,.06-2.49l-0.57,1.49c0.46-4-3-4.15-2.49-8.28,0.4,0.56,2.69,1.51,3.23-.46a24.56,24.56,0,0,1-2.87-3.35,10.4,10.4,0,0,1-2.08-5.57l0.8-.56,0-1.5c0-.75,0-1.5,0-1.5,0.56,1.09,1.51,3.1,2.38,5.1s1.86,4,2.33,5.41c0.77-1.39.84-.29,1.17-2.48,0.74-.65.71,1.35,0.63,2l0.65-2.47c0.15-.62.36-1.23,0.5-1.68l0.24-.76c-0.68,0-.79-1.07-0.87-2.11s0-2.07-.6-2.13l0,0.91c0,0.54,0,1.27,0,2,0,1.44,0,2.89,0,2.89-0.68,0-1.43-1-1.87-2.47a8.24,8.24,0,0,1-.36-2.49,9,9,0,0,1,.49-2.73c0.77-.77,2.1,1.38,2.55,1.41a4.4,4.4,0,0,1,0-2.06,3.78,3.78,0,0,1,.62-1.77l0.18,1.71a4.38,4.38,0,0,0,.37-2.78,3.27,3.27,0,0,1,1.15-2.85c0.37-.79,2.57-1.66,1.91-2.1-2,.62-6.48-0.91-7.12-2.29,0.11-.13.95-1.09,1.89-2.07a12.83,12.83,0,0,1,2.62-2.24c1.73-.73,1.56,3.24,3,2.6a2.22,2.22,0,0,1-.33-1.47c0.69-.66.84,0.86,1.59-1-1-.94,2.11-3.41-0.54-1.36,0.66-1.86,1.23-1.67,2.41-3.61-1.13.17-1.44-3.37-.57-5.26a1.3,1.3,0,0,0,1.14.13c0.62-.81,1.2-1.5,1.75-2.14s1.14-1.16,1.68-1.7l1.64-1.65c0.58-.56,1.17-1.16,1.8-1.86,0.47,0,2-1.11,1.89-.14a4.3,4.3,0,0,1,1-2.07c2.4-.76-1.67,2,0.54,1.73-0.46-.64,1.25-2.91,2.17-4.34-0.59-.27-1.37.31-2,1.21a22.45,22.45,0,0,0-1.67,2.79c-0.62-.58-0.74-1.68-0.4-3.09a10.55,10.55,0,0,1,.85-2.3,18.88,18.88,0,0,1,1.57-2.47c2.16-2.49,1.78-.1,2-0.66a10.58,10.58,0,0,0,2.46-2.45,10.29,10.29,0,0,0,1.1-1.95,5.31,5.31,0,0,1,3.62-3.2c2.27-.24,1.25,1.74,2.06,2.13a8,8,0,0,1-2.74,1.64,9.73,9.73,0,0,0-2.33,1.17l2-.9a6.22,6.22,0,0,1-2.61,2.35,6.38,6.38,0,0,0,2.14-1c0.46-.29,1-0.64,1.49-1l1.73-1.13c0.6-.39,1.21-0.81,1.85-1.2l1.93-1.09a18.75,18.75,0,0,1,3.65-1.6c0.54-.7,1.61-1.7.83-1.77l-1.21.83c-1.6-.12,1.88-2.38,0-1.85a23.51,23.51,0,0,1,2.47-2.28,10.83,10.83,0,0,1,1.56-1,9.26,9.26,0,0,1,1.92-.67l1,0.93c-0.19-.31-2,0-2.56.69,0.43-.48,1.59-0.52,2.7-0.68s2.17-.42,2.5-1.38l-1.08-.06c-0.54,0-1.08,0-1.08,0,0.81-.69,1.73-1.49,2.74-2.25a7.56,7.56,0,0,1,3.44-1.55c-1.48-.8-0.51.3-2.71-0.49,2.06,1.11-6.22,2.2-3.18,3.05a4.46,4.46,0,0,0-2.85,0,9.72,9.72,0,0,1-3.21.38c0.24,0.33,1.11.32-.93,1.08a2.21,2.21,0,0,1-.27.53l-0.15,0h0.13c-0.06.09-.06,0.11,0,0a2.46,2.46,0,0,1,1.26.08,6.5,6.5,0,0,1-2.11,2,15.56,15.56,0,0,0-2.23,1.8c-1.2.43,0.24-.66-0.58-0.71l-0.58.72-0.55.75c-0.58-.7-3.67.47-1.35-1.54l-2.35,1.38a9.87,9.87,0,0,0-4.49,2.63c-1.16.62-2,2.75-1.54,1.51l-1.53,1.51-1.46,1.58-0.17-.15a37.84,37.84,0,0,0-4.52,4.68,20.13,20.13,0,0,1-5.24,4.59c-0.38.61-.77,1.22-1.27,1.9a15.87,15.87,0,0,1-1.91,2.28l-0.9-.12a24.22,24.22,0,0,1-2.26,2.72c-0.83.94-1.55,1.81-1.41,2.37a3.82,3.82,0,0,0-2,1.39,13,13,0,0,0-1.84,2.8c-0.55,1.07-1.11,2.18-1.57,3.23a18.89,18.89,0,0,1-1.36,2.67l0.85,0.56a18.13,18.13,0,0,0-1.28,3.09c-0.18.55-.36,1.11-0.54,1.71s-0.3,1.24-.46,1.91l0.89,0.18a12.25,12.25,0,0,1-1.54,4c-0.38.75-.79,1.54-1.18,2.36a17.9,17.9,0,0,0-.9,2.6c-0.26-.33.08-1.22,0.46-1.8a7.66,7.66,0,0,0-1.55,3.1,18.8,18.8,0,0,0-.36,3.47c-0.07,1.16,0,2.32-.11,3.4a8.55,8.55,0,0,1-.84,3.06,3.63,3.63,0,0,1-.32,2.41,0.71,0.71,0,0,0,0-.25,3.94,3.94,0,0,0-.06.41,12.07,12.07,0,0,0-.62,1.34,7.07,7.07,0,0,0,.59-1.12,16.64,16.64,0,0,0,.08,3.11l-1,.42c0,0.09,0,.17,0,0.27-0.45,1.11.38,0.93,1.15,0.38a5.45,5.45,0,0,0,.51,1.53c-1.56.85,0.38,3-1.23,4.2,0.41,0.39.58,1.82,0.87,3.22s0.81,2.75,1.68,3c-0.22.05-.3,0.39-0.35-0.21a5.91,5.91,0,0,0,.42,3.6l-1.16.67,1,1.26,1,1.23c-0.48,1.74-.79,2.52-2,1a30.82,30.82,0,0,1,1.61,3.34,11.46,11.46,0,0,0,1.61,2.81l-0.81,0c0.34,1.18,1.84,2.77,1.4,3.65-0.34,1.5.58,4.76,1.94,8.43s3.28,7.67,4.42,11.09c0.7-1.17.84-.32,1.07,0.73s0.55,2.3,1.39,1.95c-0.26.64,0,1.65-1,.92a22.89,22.89,0,0,1,2.37,3.71,4.9,4.9,0,0,0,2.64,2.48c-0.19.67-1.11-.14-1.15,0.35a1.84,1.84,0,0,1,1,1.14c0,0.5-.69-0.15-1.23-0.47a7.24,7.24,0,0,0,1.61,1.57,3.08,3.08,0,0,0,1.42.48,4.08,4.08,0,0,0,2.3-.76,4.69,4.69,0,0,0,1.06,2,3.54,3.54,0,0,0,1.9.78c0,0.82.37,2-1.3,0.44l1.09,1.38,0.81,1c0.3,0.33.62,0.66,0.94,1,1.28,1.28,2.56,2.35,3.06,1.91a3.21,3.21,0,0,0,1.61,1.36c1,1,1.58,1.52,2.18,2s1.18,1,2.31,1.8l-0.48-.65c1.79-.51,2,1.12,4,2.29l-0.14.09a11.06,11.06,0,0,0,1.91,1.8,3.76,3.76,0,0,0,1,.51,3.26,3.26,0,0,1,.93.52c0.41,0.33,1,.84,1.94,1.75l0.25-1c0.73-.77,1.52,0,2.53,1.16s2.31,2.42,3.8,2.74l-0.7-1c0.86,0.07,1.57,1.14,2.26,2.36s1.37,2.58,2.1,3c0.27,0.29-.65.07-1.16,0,3.6,2.75,1-.95,4.1,0,0.32,0.84-1.34,1.36.69,2.22,0.43,0.43,2.13.43,4,.56a9.71,9.71,0,0,1,5.21,1.24c-0.52-.66-1-1.3.53-1.35,1.13,0.14,2.5,1,3.94,1.58s2.9,1,4,.29a0.59,0.59,0,0,1,.35.46c0.9-.11,2.32-0.06,3.66-0.19a7.51,7.51,0,0,0,3.13-.72,2.39,2.39,0,0,0,2.29,1.29,13.4,13.4,0,0,0,3.63-.32,24.31,24.31,0,0,1,3.29-.5c0.87,0,1.45.19,1.49,1,0,0,1.34-.11,2.67-0.27l2.65-.38-0.1.32a9.52,9.52,0,0,0,3.68-.81,6.93,6.93,0,0,0,1.88-1.31c0.81,0,.3.44,0.26,0.61a17.65,17.65,0,0,0,5.08-.84,15.48,15.48,0,0,0,4-2.48l0.7,0.82c0.46-.44,2.29-0.58,4.53-1.1,0.56-.12,1.15-0.26,1.75-0.42s1.2-.39,1.79-0.63a12,12,0,0,0,3.35-1.86,0.81,0.81,0,0,1-.3.64c2.26-1.69,5.5-2.59,8.19-3.76s4.79-2.51,4.6-4.55c0,0,.64-0.67,1.22-1.41l1.18-1.44c-3.87,2.55-.39-1.67-2.26-1a5.56,5.56,0,0,1,2.46-1.23c0.71-.17,1.08,0,0.26.79l-0.39.07c0.55,2,4.88-3.1,5.59-2.1,3.44-3.08,6.73-6.24,9.82-9.53a68.66,68.66,0,0,0,8.17-10.52l-0.88.05-0.89,0s0.11-.15.26-0.39l0.54-.88,0.79-1.28c0.69-.51,1.53-0.36.39,1.49,1.3-.58,1.21-3.49.92-3.7,2.46-3.48.75,2.27,1.37,1.14l0.72-1.64-0.34.28c0.06-.78,0-1.26,0-1.84a7,7,0,0,1,.78-2.41c0.94-1.37,1.17-.4,1.49-1,0.09,0,.23-0.14.45-0.89,0,0,.11-0.21.25-0.55l0.52-1.21,0.76-1.77-1.64,1c0.1-1.77,1.34-3.3-.5-2.13,1.38-.84,2.74-4.14,3.62-7.44,0.47-1.64.75-3.3,1.07-4.61a12,12,0,0,1,.7-2.68,12.22,12.22,0,0,1-.16-1.82,16.72,16.72,0,0,1,0-1.82c0.07-1.23.29-2.5,0.43-3.93-0.3.69-1.62,1-1.27-1.43,1.28,0.55,1.72-.55,2-2s0.45-3.35,1.36-4.37c-0.63.91-.73-0.88-0.9-2.51s-0.53-3.13-1.34-1.68c0.09-2.06,1-.18,1.52-1.79a27.27,27.27,0,0,1-.69-3.85l-0.33-4.19c-0.06-.72-0.08-1.46-0.16-2.19l-0.29-2.23a24.55,24.55,0,0,0-1-4.47c-0.36,0-.63,1.13-1.46,0l0.14-.56c0.09-.34.19-0.78,0.27-1.23l0.36-1.81c-0.55-1.12-2.21-.45-1.82-2.92-0.17.39-.44,1-0.82,0.25-1.19-5.92-4.17-11.4-7.51-16.53s-7-10-10.09-15.56c0.63,1.7-.17.92-1,0,0.44,0.72-.64.59-0.87,1,0,0-.16-0.28-0.41-0.7l-0.92-1.55-0.93-1.56c-0.26-.43-0.45-0.69-0.45-0.69-0.8.18-1.83-.71-2.82-1.57s-2-1.61-2.6-1.3l1.39,0.83c-1.31-.09-1.24,1-1.09,2.29s0.37,2.76-.38,3.38a2.41,2.41,0,0,1,1.69,1,15.33,15.33,0,0,1,1.2,2.12c0.83,1.52,1.69,3.15,3.84,3.69,0.25,0.85-.93-0.1-1,0.52,1.25,0.11,2.09.9,3.13,2.72l-0.31-.05a26.08,26.08,0,0,1,2.34,3.06,23.74,23.74,0,0,1,1.66,2.85c0.5,1,1,1.94,1.5,3.09s1.11,2.36,1.73,3.86l0.6-.88a6.08,6.08,0,0,1,.53,2.37c2,0.75-1.79-3.48.29-3a4,4,0,0,0,.37,2.48c0.38,1,.86,2.08,1.36,3.17a16.67,16.67,0,0,1,1.14,3.13,2.52,2.52,0,0,1-.18,2.21c0.72,2,.81-1,1.53,1l-0.36.73,0.91,0.25c0.38,1.37-.17,2.29-0.62,2.48a6,6,0,0,0-.56-1.2,7.55,7.55,0,0,0,.81,3.18,9,9,0,0,1,.8,2.26l-0.08-1c0-.52-0.09-1-0.09-1a40.59,40.59,0,0,1,1.33,4.35c0.33,1.53.71,3.1,0.94,4.68l0.42,2.36c0.11,0.78.23,1.56,0.37,2.33,0.31,1.53.53,3,.93,4.41l0.42-.45a9.25,9.25,0,0,1,.38,2.44,7.59,7.59,0,0,1-.14,1.52,16.46,16.46,0,0,0-.3,4.28l-0.1-.18a7,7,0,0,1,.38,3.57c-0.43-1.24-1.19,2.16-1.65.54,0.21,2.36.26,3,.49,3.37a7.73,7.73,0,0,1,1.14,2.33l-0.86.59a4.94,4.94,0,0,1,.51,3.75c-0.18-2.06-1.45,1.25-1.78-1.07a9.12,9.12,0,0,0-1.19,3.1,17.24,17.24,0,0,0-.32,2.56c-0.08,1.55-.27,2.75-1.76,3.44,0.61,1.41,1.22.49,1.69-.64s0.7-2.46.75-1.77c0.47-.43.71,0.14,0.75,1a6.94,6.94,0,0,1-.56,2.74c-0.28.77-1.11,1.21-2.09,1.9a7.89,7.89,0,0,0-1.46,1.31,6.86,6.86,0,0,0-.68,1,8.25,8.25,0,0,0-.65,1.21c0.17-.36,0-0.44.21-0.8a4.29,4.29,0,0,0-.88,2.07,5.86,5.86,0,0,1-.39,1.14,3.23,3.23,0,0,1-.87,1c0.64,1.48-1.14,2.07.11,3.09l1.37-3.46a31.19,31.19,0,0,0-.45,3.44,6.92,6.92,0,0,1-2,3.86,6.45,6.45,0,0,1,.17-2.25c-0.92.63-.69,1.87-1.67,2.49-0.57-.54-0.08-1.54.56-2.73,0.32-.6.69-1.24,1-1.89a5.29,5.29,0,0,0,.41-2c-0.55.32-.74,1.39-1,2.13s-0.48,1.19-1,.29c0.55,1.22,0,2-.68,2.94a5.27,5.27,0,0,0-1.6,3.4l-0.69-.68a5.05,5.05,0,0,1-.73,2l-0.18-1.85c-0.42,2.36-3.14,2.84-4,4.75,1.34-1.68,1.71-1.71,2-1.43s0.4,0.88,1.22.34c-2.38,5.06-3.8,1-7.39,5.65,0.45-.67,2.43-1.87,1.93-0.63a8,8,0,0,1-3.05,1.7c-2.62,2.95,1.12.26,0.35,1.87-1.75.16-1.08,1.69-2.13,3.18l-0.66-.71a5.71,5.71,0,0,0-1.6,1.47,1.11,1.11,0,0,0-.09.9c0.13,0.53.27,1-1.56,2.06l0.5-2.16-0.71.82-0.49.56-0.23.24L4338,3784a7.79,7.79,0,0,1-1.78,2.05,11.93,11.93,0,0,1-2.3,1.3c0.83,0.26.75,1.61-.94,2.78-1.48.27,0.17-1.16-2.21,0.45,0.24-.87.45-1.82,2-1.78-0.07-.33.19-0.86,0.13-1.19-1.55.3-3.18,1.83-4,2.38a3.26,3.26,0,0,1,1.06-.38l-1.43,1.64-1.5,1.57c-0.75,0-.42-0.51-0.11-1a15.76,15.76,0,0,1-2.05,1.79c-0.07-.84-0.48-1.51.85-2.66l-0.47.41c-0.28.25-.65,0.58-1,0.87l-1.57,1.23c-0.38-.19-2.19,0-1.85-0.48a9.13,9.13,0,0,0-3.29,1.93,8.9,8.9,0,0,1-3.94,1.83,2,2,0,0,1-.88.7c-0.66.16-1.31,0.26-2,.36s-1.31.13-2,.24a12.53,12.53,0,0,0-2,.48,9.37,9.37,0,0,0-2.11.92l-1-.5c-0.5-.24-1-0.53-1-0.53-2.41.7,2.74,1.36-1.31,2.54-2.89.91-1.27-1-2.34-1.26a15,15,0,0,1-2.75,1.51,5.67,5.67,0,0,1-3.86.07A12.77,12.77,0,0,1,4294.68,3800.95Zm-30.71-3.08c0.32,0,.81-0.05,1.25,0a1,1,0,0,1,1,.44C4265.21,3799.17,4264.84,3798.51,4264,3797.87Zm-40.11-25.34a2.19,2.19,0,0,1,1.1,1.66A4.1,4.1,0,0,1,4223.86,3772.53Zm15.52-125.05,0,0.08C4237.89,3648.08,4238.42,3647.91,4239.38,3647.48Zm2.84-1.32c0.2-.28.11-0.38-0.08-0.43a2.6,2.6,0,0,1-1.36,1.05A1.47,1.47,0,0,0,4242.22,3646.15Zm127.62,110.7-0.48.45C4369.67,3756,4369.74,3756.4,4369.84,3756.85Z" transform="translate(-3977.68 -3629.62)"/><path class="cls-6" d="M4228.41,3775.87a0.92,0.92,0,0,1-.21.54C4228.49,3776.48,4228.63,3776.36,4228.41,3775.87Z" transform="translate(-3977.68 -3629.62)"/><path class="cls-6" d="M4313.35,3796.75l0.09,0a0.4,0.4,0,0,0,0-.19Z" transform="translate(-3977.68 -3629.62)"/><path class="cls-6" d="M4217.24,3684.69a2.63,2.63,0,0,1-1,.77C4216.48,3685.59,4216.78,3685.45,4217.24,3684.69Z" transform="translate(-3977.68 -3629.62)"/><path class="cls-6" d="M4256.34,3637.34s-0.46.22-.9,0.48l-0.88.51a3.51,3.51,0,0,1,1.8-.39C4256.23,3637.75,4255.75,3637.57,4256.34,3637.34Z" transform="translate(-3977.68 -3629.62)"/><path class="cls-6" d="M4274.25,3638.56c0.25-.16.58-0.1,0.83-0.27l-0.15-.43C4273.76,3638.08,4273,3638.57,4274.25,3638.56Z" transform="translate(-3977.68 -3629.62)"/><path class="cls-6" d="M4259.18,3639.72c0.43,0.73,1.45,0,2.71-.53a1.47,1.47,0,0,1-.23.07C4261.7,3638.05,4260.41,3638.85,4259.18,3639.72Z" transform="translate(-3977.68 -3629.62)"/><path class="cls-6" d="M4262.19,3639.07a6.85,6.85,0,0,1,1.19-.39C4263.4,3638.19,4262.86,3638.74,4262.19,3639.07Z" transform="translate(-3977.68 -3629.62)"/><path class="cls-6" d="M4245.35,3643.69c0.68-.13-0.13-1.11.36-1C4245.85,3641.43,4242.43,3645.92,4245.35,3643.69Z" transform="translate(-3977.68 -3629.62)"/><polygon class="cls-6" points="283.42 12.25 282.64 11.47 282.21 12.48 283.42 12.25"/><path class="cls-6" d="M4251.13,3645.23l2-.67c-0.1-.14.1-0.34,0.37-0.56C4252.34,3644.54,4251,3645,4251.13,3645.23Z" transform="translate(-3977.68 -3629.62)"/><path class="cls-6" d="M4253.54,3644a5,5,0,0,0,1.51-.83A8.85,8.85,0,0,0,4253.54,3644Z" transform="translate(-3977.68 -3629.62)"/><path class="cls-6" d="M4258.48,3643.14l-0.66,0-1.4.51,1-.28C4258,3643.24,4258.48,3643.14,4258.48,3643.14Z" transform="translate(-3977.68 -3629.62)"/><path class="cls-6" d="M4232,3657.85l-1.52,1.79c0.06,0.41.67,0.14,1.21-.55C4232,3658.54,4232.5,3657.86,4232,3657.85Z" transform="translate(-3977.68 -3629.62)"/><path class="cls-6" d="M4239.14,3655.58a2.12,2.12,0,0,1-1.26,0l0.7,1Z" transform="translate(-3977.68 -3629.62)"/><path class="cls-6" d="M4234.22,3660c0.06,0.42-1.72,2.93.3,1C4234.45,3660.5,4235.95,3658.79,4234.22,3660Z" transform="translate(-3977.68 -3629.62)"/><polygon class="cls-6" points="234.97 56.68 235.2 56.15 233.32 55.35 234.97 56.68"/><path class="cls-6" d="M4209.91,3716c0.7-2.51-1.21-.72-0.4-3-0.43-.66-0.67,1.86-1,1.2C4208.87,3715.81,4208.52,3716.6,4209.91,3716Z" transform="translate(-3977.68 -3629.62)"/><path class="cls-6" d="M4208.49,3714.19a7,7,0,0,0-.24-0.83A3,3,0,0,0,4208.49,3714.19Z" transform="translate(-3977.68 -3629.62)"/><path class="cls-6" d="M4346.94,3653.82s-0.27-.4-0.57-0.77l-0.59-.75,0.5,1.28Z" transform="translate(-3977.68 -3629.62)"/><path class="cls-6" d="M4343.24,3652.75l0.46-1.29-1.58.24A2.27,2.27,0,0,1,4343.24,3652.75Z" transform="translate(-3977.68 -3629.62)"/><path class="cls-6" d="M4260.57,3793.87l-0.23.25a1.7,1.7,0,0,0,1.15.9Z" transform="translate(-3977.68 -3629.62)"/><polygon class="cls-6" points="304.02 170.22 303.65 170.16 304.26 171.39 304.02 170.22"/><path class="cls-6" d="M4300,3797.82c-0.74.09-1.58,0.44-2.33,0.47C4299.29,3797.93,4300.45,3799.23,4300,3797.82Z" transform="translate(-3977.68 -3629.62)"/></svg>