<svg id="Layer_1" data-name="Layer 1" xmlns="http://www.w3.org/2000/svg" viewBox="0 0 475 116.6"><defs><style>.cls-1{font-size:32px;font-family:Kingthings Clarity;}.cls-1,.cls-2{fill:#bbbdbf;}.cls-3,.cls-4{fill:none;stroke:#bbbdbf;stroke-miterlimit:10;}.cls-3{stroke-width:3px;}.cls-4{stroke-width:2px;}</style></defs><title>emptylist</title><text class="cls-1" transform="translate(67.83 28.05)">Hey, it’s lonely in here!</text><path class="cls-2" d="M3796.65,4070.77V4048a18.32,18.32,0,0,0,17.23-18.27v-11a5.83,5.83,0,0,0-11.66,0v11a6.64,6.64,0,0,1-5.57,6.55v-22.05a8.21,8.21,0,1,0-16.43,0v31.58a6.64,6.64,0,0,1-5.57-6.55v-11a5.83,5.83,0,1,0-11.66,0v11a18.32,18.32,0,0,0,17.23,18.27v13.24m31.52-41a16.18,16.18,0,0,1-16.16,16.16,1.07,1.07,0,0,0-1.07,1.07v23.81h-12.16v-14.28a1.07,1.07,0,0,0-1.07-1.07,16.18,16.18,0,0,1-16.16-16.16v-11a3.7,3.7,0,0,1,7.39,0v11a8.78,8.78,0,0,0,7.7,8.7v1.85a1.07,1.07,0,1,0,2.13,0v-35.58a6.08,6.08,0,1,1,12.16,0v26.05a1.07,1.07,0,0,0,2.13,0v-1.85a8.78,8.78,0,0,0,7.7-8.7v-11a3.7,3.7,0,0,1,7.39,0v11h0Z" transform="translate(-3375.33 -3954.17)"/><path class="cls-2" d="M3788.44,4062.94a1.07,1.07,0,0,0-1.07,1.07v2.13a1.07,1.07,0,1,0,2.13,0V4064A1.07,1.07,0,0,0,3788.44,4062.94Z" transform="translate(-3375.33 -3954.17)"/><path class="cls-2" d="M3791.31,4027.36a1.07,1.07,0,0,0-1.07,1.07v2.13a1.07,1.07,0,0,0,2.13,0v-2.13A1.07,1.07,0,0,0,3791.31,4027.36Z" transform="translate(-3375.33 -3954.17)"/><path class="cls-2" d="M3785.56,4020.25a1.07,1.07,0,0,0-1.07,1.07v2.13a1.07,1.07,0,0,0,2.13,0v-2.13A1.07,1.07,0,0,0,3785.56,4020.25Z" transform="translate(-3375.33 -3954.17)"/><path class="cls-2" d="M3808,4022.38a1.07,1.07,0,0,0-1.07,1.07v2.13a1.07,1.07,0,0,0,2.13,0v-2.13A1.07,1.07,0,0,0,3808,4022.38Z" transform="translate(-3375.33 -3954.17)"/><path class="cls-2" d="M3768.82,4035.19a1.07,1.07,0,0,0-1.07,1.07v2.13a1.07,1.07,0,0,0,2.13,0v-2.13A1.07,1.07,0,0,0,3768.82,4035.19Z" transform="translate(-3375.33 -3954.17)"/><line class="cls-3" x1="421.32" y1="100.8" x2="475" y2="100.8"/><polyline class="cls-3" points="0 104.8 174.18 104.8 186.6 112.8 231.37 112.8 245.1 107.8 291.57 107.8 304.69 112.8 348.42 112.8 370.42 100.8 399.58 100.8"/><polyline class="cls-4" points="20.26 105.19 30.95 94.19 35.94 65.59 94.24 65.59 100.3 84.3 108.74 75.61 130.75 75.42 136.21 92 148.54 105.19"/></svg>