<?xml version="1.0" encoding="utf-8"?>
<!-- Generator: Adobe Illustrator 19.0.1, SVG Export Plug-In . SVG Version: 6.00 Build 0)  -->
<svg version="1.1" id="Layer_1" xmlns="http://www.w3.org/2000/svg" xmlns:xlink="http://www.w3.org/1999/xlink" x="0px" y="0px"
	 viewBox="0 0 2600 100" enable-background="new 0 0 2600 100" xml:space="preserve">
<g>
	<polygon fill="none" stroke="#E32027" stroke-width="2" stroke-miterlimit="10" points="153.7,57.4 162.5,14.8 119.5,14.8 
		127.7,57.4 	"/>
	<line fill="none" stroke="#E32027" stroke-width="2" stroke-miterlimit="10" x1="130.2" y1="8.4" x2="151.7" y2="8.4"/>
</g>
<path fill="none" stroke="#58595B" stroke-width="4" stroke-miterlimit="10" d="M735.6,8.4l-39.3,40 M696,8.8L736,48"/>
<path fill="none" stroke="#58595B" stroke-width="4" stroke-miterlimit="10" d="M813,30.8 M835,8.4l-21.8,22.1L835,52.4"/>
<path fill="none" stroke="#58595B" stroke-width="4" stroke-miterlimit="10" d="M857.6,30.8 M880.1,8.4l-22.3,22.1l22.3,21.9
	 M857.6,30.8l44,0.1"/>
<g>
	<circle fill="#58595B" cx="929.6" cy="12.4" r="4"/>
	<circle fill="#58595B" cx="929.6" cy="30.9" r="4"/>
	<circle fill="#58595B" cx="929.6" cy="49.4" r="4"/>
</g>
<g>
	<polyline fill="none" stroke="#58595B" stroke-width="4" stroke-miterlimit="10" points="1053.2,26.7 1069,43.4 1101.2,8.4 	"/>
</g>
<g>
	<rect x="1130" y="22.4" fill="#58595B" width="50" height="30"/>
	<line fill="none" stroke="#58595B" stroke-width="4" stroke-miterlimit="10" x1="1134" y1="17.4" x2="1144" y2="17.4"/>
	<ellipse fill="#FFFFFF" cx="1138.2" cy="30.2" rx="3.5" ry="3.5"/>
	<ellipse fill="none" stroke="#FFFFFF" stroke-width="2" stroke-miterlimit="10" cx="1160.2" cy="35.6" rx="13" ry="12.9"/>
	<ellipse fill="#58595B" cx="1159.2" cy="37.1" rx="18.5" ry="18.3"/>
	<ellipse fill="none" stroke="#FFFFFF" stroke-width="3" stroke-miterlimit="10" cx="1159.2" cy="37.1" rx="12" ry="11.9"/>
</g>
<g>
	<polygon fill="none" stroke="#00ADEE" stroke-width="2" stroke-miterlimit="10" points="1209.6,19.8 1200.8,8.4 1270.8,25 
		1218.9,44.4 1213.3,32.9 1207.2,36.5 	"/>
	<polygon fill="#00ADEE" points="1214.5,25.2 1252,26.4 1214.5,20.8 1210.1,31 	"/>
</g>
<g>
	<g>
		<path fill="none" stroke="#58595B" stroke-width="2" stroke-miterlimit="10" d="M1295.2,31.2l32.9-11.5l9.6,12.9
			c0-0.2,0-0.3,0-0.5c0-13.2-9.5-23.8-21.3-23.8c-11.7,0-21.3,10.7-21.3,23.8"/>
		<path fill="none" stroke="#58595B" stroke-width="2" stroke-miterlimit="10" d="M1337.8,36.1c-0.2,12.9-9.7,23.4-21.3,23.4
			c-11.5,0-20.9-10.3-21.3-23.2"/>
		<line fill="none" stroke="#FFFFFF" stroke-width="6" stroke-miterlimit="10" x1="1292.2" y1="35.2" x2="1341.1" y2="35.2"/>
		<ellipse fill="#58595B" stroke="#58595B" stroke-width="2" stroke-miterlimit="10" cx="1310.1" cy="35.7" rx="2.2" ry="3"/>
		<ellipse fill="#58595B" stroke="#58595B" stroke-width="2" stroke-miterlimit="10" cx="1322.8" cy="35.7" rx="2.2" ry="3"/>
		<path fill="none" stroke="#58595B" stroke-width="2" stroke-miterlimit="10" d="M1326,44.1c-1.6,3.7-5.2,6.3-9.5,6.3
			s-7.9-2.6-9.5-6.3"/>
	</g>
	<g>
		<g>
			<path fill="none" stroke="#58595B" stroke-width="2" stroke-miterlimit="10" d="M1395.3,45.4c6.7,1.2,12-5.6,12-5.6
				s-0.4,18-10.8,18.2c-3.3,0.1-7.2-6.4-8.6-10.2c-2.4-6.1-3-13.3-3-13.3S1389,44.3,1395.3,45.4z"/>
			
				<ellipse transform="matrix(-0.9998 1.918199e-002 -1.918199e-002 -0.9998 2738.6167 49.0898)" fill="#FFFFFF" cx="1369.1" cy="37.7" rx="22.7" ry="24.7"/>
		</g>
		<path fill="none" stroke="#58595B" stroke-width="2" stroke-miterlimit="10" d="M1387.6,36.1c-0.2,12.9-9.7,23.4-21.3,23.4
			c-11.5,0-20.9-10.3-21.3-23.2"/>
		<path fill="none" stroke="#58595B" stroke-width="2" stroke-miterlimit="10" d="M1375.8,44.1c-1.6,3.7-5.2,6.3-9.5,6.3
			s-7.9-2.6-9.5-6.3"/>
		<path fill="none" stroke="#58595B" stroke-width="2" stroke-miterlimit="10" d="M1345.1,32.7l32.9-11.5l9.6,12.9
			c0-0.2,0-0.3,0-0.5c0-13.2-9.5-23.8-21.3-23.8s-21.3,10.7-21.3,23.8"/>
		<line fill="none" stroke="#FFFFFF" stroke-width="6" stroke-miterlimit="10" x1="1342.1" y1="35.2" x2="1390.9" y2="35.2"/>
		<ellipse fill="#58595B" stroke="#58595B" stroke-width="2" stroke-miterlimit="10" cx="1360" cy="35.8" rx="2.2" ry="3"/>
		<ellipse fill="#58595B" stroke="#58595B" stroke-width="2" stroke-miterlimit="10" cx="1372.7" cy="35.8" rx="2.2" ry="3"/>
	</g>
</g>
<path fill="none" stroke="#58595B" stroke-width="4" stroke-miterlimit="10" d="M786.7,8.4l-23.6,24 M763,8.6l24,23.6"/>
<path fill="none" stroke="#58595B" stroke-width="4" stroke-miterlimit="10" d="M215.8,8.4l0.4,44 M194,30.6l44-0.4"/>
<g>
	<polygon fill="#FFCCFF" stroke="#FF99CC" stroke-width="2" stroke-miterlimit="10" points="268,37.4 299.9,8.4 320,24 320,35.9 
		288,64.8 268,49.3 	"/>
	<polygon opacity="0.5" fill="#FF99CC" points="288,65.4 319.9,36.4 319.9,24.4 288,53.4 	"/>
</g>
<polygon fill="#FFFFFF" stroke="#58595B" stroke-width="2" stroke-miterlimit="10" points="647.5,12.3 654,30.5 672.5,31.4 
	658.1,43.6 662.9,62.3 647.5,51.6 632,62.3 636.9,43.6 622.5,31.4 641,30.5 "/>
<g>
	<rect x="52" y="26.4" fill="#FFFFFF" stroke="#58595B" stroke-width="4" stroke-miterlimit="10" width="34" height="48"/>
	<g>
		<g>
			<path fill="#FFFFFF" d="M114,24.4c0,13.8-11.2,25-25,25s-25-11.2-25-25s11.2-25,25-25S114,10.6,114,24.4z"/>
			<g>
				<g>
					<line fill="none" stroke="#58595B" stroke-width="2" stroke-miterlimit="10" x1="89" y1="7.4" x2="89" y2="41.4"/>
					<line fill="none" stroke="#58595B" stroke-width="2" stroke-miterlimit="10" x1="72" y1="24.4" x2="106" y2="24.4"/>
				</g>
				<g>
					<line fill="none" stroke="#58595B" stroke-width="2" stroke-miterlimit="10" x1="76.9" y1="12.4" x2="101" y2="36.4"/>
					<line fill="none" stroke="#58595B" stroke-width="2" stroke-miterlimit="10" x1="76.9" y1="36.4" x2="101" y2="12.4"/>
				</g>
			</g>
		</g>
		<circle fill="#FFFFFF" cx="89" cy="24.4" r="8.7"/>
	</g>
</g>
<g>
	<path fill="#33CCFF" d="M1696.2,78.7c0,10.3-20,8-23.9,2.1c1.4,2.1,10.7-7,11.3-7.4C1688.5,70.3,1696.2,71.4,1696.2,78.7z"/>
	<g>
		<path fill="#C3996B" d="M1698.9,68.1c0,0,0.2,0.1,0.5,0.2c0.3,0.2,0.8,0.3,1.3,0.4c0.5,0.1,1.1,0.3,1.7,0.3
			c0.6,0.1,1.3,0.1,1.9,0.1c0.6-0.1,1.2-0.2,1.7-0.5c0.5-0.3,0.9-0.8,1.4-1.2c0.9-0.9,2-1.9,3.1-3c1.1-1.1,2.3-2.3,3.6-3.6
			c1.3-1.3,2.6-2.7,4-4.1c1.4-1.4,2.8-2.9,4.2-4.5c1.4-1.5,2.8-3.1,4.2-4.7c2.8-3.1,5.6-6.4,8.1-9.4c1.3-1.5,2.5-3,3.6-4.4
			c1.1-1.4,2.2-2.8,3.1-4.1c3.9-5.1,6.2-8.7,6.2-8.7l-1.3-1.3l-47.9,47.9L1698.9,68.1z"/>
		<path fill="#C3996B" d="M1698.6,67.8c0,0-0.1-0.2-0.2-0.5c-0.2-0.3-0.3-0.8-0.4-1.3c-0.1-0.5-0.3-1.1-0.3-1.7
			c-0.1-0.6-0.1-1.3-0.1-1.9c0.1-0.6,0.2-1.2,0.5-1.7c0.3-0.5,0.8-0.9,1.2-1.4c0.9-0.9,1.9-2,3-3.1c1.1-1.1,2.3-2.3,3.6-3.6
			c1.3-1.3,2.7-2.6,4.1-4c1.4-1.4,2.9-2.8,4.5-4.2c1.5-1.4,3.1-2.8,4.7-4.2c3.2-2.8,6.4-5.6,9.4-8.1c1.5-1.3,3-2.5,4.4-3.6
			c1.4-1.1,2.8-2.2,4.1-3.1c5.1-3.9,8.7-6.2,8.7-6.2l1.3,1.3l-47.9,47.9L1698.6,67.8z"/>
	</g>
	<path fill="#26A9E0" d="M1696.2,78.8c0,10.3-20,8-23.9,2.1c1.4,2.1,11.5,0.3,15-1.4c3.8-1.9,4.8-8.3,7.4-5.5
		C1695.6,75.2,1696.2,76.7,1696.2,78.8z"/>
</g>
<g>
	<path fill="#33CCFF" d="M1783.7,75.3c0,13.4-26,10.3-31.1,2.7c1.8,2.7,13.9-9.1,14.6-9.6C1773.7,64.3,1783.7,65.8,1783.7,75.3z"/>
	<g>
		<path fill="#C3996B" d="M1785.8,63.5c0,0,0.2,0.1,0.6,0.3c0.4,0.2,0.9,0.4,1.6,0.7c0.6,0.2,1.3,0.5,2,0.7c0.7,0.2,1.5,0.3,2.2,0.3
			c0.7,0,1.3-0.1,1.8-0.4c0.5-0.3,0.9-0.7,1.4-1.2c0.9-0.9,2-1.9,3.1-3c1.1-1.1,2.3-2.3,3.6-3.6c1.3-1.3,2.6-2.7,4-4.1
			c1.3-1.5,2.8-2.9,4.1-4.5c1.4-1.6,2.8-3.1,4.2-4.7c2.8-3.2,5.5-6.5,7.9-9.6c1.2-1.6,2.4-3.1,3.5-4.6c1.1-1.5,2.1-2.9,3-4.2
			c3.7-5.2,5.8-9.1,5.8-9.1l-1.6-1.6L1785,62.7L1785.8,63.5z"/>
		<path fill="#C3996B" d="M1785.1,62.8c0,0-0.1-0.2-0.3-0.6c-0.2-0.4-0.4-0.9-0.7-1.6c-0.2-0.6-0.5-1.3-0.7-2
			c-0.2-0.7-0.3-1.5-0.3-2.2c0-0.7,0.1-1.3,0.4-1.8c0.3-0.5,0.7-0.9,1.2-1.4c0.9-0.9,1.9-2,3-3.1c1.1-1.1,2.3-2.3,3.6-3.6
			c1.3-1.3,2.7-2.6,4.1-4c1.5-1.3,2.9-2.8,4.5-4.1c1.6-1.4,3.1-2.8,4.7-4.2c3.2-2.8,6.5-5.5,9.6-7.9c1.6-1.2,3.1-2.4,4.6-3.5
			c1.5-1.1,2.9-2.1,4.2-3c5.2-3.7,9.1-5.8,9.1-5.8l1.6,1.6l-47.9,47.9L1785.1,62.8z"/>
	</g>
	<path fill="#26A9E0" d="M1783.7,75.4c0,13.4-26,10.3-31.1,2.7c1.8,2.7,15,0.4,19.4-1.8c4.9-2.4,6.3-10.8,9.6-7.1
		C1782.9,70.7,1783.7,72.7,1783.7,75.4z"/>
</g>
<g>
	<path fill="#33CCFF" d="M1881.7,70.9c0,17.4-33.8,13.5-40.4,3.6c2.4,3.6,18-11.9,19-12.5C1868.7,56.6,1881.7,58.5,1881.7,70.9z"/>
	<g>
		<path fill="#C3996B" d="M1883.5,57.1c0,0,0.2,0.1,0.7,0.4c0.5,0.3,1.1,0.6,1.9,1.1c0.7,0.3,1.6,0.8,2.4,1.1
			c0.9,0.4,1.7,0.6,2.5,0.7c0.8,0.1,1.5,0.1,2.1-0.1c0.6-0.2,0.9-0.7,1.4-1.1c0.9-0.9,2-1.9,3.1-3c1.1-1.1,2.3-2.3,3.6-3.7
			c1.3-1.3,2.6-2.7,3.9-4.1c1.3-1.5,2.7-2.9,4.1-4.5c1.4-1.6,2.8-3.2,4.1-4.8c2.7-3.3,5.3-6.6,7.7-9.9c1.2-1.6,2.3-3.2,3.3-4.7
			c1-1.5,2-3,2.8-4.4c3.4-5.5,5.3-9.6,5.3-9.6l-2.1-2.1l-47.9,47.9L1883.5,57.1z"/>
		<path fill="#C3996B" d="M1882.2,55.9c0,0-0.1-0.2-0.4-0.7c-0.3-0.5-0.6-1.1-1.1-1.9c-0.3-0.7-0.8-1.6-1.1-2.4
			c-0.4-0.9-0.6-1.7-0.7-2.5c-0.1-0.8-0.1-1.5,0.1-2.1c0.2-0.6,0.7-0.9,1.1-1.4c0.9-0.9,1.9-2,3-3.1c1.1-1.1,2.3-2.3,3.7-3.6
			c1.3-1.3,2.7-2.6,4.1-3.9c1.5-1.3,2.9-2.7,4.5-4.1c1.6-1.4,3.2-2.8,4.8-4.1c3.3-2.7,6.6-5.3,9.9-7.7c1.6-1.2,3.2-2.3,4.7-3.3
			c1.5-1,3-2,4.4-2.8c5.5-3.4,9.6-5.3,9.6-5.3l2.1,2.1l-47.9,47.9L1882.2,55.9z"/>
	</g>
	<path fill="#26A9E0" d="M1881.7,71c0,17.4-33.8,13.5-40.4,3.6c2.4,3.6,19.5,0.5,25.3-2.4c6.4-3.2,8.2-14.1,12.4-9.2
		C1880.6,64.8,1881.7,67.5,1881.7,71z"/>
</g>
<g>
	<polygon fill="none" stroke="#58595B" stroke-width="2" stroke-miterlimit="10" points="2207.4,54.2 2242.7,22.1 2264.9,39.3 
		2264.9,52.5 2229.6,84.5 2207.4,67.3 	"/>
	<polyline opacity="0.5" fill="none" stroke="#58595B" stroke-width="2" stroke-miterlimit="10" points="2260.8,42.8 2229.5,69.9 
		2229.5,78.7 	"/>
</g>
<g>
	<path fill="none" stroke="#58595B" stroke-width="2" stroke-miterlimit="10" d="M2314.6,77.4c0,10.3-20,8-23.9,2.1
		c1.4,2.1,10.7-7,11.3-7.4C2306.9,68.9,2314.6,70.1,2314.6,77.4z"/>
	<path fill="none" stroke="#58595B" stroke-width="2" stroke-miterlimit="10" d="M2317.6,67.2l-0.7-0.7c0,0-0.1-0.2-0.2-0.5
		c-0.2-0.3-0.3-0.8-0.4-1.3c-0.1-0.5-0.3-1.1-0.3-1.7c-0.1-0.6-0.1-1.3-0.1-1.9c0.1-0.6,0.2-1.2,0.5-1.7c0.3-0.5,0.8-0.9,1.2-1.4
		c0.9-0.9,1.9-2,3-3.1c1.1-1.1,2.3-2.3,3.6-3.6c1.3-1.3,2.7-2.6,4.1-4c1.4-1.4,2.9-2.8,4.5-4.2c1.5-1.4,3.1-2.8,4.7-4.2
		c3.2-2.8,6.4-5.6,9.4-8.1c1.5-1.3,3-2.5,4.4-3.6c1.4-1.1,2.8-2.2,4.1-3.1c5.1-3.9,8.7-6.2,8.7-6.2l1.3,1.3l0.1,0.1l1.3,1.3
		c0,0-2.3,3.6-6.2,8.7c-1,1.3-2,2.6-3.1,4.1c-1.1,1.4-2.3,2.9-3.6,4.4c-2.5,3.1-5.3,6.3-8.1,9.4c-1.4,1.6-2.8,3.1-4.2,4.7
		c-1.4,1.5-2.8,3-4.2,4.5c-1.4,1.4-2.7,2.8-4,4.1c-1.3,1.3-2.5,2.5-3.6,3.6c-1.1,1.1-2.2,2.1-3.1,3c-0.5,0.4-0.8,0.9-1.4,1.2
		c-0.5,0.3-1.1,0.4-1.7,0.5c-0.6,0.1-1.2,0-1.9-0.1c-0.6,0-1.2-0.2-1.7-0.3c-0.6-0.2-1-0.3-1.3-0.4c-0.3-0.1-0.5-0.2-0.5-0.2
		L2317.6,67.2"/>
</g>
<g>
	<path fill="none" stroke="#58595B" stroke-width="2" stroke-miterlimit="10" d="M2502.6,72.5c0,17.4-33.8,13.5-40.4,3.6
		c2.4,3.6,18-11.9,19-12.5C2489.7,58.2,2502.6,60.1,2502.6,72.5z"/>
	<path fill="none" stroke="#58595B" stroke-width="2" stroke-miterlimit="10" d="M2507.3,59.5l-1.2-1.2c0,0-0.2-0.3-0.4-0.7
		c-0.3-0.5-0.6-1.1-1.1-1.9c-0.3-0.7-0.8-1.6-1.1-2.4c-0.4-0.9-0.6-1.8-0.8-2.5c-0.1-0.8-0.1-1.5,0.1-2.1c0.2-0.6,0.7-0.9,1.1-1.4
		c0.9-0.9,1.9-1.9,3-3.1c1.1-1.1,2.3-2.3,3.6-3.5c1.3-1.2,2.6-2.6,4.1-3.9c1.5-1.3,2.9-2.7,4.5-4c1.6-1.3,3.1-2.7,4.8-4
		c3.2-2.7,6.6-5.2,9.8-7.5c1.6-1.2,3.2-2.2,4.7-3.3c1.5-1,3-2,4.4-2.8c5.4-3.4,9.5-5.2,9.5-5.2l2.2,2.2l0.1,0.1l2.2,2.2
		c0,0-1.8,4.1-5.2,9.5c-0.8,1.4-1.8,2.8-2.8,4.4c-1,1.5-2.1,3.1-3.3,4.7c-2.3,3.2-4.9,6.6-7.5,9.8c-1.3,1.6-2.7,3.2-4,4.8
		c-1.3,1.6-2.7,3-4,4.5c-1.3,1.5-2.6,2.8-3.9,4.1c-1.2,1.3-2.4,2.5-3.5,3.6c-1.1,1.1-2.2,2.1-3.1,3c-0.5,0.4-0.8,0.9-1.4,1.1
		c-0.5,0.2-1.3,0.2-2.1,0.1c-0.8-0.1-1.7-0.4-2.5-0.8c-0.8-0.3-1.7-0.8-2.4-1.1c-0.8-0.4-1.4-0.7-1.9-1.1c-0.5-0.3-0.7-0.4-0.7-0.4
		l-1.2-1.2"/>
</g>
<g>
	<path fill="none" stroke="#58595B" stroke-width="2" stroke-miterlimit="10" d="M2405.2,75.3c0,13.4-26,10.3-31.1,2.7
		c1.8,2.7,13.9-9.1,14.6-9.6C2395.3,64.3,2405.2,65.8,2405.2,75.3z"/>
	<path fill="none" stroke="#58595B" stroke-width="2" stroke-miterlimit="10" d="M2408.2,63.9l-0.9-0.9c0,0-0.1-0.2-0.3-0.6
		c-0.2-0.4-0.4-0.9-0.7-1.6c-0.2-0.6-0.5-1.4-0.7-2c-0.2-0.8-0.4-1.5-0.4-2.2c0-0.7,0.1-1.3,0.3-1.9c0.2-0.5,0.7-0.9,1.2-1.4
		c0.9-0.9,1.9-1.9,3-3.1c1.1-1.1,2.3-2.3,3.6-3.6c1.3-1.2,2.6-2.6,4.1-3.9c1.4-1.3,2.9-2.7,4.4-4.1c1.5-1.4,3.1-2.8,4.7-4.1
		c3.2-2.7,6.4-5.4,9.5-7.8c1.5-1.2,3.1-2.3,4.5-3.4c1.5-1.1,2.9-2.1,4.2-3c5.2-3.6,9-5.7,9-5.7l1.7,1.7l0.1,0.1l1.7,1.7
		c0,0-2.1,3.8-5.7,9c-0.9,1.3-1.9,2.7-3,4.2c-1.1,1.4-2.2,3-3.4,4.5c-2.4,3.1-5.1,6.4-7.8,9.5c-1.3,1.6-2.8,3.1-4.1,4.7
		c-1.4,1.6-2.8,3-4.1,4.4c-1.3,1.4-2.7,2.8-3.9,4.1c-1.3,1.3-2.4,2.5-3.6,3.6c-1.1,1.1-2.1,2.1-3.1,3c-0.5,0.4-0.8,0.9-1.4,1.2
		c-0.5,0.3-1.2,0.3-1.9,0.3c-0.7,0-1.4-0.2-2.2-0.4c-0.7-0.1-1.5-0.5-2-0.7c-0.7-0.3-1.2-0.5-1.6-0.7c-0.4-0.2-0.6-0.3-0.6-0.3
		l-0.9-0.9"/>
</g>
<g>
	<g>
		<polyline fill="none" stroke="#58595B" stroke-width="4" stroke-miterlimit="10" points="1953.4,72.9 1949.9,84.5 1961.3,80.9 		
			"/>
	</g>
	<g>
		<path fill="none" stroke="#58595B" stroke-width="2" stroke-miterlimit="10" d="M2016.5,17.9c3.9,4,2.1,8.3,2.1,8.3l-23.3,23.5
			l-26.6,26.8c0,0,0.8-5.1-2.7-8.6"/>
		<path fill="none" stroke="#58595B" stroke-width="2" stroke-miterlimit="10" d="M1966.1,68c-3.4-3.5-7.6-1.9-7.6-1.9l26.6-26.8
			l23.3-23.5c0,0,4.2-1.8,8.1,2.2"/>
	</g>
</g>
<g>
	<g>
		<polyline fill="none" stroke="#58595B" stroke-width="4" stroke-miterlimit="10" points="2036.5,70.8 2032.3,84.5 2045.9,80.3 		
			"/>
	</g>
	<g>
		<path fill="none" stroke="#58595B" stroke-width="2" stroke-miterlimit="10" d="M2101.2,14.4c5.1,5.2,3.7,9.8,3.7,9.8l-23.3,23.5
			L2055,74.5c0,0,0.1-5.7-4.3-10.3"/>
		<path fill="none" stroke="#58595B" stroke-width="2" stroke-miterlimit="10" d="M2050.9,64.5c-4.5-4.5-9-3.3-9-3.3l26.6-26.9
			l23.3-23.5c0,0,4.5-1.5,9.7,3.8"/>
	</g>
</g>
<g>
	<g>
		<polyline fill="none" stroke="#58595B" stroke-width="3" stroke-miterlimit="10" points="2119.6,66.6 2114.2,84.5 2131.8,79 		"/>
	</g>
	<g>
		<path fill="none" stroke="#58595B" stroke-width="2" stroke-miterlimit="10" d="M2185.1,13c6.7,6.8,5.7,11.8,5.7,11.8l-23.3,23.5
			L2141,75.2c0,0-0.7-6.5-6.5-12.4"/>
		<path fill="none" stroke="#58595B" stroke-width="2" stroke-miterlimit="10" d="M2134.7,63c-5.8-5.9-10.9-5.2-10.9-5.2l26.6-26.9
			l23.3-23.5c0,0,5-1,11.7,5.8"/>
	</g>
</g>
<g>
	<g>
		<polyline fill="none" stroke="#58595B" stroke-width="3.3437" stroke-miterlimit="10" points="1440,72.8 1436.8,83.4 1447.2,80.1 
					"/>
	</g>
	<g>
		<path fill="#F7B93C" d="M1499.1,20.2c3.9,4,2.1,8.3,2.1,8.3l-23.3,23.5l-26.6,26.8c0,0,0.8-5.1-2.7-8.6"/>
		<path fill="#F7B93C" d="M1448.7,70.3c-3.4-3.5-7.6-1.9-7.6-1.9l26.6-26.8l23.3-23.5c0,0,4.2-1.8,8.1,2.2"/>
	</g>
</g>
<g>
	<g>
		<polyline fill="none" stroke="#58595B" stroke-width="4.3468" stroke-miterlimit="10" points="1515.6,68.9 1511.5,82.6 
			1525.1,78.4 		"/>
	</g>
	<g>
		<path fill="#F7B93C" d="M1576.5,16.3c5.1,5.2,3.7,9.8,3.7,9.8l-23.3,23.5l-26.6,26.9c0,0,0.1-5.7-4.3-10.3"/>
		<path fill="#FCC96D" d="M1526.2,66.4c-4.5-4.5-9-3.3-9-3.3l26.6-26.9l23.3-23.5c0,0,4.5-1.5,9.7,3.8"/>
	</g>
</g>
<g>
	<g>
		<polyline fill="none" stroke="#58595B" stroke-width="5.6509" stroke-miterlimit="10" points="1598.4,63.7 1593,81.6 1610.6,76.1 
					"/>
	</g>
	<g>
		<path fill="#F7B93C" d="M1661.9,11.1c6.7,6.8,5.7,11.8,5.7,11.8l-23.3,23.5l-26.6,26.9c0,0-0.7-6.5-6.5-12.4"/>
		<path fill="#FCC96D" d="M1611.5,61.2c-5.8-5.9-10.9-5.2-10.9-5.2l26.6-26.9l23.3-23.5c0,0,5-1,11.7,5.8"/>
	</g>
</g>
<g>
	<polygon fill="#FFFFFF" stroke="#58595B" stroke-width="2" stroke-miterlimit="10" points="587,64.9 554,56 567,7 600,15.9 	"/>
	<rect x="544" y="15.4" fill="#FFFFFF" width="38" height="58"/>
	<rect x="542" y="22.4" fill="#FFFFFF" stroke="#58595B" stroke-width="2" stroke-miterlimit="10" width="34" height="50"/>
	<path fill="none" stroke="#58595B" stroke-width="1.8732" stroke-miterlimit="10" d="M548.4,49.7c10.9-8.5-1,3.6,0,7.3
		c1.3,4.7,9.6-10,12.7-6.8c3.7,3.7-10.9,12-7.2,16c5.7,6,10.3-19.6,15.6-13.5c1.3,1.5-5.5,12.3-3,12.4"/>
	<path fill="none" stroke="#58595B" stroke-width="2" stroke-miterlimit="10" d="M556.5,30.1c-2.2-0.6-4.9-1.2-6.4,1.2
		c-1.2,2.1-0.2,6.2,1,7.7c4.9,6.2,14.3-2.1,9.1-7.7"/>
</g>
</svg>
