<svg id="Layer_1" data-name="Layer 1" xmlns="http://www.w3.org/2000/svg" viewBox="0 0 140.69 125.36"><defs><style>.cls-1{fill:#f7f7f7;}.cls-2{fill:none;stroke:#ffdd15;stroke-miterlimit:10;stroke-width:4px;}</style></defs><title>star_chart_overlay</title><path class="cls-1" d="M3544.91,4067.78H3404.22V3942.42h140.69v125.36Zm-64.5-117.26a5.53,5.53,0,0,0-10.15-.14l-15,33.62-36.71,2.89a5.53,5.53,0,0,0-3.27,9.61l27.33,24.69L3434,4057a5.53,5.53,0,0,0,8.13,6.08l31.92-18.36,31.4,19.24a5.53,5.53,0,0,0,8.3-5.85l-7.6-36,28-23.92a5.53,5.53,0,0,0-3-9.7l-36.62-3.91Z" transform="translate(-3404.22 -3942.42)"/><path class="cls-2" d="M3494.5,3984.54l36.62,3.91a5.53,5.53,0,0,1,3,9.7l-28,23.92,7.6,36a5.53,5.53,0,0,1-8.3,5.85l-31.4-19.24-31.92,18.36A5.53,5.53,0,0,1,3434,4057l8.59-35.81-27.33-24.69a5.53,5.53,0,0,1,3.27-9.61l36.71-2.89,15-33.62a5.53,5.53,0,0,1,10.15.14Z" transform="translate(-3404.22 -3942.42)"/></svg>