<?xml version="1.0" encoding="utf-8"?>
<!-- Generator: Adobe Illustrator 19.2.1, SVG Export Plug-In . SVG Version: 6.00 Build 0)  -->
<svg version="1.1" id="Layer_1" xmlns="http://www.w3.org/2000/svg" xmlns:xlink="http://www.w3.org/1999/xlink" x="0px" y="0px"
	 viewBox="0 0 140.7 125.4" style="enable-background:new 0 0 140.7 125.4;" xml:space="preserve">
<style type="text/css">
	.st0{fill:#FFFFFF;}
	.st1{fill:none;stroke:#FFDD15;stroke-width:4;stroke-miterlimit:10;}
</style>
<title>star_chart_overlay2</title>
<path class="st0" d="M140.7,125.4H0V0h140.7V125.4z M76.2,8.1c-1.2-2.8-4.4-4.2-7.2-3C67.7,5.7,66.6,6.7,66,8L51,41.6l-36.7,2.9
	c-3,0.2-5.3,2.9-5.1,6c0.1,1.4,0.8,2.7,1.8,3.7l27.3,24.7l-8.6,35.8c-0.7,3,1.1,6,4.1,6.7c1.4,0.3,2.8,0.1,4-0.6l31.9-18.4
	l31.4,19.2c2.6,1.6,6,0.8,7.6-1.8c0.7-1.2,1-2.6,0.7-4l-7.6-36l28-23.9c2.3-2,2.6-5.5,0.6-7.8c-0.9-1.1-2.2-1.8-3.6-1.9l-36.6-3.9
	L76.2,8.1z"/>
<path class="st1" d="M90.3,42.1l36.6,3.9c3,0.3,5.2,3.1,4.9,6.1c-0.2,1.4-0.8,2.7-1.9,3.6l-28,23.9l7.6,36c0.6,3-1.3,5.9-4.3,6.5
	c-1.4,0.3-2.8,0-4-0.7l-31.4-19.2l-31.9,18.4c-2.6,1.5-6,0.6-7.5-2c-0.7-1.2-0.9-2.7-0.6-4l8.6-35.8L11,54c-2.3-2.1-2.4-5.5-0.4-7.8
	c0.9-1,2.3-1.7,3.7-1.8L51,41.5L66,7.9c1.3-2.8,4.5-4,7.3-2.8c1.3,0.6,2.3,1.6,2.8,2.9L90.3,42.1z"/>
</svg>
