<?xml version="1.0" standalone="no"?>
<!DOCTYPE svg PUBLIC "-//W3C//DTD SVG 1.1//EN" "http://www.w3.org/Graphics/SVG/1.1/DTD/svg11.dtd" >
<svg xmlns="http://www.w3.org/2000/svg" xmlns:xlink="http://www.w3.org/1999/xlink" version="1.1">
<metadata>
Created by FontForge 20150824 at Sat Oct  8 05:04:36 2016
 By Everything Fonts
Kingthings Clarity, Copyright Kevin King 2008
</metadata>
<defs>
<font id="KingthingsClarity1_1" horiz-adv-x="567" >
  <font-face 
    font-family="KingthingsClarity1_1"
    font-weight="400"
    font-stretch="normal"
    units-per-em="1000"
    panose-1="0 0 0 0 0 0 0 0 0 0"
    ascent="800"
    descent="-200"
    x-height="513.5"
    cap-height="747"
    bbox="-33.1286 -271 933.961 1065"
    underline-thickness="20"
    underline-position="-163"
    unicode-range="U+0020-2122"
  />
<missing-glyph horiz-adv-x="500" 
d="M63 0v1065h375v-1065h-375zM125 63h250v940h-250v-940z" />
    <glyph glyph-name=".notdef" horiz-adv-x="500" 
d="M63 0v1065h375v-1065h-375zM125 63h250v940h-250v-940z" />
    <glyph glyph-name=".null" horiz-adv-x="0" 
 />
    <glyph glyph-name="nonmarkingreturn" horiz-adv-x="290" 
 />
    <glyph glyph-name="space" unicode=" " horiz-adv-x="332" 
 />
    <glyph glyph-name="exclam" unicode="!" horiz-adv-x="256" 
d="M76 308v381q-6 62 54.5 61.5t51.5 -61.5v-382q4 -58 -51.5 -57.5t-54.5 58.5zM65.5 112.5q-18.5 -41.5 1 -78t65 -37t67.5 36t4 78.5t-68.5 42t-69 -41.5z" />
    <glyph glyph-name="quotedbl" unicode="&#x22;" horiz-adv-x="359" 
d="M95 676q-32 0 -54 22t-22 54t22 54.5t54 22.5q31 0 54 -22.5t28.5 -70.5t-23 -101t-79.5 -84q-14 -6 -24.5 9t5.5 27q53 48 39 89zM261 676q-32 0 -54 22t-22 54t22 54.5t54 22.5q31 0 54 -22.5t28.5 -70.5t-23 -101t-79.5 -84q-14 -6 -24.5 9t5.5 27q53 48 39 89z" />
    <glyph glyph-name="numbersign" unicode="#" 
d="M227 410h88l38 109h-84zM148 410l41 109h-80q-46 6 -41 46q7 40 58 35h80l27 98q9 32 33.5 32t34.5 -8t11 -21.5t-26 -100.5h84l32 100q8 30 37.5 31.5t39 -7t1.5 -40.5l-27 -84h77q34 0 34 -25q0 -57 -38 -55l-91 -1l-35 -109h81q30 -2 36.5 -19.5t-4 -39.5t-47.5 -22
h-83l-30 -109q-9 -33 -48 -33q-36 0 -38 31q29 106 29 111h-88q-9 -40 -33 -112q-10 -23 -30.5 -27.5t-37.5 2.5t-12 37l33 100h-54q-31 2 -39.5 20t2.5 41t43 20h68z" />
    <glyph glyph-name="dollar" unicode="$" horiz-adv-x="584" 
d="M334 849q1 35 -23 46.5t-46.5 -3t-18.5 -43.5v-98q-107 -12 -156 -82t-39.5 -153t70.5 -123.5t125 -52.5v-237q-27 6 -64.5 27.5t-61 55t-63 6.5t-19 -67.5t87.5 -85.5q51 -27 120 -38v-120q2 -51 44 -52q43 1 44 51v121q102 6 163.5 62t56 158.5t-73.5 145.5t-146 54
v238q38 -11 69 -37q37 -40 75 -13t-2 81q-53 54 -142 62v97zM246 446q-68 4 -91 57t5 100.5t86 48.5v-206zM434 269q36 -43 15 -107t-113 -64v222q62 -8 98 -51z" />
    <glyph glyph-name="percent" unicode="%" horiz-adv-x="696" 
d="M25.5 599.5q-16.5 -147.5 33.5 -201.5t121.5 -54.5t123.5 53.5t36.5 203.5t-157 148t-158 -149zM263.5 545.5q3.5 -114.5 -78 -115.5t-81.5 114.5t78 115.5t81.5 -114.5zM243 163q-32 -35 -60.5 -9.5t3.5 57.5l287 387q26 36 57 13.5t2 -58.5zM360.5 244.5
q-16.5 -147.5 33.5 -201.5t121.5 -54.5t123.5 53.5t36.5 203.5t-157 148t-158 -149zM598.5 190.5q3.5 -114.5 -78 -115.5t-81.5 114.5t78 115.5t81.5 -114.5z" />
    <glyph glyph-name="ampersand" unicode="&#x26;" horiz-adv-x="775" 
d="M290 451q79 41 92.5 92t-11 81.5t-73 32.5t-75 -27.5t-20.5 -76t87 -102.5zM282 331q-76 -20 -119.5 -67.5t-26.5 -94t65 -68t125 -8.5t123 91zM118 637q18 46 52 75t100 38.5t117 -13t81 -74.5t9.5 -133t-107.5 -140q61 -57 127 -110q22 48 12 100q-9 48 22.5 61.5
t55 -0.5t25.5 -59q8 -92 -27 -172l154 -132q23 -21 17.5 -47t-32.5 -36t-55 7l-132 112q-88 -117 -214 -127t-198.5 31t-92 128.5t30 157.5t135.5 98q-71 60 -84.5 124.5t4.5 110.5z" />
    <glyph glyph-name="quotesingle" unicode="'" horiz-adv-x="196" 
d="M94 676q-32 0 -54 22t-22 54t22 54.5t54 22.5q31 0 54 -22.5t28.5 -70.5t-23 -101t-79.5 -84q-14 -6 -24.5 9t5.5 27q53 48 39 89z" />
    <glyph glyph-name="parenleft" unicode="(" horiz-adv-x="281" 
d="M8 428q-9 -310 173 -600q24 -44 59.5 -49.5t47 24.5t-29.5 77q-161 234 -158.5 528t149.5 481q36 35 35.5 71t-35 40t-72.5 -52q-160 -210 -169 -520z" />
    <glyph glyph-name="parenright" unicode=")" horiz-adv-x="277" 
d="M266 428q9 -310 -173 -600q-24 -44 -59.5 -49.5t-47 24.5t29.5 77q161 234 158.5 528t-149.5 481q-36 35 -35.5 71t35 40t72.5 -52q160 -210 169 -520z" />
    <glyph glyph-name="asterisk" unicode="*" horiz-adv-x="351" 
d="M283 780q22 23 10.5 43t-27 23t-28.5 -9l-41 -55l15 64q0 20 -15.5 28.5t-38 2t-15.5 -38.5l4 -57l-37 56q-14 14 -31 9t-29.5 -27.5t17.5 -41.5l48 -28l-69 8q-21 -1 -29.5 -16.5t0 -39.5t40.5 -18l54 11l-55 -38q-14 -15 -9.5 -32t26 -27.5t42.5 15.5l35 50l-10 -65
q-2 -34 21.5 -39t39 5t11.5 26l-15 73l37 -52q21 -24 42.5 -12t26 28.5t-10.5 28.5l-63 42l65 -14q33 1 38.5 23.5t-1.5 36.5t-28 13l-73 -9z" />
    <glyph glyph-name="plus" unicode="+" 
d="M230 168q-4 -53 53 -53.5t55 50.5v147h143q53 -4 53 53.5t-55 54.5h-141v141q4 53 -53 53t-55 -55v-139h-142q-53 5 -53.5 -52.5t50.5 -55.5h145v-144z" />
    <glyph glyph-name="comma" unicode="," horiz-adv-x="243" 
d="M127 -2q-32 0 -54 22t-22 54t22 54.5t54 22.5q31 0 54 -22.5t28.5 -70.5t-23 -101t-79.5 -84q-14 -6 -24.5 9t5.5 27q53 48 39 89z" />
    <glyph glyph-name="hyphen minus" unicode="-" horiz-adv-x="571" 
d="M481 317q53 -5 53 52.5t-51 55.5h-396q-52 4 -52 -53.5t55 -54.5h391z" />
    <glyph glyph-name="period" unicode="." horiz-adv-x="250" 
d="M127 -1q-32 0 -54 22.5t-22 55.5q0 30 22 53t54 23q31 0 54 -23t23 -53q0 -33 -23 -55.5t-54 -22.5z" />
    <glyph glyph-name="slash" unicode="/" horiz-adv-x="454" 
d="M93 -184q-12 -36 -39 -41.5t-45 15t-6 53.5l337 1110q10 45 39 55.5t50.5 -12.5t2.5 -69z" />
    <glyph glyph-name="zero" unicode="0" horiz-adv-x="626" 
d="M37 478.5q-32 -273.5 55 -379t224.5 -106t222.5 104t58.5 379t-277.5 275t-283 -273zM495.5 380.5q6.5 -269.5 -175.5 -270t-180.5 269t175.5 270t180.5 -269z" />
    <glyph glyph-name="one" unicode="1" horiz-adv-x="318" 
d="M210 -4q-53 0 -54 46v557l-46 -37q-45 -25 -69 9.5t21 72.5l116 91q41 23 66 4.5t21 -68.5v-628q-2 -47 -55 -47z" />
    <glyph glyph-name="two" unicode="2" 
d="M64 630q-22 -59 -2.5 -88.5t51.5 -22.5t46 58.5t74.5 74.5t122 -14.5t44 -110t-65.5 -114.5l-265 -283q-32 -47 -13.5 -89.5t78.5 -40.5h359q50 -4 50.5 55.5t-47.5 55.5h-314l213 224q77 73 101 147t6 135t-62 95t-106 44.5t-139 -14t-131 -112.5z" />
    <glyph glyph-name="three" unicode="3" horiz-adv-x="562" 
d="M121 751q-55 2 -53.5 -56t55.5 -53h223l7 -9l-137 -155q-47 -31 -13.5 -71t73.5 -4q29 21 89 -6t73 -87.5t-14 -126.5t-125 -79t-175 87q-31 52 -79.5 21t-11.5 -77q47 -83 135 -119.5t182.5 -11.5t156 110.5t37 215t-183.5 166.5l117 141q41 45 19.5 84t-78.5 30h-297z
" />
    <glyph glyph-name="four" unicode="4" horiz-adv-x="659" 
d="M482 205v-171q0 -40 -55 -40t-53 41v172h-288q-32 -3 -49 26.5t5 63.5l167 406q23 61 73.5 43.5t27.5 -81.5l-149 -351h214v384q4 52 53.5 51t53.5 -52v-384h112q50 6 50 -53.5t-51 -54.5h-111z" />
    <glyph glyph-name="five" unicode="5" horiz-adv-x="590" 
d="M160 750q-51 -6 -73 -64l-34 -301q-8 -38 35.5 -52t58.5 11q59 69 159.5 62.5t132 -72t5 -145t-129.5 -89.5t-191 79q-30 54 -73.5 21t-4.5 -87q60 -85 149.5 -106t158.5 -7.5t120.5 56t73 106t15.5 130.5t-49.5 131t-146.5 82t-208 -29l21 161h245q68 1 70.5 57
t-71.5 56h-263z" />
    <glyph glyph-name="six" unicode="6" horiz-adv-x="600" 
d="M392 755q-139 -2 -231 -93t-118.5 -221.5t-6 -227.5t81.5 -153.5t159 -64t174 33.5t107.5 124t11.5 160.5t-76.5 126.5t-151.5 54t-192 -63q22 111 94.5 165.5t155.5 57.5q54 0 55 53t-63 48zM450 311.5q34 -73.5 -2 -139.5t-140.5 -64.5t-139.5 71.5t1.5 138.5t141.5 68
t139 -74z" />
    <glyph glyph-name="seven" unicode="7" horiz-adv-x="503" 
d="M21 693.5q0 -58.5 76 -54.5h248q-76 -222 -104.5 -341t-37.5 -209q-11 -83 45 -91t66 65q6 105 26 192t55 208t84 205q12 35 -1 58t-49 26h-332q-76 0 -76 -58.5z" />
    <glyph glyph-name="eight" unicode="8" horiz-adv-x="614" 
d="M104.5 50.5q-75.5 62.5 -79 149.5t43.5 141.5t109 64.5q-91 44 -105.5 109t6.5 122t73 91t155.5 36t162 -33t79 -100.5t0.5 -123t-101 -96.5q75 -17 113 -73t33 -143.5t-78.5 -147t-204.5 -59.5t-206.5 62.5zM207.5 641.5q-37.5 -34.5 -33.5 -83.5t44 -72t94.5 -22.5
t96 26t39.5 79t-41.5 82.5t-100.5 27t-98.5 -36.5zM255.5 345q-46.5 -7 -84 -48t-30 -102t57.5 -90t126 -27t113.5 36.5t40 92.5t-35.5 94.5t-89.5 43.5t-98 0z" />
    <glyph glyph-name="nine" unicode="9" horiz-adv-x="546" 
d="M437 52q20 144 37.5 215.5t42.5 182t-23 201t-135.5 108t-172.5 -12.5t-127.5 -116.5t-29.5 -175t66.5 -140.5t122 -67t144.5 15q-16 -75 -37 -198q-12 -67 47.5 -69t64.5 57zM135.5 460q-13.5 89 29.5 148.5t117 56.5t103 -56t21 -127t-50.5 -114.5t-124.5 -18.5
t-95.5 111z" />
    <glyph glyph-name="colon" unicode=":" horiz-adv-x="265" 
d="M136 -3q-32 0 -54 22.5t-22 55.5q0 30 22 53t54 23q31 0 54 -23t23 -53q0 -33 -23 -55.5t-54 -22.5zM136 327q-32 0 -54 22.5t-22 55.5q0 30 22 53t54 23q31 0 54 -23t23 -53q0 -33 -23 -55.5t-54 -22.5z" />
    <glyph glyph-name="semicolon" unicode=";" horiz-adv-x="258" 
d="M124 -1q-32 0 -54 22t-22 54t22 54.5t54 22.5q31 0 54 -22.5t28.5 -70.5t-23 -101t-79.5 -84q-14 -6 -24.5 9t5.5 27q53 48 39 89zM124 327q-32 0 -54 22.5t-22 55.5q0 30 22 53t54 23q31 0 54 -23t23 -53q0 -33 -23 -55.5t-54 -22.5z" />
    <glyph glyph-name="less" unicode="&#x3c;" horiz-adv-x="359" 
d="M332 546q40 34 -0.5 74.5t-78.5 -0.5l-209 -209q-5 -4 -10 -9l-6 -6q-26 -26 -7 -55q5 -9 14 -17l220 -220q34 -40 74.5 0.5t3.5 74.5l-184 184z" />
    <glyph glyph-name="equal" unicode="=" horiz-adv-x="561" 
d="M479 391q53 -5 53 52.5t-51 55.5h-396q-52 4 -52 -53.5t55 -54.5h391zM479 236q53 -5 53 52.5t-51 55.5h-396q-52 4 -52 -53.5t55 -54.5h391z" />
    <glyph glyph-name="greater" unicode="&#x3e;" horiz-adv-x="355" 
d="M340 341q-5 -9 -14 -17l-220 -220q-34 -40 -74.5 0.5t-3.5 74.5l184 184l-183 183q-39 34 1 74.5t78 -0.5l209 -209q5 -4 10 -9l6 -6q26 -26 7 -55z" />
    <glyph glyph-name="question" unicode="?" horiz-adv-x="486" 
d="M253 753.5q92 -6.5 142.5 -56.5t59 -125t-29.5 -136t-151 -87v-91q-1 -62 -31.5 -75.5t-56.5 5t-23 68.5v121q-3 49 46 50q66 4 106 42t33.5 96t-59 76.5t-92 8t-63 -48.5t-65 -31.5t-39.5 53.5t66.5 92t156.5 38.5zM145.5 105.5q-18.5 -41.5 1 -78t65 -37t67.5 36
t4 78.5t-68.5 42t-69 -41.5z" />
    <glyph glyph-name="at" unicode="@" horiz-adv-x="981" 
d="M482 791.5q-87 -4.5 -176.5 -44.5t-157 -132t-83.5 -209t12 -218t106.5 -184.5t174.5 -103.5t185 -11t98.5 53t-17 60.5t-65.5 6t-123.5 -5t-157 64.5t-101 193.5t41.5 261t216 158t259.5 -35t126 -204.5t-32.5 -190.5t-86 -25t-44 103.5t0 233q-75 6 -160 3t-153.5 -78
t-59 -191.5t112.5 -160.5t193 43q81 -93 175 -63t135 119.5t31 213t-81 210.5t-176.5 112.5t-192.5 21zM549 454l-2 -177q-31 -50 -88 -43.5t-68 77.5t29.5 114.5t128.5 28.5z" />
    <glyph glyph-name="A" unicode="A" horiz-adv-x="679" 
d="M545 37l-57 176h-282l-66 -179q-26 -51 -74 -32.5t-24 79.5l224 620q18 49 92 48.5t83 -49.5l208 -630q11 -59 -38.5 -70.5t-65.5 37.5zM361 622h-17l-106 -309h218z" />
    <glyph glyph-name="B" unicode="B" horiz-adv-x="636" 
d="M113 -2h238q134 -1 193.5 85t40.5 198.5t-138 150.5q82 62 69 154t-69.5 126t-134.5 37l-198 -1q-42 0 -42 -49v-659q-1 -42 41 -42zM403.5 552q1.5 -88 -98.5 -104l-124 -1v197h127q94 -4 95.5 -92zM462 287q32 -66 -0.5 -121t-112.5 -50h-165l-1 235h142q105 2 137 -64
z" />
    <glyph glyph-name="C" unicode="C" horiz-adv-x="668" 
d="M298.5 738.5q-75.5 -17.5 -148 -96t-92 -194.5t8.5 -224.5t113 -172.5t194.5 -61.5t167.5 43.5t84.5 90.5t-14 79.5t-97.5 -41t-154 -58.5t-144 74.5t-49.5 184t61.5 200.5t149.5 79.5t114 -38.5t70 -34t44.5 48.5t-49 86.5t-118 47.5t-141.5 -13.5z" />
    <glyph glyph-name="D" unicode="D" horiz-adv-x="647" 
d="M104 -2h198q127 -9 204.5 66t95 170t4 211t-98.5 211t-231 96h-161q-40 0 -41 -39v-682q-1 -33 30 -33zM458.5 530q51.5 -103 45.5 -204.5t-56.5 -158.5t-133.5 -52h-123v523h119q97 -5 148.5 -108z" />
    <glyph glyph-name="E" unicode="E" horiz-adv-x="566" 
d="M476 696q-1 52 -44 52h-317q-42 0 -42 -49v-659q-1 -42 41 -42h392q40 4 41 55.5t-43 59.5h-319l-1 226h145q37 6 37.5 56t-38.5 51h-146v196h254q41 2 40 54z" />
    <glyph glyph-name="F" unicode="F" horiz-adv-x="513" 
d="M492 696.5q-1 51.5 -44 50.5h-334q-42 0 -42 -49v-660q3 -45 56.5 -44t55.5 40l-1 303l165 -1q37 6 38 56.5t-38 51.5h-167v198h270q42 3 41 54.5z" />
    <glyph glyph-name="G" unicode="G" horiz-adv-x="655" 
d="M301.5 742.5q-83.5 -14.5 -159 -87.5t-94 -206t12.5 -233t105.5 -156.5t180.5 -62t195 4.5q52 4 64 61v285q13 92 -75 87h-169q-47 0 -47 -56t44 -59l142 -1v-210q-128 -11 -194.5 8.5t-106 78t-44 169.5t55 195.5t159 80.5t130 -28.5t65 -14.5t40 51t-45 68t-113 33.5
t-146 -8z" />
    <glyph glyph-name="H" unicode="H" horiz-adv-x="656" 
d="M486 708v-234h-303v233q3 49 -54 49t-55 -49v-675q1 -42 55.5 -41t54.5 43v326h305v-325q-3 -44 53.5 -44t54.5 43v674q2 48 -55.5 47.5t-55.5 -47.5z" />
    <glyph glyph-name="I" unicode="I" horiz-adv-x="403" 
d="M294 747h-178q-57 -1 -58 -51t54 -52h37v-541l-49 -1q-50 -1 -50 -53t48 -49h210q49 0 49.5 50.5t-47.5 52.5h-51v542l39 1q52 -3 55.5 48t-59.5 53z" />
    <glyph glyph-name="J" unicode="J" horiz-adv-x="670" 
d="M153 752q-55 3 -55 -55t58 -55h215v-359q11 -147 -56.5 -170t-128 2.5t-81 89t-73 42.5t-28 -89.5t91 -116.5t166.5 -45t152.5 49.5t63 101.5t4.5 129v368h122q60 -3 58.5 55t-58.5 53h-451z" />
    <glyph glyph-name="K" unicode="K" horiz-adv-x="568" 
d="M70 696v-643q0 -54 54.5 -54t56.5 55v271l57 1q71 2 124 -86l86 -215q25 -43 69.5 -22.5t29.5 67.5l-82 194q-56 144 -172 152l197 234q50 46 4 85t-85 -18l-190 -226q-18 -24 -36 -34v242q-4 52 -57 52t-56 -55z" />
    <glyph glyph-name="L" unicode="L" horiz-adv-x="539" 
d="M74 703v-631q1 -70 50 -72l348 -1q55 4 56 59t-56 54h-295v590q0 46 -48.5 47.5t-54.5 -46.5z" />
    <glyph glyph-name="M" unicode="M" horiz-adv-x="807" 
d="M627 37v553l-172 -414q-22 -49 -62.5 -47.5t-53.5 49.5l-168 418v-561q0 -40 -51 -40t-50 42v646q14 69 91.5 68.5t93.5 -67.5l144 -370l162 376q18 62 89.5 61.5t80.5 -69.5v-646q-4 -43 -54 -43t-50 44z" />
    <glyph glyph-name="N" unicode="N" horiz-adv-x="673" 
d="M611 41q0 -37 -30.5 -46t-56.5 25l-349 512v-497q-1 -40 -53 -40t-53 42v654q0 45 36.5 55.5t68.5 -26.5l332 -488v464q2 53 52.5 53t52.5 -50v-658z" />
    <glyph glyph-name="O" unicode="O" horiz-adv-x="784" 
d="M389 753q148 0 250.5 -111.5t102.5 -270.5q0 -158 -103.5 -269.5t-249.5 -111.5q-145 0 -248.5 111.5t-103.5 269.5q0 159 102.5 270.5t249.5 111.5zM389 646q-100 0 -170.5 -79.5t-70.5 -192.5t70.5 -192.5t170.5 -79.5q101 0 171.5 79.5t70.5 192.5t-70.5 192.5
t-171.5 79.5z" />
    <glyph glyph-name="P" unicode="P" horiz-adv-x="599" 
d="M74 43v654q-6 51 47 54h191q159 4 218 -91t41.5 -193t-79.5 -155.5t-202 -55.5h-104v-212q-1 -49 -56 -48.5t-56 47.5zM294 370q113 -7 146 60t8.5 137t-151.5 69h-111v-266h108z" />
    <glyph glyph-name="Q" unicode="Q" horiz-adv-x="787" 
d="M459 106q-33 -10 -69 -10q-101 0 -172.5 80t-71.5 194t71.5 194t172.5 80q102 0 173 -80t71 -194t-72 -194q-4 -5 -9 -10l-50 91q-33 67 -85 38.5t-11 -95.5zM580 -133q41 -68 88 -42t10 96l-74 137q20 17 38 37q104 112 104 272t-103.5 272.5t-252.5 112.5
q-148 0 -251.5 -112.5t-103.5 -272.5t104 -272.5t251 -112.5q63 0 118 20z" />
    <glyph glyph-name="R" unicode="R" horiz-adv-x="619" 
d="M70 38q3 -42 54 -42t54 39v270h82q70 5 112 -71l131 -219q30 -38 74.5 -8t13.5 81l-120 199q-35 72 -92 66q112 27 132 137.5t-46 187.5t-200 70h-144q-51 1 -51 -54v-656zM385 594q35 -44 12 -112t-105 -66h-120v220h109q69 2 104 -42z" />
    <glyph glyph-name="S" unicode="S" horiz-adv-x="570" 
d="M295 754q-123 -3 -183 -78t-47 -158t87 -131.5t134 -68t107.5 -50t29 -91t-91 -75.5t-123 15.5t-76.5 68t-65.5 6t-19 -72.5t87.5 -86.5t175.5 -42.5t171 64t61 161t-73 147t-151.5 73t-118.5 74.5t-4.5 100.5t102 46.5t114 -45.5q42 -34 76.5 -1t-2.5 79q-67 68 -190 65
z" />
    <glyph glyph-name="T" unicode="T" horiz-adv-x="638" 
d="M78 748q-52 1 -52 -54.5t55 -55.5h186v-599q3 -42 58 -42.5t57 41.5v602h187q54 2 52 55.5t-52 52.5h-491z" />
    <glyph glyph-name="U" unicode="U" horiz-adv-x="752" 
d="M72 703l1 -352q-4 -142 58.5 -231t153.5 -111t183.5 1.5t149 110t54.5 235.5v352q-10 41 -62 40.5t-58 -39.5v-357q1 -128 -44.5 -184t-137 -55.5t-138 67.5t-43.5 174v352q3 42 -59.5 40.5t-57.5 -43.5z" />
    <glyph glyph-name="V" unicode="V" horiz-adv-x="696" 
d="M553 711l-191 -515l-209 518q-20 54 -74.5 32t-26.5 -78l251 -627q17 -50 61.5 -49.5t59.5 50.5l235 632q13 55 -38.5 73t-67.5 -36z" />
    <glyph glyph-name="W" unicode="W" horiz-adv-x="919" 
d="M783 710l-137 -564l-125 426q-23 49 -77.5 47.5t-68.5 -49.5l-110 -419l-126 553q-17 57 -69.5 42t-32.5 -75l139 -610q15 -70 86.5 -69.5t88.5 68.5l100 393l112 -400q18 -62 86 -61.5t83 70.5l158 617q12 56 -41.5 68t-65.5 -37z" />
    <glyph glyph-name="X" unicode="X" horiz-adv-x="593" 
d="M292 482l-153 244q-32 41 -72 17.5t-18 -73.5l174 -280l-164 -276q-46 -79 3.5 -106.5t92.5 40.5l135 243l156 -246q47 -69 92 -37.5t2 99.5l-179 287l192 275q22 58 -22.5 78.5t-73.5 -26.5z" />
    <glyph glyph-name="Y" unicode="Y" horiz-adv-x="574" 
d="M346 323v-287q-4 -42 -56 -41t-53 44v286l-204 352q-24 45 16.5 66.5t69.5 -18.5l175 -300l168 302q18 37 61.5 20.5t26.5 -60.5z" />
    <glyph glyph-name="Z" unicode="Z" horiz-adv-x="609" 
d="M516 638l-349 -527h369q52 0 52 -54t-53 -58l-412 1q-59 1 -78 42.5t13 82.5l341 516h-310q-54 2 -53.5 54.5t54.5 52.5h372q59 2 68.5 -35.5t-14.5 -74.5z" />
    <glyph glyph-name="bracketleft" unicode="[" horiz-adv-x="207" 
d="M212 1009h-159q-39 -12 -37 -54v-1135q-1 -49 46 -47h156q54 0 57 43.5t-49 46.5h-116l1 1056h101q61 -4 64 42t-64 48z" />
    <glyph glyph-name="backslash" unicode="\" horiz-adv-x="384" 
d="M330 -184q12 -36 39 -41.5t45 15t6 53.5l-337 1110q-10 45 -39 55.5t-50.5 -12.5t-2.5 -69z" />
    <glyph glyph-name="bracketright" unicode="]" horiz-adv-x="254" 
d="M31 1009h159q39 -12 37 -54v-1135q1 -49 -46 -47h-156q-54 0 -57 43.5t49 46.5h116l-1 1056h-101q-61 -4 -64 42t64 48z" />
    <glyph glyph-name="underscore" unicode="_" horiz-adv-x="795" 
d="M80 -177q-42 -1 -50 -30t3.5 -45.5t35.5 -18.5h652q26 0 37 20t4 45.5t-55 28.5h-627z" />
    <glyph glyph-name="a" unicode="a" horiz-adv-x="562" 
d="M507 493v-463q-1 -37 -51.5 -37.5t-50.5 38.5v50q-76 -96 -174.5 -86.5t-155 89t-46.5 186.5t66.5 168.5t112.5 75.5t108 4.5t84 -55.5v29q-5 36 53 35.5t54 -34.5zM231 416q-57 -16 -87.5 -91t-2 -148.5t125 -71.5t135.5 105v140q-30 44 -72 63t-99 3z" />
    <glyph glyph-name="b" unicode="b" horiz-adv-x="590" 
d="M73 708v-677q-2 -42 53.5 -41t52.5 39v41q59 -81 160.5 -77.5t164 77.5t61.5 193t-54 187.5t-156 76.5t-174 -83v265q1 46 -56 46t-52 -47zM270 414.5q60 21.5 116 -6t70 -105.5t-15 -145.5t-120.5 -65t-134.5 108.5v103q24 89 84 110.5z" />
    <glyph glyph-name="c" unicode="c" horiz-adv-x="496" 
d="M85.5 436q-58.5 -79 -59 -183t48.5 -171t142.5 -83t156.5 14.5t92 82.5q18 48 -20.5 69t-67.5 -22q-21 -37 -78.5 -46t-110.5 27t-57 120t36.5 131.5t99 49t108.5 -54.5q39 -29 71.5 2.5t-4.5 81.5q-72 76 -185.5 68.5t-172 -86.5z" />
    <glyph glyph-name="d" unicode="d" horiz-adv-x="583" 
d="M524 711v-677q3 -42 -53 -42.5t-53 41.5v32q-59 -76 -165.5 -72.5t-168 77.5t-56.5 193t65.5 190.5t166 76.5t156.5 -70v250q-2 43 52.5 44t55.5 -43zM328.5 413q-64.5 21 -121.5 -3t-72.5 -94.5t0 -125.5t68.5 -84t120.5 -10.5t90.5 109.5v94q-21 93 -85.5 114z" />
    <glyph glyph-name="e" unicode="e" horiz-adv-x="584" 
d="M109.5 55.5q-73.5 65.5 -77.5 187.5t66 205.5t178.5 86t177.5 -53t73 -200.5q-1 -50 -46 -61h-339q5 -58 50.5 -93.5t112.5 -35.5t112 51q27 39 70.5 14t6.5 -83q-37 -45 -85.5 -67.5t-137 -19t-162 69zM145 318h275q-9 88 -69 111t-125 0t-81 -111z" />
    <glyph glyph-name="f" unicode="f" horiz-adv-x="354" 
d="M95 487h-38q-34 -1 -34.5 -52t38.5 -51h41v-349q1 -44 54.5 -43.5t52.5 42.5v351h65q45 0 46.5 50.5t-45.5 50.5h-74q-34 129 14.5 152t75 6.5t57.5 -7.5t32.5 54.5t-93 59.5t-158.5 -50.5t-34 -213.5z" />
    <glyph glyph-name="g" unicode="g" horiz-adv-x="573" 
d="M58 381q-38 -114 -10.5 -214t100.5 -142.5t152.5 -27.5t107.5 56q10 -126 -44 -161.5t-121.5 -20.5t-94.5 49t-66.5 4t-1 -81.5t144.5 -69.5t197 37t91 189v489q-1 38 -59 38t-57 -41q-74 63 -187.5 36.5t-151.5 -140.5zM402 378v-249q-138 -59 -201 -9t-56 168t97.5 138
t159.5 -48z" />
    <glyph glyph-name="h" unicode="h" horiz-adv-x="566" 
d="M60 711v-677q1 -42 55 -41.5t57 38.5v312q70 90 156 76t79 -123v-261q-3 -43 53.5 -43.5t56.5 42.5v311q-8 151 -141 177t-206 -70v258q0 43 -55.5 43t-54.5 -42z" />
    <glyph glyph-name="i" unicode="i" horiz-adv-x="256" 
d="M78 491v-459q-2 -40 57 -39.5t53 39.5v459q2 36 -54.5 35.5t-55.5 -35.5zM66 680q0 27 20.5 48.5t48.5 21.5q27 0 45.5 -19.5t18.5 -50.5t-19.5 -51t-46.5 -20q-28 0 -47.5 21.5t-19.5 49.5z" />
    <glyph glyph-name="j" unicode="j" horiz-adv-x="328" 
d="M222 515h-125q-52 0 -51.5 -53.5t54.5 -55.5h56l1 -407q-15 -73 -57 -78t-59 -24.5t-5.5 -50t72.5 -31t108 46.5t51 131v450q10 76 -45 72zM132 679q0 27 20.5 48.5t48.5 21.5q27 0 45.5 -19.5t18.5 -50.5t-19.5 -51t-46.5 -20q-28 0 -47.5 21.5t-19.5 49.5z" />
    <glyph glyph-name="k" unicode="k" horiz-adv-x="537" 
d="M422 12l-168 228l-62 -60v-147q-1 -42 -58 -42t-57 42v675q1 48 56.5 48t55.5 -48v-385l203 183q33 35 71 -1.5t8 -74.5l-134 -114l171 -239q30 -39 -16 -71t-70 6z" />
    <glyph glyph-name="l" unicode="l" horiz-adv-x="299" 
d="M177 197q5 -78 64 -94q51 -31 25 -76.5t-87 -22.5q-113 49 -111 162l1 532q-6 54 55.5 53t53.5 -53z" />
    <glyph glyph-name="m" unicode="m" horiz-adv-x="846" 
d="M71 483v-452q1 -36 54.5 -36t55.5 35v364q185 92 185 -32v-332q0 -35 55.5 -35t56.5 33v360q183 101 185 -22v-334q4 -37 52.5 -37t56.5 36v348q5 115 -60 136t-123.5 3t-118.5 -72q-37 92 -125.5 81t-167.5 -73v31q0 41 -54.5 40.5t-51.5 -42.5z" />
    <glyph glyph-name="n" unicode="n" horiz-adv-x="591" 
d="M71 481v-449q2 -39 56.5 -38.5t55.5 37.5v325q59 70 155.5 70.5t82.5 -127.5v-267q1 -37 53 -37.5t54 38.5v315q3 149 -80.5 170.5t-152.5 -7.5t-114 -76v48q0 43 -55.5 43t-54.5 -45z" />
    <glyph glyph-name="o" unicode="o" horiz-adv-x="586" 
d="M90 425.5q-51 -69.5 -49 -178t51 -170t105.5 -79t103.5 -17.5t98 18t103 79.5t53 172t-41 171.5t-93.5 87t-109.5 27.5t-114 -20t-107 -91zM402.5 397q48.5 -47 49.5 -137.5t-46.5 -132.5t-107 -43t-107 42.5t-48 130.5t46.5 135.5t105.5 50t107 -45.5z" />
    <glyph glyph-name="p" unicode="p" horiz-adv-x="592" 
d="M54 -193v683q-4 36 51.5 36t54.5 -34v-49q59 88 165.5 84.5t167.5 -83t58 -193t-65.5 -187t-167 -76.5t-156.5 65v-246q0 -36 -55.5 -36t-52.5 36zM247 107.5q64 -25.5 120 0.5t71 92t-0.5 127t-79 83.5t-123 -3.5t-72.5 -94v-131q20 -49 84 -74.5z" />
    <glyph glyph-name="q" unicode="q" horiz-adv-x="596" 
d="M467 -231l192 110q54 33 30 74.5t-79 10.5l-89 -50v568q-1 34 -50 35t-52 -31v-30q-59 71 -161 67.5t-165 -84.5t-61 -191t63.5 -181t166 -74t155.5 65v-255q5 -47 50 -34zM332 108.5q-62 -24.5 -119.5 3t-72.5 88.5t3 124.5t82 84.5t123.5 -11t65.5 -105v-75
q-20 -85 -82 -109.5z" />
    <glyph glyph-name="r" unicode="r" horiz-adv-x="455" 
d="M68 489v-457q2 -41 56 -40.5t55 40.5v267q-3 84 47 112.5t93 21t61.5 -27t42 -11.5t29 40t-27 64.5t-108 31.5t-139.5 -85v44q0 37 -55 37t-54 -37z" />
    <glyph glyph-name="s" unicode="s" horiz-adv-x="483" 
d="M178 531.5q-58 -16.5 -95 -62t-28.5 -114t61 -97.5t155.5 -39.5t91.5 -75.5t-97 -62.5t-134.5 60.5t-88.5 21t12 -97.5t145 -75.5t165.5 14t96.5 108.5t-19.5 138.5t-158.5 64.5t-128.5 50.5t20.5 68t92.5 14.5t77 -28.5t37.5 -21t34.5 16t11 41.5t-34.5 48.5t-93.5 34
t-122 -6.5z" />
    <glyph glyph-name="t" unicode="t" horiz-adv-x="522" 
d="M110 707v-205h-45q-44 2 -43 -49.5t44 -50.5h41v-165q-10 -117 51 -182t158.5 -62.5t173.5 106.5q39 78 -12.5 102.5t-78.5 -46.5q-47 -68 -118.5 -50.5t-67.5 129.5l1 168h175q42 0 42.5 50.5t-44.5 49.5h-169v200q2 50 -54 51t-54 -46z" />
    <glyph glyph-name="u" unicode="u" horiz-adv-x="589" 
d="M518 31v457q-2 38 -56 38t-55 -35v-288q-75 -115 -154 -104t-73 127v263q-1 36 -55.5 36.5t-57.5 -35.5v-313q11 -152 142.5 -179.5t199.5 97.5v-65q0 -38 55 -38t54 39z" />
    <glyph glyph-name="v" unicode="v" horiz-adv-x="517" 
d="M307 28q-17 -30 -59.5 -30t-59.5 32l-170 431q-9 37 40 52t63 -20l128 -333l144 334q16 33 63.5 19.5t32.5 -56.5z" />
    <glyph glyph-name="w" unicode="w" horiz-adv-x="707" 
d="M576 492l-83 -334l-88 318q-16 35 -68 34t-61 -36l-79 -323l-78 344q-15 35 -62 22.5t-33 -51.5l102 -426q10 -49 67.5 -48.5t68.5 47.5l80 339l88 -344q13 -43 68 -42.5t61 49.5l117 427q7 39 -41.5 48.5t-58.5 -24.5z" />
    <glyph glyph-name="x" unicode="x" horiz-adv-x="539" 
d="M270 353l-121 150q-44 41 -84.5 7.5t-6.5 -75.5l141 -171l-150 -173q-39 -35 2 -73.5t72 -5.5l145 174l145 -170q27 -37 72.5 0t9.5 72l-164 184l158 169q29 43 -10.5 75t-76.5 -17z" />
    <glyph glyph-name="y" unicode="y" horiz-adv-x="600" 
d="M548 439l-287 -632q-22 -53 -74.5 -29t-20.5 79l87 195l-197 382q-33 60 19 83.5t76 -34.5l160 -320l136 319q22 58 74.5 37.5t26.5 -80.5z" />
    <glyph glyph-name="z" unicode="z" horiz-adv-x="515" 
d="M96 518q-48 0 -48 -53t48 -53h224l-257 -288q-37 -39 -24.5 -81.5t55.5 -42.5l341 -1q54 5 54 53.5t-58 53.5h-250l261 302q35 42 25 78.5t-71 31.5h-300z" />
    <glyph glyph-name="braceleft" unicode="{" horiz-adv-x="303" 
d="M113 793v-229q-9 -97 -93 -170q84 -76 93 -173v-229q9 -139 87 -202q58 -32 86 -10t21.5 50t-51.5 52q-41 28 -44 108l1 236q4 111 -80 165q84 57 80 168l-1 236q3 80 44 108q45 24 47 52.5t-21.5 50t-81.5 -10.5q-78 -63 -87 -202z" />
    <glyph glyph-name="bar" unicode="|" horiz-adv-x="247" 
d="M177 959v-1127q-1 -40 -22 -51.5t-43 2t-22 48.5v1128q-1 36 21 48.5t45 2t21 -50.5z" />
    <glyph glyph-name="braceright" unicode="}" horiz-adv-x="293" 
d="M196 793v-229q9 -97 93 -170q-84 -76 -93 -173v-229q-9 -139 -87 -202q-58 -32 -86 -10t-21.5 50t51.5 52q41 28 44 108l-1 236q-4 111 80 165q-84 57 -80 168l1 236q-3 80 -44 108q-45 24 -47 52.5t21.5 50t81.5 -10.5q78 -63 87 -202z" />
    <glyph glyph-name="sterling" unicode="&#xa3;" horiz-adv-x="586" 
d="M361 360q60 1 61 51.5t-55 51.5h-137v80q-4 96 89.5 105t119.5 -57q31 -37 69.5 -16t23.5 74q-67 123 -229 98t-176 -192v-95h-37q-47 -2 -46.5 -48.5t44.5 -52.5h38v-53h-36q-47 -5 -47 -47.5t45 -47.5h35q-9 -102 -56.5 -108t-46 -55.5t48.5 -51.5h437q58 -6 60 52
t-62 54h-323q59 42 49 110h139q51 -1 52.5 49t-54.5 48h-137v51h131z" />
    <glyph glyph-name="copyright" unicode="&#xa9;" horiz-adv-x="443" 
d="M149.5 646q-23.5 -32 -23 -70.5t25.5 -67t62 -34.5t62.5 11t33 39t-12.5 30t-27 -10t-28 -23t-42 8t-25 45.5t11 49t40.5 17t39 -16t31 -6t11 28t-34 30.5t-64 7t-60 -38zM131 477q40 -42 95 -42q56 0 96 41.5t40 102.5t-38 101t-93 40q-56 0 -98 -42.5t-42 -99.5
q0 -59 40 -101zM32 578q0 82 60.5 143.5t141.5 61.5q78 0 132 -58t54 -145q0 -88 -57 -147.5t-137 -59.5q-78 0 -136 60.5t-58 144.5z" />
    <glyph glyph-name="registered" unicode="&#xae;" horiz-adv-x="430" 
d="M120 477q40 -42 95 -42q56 0 96 41.5t40 102.5t-38 101t-93 40q-56 0 -98 -42.5t-42 -99.5q0 -59 40 -101zM21 578q0 82 60.5 143.5t141.5 61.5q78 0 132 -58t54 -145q0 -88 -57 -147.5t-137 -59.5q-78 0 -136 60.5t-58 144.5zM141 488q1 -13 21.5 -13t22.5 13v66h10
q21 0 34 -20l36 -53q9 -11 29 -2t10 22l-34 51q-11 20 -28 17q35 9 41 41t-17 50.5t-64 15.5h-45q-16 0 -16 -14v-174zM233.5 634.5q12.5 -8.5 6 -26.5t-33.5 -18h-24v51h24q15 2 27.5 -6.5z" />
    <glyph glyph-name="quarter" unicode="&#xbc;" horiz-adv-x="612" 
d="M516 87v-48q0 -44 -44.5 -44t-42.5 45v49h-126q-65 7 -40 85l56 181q20 49 57.5 31.5t16.5 -64.5l-44 -143h81v167q2 48 42 46.5t44 -48.5v-166h45q33 -3 32.5 -44.5t-38.5 -46.5h-39zM148 163q-32 -35 -60.5 -10t3.5 58l287 386q26 36 57 13.5t1 -58.5zM130.5 350.5
q-42.5 -0.5 -40.5 46.5v220l-7 -8q-40 -30 -62.5 2.5t20.5 65.5l70 63q24 16 42 3.5t16 -67.5v-278q4 -47 -38.5 -47.5z" />
    <glyph glyph-name="half" unicode="&#xbd;" horiz-adv-x="562" 
d="M126 163q-32 -35 -60.5 -9.5t3.5 57.5l287 387q26 36 57 13.5t2 -58.5zM268 314q-15 -39 -1.5 -59t36 -16.5t30.5 32.5t33.5 42t51 -8.5t9.5 -49.5t-47 -60l-96 -109q-27 -25 -18 -57.5t43 -30.5h190q42 0 43 44t-41 46l-111 -1l75 86q42 39 49.5 77.5t-4.5 72.5t-36 49
t-58.5 21.5t-80.5 -11.5t-67 -68zM132.5 350.5q-42.5 -0.5 -40.5 46.5v220l-7 -8q-40 -30 -62.5 2.5t20.5 65.5l70 63q24 16 42 3.5t16 -67.5v-278q4 -47 -38.5 -47.5z" />
    <glyph glyph-name="three quarters" unicode="&#xbe;" horiz-adv-x="650" 
d="M187 162q-31 -35 -60 -9.5t3 57.5l286 384q26 37 57 14.5t1 -58.5zM557 87v-48q0 -44 -44.5 -44t-43.5 45v49h-126q-65 7 -40 85l56 182q21 48 58.5 30.5t16.5 -64.5l-44 -142h80v166q2 49 42.5 47t44.5 -49v-165h44q34 -4 33.5 -45t-38.5 -47h-39zM67 751
q-27 0 -26.5 -35.5t27.5 -32.5h105l-61 -65q-24 -16 -4.5 -41t39.5 -11q14 10 35.5 -1.5t30.5 -38t-6 -55t-52.5 -30.5t-71.5 43q-16 26 -47 4t-13 -45q24 -41 68 -59t93.5 -11t84 58t19.5 117t-85 73l62 71q11 24 -1.5 43.5t-41.5 15.5h-155z" />
    <glyph glyph-name="multiply" unicode="&#xd7;" horiz-adv-x="456" 
d="M47 262q-40 -34 0.5 -74.5t74.5 -3.5l104 104l101 -101q35 -40 75.5 0.5t-0.5 77.5l-99 99l99 100q40 35 -0.5 75.5t-77.5 -0.5l-98 -98l-101 101q-34 40 -74.5 -0.5t-3.5 -74.5l102 -103z" />
    <glyph glyph-name="divide" unicode="&#xf7;" horiz-adv-x="571" 
d="M284 128q-32 0 -54 22.5t-22 55.5q0 30 22 53t54 23q31 0 54 -23t23 -53q0 -33 -23 -55.5t-54 -22.5zM284 458q-32 0 -54 22.5t-22 55.5q0 30 22 53t54 23q31 0 54 -23t23 -53q0 -33 -23 -55.5t-54 -22.5zM481 317q53 -5 53 52.5t-51 55.5h-396q-52 4 -52 -53.5t55 -54.5
h391z" />
    <glyph glyph-name="hyphen" unicode="&#x2010;" horiz-adv-x="579" 
d="M484 317q53 -5 53 52.5t-51 55.5h-396q-52 4 -52 -53.5t55 -54.5h391z" />
    <glyph glyph-name="quoteleft" unicode="&#x2018;" horiz-adv-x="195" 
d="M101 700q32 0 54 -22t22 -54t-22 -54.5t-54 -22.5q-31 0 -54 22.5t-28.5 70.5t23 101t79.5 84q14 6 24.5 -9t-5.5 -27q-53 -48 -39 -89z" />
    <glyph glyph-name="quoteright" unicode="&#x2019;" horiz-adv-x="195" 
d="M95 676q-32 0 -54 22t-22 54t22 54.5t54 22.5q31 0 54 -22.5t28.5 -70.5t-23 -101t-79.5 -84q-14 -6 -24.5 9t5.5 27q53 48 39 89z" />
    <glyph glyph-name="quotedblleft" unicode="&#x201c;" horiz-adv-x="365" 
d="M268 700q32 0 54 -22t22 -54t-22 -54.5t-54 -22.5q-31 0 -54 22.5t-28.5 70.5t23 101t79.5 84q14 6 24.5 -9t-5.5 -27q-53 -48 -39 -89zM102 700q32 0 54 -22t22 -54t-22 -54.5t-54 -22.5q-31 0 -54 22.5t-28.5 70.5t23 101t79.5 84q14 6 24.5 -9t-5.5 -27
q-53 -48 -39 -89z" />
    <glyph glyph-name="quotedblright" unicode="&#x201d;" horiz-adv-x="368" 
d="M95 676q-32 0 -54 22t-22 54t22 54.5t54 22.5q31 0 54 -22.5t28.5 -70.5t-23 -101t-79.5 -84q-14 -6 -24.5 9t5.5 27q53 48 39 89zM261 676q-32 0 -54 22t-22 54t22 54.5t54 22.5q31 0 54 -22.5t28.5 -70.5t-23 -101t-79.5 -84q-14 -6 -24.5 9t5.5 27q53 48 39 89z" />
    <glyph glyph-name="bullet" unicode="&#x2022;" horiz-adv-x="460" 
d="M232 557q72 0 122 -50t50 -122t-50 -122t-122 -50t-122 50t-50 122t50 122t122 50z" />
    <glyph glyph-name="Euro" unicode="&#x20ac;" horiz-adv-x="620" 
d="M190 390h255q24 0 34.5 23t4 47t-52.5 27h-230q6 53 51.5 105.5t117.5 53.5t101.5 -26t63.5 -19t39 49t-45.5 68.5t-99 31.5t-125 -12.5t-140 -90t-74.5 -161.5q-72 10 -77 -48t68 -54l-2 -36q-70 4 -70.5 -53.5t81.5 -47.5q13 -116 89.5 -181t177 -71.5t154.5 24
t79.5 66.5t-5 64.5t-83.5 -19.5t-137.5 -39t-125.5 62.5t-40 97.5h242q25 1 35.5 19.5t4 45.5t-52.5 30h-238v44z" />
    <glyph glyph-name="trademark" unicode="&#x2122;" horiz-adv-x="661" 
d="M306 723q-7 -6 -19 -6h-72v-242q-1 -26 -36 -26t-36 27v239h-77q-27 0 -27 35t26 35h222q19 0 25 -18q11 17 36 17q36 0 43 -34l60 -148l68 151q8 32 41.5 32t37.5 -36v-276q-2 -24 -33.5 -24t-31.5 24l-1 184l-56 -125q-10 -21 -28 -20.5t-23 21.5l-51 126v-188
q0 -22 -34.5 -22t-34.5 23z" />
    <glyph glyph-name="glyph111" horiz-adv-x="286" 
d="M18 513q0 23 17 40t39 17t37 -16t15 -41q0 -24 -16 -40.5t-38 -16.5t-38 17t-16 40zM159 513q0 25 18.5 44t43.5 19q24 0 40.5 -17.5t16.5 -45.5q0 -27 -17.5 -45t-41.5 -18q-25 0 -42.5 19t-17.5 44zM20 369q0 23 17 40t38 17q22 0 37 -16t15 -41q0 -23 -16 -39.5
t-38 -16.5q-21 0 -37 17t-16 39zM65 333v26q4 -6 13.5 -5.5t15.5 7t6 17t-5.5 17.5t-15 7t-14.5 -6v3q0 3 -5 3t-5 -4v-64q0 -4 4.5 -4t5.5 3zM65 374v8q1 8 6.5 10t11 0t7 -7.5t0 -11.5t-6.5 -8t-10.5 -0.5t-7.5 9.5zM12 229q0 23 17 40t38 17q22 0 37 -16t15 -41
q0 -23 -16 -39.5t-38 -16.5q-21 0 -37 17t-16 39zM57 193v26q4 -6 13.5 -5.5t15.5 7t6 17t-5.5 17.5t-15 7t-14.5 -6v3q0 3 -5 3t-5 -4v-64q0 -4 4.5 -4t5.5 3zM57 234v8q1 8 6.5 10t11 0t7 -7.5t0 -11.5t-6.5 -8t-10.5 -0.5t-7.5 9.5zM168 369q0 23 17 40t38 17
q22 0 37 -16t15 -41q0 -23 -16 -39.5t-38 -16.5q-21 0 -37 17t-16 39zM213 333v26q4 -6 13.5 -5.5t15.5 7t6 17t-5.5 17.5t-15 7t-14.5 -6v3q0 3 -5 3t-5 -4v-64q0 -4 4.5 -4t5.5 3zM213 374v8q1 8 6.5 10t11 0t7 -7.5t0 -11.5t-6.5 -8t-10.5 -0.5t-7.5 9.5zM315 436
q0 24 17.5 41.5t40.5 17.5q22 0 37.5 -16.5t15.5 -41.5t-16.5 -42.5t-39.5 -17.5q-22 0 -38.5 17.5t-16.5 41.5z" />
    </font>
</defs>
</svg>
