<svg id="background" xmlns="http://www.w3.org/2000/svg" xmlns:xlink="http://www.w3.org/1999/xlink" viewBox="0 0 117.93 90.26"><defs><style>.cls-1{fill:none;}.cls-2{fill:#e0dcd3;}.cls-3{fill:#bab7b0;}.cls-4{fill:#e96332;}.cls-5{fill:#a84720;}.cls-6{clip-path:url(#clip-path);}.cls-7{fill:#fff;}.cls-8{fill:#3b3e43;}.cls-9{fill:#3d342f;}</style><clipPath id="clip-path" transform="translate(-1157.66 -648.9)"><path class="cls-1" d="M1254.84,702a37.74,37.74,0,0,0-37.67-37.74h-0.25A37.74,37.74,0,0,0,1179.26,702c0,0.49-9.07,10.72-2.87,22.94,3.43,6.76,22.33,14,40.34,14.17,19.1,0.21,37.36-7,41-14.17C1263.91,712.76,1254.84,702.53,1254.84,702Z"/></clipPath></defs><title>avatar.catgrey</title><path class="cls-2" d="M1231,659.43c-4.32,6.09-2.51,14.81,4,19.46s15.39,3.49,19.71-2.6,5.13-24.12,2.42-26.78S1235.29,653.34,1231,659.43Z" transform="translate(-1157.66 -648.9)"/><path class="cls-3" d="M1234.22,663.75c-2.42,4.06-.84,9.46,3.53,12.06s9.87,1.43,12.3-2.62,5.71-17.92,2.61-19.5S1236.64,659.69,1234.22,663.75Z" transform="translate(-1157.66 -648.9)"/><path class="cls-2" d="M1204.46,659.43c4.32,6.09,2.51,14.81-4,19.46s-15.38,3.49-19.71-2.6-5.13-24.12-2.42-26.78S1200.13,653.34,1204.46,659.43Z" transform="translate(-1157.66 -648.9)"/><path class="cls-3" d="M1201.2,663.75c2.42,4.06.84,9.46-3.53,12.06s-9.87,1.43-12.3-2.62-5.72-17.92-2.61-19.5S1198.78,659.69,1201.2,663.75Z" transform="translate(-1157.66 -648.9)"/><path class="cls-1" d="M1189.93,715.83a50.63,50.63,0,0,1,9.34,4.17s0-.09,0-0.14A36.34,36.34,0,0,0,1189.93,715.83Z" transform="translate(-1157.66 -648.9)"/><path class="cls-4" d="M1216.95,664.3h0Z" transform="translate(-1157.66 -648.9)"/><path class="cls-5" d="M1217,664.3h0Z" transform="translate(-1157.66 -648.9)"/><path class="cls-2" d="M1254.84,702a37.74,37.74,0,0,0-37.67-37.74h-0.25A37.74,37.74,0,0,0,1179.26,702c0,0.49-9.07,10.72-2.87,22.94,3.43,6.76,22.33,14,40.34,14.17,19.1,0.21,37.36-7,41-14.17C1263.91,712.76,1254.84,702.53,1254.84,702Z" transform="translate(-1157.66 -648.9)"/><g class="cls-6"><ellipse class="cls-7" cx="59.07" cy="74.46" rx="28.13" ry="11.19"/></g><path class="cls-8" d="M1224.9,712.23c0,2.93-3.42,6.58-7.65,6.58s-7.64-3.65-7.64-6.58,3.42-5.31,7.64-5.31S1224.9,709.3,1224.9,712.23Z" transform="translate(-1157.66 -648.9)"/><path class="cls-8" d="M1209.29,727.78c-2.1,0-4.42-1-6.93-3.09a0.78,0.78,0,1,1,1-1.21c2.94,2.41,5.47,3.23,7.53,2.45,4.09-1.56,5.3-8.88,5.32-9a0.78,0.78,0,1,1,1.55.25c-0.05.34-1.38,8.29-6.31,10.17A6,6,0,0,1,1209.29,727.78Z" transform="translate(-1157.66 -648.9)"/><path class="cls-8" d="M1223.85,728.47a5,5,0,0,1-1.86-.35c-4.69-1.88-5.57-10.57-5.6-10.94a0.78,0.78,0,0,1,1.56-.15c0.22,2.25,1.47,8.37,4.63,9.63,1.73,0.69,3.94-.11,6.56-2.38a0.78,0.78,0,0,1,1,1.19C1227.85,727.46,1225.73,728.47,1223.85,728.47Z" transform="translate(-1157.66 -648.9)"/><ellipse class="cls-7" cx="1220.23" cy="710.13" rx="1.31" ry="2.07" transform="translate(-926.58 1068.61) rotate(-75.72)"/><path class="cls-9" d="M1197.87,718.41a0.84,0.84,0,0,1-.59-0.24c-0.11-.11-9.23-8.7-35-12.63a0.84,0.84,0,1,1,.26-1.67c26.43,4,35.55,12.73,35.93,13.09A0.85,0.85,0,0,1,1197.87,718.41Z" transform="translate(-1157.66 -648.9)"/><path class="cls-9" d="M1196.35,721.81a0.83,0.83,0,0,1-.42-0.11c-0.13-.07-11.13-6.08-37.06-3.38a0.84,0.84,0,0,1-.17-1.68c26.59-2.77,37.62,3.33,38.07,3.59A0.84,0.84,0,0,1,1196.35,721.81Z" transform="translate(-1157.66 -648.9)"/><path class="cls-9" d="M1158.5,731a0.85,0.85,0,0,1-.27-1.65c25.29-8.66,37.41-5.19,37.91-5a0.85,0.85,0,0,1-.49,1.62h0c-0.12,0-12.18-3.44-36.87,5A0.87,0.87,0,0,1,1158.5,731Z" transform="translate(-1157.66 -648.9)"/><path class="cls-9" d="M1235.37,719.72a0.85,0.85,0,0,1-.59-1.45c0.38-.37,9.5-9.06,35.93-13.09a0.85,0.85,0,1,1,.26,1.67c-25.89,4-34.91,12.54-35,12.63A0.84,0.84,0,0,1,1235.37,719.72Z" transform="translate(-1157.66 -648.9)"/><path class="cls-9" d="M1236.9,723.11a0.85,0.85,0,0,1-.42-1.58c0.46-.26,11.48-6.36,38.07-3.59a0.84,0.84,0,1,1-.18,1.68c-26-2.7-37,3.32-37.06,3.38A0.84,0.84,0,0,1,1236.9,723.11Z" transform="translate(-1157.66 -648.9)"/><path class="cls-9" d="M1274.74,732.34a0.87,0.87,0,0,1-.27,0c-24.69-8.46-36.75-5.05-36.87-5a0.85,0.85,0,0,1-.49-1.62c0.5-.15,12.62-3.62,37.91,5A0.85,0.85,0,0,1,1274.74,732.34Z" transform="translate(-1157.66 -648.9)"/><path class="cls-3" d="M1217.82,691.9c-2.32,0-5.09-17.53-1.36-21.49a2.53,2.53,0,0,1,3.49.13C1223.53,674.63,1220,691.9,1217.82,691.9Z" transform="translate(-1157.66 -648.9)"/><circle class="cls-7" cx="74.11" cy="45.46" r="7.58"/><circle class="cls-7" cx="45.78" cy="45.46" r="7.58"/><circle class="cls-8" cx="45.33" cy="45.78" r="4.29"/><circle class="cls-7" cx="42.88" cy="42.32" r="2.74"/><circle class="cls-8" cx="74.11" cy="45.78" r="4.29"/><circle class="cls-7" cx="76.56" cy="42.32" r="2.74"/></svg>