<svg id="background" xmlns="http://www.w3.org/2000/svg" xmlns:xlink="http://www.w3.org/1999/xlink" viewBox="0 0 105.69 96.85"><defs><style>.cls-1,.cls-2,.cls-7{fill:none;}.cls-2,.cls-7{stroke:#35190e;}.cls-2,.cls-5,.cls-7{stroke-miterlimit:10;}.cls-2{stroke-width:6px;}.cls-3,.cls-5{fill:#35190e;}.cls-4{fill:#f7eb32;}.cls-5{stroke:#fff;stroke-width:2px;}.cls-6{clip-path:url(#clip-path);}.cls-7{stroke-linecap:round;stroke-width:9px;}.cls-8{opacity:0.95;}.cls-9{fill:#73d3dd;}.cls-10{fill:#fff;}</style><clipPath id="clip-path" transform="translate(-844.55 -832.26)"><path class="cls-1" d="M861.24,867.88a38.34,38.34,0,1,0,69.53,0c-9.18,6.38-21.38,10.27-34.77,10.27S870.42,874.26,861.24,867.88Z"/></clipPath></defs><title>avatar.bee</title><path class="cls-2" d="M882.15,862.82a24.11,24.11,0,0,0-13.94-23.35" transform="translate(-844.55 -832.26)"/><circle class="cls-3" cx="867.7" cy="837.62" r="5.36" transform="translate(-1010.46 626.78) rotate(-75)"/><path class="cls-2" d="M909.85,862.82a24.11,24.11,0,0,1,13.94-23.35" transform="translate(-844.55 -832.26)"/><circle class="cls-3" cx="924.3" cy="837.62" r="5.36" transform="translate(-1029.81 -564.57) rotate(-15)"/><path class="cls-4" d="M861.24,867.88a38.34,38.34,0,1,0,69.53,0c-9.18,6.38-21.38,10.27-34.77,10.27S870.42,874.26,861.24,867.88Z" transform="translate(-844.55 -832.26)"/><path class="cls-3" d="M896,845.7a38.34,38.34,0,0,0-34.77,22.18c9.18,6.38,21.38,10.27,34.77,10.27s25.58-3.89,34.77-10.27A38.34,38.34,0,0,0,896,845.7Z" transform="translate(-844.55 -832.26)"/><circle class="cls-5" cx="37.45" cy="30.42" r="5.5"/><circle class="cls-5" cx="65.46" cy="30.42" r="5.5"/><g class="cls-6"><line class="cls-7" x1="4.5" y1="55.46" x2="101.19" y2="55.46"/><line class="cls-7" x1="10.41" y1="71.12" x2="101.19" y2="71.12"/><line class="cls-7" x1="10.41" y1="86.54" x2="101.19" y2="86.54"/></g><g class="cls-8"><path class="cls-9" d="M853.27,898.54c5.25-10.38,33.64-19.85,33.64-19.85s9.2,28.47,4,38.86A21.06,21.06,0,1,1,853.27,898.54Z" transform="translate(-844.55 -832.26)"/><path class="cls-9" d="M938.73,898.54c-5.25-10.38-33.64-19.85-33.64-19.85s-9.2,28.47-4,38.86A21.06,21.06,0,0,0,938.73,898.54Z" transform="translate(-844.55 -832.26)"/></g><circle class="cls-10" cx="35.52" cy="27.78" r="2.86"/><circle class="cls-10" cx="67.1" cy="27.78" r="2.86"/></svg>