<?xml version="1.0" encoding="utf-8"?>
<!-- Generator: Adobe Illustrator 19.2.1, SVG Export Plug-In . SVG Version: 6.00 Build 0)  -->
<svg version="1.1" id="background" xmlns="http://www.w3.org/2000/svg" xmlns:xlink="http://www.w3.org/1999/xlink" x="0px" y="0px"
	 viewBox="0 0 110.4 99.4" style="enable-background:new 0 0 110.4 99.4;" xml:space="preserve">
<style type="text/css">
	.st0{fill:#EA692B;}
	.st1{fill:#F3DBBD;}
	.st2{fill:#3D342F;}
	.st3{fill:#FFFFFF;}
	.st4{clip-path:url(#SVGID_2_);}
	.st5{fill:none;stroke:#3D342F;stroke-width:2;stroke-linecap:round;stroke-miterlimit:10;}
</style>
<title>avatar.rabbitred</title>
<path class="st0" d="M52.1,22c0,0-1,17.4-6.3,17.8S32.5,23.3,32.5,23.3S22.1,0.7,39,0S52.1,22,52.1,22z"/>
<path class="st1" d="M49.3,22.2c0,0-0.7,12.6-4.6,12.9s-9.5-11.9-9.5-11.9S27.9,3.8,39.9,3.3S49.3,22.2,49.3,22.2z"/>
<path class="st0" d="M59,22c0,0,1,17.4,6.3,17.8s13.2-16.5,13.2-16.5S88.9,0.7,72.1,0S59,22,59,22z"/>
<path class="st1" d="M61.7,22.2c0,0,0.7,12.6,4.6,12.9s9.5-11.9,9.5-11.9s7.3-19.4-4.7-19.9S61.7,22.2,61.7,22.2z"/>
<path class="st0" d="M84.7,71.8c5,7.7,8.4,27.6-30.4,27.6S22.2,78.6,25.5,71.6c-1.4-22.5,11.8-39.8,30-39.8S85.5,48.7,84.7,71.8z"/>
<circle class="st1" cx="66.8" cy="58.3" r="6.3"/>
<circle class="st2" cx="66.5" cy="58.4" r="3.8"/>
<circle class="st3" cx="67.8" cy="55.3" r="1.8"/>
<circle class="st1" cx="45.1" cy="58" r="6.3"/>
<circle class="st2" cx="44.4" cy="58.4" r="3.8"/>
<circle class="st3" cx="43.2" cy="55.3" r="1.8"/>
<g>
	<g>
		<defs>
			<path id="SVGID_1_" d="M84.7,71.8c5,7.7,8.4,27.6-30.4,27.6S22.2,78.6,25.5,71.6c-1.4-22.5,11.8-39.8,30-39.8
				S85.5,48.7,84.7,71.8z"/>
		</defs>
		<clipPath id="SVGID_2_">
			<use xlink:href="#SVGID_1_"  style="overflow:visible;"/>
		</clipPath>
		<g class="st4">
			<path class="st1" d="M73.2,70c-6.3,0-12.5,1.6-18,4.7c-5.5-3.1-11.7-4.7-18-4.7C16.7,70,0.1,84,0.1,104.6
				c0,20.5,16.6,37.2,37.2,37.2c6.3,0,12.5-1.6,18-4.7c17.9,10,40.6,3.5,50.5-14.5c3.1-5.5,4.7-11.7,4.7-18
				C110.4,84,93.7,70,73.2,70z"/>
		</g>
	</g>
</g>
<path class="st2" d="M62.8,74.6c0,2.4-5.1,6.1-7.1,6.1s-8.1-3.7-8.1-6.1s3.4-4.3,7.6-4.3S62.8,72.2,62.8,74.6z"/>
<path class="st2" d="M47.8,89.3c-2,0-4.2-1-6.5-2.9c-0.3-0.2-0.4-0.7-0.2-1s0.7-0.4,1-0.2l0.1,0.1c2.8,2.3,5.1,3,7.1,2.3
	c3.8-1.5,5-8.3,5-8.4c0.1-0.4,0.5-0.6,0.9-0.5c0.3,0.1,0.5,0.4,0.5,0.7c-0.1,0.3-1.3,7.8-5.9,9.5C49.2,89.2,48.5,89.3,47.8,89.3z"/>
<path class="st2" d="M61.5,90c-0.6,0-1.2-0.1-1.8-0.3c-4.4-1.8-5.2-9.9-5.3-10.3c0-0.4,0.3-0.7,0.7-0.8c0.4,0,0.7,0.3,0.8,0.6
	c0.2,2.1,1.4,7.9,4.3,9c1.6,0.7,3.7-0.1,6.2-2.2c0.3-0.3,0.8-0.3,1.1,0.1c0.3,0.3,0.3,0.8-0.1,1.1C65.3,89,63.3,90,61.5,90z"/>
<path class="st5" d="M71.9,79.4c0,0,6-5.9,23.7-8.6"/>
<path class="st5" d="M72.9,81.6c0,0,7.3-4.2,25.1-2.3"/>
<path class="st5" d="M73.2,84.4c0,0,8.1-2.4,24.9,3.3"/>
<path class="st5" d="M35.4,78.6c0,0-6-5.9-23.7-8.6"/>
<path class="st5" d="M34.4,80.9c0,0-7.3-4.2-25.1-2.3"/>
<path class="st5" d="M34.1,83.7c0,0-8.1-2.4-24.9,3.4"/>
</svg>
