<svg id="background" xmlns="http://www.w3.org/2000/svg" xmlns:xlink="http://www.w3.org/1999/xlink" viewBox="0 0 123.08 81.76"><defs><style>.cls-1{fill:none;}.cls-2{fill:#51504f;}.cls-3{fill:#e96332;}.cls-4{fill:#a84720;}.cls-5{clip-path:url(#clip-path);}.cls-6{fill:#fff;}.cls-7{fill:#3b3e43;}.cls-8{fill:#3d342f;}</style><clipPath id="clip-path" transform="translate(-1194.14 -504.31)"><path class="cls-1" d="M1291.21,546.53a34.81,34.81,0,0,0-34.75-34.81h-0.23a34.81,34.81,0,0,0-34.75,34.81c0,0.45-8.37,9.89-2.65,21.16,3.16,6.23,20.6,17.72,37.21,17.9,17.62,0.19,34.46-11.29,37.81-17.9C1299.58,556.42,1291.21,547,1291.21,546.53Z"/></clipPath></defs><title>avatar.dogearsblack</title><path class="cls-2" d="M1231.07,521.35a22.75,22.75,0,0,0-4.62-3.86l-0.5-.28c-0.08.35-.29,1-0.44,1.85a33.53,33.53,0,0,0-.2,5.79c0,2.34.08,5.2-.15,8.13a65,65,0,0,1-1.28,8.8,100.78,100.78,0,0,1-5.16,16.32l-0.12.31a12.69,12.69,0,1,1-23.55-9.45,13.11,13.11,0,0,1,1.76-3.06,80,80,0,0,0,7.27-10.87,45.19,45.19,0,0,0,2.59-5.65,64.94,64.94,0,0,0,2-6.68,44.26,44.26,0,0,1,3.07-8.79,23.31,23.31,0,0,1,3-4.79,14.8,14.8,0,0,1,2.61-2.5,11.65,11.65,0,0,1,3.92-1.92,10.85,10.85,0,0,1,4.42-.26,12.19,12.19,0,0,1,3.5,1.08,17.18,17.18,0,0,1,4.49,3.23,28.42,28.42,0,0,1,3,3.48,38.73,38.73,0,0,1,2.41,3.72,4.82,4.82,0,0,1-7.68,5.72Z" transform="translate(-1194.14 -504.31)"/><path class="cls-2" d="M1280.28,521.35a22.78,22.78,0,0,1,4.62-3.86l0.5-.28c0.09,0.35.29,1,.44,1.85a33.16,33.16,0,0,1,.2,5.79c-0.05,2.34-.08,5.2.15,8.13a65,65,0,0,0,1.28,8.8,100.64,100.64,0,0,0,5.16,16.32l0.12,0.31A12.69,12.69,0,1,0,1316.3,549a13.13,13.13,0,0,0-1.76-3.06,80.11,80.11,0,0,1-7.27-10.87,45.77,45.77,0,0,1-2.59-5.65,66.45,66.45,0,0,1-2-6.68,44.09,44.09,0,0,0-3.07-8.79,23.18,23.18,0,0,0-3-4.79,14.79,14.79,0,0,0-2.6-2.5,11.68,11.68,0,0,0-3.92-1.92,10.85,10.85,0,0,0-4.42-.26,12.17,12.17,0,0,0-3.49,1.08,17.12,17.12,0,0,0-4.48,3.23,28.35,28.35,0,0,0-3,3.48,38.28,38.28,0,0,0-2.41,3.72,4.82,4.82,0,0,0,7.68,5.72Z" transform="translate(-1194.14 -504.31)"/><path class="cls-1" d="M1231.34,559.25a46.52,46.52,0,0,1,8.62,3.85l0-.13A33.47,33.47,0,0,0,1231.34,559.25Z" transform="translate(-1194.14 -504.31)"/><path class="cls-3" d="M1256.25,511.72h0Z" transform="translate(-1194.14 -504.31)"/><path class="cls-4" d="M1256.32,511.72h0Z" transform="translate(-1194.14 -504.31)"/><path class="cls-2" d="M1291.21,546.53a34.81,34.81,0,0,0-34.75-34.81h-0.23a34.81,34.81,0,0,0-34.75,34.81c0,0.45-8.37,9.89-2.65,21.16,3.16,6.23,20.6,17.72,37.21,17.9,17.62,0.19,34.46-11.29,37.81-17.9C1299.58,556.42,1291.21,547,1291.21,546.53Z" transform="translate(-1194.14 -504.31)"/><g class="cls-5"><path class="cls-6" d="M1282,568.84c0,7.16-11.62,17.23-25.95,17.23S1230.1,576,1230.1,568.84s11.62-13,25.95-13S1282,561.68,1282,568.84Z" transform="translate(-1194.14 -504.31)"/></g><path class="cls-7" d="M1263.6,555.93c0,2.71-3.16,6.07-7.05,6.07s-7.05-3.37-7.05-6.07,3.16-4.9,7.05-4.9S1263.6,553.22,1263.6,555.93Z" transform="translate(-1194.14 -504.31)"/><path class="cls-7" d="M1249.19,570.27c-1.93,0-4.08-1-6.4-2.85a0.72,0.72,0,0,1,.92-1.12c2.71,2.22,5,3,6.94,2.26,3.77-1.44,4.89-8.19,4.9-8.26a0.72,0.72,0,1,1,1.43.23c0,0.31-1.27,7.65-5.82,9.38A5.53,5.53,0,0,1,1249.19,570.27Z" transform="translate(-1194.14 -504.31)"/><path class="cls-7" d="M1262.62,570.91a4.59,4.59,0,0,1-1.72-.33c-4.32-1.73-5.13-9.75-5.17-10.09a0.72,0.72,0,1,1,1.44-.14c0.2,2.08,1.36,7.72,4.27,8.89,1.6,0.64,3.63-.1,6-2.2a0.72,0.72,0,0,1,.95,1.09C1266.31,570,1264.36,570.91,1262.62,570.91Z" transform="translate(-1194.14 -504.31)"/><ellipse class="cls-6" cx="1259.29" cy="553.99" rx="1.21" ry="1.91" transform="translate(-782.41 1133.36) rotate(-75.72)"/><path class="cls-8" d="M1238.66,561.45a0.61,0.61,0,0,1-.42-0.17c-0.08-.08-8.51-8.05-32.38-11.7a0.6,0.6,0,0,1-.5-0.69,0.61,0.61,0,0,1,.69-0.5c24.32,3.72,32.7,11.69,33,12A0.6,0.6,0,0,1,1238.66,561.45Z" transform="translate(-1194.14 -504.31)"/><path class="cls-8" d="M1237.25,564.59a0.6,0.6,0,0,1-.3-0.08c-0.1-.06-10.27-5.64-34.29-3.14a0.6,0.6,0,0,1-.12-1.2c24.48-2.55,34.59,3.05,35,3.29A0.6,0.6,0,0,1,1237.25,564.59Z" transform="translate(-1194.14 -504.31)"/><path class="cls-8" d="M1202.35,573.09a0.6,0.6,0,0,1-.2-1.17c23.28-8,34.4-4.79,34.86-4.64a0.6,0.6,0,0,1-.35,1.16c-0.11,0-11.27-3.19-34.12,4.63A0.62,0.62,0,0,1,1202.35,573.09Z" transform="translate(-1194.14 -504.31)"/><path class="cls-8" d="M1273.25,562.66a0.6,0.6,0,0,1-.42-1c0.35-.34,8.72-8.31,33-12a0.6,0.6,0,1,1,.18,1.19c-23.88,3.65-32.3,11.62-32.38,11.7A0.61,0.61,0,0,1,1273.25,562.66Z" transform="translate(-1194.14 -504.31)"/><path class="cls-8" d="M1274.66,565.79a0.6,0.6,0,0,1-.3-1.13c0.42-.24,10.54-5.84,35-3.29a0.6,0.6,0,1,1-.12,1.2c-24.09-2.51-34.19,3.08-34.29,3.14A0.6,0.6,0,0,1,1274.66,565.79Z" transform="translate(-1194.14 -504.31)"/><path class="cls-8" d="M1309.57,574.3a0.64,0.64,0,0,1-.2,0c-22.84-7.83-34-4.66-34.12-4.63a0.6,0.6,0,0,1-.35-1.16c0.46-.14,11.58-3.33,34.86,4.65A0.6,0.6,0,0,1,1309.57,574.3Z" transform="translate(-1194.14 -504.31)"/><circle class="cls-6" cx="75.1" cy="34.22" r="7.58"/><circle class="cls-6" cx="48.77" cy="34.22" r="7.58"/><circle class="cls-7" cx="48.32" cy="34.54" r="4.29"/><circle class="cls-6" cx="45.87" cy="31.08" r="2.74"/><circle class="cls-7" cx="75.1" cy="34.54" r="4.29"/><circle class="cls-6" cx="77.55" cy="31.08" r="2.74"/></svg>