<svg id="background" xmlns="http://www.w3.org/2000/svg" xmlns:xlink="http://www.w3.org/1999/xlink" viewBox="0 0 113.93 135.69"><defs><style>.cls-1,.cls-8{fill:none;}.cls-2{fill:#fdbb16;}.cls-3{fill:#8a603c;}.cls-4{clip-path:url(#clip-path);}.cls-5{fill:#f3dbbd;}.cls-6{fill:#fff;}.cls-7{fill:#3b3e43;}.cls-8{stroke:#3d342f;stroke-linecap:round;stroke-miterlimit:10;stroke-width:2px;}</style><clipPath id="clip-path" transform="translate(-1664.59 -1000.62)"><path class="cls-1" d="M1758.11,1045.94c-5.35-27.82-13.5-35.32-36.69-35.32h-0.61c-23.2,0-31.34,7.51-36.69,35.32-8,11-6.84,44.68,35.16,44.68H1723C1765,1090.62,1766.14,1057,1758.11,1045.94Z"/></clipPath></defs><title>avatar.leopard</title><circle class="cls-2" cx="31.8" cy="18.1" r="18.1"/><circle class="cls-3" cx="31.8" cy="18.1" r="10.86"/><circle class="cls-2" cx="81.23" cy="18.1" r="18.1"/><circle class="cls-3" cx="81.23" cy="18.1" r="10.86"/><path class="cls-2" d="M1758.11,1047.25c-5.35-27-13.5-34.28-36.69-34.28h-0.61c-23.2,0-31.34,7.28-36.69,34.28-8,10.71-6.84,43.36,35.16,43.36H1723C1765,1090.62,1766.14,1058,1758.11,1047.25Z" transform="translate(-1664.59 -1000.62)"/><g class="cls-4"><path class="cls-5" d="M1768.31,1100.1c0,20-19.49,36.21-46.8,36.21s-46.8-16.21-46.8-36.21,19.49-42.83,46.8-42.83S1768.31,1080.1,1768.31,1100.1Z" transform="translate(-1664.59 -1000.62)"/></g><circle class="cls-6" cx="37.12" cy="42.89" r="7.13"/><circle class="cls-7" cx="37.12" cy="42.95" r="3.61"/><circle class="cls-6" cx="36.04" cy="40.12" r="1.89"/><path class="cls-7" d="M1730.65,1060.09c0,3.3-3.85,6.09-8.61,6.09s-8.61-2.79-8.61-6.09,3.85-6,8.61-6S1730.65,1056.79,1730.65,1060.09Z" transform="translate(-1664.59 -1000.62)"/><path class="cls-7" d="M1713.06,1077.61c-2.36,0-5-1.16-7.81-3.48a0.88,0.88,0,1,1,1.12-1.37c3.31,2.71,6.16,3.64,8.48,2.76,4.61-1.75,6-10,6-10.08a0.88,0.88,0,0,1,1.75.28c-0.06.38-1.55,9.34-7.1,11.46A6.75,6.75,0,0,1,1713.06,1077.61Z" transform="translate(-1664.59 -1000.62)"/><path class="cls-7" d="M1729.46,1078.39a5.58,5.58,0,0,1-2.1-.4c-5.28-2.11-6.27-11.91-6.31-12.33a0.88,0.88,0,0,1,1.76-.17c0.24,2.54,1.65,9.43,5.21,10.85,2,0.78,4.44-.12,7.39-2.68a0.88,0.88,0,0,1,1.16,1.33C1734,1077.25,1731.58,1078.39,1729.46,1078.39Z" transform="translate(-1664.59 -1000.62)"/><ellipse class="cls-6" cx="1725.38" cy="1057.73" rx="1.48" ry="2.33" transform="translate(-1389.09 1469.05) rotate(-75.75)"/><circle class="cls-6" cx="75.92" cy="42.89" r="7.13"/><circle class="cls-7" cx="75.92" cy="42.95" r="3.61"/><circle class="cls-6" cx="77" cy="40.12" r="1.9"/><path class="cls-8" d="M1704.37,1062.68s-9.66-6.1-36.24-6.61" transform="translate(-1664.59 -1000.62)"/><path class="cls-8" d="M1703.14,1065.55s-11.37-3.86-37.55,1.08" transform="translate(-1664.59 -1000.62)"/><path class="cls-8" d="M1703,1068.93s-12.27-1.67-36.68,7.85" transform="translate(-1664.59 -1000.62)"/><path class="cls-8" d="M1738.74,1063.57s9.66-6.1,36.24-6.61" transform="translate(-1664.59 -1000.62)"/><path class="cls-8" d="M1740,1066.43s11.37-3.86,37.55,1.08" transform="translate(-1664.59 -1000.62)"/><path class="cls-8" d="M1740.08,1069.82s12.27-1.67,36.67,7.84" transform="translate(-1664.59 -1000.62)"/><circle class="cls-3" cx="31.8" cy="30.79" r="2.83"/><circle class="cls-3" cx="52.16" cy="40.48" r="2.83"/><circle class="cls-3" cx="25.2" cy="47.26" r="2.83"/><circle class="cls-3" cx="43.55" cy="32.49" r="2.83"/><circle class="cls-3" cx="38.55" cy="23.59" r="2.83"/><circle class="cls-3" cx="49.34" cy="20.76" r="2.83"/><circle class="cls-3" cx="31.8" cy="30.79" r="2.83"/><circle class="cls-3" cx="52.16" cy="29.66" r="2.83"/><circle class="cls-3" cx="60.77" cy="40.65" r="2.83"/><circle class="cls-3" cx="87.74" cy="47.44" r="2.83"/><circle class="cls-3" cx="69.38" cy="32.66" r="2.83"/><circle class="cls-3" cx="74.39" cy="23.76" r="2.83"/><circle class="cls-3" cx="63.6" cy="20.93" r="2.83"/><circle class="cls-3" cx="81.14" cy="30.96" r="2.83"/><circle class="cls-3" cx="60.77" cy="29.83" r="2.83"/></svg>