<?xml version="1.0" encoding="utf-8"?>
<!-- Generator: Adobe Illustrator 19.2.1, SVG Export Plug-In . SVG Version: 6.00 Build 0)  -->
<svg version="1.1" id="background" xmlns="http://www.w3.org/2000/svg" xmlns:xlink="http://www.w3.org/1999/xlink" x="0px" y="0px"
	 viewBox="0 0 91.6 93.3" style="enable-background:new 0 0 91.6 93.3;" xml:space="preserve">
<style type="text/css">
	.st0{fill:#AF5B2B;}
	.st1{fill:#4B190D;}
	.st2{fill:#C2986B;}
	.st3{fill:#8A603C;}
	.st4{fill:#F39E2B;}
	.st5{fill:none;}
	.st6{fill:#F3DBBD;}
	.st7{fill:#3B3E43;}
	.st8{fill:#FFFFFF;}
</style>
<title>avatar.bear</title>
<circle class="st0" cx="69.4" cy="22.4" r="13.5"/>
<circle class="st1" cx="69.4" cy="22.4" r="7.8"/>
<circle class="st2" cx="69.4" cy="22.4" r="13.5"/>
<circle class="st3" cx="69.4" cy="22.4" r="7.8"/>
<path class="st4" d="M46.1,14.9v48l0,0v6.8v1.6l0,0v11.1"/>
<line class="st5" x1="46.1" y1="83.8" x2="46.2" y2="62.9"/>
<path class="st1" d="M46.1,20L46.1,20z"/>
<path class="st1" d="M46.1,20L46.1,20z"/>
<circle class="st0" cx="22.7" cy="22.4" r="13.5"/>
<circle class="st1" cx="22.7" cy="22.4" r="7.8"/>
<circle class="st2" cx="22.7" cy="22.4" r="13.5"/>
<circle class="st3" cx="22.7" cy="22.4" r="7.8"/>
<path class="st4" d="M46,14.9v48l0,0v6.8v1.6l0,0v11.1"/>
<path class="st2" d="M79.5,49.4c0-18-8.1-34.5-33.4-34.5v0.4v-0.4c-25.4,0-33.4,16.5-33.4,34.5c-1.9,7.7-5.2,7.5-3.3,17.3
	s12.4,13.5,20.1,13.7v-6.5c0-4.9,7.9-1.5,8.4-2.7c5.6,2.2,2.5-0.9,3.6,1.4c1.4-0.8,3-1.2,4.6-1.2v-0.2v0.2c1.6,0,3.2,0.4,4.6,1.2
	c1.1-2.3-4.6,2.9,1,0.7c0.5,1.2,11.1-4.4,11.1,0.5v6.5c6.6,0,18.7-1.5,19.3-14.1C82.6,55.4,81.4,57.1,79.5,49.4z"/>
<line class="st5" x1="46" y1="83.8" x2="46" y2="62.9"/>
<path class="st1" d="M46,20L46,20z"/>
<path class="st1" d="M46,20L46,20z"/>
<path class="st6" d="M57,62.2c-2.9-0.9-5.2-2.1-11,0.7c-5.8-2.8-8.1-1.7-11-0.7c-1.4,0.6-5.7,2.9-5.7,11.7c0,4.3-0.1,6.9-0.1,7.5
	c5.2,1.8,7,3.1,17.3,3.1s10.8-1.3,15.9-3.2c0-0.6,0.3-3.1,0.3-7.4C62.8,65,58.4,62.8,57,62.2z"/>
<path class="st7" d="M53.7,61.4c0,2.8-3.2,6.3-7.2,6.3s-7.2-3.5-7.2-6.3c0-2.8,3.2-5,7.2-5S53.7,58.6,53.7,61.4z"/>
<path class="st7" d="M39.8,75.4c-1.8,0-3.7-0.9-5.8-2.6c-0.2-0.3-0.2-0.7,0.1-0.9c0.2-0.2,0.5-0.2,0.7-0.1c2.5,2,4.6,2.7,6.4,2.1
	c3.5-1.3,4.5-7.5,4.5-7.5c0.1-0.4,0.5-0.6,0.8-0.5c0.3,0.1,0.5,0.4,0.5,0.7c0,0.3-1.2,7-5.3,8.6C41,75.2,40.4,75.4,39.8,75.4z"/>
<path class="st7" d="M52,75.9c-0.5,0-1.1-0.1-1.6-0.3c-4-1.6-4.7-8.9-4.7-9.2c-0.1-0.4,0.1-0.7,0.5-0.8s0.7,0.1,0.8,0.5
	c0,0.1,0,0.1,0,0.2c0.2,1.9,1.2,7.1,3.9,8.1c1.5,0.6,3.3-0.1,5.5-2c0.2-0.3,0.7-0.3,0.9,0c0.3,0.2,0.3,0.7,0,0.9
	c0,0-0.1,0.1-0.1,0.1C55.4,75.1,53.6,75.9,52,75.9z"/>
<path class="st8" d="M51.2,59.9c-0.2,0.7-1.2,1-2.2,0.7c-1-0.3-1.7-1-1.6-1.7s1.2-1,2.2-0.7C50.7,58.5,51.4,59.2,51.2,59.9z"/>
<circle class="st8" cx="32.2" cy="45" r="7"/>
<circle class="st7" cx="32.2" cy="45" r="3.5"/>
<circle class="st8" cx="31.2" cy="42.3" r="1.9"/>
<circle class="st8" cx="61.6" cy="44.8" r="7"/>
<circle class="st7" cx="61.6" cy="44.8" r="3.5"/>
<circle class="st8" cx="62.6" cy="42.1" r="1.9"/>
</svg>
