<svg id="background" xmlns="http://www.w3.org/2000/svg" xmlns:xlink="http://www.w3.org/1999/xlink" viewBox="0 0 110.36 156.12"><defs><style>.cls-1,.cls-8{fill:none;}.cls-2{fill:#8a603c;}.cls-3{fill:#f3dbbd;}.cls-4{fill:#966a4d;}.cls-5{fill:#3d342f;}.cls-6{fill:#fff;}.cls-7{clip-path:url(#clip-path);}.cls-8{stroke:#3d342f;stroke-linecap:round;stroke-miterlimit:10;stroke-width:2px;}</style><clipPath id="clip-path" transform="translate(-1521.43 -1162.16)"><path class="cls-1" d="M1606.16,1248.39c5,7.73,8.41,27.62-30.37,27.62s-32.16-20.82-28.85-27.8c-1.39-22.5,11.76-39.85,30-39.85S1606.89,1225.24,1606.16,1248.39Z"/></clipPath></defs><title>avatar.rabbitbrown</title><path class="cls-2" d="M1573.48,1200.12s-1,30.06-6.35,30.68-13.19-28.42-13.19-28.42-10.42-39,6.45-40.19S1573.48,1200.12,1573.48,1200.12Z" transform="translate(-1521.43 -1162.16)"/><path class="cls-3" d="M1570.77,1200.43s-0.69,21.74-4.6,22.19-9.54-20.56-9.54-20.56-7.32-33.37,4.67-34.2S1570.77,1200.43,1570.77,1200.43Z" transform="translate(-1521.43 -1162.16)"/><path class="cls-2" d="M1580.42,1200.12s1,30.06,6.35,30.68,13.19-28.42,13.19-28.42,10.42-39-6.45-40.19S1580.42,1200.12,1580.42,1200.12Z" transform="translate(-1521.43 -1162.16)"/><path class="cls-3" d="M1583.12,1200.43s0.69,21.74,4.6,22.19,9.54-20.56,9.54-20.56,7.32-33.37-4.67-34.2S1583.12,1200.43,1583.12,1200.43Z" transform="translate(-1521.43 -1162.16)"/><path class="cls-4" d="M1606.16,1248.39c5,7.73,8.41,27.62-30.37,27.62s-32.16-20.82-28.85-27.8c-1.39-22.5,11.76-39.85,30-39.85S1606.89,1225.24,1606.16,1248.39Z" transform="translate(-1521.43 -1162.16)"/><circle class="cls-3" cx="66.76" cy="72.75" r="6.3"/><circle class="cls-5" cx="66.51" cy="72.8" r="3.75"/><circle class="cls-6" cx="67.75" cy="69.7" r="1.78"/><circle class="cls-3" cx="45.1" cy="72.38" r="6.3"/><circle class="cls-5" cx="44.43" cy="72.8" r="3.75"/><circle class="cls-6" cx="43.18" cy="69.7" r="1.78"/><g class="cls-7"><path class="cls-3" d="M1594.63,1246.55a37,37,0,0,0-18,4.66,37,37,0,0,0-18-4.66c-20.52,0-37.15,14.06-37.15,34.58a37.16,37.16,0,0,0,55.18,32.49,37.16,37.16,0,0,0,55.18-32.49C1631.78,1260.61,1615.15,1246.55,1594.63,1246.55Z" transform="translate(-1521.43 -1162.16)"/></g><path class="cls-5" d="M1584.21,1251.15c0,2.38-5.07,6.08-7.1,6.08s-8.11-3.7-8.11-6.08,3.4-4.31,7.6-4.31S1584.21,1248.77,1584.21,1251.15Z" transform="translate(-1521.43 -1162.16)"/><path class="cls-5" d="M1569.26,1265.88c-2,0-4.15-1-6.5-2.9a0.74,0.74,0,1,1,.93-1.14c2.76,2.26,5.14,3,7.06,2.3,3.84-1.46,5-8.33,5-8.4a0.74,0.74,0,0,1,1.45.23c-0.05.32-1.29,7.79-5.92,9.55A5.57,5.57,0,0,1,1569.26,1265.88Z" transform="translate(-1521.43 -1162.16)"/><path class="cls-5" d="M1582.92,1266.52a4.64,4.64,0,0,1-1.75-.33c-4.4-1.76-5.22-9.92-5.26-10.27a0.74,0.74,0,0,1,1.46-.14c0.2,2.11,1.38,7.86,4.34,9,1.63,0.65,3.7-.1,6.16-2.24a0.74,0.74,0,0,1,1,1.11C1586.68,1265.58,1584.69,1266.52,1582.92,1266.52Z" transform="translate(-1521.43 -1162.16)"/><path class="cls-8" d="M1593.34,1255.93s6-5.88,23.66-8.58" transform="translate(-1521.43 -1162.16)"/><path class="cls-8" d="M1594.36,1258.2s7.3-4.18,25.07-2.33" transform="translate(-1521.43 -1162.16)"/><path class="cls-8" d="M1594.66,1261s8.05-2.43,24.95,3.35" transform="translate(-1521.43 -1162.16)"/><path class="cls-8" d="M1556.83,1255.19s-6-5.89-23.66-8.58" transform="translate(-1521.43 -1162.16)"/><path class="cls-8" d="M1555.81,1257.46s-7.3-4.18-25.07-2.33" transform="translate(-1521.43 -1162.16)"/><path class="cls-8" d="M1555.51,1260.26s-8.05-2.43-24.95,3.36" transform="translate(-1521.43 -1162.16)"/></svg>