<svg id="background" xmlns="http://www.w3.org/2000/svg" viewBox="0 0 82.41 101.34"><defs><style>.cls-1{fill:#8a603c;}.cls-2{fill:#c2986b;}.cls-3{fill:#e0dcd3;}.cls-4{fill:#3b3e43;}.cls-5{fill:#fff;}</style></defs><title>avatar.moose</title><path class="cls-1" d="M1024.86,1016c4.2,4.49,3.68,11.79-1.16,16.31s-12.16,4.54-16.35.05-4.92-21.56-4.92-21.56S1020.67,1011.47,1024.86,1016Z" transform="translate(-997.42 -992.97)"/><path class="cls-2" d="M1021.67,1018.91a7.6,7.6,0,0,1-11.07,10.35c-2.65-2.84-3.11-13.64-3.11-13.64S1019,1016.07,1021.67,1018.91Z" transform="translate(-997.42 -992.97)"/><path class="cls-1" d="M1051.26,1016.32c-4.2,4.49-3.68,11.79,1.16,16.31s12.16,4.54,16.35.05,4.92-21.56,4.92-21.56S1055.45,1011.83,1051.26,1016.32Z" transform="translate(-997.42 -992.97)"/><path class="cls-2" d="M1054.45,1019.27a7.6,7.6,0,0,0,11.07,10.35c2.65-2.84,3.11-13.64,3.11-13.64S1057.1,1016.43,1054.45,1019.27Z" transform="translate(-997.42 -992.97)"/><path class="cls-3" d="M1034.21,1025.54H1034a2.15,2.15,0,0,1-1.9-2.37,64.18,64.18,0,0,0,.32-6.71c-0.05-5.34-.95-6.74-1.17-7-2.74,0-10.66-.11-17.66-0.21-5.4-.08-10.5-0.15-11.75-0.15a3.24,3.24,0,0,1-2.37-1.06c-2.29-2.44-2.11-9.92-1.92-13a2.15,2.15,0,0,1,4.29.26c-0.24,4,0,8.17.61,9.54,1.84,0,6.22.08,11.2,0.14,7.09,0.1,15.13.21,17.72,0.21a4,4,0,0,1,3.06,1.41c3.16,3.53,2.28,14,1.93,17.08A2.15,2.15,0,0,1,1034.21,1025.54Z" transform="translate(-997.42 -992.97)"/><path class="cls-3" d="M1011.12,1009.26a2.15,2.15,0,0,1-2.15-2.1l-0.18-8.95a2.15,2.15,0,0,1,2.1-2.19h0a2.15,2.15,0,0,1,2.14,2.1l0.18,8.95a2.15,2.15,0,0,1-2.1,2.19h0Z" transform="translate(-997.42 -992.97)"/><path class="cls-3" d="M1021.68,1009.08a2.15,2.15,0,0,1-2.15-2.08l-0.18-6.08a2.15,2.15,0,0,1,4.29-.13l0.18,6.08a2.15,2.15,0,0,1-2.08,2.21h-0.06Z" transform="translate(-997.42 -992.97)"/><path class="cls-3" d="M1043,1025.72a2.15,2.15,0,0,1-2.13-1.91c-0.35-3.11-1.23-13.54,1.93-17.08a4,4,0,0,1,3.07-1.41c2.59,0,10.63-.11,17.72-0.21l11.2-.15c0.56-1.37.85-5.62,0.61-9.53a2.15,2.15,0,0,1,4.29-.26c0.19,3.11.38,10.59-1.92,13a3.24,3.24,0,0,1-2.37,1.06c-1.24,0-6.35.07-11.75,0.15-7,.1-14.92.21-17.66,0.21-0.23.27-1.13,1.67-1.17,7a64.05,64.05,0,0,0,.32,6.68,2.15,2.15,0,0,1-1.9,2.37H1043Z" transform="translate(-997.42 -992.97)"/><path class="cls-3" d="M1066.13,1009.44h0a2.14,2.14,0,0,1-2.1-2.19l0.18-8.95a2.15,2.15,0,0,1,4.29.09l-0.18,8.95A2.15,2.15,0,0,1,1066.13,1009.44Z" transform="translate(-997.42 -992.97)"/><path class="cls-3" d="M1055.58,1009.26h-0.06a2.15,2.15,0,0,1-2.08-2.21l0.18-6.08a2.15,2.15,0,0,1,4.29.13l-0.18,6.08A2.15,2.15,0,0,1,1055.58,1009.26Z" transform="translate(-997.42 -992.97)"/><path class="cls-1" d="M1064.74,1057.22c1.28-21.7-10.45-38.12-27.23-38.41h0c-16.78.29-28.5,16.71-27.23,38.41,0.52,8.73-15,37.1,26.8,37.1h0.88C1079.7,1094.31,1064.22,1065.94,1064.74,1057.22Z" transform="translate(-997.42 -992.97)"/><ellipse class="cls-4" cx="40.36" cy="84.58" rx="23.8" ry="13.12"/><circle class="cls-5" cx="51.35" cy="56.22" r="7.58"/><circle class="cls-5" cx="29.02" cy="56.22" r="7.58"/><circle class="cls-4" cx="28.57" cy="56.55" r="4.29"/><circle class="cls-5" cx="26.12" cy="53.09" r="2.74"/><circle class="cls-4" cx="51.35" cy="56.55" r="4.29"/><circle class="cls-5" cx="53.8" cy="53.09" r="2.74"/></svg>