<svg id="background" xmlns="http://www.w3.org/2000/svg" viewBox="0 0 108.61 98.42"><defs><style>.cls-1{fill:#313439;}.cls-2{fill:#f7f1e6;}.cls-3{fill:#3b3e43;}.cls-4{fill:#fff;}</style></defs><title>avatar.panda</title><circle class="cls-1" cx="20.01" cy="20.01" r="20.01"/><circle class="cls-1" cx="88.6" cy="20.01" r="20.01"/><path class="cls-2" d="M1623.63,1047.83c5.46,23.91,0,45-48.31,45s-50.32-18.73-45.41-45c4.69-25.13,18.73-44.23,45.41-44.23S1617.93,1022.89,1623.63,1047.83Z" transform="translate(-1520.78 -994.43)"/><path class="cls-3" d="M1587.44,1053.57c2.57,8.63,13.17,10,19.14,6.26s7.08-12.73,2.48-20-13.16-10.05-19.13-6.26S1585,1045.34,1587.44,1053.57Z" transform="translate(-1520.78 -994.43)"/><path class="cls-3" d="M1585.45,1066c0,3.29-3.84,7.38-8.57,7.38s-8.57-4.09-8.57-7.38,3.84-6,8.57-6S1585.45,1062.69,1585.45,1066Z" transform="translate(-1520.78 -994.43)"/><path class="cls-3" d="M1567.94,1083.42c-2.35,0-5-1.16-7.78-3.47a0.88,0.88,0,1,1,1.11-1.36c3.3,2.7,6.14,3.62,8.44,2.75,4.59-1.75,5.95-10,6-10a0.88,0.88,0,0,1,1.74.28c-0.06.38-1.54,9.31-7.07,11.41A6.69,6.69,0,0,1,1567.94,1083.42Z" transform="translate(-1520.78 -994.43)"/><path class="cls-3" d="M1584.27,1084.19a5.56,5.56,0,0,1-2.09-.4c-5.26-2.1-6.24-11.86-6.28-12.27a0.88,0.88,0,0,1,1.75-.17c0.24,2.53,1.65,9.39,5.19,10.81,1.94,0.78,4.42-.12,7.36-2.67a0.88,0.88,0,0,1,1.15,1.33C1588.75,1083.06,1586.38,1084.19,1584.27,1084.19Z" transform="translate(-1520.78 -994.43)"/><circle class="cls-4" cx="77.94" cy="53.3" r="7.1"/><circle class="cls-3" cx="77.93" cy="53.37" r="3.59"/><circle class="cls-4" cx="79.01" cy="50.54" r="1.89"/><path class="cls-3" d="M1568,1052c-2.57,8.63-13.17,10-19.13,6.26s-7.08-12.73-2.48-20,13.17-10.05,19.13-6.26S1570.48,1043.73,1568,1052Z" transform="translate(-1520.78 -994.43)"/><circle class="cls-4" cx="36.3" cy="51.51" r="7.1"/><circle class="cls-3" cx="36.3" cy="51.57" r="3.59"/><circle class="cls-4" cx="35.22" cy="48.74" r="1.89"/><ellipse class="cls-4" cx="1580.21" cy="1063.62" rx="1.47" ry="2.32" transform="translate(-1360.5 1338.9) rotate(-75.75)"/></svg>