<?xml version="1.0" encoding="utf-8"?>
<!-- Generator: Adobe Illustrator 19.2.1, SVG Export Plug-In . SVG Version: 6.00 Build 0)  -->
<svg version="1.1" id="background" xmlns="http://www.w3.org/2000/svg" xmlns:xlink="http://www.w3.org/1999/xlink" x="0px" y="0px"
	 viewBox="0 0 113.9 90" style="enable-background:new 0 0 113.9 90;" xml:space="preserve">
<style type="text/css">
	.st0{fill:#FDBB16;}
	.st1{fill:#8A603C;}
	.st2{clip-path:url(#SVGID_2_);}
	.st3{fill:#F3DBBD;}
	.st4{fill:#FFFFFF;}
	.st5{fill:#3B3E43;}
	.st6{fill:none;stroke:#3D342F;stroke-width:2;stroke-linecap:round;stroke-miterlimit:10;}
</style>
<title>avatar.leopard</title>
<circle class="st0" cx="31.8" cy="18.1" r="18.1"/>
<circle class="st1" cx="31.8" cy="18.1" r="10.9"/>
<circle class="st0" cx="81.2" cy="18.1" r="18.1"/>
<circle class="st1" cx="81.2" cy="18.1" r="10.9"/>
<path class="st0" d="M93.5,46.6c-5.3-27-13.5-34.3-36.7-34.3h-0.6c-23.2,0-31.3,7.3-36.7,34.3C11.5,57.3,12.7,90,54.7,90h3.7
	C100.4,90,101.6,57.4,93.5,46.6z"/>
<g>
	<defs>
		<path id="SVGID_1_" d="M93.5,45.3C88.2,17.5,80,10,56.8,10h-0.6C33,10,24.9,17.5,19.5,45.3c-8,11-6.8,44.7,35.2,44.7h3.7
			C100.4,90,101.6,56.4,93.5,45.3z"/>
	</defs>
	<clipPath id="SVGID_2_">
		<use xlink:href="#SVGID_1_"  style="overflow:visible;"/>
	</clipPath>
	<g class="st2">
		<path class="st3" d="M103.7,99.5c0,20-19.5,36.2-46.8,36.2s-46.8-16.2-46.8-36.2s19.5-42.8,46.8-42.8S103.7,79.5,103.7,99.5z"/>
	</g>
</g>
<circle class="st4" cx="37.1" cy="42.9" r="7.1"/>
<circle class="st5" cx="37.1" cy="43" r="3.6"/>
<circle class="st4" cx="36" cy="40.1" r="1.9"/>
<path class="st5" d="M66.1,59.5c0,3.3-3.8,6.1-8.6,6.1s-8.6-2.8-8.6-6.1s3.8-6,8.6-6S66.1,56.2,66.1,59.5z"/>
<path class="st5" d="M48.5,77c-2.4,0-5-1.2-7.8-3.5c-0.4-0.3-0.4-0.9-0.1-1.2s0.9-0.4,1.2-0.1c3.3,2.7,6.2,3.6,8.5,2.8
	c4.6-1.8,6-10,6-10.1c0.1-0.5,0.5-0.8,1-0.7s0.8,0.5,0.7,1c-0.1,0.4-1.6,9.3-7.1,11.5C50.1,76.9,49.3,77,48.5,77z"/>
<path class="st5" d="M64.9,77.8c-0.7,0-1.4-0.1-2.1-0.4c-5.3-2.1-6.3-11.9-6.3-12.3c0-0.5,0.3-0.9,0.8-1c0.5,0,0.9,0.3,1,0.8l0,0
	c0.2,2.5,1.7,9.4,5.2,10.8c2,0.8,4.4-0.1,7.4-2.7c0.4-0.3,0.9-0.3,1.2,0.1s0.3,0.9-0.1,1.2l0,0C69.4,76.6,67,77.8,64.9,77.8z"/>
<ellipse transform="matrix(0.2462 -0.9692 0.9692 0.2462 -9.5288 101.9931)" class="st4" cx="60.8" cy="57.1" rx="1.5" ry="2.3"/>
<circle class="st4" cx="75.9" cy="42.9" r="7.1"/>
<circle class="st5" cx="75.9" cy="43" r="3.6"/>
<circle class="st4" cx="77" cy="40.1" r="1.9"/>
<path class="st6" d="M39.8,62.1c0,0-9.7-6.1-36.2-6.6"/>
<path class="st6" d="M38.6,64.9c0,0-11.4-3.9-37.6,1.1"/>
<path class="st6" d="M38.4,68.3c0,0-12.3-1.7-36.7,7.8"/>
<path class="st6" d="M74.2,62.9c0,0,9.7-6.1,36.2-6.6"/>
<path class="st6" d="M75.4,65.8c0,0,11.4-3.9,37.6,1.1"/>
<path class="st6" d="M75.5,69.2c0,0,12.3-1.7,36.7,7.8"/>
<circle class="st1" cx="31.8" cy="30.8" r="2.8"/>
<circle class="st1" cx="52.2" cy="40.5" r="2.8"/>
<circle class="st1" cx="25.2" cy="47.3" r="2.8"/>
<circle class="st1" cx="43.5" cy="32.5" r="2.8"/>
<circle class="st1" cx="38.5" cy="23.6" r="2.8"/>
<circle class="st1" cx="49.3" cy="20.8" r="2.8"/>
<circle class="st1" cx="31.8" cy="30.8" r="2.8"/>
<circle class="st1" cx="52.2" cy="29.7" r="2.8"/>
<circle class="st1" cx="60.8" cy="40.7" r="2.8"/>
<circle class="st1" cx="87.7" cy="47.4" r="2.8"/>
<circle class="st1" cx="69.4" cy="32.7" r="2.8"/>
<circle class="st1" cx="74.4" cy="23.8" r="2.8"/>
<circle class="st1" cx="63.6" cy="20.9" r="2.8"/>
<circle class="st1" cx="81.1" cy="31" r="2.8"/>
<circle class="st1" cx="60.8" cy="29.8" r="2.8"/>
</svg>
