<svg id="background" xmlns="http://www.w3.org/2000/svg" viewBox="0 0 66.1 107.29"><defs><style>.cls-1{fill:#8a603c;}.cls-2{fill:#f3dbbd;}.cls-3{fill:#966a4d;}.cls-4{fill:#313439;}.cls-5{fill:#fff;}.cls-6{fill:#3b3e43;}</style></defs><title>avatar.horse</title><ellipse class="cls-1" cx="1236.66" cy="1198.26" rx="29.52" ry="9.76" transform="translate(-1384.68 976.91) rotate(-77.5)"/><path class="cls-2" d="M1235.15,1196.73c-1.87,11.51-1.86,21.53.93,22.37s5.84-7.81,7.71-19.32a61.32,61.32,0,0,0-.93-22.37A48.06,48.06,0,0,0,1235.15,1196.73Z" transform="translate(-1183.88 -1169.44)"/><ellipse class="cls-1" cx="1197.2" cy="1198.26" rx="9.76" ry="29.52" transform="translate(-1414.8 -882.01) rotate(-12.5)"/><path class="cls-2" d="M1196.35,1196.73c1.19,11.51,1.18,21.53-.6,22.37s-3.72-7.81-4.92-19.32a95.32,95.32,0,0,1,.6-22.37A64.53,64.53,0,0,1,1196.35,1196.73Z" transform="translate(-1183.88 -1169.44)"/><path class="cls-3" d="M1247.82,1234.35c1.36-22.15-13-38.9-30.89-39.17-17.94.27-32.25,17-30.89,39.17,0.55,8.9-2.16,17.79-2.16,25s7.16,14.59,32.3,14.59h1.49c25.14,0,32.3-7.33,32.3-14.59S1247.27,1243.25,1247.82,1234.35Z" transform="translate(-1183.88 -1169.44)"/><path class="cls-4" d="M1217.4,1242.23h-0.94c-18,0-32.58,7.72-32.58,17.25s14.58,17.25,32.58,17.25h0.94c18,0,32.58-7.72,32.58-17.25S1235.39,1242.23,1217.4,1242.23Z" transform="translate(-1183.88 -1169.44)"/><circle class="cls-2" cx="44.9" cy="86.05" r="4.38"/><circle class="cls-2" cx="21.2" cy="86.05" r="4.38"/><path class="cls-4" d="M1201.45,1209.79l6.21-16.54a20.72,20.72,0,0,1,3.18-6.25c4.48-5.26,13.39-2.63,16,4.05s-0.53,15.09-6.06,18.85-12.69,3.42-18.63.57" transform="translate(-1183.88 -1169.44)"/><circle class="cls-5" cx="45.22" cy="56.34" r="7.58"/><circle class="cls-5" cx="20.26" cy="56.34" r="7.58"/><circle class="cls-6" cx="20.65" cy="57.07" r="4.38"/><circle class="cls-5" cx="18.16" cy="53.54" r="2.8"/><circle class="cls-6" cx="45.45" cy="57.07" r="4.38"/><circle class="cls-5" cx="47.94" cy="53.54" r="2.8"/></svg>