<svg id="background" xmlns="http://www.w3.org/2000/svg" viewBox="0 0 91.44 92.72"><defs><style>.cls-1{fill:#00b7ff;}.cls-2{fill:#fff;}.cls-3{fill:#3b3e43;}.cls-4{fill:#262262;}.cls-5{fill:none;stroke:#262262;stroke-linecap:round;stroke-miterlimit:10;stroke-width:3px;}.cls-6{fill:#0ce3ed;}</style></defs><title>avatar.lizardblue</title><ellipse class="cls-1" cx="45.72" cy="51.78" rx="45.72" ry="40.94"/><ellipse class="cls-2" cx="25.5" cy="48.06" rx="12.02" ry="15.16"/><ellipse class="cls-3" cx="25.5" cy="48.06" rx="6.81" ry="8.59"/><ellipse class="cls-2" cx="28.88" cy="41.46" rx="4.62" ry="5.49"/><ellipse class="cls-2" cx="67.02" cy="48.06" rx="11.88" ry="15.16"/><ellipse class="cls-3" cx="67.02" cy="48.06" rx="6.73" ry="8.59"/><ellipse class="cls-2" cx="70.25" cy="41.46" rx="4.62" ry="5.49"/><ellipse class="cls-4" cx="43.44" cy="64.84" rx="2.1" ry="3.41"/><ellipse class="cls-4" cx="49.64" cy="64.84" rx="2.1" ry="3.41"/><path class="cls-5" d="M1426.4,572.62c0,5-9.23,9-20.62,9s-20.62-4-20.62-9" transform="translate(-1359.67 -499.75)"/><path class="cls-6" d="M1404.8,499.75c5.33-.07,13.81,13.17,13.81,13.17H1391.8S1399.06,499.83,1404.8,499.75Z" transform="translate(-1359.67 -499.75)"/><path class="cls-6" d="M1405.26,530.47s5.82-1.16,13.37-17.72a32,32,0,0,0-26.84,0C1398.75,530,1405.26,530.47,1405.26,530.47Z" transform="translate(-1359.67 -499.75)"/></svg>