<?xml version="1.0" encoding="utf-8"?>
<!-- Generator: Adobe Illustrator 19.2.1, SVG Export Plug-In . SVG Version: 6.00 Build 0)  -->
<svg version="1.1" id="background" xmlns="http://www.w3.org/2000/svg" xmlns:xlink="http://www.w3.org/1999/xlink" x="0px" y="0px"
	 viewBox="0 0 91.5 98.7" style="enable-background:new 0 0 91.5 98.7;" xml:space="preserve">
<style type="text/css">
	.st0{fill:#73D3DD;}
	.st1{fill:#91F9F6;}
	.st2{fill:#F9AE40;}
	.st3{fill:#F7EB32;}
	.st4{fill:#FFFFFF;}
	.st5{fill:#3B3E43;}
</style>
<title>animalavatars</title>
<ellipse class="st0" cx="45.7" cy="57.7" rx="45.7" ry="40.9"/>
<path class="st1" d="M18,62.9c-7.7-1.5-10-5.6-16-10.7c-0.3,5,0.3,10,1.6,14.8c0,0.2,0.1,0.3,0.1,0.4c0.9,3.1,2.1,6.1,3.6,8.9
	C10.3,69.3,11.1,63.5,18,62.9z"/>
<path class="st1" d="M87.6,66.8C88.8,62,89.3,57,88.9,52c-5.9,5.2-8.1,9.3-15.9,10.9c7,0.5,7.8,6.3,10.9,13.3c1.5-2.9,2.6-5.9,3.5-9
	C87.5,67.1,87.5,67,87.6,66.8z M91.3,55.1c0.1,0.3,0.2,0.7,0.3,1C91.4,55.8,91.3,55.5,91.3,55.1L91.3,55.1z"/>
<path class="st1" d="M41.6,71.7h8C48.4,52.3,53.5,38.5,63.7,22C51.9,18,39.2,18,27.4,22C37.6,38.5,42.7,52.3,41.6,71.7z"/>
<path class="st2" d="M39.6,78.7c0-2.5,11.9-2.5,11.9,0s-2.7,4.6-6,4.6S39.6,81.3,39.6,78.7z"/>
<path class="st0" d="M41.3,15.1l4.2-9.8C46,4,46.7,2.7,47.6,1.6c3-3.1,9-1.5,10.7,2.4s-0.3,8.9-4,11.1s-8.5,2-12.5,0.3"/>
<path class="st3" d="M57.5,75c0,4-24,4-24,0s5.4-7.3,12-7.3S57.5,71,57.5,75z"/>
<g>
	<circle class="st4" cx="27.3" cy="61.3" r="9.4"/>
	<g>
		<circle class="st5" cx="27.3" cy="62.2" r="5.8"/>
		<circle class="st4" cx="25.5" cy="57.7" r="3"/>
	</g>
</g>
<g>
	<circle class="st4" cx="63.7" cy="61.3" r="9.4"/>
	<g>
		<circle class="st5" cx="63.7" cy="62.2" r="5.8"/>
		<circle class="st4" cx="65.4" cy="57.7" r="3"/>
	</g>
</g>
</svg>
