<svg id="Layer_1" data-name="Layer 1" xmlns="http://www.w3.org/2000/svg" viewBox="0 0 626.82 151.62"><defs><style>.cls-1{opacity:0.5;}.cls-2{fill:none;}.cls-3{fill:#9e1f63;}</style></defs><title>headerbackground</title><g class="cls-1"><path class="cls-2" d="M3198,3320.15h0l0,0.05Z" transform="translate(-2656.63 -3297.63)"/><path class="cls-2" d="M3197.78,3315.85c-0.52-2.34-.77-2.09-0.8-0.81a13.43,13.43,0,0,0,1.06,5.11A14.21,14.21,0,0,1,3197.78,3315.85Z" transform="translate(-2656.63 -3297.63)"/><path class="cls-2" d="M3128.49,3337.49c3.26-2.91,9.53-16.6,7.13-11.81C3132.31,3329.87,3129.66,3333.91,3128.49,3337.49Z" transform="translate(-2656.63 -3297.63)"/><path class="cls-3" d="M3273.34,3372.51a10.36,10.36,0,0,0,2.24-.89,4.81,4.81,0,0,0,1.4-1.16,3.36,3.36,0,0,0,.55-2.65l-0.29-1.41a2.35,2.35,0,0,0-.19-0.65l-0.23-.61a14.61,14.61,0,0,0-1-2.15c-0.71-1.3-1.44-2.43-2.27-3.71s-1.81-2.69-3.13-4.54c-5.86-4.87-12.94-9.22-19.27-13.65a50.87,50.87,0,0,1-8.61-7.07,25.84,25.84,0,0,1-5.15-7.64,19.5,19.5,0,0,1-4.36-10.91,15.17,15.17,0,0,1,.55-5.11,11.48,11.48,0,0,1,1.66-3.49,6.57,6.57,0,0,1,.38-2.06c0.11-.32.24-0.65,0.39-1l0.22-.49,0.06-.12,0-.06v0l0.08-.12,0.17-.27a6.78,6.78,0,0,1,2-2,7.5,7.5,0,0,1,1.23-.65c0.2-.09.43-0.17,0.66-0.25l0.25-.08,0.17,0,0.15,0a17.78,17.78,0,0,1,4.07-.44c1.06,0,1.78-.08,2-0.43,1,0.35,2,.72,3.1,1.2,0.54,0.25,1,.48,1.66.83,0.32,0.18.41,0.26,0.79,0.5s0.53,0.38.79,0.59a8.3,8.3,0,0,1,2.47,3.32,13.2,13.2,0,0,1,.6,1.91l0.4,1.94a29,29,0,0,1,.07,8.11,45.53,45.53,0,0,1-1.91,7.91,63.32,63.32,0,0,1-6.24,13c-2.19,3.46-4.3,5.9-5.93,6.76-0.81,1.38-1.73,2.82-2.69,4.21s-2,2.74-3,4.07c-2.06,2.66-4.18,5.23-6.12,7.78a40.67,40.67,0,0,0-4.81,7.63,12.64,12.64,0,0,0-1.18,7.43l-0.94-1.26a5.6,5.6,0,0,0,3,1,18.51,18.51,0,0,0,3.81-.11c0-.5,1.54-1.38,3.62-2.5,1-.55,2.28-1.24,3.18-1.84a5.29,5.29,0,0,0,2.18-2.64c-0.51-.69-1.08-1.87-2.46-3.7a66,66,0,0,0-5.79-6.64c-4.88-5-11.85-10.75-17.78-17-0.08.22-1-.24-2.4-1.25-0.7-.48-1.53-1.15-2.45-1.92-0.47-.39-0.92-0.79-1.37-1.21l-0.69-.65-0.35-.33-0.09-.08-0.14-.14-0.19-.2a32,32,0,0,1-5.33-7.41,29.15,29.15,0,0,1-2.86-8l0,0.05,0-.06a14.21,14.21,0,0,1-.25-4.31c-0.52-2.34-.77-2.09-0.8-0.81a13.43,13.43,0,0,0,1.06,5.11h0a34.86,34.86,0,0,1-2.55-10,20.3,20.3,0,0,1,.23-5.67,10.5,10.5,0,0,1,3-5.79l0.68-.65,0.89-.13a16,16,0,0,1,8.34,1.08,13.14,13.14,0,0,1,4.88,3.4,8.23,8.23,0,0,1,.95.34c0.35,0.17.74,0.38,1.16,0.63s0.85,0.58,1.32.93a16,16,0,0,1,1.4,1.28c0.23,0.25.48,0.5,0.71,0.78l0.69,0.91c0.24,0.37.49,0.81,0.71,1.23,0.11,0.21.14,0.32,0.22,0.48l0.1,0.23,0,0.11,0,0.06v0l0.07,0.22a10.68,10.68,0,0,1,.25,5.48,22.44,22.44,0,0,1-4.17,8.28,47.94,47.94,0,0,1-4.05,4.9c0.71,0.56-.43,2.61-4.32,6.63-1.2,2-.11,1.78.23,2.29-4.84,7.5-8,11.45-11,15.43-1.5,2-3,4-4.64,6.43a33.19,33.19,0,0,0-2.28,4,18.59,18.59,0,0,0-1.65,5c0-1.8.18-2.71,0-2.77s-0.56.65-.92,1.85a7.15,7.15,0,0,0-.14,4.26,3.24,3.24,0,0,0,1.25,1.59,6.55,6.55,0,0,0,2.2.88l-0.22,0a16.18,16.18,0,0,0,4.9-.27,0.83,0.83,0,0,1,.78,0,1.59,1.59,0,0,1-.88.76,10.07,10.07,0,0,0,5.3-3.85,10.32,10.32,0,0,0,1-1.89,7.54,7.54,0,0,0,.29-0.81,2.69,2.69,0,0,0,.09-0.35l0-.16c0-.06,0,0,0,0s0,0.14,0-.11V3367h0c0-.26,0,0.35,0,0.29l0-.19c-0.05-.26-0.1-0.52-0.13-0.79s0-.54-0.08-0.83-0.11-.59-0.16-0.92a31,31,0,0,0-1.19-5.41c-0.44.62-1.23,0-2.43-1.27s-3-3.21-5.26-5.33a69.78,69.78,0,0,0-17.22-11.77c4,1.83-1.55-2.45,2.29-.2a12.41,12.41,0,0,0-2.59-2.13c-0.6-.42-1.34-0.89-2.21-1.56a30.85,30.85,0,0,1-3.07-2.54c0.61,1.41,3,3.48,6,5.56-0.82-.58-2.31-1.44-4.12-2.7a42.23,42.23,0,0,1-5.63-4.52,27.24,27.24,0,0,1-4.31-5.31c-1-1.64-1.42-3-1.29-3.53a2.52,2.52,0,0,1-.67-0.37,5.1,5.1,0,0,1-.64-0.68,8.35,8.35,0,0,1-1.27-2.14c-0.19-.44-0.37-0.92-0.55-1.42s-0.27-1.07-.4-1.64a9.88,9.88,0,0,1-.27-1.8c0-.63-0.11-1.27-0.1-1.93a20.36,20.36,0,0,1,1.81-8c0.3-.63.61-1.32,0.91-1.86l0.86-1.46a10.11,10.11,0,0,1,2.82-3.24,11,11,0,0,1,4.71-1.39,18.91,18.91,0,0,1,4.23.15,19.37,19.37,0,0,1,4,1c0.32,0.13.65,0.25,1,.44a9.92,9.92,0,0,1,.94.5,9.8,9.8,0,0,1,1.79,1.37,8.82,8.82,0,0,1,2.28,3.83c0.09,0.3.19,0.67,0.25,0.92s0.11,0.61.17,0.92l0.3,1.81a25.1,25.1,0,0,1,.05,3.56c0,0.58-.06,1.16-0.13,1.73l-0.28,1.68a41,41,0,0,1-4.46,11.86,92.17,92.17,0,0,1-6.31,9.92c-2.25,3.11-4.53,6.09-6.91,9s-5,5.7-7.43,8.6a57.55,57.55,0,0,0-6.76,9.34,20.71,20.71,0,0,0-2,5.46,12.57,12.57,0,0,0,.3,5.78l-0.81-.69a24.56,24.56,0,0,0,9.51-1,17.36,17.36,0,0,0,4.45-2.06l0.48-.34,0.37-.32c0.12-.09.31-0.31,0.46-0.46l0.12-.12,0,0h0l-0.06.06h0l0,0,0-.05,0.16-.21a3.63,3.63,0,0,0,.73-1.76c0.69-2.39-1.58-6-3.7-8.79a66.48,66.48,0,0,0-7.67-8.1c-5.55-5.09-11.54-9.7-16.86-14.87s-9.76-11.13-11.86-17.78a28.85,28.85,0,0,1,.6-19.27l0.25-.65,0.72,0.06a30.92,30.92,0,0,1,13.49,3.95c-0.92.21-.12,0.95,0.7,1.84s1.62,2,1.29,2.37c-0.07-.45.31-0.49,0.91-0.17a4,4,0,0,1,1,.82,6.42,6.42,0,0,1,.49.65,7.35,7.35,0,0,1,.4.73,5,5,0,0,1,.24,3.36,1.79,1.79,0,0,1-1.61,1.51,6.29,6.29,0,0,1-.53,3,11,11,0,0,1-1.6,2.5,86.45,86.45,0,0,0-6.1,7.84c6.23-4.47-13.63,22.77-17.93,28.39-1.19,2-.11,1.78.23,2.28a42.85,42.85,0,0,0-5.06,8.8,8.47,8.47,0,0,0-.62,4.08,4.48,4.48,0,0,0,1.84,3l-0.29-.14a14.28,14.28,0,0,0,4.63.72,11.35,11.35,0,0,0,4.14-.79l0.2-.07,0.09,0,0.18-.1c0.12-.06.27-0.17,0.4-0.25s0.55-.4.81-0.62a20,20,0,0,0,1.51-1.4,14,14,0,0,0,1.28-1.5,6.12,6.12,0,0,0,.48-0.75,2.53,2.53,0,0,0,.14-0.3l0-.06a1.46,1.46,0,0,0,0-.23v-0.13s0,0.24,0,.12h0v-0.09l0-.23-0.07-.46-0.13-.91c-0.13-.6-0.36-1.18-0.53-1.76a16.71,16.71,0,0,0-1.65-3.24,29.06,29.06,0,0,0-4.67-5.51,61.41,61.41,0,0,0-5.66-4.75c-4-3-8.54-5.92-13.77-9.23l-4.05-2.59-2.16-1.49c-0.73-.52-1.43-1.1-2.16-1.67a38.87,38.87,0,0,1-8.22-9c1.37,1.26,1.84,1.5,1.69,1.12s-0.93-1.37-1.84-2.9a24.61,24.61,0,0,1-2.69-5.91,18.59,18.59,0,0,1-.68-7.25c0.26,1.76.95,2.3,1.78,2a16,16,0,0,1,.9-7c0.24-.6.47-1.3,0.75-1.86l0.87-1.64,0.11-.21,0.2-.32c0.1-.16.21-0.32,0.33-0.48a7.86,7.86,0,0,1,.82-0.93,8,8,0,0,1,2.1-1.46,12.54,12.54,0,0,1,4.65-1.12,19,19,0,0,1,4.65.29,15.78,15.78,0,0,1,2.37.62,10.91,10.91,0,0,1,2.44,1.18,8.88,8.88,0,0,1,2.18,2,9.15,9.15,0,0,1,1.4,2.58,22.26,22.26,0,0,1,.89,9.78,31.37,31.37,0,0,1-2.64,9,61.38,61.38,0,0,1-9.5,14.53c-0.86,1.81-.15,2.21-2.59,5.35-0.54-.75-1.48.33-3.28,2.82s-4.65,6.2-8.39,10.84a46.16,46.16,0,0,0-5.72,8.72,16.9,16.9,0,0,0-1.53,4.79,11.52,11.52,0,0,0,.36,4.76l-0.88-1.18a5,5,0,0,0,2.33.45,12.52,12.52,0,0,0,3-.4,23.72,23.72,0,0,0,6.06-2.4c0.47-.27.91-0.55,1.32-0.84,0.22-.15.31-0.25,0.48-0.36a2.17,2.17,0,0,0,.29-0.26l0.33-.32,0,0-0.1.1h0l0-.06,0.09-.12a1.63,1.63,0,0,0,.18-0.23,2.88,2.88,0,0,0,.27-0.46,2.57,2.57,0,0,0,.27-0.91,4.72,4.72,0,0,0-.44-2.28,12.33,12.33,0,0,0-.65-1.32l-0.23-.4-0.21-.32-0.47-.7a37.16,37.16,0,0,0-4.43-5.33c-1.64-1.71-3.43-3.34-5.27-4.95-3.67-3.22-7.56-6.33-11.35-9.65-1.74-1.51-3.43-3.07-5.07-4.66-0.8-.83-1.68-1.67-2.4-2.48l-1.1-1.22c-0.44-.48-0.77-0.91-1.15-1.36a44.87,44.87,0,0,1-9-23.42,23.79,23.79,0,0,1,.26-5.8,9.89,9.89,0,0,1,2.57-5.39l0.32-.31,0.48-.08a19.25,19.25,0,0,1,9,.74,28.27,28.27,0,0,1,7.11,3.39c-0.55.11,0.09,0.9,1.1,2.21a17.84,17.84,0,0,1,1.64,2.54l0.21,0.43,0.1,0.22,0.06,0.17,0.13,0.34,0.06,0.17,0,0.09,0,0,0,0.13h0v0l0.21,0.9c0,0.31.08,0.61,0.12,0.92a10.41,10.41,0,0,1-1.37,5.88c-0.74,1.23-1.35,1.64-1.55.83a38.67,38.67,0,0,1-2.83,6.32q-1.66,3.14-3.63,6.41c-2.61,4.37-5.57,8.93-8.78,13.73l-5,7.39-2.59,3.84-1.32,2q-0.64,1-1.25,1.94a25.77,25.77,0,0,0-3.58,8.31,5,5,0,0,0,.38,3.49,4.3,4.3,0,0,0,2.91,1.64l-0.27,0a11.59,11.59,0,0,0,5-.67c1.12-.31,1.14-0.23.92,0s-0.71.65-.51,0.86a11.66,11.66,0,0,0,4.61-3,11.25,11.25,0,0,0,1.62-2.28,4.63,4.63,0,0,0,.27-0.59c0-.08.09-0.21,0.1-0.26a0.06,0.06,0,0,1,0-.05,0.24,0.24,0,0,0,0-.14l0-.21V3368c0-.06,0,0.39,0,0.19v0l0-.09,0-.18-0.12-.71a13.81,13.81,0,0,0-2.28-5.45l-0.41-.65-0.48-.62-1-1.25c-0.74-.78-1.4-1.61-2.21-2.35a84.3,84.3,0,0,0-10.22-8.32c-3.59-2.56-7.24-5-10.77-7.35-0.88-.61-1.73-1.16-2.62-1.8s-1.76-1.25-2.58-1.93a45.93,45.93,0,0,1-4.6-4.22,32.16,32.16,0,0,1-6.37-9.53,21.45,21.45,0,0,1-1.74-9.52,16.34,16.34,0,0,1,.23-2.05l0.41-1.84c0.17-.57.39-1.09,0.57-1.59a8.34,8.34,0,0,1,.61-1.38c0.15-.63.35-1.29,0.57-1.95s0.48-1.1.75-1.65l0.21-.41,0.11-.21,0.24-.37a8.41,8.41,0,0,1,.77-1,8,8,0,0,1,2.15-1.69,9.39,9.39,0,0,1,1.27-.56c0.23-.08.24-0.09,0.57-0.19l0.62-.16a14.08,14.08,0,0,1,2.42-.33,19.25,19.25,0,0,1,4.67.37,18.31,18.31,0,0,1,2.31.6c0.4,0.13.75,0.26,1.2,0.45,0.2,0.09.49,0.21,0.62,0.29l0.23,0.12,0.11,0.06,0.21,0.12a10.48,10.48,0,0,1,2.21,1.65,9.26,9.26,0,0,1,1.7,2.32,16,16,0,0,1,1,2.34l0.65,2.22c0.34,1.48.7,3,.9,4.43,0,1.36-.36,1.83-0.66,2s-0.64.12-.95,0.29a29.52,29.52,0,0,1-.48,4.24,39.26,39.26,0,0,1-1.12,4.21,45.31,45.31,0,0,1-3.2,7.46c-2.31,4.3-4.47,7.05-4.86,6.66a17.75,17.75,0,0,1-3.1,6c-0.66.95-1.34,1.85-2,2.84a29.83,29.83,0,0,0-1.94,3.33c0.66-2.22-.33-0.95-2,1.09s-3.89,4.75-5.67,5.76c0.55-.42-1.51,2.1-3.92,5.86a26.42,26.42,0,0,0-3.09,6.33,10,10,0,0,0-.14,6.18l-3-2.59a25.32,25.32,0,0,0,6.69-.3,23.89,23.89,0,0,0,4.51-1.22,12.76,12.76,0,0,0,1.83-.89,2,2,0,0,1,.24-0.13l0.54-.46h0l-0.13.13,0,0,0,0,0.06-.07,0.13-.13,0.21-.24a2.09,2.09,0,0,0,.42-1,3.72,3.72,0,0,0-.17-1.54,8.44,8.44,0,0,0-.34-1l-0.2-.46-0.28-.56c-0.42-.69-0.79-1.39-1.25-2.06a34.62,34.62,0,0,0-6.19-6.83,25.63,25.63,0,0,0-6.23-4c-3.32-3.2-7-6.37-10.59-9.75a72.28,72.28,0,0,1-10.38-11.44,37.63,37.63,0,0,1-6.45-14.92,31.68,31.68,0,0,1,1.64-16.57l0.9-2.36,2.63,0.21a33.55,33.55,0,0,1,13.77,3.81,17.07,17.07,0,0,1,6.08,5.44c0.24,0.39.47,0.83,0.68,1.25a5,5,0,0,1,.21.46l0.15,0.37,0.07,0.18,0.09,0.28v0l0,0.07,0,0.14,0.15,0.58a9.59,9.59,0,0,1,.22,1.18,13,13,0,0,1-.24,4.54,24.37,24.37,0,0,1-3,6.89c-1.16,1.95-2.25,3.6-3.35,5.34q-3.29,5.15-6.53,10.1c-0.4-.81-1.77,1.21-2.39,1-1.09,2.87-5.05,9.07-9.75,16l-3.6,5.31a43.71,43.71,0,0,0-3.07,5.15,11.83,11.83,0,0,0-1.34,4.61,6.18,6.18,0,0,0,1,3.57l-1.9-1.45a11,11,0,0,0,4.24.31,1,1,0,0,0,1.08-.63c0.09-.26,0-0.48.31-0.54,0,0-.11,1.36-0.16,2.71s-0.24,2.7-.24,2.7a8.46,8.46,0,0,0-2.29-.48,20.83,20.83,0,0,1-4-.81l0,0a10.54,10.54,0,0,1-1.51-4.79,14.42,14.42,0,0,1,1.14-6c1.65-4.16,4.57-8.29,7.32-12.72,5.62-8.81,11.93-18.24,18.13-25.61a12.48,12.48,0,0,1,1.45-3.58l1.13-1.83a23.45,23.45,0,0,0,1.69-3.38,10.38,10.38,0,0,0,0,2.09,13.76,13.76,0,0,0,2.35-7.35,7.51,7.51,0,0,0-1.16-3.8,11,11,0,0,0-2.71-2.82,20.56,20.56,0,0,0-7-3.23,33.41,33.41,0,0,0-7.55-1.1l0.62-.38a27.41,27.41,0,0,0-.62,15.56,39.54,39.54,0,0,0,6.85,13.68,15.18,15.18,0,0,0,1.05,1.34l0.7,0.82,0.37,0.43,0.44,0.47c1.23,1.31,2.64,2.73,4.41,4.3,3.48,3.18,8,6.76,12.74,10.76s9.58,8.48,12.78,13.86a14,14,0,0,1,1.85,4.29,6.5,6.5,0,0,1-.52,4.57,7.22,7.22,0,0,1-1.33,1.69,9.07,9.07,0,0,1-.78.62,8.59,8.59,0,0,1-.85.53,14.15,14.15,0,0,1-3.31,1.28,26.08,26.08,0,0,1-12.26,2l-0.42,0-0.14-.45a14.48,14.48,0,0,1-.45-6.49,23,23,0,0,1,2.14-6.12,64.13,64.13,0,0,1,7.21-10.36c2.62-3.22,5.31-6.33,7.69-9.56s4.77-6.63,6.93-10.06a72.29,72.29,0,0,0,5.61-10.57,30.11,30.11,0,0,0,2.53-11.13,8.59,8.59,0,0,0-.06-1.38c0-.46-0.05-0.92-0.13-1.37a25.75,25.75,0,0,0-.61-2.63,4.46,4.46,0,0,0-1.9-2.55c-0.13-.1-0.38-0.23-0.45-0.28a6.44,6.44,0,0,0-.6-0.29,12.07,12.07,0,0,0-2.46-.72,16.21,16.21,0,0,0-2.68-.28,7.92,7.92,0,0,0-4.61,1,4.1,4.1,0,0,0-.75.7l-0.18.22-0.09.12,0,0.06,0-.06,0,0-0.41.64-0.81,1.27-0.54,1.16-0.28.57c-0.08.2-.14,0.42-0.21,0.63l-0.42,1.27-0.25,1.31-0.13.66,0,0.67a16.78,16.78,0,0,0,.44,5.33,21.54,21.54,0,0,0,.86,2.59l0.52,1.27,0.65,1.22a32.3,32.3,0,0,0,7,8.65l2.17,1.81,2.27,1.68,4.81,3.29c6.41,4.39,12.9,8.64,18.61,14.08l1.06,1,1,1.1a30.73,30.73,0,0,1,3.66,4.86c0.28,0.43.48,0.93,0.73,1.4a11.43,11.43,0,0,1,.66,1.45,15.46,15.46,0,0,1,.87,3.15l0.13,0.82,0.06,0.41v0.05c0,0.15,0-.27,0,0.36v0.26a4,4,0,0,1-.09.61,7.14,7.14,0,0,1-.19.73c-0.11.3-.22,0.6-0.34,0.89a15.35,15.35,0,0,1-4.05,5.27c-1.42.92-1.84,0.55-2.29,0.35a1.5,1.5,0,0,0-.9-0.18,3.61,3.61,0,0,0-.75.18,9.28,9.28,0,0,0-1.14.38,8.93,8.93,0,0,0-2,.85c-0.19.18,0.05,0.34,0.57,0.43a7.24,7.24,0,0,0,4.28-1,15.58,15.58,0,0,1-4.34,1.68,18.26,18.26,0,0,1-5.53.25h-0.11l-0.16,0a10,10,0,0,1-4.26-2.08,7.68,7.68,0,0,1-1.67-2.16,8.13,8.13,0,0,1-.77-2.54,12.75,12.75,0,0,1,.34-4.7,25.16,25.16,0,0,1,1.43-4.11,51.21,51.21,0,0,1,4.15-7.4l4.54-7,18.91-29.07a14.6,14.6,0,0,0,2.31-5.67,5,5,0,0,0,0-1.25,3.89,3.89,0,0,0-.13-0.6l0-.07v0h0l0.07,0.19h0l0-.06-0.09-.23-0.18-.47c-0.11-.19-0.18-0.27-0.25-0.42l-0.42-.61a12.64,12.64,0,0,0-1.07-1.23,16.86,16.86,0,0,0-5.79-3.8,13,13,0,0,0-6.53-.88l1.49-.73a4.49,4.49,0,0,0-1.1,1.94,13.12,13.12,0,0,0-.53,3,29,29,0,0,0,.33,6.28,63.28,63.28,0,0,0,2.67,10.5c1,1,2.4,2.93,4.05,5,0.82,1,1.73,2.06,2.68,3l1.53,1.61,1.46,1.48c3.94,3.9,7.15,7.14,5.43,6.32a56.31,56.31,0,0,1,5.7,3.82,92.87,92.87,0,0,1,8.12,6.67,41.23,41.23,0,0,1,7.46,8.93,14.55,14.55,0,0,1,2.1,5.19,7.31,7.31,0,0,1,0,2.72,5.9,5.9,0,0,1-1,2.2,6.58,6.58,0,0,1-1.35,2.13,8.26,8.26,0,0,1-1,.91c-0.36.3-.71,0.54-1.08,0.82a23.2,23.2,0,0,1-4.94,2.51,20.77,20.77,0,0,1-5.57,1.29,9.35,9.35,0,0,1-5.68-1.13l-0.63-.39-0.12-.61c-0.17-.88-0.35-1.69-0.44-2.44l0-2c0.11-1.14.25-1.89,0.28-2.16s0.08-.56.15-1.13a12.34,12.34,0,0,1,.4-2.11L3071,3367a13.45,13.45,0,0,1,.51-1.25c0.19-.41.38-0.84,0.6-1.23s0.47-.75.72-1.1a4.94,4.94,0,0,1,.7-0.69c0.34-.27.76-0.56,1.16-0.85,0.8-.58,1.59-1.07,1.72-1.24,1.66-2.32,1-1.81.25-1.29s-1.63,1.14-.31-1a77.88,77.88,0,0,1,7.78-9.83c2.82-3.21,5.75-6.75,8.54-10.4a62.64,62.64,0,0,0,7.23-11.57,32.45,32.45,0,0,0,1.21-3.07c0.17-.52.35-1,0.49-1.54l0.36-1.55a10.68,10.68,0,0,0,.26-1.54c0.06-.51.13-1,0.17-1.52s0-1,0-1.49l0-.73-0.1-.71a11.27,11.27,0,0,0,.4-1.72q0.1-.86.15-1.73c0-.57-0.08-1.13-0.14-1.71a5.4,5.4,0,0,0-.13-0.86,7.35,7.35,0,0,0-.2-0.76c-0.56-1.89-2.38-3-4.86-3.39a14.76,14.76,0,0,0-3.83-.13,7.7,7.7,0,0,0-3.45,1.05,3.64,3.64,0,0,0-1,1.09l-1.15,2.1c-0.2.39-.27,0.7-0.42,1.05a7.93,7.93,0,0,0-.38,1.06,14.81,14.81,0,0,0-.54,2.43q-1.45-.1-2.9-0.12a1.59,1.59,0,0,1,.47.68,3.28,3.28,0,0,1,.27.89,6.68,6.68,0,0,1,.07,1c0,0.36.07,0.74,0.09,1.11l0.1,1.11a8.23,8.23,0,0,0,.29,1,1.65,1.65,0,0,0,1,1.19,2.54,2.54,0,0,0-.19-1.81,6.35,6.35,0,0,1-.34-1.43c0-.28-0.09-0.59-0.12-0.92a9.17,9.17,0,0,1,.07-1.06,4.52,4.52,0,0,1,.56,1.27,13.43,13.43,0,0,1,.43,1.77c0.32,1.31.59,2.87,1.05,4.4,0.11,0.38.21,0.77,0.3,1.16l0.36,1.11c0.11,0.36.21,0.72,0.3,1.07s0.23,0.65.32,1a11.38,11.38,0,0,1,.37,1.59,1.34,1.34,0,0,1,0,.92,6,6,0,0,0,2.37,2c0.42,0.11.42-.29,0-1.08a30.57,30.57,0,0,0,7.57,7.19c3.16,2.11,6.14,3.73,7.51,3.67,0.68,1.68,2.87,2.72,4.94,3.88s4,2.42,4.16,4.34a19.07,19.07,0,0,1,5.43,3.05,31.8,31.8,0,0,1,6.83,6.78c0.51,0.75,1,1.55,1.49,2.34s0.85,1.72,1.19,2.63l0.43,1.41a6.92,6.92,0,0,1,.33,1.44l0.19,1.47,0,0.36v0.14c0,0.2,0-.43,0,0.45h0v0l0,0.14,0,0.14,0,0.15,0,0.24a6.36,6.36,0,0,1-.28.92,9.07,9.07,0,0,1-.46.91c-0.15.23-.3,0.47-0.45,0.68-0.29.4-.59,0.76-0.88,1.09a20.43,20.43,0,0,1-1.74,1.71,20.76,20.76,0,0,1-1.76,1.37c-0.32.21-.61,0.41-1,0.61a6.14,6.14,0,0,1-1.58.65l0.55-.2a6,6,0,0,1-.7.24l-0.56.14c-0.36.08-.69,0.13-1,0.18a9.07,9.07,0,0,1-1.57.08,12.72,12.72,0,0,1-7.85.2l-0.49-.13-0.41-.32a17.87,17.87,0,0,1-1.54-1.29c-0.24-.28-0.47-0.56-0.7-0.86a4.47,4.47,0,0,1-.62-1c-0.18-.35-0.35-0.71-0.51-1.07a10,10,0,0,1-.32-1.14,10.43,10.43,0,0,1-.27-2.33,23.75,23.75,0,0,1,2.23-8.56,11,11,0,0,0-.79,2.9c0,0.46.15,0.39,0.47-.06,0.62-.91,1.95-3.23,3.78-5.93-0.46-.15-1.67,2-2.54,3.41-0.62-2.3,2-4.31,4.28-7,0.66-3.73,6.92-13.33,14.15-23.85l5.53-8,2.75-4a34,34,0,0,0,2.22-3.59,9.46,9.46,0,0,0,1-3,4.36,4.36,0,0,0,0-1.11,1.08,1.08,0,0,0,0-.25l0-.12V3311h0l0.08,0.23v0l-0.18-.49-0.09-.24a0.12,0.12,0,0,0,0-.06,6.88,6.88,0,0,0-.53-0.73,7.35,7.35,0,0,0-.91-0.91,11.84,11.84,0,0,0-2.23-1.46c-2-1.27-2.52-1.53-2.27-1.76s1.1-.28,1.38-0.8l-5.28-1.12c0.92,0.56,1.73,1.23,1.54,1.85a38,38,0,0,0-5.62-.91l4.3-2.62A25.35,25.35,0,0,0,3131,3322a39,39,0,0,0,6.58,10.06c0.37,0.41.76,0.87,1.13,1.25l1.11,1.16c0.74,0.78,1.59,1.57,2.39,2.36,1.67,1.57,3.41,3.14,5.25,4.73,2.56,2.24,5.59,4.68,8.84,7.48a68.36,68.36,0,0,1,9.92,10c0.41,0.49.76,1.06,1.14,1.6l0.56,0.83c0.24,0.37.32,0.52,0.52,0.86a13.22,13.22,0,0,1,1.65,4.45,8.49,8.49,0,0,1-1,5.56,9.54,9.54,0,0,1-1.7,2.17c-0.13.12-.18,0.2-0.38,0.36l-0.57.47a12.81,12.81,0,0,1-1.05.74,24.67,24.67,0,0,1-8.29,3.11,29.53,29.53,0,0,1-8.72.4l-2.42-.25-0.53-2.28c-0.21-.88-0.42-1.77-0.57-2.67s-0.13-1.82-.1-2.71a26.08,26.08,0,0,1,.33-2.62c0.21-.82.37-1.69,0.66-2.46a32.24,32.24,0,0,1,4.31-8.2,150.06,150.06,0,0,1,10.06-12.17c3-3.5,5.81-7,8.25-10.07l6.27-7.86a59.1,59.1,0,0,0,3.42-8.67,25.16,25.16,0,0,0,1.11-9.27,13,13,0,0,0-.37-2.3l-0.11-.57-0.16-.56a6.2,6.2,0,0,0-.35-0.9,3.6,3.6,0,0,0-1-1.26,4.29,4.29,0,0,0-.37-0.27l-0.21-.13-0.11-.06-0.05,0,0.06,0h0l0,0a6.56,6.56,0,0,0-1-.44,14.78,14.78,0,0,0-4.76-.81,7,7,0,0,0-4.08,1,3.59,3.59,0,0,0-.65.62l-0.17.21,0,0.06,0,0,0.07-.11v0l-0.1.16-0.41.63c-0.26.42-.56,0.86-0.8,1.26L3164,3308c-0.08.19-.19,0.36-0.26,0.56l-0.2.63c-0.13.42-.3,0.83-0.4,1.26a15.34,15.34,0,0,0-.39,2.64,16,16,0,0,0,0,2.71c0.05,0.46.16,0.91,0.24,1.37l0.12,0.69,0.21,0.68a21.92,21.92,0,0,0,2.33,5.31,34.86,34.86,0,0,0,8.41,9.06c0.86,0.64,1.75,1.25,2.63,1.87l2.88,1.88,5.88,3.78c-3.52-.63-0.44,1.13,3.75,3.66a66.5,66.5,0,0,1,6.37,4.3,20.1,20.1,0,0,1,2.46,2.2,5.56,5.56,0,0,1,1.3,1.85,9,9,0,0,1,1.75,1.06,22.49,22.49,0,0,1,2.17,2,20.26,20.26,0,0,1,4.43,7.46l0.39,1.31c0.1,0.46.15,0.94,0.22,1.43l0.09,0.73,0,0.37v0.14h0v0.42l0,0.15,0,0.15v0.09l0,0.19c0,0.25-.1.51-0.17,0.76l-0.11.37-0.09.21-0.18.42a12.88,12.88,0,0,1-1.74,2.78,16.11,16.11,0,0,1-2.27,2.3,15.68,15.68,0,0,1-6,3.07,17.05,17.05,0,0,1-6.87.3l-0.24,0-0.05,0A12,12,0,0,1,3188,3377a8.06,8.06,0,0,1-2.39-2.09,7.29,7.29,0,0,1-1.31-3,9.42,9.42,0,0,1-.1-2.92,17.72,17.72,0,0,1,1.43-5,35.93,35.93,0,0,1,2.25-4.3c0.82-1.36,1.71-2.67,2.6-3.92l2.6-3.68c1.7-2.43,3.34-4.82,4.88-7.12,5.65-8.46,10-16.67,13.88-23.4,2-3.33,3.51-6.16,3.93-8.28a8.19,8.19,0,0,0,.19-1.5c0-.25,0-0.48,0-0.72v-0.07l0.06,0.16h0v0l0-.13-0.05-.25-0.09-.49a4.55,4.55,0,0,1-.1-0.6c-0.08-.25-0.16-0.51-0.22-0.78-0.18-.51-0.31-1.06-0.5-1.58-1.94-1.13-3.56-2.21-5.69-3.22a14.34,14.34,0,0,0-3.63-1.21,10.57,10.57,0,0,0-4.62.09l1.13-.56c-0.08.14-.2,0.25-0.28,0.43a1.05,1.05,0,0,0,.08-0.65l-1,.48c0.06,0,.05-0.08,0-0.11l0.92-.45c-0.17-.05-0.81.31-1.34,1.43a10.9,10.9,0,0,0-.79,4.79,22.49,22.49,0,0,0,2.57,9.66c0.7,2.68-.44,0-0.87.42a36.18,36.18,0,0,0,3.52,7.19,41.15,41.15,0,0,0,2.41,3.37l2.28,2.93,0.38,0.47,0.42,0.5,1,1.22c0.77,0.86,1.59,1.84,2.74,3a2.36,2.36,0,0,1-1.57-1.17c-0.3-.36-0.65-0.79-1.07-1.26a19,19,0,0,0-1.56-1.62c1.11,3.75,6.84,6.36,9.66,9.94-0.66-1.49,3,.93,7.12,4.28a63.16,63.16,0,0,1,5.94,5.49,18.8,18.8,0,0,1,3.39,4.66c1.61,1.72,1.71.63,2.3,0.45a41.7,41.7,0,0,1,3.73,6.36,10.51,10.51,0,0,1,1,4.62,7.66,7.66,0,0,1-2.14,4.87l-0.05.06-0.1.11,0,0-0.1.09-0.19.18a5.15,5.15,0,0,1-.44.38,13.14,13.14,0,0,1-1.07.79,21.2,21.2,0,0,1-2.06,1.22,29,29,0,0,1-4.42,1.88,22.53,22.53,0,0,1-5,1.08,9.89,9.89,0,0,1-5.92-1.07l-0.68-.39-0.26-.87a16,16,0,0,1-.36-7.39,23.91,23.91,0,0,1,2.49-6.68,65.73,65.73,0,0,1,7.72-10.7c2.71-3.21,5.4-6.17,7.7-9.09l6.73-8.41c0.54-.67,3-2.16,3.37-2.73,2.08-3.51-1.82,1-1.89,1.29,0.17-1.21,1.33-3.55,2.78-6.67,0.36-.78.75-1.6,1.11-2.48l0.57-1.34,0.52-1.41c0.4-.95.64-2,1-3,0.14-.51.25-1,0.38-1.55l0.19-.79,0.12-.8a18.53,18.53,0,0,0,.06-6.45,16.12,16.12,0,0,0-.31-1.58,6.55,6.55,0,0,0-.46-1.25,4.3,4.3,0,0,0-1.66-1.71l-0.07,0,0,0,0.06,0h0l-0.2-.1-0.34-.17c-0.15-.08-0.36-0.16-0.6-0.25a12,12,0,0,0-1.41-.43,15.42,15.42,0,0,0-2.89-.42,11.64,11.64,0,0,0-2.61.15,4.76,4.76,0,0,0-.56.12l-0.24.06-0.31.1a4.57,4.57,0,0,0-.82.39,3.77,3.77,0,0,0-.92.8l-0.21.27-0.11.15,0,0v0h0l0.06-.09-0.06.1-0.49.81a16,16,0,0,0-1.51,3.07,14.68,14.68,0,0,0-.76,6.8c0.54,4.67,3.13,9.16,6.53,12.78a41.48,41.48,0,0,0,5.54,5c1.94,1.44,4.14,2.9,6.19,4.31,4.13,2.83,8,5.6,11.38,8.4-1.73-.12-0.8.87,0.55,2.09s3.12,2.69,3.16,3.36c1.47,1.41,1.6,1.06,1.2.2a11.21,11.21,0,0,0-.89-1.5,8.65,8.65,0,0,0-1.07-1.23c0-.24.58,0.14,1.4,0.79a26.37,26.37,0,0,1,2.62,2.59,8,8,0,0,1,1.53,2.19c0.08,0.4-.27.22-1.54-0.7a27.43,27.43,0,0,1,4.25,4.06,26,26,0,0,1,1.59,2.21,27.52,27.52,0,0,1,1.27,2.5l0.46,1.42,0.22,0.73c0.06,0.25.09,0.52,0.13,0.79l0.22,1.65c0,0.21,0,.27,0,0.42s0,0.35,0,.52a7.79,7.79,0,0,1-.11,1,6.68,6.68,0,0,1-2.35,4.06,9,9,0,0,1-2.06,1.28,14,14,0,0,1-2.27.78,3.64,3.64,0,0,0,1.15-1c0.06-.22-0.31-0.17-1.55.13-0.09-.16.6-0.47,1.46-0.93a8.43,8.43,0,0,0,2.45-1.85c0.58-.69.77-1.24,0.6-1a8.07,8.07,0,0,1-.74.82,7.17,7.17,0,0,1-2.29,1.43c0-.34,1.28-1.05,2.1-2s1.11-2.21,1.43-2.25c-0.2-.92-0.46-1-0.61-0.66a10.91,10.91,0,0,1-.75,1.75,4.88,4.88,0,0,1-2.09,1.73A10.08,10.08,0,0,1,3273.34,3372.51Zm-137.73-46.83c-3.31,4.19-6,8.23-7.13,11.81C3131.75,3334.58,3138,3320.89,3135.62,3325.68Z" transform="translate(-2656.63 -3297.63)"/><path class="cls-3" d="M3091.53,3329.77c-0.31-.48-0.67-1.16-1.29-2A20.81,20.81,0,0,0,3091.53,3329.77Z" transform="translate(-2656.63 -3297.63)"/><path class="cls-2" d="M2893.79,3320.15h0l0,0.05Z" transform="translate(-2656.63 -3297.63)"/><path class="cls-2" d="M2893.54,3315.85c-0.52-2.34-.77-2.09-0.8-0.81a13.43,13.43,0,0,0,1.06,5.11A14.21,14.21,0,0,1,2893.54,3315.85Z" transform="translate(-2656.63 -3297.63)"/><path class="cls-2" d="M2824.25,3337.49c3.26-2.91,9.53-16.6,7.13-11.81C2828.07,3329.87,2825.42,3333.91,2824.25,3337.49Z" transform="translate(-2656.63 -3297.63)"/><path class="cls-3" d="M2969.1,3372.51a10.36,10.36,0,0,0,2.24-.89,4.8,4.8,0,0,0,1.4-1.16,3.36,3.36,0,0,0,.55-2.65l-0.29-1.41a2.35,2.35,0,0,0-.19-0.65l-0.23-.61a14.61,14.61,0,0,0-1-2.15c-0.71-1.3-1.44-2.43-2.27-3.71s-1.81-2.69-3.13-4.54c-5.86-4.87-12.94-9.22-19.27-13.65a50.86,50.86,0,0,1-8.61-7.07,25.84,25.84,0,0,1-5.15-7.64,19.5,19.5,0,0,1-4.36-10.91,15.16,15.16,0,0,1,.55-5.11,11.47,11.47,0,0,1,1.66-3.49,6.58,6.58,0,0,1,.38-2.06c0.11-.32.24-0.65,0.39-1l0.22-.49,0.06-.12,0-.06v0l0.08-.12,0.17-.27a6.79,6.79,0,0,1,2-2,7.51,7.51,0,0,1,1.22-.65c0.2-.09.43-0.17,0.66-0.25l0.25-.08,0.17,0,0.15,0a17.78,17.78,0,0,1,4.07-.44c1.06,0,1.78-.08,2-0.43,1,0.35,2,.72,3.09,1.2,0.54,0.25,1,.48,1.66.83,0.32,0.18.41,0.26,0.79,0.5s0.53,0.38.79,0.59a8.3,8.3,0,0,1,2.47,3.32,13.17,13.17,0,0,1,.6,1.91l0.4,1.94a29,29,0,0,1,.07,8.11,45.55,45.55,0,0,1-1.91,7.91,63.33,63.33,0,0,1-6.24,13c-2.19,3.46-4.3,5.9-5.93,6.76-0.81,1.38-1.73,2.82-2.69,4.21s-2,2.74-3,4.07c-2.06,2.66-4.18,5.23-6.12,7.78a40.69,40.69,0,0,0-4.81,7.63,12.64,12.64,0,0,0-1.18,7.43l-0.94-1.26a5.6,5.6,0,0,0,3,1,18.51,18.51,0,0,0,3.81-.11c0-.5,1.54-1.38,3.62-2.5,1-.55,2.28-1.24,3.18-1.84a5.29,5.29,0,0,0,2.18-2.64c-0.51-.69-1.08-1.87-2.46-3.7a66,66,0,0,0-5.79-6.64c-4.88-5-11.85-10.75-17.78-17-0.08.22-1-.24-2.4-1.25-0.7-.48-1.54-1.15-2.45-1.92-0.47-.39-0.92-0.79-1.37-1.21l-0.69-.65-0.35-.33-0.09-.08-0.14-.14-0.19-.2a31.94,31.94,0,0,1-5.33-7.41,29.16,29.16,0,0,1-2.86-8l0,0.05,0-.06a14.21,14.21,0,0,1-.25-4.31c-0.52-2.34-.77-2.09-0.8-0.81a13.43,13.43,0,0,0,1.06,5.11h0a34.85,34.85,0,0,1-2.55-10,20.3,20.3,0,0,1,.23-5.67,10.5,10.5,0,0,1,3-5.79l0.68-.65,0.89-.13a16,16,0,0,1,8.34,1.08,13.15,13.15,0,0,1,4.88,3.4,8.24,8.24,0,0,1,.95.34c0.35,0.17.74,0.38,1.16,0.63s0.85,0.58,1.32.93a16,16,0,0,1,1.4,1.28c0.23,0.25.48,0.5,0.71,0.78l0.69,0.91c0.24,0.37.49,0.81,0.71,1.23,0.11,0.21.14,0.32,0.22,0.48l0.1,0.23,0,0.11,0,0.06v0l0.07,0.22a10.68,10.68,0,0,1,.25,5.48,22.43,22.43,0,0,1-4.17,8.28,47.94,47.94,0,0,1-4.05,4.9c0.71,0.56-.43,2.61-4.32,6.63-1.2,2-.11,1.78.23,2.29-4.84,7.5-8,11.45-11,15.43-1.5,2-3,4-4.64,6.43a33.19,33.19,0,0,0-2.28,4,18.6,18.6,0,0,0-1.65,5c0-1.8.18-2.71,0-2.77s-0.56.65-.92,1.85a7.15,7.15,0,0,0-.14,4.26,3.23,3.23,0,0,0,1.25,1.59,6.55,6.55,0,0,0,2.2.88l-0.22,0a16.18,16.18,0,0,0,4.9-.27,0.83,0.83,0,0,1,.78,0,1.59,1.59,0,0,1-.88.76,10.07,10.07,0,0,0,5.3-3.85,10.31,10.31,0,0,0,1-1.89,7.54,7.54,0,0,0,.29-0.81,2.73,2.73,0,0,0,.09-0.35l0-.16c0-.06,0,0,0,0s0,0.14,0-.11V3367h0c0-.26,0,0.35,0,0.29l0-.19c-0.05-.26-0.1-0.52-0.13-0.79s0-.54-0.08-0.83-0.11-.59-0.16-0.92a31,31,0,0,0-1.19-5.41c-0.44.62-1.23,0-2.43-1.27s-3-3.21-5.26-5.33a69.77,69.77,0,0,0-17.22-11.77c4,1.83-1.54-2.45,2.29-.2a12.41,12.41,0,0,0-2.59-2.13c-0.6-.42-1.34-0.89-2.21-1.56a30.87,30.87,0,0,1-3.07-2.54c0.61,1.41,3,3.48,6,5.56-0.82-.58-2.31-1.44-4.12-2.7a42.25,42.25,0,0,1-5.63-4.52,27.25,27.25,0,0,1-4.31-5.31c-1-1.64-1.42-3-1.29-3.53a2.52,2.52,0,0,1-.67-0.37,5.1,5.1,0,0,1-.64-0.68,8.35,8.35,0,0,1-1.27-2.14c-0.19-.44-0.37-0.92-0.55-1.42a16.86,16.86,0,0,1-.4-1.64,9.86,9.86,0,0,1-.27-1.8c0-.63-0.11-1.27-0.1-1.93a20.36,20.36,0,0,1,1.81-8c0.3-.63.61-1.32,0.91-1.86l0.86-1.46a10.11,10.11,0,0,1,2.82-3.24,11,11,0,0,1,4.71-1.39,18.92,18.92,0,0,1,4.23.15,19.37,19.37,0,0,1,4,1c0.32,0.13.65,0.25,1,.44a10.42,10.42,0,0,1,2.73,1.87,8.82,8.82,0,0,1,2.28,3.83c0.09,0.3.19,0.67,0.25,0.92s0.11,0.61.17,0.92l0.3,1.81a25.14,25.14,0,0,1,.05,3.56c0,0.58-.06,1.16-0.13,1.73l-0.28,1.68a41,41,0,0,1-4.46,11.86,92.17,92.17,0,0,1-6.31,9.92c-2.25,3.11-4.53,6.09-6.91,9s-5,5.7-7.43,8.6a57.55,57.55,0,0,0-6.76,9.34,20.72,20.72,0,0,0-2,5.46,12.57,12.57,0,0,0,.3,5.78l-0.81-.69a24.56,24.56,0,0,0,9.51-1,17.35,17.35,0,0,0,4.45-2.06l0.48-.34,0.37-.32c0.12-.09.31-0.31,0.46-0.46l0.12-.12v0h0l-0.06.06h0l0,0,0-.05,0.16-.21a3.63,3.63,0,0,0,.73-1.76c0.69-2.39-1.58-6-3.7-8.79a66.46,66.46,0,0,0-7.67-8.1c-5.55-5.09-11.54-9.7-16.86-14.87s-9.76-11.13-11.86-17.78a28.85,28.85,0,0,1,.6-19.27l0.25-.65,0.72,0.06a30.92,30.92,0,0,1,13.49,3.95c-0.92.21-.12,0.95,0.7,1.84s1.62,2,1.29,2.37c-0.07-.45.31-0.49,0.91-0.17a4,4,0,0,1,1,.82,6.42,6.42,0,0,1,.49.65,7.4,7.4,0,0,1,.39.73,5,5,0,0,1,.24,3.36,1.79,1.79,0,0,1-1.61,1.51,6.29,6.29,0,0,1-.53,3,11,11,0,0,1-1.6,2.5,86.4,86.4,0,0,0-6.1,7.84c6.23-4.47-13.63,22.77-17.93,28.39-1.19,2-.11,1.78.23,2.28a42.86,42.86,0,0,0-5.06,8.8,8.47,8.47,0,0,0-.62,4.08,4.48,4.48,0,0,0,1.84,3l-0.29-.14a14.28,14.28,0,0,0,4.63.72,11.35,11.35,0,0,0,4.14-.79l0.2-.07,0.09,0,0.18-.1c0.12-.06.27-0.17,0.4-0.25s0.55-.4.81-0.62a20,20,0,0,0,1.51-1.4,14.09,14.09,0,0,0,1.28-1.5,6.12,6.12,0,0,0,.48-0.75,2.53,2.53,0,0,0,.14-0.3l0-.06a1.46,1.46,0,0,0,0-.23v-0.13s0,0.24,0,.12h0v-0.09l0-.23-0.07-.46L2823,3367c-0.13-.6-0.36-1.18-0.53-1.76a16.71,16.71,0,0,0-1.65-3.24,29.06,29.06,0,0,0-4.67-5.51,61.45,61.45,0,0,0-5.66-4.75c-4-3-8.54-5.92-13.77-9.23l-4.05-2.59-2.16-1.49c-0.73-.52-1.43-1.1-2.16-1.67a38.87,38.87,0,0,1-8.22-9c1.37,1.26,1.84,1.5,1.69,1.12s-0.93-1.37-1.84-2.9a24.61,24.61,0,0,1-2.69-5.91,18.59,18.59,0,0,1-.68-7.25c0.26,1.76.95,2.3,1.78,2a16,16,0,0,1,.9-7c0.24-.6.47-1.3,0.75-1.86l0.87-1.64,0.11-.21,0.2-.32c0.1-.16.21-0.32,0.33-0.48a7.9,7.9,0,0,1,.82-0.93,8,8,0,0,1,2.1-1.46,12.54,12.54,0,0,1,4.65-1.12,19,19,0,0,1,4.65.29,15.77,15.77,0,0,1,2.37.62,10.91,10.91,0,0,1,2.44,1.18,8.88,8.88,0,0,1,2.18,2,9.15,9.15,0,0,1,1.4,2.58,22.26,22.26,0,0,1,.89,9.78,31.38,31.38,0,0,1-2.64,9,61.39,61.39,0,0,1-9.5,14.53c-0.86,1.81-.15,2.21-2.59,5.35-0.54-.75-1.48.33-3.28,2.82s-4.65,6.2-8.39,10.84a46.16,46.16,0,0,0-5.72,8.72,16.9,16.9,0,0,0-1.53,4.79,11.52,11.52,0,0,0,.36,4.76l-0.88-1.18a5,5,0,0,0,2.33.45,12.52,12.52,0,0,0,3-.4,23.72,23.72,0,0,0,6.06-2.4c0.47-.27.91-0.55,1.32-0.84,0.22-.15.31-0.25,0.48-0.36a2.15,2.15,0,0,0,.29-0.26l0.33-.32,0,0-0.1.1h0l0-.06,0.09-.12a1.63,1.63,0,0,0,.18-0.23,2.9,2.9,0,0,0,.27-0.46,2.57,2.57,0,0,0,.27-0.91,4.72,4.72,0,0,0-.44-2.28,12.33,12.33,0,0,0-.66-1.32l-0.23-.4-0.21-.32-0.47-.7a37.14,37.14,0,0,0-4.43-5.33c-1.64-1.71-3.43-3.34-5.27-4.95-3.67-3.22-7.56-6.33-11.35-9.65-1.74-1.51-3.43-3.07-5.07-4.66-0.8-.83-1.68-1.67-2.4-2.48l-1.1-1.22c-0.44-.48-0.77-0.91-1.15-1.36a44.87,44.87,0,0,1-9-23.42,23.77,23.77,0,0,1,.26-5.8,9.89,9.89,0,0,1,2.57-5.39l0.32-.31,0.48-.08a19.25,19.25,0,0,1,9,.74,28.27,28.27,0,0,1,7.11,3.39c-0.55.11,0.09,0.9,1.1,2.21a17.89,17.89,0,0,1,1.64,2.54l0.21,0.43,0.1,0.22,0.06,0.17,0.13,0.34,0.06,0.17,0,0.09,0,0,0,0.13h0v0l0.21,0.9c0,0.31.08,0.61,0.12,0.92a10.41,10.41,0,0,1-1.37,5.88c-0.74,1.23-1.35,1.64-1.55.83a38.69,38.69,0,0,1-2.83,6.32q-1.66,3.14-3.63,6.41c-2.61,4.37-5.57,8.93-8.78,13.73l-5,7.39-2.59,3.84-1.32,2q-0.64,1-1.25,1.94a25.78,25.78,0,0,0-3.58,8.31,5,5,0,0,0,.38,3.49,4.3,4.3,0,0,0,2.91,1.64l-0.27,0a11.59,11.59,0,0,0,5-.67c1.12-.31,1.14-0.23.92,0s-0.7.65-.51,0.86a11.66,11.66,0,0,0,4.61-3,11.25,11.25,0,0,0,1.62-2.28,4.63,4.63,0,0,0,.27-0.59c0-.08.09-0.21,0.1-0.26a0.06,0.06,0,0,1,0-.05,0.24,0.24,0,0,0,0-.14l0-.21V3368c0-.06,0,0.39,0,0.19v0l0-.09,0-.18-0.12-.71a13.81,13.81,0,0,0-2.28-5.45l-0.41-.65-0.48-.62-1-1.25c-0.74-.78-1.4-1.61-2.21-2.35a84.32,84.32,0,0,0-10.22-8.32c-3.6-2.56-7.24-5-10.77-7.35-0.88-.61-1.73-1.16-2.62-1.8s-1.76-1.25-2.58-1.93a46,46,0,0,1-4.6-4.22,32.15,32.15,0,0,1-6.37-9.53,21.46,21.46,0,0,1-1.74-9.52,16.43,16.43,0,0,1,.23-2.05l0.41-1.84c0.17-.57.39-1.09,0.57-1.59a8.34,8.34,0,0,1,.61-1.38c0.15-.63.35-1.29,0.57-1.95s0.49-1.1.75-1.65l0.21-.41,0.11-.21,0.24-.37a8.41,8.41,0,0,1,.77-1,8,8,0,0,1,2.15-1.69,9.39,9.39,0,0,1,1.27-.56c0.23-.08.24-0.09,0.57-0.19l0.62-.16a14.07,14.07,0,0,1,2.42-.33,19.25,19.25,0,0,1,4.67.37,18.31,18.31,0,0,1,2.31.6c0.4,0.13.75,0.26,1.2,0.45,0.2,0.09.49,0.21,0.62,0.29l0.23,0.12,0.11,0.06,0.21,0.12a10.48,10.48,0,0,1,2.21,1.65,9.25,9.25,0,0,1,1.7,2.32,16,16,0,0,1,1,2.34l0.65,2.22c0.34,1.48.7,3,.9,4.43,0,1.36-.36,1.83-0.66,2s-0.64.12-.95,0.29a29.52,29.52,0,0,1-.48,4.24,39.32,39.32,0,0,1-1.12,4.21,45.31,45.31,0,0,1-3.2,7.46c-2.31,4.3-4.47,7.05-4.86,6.66a17.75,17.75,0,0,1-3.1,6c-0.66.95-1.34,1.85-2,2.84a29.83,29.83,0,0,0-1.94,3.33c0.66-2.22-.33-0.95-2,1.09s-3.89,4.75-5.67,5.76c0.55-.42-1.51,2.1-3.92,5.86a26.44,26.44,0,0,0-3.09,6.33,10,10,0,0,0-.14,6.18l-3-2.59a25.32,25.32,0,0,0,6.69-.3,23.9,23.9,0,0,0,4.51-1.22,12.76,12.76,0,0,0,1.83-.89,2,2,0,0,1,.24-0.13l0.54-.46h0l-0.13.13,0,0,0,0,0.06-.07,0.13-.13,0.21-.24a2.09,2.09,0,0,0,.42-1,3.72,3.72,0,0,0-.17-1.54,8.44,8.44,0,0,0-.34-1l-0.2-.46-0.28-.56c-0.42-.69-0.79-1.39-1.25-2.06a34.61,34.61,0,0,0-6.19-6.83,25.62,25.62,0,0,0-6.23-4c-3.32-3.2-7-6.37-10.59-9.75a72.27,72.27,0,0,1-10.38-11.44,37.63,37.63,0,0,1-6.45-14.92,31.68,31.68,0,0,1,1.64-16.57l0.9-2.36,2.63,0.21a33.55,33.55,0,0,1,13.77,3.81,17.07,17.07,0,0,1,6.08,5.44c0.24,0.39.47,0.83,0.68,1.25a5,5,0,0,1,.21.46l0.15,0.37,0.07,0.18,0.09,0.28v0l0,0.07,0,0.14,0.15,0.58a9.54,9.54,0,0,1,.22,1.18,13,13,0,0,1-.24,4.54,24.37,24.37,0,0,1-3,6.89c-1.16,1.95-2.25,3.6-3.35,5.34q-3.29,5.15-6.53,10.1c-0.4-.81-1.77,1.21-2.39,1-1.09,2.87-5.05,9.07-9.75,16l-3.6,5.31a43.71,43.71,0,0,0-3.07,5.15,11.82,11.82,0,0,0-1.34,4.61,6.18,6.18,0,0,0,1,3.57l-1.9-1.45a11,11,0,0,0,4.24.31,1,1,0,0,0,1.08-.63c0.1-.26,0-0.48.31-0.54,0,0-.11,1.36-0.16,2.71s-0.24,2.7-.24,2.7a8.45,8.45,0,0,0-2.29-.48,20.83,20.83,0,0,1-4-.81l0,0a10.54,10.54,0,0,1-1.51-4.79,14.42,14.42,0,0,1,1.14-6c1.65-4.16,4.57-8.29,7.32-12.72,5.62-8.81,11.93-18.24,18.13-25.61a12.48,12.48,0,0,1,1.45-3.58l1.13-1.83a23.45,23.45,0,0,0,1.69-3.38,10.38,10.38,0,0,0,0,2.09,13.76,13.76,0,0,0,2.35-7.35,7.51,7.51,0,0,0-1.16-3.8,11,11,0,0,0-2.71-2.82,20.56,20.56,0,0,0-7-3.23,33.41,33.41,0,0,0-7.55-1.1l0.62-.38a27.41,27.41,0,0,0-.62,15.56,39.53,39.53,0,0,0,6.85,13.68,15.18,15.18,0,0,0,1.05,1.34l0.7,0.82,0.37,0.43,0.44,0.47c1.23,1.31,2.64,2.73,4.41,4.3,3.48,3.18,8,6.76,12.74,10.76s9.58,8.48,12.78,13.86a14,14,0,0,1,1.85,4.29,6.51,6.51,0,0,1-.52,4.57,7.22,7.22,0,0,1-1.33,1.69,9,9,0,0,1-.78.62,8.56,8.56,0,0,1-.85.53,14.14,14.14,0,0,1-3.31,1.28,26.08,26.08,0,0,1-12.26,2l-0.42,0-0.14-.45a14.48,14.48,0,0,1-.45-6.49,23,23,0,0,1,2.14-6.12,64.14,64.14,0,0,1,7.21-10.36c2.62-3.22,5.31-6.33,7.69-9.56s4.77-6.63,6.93-10.06a72.26,72.26,0,0,0,5.61-10.57,30.1,30.1,0,0,0,2.53-11.13,8.62,8.62,0,0,0-.06-1.38c0-.46-0.05-0.92-0.13-1.37a25.68,25.68,0,0,0-.61-2.63,4.47,4.47,0,0,0-1.9-2.55c-0.13-.1-0.38-0.23-0.45-0.28a6.44,6.44,0,0,0-.6-0.29,12.07,12.07,0,0,0-2.46-.72,16.21,16.21,0,0,0-2.68-.28,7.92,7.92,0,0,0-4.61,1,4.09,4.09,0,0,0-.75.7l-0.18.22-0.09.12,0,0.06,0-.06,0,0-0.41.64-0.81,1.27-0.54,1.16-0.28.57c-0.08.2-.14,0.42-0.21,0.63l-0.42,1.27-0.25,1.31-0.13.66,0,0.67a16.76,16.76,0,0,0,.44,5.33,21.58,21.58,0,0,0,.86,2.59l0.52,1.27,0.65,1.22a32.3,32.3,0,0,0,7,8.65l2.17,1.81,2.27,1.68,4.81,3.29c6.41,4.39,12.9,8.64,18.61,14.08l1.06,1,1,1.1a30.73,30.73,0,0,1,3.66,4.86c0.28,0.43.48,0.93,0.73,1.4a11.47,11.47,0,0,1,.66,1.45,15.44,15.44,0,0,1,.87,3.15l0.13,0.82,0.06,0.41v0.05c0,0.15,0-.27,0,0.36v0.26a4,4,0,0,1-.09.61,7.14,7.14,0,0,1-.19.73c-0.11.3-.22,0.6-0.34,0.89a15.36,15.36,0,0,1-4,5.27c-1.42.92-1.84,0.55-2.29,0.35a1.5,1.5,0,0,0-.9-0.18,3.62,3.62,0,0,0-.75.18,9.3,9.3,0,0,0-1.14.38,8.93,8.93,0,0,0-2,.85c-0.19.18,0.05,0.34,0.57,0.43a7.24,7.24,0,0,0,4.28-1,15.58,15.58,0,0,1-4.34,1.68,18.26,18.26,0,0,1-5.53.25h-0.11l-0.16,0a10,10,0,0,1-4.26-2.08,7.68,7.68,0,0,1-1.67-2.16,8.14,8.14,0,0,1-.77-2.54,12.74,12.74,0,0,1,.34-4.7,25.14,25.14,0,0,1,1.43-4.11,51.2,51.2,0,0,1,4.15-7.4l4.54-7,18.91-29.07a14.6,14.6,0,0,0,2.31-5.67,5,5,0,0,0,0-1.25,3.89,3.89,0,0,0-.13-0.6l0-.07v0h0l0.07,0.19h0l0-.06-0.09-.23-0.18-.47c-0.11-.19-0.18-0.27-0.25-0.42l-0.42-.61a12.61,12.61,0,0,0-1.07-1.23,16.86,16.86,0,0,0-5.79-3.8,13,13,0,0,0-6.53-.88l1.49-.73a4.49,4.49,0,0,0-1.11,1.94,13.12,13.12,0,0,0-.53,3,29,29,0,0,0,.33,6.28,63.31,63.31,0,0,0,2.66,10.5c1,1,2.4,2.93,4.05,5,0.82,1,1.73,2.06,2.68,3l1.53,1.61,1.46,1.48c3.94,3.9,7.15,7.14,5.43,6.32a56.33,56.33,0,0,1,5.7,3.82,92.87,92.87,0,0,1,8.12,6.67,41.21,41.21,0,0,1,7.46,8.93,14.55,14.55,0,0,1,2.1,5.19,7.31,7.31,0,0,1,0,2.72,5.9,5.9,0,0,1-1,2.2,6.58,6.58,0,0,1-1.35,2.13,8.27,8.27,0,0,1-1,.91c-0.36.3-.71,0.54-1.08,0.82a23.2,23.2,0,0,1-4.94,2.51,20.77,20.77,0,0,1-5.57,1.29,9.35,9.35,0,0,1-5.68-1.13l-0.63-.39-0.12-.61c-0.17-.88-0.35-1.69-0.44-2.44l0-2c0.11-1.14.25-1.89,0.28-2.16s0.08-.56.15-1.13a12.37,12.37,0,0,1,.4-2.11l0.36-1.25a13.45,13.45,0,0,1,.51-1.25c0.19-.41.38-0.84,0.6-1.23s0.47-.75.72-1.1a5,5,0,0,1,.7-0.69c0.34-.27.76-0.56,1.16-0.85,0.8-.58,1.59-1.07,1.72-1.24,1.66-2.32,1-1.81.25-1.29s-1.63,1.14-.31-1a77.86,77.86,0,0,1,7.78-9.83c2.82-3.21,5.75-6.75,8.54-10.4a62.62,62.62,0,0,0,7.23-11.57,32.38,32.38,0,0,0,1.21-3.07c0.17-.52.35-1,0.49-1.54l0.36-1.55a10.74,10.74,0,0,0,.26-1.54c0.06-.51.13-1,0.17-1.52s0-1,0-1.49l0-.73-0.1-.71a11.3,11.3,0,0,0,.4-1.72q0.1-.86.15-1.73c0-.57-0.08-1.13-0.14-1.71a5.4,5.4,0,0,0-.13-0.86,7.35,7.35,0,0,0-.2-0.76c-0.56-1.89-2.38-3-4.86-3.39a14.76,14.76,0,0,0-3.83-.13,7.7,7.7,0,0,0-3.45,1.05,3.63,3.63,0,0,0-1,1.09l-1.15,2.1c-0.2.39-.27,0.7-0.42,1.05a7.93,7.93,0,0,0-.38,1.06,14.78,14.78,0,0,0-.54,2.43q-1.45-.1-2.9-0.12a1.58,1.58,0,0,1,.47.68,3.28,3.28,0,0,1,.27.89,6.71,6.71,0,0,1,.07,1c0,0.36.07,0.74,0.09,1.11l0.1,1.11a8.23,8.23,0,0,0,.29,1,1.65,1.65,0,0,0,1,1.19,2.54,2.54,0,0,0-.19-1.81,6.35,6.35,0,0,1-.34-1.43c0-.28-0.09-0.59-0.12-0.92a9.22,9.22,0,0,1,.07-1.06,4.51,4.51,0,0,1,.56,1.27,13.51,13.51,0,0,1,.43,1.77c0.32,1.31.59,2.87,1.05,4.4,0.11,0.38.21,0.77,0.3,1.16l0.36,1.11c0.11,0.36.21,0.72,0.3,1.07s0.23,0.65.32,1a11.38,11.38,0,0,1,.37,1.59,1.34,1.34,0,0,1,0,.92,6,6,0,0,0,2.37,2c0.42,0.11.42-.29,0-1.08a30.56,30.56,0,0,0,7.57,7.19c3.16,2.11,6.14,3.73,7.51,3.67,0.68,1.68,2.87,2.72,4.94,3.88s4,2.42,4.16,4.34a19.08,19.08,0,0,1,5.43,3.05,31.81,31.81,0,0,1,6.83,6.78c0.51,0.75,1,1.55,1.49,2.34s0.86,1.72,1.19,2.63l0.43,1.41a6.92,6.92,0,0,1,.33,1.44l0.19,1.47,0,0.36v0.14c0,0.2,0-.43,0,0.45h0v0l0,0.14,0,0.14,0,0.15,0,0.24a6.39,6.39,0,0,1-.28.92,9.07,9.07,0,0,1-.46.91c-0.15.23-.3,0.47-0.45,0.68-0.29.4-.59,0.76-0.88,1.09a20.43,20.43,0,0,1-1.74,1.71,20.73,20.73,0,0,1-1.76,1.37c-0.32.21-.61,0.41-1,0.61a6.15,6.15,0,0,1-1.58.65l0.55-.2a5.94,5.94,0,0,1-.7.24l-0.56.14c-0.36.08-.69,0.13-1,0.18a9.07,9.07,0,0,1-1.57.08,12.72,12.72,0,0,1-7.85.2l-0.49-.13-0.41-.32a17.91,17.91,0,0,1-1.54-1.29q-0.35-.41-0.7-0.86a4.45,4.45,0,0,1-.62-1c-0.18-.35-0.35-0.71-0.51-1.07a9.88,9.88,0,0,1-.32-1.14,10.43,10.43,0,0,1-.27-2.33,23.75,23.75,0,0,1,2.23-8.56,11,11,0,0,0-.79,2.9c0,0.46.15,0.39,0.47-.06,0.62-.91,1.95-3.23,3.79-5.93-0.46-.15-1.67,2-2.54,3.41-0.62-2.3,2-4.31,4.28-7,0.66-3.73,6.92-13.33,14.15-23.85l5.53-8,2.75-4a34,34,0,0,0,2.22-3.59,9.46,9.46,0,0,0,1-3,4.36,4.36,0,0,0,0-1.11,1.08,1.08,0,0,0,0-.25l0-.12V3311h0l0.08,0.23v0l-0.18-.49-0.09-.24a0.12,0.12,0,0,0,0-.06,6.86,6.86,0,0,0-.53-0.73,7.35,7.35,0,0,0-.91-0.91,11.84,11.84,0,0,0-2.23-1.46c-2-1.27-2.52-1.53-2.27-1.76s1.1-.28,1.38-0.8l-5.28-1.12c0.92,0.56,1.73,1.23,1.54,1.85a38,38,0,0,0-5.62-.91l4.3-2.62a25.35,25.35,0,0,0,.44,20.08,39,39,0,0,0,6.58,10.06c0.37,0.41.76,0.87,1.13,1.25l1.11,1.16c0.74,0.78,1.59,1.57,2.39,2.36,1.67,1.57,3.41,3.14,5.25,4.73,2.56,2.24,5.59,4.68,8.84,7.48a68.36,68.36,0,0,1,9.92,10c0.41,0.49.76,1.06,1.14,1.6l0.56,0.83c0.24,0.37.32,0.52,0.52,0.86a13.22,13.22,0,0,1,1.65,4.45,8.49,8.49,0,0,1-1,5.56,9.54,9.54,0,0,1-1.7,2.17c-0.13.12-.18,0.2-0.38,0.36l-0.57.47a12.81,12.81,0,0,1-1.05.74,24.67,24.67,0,0,1-8.29,3.11,29.53,29.53,0,0,1-8.72.4l-2.42-.25-0.53-2.28c-0.21-.88-0.42-1.77-0.57-2.67s-0.13-1.82-.1-2.71a26.08,26.08,0,0,1,.33-2.62c0.21-.82.37-1.69,0.66-2.46a32.24,32.24,0,0,1,4.31-8.2,150,150,0,0,1,10.06-12.17c3-3.5,5.81-7,8.25-10.07l6.27-7.86a59.1,59.1,0,0,0,3.42-8.67,25.15,25.15,0,0,0,1.11-9.27,13,13,0,0,0-.37-2.3l-0.11-.57-0.16-.56a6.23,6.23,0,0,0-.35-0.9,3.61,3.61,0,0,0-1-1.26,4.37,4.37,0,0,0-.37-0.27l-0.21-.13-0.11-.06-0.05,0,0.06,0h0l0,0a6.56,6.56,0,0,0-1-.44,14.78,14.78,0,0,0-4.76-.81,7,7,0,0,0-4.08,1,3.59,3.59,0,0,0-.65.62l-0.17.21,0,0.06,0,0,0.07-.11v0l-0.1.16-0.41.63c-0.26.42-.56,0.86-0.8,1.26l-0.52,1.11c-0.09.19-.19,0.36-0.26,0.56l-0.2.63c-0.13.42-.3,0.83-0.4,1.26a15.34,15.34,0,0,0-.39,2.64,16,16,0,0,0,0,2.71c0.05,0.46.16,0.91,0.24,1.37l0.12,0.69,0.21,0.68a21.92,21.92,0,0,0,2.33,5.31,34.86,34.86,0,0,0,8.41,9.06c0.86,0.64,1.75,1.25,2.63,1.87l2.88,1.88,5.88,3.78c-3.52-.63-0.44,1.13,3.75,3.66a66.44,66.44,0,0,1,6.37,4.3,20.1,20.1,0,0,1,2.46,2.2,5.56,5.56,0,0,1,1.3,1.85,9,9,0,0,1,1.75,1.06,22.52,22.52,0,0,1,2.17,2,20.26,20.26,0,0,1,4.43,7.46l0.39,1.31c0.1,0.46.15,0.94,0.22,1.43l0.09,0.73,0,0.37v0.14h0v0.42l0,0.15,0,0.15v0.09l0,0.19c0,0.25-.1.51-0.17,0.76l-0.11.37-0.09.21-0.18.42a12.88,12.88,0,0,1-1.74,2.78,16.11,16.11,0,0,1-2.27,2.3,15.68,15.68,0,0,1-6,3.07,17.05,17.05,0,0,1-6.87.3l-0.24,0-0.05,0a12,12,0,0,1-2.63-1.09,8.06,8.06,0,0,1-2.39-2.09,7.29,7.29,0,0,1-1.31-3,9.42,9.42,0,0,1-.1-2.92,17.73,17.73,0,0,1,1.43-5,36,36,0,0,1,2.25-4.3c0.82-1.36,1.71-2.67,2.6-3.92l2.6-3.68c1.7-2.43,3.34-4.82,4.88-7.12,5.65-8.46,10-16.67,13.88-23.4,2-3.33,3.51-6.16,3.93-8.28a8.19,8.19,0,0,0,.19-1.5c0-.25,0-0.48,0-0.72v-0.07l0.06,0.16h0v0l0-.13-0.05-.25-0.09-.49a4.55,4.55,0,0,1-.1-0.6q-0.12-.38-0.22-0.78c-0.18-.51-0.31-1.06-0.5-1.58-1.94-1.13-3.56-2.21-5.69-3.22a14.34,14.34,0,0,0-3.63-1.21,10.57,10.57,0,0,0-4.62.09l1.13-.56c-0.08.14-.2,0.25-0.28,0.43a1.05,1.05,0,0,0,.08-0.65l-1,.48c0.06,0,.06-0.08,0-0.11l0.92-.45c-0.17-.05-0.81.31-1.34,1.43a10.9,10.9,0,0,0-.79,4.79,22.49,22.49,0,0,0,2.57,9.66c0.7,2.68-.44,0-0.87.42a36.17,36.17,0,0,0,3.52,7.19,41.15,41.15,0,0,0,2.41,3.37l2.28,2.93,0.38,0.47,0.42,0.5,1,1.22c0.77,0.86,1.59,1.84,2.74,3a2.36,2.36,0,0,1-1.57-1.17c-0.3-.36-0.65-0.79-1.07-1.26a19,19,0,0,0-1.56-1.62c1.11,3.75,6.84,6.36,9.66,9.94-0.66-1.49,3,.93,7.12,4.28a63.19,63.19,0,0,1,5.94,5.49,18.8,18.8,0,0,1,3.39,4.66c1.61,1.72,1.71.63,2.3,0.45a41.72,41.72,0,0,1,3.73,6.36,10.51,10.51,0,0,1,1,4.62,7.66,7.66,0,0,1-2.14,4.87l-0.05.06-0.1.11,0,0-0.1.09-0.19.18a5.22,5.22,0,0,1-.44.38,13.1,13.1,0,0,1-1.07.79,21.17,21.17,0,0,1-2.06,1.22,28.94,28.94,0,0,1-4.42,1.88,22.54,22.54,0,0,1-5,1.08,9.89,9.89,0,0,1-5.92-1.07l-0.69-.39-0.26-.87a16,16,0,0,1-.36-7.39,23.92,23.92,0,0,1,2.49-6.68,65.73,65.73,0,0,1,7.72-10.7c2.71-3.21,5.4-6.17,7.7-9.09l6.73-8.41c0.54-.67,3-2.16,3.37-2.73,2.08-3.51-1.82,1-1.89,1.29,0.17-1.21,1.33-3.55,2.78-6.67,0.36-.78.75-1.6,1.11-2.48l0.57-1.34,0.52-1.41c0.4-.95.64-2,1-3,0.14-.51.25-1,0.38-1.55l0.19-.79,0.12-.8a18.53,18.53,0,0,0,.06-6.45,16.12,16.12,0,0,0-.31-1.58,6.54,6.54,0,0,0-.46-1.25,4.29,4.29,0,0,0-1.66-1.71l-0.07,0,0,0,0.06,0h0l-0.2-.1-0.34-.17c-0.15-.08-0.36-0.16-0.6-0.25a12,12,0,0,0-1.41-.43,15.42,15.42,0,0,0-2.89-.42,11.64,11.64,0,0,0-2.61.15,4.76,4.76,0,0,0-.56.12l-0.24.06-0.31.1a4.57,4.57,0,0,0-.82.39,3.78,3.78,0,0,0-.92.8l-0.21.27-0.11.15,0,0v0h0l0.06-.09-0.06.1-0.49.81a16,16,0,0,0-1.51,3.07,14.67,14.67,0,0,0-.76,6.8c0.54,4.67,3.13,9.16,6.53,12.78a41.48,41.48,0,0,0,5.54,5c1.94,1.44,4.14,2.9,6.19,4.31,4.13,2.83,8,5.6,11.38,8.4-1.73-.12-0.8.87,0.55,2.09s3.12,2.69,3.16,3.36c1.47,1.41,1.6,1.06,1.2.2a11.24,11.24,0,0,0-.89-1.5,8.66,8.66,0,0,0-1.07-1.23c0-.24.58,0.14,1.4,0.79a26.37,26.37,0,0,1,2.62,2.59,8,8,0,0,1,1.53,2.19c0.08,0.4-.27.22-1.54-0.7a27.44,27.44,0,0,1,4.25,4.06,25.89,25.89,0,0,1,1.59,2.21,27.46,27.46,0,0,1,1.27,2.5l0.46,1.42,0.22,0.73c0.06,0.25.09,0.52,0.13,0.79l0.22,1.65c0,0.21,0,.27,0,0.42s0,0.35,0,.52a7.79,7.79,0,0,1-.11,1,6.68,6.68,0,0,1-2.35,4.06,9,9,0,0,1-2.06,1.28,14,14,0,0,1-2.27.78,3.64,3.64,0,0,0,1.15-1c0.06-.22-0.31-0.17-1.55.13-0.09-.16.6-0.47,1.46-0.93a8.43,8.43,0,0,0,2.45-1.85c0.58-.69.77-1.24,0.6-1a8.06,8.06,0,0,1-.74.82,7.17,7.17,0,0,1-2.29,1.43c0-.34,1.28-1.05,2.1-2s1.11-2.21,1.43-2.25c-0.2-.92-0.46-1-0.61-0.66a10.89,10.89,0,0,1-.75,1.75,4.88,4.88,0,0,1-2.09,1.73A10.08,10.08,0,0,1,2969.1,3372.51Zm-137.73-46.83c-3.31,4.19-6,8.23-7.13,11.81C2827.51,3334.58,2833.78,3320.89,2831.38,3325.68Z" transform="translate(-2656.63 -3297.63)"/><path class="cls-3" d="M2787.3,3329.77c-0.31-.48-0.67-1.16-1.29-2A20.71,20.71,0,0,0,2787.3,3329.77Z" transform="translate(-2656.63 -3297.63)"/></g><g class="cls-1"><path class="cls-2" d="M3200,3389.13h0l0,0.05Z" transform="translate(-2656.63 -3297.63)"/><path class="cls-2" d="M3199.78,3384.82c-0.52-2.34-.77-2.09-0.8-0.81a13.43,13.43,0,0,0,1.06,5.11A14.21,14.21,0,0,1,3199.78,3384.82Z" transform="translate(-2656.63 -3297.63)"/><path class="cls-2" d="M3130.49,3406.47c3.26-2.91,9.53-16.6,7.13-11.81C3134.31,3398.85,3131.66,3402.89,3130.49,3406.47Z" transform="translate(-2656.63 -3297.63)"/><path class="cls-3" d="M3275.34,3441.49a10.36,10.36,0,0,0,2.24-.89,4.81,4.81,0,0,0,1.4-1.16,3.36,3.36,0,0,0,.55-2.65l-0.29-1.41a2.35,2.35,0,0,0-.19-0.65l-0.23-.61a14.61,14.61,0,0,0-1-2.15c-0.71-1.3-1.44-2.43-2.27-3.71s-1.81-2.69-3.13-4.54c-5.86-4.87-12.94-9.22-19.27-13.65a50.87,50.87,0,0,1-8.61-7.07,25.84,25.84,0,0,1-5.15-7.64,19.5,19.5,0,0,1-4.36-10.91,15.17,15.17,0,0,1,.55-5.11,11.48,11.48,0,0,1,1.66-3.48,6.57,6.57,0,0,1,.38-2.06c0.11-.32.24-0.65,0.39-1l0.22-.49,0.06-.12,0-.06v0l0.08-.12,0.17-.27a6.78,6.78,0,0,1,2-2,7.5,7.5,0,0,1,1.23-.65c0.2-.09.43-0.17,0.66-0.25l0.25-.08,0.17,0,0.15,0a17.8,17.8,0,0,1,4.07-.44c1.06,0,1.78-.08,2-0.43,1,0.35,2,.72,3.1,1.2,0.54,0.25,1,.48,1.66.83,0.32,0.18.41,0.26,0.79,0.5s0.53,0.38.79,0.59a8.3,8.3,0,0,1,2.47,3.32,13.2,13.2,0,0,1,.6,1.91l0.4,1.94a29,29,0,0,1,.07,8.11,45.53,45.53,0,0,1-1.91,7.91,63.31,63.31,0,0,1-6.24,13c-2.19,3.46-4.3,5.9-5.93,6.76-0.81,1.38-1.73,2.82-2.69,4.21s-2,2.74-3,4.07c-2.06,2.66-4.18,5.23-6.12,7.78a40.67,40.67,0,0,0-4.81,7.63,12.64,12.64,0,0,0-1.18,7.43l-0.94-1.26a5.6,5.6,0,0,0,3,1,18.49,18.49,0,0,0,3.81-.11c0-.5,1.54-1.38,3.62-2.5,1-.55,2.28-1.24,3.18-1.84a5.29,5.29,0,0,0,2.18-2.64c-0.51-.69-1.08-1.87-2.46-3.7a66,66,0,0,0-5.79-6.64c-4.88-5-11.85-10.75-17.78-17-0.08.22-1-.24-2.4-1.25-0.7-.48-1.53-1.15-2.45-1.92-0.47-.39-0.92-0.79-1.37-1.21l-0.69-.65-0.35-.33-0.09-.08-0.14-.14-0.19-.2a32,32,0,0,1-5.33-7.41,29.15,29.15,0,0,1-2.86-8l0,0.05,0-.06a14.21,14.21,0,0,1-.25-4.31c-0.52-2.34-.77-2.09-0.8-0.81a13.43,13.43,0,0,0,1.06,5.11h0a34.86,34.86,0,0,1-2.55-10,20.31,20.31,0,0,1,.23-5.67,10.5,10.5,0,0,1,3-5.79l0.68-.65,0.89-.13a16,16,0,0,1,8.34,1.08,13.14,13.14,0,0,1,4.88,3.4,8.23,8.23,0,0,1,.95.34c0.35,0.17.74,0.38,1.16,0.63s0.85,0.58,1.32.93a16,16,0,0,1,1.4,1.28c0.23,0.25.48,0.5,0.71,0.78l0.69,0.91c0.24,0.37.49,0.81,0.71,1.23,0.11,0.21.14,0.32,0.22,0.48l0.1,0.23,0,0.11,0,0.06v0l0.07,0.22a10.68,10.68,0,0,1,.25,5.48,22.44,22.44,0,0,1-4.17,8.28,48,48,0,0,1-4.05,4.9c0.71,0.56-.43,2.61-4.32,6.63-1.2,2-.11,1.78.23,2.29-4.84,7.5-8,11.45-11,15.43-1.5,2-3,4-4.64,6.43a33.19,33.19,0,0,0-2.28,4,18.59,18.59,0,0,0-1.65,5c0-1.8.18-2.71,0-2.77s-0.56.65-.92,1.85a7.15,7.15,0,0,0-.14,4.26,3.24,3.24,0,0,0,1.25,1.59,6.55,6.55,0,0,0,2.2.88l-0.22,0a16.18,16.18,0,0,0,4.9-.27,0.83,0.83,0,0,1,.78,0,1.59,1.59,0,0,1-.88.76,10.07,10.07,0,0,0,5.3-3.85,10.31,10.31,0,0,0,1-1.89,7.54,7.54,0,0,0,.29-0.81,2.69,2.69,0,0,0,.09-0.35l0-.16c0-.06,0,0,0,0s0,0.14,0-.11V3436h0c0-.26,0,0.35,0,0.29l0-.19c-0.05-.26-0.1-0.52-0.13-0.79s0-.54-0.08-0.83-0.11-.59-0.16-0.92a31,31,0,0,0-1.19-5.41c-0.44.62-1.23,0-2.43-1.27s-3-3.21-5.26-5.33a69.79,69.79,0,0,0-17.22-11.77c4,1.83-1.55-2.45,2.29-.19a12.41,12.41,0,0,0-2.59-2.13c-0.6-.42-1.34-0.89-2.21-1.56a30.82,30.82,0,0,1-3.07-2.54c0.61,1.41,3,3.48,6,5.56-0.82-.58-2.31-1.44-4.12-2.7a42.23,42.23,0,0,1-5.63-4.52,27.24,27.24,0,0,1-4.31-5.31c-1-1.64-1.42-3-1.29-3.53a2.51,2.51,0,0,1-.67-0.37,5.11,5.11,0,0,1-.64-0.68,8.35,8.35,0,0,1-1.27-2.14c-0.19-.44-0.37-0.92-0.55-1.42s-0.27-1.07-.4-1.64a9.89,9.89,0,0,1-.27-1.8c0-.63-0.11-1.27-0.1-1.93a20.36,20.36,0,0,1,1.81-8c0.3-.63.61-1.32,0.91-1.86l0.86-1.46a10.12,10.12,0,0,1,2.82-3.24,11,11,0,0,1,4.71-1.39,18.93,18.93,0,0,1,4.23.15,19.38,19.38,0,0,1,4,1c0.32,0.13.65,0.25,1,.44a10.39,10.39,0,0,1,2.73,1.87,8.82,8.82,0,0,1,2.28,3.83c0.09,0.3.19,0.67,0.25,0.92s0.11,0.61.17,0.92l0.3,1.81a25.1,25.1,0,0,1,.05,3.56c0,0.58-.06,1.16-0.13,1.73l-0.28,1.68a41,41,0,0,1-4.46,11.86,92.17,92.17,0,0,1-6.31,9.92c-2.25,3.11-4.53,6.09-6.91,9s-5,5.7-7.43,8.6a57.55,57.55,0,0,0-6.76,9.34,20.71,20.71,0,0,0-2,5.46,12.57,12.57,0,0,0,.3,5.78l-0.81-.69a24.57,24.57,0,0,0,9.51-1,17.36,17.36,0,0,0,4.45-2.06l0.48-.34,0.37-.32c0.12-.09.31-0.31,0.46-0.46l0.12-.12,0,0h0l-0.06.06h0l0,0,0-.05,0.16-.21a3.63,3.63,0,0,0,.73-1.76c0.69-2.39-1.58-6-3.7-8.79a66.49,66.49,0,0,0-7.67-8.1c-5.55-5.09-11.54-9.7-16.86-14.87s-9.76-11.13-11.86-17.78a28.85,28.85,0,0,1,.6-19.27l0.25-.65,0.72,0.06a30.92,30.92,0,0,1,13.49,3.95c-0.92.21-.12,0.95,0.7,1.84s1.62,2,1.29,2.37c-0.07-.45.31-0.49,0.91-0.17a4,4,0,0,1,1,.82,6.45,6.45,0,0,1,.49.65,7.35,7.35,0,0,1,.4.73,5,5,0,0,1,.24,3.36,1.79,1.79,0,0,1-1.61,1.51,6.29,6.29,0,0,1-.53,3,11,11,0,0,1-1.6,2.5,86.5,86.5,0,0,0-6.1,7.84c6.23-4.47-13.63,22.77-17.93,28.39-1.19,2-.11,1.78.23,2.28a42.85,42.85,0,0,0-5.06,8.8,8.47,8.47,0,0,0-.62,4.08,4.48,4.48,0,0,0,1.84,3l-0.29-.14a14.28,14.28,0,0,0,4.63.72,11.35,11.35,0,0,0,4.14-.79l0.2-.07,0.09,0,0.18-.1c0.12-.06.27-0.17,0.4-0.25s0.55-.4.81-0.62a20.05,20.05,0,0,0,1.51-1.4,14.08,14.08,0,0,0,1.28-1.5,6.12,6.12,0,0,0,.48-0.75,2.55,2.55,0,0,0,.14-0.3l0-.06a1.46,1.46,0,0,0,0-.23v-0.13s0,0.24,0,.12h0v-0.09l0-.23-0.07-.46-0.13-.91c-0.13-.6-0.36-1.18-0.53-1.76a16.71,16.71,0,0,0-1.65-3.24,29.06,29.06,0,0,0-4.67-5.51,61.37,61.37,0,0,0-5.66-4.75c-4-3-8.54-5.92-13.77-9.23l-4.05-2.59-2.16-1.49c-0.73-.52-1.43-1.1-2.16-1.67a38.87,38.87,0,0,1-8.22-9c1.37,1.26,1.84,1.5,1.69,1.12s-0.93-1.37-1.84-2.9a24.61,24.61,0,0,1-2.69-5.91,18.59,18.59,0,0,1-.68-7.25c0.26,1.76.95,2.3,1.78,2a16,16,0,0,1,.9-7c0.24-.6.47-1.3,0.75-1.86l0.87-1.64,0.11-.21,0.2-.32c0.1-.16.21-0.32,0.33-0.48a7.84,7.84,0,0,1,.82-0.93,8,8,0,0,1,2.1-1.46,12.54,12.54,0,0,1,4.65-1.12,19,19,0,0,1,4.65.29,15.78,15.78,0,0,1,2.37.62,10.9,10.9,0,0,1,2.44,1.18,8.88,8.88,0,0,1,2.18,2,9.15,9.15,0,0,1,1.4,2.58,22.26,22.26,0,0,1,.89,9.78,31.37,31.37,0,0,1-2.64,9,61.38,61.38,0,0,1-9.5,14.53c-0.86,1.81-.15,2.21-2.59,5.35-0.54-.75-1.48.33-3.28,2.82s-4.65,6.2-8.39,10.84a46.16,46.16,0,0,0-5.72,8.72,16.9,16.9,0,0,0-1.53,4.79,11.53,11.53,0,0,0,.36,4.76l-0.88-1.18a5,5,0,0,0,2.33.45,12.52,12.52,0,0,0,3-.4,23.72,23.72,0,0,0,6.06-2.4c0.47-.27.91-0.55,1.32-0.84,0.22-.15.31-0.25,0.48-0.36a2.17,2.17,0,0,0,.29-0.26l0.33-.32,0,0-0.1.1h0l0-.06,0.09-.12a1.64,1.64,0,0,0,.18-0.23,2.88,2.88,0,0,0,.27-0.46,2.57,2.57,0,0,0,.27-0.91,4.72,4.72,0,0,0-.44-2.28,12.31,12.31,0,0,0-.65-1.32l-0.23-.4-0.21-.32-0.47-.7a37.16,37.16,0,0,0-4.43-5.33c-1.64-1.71-3.43-3.34-5.27-4.95-3.67-3.22-7.56-6.34-11.35-9.65-1.74-1.51-3.43-3.07-5.07-4.66-0.8-.83-1.68-1.67-2.4-2.48l-1.1-1.22c-0.44-.48-0.77-0.91-1.15-1.36a44.87,44.87,0,0,1-9-23.42,23.78,23.78,0,0,1,.26-5.79,9.89,9.89,0,0,1,2.57-5.39l0.32-.31,0.48-.08a19.24,19.24,0,0,1,9,.74,28.27,28.27,0,0,1,7.11,3.39c-0.55.11,0.09,0.9,1.1,2.21a17.84,17.84,0,0,1,1.64,2.54l0.21,0.43,0.1,0.22,0.06,0.17,0.13,0.34,0.06,0.17,0,0.09,0,0,0,0.13h0v0l0.21,0.9c0,0.31.08,0.61,0.12,0.92a10.41,10.41,0,0,1-1.37,5.88c-0.74,1.23-1.35,1.64-1.55.83a38.67,38.67,0,0,1-2.83,6.32q-1.66,3.14-3.63,6.41c-2.61,4.37-5.57,8.93-8.78,13.73l-5,7.39-2.59,3.84-1.32,2q-0.64,1-1.25,1.94a25.77,25.77,0,0,0-3.58,8.31,5,5,0,0,0,.38,3.49,4.3,4.3,0,0,0,2.91,1.64l-0.27,0a11.59,11.59,0,0,0,5-.67c1.12-.31,1.14-0.23.92,0s-0.71.65-.51,0.86a11.66,11.66,0,0,0,4.61-3,11.25,11.25,0,0,0,1.62-2.28,4.63,4.63,0,0,0,.27-0.59c0-.08.09-0.21,0.1-0.26a0.06,0.06,0,0,1,0-.05,0.24,0.24,0,0,0,0-.14l0-.21V3437c0-.06,0,0.39,0,0.19v0l0-.09,0-.18-0.12-.71a13.81,13.81,0,0,0-2.28-5.45l-0.41-.65-0.48-.62-1-1.25c-0.74-.78-1.4-1.61-2.21-2.35a84.3,84.3,0,0,0-10.22-8.32c-3.59-2.56-7.24-5-10.77-7.35-0.88-.61-1.73-1.16-2.62-1.8s-1.76-1.25-2.58-1.93a45.9,45.9,0,0,1-4.6-4.22,32.16,32.16,0,0,1-6.37-9.53,21.46,21.46,0,0,1-1.74-9.52,16.35,16.35,0,0,1,.23-2.05l0.41-1.84c0.17-.57.39-1.09,0.57-1.59a8.33,8.33,0,0,1,.61-1.38c0.15-.63.35-1.29,0.57-1.95s0.48-1.1.75-1.65l0.21-.41,0.11-.21,0.24-.37a8.43,8.43,0,0,1,.77-1,8,8,0,0,1,2.15-1.69,9.39,9.39,0,0,1,1.27-.56c0.23-.08.24-0.09,0.57-0.19l0.62-.16a14.05,14.05,0,0,1,2.42-.33,19.25,19.25,0,0,1,4.67.37,18.35,18.35,0,0,1,2.31.6c0.4,0.13.75,0.26,1.2,0.45,0.2,0.09.49,0.21,0.62,0.29l0.23,0.12,0.11,0.06,0.21,0.12a10.48,10.48,0,0,1,2.21,1.65,9.26,9.26,0,0,1,1.7,2.32,16,16,0,0,1,1,2.34l0.65,2.22c0.34,1.48.7,3,.9,4.43,0,1.36-.36,1.83-0.66,2s-0.64.12-.95,0.29a29.53,29.53,0,0,1-.48,4.24,39.3,39.3,0,0,1-1.12,4.21,45.31,45.31,0,0,1-3.2,7.46c-2.31,4.3-4.47,7.05-4.86,6.66a17.75,17.75,0,0,1-3.1,6c-0.66.95-1.34,1.85-2,2.84a29.83,29.83,0,0,0-1.94,3.33c0.66-2.22-.33-0.95-2,1.09s-3.89,4.76-5.67,5.76c0.55-.42-1.51,2.1-3.92,5.86a26.42,26.42,0,0,0-3.09,6.33,10,10,0,0,0-.14,6.18l-3-2.59a25.33,25.33,0,0,0,6.69-.3,23.89,23.89,0,0,0,4.51-1.22,12.76,12.76,0,0,0,1.83-.89,1.93,1.93,0,0,1,.24-0.13l0.54-.46h0l-0.13.13,0,0,0,0,0.06-.07,0.13-.13,0.21-.24a2.09,2.09,0,0,0,.42-1,3.72,3.72,0,0,0-.17-1.54,8.44,8.44,0,0,0-.34-1l-0.2-.46-0.28-.56c-0.42-.69-0.79-1.39-1.25-2.06a34.64,34.64,0,0,0-6.19-6.83,25.64,25.64,0,0,0-6.23-4c-3.32-3.2-7-6.37-10.59-9.75a72.27,72.27,0,0,1-10.38-11.44,37.63,37.63,0,0,1-6.45-14.92,31.68,31.68,0,0,1,1.64-16.57l0.9-2.36,2.63,0.21a33.54,33.54,0,0,1,13.77,3.81,17.07,17.07,0,0,1,6.08,5.44c0.24,0.39.47,0.83,0.68,1.25a5,5,0,0,1,.21.46l0.15,0.37,0.07,0.18,0.09,0.28v0l0,0.07,0,0.14,0.15,0.58a9.59,9.59,0,0,1,.22,1.18,13,13,0,0,1-.24,4.54,24.36,24.36,0,0,1-3,6.89c-1.16,1.95-2.25,3.6-3.35,5.34q-3.29,5.15-6.53,10.1c-0.4-.81-1.77,1.21-2.39,1-1.09,2.87-5.05,9.07-9.75,16l-3.6,5.31a43.73,43.73,0,0,0-3.07,5.15,11.83,11.83,0,0,0-1.34,4.61,6.18,6.18,0,0,0,1,3.57l-1.9-1.45a11,11,0,0,0,4.24.31,1,1,0,0,0,1.08-.63c0.09-.26,0-0.48.31-0.54,0,0-.11,1.36-0.16,2.71s-0.24,2.7-.24,2.7a8.47,8.47,0,0,0-2.29-.48,20.81,20.81,0,0,1-4-.81l0,0a10.54,10.54,0,0,1-1.51-4.79,14.42,14.42,0,0,1,1.14-6c1.65-4.16,4.57-8.29,7.32-12.72,5.62-8.81,11.93-18.24,18.13-25.61a12.47,12.47,0,0,1,1.45-3.58l1.13-1.83a23.47,23.47,0,0,0,1.69-3.38,10.38,10.38,0,0,0,0,2.09,13.76,13.76,0,0,0,2.35-7.35,7.51,7.51,0,0,0-1.16-3.8,11,11,0,0,0-2.71-2.82,20.56,20.56,0,0,0-7-3.23,33.44,33.44,0,0,0-7.55-1.1l0.62-.38a27.41,27.41,0,0,0-.62,15.56,39.54,39.54,0,0,0,6.85,13.68,15.18,15.18,0,0,0,1.05,1.34l0.7,0.82,0.37,0.43,0.44,0.47c1.23,1.31,2.64,2.73,4.41,4.3,3.48,3.18,8,6.76,12.74,10.76s9.58,8.48,12.78,13.86a14,14,0,0,1,1.85,4.29,6.5,6.5,0,0,1-.52,4.57,7.21,7.21,0,0,1-1.33,1.69,9,9,0,0,1-.78.62,8.63,8.63,0,0,1-.85.53,14.15,14.15,0,0,1-3.31,1.28,26.08,26.08,0,0,1-12.26,2l-0.42,0-0.14-.45a14.48,14.48,0,0,1-.45-6.49,23,23,0,0,1,2.14-6.12,64.15,64.15,0,0,1,7.21-10.36c2.62-3.22,5.31-6.33,7.69-9.56s4.77-6.63,6.93-10.06a72.28,72.28,0,0,0,5.61-10.57,30.11,30.11,0,0,0,2.53-11.13,8.59,8.59,0,0,0-.06-1.38c0-.46-0.05-0.92-0.13-1.37a25.75,25.75,0,0,0-.61-2.63,4.46,4.46,0,0,0-1.9-2.55c-0.13-.1-0.38-0.23-0.45-0.28a6.51,6.51,0,0,0-.6-0.29,12.09,12.09,0,0,0-2.46-.72,16.18,16.18,0,0,0-2.68-.28,7.92,7.92,0,0,0-4.61,1,4.09,4.09,0,0,0-.75.7l-0.18.22-0.09.12,0,0.06,0-.06,0,0-0.41.64-0.81,1.27-0.54,1.16-0.28.57c-0.08.2-.14,0.42-0.21,0.63l-0.42,1.27-0.25,1.31-0.13.66,0,0.67a16.78,16.78,0,0,0,.44,5.33,21.54,21.54,0,0,0,.86,2.59l0.52,1.27,0.65,1.22a32.3,32.3,0,0,0,7,8.65l2.17,1.81,2.27,1.68,4.81,3.29c6.41,4.39,12.9,8.64,18.61,14.08l1.06,1,1,1.1a30.73,30.73,0,0,1,3.66,4.86c0.28,0.43.48,0.93,0.73,1.4a11.45,11.45,0,0,1,.66,1.45,15.46,15.46,0,0,1,.87,3.15l0.13,0.82,0.06,0.41v0.05c0,0.15,0-.27,0,0.36v0.26a4,4,0,0,1-.09.61,7.16,7.16,0,0,1-.19.73c-0.11.3-.22,0.6-0.34,0.89a15.35,15.35,0,0,1-4.05,5.27c-1.42.92-1.84,0.55-2.29,0.35a1.5,1.5,0,0,0-.9-0.18,3.63,3.63,0,0,0-.75.18,9.28,9.28,0,0,0-1.14.38,8.94,8.94,0,0,0-2,.85c-0.19.18,0.05,0.34,0.57,0.43a7.24,7.24,0,0,0,4.28-1,15.58,15.58,0,0,1-4.34,1.68,18.27,18.27,0,0,1-5.53.25h-0.11l-0.16,0a10,10,0,0,1-4.26-2.08,7.68,7.68,0,0,1-1.67-2.16,8.13,8.13,0,0,1-.77-2.54,12.75,12.75,0,0,1,.34-4.7,25.16,25.16,0,0,1,1.43-4.11,51.21,51.21,0,0,1,4.15-7.4l4.54-7,18.91-29.07a14.6,14.6,0,0,0,2.31-5.67,5,5,0,0,0,0-1.25,3.9,3.9,0,0,0-.13-0.6l0-.07v0h0l0.07,0.19h0l0-.06-0.09-.23-0.18-.47c-0.11-.19-0.18-0.27-0.25-0.42l-0.42-.61a12.67,12.67,0,0,0-1.07-1.23,16.85,16.85,0,0,0-5.79-3.8,13,13,0,0,0-6.53-.88l1.49-.73a4.49,4.49,0,0,0-1.1,1.94,13.12,13.12,0,0,0-.53,3,29,29,0,0,0,.33,6.28,63.27,63.27,0,0,0,2.67,10.5c1,1,2.4,2.94,4.05,5,0.82,1,1.73,2.06,2.68,3l1.53,1.61,1.46,1.48c3.94,3.9,7.15,7.14,5.43,6.32a56.31,56.31,0,0,1,5.7,3.82,92.87,92.87,0,0,1,8.12,6.67,41.23,41.23,0,0,1,7.46,8.93,14.55,14.55,0,0,1,2.1,5.19,7.31,7.31,0,0,1,0,2.72,5.91,5.91,0,0,1-1,2.2,6.58,6.58,0,0,1-1.35,2.13,8.26,8.26,0,0,1-1,.91c-0.36.3-.71,0.54-1.08,0.82a23.19,23.19,0,0,1-4.94,2.51,20.77,20.77,0,0,1-5.57,1.29,9.35,9.35,0,0,1-5.68-1.13l-0.63-.39-0.12-.61c-0.17-.88-0.35-1.69-0.44-2.44l0-2c0.11-1.14.25-1.89,0.28-2.16s0.08-.56.15-1.13a12.34,12.34,0,0,1,.4-2.11L3073,3436a13.45,13.45,0,0,1,.51-1.25c0.19-.41.38-0.84,0.6-1.23s0.47-.75.72-1.1a4.94,4.94,0,0,1,.7-0.69c0.34-.27.76-0.56,1.16-0.85,0.8-.58,1.59-1.07,1.72-1.24,1.66-2.32,1-1.81.25-1.29s-1.63,1.14-.31-1a77.88,77.88,0,0,1,7.78-9.83c2.82-3.21,5.75-6.75,8.54-10.4a62.63,62.63,0,0,0,7.23-11.57,32.45,32.45,0,0,0,1.21-3.07c0.17-.52.35-1,0.49-1.54l0.36-1.55a10.67,10.67,0,0,0,.26-1.54c0.06-.51.13-1,0.17-1.52s0-1,0-1.49l0-.73-0.1-.71a11.27,11.27,0,0,0,.4-1.72q0.1-.86.15-1.73c0-.57-0.08-1.13-0.14-1.71a5.4,5.4,0,0,0-.13-0.86,7.35,7.35,0,0,0-.2-0.76c-0.56-1.89-2.38-3-4.86-3.39a14.77,14.77,0,0,0-3.83-.13,7.71,7.71,0,0,0-3.45,1.05,3.64,3.64,0,0,0-1,1.09l-1.15,2.1c-0.2.39-.27,0.7-0.42,1.05a7.93,7.93,0,0,0-.38,1.06,14.81,14.81,0,0,0-.54,2.43q-1.45-.1-2.9-0.12a1.59,1.59,0,0,1,.47.68,3.29,3.29,0,0,1,.27.89,6.68,6.68,0,0,1,.07,1c0,0.36.07,0.74,0.09,1.11l0.1,1.11a8.24,8.24,0,0,0,.29,1,1.65,1.65,0,0,0,1,1.19,2.54,2.54,0,0,0-.19-1.81,6.35,6.35,0,0,1-.34-1.43c0-.28-0.09-0.59-0.12-0.92a9.17,9.17,0,0,1,.07-1.06,4.52,4.52,0,0,1,.56,1.27,13.44,13.44,0,0,1,.43,1.77c0.32,1.31.59,2.87,1.05,4.4,0.11,0.38.21,0.77,0.3,1.16l0.36,1.11c0.11,0.36.21,0.72,0.3,1.07s0.23,0.65.32,1a11.4,11.4,0,0,1,.37,1.59,1.35,1.35,0,0,1,0,.92,6,6,0,0,0,2.37,2c0.42,0.11.42-.29,0-1.08a30.57,30.57,0,0,0,7.57,7.19c3.16,2.11,6.14,3.73,7.51,3.67,0.68,1.68,2.87,2.72,4.94,3.88s4,2.42,4.16,4.34a19.07,19.07,0,0,1,5.43,3.05,31.79,31.79,0,0,1,6.83,6.78c0.51,0.75,1,1.55,1.49,2.34s0.85,1.72,1.19,2.63l0.43,1.41a6.92,6.92,0,0,1,.33,1.44l0.19,1.47,0,0.36v0.14c0,0.2,0-.43,0,0.45h0v0l0,0.14,0,0.14,0,0.15,0,0.24a6.37,6.37,0,0,1-.28.92,9.12,9.12,0,0,1-.46.91c-0.15.23-.3,0.47-0.45,0.68-0.29.4-.59,0.76-0.88,1.09a20.39,20.39,0,0,1-1.74,1.71,20.72,20.72,0,0,1-1.76,1.37c-0.32.21-.61,0.41-1,0.61a6.14,6.14,0,0,1-1.58.65l0.55-.2a6,6,0,0,1-.7.24l-0.56.14c-0.36.08-.69,0.14-1,0.18a9.07,9.07,0,0,1-1.57.08,12.72,12.72,0,0,1-7.85.2l-0.49-.13-0.41-.32a17.91,17.91,0,0,1-1.54-1.29c-0.24-.28-0.47-0.56-0.7-0.86a4.47,4.47,0,0,1-.62-1c-0.18-.35-0.35-0.71-0.51-1.07a10,10,0,0,1-.32-1.14,10.43,10.43,0,0,1-.27-2.33,23.75,23.75,0,0,1,2.23-8.56,11,11,0,0,0-.79,2.9c0,0.46.15,0.39,0.47-.06,0.62-.91,1.95-3.23,3.78-5.93-0.46-.15-1.67,2-2.54,3.41-0.62-2.3,2-4.31,4.28-7,0.66-3.73,6.92-13.33,14.15-23.85l5.53-8,2.75-4a34,34,0,0,0,2.22-3.59,9.46,9.46,0,0,0,1-3,4.36,4.36,0,0,0,0-1.11,1.08,1.08,0,0,0,0-.25l0-.12v-0.09h0l0.08,0.23v0l-0.18-.49-0.09-.24a0.12,0.12,0,0,0,0-.06,6.85,6.85,0,0,0-.53-0.73,7.35,7.35,0,0,0-.91-0.91,11.84,11.84,0,0,0-2.23-1.46c-2-1.27-2.52-1.53-2.27-1.76s1.1-.28,1.38-0.8l-5.28-1.12c0.92,0.56,1.73,1.23,1.54,1.85a38,38,0,0,0-5.62-.91l4.3-2.62A25.35,25.35,0,0,0,3133,3391a39,39,0,0,0,6.58,10.06c0.37,0.41.76,0.87,1.13,1.25l1.11,1.16c0.74,0.78,1.59,1.57,2.39,2.36,1.67,1.57,3.41,3.14,5.25,4.73,2.56,2.24,5.59,4.68,8.84,7.48a68.36,68.36,0,0,1,9.92,10c0.41,0.49.76,1.06,1.14,1.6l0.56,0.83c0.24,0.37.32,0.52,0.52,0.86a13.22,13.22,0,0,1,1.65,4.45,8.49,8.49,0,0,1-1,5.56,9.54,9.54,0,0,1-1.7,2.17c-0.13.12-.18,0.2-0.38,0.36l-0.57.47c-0.42.34-.7,0.49-1.05,0.74a24.67,24.67,0,0,1-8.29,3.11,29.53,29.53,0,0,1-8.72.4l-2.42-.25-0.53-2.28c-0.21-.88-0.42-1.77-0.57-2.67s-0.13-1.82-.1-2.71a26.07,26.07,0,0,1,.33-2.62c0.21-.82.37-1.69,0.66-2.46a32.24,32.24,0,0,1,4.31-8.2,150.06,150.06,0,0,1,10.06-12.17c3-3.5,5.81-7,8.25-10.07l6.27-7.86a59.1,59.1,0,0,0,3.42-8.67,25.16,25.16,0,0,0,1.11-9.27,13,13,0,0,0-.37-2.3l-0.11-.57-0.16-.56a6.2,6.2,0,0,0-.35-0.9,3.6,3.6,0,0,0-1-1.26,4.29,4.29,0,0,0-.37-0.27l-0.21-.13-0.11-.06-0.05,0,0.06,0h0l0,0a6.58,6.58,0,0,0-1-.44,14.78,14.78,0,0,0-4.76-.81,7,7,0,0,0-4.08,1,3.59,3.59,0,0,0-.65.62l-0.17.21,0,0.06,0,0,0.07-.11v0l-0.1.16-0.41.63c-0.26.42-.56,0.86-0.8,1.26L3166,3377c-0.08.19-.19,0.36-0.26,0.56l-0.2.63c-0.13.42-.3,0.83-0.4,1.26a15.33,15.33,0,0,0-.39,2.64,16,16,0,0,0,0,2.71c0.05,0.46.16,0.91,0.24,1.37l0.12,0.69,0.21,0.68a21.91,21.91,0,0,0,2.33,5.31,34.86,34.86,0,0,0,8.41,9.06c0.86,0.64,1.75,1.25,2.63,1.87l2.88,1.88,5.88,3.78c-3.52-.63-0.44,1.13,3.75,3.66a66.5,66.5,0,0,1,6.37,4.3,20.08,20.08,0,0,1,2.46,2.2,5.56,5.56,0,0,1,1.3,1.85,9,9,0,0,1,1.75,1.06,22.52,22.52,0,0,1,2.17,2,20.27,20.27,0,0,1,4.43,7.46l0.39,1.31c0.1,0.46.15,0.94,0.22,1.43l0.09,0.73,0,0.37v0.14h0v0.42l0,0.15,0,0.15v0.09l0,0.19c0,0.25-.1.51-0.17,0.76l-0.11.37-0.09.21-0.18.42a12.88,12.88,0,0,1-1.74,2.78,16.11,16.11,0,0,1-2.27,2.3,15.68,15.68,0,0,1-6,3.07,17.05,17.05,0,0,1-6.87.3l-0.24,0-0.05,0A12,12,0,0,1,3190,3446a8.06,8.06,0,0,1-2.39-2.09,7.29,7.29,0,0,1-1.31-3,9.43,9.43,0,0,1-.1-2.92,17.72,17.72,0,0,1,1.43-5,35.93,35.93,0,0,1,2.25-4.3c0.82-1.36,1.71-2.67,2.6-3.92l2.6-3.68c1.7-2.43,3.34-4.82,4.88-7.12,5.65-8.46,10-16.67,13.88-23.4,2-3.33,3.51-6.16,3.93-8.28a8.19,8.19,0,0,0,.19-1.5c0-.24,0-0.48,0-0.72v-0.07l0.06,0.16h0v0l0-.13-0.05-.25-0.09-.49a4.55,4.55,0,0,1-.1-0.6c-0.08-.25-0.16-0.51-0.22-0.78-0.18-.51-0.31-1.06-0.5-1.58-1.94-1.13-3.56-2.21-5.69-3.22a14.34,14.34,0,0,0-3.63-1.21,10.57,10.57,0,0,0-4.62.09l1.13-.56c-0.08.14-.2,0.25-0.28,0.43a1.06,1.06,0,0,0,.08-0.65l-1,.48c0.06,0,.05-0.08,0-0.11l0.92-.45c-0.17-.05-0.81.31-1.34,1.43a10.9,10.9,0,0,0-.79,4.79,22.49,22.49,0,0,0,2.57,9.66c0.7,2.68-.44,0-0.87.42a36.17,36.17,0,0,0,3.52,7.18,41.12,41.12,0,0,0,2.41,3.37l2.28,2.93,0.38,0.47,0.42,0.5,1,1.22c0.77,0.86,1.59,1.84,2.74,3a2.36,2.36,0,0,1-1.57-1.17c-0.3-.36-0.65-0.79-1.07-1.26a19.06,19.06,0,0,0-1.56-1.62c1.11,3.75,6.84,6.36,9.66,9.94-0.66-1.49,3,.93,7.12,4.28a63.12,63.12,0,0,1,5.94,5.49,18.8,18.8,0,0,1,3.39,4.66c1.61,1.72,1.71.63,2.3,0.45a41.7,41.7,0,0,1,3.73,6.36,10.51,10.51,0,0,1,1,4.62,7.66,7.66,0,0,1-2.14,4.87l-0.05.06-0.1.11,0,0-0.1.09-0.19.18a5.06,5.06,0,0,1-.44.38,13.09,13.09,0,0,1-1.07.79,21.15,21.15,0,0,1-2.06,1.22,28.92,28.92,0,0,1-4.42,1.88,22.53,22.53,0,0,1-5,1.08,9.89,9.89,0,0,1-5.92-1.07l-0.68-.39-0.26-.87a16,16,0,0,1-.36-7.38,23.91,23.91,0,0,1,2.49-6.68,65.73,65.73,0,0,1,7.72-10.7c2.71-3.21,5.4-6.17,7.7-9.09l6.73-8.41c0.54-.67,3-2.16,3.37-2.73,2.08-3.51-1.82,1-1.89,1.29,0.17-1.21,1.33-3.55,2.78-6.67,0.36-.78.75-1.6,1.11-2.48l0.57-1.34,0.52-1.41c0.4-.95.64-2,1-3,0.14-.51.25-1,0.38-1.55l0.19-.79,0.12-.8a18.53,18.53,0,0,0,.06-6.45,16.13,16.13,0,0,0-.31-1.58,6.56,6.56,0,0,0-.46-1.25,4.3,4.3,0,0,0-1.66-1.71l-0.07,0,0,0,0.06,0h0l-0.2-.1-0.34-.17c-0.15-.08-0.36-0.16-0.6-0.25a12,12,0,0,0-1.41-.43,15.42,15.42,0,0,0-2.89-.42,11.64,11.64,0,0,0-2.61.15,4.71,4.71,0,0,0-.56.12l-0.24.06-0.31.1a4.57,4.57,0,0,0-.82.39,3.77,3.77,0,0,0-.92.8l-0.21.27-0.11.15,0,0v0h0l0.06-.09-0.06.1-0.49.81a16,16,0,0,0-1.51,3.07,14.68,14.68,0,0,0-.76,6.8c0.54,4.67,3.13,9.16,6.53,12.78a41.5,41.5,0,0,0,5.54,5c1.94,1.44,4.14,2.9,6.19,4.31,4.13,2.83,8,5.6,11.38,8.4-1.73-.12-0.8.87,0.55,2.09s3.12,2.69,3.16,3.36c1.47,1.41,1.6,1.06,1.2.2a11.19,11.19,0,0,0-.89-1.5,8.65,8.65,0,0,0-1.07-1.23c0-.24.58,0.14,1.4,0.79a26.37,26.37,0,0,1,2.62,2.59,8,8,0,0,1,1.53,2.19c0.08,0.4-.27.22-1.54-0.7a27.42,27.42,0,0,1,4.25,4.06,26,26,0,0,1,1.59,2.21,27.52,27.52,0,0,1,1.27,2.5l0.46,1.42,0.22,0.73c0.06,0.25.09,0.52,0.13,0.79l0.22,1.65c0,0.21,0,.27,0,0.42s0,0.35,0,.52a7.79,7.79,0,0,1-.11,1,6.68,6.68,0,0,1-2.35,4.06,9,9,0,0,1-2.06,1.28,14,14,0,0,1-2.27.78,3.64,3.64,0,0,0,1.15-1c0.06-.22-0.31-0.17-1.55.13-0.09-.16.6-0.47,1.46-0.93a8.43,8.43,0,0,0,2.45-1.85c0.58-.69.77-1.24,0.6-1a8.07,8.07,0,0,1-.74.82,7.17,7.17,0,0,1-2.29,1.43c0-.34,1.28-1.05,2.1-2s1.11-2.21,1.43-2.25c-0.2-.92-0.46-1-0.61-0.66a10.92,10.92,0,0,1-.75,1.75,4.88,4.88,0,0,1-2.09,1.73A10.08,10.08,0,0,1,3275.34,3441.49Zm-137.73-46.83c-3.31,4.19-6,8.23-7.13,11.81C3133.75,3403.56,3140,3389.87,3137.62,3394.66Z" transform="translate(-2656.63 -3297.63)"/><path class="cls-3" d="M3093.53,3398.75c-0.31-.48-0.67-1.16-1.29-2A20.81,20.81,0,0,0,3093.53,3398.75Z" transform="translate(-2656.63 -3297.63)"/><path class="cls-2" d="M2895.79,3389.13h0l0,0.05Z" transform="translate(-2656.63 -3297.63)"/><path class="cls-2" d="M2895.54,3384.82c-0.52-2.34-.77-2.09-0.8-0.81a13.43,13.43,0,0,0,1.06,5.11A14.21,14.21,0,0,1,2895.54,3384.82Z" transform="translate(-2656.63 -3297.63)"/><path class="cls-2" d="M2826.25,3406.47c3.26-2.91,9.53-16.6,7.13-11.81C2830.07,3398.85,2827.42,3402.89,2826.25,3406.47Z" transform="translate(-2656.63 -3297.63)"/><path class="cls-3" d="M2971.1,3441.49a10.36,10.36,0,0,0,2.24-.89,4.8,4.8,0,0,0,1.4-1.16,3.36,3.36,0,0,0,.55-2.65l-0.29-1.41a2.35,2.35,0,0,0-.19-0.65l-0.23-.61a14.61,14.61,0,0,0-1-2.15c-0.71-1.3-1.44-2.43-2.27-3.71s-1.81-2.69-3.13-4.54c-5.86-4.87-12.94-9.22-19.27-13.65a50.86,50.86,0,0,1-8.61-7.07,25.84,25.84,0,0,1-5.15-7.64,19.5,19.5,0,0,1-4.36-10.91,15.16,15.16,0,0,1,.55-5.11,11.47,11.47,0,0,1,1.66-3.48,6.58,6.58,0,0,1,.38-2.06c0.11-.32.24-0.65,0.39-1l0.22-.49,0.06-.12,0-.06v0l0.08-.12,0.17-.27a6.79,6.79,0,0,1,2-2,7.51,7.51,0,0,1,1.22-.65c0.2-.09.43-0.17,0.66-0.25l0.25-.08,0.17,0,0.15,0a17.8,17.8,0,0,1,4.07-.44c1.06,0,1.78-.08,2-0.43,1,0.35,2,.72,3.09,1.2,0.54,0.25,1,.48,1.66.83,0.32,0.18.41,0.26,0.79,0.5s0.53,0.38.79,0.59a8.3,8.3,0,0,1,2.47,3.32,13.16,13.16,0,0,1,.6,1.91l0.4,1.94a29,29,0,0,1,.07,8.11,45.55,45.55,0,0,1-1.91,7.91,63.33,63.33,0,0,1-6.24,13c-2.19,3.46-4.3,5.9-5.93,6.76-0.81,1.38-1.73,2.82-2.69,4.21s-2,2.74-3,4.07c-2.06,2.66-4.18,5.23-6.12,7.78a40.69,40.69,0,0,0-4.81,7.63,12.64,12.64,0,0,0-1.18,7.43l-0.94-1.26a5.6,5.6,0,0,0,3,1,18.49,18.49,0,0,0,3.81-.11c0-.5,1.54-1.38,3.62-2.5,1-.55,2.28-1.24,3.18-1.84a5.29,5.29,0,0,0,2.18-2.64c-0.51-.69-1.08-1.87-2.46-3.7a66,66,0,0,0-5.79-6.64c-4.88-5-11.85-10.75-17.78-17-0.08.22-1-.24-2.4-1.25-0.7-.48-1.54-1.15-2.45-1.92-0.47-.39-0.92-0.79-1.37-1.21l-0.69-.65-0.35-.33-0.09-.08-0.14-.14-0.19-.2a31.94,31.94,0,0,1-5.33-7.41,29.16,29.16,0,0,1-2.86-8l0,0.05,0-.06a14.21,14.21,0,0,1-.25-4.31c-0.52-2.34-.77-2.09-0.8-0.81a13.43,13.43,0,0,0,1.06,5.11h0a34.85,34.85,0,0,1-2.55-10,20.31,20.31,0,0,1,.23-5.67,10.5,10.5,0,0,1,3-5.79l0.68-.65,0.89-.13a16,16,0,0,1,8.34,1.08,13.15,13.15,0,0,1,4.88,3.4,8.24,8.24,0,0,1,.95.34c0.35,0.17.74,0.38,1.16,0.63s0.85,0.58,1.32.93a16,16,0,0,1,1.4,1.28c0.23,0.25.48,0.5,0.71,0.78l0.69,0.91c0.24,0.37.49,0.81,0.71,1.23,0.11,0.21.14,0.32,0.22,0.48l0.1,0.23,0,0.11,0,0.06v0l0.07,0.22a10.68,10.68,0,0,1,.25,5.48,22.43,22.43,0,0,1-4.17,8.28,48,48,0,0,1-4.05,4.9c0.71,0.56-.43,2.61-4.32,6.63-1.2,2-.11,1.78.23,2.29-4.84,7.5-8,11.45-11,15.43-1.5,2-3,4-4.64,6.43a33.19,33.19,0,0,0-2.28,4,18.6,18.6,0,0,0-1.65,5c0-1.8.18-2.71,0-2.77s-0.56.65-.92,1.85a7.15,7.15,0,0,0-.14,4.26,3.23,3.23,0,0,0,1.25,1.59,6.55,6.55,0,0,0,2.2.88l-0.22,0a16.18,16.18,0,0,0,4.9-.27,0.83,0.83,0,0,1,.78,0,1.59,1.59,0,0,1-.88.76,10.07,10.07,0,0,0,5.3-3.85,10.3,10.3,0,0,0,1-1.89,7.54,7.54,0,0,0,.29-0.81,2.73,2.73,0,0,0,.09-0.35l0-.16c0-.06,0,0,0,0s0,0.14,0-.11V3436h0c0-.26,0,0.35,0,0.29l0-.19c-0.05-.26-0.1-0.52-0.13-0.79s0-.54-0.08-0.83-0.11-.59-0.16-0.92a31,31,0,0,0-1.19-5.41c-0.44.62-1.23,0-2.43-1.27s-3-3.21-5.26-5.33a69.78,69.78,0,0,0-17.22-11.77c4,1.83-1.54-2.45,2.29-.19a12.41,12.41,0,0,0-2.59-2.13c-0.6-.42-1.34-0.89-2.21-1.56a30.84,30.84,0,0,1-3.07-2.54c0.61,1.41,3,3.48,6,5.56-0.82-.58-2.31-1.44-4.12-2.7a42.25,42.25,0,0,1-5.63-4.52,27.25,27.25,0,0,1-4.31-5.31c-1-1.64-1.42-3-1.29-3.53a2.51,2.51,0,0,1-.67-0.37,5.11,5.11,0,0,1-.64-0.68,8.35,8.35,0,0,1-1.27-2.14c-0.19-.44-0.37-0.92-0.55-1.42a16.88,16.88,0,0,1-.4-1.64,9.86,9.86,0,0,1-.27-1.8c0-.63-0.11-1.27-0.1-1.93a20.36,20.36,0,0,1,1.81-8c0.3-.63.61-1.32,0.91-1.86l0.86-1.46a10.12,10.12,0,0,1,2.82-3.24,11,11,0,0,1,4.71-1.39,18.93,18.93,0,0,1,4.23.15,19.39,19.39,0,0,1,4,1c0.32,0.13.65,0.25,1,.44a10.4,10.4,0,0,1,2.73,1.87,8.81,8.81,0,0,1,2.28,3.83c0.09,0.3.19,0.67,0.25,0.92s0.11,0.61.17,0.92l0.3,1.81a25.14,25.14,0,0,1,.05,3.56c0,0.58-.06,1.16-0.13,1.73l-0.28,1.68a41,41,0,0,1-4.46,11.86,92.17,92.17,0,0,1-6.31,9.92c-2.25,3.11-4.53,6.09-6.91,9s-5,5.7-7.43,8.6a57.55,57.55,0,0,0-6.76,9.34,20.72,20.72,0,0,0-2,5.46,12.57,12.57,0,0,0,.3,5.78l-0.81-.69a24.57,24.57,0,0,0,9.51-1,17.36,17.36,0,0,0,4.45-2.06l0.48-.34,0.37-.32c0.12-.09.31-0.31,0.46-0.46l0.12-.12v0h0l-0.06.06h0l0,0,0-.05,0.16-.21a3.63,3.63,0,0,0,.73-1.76c0.69-2.39-1.58-6-3.7-8.79a66.46,66.46,0,0,0-7.67-8.1c-5.55-5.09-11.54-9.7-16.86-14.87s-9.76-11.13-11.86-17.78a28.85,28.85,0,0,1,.6-19.27l0.25-.65,0.72,0.06a30.92,30.92,0,0,1,13.49,3.95c-0.92.21-.12,0.95,0.7,1.84s1.62,2,1.29,2.37c-0.07-.45.31-0.49,0.91-0.17a4,4,0,0,1,1,.82,6.45,6.45,0,0,1,.49.65,7.4,7.4,0,0,1,.39.73,5,5,0,0,1,.24,3.36,1.79,1.79,0,0,1-1.61,1.51,6.29,6.29,0,0,1-.53,3,11,11,0,0,1-1.6,2.5,86.45,86.45,0,0,0-6.1,7.84c6.23-4.47-13.63,22.77-17.93,28.39-1.19,2-.11,1.78.23,2.28a42.86,42.86,0,0,0-5.06,8.8,8.47,8.47,0,0,0-.62,4.08,4.48,4.48,0,0,0,1.84,3l-0.29-.14a14.28,14.28,0,0,0,4.63.72,11.35,11.35,0,0,0,4.14-.79l0.2-.07,0.09,0,0.18-.1c0.12-.06.27-0.17,0.4-0.25s0.55-.4.81-0.62a20.05,20.05,0,0,0,1.51-1.4,14.14,14.14,0,0,0,1.28-1.5,6.12,6.12,0,0,0,.48-0.75,2.55,2.55,0,0,0,.14-0.3l0-.06a1.46,1.46,0,0,0,0-.23v-0.13s0,0.24,0,.12h0v-0.09l0-.23-0.07-.46L2825,3436c-0.13-.6-0.36-1.18-0.53-1.76a16.71,16.71,0,0,0-1.65-3.24,29.06,29.06,0,0,0-4.67-5.51,61.41,61.41,0,0,0-5.66-4.75c-4-3-8.54-5.92-13.77-9.23l-4.05-2.59-2.16-1.49c-0.73-.52-1.43-1.1-2.16-1.67a38.87,38.87,0,0,1-8.22-9c1.37,1.26,1.84,1.5,1.69,1.12s-0.93-1.37-1.84-2.9a24.61,24.61,0,0,1-2.69-5.91,18.59,18.59,0,0,1-.68-7.25c0.26,1.76.95,2.3,1.78,2a16,16,0,0,1,.9-7c0.24-.6.47-1.3,0.75-1.86l0.87-1.64,0.11-.21,0.2-.32c0.1-.16.21-0.32,0.33-0.48a7.88,7.88,0,0,1,.82-0.93,8,8,0,0,1,2.1-1.46,12.54,12.54,0,0,1,4.65-1.12,19,19,0,0,1,4.65.29,15.77,15.77,0,0,1,2.37.62,10.9,10.9,0,0,1,2.44,1.18,8.88,8.88,0,0,1,2.18,2,9.15,9.15,0,0,1,1.4,2.58,22.26,22.26,0,0,1,.89,9.78,31.38,31.38,0,0,1-2.64,9,61.39,61.39,0,0,1-9.5,14.53c-0.86,1.81-.15,2.21-2.59,5.35-0.54-.75-1.48.33-3.28,2.82s-4.65,6.2-8.39,10.84a46.16,46.16,0,0,0-5.72,8.72,16.9,16.9,0,0,0-1.53,4.79,11.53,11.53,0,0,0,.36,4.76l-0.88-1.18a5,5,0,0,0,2.33.45,12.52,12.52,0,0,0,3-.4,23.72,23.72,0,0,0,6.06-2.4c0.47-.27.91-0.55,1.32-0.84,0.22-.15.31-0.25,0.48-0.36a2.15,2.15,0,0,0,.29-0.26l0.33-.32,0,0-0.1.1h0l0-.06,0.09-.12a1.64,1.64,0,0,0,.18-0.23,2.9,2.9,0,0,0,.27-0.46,2.57,2.57,0,0,0,.27-0.91,4.72,4.72,0,0,0-.44-2.28,12.31,12.31,0,0,0-.66-1.32l-0.23-.4-0.21-.32-0.47-.7a37.14,37.14,0,0,0-4.43-5.33c-1.64-1.71-3.43-3.34-5.27-4.95-3.67-3.22-7.56-6.34-11.35-9.65-1.74-1.51-3.43-3.07-5.07-4.66-0.8-.83-1.68-1.67-2.4-2.48l-1.1-1.22c-0.44-.48-0.77-0.91-1.15-1.36a44.87,44.87,0,0,1-9-23.42,23.77,23.77,0,0,1,.26-5.79,9.89,9.89,0,0,1,2.57-5.39l0.32-.31,0.48-.08a19.24,19.24,0,0,1,9,.74,28.27,28.27,0,0,1,7.11,3.39c-0.55.11,0.09,0.9,1.1,2.21a17.89,17.89,0,0,1,1.64,2.54l0.21,0.43,0.1,0.22,0.06,0.17,0.13,0.34,0.06,0.17,0,0.09,0,0,0,0.13h0v0l0.21,0.9c0,0.31.08,0.61,0.12,0.92a10.41,10.41,0,0,1-1.37,5.88c-0.74,1.23-1.35,1.64-1.55.83a38.69,38.69,0,0,1-2.83,6.32q-1.66,3.14-3.63,6.41c-2.61,4.37-5.57,8.93-8.78,13.73l-5,7.39-2.59,3.84-1.32,2q-0.64,1-1.25,1.94a25.78,25.78,0,0,0-3.58,8.31,5,5,0,0,0,.38,3.49,4.3,4.3,0,0,0,2.91,1.64l-0.27,0a11.59,11.59,0,0,0,5-.67c1.12-.31,1.14-0.23.92,0s-0.7.65-.51,0.86a11.66,11.66,0,0,0,4.61-3,11.25,11.25,0,0,0,1.62-2.28,4.63,4.63,0,0,0,.27-0.59c0-.08.09-0.21,0.1-0.26a0.06,0.06,0,0,1,0-.05,0.24,0.24,0,0,0,0-.14l0-.21V3437c0-.06,0,0.39,0,0.19v0l0-.09,0-.18-0.12-.71a13.81,13.81,0,0,0-2.28-5.45l-0.41-.65-0.48-.62-1-1.25c-0.74-.78-1.4-1.61-2.21-2.35a84.32,84.32,0,0,0-10.22-8.32c-3.6-2.56-7.24-5-10.77-7.35-0.88-.61-1.73-1.16-2.62-1.8s-1.76-1.25-2.58-1.93a45.92,45.92,0,0,1-4.6-4.22,32.15,32.15,0,0,1-6.37-9.53,21.46,21.46,0,0,1-1.74-9.52,16.44,16.44,0,0,1,.23-2.05l0.41-1.84c0.17-.57.39-1.09,0.57-1.59a8.33,8.33,0,0,1,.61-1.38c0.15-.63.35-1.29,0.57-1.95s0.49-1.1.75-1.65l0.21-.41,0.11-.21,0.24-.37a8.43,8.43,0,0,1,.77-1,8,8,0,0,1,2.15-1.69,9.39,9.39,0,0,1,1.27-.56c0.23-.08.24-0.09,0.57-0.19l0.62-.16a14,14,0,0,1,2.42-.33,19.25,19.25,0,0,1,4.67.37,18.35,18.35,0,0,1,2.31.6c0.4,0.13.75,0.26,1.2,0.45,0.2,0.09.49,0.21,0.62,0.29l0.23,0.12,0.11,0.06,0.21,0.12a10.48,10.48,0,0,1,2.21,1.65,9.25,9.25,0,0,1,1.7,2.32,16,16,0,0,1,1,2.34l0.65,2.22c0.34,1.48.7,3,.9,4.43,0,1.36-.36,1.83-0.66,2s-0.64.12-.95,0.29a29.53,29.53,0,0,1-.48,4.24,39.35,39.35,0,0,1-1.12,4.21,45.31,45.31,0,0,1-3.2,7.46c-2.31,4.3-4.47,7.05-4.86,6.66a17.75,17.75,0,0,1-3.1,6c-0.66.95-1.34,1.85-2,2.84a29.83,29.83,0,0,0-1.94,3.33c0.66-2.22-.33-0.95-2,1.09s-3.89,4.76-5.67,5.76c0.55-.42-1.51,2.1-3.92,5.86a26.44,26.44,0,0,0-3.09,6.33,10,10,0,0,0-.14,6.18l-3-2.59a25.33,25.33,0,0,0,6.69-.3,23.9,23.9,0,0,0,4.51-1.22,12.76,12.76,0,0,0,1.83-.89,1.91,1.91,0,0,1,.24-0.13l0.54-.46h0l-0.13.13,0,0,0,0,0.06-.07,0.13-.13,0.21-.24a2.09,2.09,0,0,0,.42-1,3.72,3.72,0,0,0-.17-1.54,8.44,8.44,0,0,0-.34-1l-0.2-.46-0.28-.56c-0.42-.69-0.79-1.39-1.25-2.06a34.62,34.62,0,0,0-6.19-6.83,25.64,25.64,0,0,0-6.23-4c-3.32-3.2-7-6.37-10.59-9.75a72.26,72.26,0,0,1-10.38-11.44,37.63,37.63,0,0,1-6.45-14.92,31.68,31.68,0,0,1,1.64-16.57l0.9-2.36,2.63,0.21a33.54,33.54,0,0,1,13.77,3.81,17.07,17.07,0,0,1,6.08,5.44c0.24,0.39.47,0.83,0.68,1.25a5,5,0,0,1,.21.46l0.15,0.37,0.07,0.18,0.09,0.28v0l0,0.07,0,0.14,0.15,0.58a9.55,9.55,0,0,1,.22,1.18,13,13,0,0,1-.24,4.54,24.36,24.36,0,0,1-3,6.89c-1.16,1.95-2.25,3.6-3.35,5.34q-3.29,5.15-6.53,10.1c-0.4-.81-1.77,1.21-2.39,1-1.09,2.87-5.05,9.07-9.75,16l-3.6,5.31a43.73,43.73,0,0,0-3.07,5.15,11.82,11.82,0,0,0-1.34,4.61,6.18,6.18,0,0,0,1,3.57l-1.9-1.45a11,11,0,0,0,4.24.31,1,1,0,0,0,1.08-.63c0.1-.26,0-0.48.31-0.54,0,0-.11,1.36-0.16,2.71s-0.24,2.7-.24,2.7a8.46,8.46,0,0,0-2.29-.48,20.82,20.82,0,0,1-4-.81l0,0a10.54,10.54,0,0,1-1.51-4.79,14.42,14.42,0,0,1,1.14-6c1.65-4.16,4.57-8.29,7.32-12.72,5.62-8.81,11.93-18.24,18.13-25.61a12.48,12.48,0,0,1,1.45-3.58l1.13-1.83a23.47,23.47,0,0,0,1.69-3.38,10.38,10.38,0,0,0,0,2.09,13.76,13.76,0,0,0,2.35-7.35,7.51,7.51,0,0,0-1.16-3.8,11,11,0,0,0-2.71-2.82,20.56,20.56,0,0,0-7-3.23,33.44,33.44,0,0,0-7.55-1.1l0.62-.38a27.41,27.41,0,0,0-.62,15.56,39.53,39.53,0,0,0,6.85,13.68,15.18,15.18,0,0,0,1.05,1.34l0.7,0.82,0.37,0.43,0.44,0.47c1.23,1.31,2.64,2.73,4.41,4.3,3.48,3.18,8,6.76,12.74,10.76s9.58,8.48,12.78,13.86a14,14,0,0,1,1.85,4.29,6.51,6.51,0,0,1-.52,4.57,7.21,7.21,0,0,1-1.33,1.69,9,9,0,0,1-.78.62,8.61,8.61,0,0,1-.85.53,14.14,14.14,0,0,1-3.31,1.28,26.08,26.08,0,0,1-12.26,2l-0.42,0-0.14-.45a14.48,14.48,0,0,1-.45-6.49,23,23,0,0,1,2.14-6.12,64.16,64.16,0,0,1,7.21-10.36c2.62-3.22,5.31-6.33,7.69-9.56s4.77-6.63,6.93-10.06a72.26,72.26,0,0,0,5.61-10.57,30.1,30.1,0,0,0,2.53-11.13,8.62,8.62,0,0,0-.06-1.38c0-.46-0.05-0.92-0.13-1.37a25.68,25.68,0,0,0-.61-2.63,4.47,4.47,0,0,0-1.9-2.55c-0.13-.1-0.38-0.23-0.45-0.28a6.51,6.51,0,0,0-.6-0.29,12.08,12.08,0,0,0-2.46-.72,16.18,16.18,0,0,0-2.68-.28,7.92,7.92,0,0,0-4.61,1,4.09,4.09,0,0,0-.75.7l-0.18.22-0.09.12,0,0.06,0-.06,0,0-0.41.64-0.81,1.27-0.54,1.16-0.28.57c-0.08.2-.14,0.42-0.21,0.63l-0.42,1.27-0.25,1.31-0.13.66,0,0.67a16.76,16.76,0,0,0,.44,5.33,21.58,21.58,0,0,0,.86,2.59l0.52,1.27,0.65,1.22a32.3,32.3,0,0,0,7,8.65l2.17,1.81,2.27,1.68,4.81,3.29c6.41,4.39,12.9,8.64,18.61,14.08l1.06,1,1,1.1a30.73,30.73,0,0,1,3.66,4.86c0.28,0.43.48,0.93,0.73,1.4a11.48,11.48,0,0,1,.66,1.45,15.45,15.45,0,0,1,.87,3.15l0.13,0.82,0.06,0.41v0.05c0,0.15,0-.27,0,0.36v0.26a4,4,0,0,1-.09.61,7.16,7.16,0,0,1-.19.73c-0.11.3-.22,0.6-0.34,0.89a15.36,15.36,0,0,1-4,5.27c-1.42.92-1.84,0.55-2.29,0.35a1.5,1.5,0,0,0-.9-0.18,3.64,3.64,0,0,0-.75.18,9.3,9.3,0,0,0-1.14.38,8.94,8.94,0,0,0-2,.85c-0.19.18,0.05,0.34,0.57,0.43a7.24,7.24,0,0,0,4.28-1,15.58,15.58,0,0,1-4.34,1.68,18.27,18.27,0,0,1-5.53.25h-0.11l-0.16,0a10,10,0,0,1-4.26-2.08,7.68,7.68,0,0,1-1.67-2.16,8.13,8.13,0,0,1-.77-2.54,12.74,12.74,0,0,1,.34-4.7,25.14,25.14,0,0,1,1.43-4.11,51.2,51.2,0,0,1,4.15-7.4l4.54-7,18.91-29.07a14.6,14.6,0,0,0,2.31-5.67,5,5,0,0,0,0-1.25,3.9,3.9,0,0,0-.13-0.6l0-.07v0h0l0.07,0.19h0l0-.06-0.09-.23-0.18-.47c-0.11-.19-0.18-0.27-0.25-0.42l-0.42-.61a12.63,12.63,0,0,0-1.07-1.23,16.85,16.85,0,0,0-5.79-3.8,13,13,0,0,0-6.53-.88l1.49-.73a4.49,4.49,0,0,0-1.11,1.94,13.12,13.12,0,0,0-.53,3,29,29,0,0,0,.33,6.28,63.3,63.3,0,0,0,2.66,10.5c1,1,2.4,2.94,4.05,5,0.82,1,1.73,2.06,2.68,3l1.53,1.61,1.46,1.48c3.94,3.9,7.15,7.14,5.43,6.32a56.33,56.33,0,0,1,5.7,3.82,92.87,92.87,0,0,1,8.12,6.67,41.21,41.21,0,0,1,7.46,8.93,14.55,14.55,0,0,1,2.1,5.19,7.31,7.31,0,0,1,0,2.72,5.91,5.91,0,0,1-1,2.2,6.58,6.58,0,0,1-1.35,2.13,8.27,8.27,0,0,1-1,.91c-0.36.3-.71,0.54-1.08,0.82a23.19,23.19,0,0,1-4.94,2.51,20.77,20.77,0,0,1-5.57,1.29,9.35,9.35,0,0,1-5.68-1.13l-0.63-.39-0.12-.61c-0.17-.88-0.35-1.69-0.44-2.44l0-2c0.11-1.14.25-1.89,0.28-2.16s0.08-.56.15-1.13a12.37,12.37,0,0,1,.4-2.11l0.36-1.25a13.45,13.45,0,0,1,.51-1.25c0.19-.41.38-0.84,0.6-1.23s0.47-.75.72-1.1a5,5,0,0,1,.7-0.69c0.34-.27.76-0.56,1.16-0.85,0.8-.58,1.59-1.07,1.72-1.24,1.66-2.32,1-1.81.25-1.29s-1.63,1.14-.31-1a77.86,77.86,0,0,1,7.78-9.83c2.82-3.21,5.75-6.75,8.54-10.4a62.62,62.62,0,0,0,7.23-11.57,32.38,32.38,0,0,0,1.21-3.07c0.17-.52.35-1,0.49-1.54l0.36-1.55a10.74,10.74,0,0,0,.26-1.54c0.06-.51.13-1,0.17-1.52s0-1,0-1.49l0-.73-0.1-.71a11.3,11.3,0,0,0,.4-1.72q0.1-.86.15-1.73c0-.57-0.08-1.13-0.14-1.71a5.4,5.4,0,0,0-.13-0.86,7.35,7.35,0,0,0-.2-0.76c-0.56-1.89-2.38-3-4.86-3.39a14.77,14.77,0,0,0-3.83-.13,7.71,7.71,0,0,0-3.45,1.05,3.64,3.64,0,0,0-1,1.09l-1.15,2.1c-0.2.39-.27,0.7-0.42,1.05a7.93,7.93,0,0,0-.38,1.06,14.78,14.78,0,0,0-.54,2.43q-1.45-.1-2.9-0.12a1.58,1.58,0,0,1,.47.68,3.29,3.29,0,0,1,.27.89,6.71,6.71,0,0,1,.07,1c0,0.36.07,0.74,0.09,1.11l0.1,1.11a8.24,8.24,0,0,0,.29,1,1.65,1.65,0,0,0,1,1.19,2.54,2.54,0,0,0-.19-1.81,6.35,6.35,0,0,1-.34-1.43c0-.28-0.09-0.59-0.12-0.92a9.22,9.22,0,0,1,.07-1.06,4.51,4.51,0,0,1,.56,1.27,13.52,13.52,0,0,1,.43,1.77c0.32,1.31.59,2.87,1.05,4.4,0.11,0.38.21,0.77,0.3,1.16l0.36,1.11c0.11,0.36.21,0.72,0.3,1.07s0.23,0.65.32,1a11.4,11.4,0,0,1,.37,1.59,1.34,1.34,0,0,1,0,.92,6,6,0,0,0,2.37,2c0.42,0.11.42-.29,0-1.08a30.56,30.56,0,0,0,7.57,7.19c3.16,2.11,6.14,3.73,7.51,3.67,0.68,1.68,2.87,2.72,4.94,3.88s4,2.42,4.16,4.34a19.08,19.08,0,0,1,5.43,3.05,31.81,31.81,0,0,1,6.83,6.78c0.51,0.75,1,1.55,1.49,2.34s0.86,1.72,1.19,2.63l0.43,1.41a6.92,6.92,0,0,1,.33,1.44l0.19,1.47,0,0.36v0.14c0,0.2,0-.43,0,0.45h0v0l0,0.14,0,0.14,0,0.15,0,0.24a6.4,6.4,0,0,1-.28.92,9.12,9.12,0,0,1-.46.91c-0.15.23-.3,0.47-0.45,0.68-0.29.4-.59,0.76-0.88,1.09a20.39,20.39,0,0,1-1.74,1.71,20.68,20.68,0,0,1-1.76,1.37c-0.32.21-.61,0.41-1,0.61a6.15,6.15,0,0,1-1.58.65l0.55-.2a6,6,0,0,1-.7.24l-0.56.14c-0.36.08-.69,0.14-1,0.18a9.07,9.07,0,0,1-1.57.08,12.72,12.72,0,0,1-7.85.2l-0.49-.13-0.41-.32a18,18,0,0,1-1.54-1.29q-0.35-.41-0.7-0.86a4.45,4.45,0,0,1-.62-1c-0.18-.35-0.35-0.71-0.51-1.07a9.88,9.88,0,0,1-.32-1.14,10.43,10.43,0,0,1-.27-2.33,23.75,23.75,0,0,1,2.23-8.56,11,11,0,0,0-.79,2.9c0,0.46.15,0.39,0.47-.06,0.62-.91,1.95-3.23,3.79-5.93-0.46-.15-1.67,2-2.54,3.41-0.62-2.3,2-4.31,4.28-7,0.66-3.73,6.92-13.33,14.15-23.85l5.53-8,2.75-4a34,34,0,0,0,2.22-3.59,9.46,9.46,0,0,0,1-3,4.36,4.36,0,0,0,0-1.11,1.08,1.08,0,0,0,0-.25l0-.12v-0.09h0l0.08,0.23v0l-0.18-.49-0.09-.24a0.12,0.12,0,0,0,0-.06,6.83,6.83,0,0,0-.53-0.73,7.35,7.35,0,0,0-.91-0.91,11.84,11.84,0,0,0-2.23-1.46c-2-1.27-2.52-1.53-2.27-1.76s1.1-.28,1.38-0.8l-5.28-1.12c0.92,0.56,1.73,1.23,1.54,1.85a38,38,0,0,0-5.62-.91l4.3-2.62a25.35,25.35,0,0,0,.44,20.08,39,39,0,0,0,6.58,10.06c0.37,0.41.76,0.87,1.13,1.25l1.11,1.16c0.74,0.78,1.59,1.57,2.39,2.36,1.67,1.57,3.41,3.14,5.25,4.73,2.56,2.24,5.59,4.68,8.84,7.48a68.36,68.36,0,0,1,9.92,10c0.41,0.49.76,1.06,1.14,1.6l0.56,0.83c0.24,0.37.32,0.52,0.52,0.86a13.22,13.22,0,0,1,1.65,4.45,8.49,8.49,0,0,1-1,5.56,9.54,9.54,0,0,1-1.7,2.17c-0.13.12-.18,0.2-0.38,0.36l-0.57.47c-0.42.34-.7,0.49-1.05,0.74a24.67,24.67,0,0,1-8.29,3.11,29.53,29.53,0,0,1-8.72.4l-2.42-.25-0.53-2.28c-0.21-.88-0.42-1.77-0.57-2.67s-0.13-1.82-.1-2.71a26.07,26.07,0,0,1,.33-2.62c0.21-.82.37-1.69,0.66-2.46a32.24,32.24,0,0,1,4.31-8.2,150,150,0,0,1,10.06-12.17c3-3.5,5.81-7,8.25-10.07l6.27-7.86a59.1,59.1,0,0,0,3.42-8.67,25.15,25.15,0,0,0,1.11-9.27,13,13,0,0,0-.37-2.3l-0.11-.57-0.16-.56a6.23,6.23,0,0,0-.35-0.9,3.61,3.61,0,0,0-1-1.26,4.37,4.37,0,0,0-.37-0.27l-0.21-.13-0.11-.06-0.05,0,0.06,0h0l0,0a6.58,6.58,0,0,0-1-.44,14.78,14.78,0,0,0-4.76-.81,7,7,0,0,0-4.08,1,3.59,3.59,0,0,0-.65.62l-0.17.21,0,0.06,0,0,0.07-.11v0l-0.1.16-0.41.63c-0.26.42-.56,0.86-0.8,1.26l-0.52,1.11c-0.09.19-.19,0.36-0.26,0.56l-0.2.63c-0.13.42-.3,0.83-0.4,1.26a15.33,15.33,0,0,0-.39,2.64,16,16,0,0,0,0,2.71c0.05,0.46.16,0.91,0.24,1.37l0.12,0.69,0.21,0.68a21.91,21.91,0,0,0,2.33,5.31,34.86,34.86,0,0,0,8.41,9.06c0.86,0.64,1.75,1.25,2.63,1.87l2.88,1.88,5.88,3.78c-3.52-.63-0.44,1.13,3.75,3.66a66.44,66.44,0,0,1,6.37,4.3,20.08,20.08,0,0,1,2.46,2.2,5.56,5.56,0,0,1,1.3,1.85,9,9,0,0,1,1.75,1.06,22.55,22.55,0,0,1,2.17,2,20.26,20.26,0,0,1,4.43,7.46l0.39,1.31c0.1,0.46.15,0.94,0.22,1.43l0.09,0.73,0,0.37v0.14h0v0.42l0,0.15,0,0.15v0.09l0,0.19c0,0.25-.1.51-0.17,0.76l-0.11.37-0.09.21-0.18.42a12.88,12.88,0,0,1-1.74,2.78,16.11,16.11,0,0,1-2.27,2.3,15.69,15.69,0,0,1-6,3.07,17.05,17.05,0,0,1-6.87.3l-0.24,0-0.05,0a12,12,0,0,1-2.63-1.09,8.07,8.07,0,0,1-2.39-2.09,7.3,7.3,0,0,1-1.31-3,9.43,9.43,0,0,1-.1-2.92,17.73,17.73,0,0,1,1.43-5,36,36,0,0,1,2.25-4.3c0.82-1.36,1.71-2.67,2.6-3.92l2.6-3.68c1.7-2.43,3.34-4.82,4.88-7.12,5.65-8.46,10-16.67,13.88-23.4,2-3.33,3.51-6.16,3.93-8.28a8.19,8.19,0,0,0,.19-1.5c0-.24,0-0.48,0-0.72v-0.07l0.06,0.16h0v0l0-.13-0.05-.25-0.09-.49a4.55,4.55,0,0,1-.1-0.6q-0.12-.38-0.22-0.78c-0.18-.51-0.31-1.06-0.5-1.58-1.94-1.13-3.56-2.21-5.69-3.22a14.34,14.34,0,0,0-3.63-1.21,10.57,10.57,0,0,0-4.62.09l1.13-.56c-0.08.14-.2,0.25-0.28,0.43a1.05,1.05,0,0,0,.08-0.65l-1,.48c0.06,0,.06-0.08,0-0.11l0.92-.45c-0.17-.05-0.81.31-1.34,1.43a10.9,10.9,0,0,0-.79,4.79,22.49,22.49,0,0,0,2.57,9.66c0.7,2.68-.44,0-0.87.42a36.16,36.16,0,0,0,3.52,7.18,41.12,41.12,0,0,0,2.41,3.37l2.28,2.93,0.38,0.47,0.42,0.5,1,1.22c0.77,0.86,1.59,1.84,2.74,3a2.36,2.36,0,0,1-1.57-1.17c-0.3-.36-0.65-0.79-1.07-1.26a19,19,0,0,0-1.56-1.62c1.11,3.75,6.84,6.36,9.66,9.94-0.66-1.49,3,.93,7.12,4.28a63.16,63.16,0,0,1,5.94,5.49,18.8,18.8,0,0,1,3.39,4.66c1.61,1.72,1.71.63,2.3,0.45a41.72,41.72,0,0,1,3.73,6.36,10.51,10.51,0,0,1,1,4.62,7.66,7.66,0,0,1-2.14,4.87l-0.05.06-0.1.11,0,0-0.1.09-0.19.18a5.13,5.13,0,0,1-.44.38,13.05,13.05,0,0,1-1.07.79,21.12,21.12,0,0,1-2.06,1.22,28.92,28.92,0,0,1-4.42,1.88,22.54,22.54,0,0,1-5,1.08,9.89,9.89,0,0,1-5.92-1.07l-0.69-.39-0.26-.87a16,16,0,0,1-.36-7.38,23.92,23.92,0,0,1,2.49-6.68,65.73,65.73,0,0,1,7.72-10.7c2.71-3.21,5.4-6.17,7.7-9.09l6.73-8.41c0.54-.67,3-2.16,3.37-2.73,2.08-3.51-1.82,1-1.89,1.29,0.17-1.21,1.33-3.55,2.78-6.67,0.36-.78.75-1.6,1.11-2.48l0.57-1.34,0.52-1.41c0.4-.95.64-2,1-3,0.14-.51.25-1,0.38-1.55l0.19-.79,0.12-.8a18.53,18.53,0,0,0,.06-6.45,16.13,16.13,0,0,0-.31-1.58,6.54,6.54,0,0,0-.46-1.25,4.3,4.3,0,0,0-1.66-1.71l-0.07,0,0,0,0.06,0h0l-0.2-.1-0.34-.17c-0.15-.08-0.36-0.16-0.6-0.25a12,12,0,0,0-1.41-.43,15.42,15.42,0,0,0-2.89-.42,11.64,11.64,0,0,0-2.61.15,4.71,4.71,0,0,0-.56.12l-0.24.06-0.31.1a4.57,4.57,0,0,0-.82.39,3.77,3.77,0,0,0-.92.8l-0.21.27-0.11.15,0,0v0h0l0.06-.09-0.06.1-0.49.81a16,16,0,0,0-1.51,3.07,14.67,14.67,0,0,0-.76,6.8c0.54,4.67,3.13,9.16,6.53,12.78a41.5,41.5,0,0,0,5.54,5c1.94,1.44,4.14,2.9,6.19,4.31,4.13,2.83,8,5.6,11.38,8.4-1.73-.12-0.8.87,0.55,2.09s3.12,2.69,3.16,3.36c1.47,1.41,1.6,1.06,1.2.2a11.22,11.22,0,0,0-.89-1.5,8.66,8.66,0,0,0-1.07-1.23c0-.24.58,0.14,1.4,0.79a26.37,26.37,0,0,1,2.62,2.59,8,8,0,0,1,1.53,2.19c0.08,0.4-.27.22-1.54-0.7a27.43,27.43,0,0,1,4.25,4.06,25.89,25.89,0,0,1,1.59,2.21,27.46,27.46,0,0,1,1.27,2.5l0.46,1.42,0.22,0.73c0.06,0.25.09,0.52,0.13,0.79l0.22,1.65c0,0.21,0,.27,0,0.42s0,0.35,0,.52a7.79,7.79,0,0,1-.11,1,6.68,6.68,0,0,1-2.35,4.06,9,9,0,0,1-2.06,1.28,14,14,0,0,1-2.27.78,3.64,3.64,0,0,0,1.15-1c0.06-.22-0.31-0.17-1.55.13-0.09-.16.6-0.47,1.46-0.93a8.43,8.43,0,0,0,2.45-1.85c0.58-.69.77-1.24,0.6-1a8.06,8.06,0,0,1-.74.82,7.17,7.17,0,0,1-2.29,1.43c0-.34,1.28-1.05,2.1-2s1.11-2.21,1.43-2.25c-0.2-.92-0.46-1-0.61-0.66a10.9,10.9,0,0,1-.75,1.75,4.88,4.88,0,0,1-2.09,1.73A10.08,10.08,0,0,1,2971.1,3441.49Zm-137.73-46.83c-3.31,4.19-6,8.23-7.13,11.81C2829.51,3403.56,2835.78,3389.87,2833.38,3394.66Z" transform="translate(-2656.63 -3297.63)"/><path class="cls-3" d="M2789.3,3398.75c-0.31-.48-0.67-1.16-1.29-2A20.71,20.71,0,0,0,2789.3,3398.75Z" transform="translate(-2656.63 -3297.63)"/></g></svg>