<svg id="background" xmlns="http://www.w3.org/2000/svg" xmlns:xlink="http://www.w3.org/1999/xlink" viewBox="0 0 98.21 106.9"><defs><style>.cls-1{fill:none;}.cls-2{fill:#d45f26;}.cls-3{fill:#f3dbbd;}.cls-4{fill:#ea692b;}.cls-5{fill:#3b3e43;}.cls-6{fill:#fff;}.cls-7{clip-path:url(#clip-path);}</style><clipPath id="clip-path" transform="translate(-989.52 -818.99)"><path class="cls-1" d="M1074.3,886.23a35.54,35.54,0,0,0-35.48-35.54h-0.23a35.54,35.54,0,0,0-35.48,35.54c0,0.46-8.54,10.1-2.71,21.6,3.23,6.36,21,13.16,38,13.35,18,0.2,35.18-6.6,38.6-13.35C1082.84,896.33,1074.3,886.7,1074.3,886.23Z"/></clipPath></defs><title>avatar.fox</title><path class="cls-2" d="M1052.52,858.21c7.16-29.05,30.79-39.22,30.79-39.22s16.89,44.09-15.39,54.6Z" transform="translate(-989.52 -818.99)"/><path class="cls-3" d="M1056,860.88c9.23-27.59,24-32.41,24-32.41s12.77,26.35-15.29,42.42Z" transform="translate(-989.52 -818.99)"/><path class="cls-2" d="M1024.73,858.21c-7.17-29.05-30.79-39.22-30.79-39.22s-16.89,44.09,15.4,54.6Z" transform="translate(-989.52 -818.99)"/><path class="cls-3" d="M1021.28,860.88c-9.23-27.59-24-32.41-24-32.41s-12.77,26.35,15.29,42.42Z" transform="translate(-989.52 -818.99)"/><path class="cls-4" d="M1074.3,886.23a35.54,35.54,0,0,0-35.48-35.54h-0.23a35.54,35.54,0,0,0-35.48,35.54c0,0.46-8.54,10.1-2.71,21.6,3.23,6.36,21,13.16,38,13.35,18,0.2,35.18-6.6,38.6-13.35C1082.84,896.33,1074.3,886.7,1074.3,886.23Z" transform="translate(-989.52 -818.99)"/><path class="cls-1" d="M1074.3,886.23a35.54,35.54,0,0,0-35.48-35.54h-0.23a35.54,35.54,0,0,0-35.48,35.54c0,0.46-8.54,10.1-2.71,21.6,3.23,6.36,21,13.16,38,13.35,18,0.2,35.18-6.6,38.6-13.35C1082.84,896.33,1074.3,886.7,1074.3,886.23Z" transform="translate(-989.52 -818.99)"/><path class="cls-5" d="M1047.93,904.59c0,3.35-3.91,7.53-8.74,7.53s-8.74-4.17-8.74-7.53,3.91-6.07,8.74-6.07S1047.93,901.24,1047.93,904.59Z" transform="translate(-989.52 -818.99)"/><ellipse class="cls-6" cx="1042.59" cy="902.2" rx="1.5" ry="2.37" transform="translate(-1078.42 871.04) rotate(-75.72)"/><g class="cls-7"><ellipse class="cls-3" cx="1012.13" cy="909.27" rx="8.4" ry="24.8" transform="translate(-1316.65 330.22) rotate(-52.09)"/><path class="cls-3" d="M1045.9,923c2.83,3.46,14.15-.36,25.26-8.54s17.83-17.6,15-21.06-14.15.37-25.26,8.54S1043.07,919.58,1045.9,923Z" transform="translate(-989.52 -818.99)"/></g><circle class="cls-6" cx="60.84" cy="62.8" r="7.58"/><circle class="cls-6" cx="38.5" cy="62.8" r="7.58"/><circle class="cls-5" cx="38.05" cy="63.13" r="4.29"/><circle class="cls-6" cx="35.61" cy="59.67" r="2.74"/><circle class="cls-5" cx="60.84" cy="63.13" r="4.29"/><circle class="cls-6" cx="63.28" cy="59.67" r="2.74"/></svg>