<?xml version="1.0" encoding="utf-8"?>
<!-- Generator: Adobe Illustrator 19.2.1, SVG Export Plug-In . SVG Version: 6.00 Build 0)  -->
<svg version="1.1" id="background" xmlns="http://www.w3.org/2000/svg" xmlns:xlink="http://www.w3.org/1999/xlink" x="0px" y="0px"
	 viewBox="0 0 110.4 99.4" style="enable-background:new 0 0 110.4 99.4;" xml:space="preserve">
<style type="text/css">
	.st0{fill:#EFC468;}
	.st1{fill:#F1D577;}
	.st2{fill:#EEE1CB;}
	.st3{clip-path:url(#SVGID_2_);}
	.st4{fill:#846A6F;}
	.st5{fill:#F26B6F;}
	.st6{fill:#AF695D;}
	.st7{fill:#FFFFFF;}
	.st8{fill:#3D342F;}
	.st9{fill:#5C474A;}
</style>
<g>
	<path class="st0" d="M43.7,8.3c0,0-6.4-1.9-2.6-5.4C45-0.6,48.9,1.2,49.4,3C49.8,4.8,47,7,47,7l6,27.6l-4.7-0.1L43.7,8.3z"/>
	<path class="st0" d="M72.1,8.8c0,0,6.5-1.7,2.8-5.3s-7.8-1.9-8.3-0.1s2.2,4.1,2.2,4.1l-6.9,27.3l4.7,0.1L72.1,8.8z"/>
</g>
<g>
	<path class="st1" d="M91.5,33c-5.2-7.5-14.1,4.2-14.1,4.2s-23.2-12.7-42.7,1.3c0,0-6.7-13.1-14.9-6.1s6.4,17.1,10.4,17.1
		c0,0-4.7,16.6-2.8,30.4c2.5-4.3,11.7-17.5,29.3-17.2c16.9,0.3,26.7,13,29.9,18c0.2-1.7,0.2-3.5,0.1-5.5
		c-1.3-25.4-3.5-27.5-3.5-27.5S96.7,40.4,91.5,33z"/>
	<path class="st2" d="M56.8,62.7C39.1,62.4,30,75.7,27.4,80c1.2,8.8,5.1,16.4,14.7,17.8c22.6,3.3,42.6,3,44.5-17.1
		C83.5,75.8,73.7,63,56.8,62.7z"/>
</g>
<g>
	<g>
		<defs>
			<path id="SVGID_1_" d="M91.6,33c-5.2-7.5-14.1,4.2-14.1,4.2s-23.2-12.7-42.7,1.3c0,0-6.7-13.1-14.9-6.1s6.4,17.1,10.4,17.1
				c0,0-4.7,16.6-2.8,30.4c2.5-4.3,11.7-17.5,29.3-17.2c16.9,0.3,26.7,13,29.9,18c0.2-1.7,0.2-3.5,0.1-5.5
				c-1.3-25.4-3.5-27.5-3.5-27.5S96.9,40.4,91.6,33z"/>
		</defs>
		<clipPath id="SVGID_2_">
			<use xlink:href="#SVGID_1_"  style="overflow:visible;"/>
		</clipPath>
		<g class="st3">
			<path class="st4" d="M27.1,72.8L27.1,72.8c-5.9,0-10.7-4.8-10.7-10.7l0,0c0-5.9,4.8-10.7,10.7-10.7l0,0c5.9,0,10.7,4.8,10.7,10.7
				l0,0C37.8,68,33,72.8,27.1,72.8z"/>
			<path class="st4" d="M74.9,45.6L74.9,45.6c-5.9,0-10.7-4.8-10.7-10.7l0,0c0-5.9,4.8-10.7,10.7-10.7l0,0c5.9,0,10.7,4.8,10.7,10.7
				l0,0C85.6,40.8,80.7,45.6,74.9,45.6z"/>
			<path class="st4" d="M45.2,43.6L45.2,43.6c-5.9,0-10.7-4.8-10.7-10.7l0,0c0-5.9,4.8-10.7,10.7-10.7l0,0c5.9,0,10.7,4.8,10.7,10.7
				l0,0C55.9,38.8,51.1,43.6,45.2,43.6z"/>
			<path class="st4" d="M85.6,67.8L85.6,67.8c-4,0-7.2-3.2-7.2-7.2l0,0c0-4,3.2-7.2,7.2-7.2l0,0c4,0,7.2,3.2,7.2,7.2l0,0
				C92.8,64.6,89.5,67.8,85.6,67.8z"/>
		</g>
	</g>
</g>
<title>avatar.rabbitbrown</title>
<path class="st5" d="M49.3,89c0,0,6.5,1,12.5-4.8c4.5-4.3,10.2,0.9,5.1,5.1C62,93.4,54.4,91.1,49.3,89z"/>
<g>
	<ellipse transform="matrix(1.726463e-002 -0.9999 0.9999 1.726463e-002 -28.2127 121.2799)" cx="47.6" cy="75" rx="2.1" ry="1.6"/>
	
		<ellipse transform="matrix(1.725999e-002 -0.9999 0.9999 1.725999e-002 -8.8558 140.0572)" cx="66.8" cy="74.5" rx="2.1" ry="1.6"/>
</g>
<path class="st6" d="M67.2,85.9"/>
<circle class="st7" cx="68.8" cy="52.4" r="6.3"/>
<circle class="st8" cx="68.5" cy="52.5" r="3.8"/>
<circle class="st7" cx="69.8" cy="49.4" r="1.8"/>
<circle class="st7" cx="47.1" cy="52.1" r="6.3"/>
<circle class="st8" cx="46.4" cy="52.5" r="3.8"/>
<circle class="st7" cx="45.2" cy="49.4" r="1.8"/>
<g>
	<path class="st9" d="M32.8,42.2c0,0-0.4-0.6-0.6-0.9c-0.2-0.2-0.4-0.6-0.7-1c-0.3-0.4-0.7-0.9-1.1-1.3c-0.2-0.2-0.4-0.5-0.7-0.7
		c-0.2-0.2-0.5-0.5-0.8-0.7s-0.5-0.4-0.8-0.6c-0.3-0.2-0.6-0.4-0.8-0.5c-0.3-0.2-0.6-0.3-0.8-0.4c-0.3-0.1-0.5-0.2-0.8-0.3
		c-0.2-0.1-0.5-0.1-0.7-0.1c-0.2-0.1-0.4,0-0.5,0c-0.3,0-0.5,0-0.5,0s0.2,0,0.5-0.1c0.2,0,0.3-0.1,0.6,0c0.2,0,0.5,0,0.7,0.1
		c0.3,0.1,0.5,0.1,0.8,0.2c0.3,0.1,0.6,0.2,0.9,0.3s0.6,0.3,0.9,0.5s0.6,0.4,0.9,0.6c0.3,0.2,0.6,0.4,0.9,0.6
		c0.3,0.2,0.5,0.4,0.8,0.7c0.5,0.4,1,0.9,1.3,1.3c0.4,0.4,0.7,0.7,0.9,1c0.2,0.2,0.3,0.4,0.3,0.4L32.8,42.2z"/>
	<path class="st9" d="M80,42.2c0,0,0.4-0.6,0.6-0.9c0.2-0.2,0.4-0.6,0.7-1c0.3-0.4,0.7-0.9,1.1-1.3c0.2-0.2,0.4-0.5,0.7-0.7
		c0.2-0.2,0.5-0.5,0.8-0.7s0.5-0.4,0.8-0.6c0.3-0.2,0.6-0.4,0.8-0.5c0.3-0.2,0.6-0.3,0.8-0.4c0.3-0.1,0.5-0.2,0.8-0.3
		c0.2-0.1,0.5-0.1,0.7-0.1c0.2-0.1,0.4,0,0.5,0c0.3,0,0.5,0,0.5,0s-0.2,0-0.5-0.1c-0.2,0-0.3-0.1-0.6,0c-0.2,0-0.5,0-0.7,0.1
		c-0.3,0.1-0.5,0.1-0.8,0.2c-0.3,0.1-0.6,0.2-0.9,0.3s-0.6,0.3-0.9,0.5s-0.6,0.4-0.9,0.6c-0.3,0.2-0.6,0.4-0.9,0.6
		c-0.3,0.2-0.5,0.4-0.8,0.7c-0.5,0.4-1,0.9-1.3,1.3c-0.4,0.4-0.7,0.7-0.9,1c-0.2,0.2-0.3,0.4-0.3,0.4L80,42.2z"/>
</g>
</svg>
