<svg id="background" xmlns="http://www.w3.org/2000/svg" xmlns:xlink="http://www.w3.org/1999/xlink" viewBox="0 0 117.93 95.1"><defs><style>.cls-1{fill:none;}.cls-2{fill:#ea692b;}.cls-3{fill:#f3dbbd;}.cls-4{fill:#f6f3cf;}.cls-5{clip-path:url(#clip-path);}.cls-6{fill:#3b3e43;}.cls-7{fill:#fff;}.cls-8{fill:#3d342f;}.cls-9{fill:#8a603c;}</style><clipPath id="clip-path" transform="translate(-1336.52 -998.52)"><path class="cls-1" d="M1433.71,1051.66a37.74,37.74,0,0,0-37.67-37.74h-0.25a37.74,37.74,0,0,0-37.67,37.74c0,0.49-9.07,10.72-2.87,22.94,3.43,6.76,22.33,14,40.34,14.17,19.1,0.21,37.36-7,41-14.17C1442.77,1062.38,1433.71,1052.15,1433.71,1051.66Z"/></clipPath></defs><title>avatar.catred</title><path class="cls-2" d="M1409.83,1009c-4.32,6.09-2.51,14.81,4,19.46s15.39,3.49,19.71-2.6,5.13-24.12,2.42-26.78S1414.15,1002.95,1409.83,1009Z" transform="translate(-1336.52 -998.52)"/><path class="cls-3" d="M1413.09,1013.36c-2.42,4.06-.84,9.46,3.53,12.06s9.87,1.43,12.3-2.62,5.71-17.92,2.61-19.5S1415.51,1009.3,1413.09,1013.36Z" transform="translate(-1336.52 -998.52)"/><path class="cls-2" d="M1383.32,1009c4.32,6.09,2.51,14.81-4,19.46s-15.38,3.49-19.71-2.6-5.13-24.12-2.42-26.78S1379,1002.95,1383.32,1009Z" transform="translate(-1336.52 -998.52)"/><path class="cls-3" d="M1380.06,1013.36c2.42,4.06.84,9.46-3.53,12.06s-9.87,1.43-12.3-2.62-5.72-17.92-2.61-19.5S1377.64,1009.3,1380.06,1013.36Z" transform="translate(-1336.52 -998.52)"/><path class="cls-4" d="M1348.86,1065.38a11.61,11.61,0,0,0-2.3,1.24,13.71,13.71,0,0,1,1.61-.83Z" transform="translate(-1336.52 -998.52)"/><path class="cls-4" d="M1346.55,1066.62a16.47,16.47,0,0,0,1.61-.83A13.71,13.71,0,0,0,1346.55,1066.62Z" transform="translate(-1336.52 -998.52)"/><path class="cls-1" d="M1368.8,1065.45a50.62,50.62,0,0,1,9.34,4.17s0-.09,0-0.14A36.34,36.34,0,0,0,1368.8,1065.45Z" transform="translate(-1336.52 -998.52)"/><path class="cls-2" d="M1433.71,1051.66a37.74,37.74,0,0,0-37.67-37.74h-0.25a37.74,37.74,0,0,0-37.67,37.74c0,0.49-9.07,10.72-2.87,22.94,3.43,6.76,22.33,14,40.34,14.17,19.1,0.21,37.36-7,41-14.17C1442.77,1062.38,1433.71,1052.15,1433.71,1051.66Z" transform="translate(-1336.52 -998.52)"/><g class="cls-5"><ellipse class="cls-3" cx="59.07" cy="79.18" rx="28.13" ry="15.92"/></g><path class="cls-6" d="M1403.77,1061.84c0,2.93-3.42,6.58-7.65,6.58s-7.64-3.65-7.64-6.58,3.42-5.31,7.64-5.31S1403.77,1058.91,1403.77,1061.84Z" transform="translate(-1336.52 -998.52)"/><path class="cls-6" d="M1388.15,1077.39c-2.1,0-4.42-1-6.93-3.09a0.78,0.78,0,1,1,1-1.21c2.94,2.41,5.47,3.23,7.53,2.45,4.09-1.56,5.3-8.88,5.32-9a0.78,0.78,0,1,1,1.55.25c-0.05.34-1.38,8.29-6.31,10.17A6,6,0,0,1,1388.15,1077.39Z" transform="translate(-1336.52 -998.52)"/><path class="cls-6" d="M1402.71,1078.08a5,5,0,0,1-1.86-.35c-4.69-1.88-5.57-10.57-5.6-10.94a0.78,0.78,0,0,1,1.56-.15c0.22,2.25,1.47,8.37,4.63,9.63,1.73,0.69,3.94-.11,6.56-2.38a0.78,0.78,0,0,1,1,1.19C1406.71,1077.07,1404.6,1078.08,1402.71,1078.08Z" transform="translate(-1336.52 -998.52)"/><ellipse class="cls-7" cx="1399.1" cy="1059.74" rx="1.31" ry="2.07" transform="translate(-1309.51 1155.72) rotate(-75.72)"/><path class="cls-8" d="M1376.73,1068a0.84,0.84,0,0,1-.59-0.24c-0.11-.11-9.23-8.7-35-12.63a0.84,0.84,0,1,1,.26-1.67c26.43,4,35.55,12.73,35.93,13.09A0.85,0.85,0,0,1,1376.73,1068Z" transform="translate(-1336.52 -998.52)"/><path class="cls-8" d="M1375.21,1071.42a0.83,0.83,0,0,1-.42-0.11c-0.13-.07-11.13-6.08-37.06-3.38a0.84,0.84,0,0,1-.17-1.68c26.59-2.77,37.62,3.33,38.07,3.59A0.84,0.84,0,0,1,1375.21,1071.42Z" transform="translate(-1336.52 -998.52)"/><path class="cls-8" d="M1337.37,1080.64a0.85,0.85,0,0,1-.27-1.65c25.29-8.66,37.41-5.19,37.91-5a0.85,0.85,0,0,1-.49,1.62h0c-0.12,0-12.18-3.44-36.87,5A0.86,0.86,0,0,1,1337.37,1080.64Z" transform="translate(-1336.52 -998.52)"/><path class="cls-8" d="M1414.24,1069.33a0.85,0.85,0,0,1-.59-1.45c0.38-.37,9.5-9.06,35.93-13.09a0.85,0.85,0,1,1,.26,1.67c-25.89,4-34.91,12.54-35,12.63A0.84,0.84,0,0,1,1414.24,1069.33Z" transform="translate(-1336.52 -998.52)"/><path class="cls-8" d="M1415.76,1072.73a0.85,0.85,0,0,1-.42-1.58c0.46-.26,11.48-6.36,38.07-3.59a0.84,0.84,0,1,1-.18,1.68c-26-2.7-37,3.32-37.06,3.38A0.84,0.84,0,0,1,1415.76,1072.73Z" transform="translate(-1336.52 -998.52)"/><path class="cls-8" d="M1453.6,1082a0.87,0.87,0,0,1-.27,0c-24.69-8.46-36.75-5.05-36.87-5a0.85,0.85,0,0,1-.49-1.62c0.5-.15,12.62-3.62,37.91,5A0.85,0.85,0,0,1,1453.6,1082Z" transform="translate(-1336.52 -998.52)"/><path class="cls-9" d="M1396.83,1042.15c-2.32,0-5.09-17.53-1.36-21.49a2.53,2.53,0,0,1,3.49.13C1402.54,1024.88,1399,1042.15,1396.83,1042.15Z" transform="translate(-1336.52 -998.52)"/><circle class="cls-7" cx="45.58" cy="45.79" r="7.1"/><circle class="cls-6" cx="45.58" cy="45.85" r="3.59"/><circle class="cls-7" cx="44.5" cy="43.03" r="1.89"/><circle class="cls-7" cx="75.51" cy="45.59" r="7.1"/><circle class="cls-6" cx="75.51" cy="45.65" r="3.59"/><circle class="cls-7" cx="76.59" cy="42.82" r="1.89"/></svg>