<?xml version="1.0" encoding="utf-8"?>
<!-- Generator: Adobe Illustrator 19.2.1, SVG Export Plug-In . SVG Version: 6.00 Build 0)  -->
<svg version="1.1" id="background" xmlns="http://www.w3.org/2000/svg" xmlns:xlink="http://www.w3.org/1999/xlink" x="0px" y="0px"
	 viewBox="0 0 123.1 81.3" style="enable-background:new 0 0 123.1 81.3;" xml:space="preserve">
<style type="text/css">
	.st0{fill:#7B5735;}
	.st1{fill:none;}
	.st2{fill:#E96332;}
	.st3{fill:#A84720;}
	.st4{fill:#C2986B;}
	.st5{clip-path:url(#SVGID_2_);}
	.st6{fill:#F3DBBD;}
	.st7{fill:#3B3E43;}
	.st8{fill:#FFFFFF;}
	.st9{fill:#3D342F;}
</style>
<title>avatar.dogears</title>
<path class="st0" d="M36.9,17c-1.4-1.5-2.9-2.8-4.6-3.9l-0.5-0.3c-0.1,0.3-0.3,1-0.4,1.8c-0.2,1.9-0.3,3.9-0.2,5.8
	c0,2.3,0.1,5.2-0.2,8.1c-0.2,3-0.7,5.9-1.3,8.8c-1.3,5.6-3,11-5.2,16.3l-0.1,0.3C22,60.7,14.7,64,8.1,61.5C1.6,59-1.7,51.7,0.7,45.1
	c0.1-0.2,0.1-0.3,0.2-0.5c0.4-1.1,1-2.1,1.8-3.1c2.7-3.4,5.1-7.1,7.3-10.9c1-1.8,1.9-3.7,2.6-5.7c0.8-2.2,1.5-4.4,2-6.7
	c0.7-3,1.7-6,3.1-8.8c0.8-1.7,1.8-3.3,3-4.8c0.8-0.9,1.6-1.8,2.6-2.5c1.2-0.9,2.5-1.5,3.9-1.9c1.4-0.4,2.9-0.5,4.4-0.3
	c1.2,0.2,2.4,0.5,3.5,1.1c1.7,0.8,3.2,1.9,4.5,3.2c1.1,1.1,2.1,2.2,3,3.5c0.9,1.2,1.7,2.4,2.4,3.7c1.3,2.3,0.5,5.3-1.8,6.6
	c-1.9,1.1-4.4,0.8-5.9-0.9L36.9,17z"/>
<path class="st0" d="M86.1,17c1.4-1.5,2.9-2.8,4.6-3.9l0.5-0.3c0.1,0.3,0.3,1,0.4,1.8c0.2,1.9,0.3,3.9,0.2,5.8
	c-0.1,2.3-0.1,5.2,0.2,8.1c0.2,3,0.7,5.9,1.3,8.8c1.3,5.6,3,11,5.2,16.3l0.1,0.3c2.5,6.6,9.8,9.9,16.4,7.4c6.6-2.5,9.9-9.8,7.4-16.4
	c-0.1-0.2-0.1-0.3-0.2-0.5c-0.4-1.1-1-2.1-1.8-3.1c-2.7-3.4-5.1-7.1-7.3-10.9c-1-1.8-1.9-3.7-2.6-5.7c-0.8-2.2-1.5-4.4-2-6.7
	c-0.7-3-1.7-6-3.1-8.8c-0.8-1.7-1.8-3.3-3-4.8c-0.8-0.9-1.6-1.8-2.6-2.5c-1.2-0.9-2.5-1.5-3.9-1.9C94.5,0,93-0.1,91.5,0.1
	c-1.2,0.2-2.4,0.5-3.5,1.1c-1.7,0.8-3.2,1.9-4.5,3.2c-1.1,1.1-2.1,2.2-3,3.5c-0.9,1.2-1.7,2.4-2.4,3.7c-1.3,2.3-0.5,5.3,1.8,6.6
	c1.9,1.1,4.4,0.8,5.9-0.9L86.1,17z"/>
<path class="st1" d="M37.2,54.9c3,1,5.9,2.3,8.6,3.8v-0.1C43.1,57,40.2,55.8,37.2,54.9z"/>
<path class="st2" d="M62.1,7.4L62.1,7.4z"/>
<path class="st3" d="M62.2,7.4L62.2,7.4z"/>
<path class="st4" d="M97.1,42.2C97.1,23,81.5,7.4,62.3,7.4h-0.2C42.9,7.4,27.3,23,27.3,42.2c0,0.5-8.4,9.9-2.7,21.2
	c3.2,6.2,20.6,17.7,37.2,17.9C79.5,81.5,96.4,70,99.7,63.4C105.4,52.1,97.1,42.7,97.1,42.2z"/>
<g>
	<defs>
		<path id="SVGID_1_" d="M97.1,42.2C97.1,23,81.5,7.4,62.3,7.4h-0.2C42.9,7.4,27.3,23,27.3,42.2c0,0.5-8.4,9.9-2.7,21.2
			c3.2,6.2,20.6,17.7,37.2,17.9C79.5,81.5,96.4,70,99.7,63.4C105.4,52.1,97.1,42.7,97.1,42.2z"/>
	</defs>
	<clipPath id="SVGID_2_">
		<use xlink:href="#SVGID_1_"  style="overflow:visible;"/>
	</clipPath>
	<g class="st5">
		<path class="st6" d="M87.9,66.2c0,8.1-11.6,19.5-25.9,19.5S36,74.3,36,66.2s11.6-14.7,25.9-14.7S87.9,58.1,87.9,66.2z"/>
	</g>
</g>
<path class="st7" d="M69.5,51.6c0,2.7-3.2,6.1-7.1,6.1s-7.1-3.4-7.1-6.1s3.2-4.9,7.1-4.9S69.5,48.9,69.5,51.6z"/>
<path class="st7" d="M55.1,66c-1.9,0-4.1-1-6.4-2.8c-0.3-0.3-0.4-0.7-0.1-1s0.7-0.4,1-0.1c2.7,2.2,5,3,6.9,2.3
	c3.8-1.4,4.9-8.2,4.9-8.3c0.1-0.4,0.4-0.7,0.8-0.6c0.4,0.1,0.7,0.4,0.6,0.8c0,0.3-1.3,7.7-5.8,9.4C56.4,65.8,55.7,66,55.1,66z"/>
<path class="st7" d="M68.5,66.5c-0.6,0-1.2-0.1-1.7-0.3c-4.3-1.7-5.1-9.8-5.2-10.1c0-0.4,0.3-0.8,0.7-0.8c0.4,0,0.8,0.3,0.8,0.6
	c0.2,2.1,1.4,7.7,4.3,8.9c1.6,0.6,3.6-0.1,6-2.2c0.3-0.3,0.8-0.2,1,0.1c0.3,0.3,0.2,0.8-0.1,1C72.2,65.7,70.2,66.5,68.5,66.5z"/>
<ellipse transform="matrix(0.2467 -0.9691 0.9691 0.2467 0.9554 100.4474)" class="st8" cx="65.1" cy="49.6" rx="1.2" ry="1.9"/>
<path class="st9" d="M44.5,57.1c-0.2,0-0.3-0.1-0.4-0.2c-0.1-0.1-8.5-8-32.4-11.7c-0.3-0.1-0.6-0.4-0.5-0.7c0,0,0,0,0,0
	c0.1-0.3,0.4-0.5,0.7-0.5c24.3,3.7,32.7,11.7,33,12c0.3,0.2,0.3,0.6,0.1,0.8C44.9,57.1,44.7,57.1,44.5,57.1z"/>
<path class="st9" d="M43.1,60.3c-0.1,0-0.2,0-0.3-0.1c-0.1-0.1-10.3-5.6-34.3-3.1c-0.3,0-0.6-0.2-0.7-0.5c0-0.3,0.2-0.6,0.5-0.7
	c24.5-2.5,34.6,3,35,3.3c0.3,0.2,0.4,0.5,0.2,0.8C43.6,60.2,43.3,60.3,43.1,60.3z"/>
<path class="st9" d="M8.2,68.8c-0.3,0-0.6-0.3-0.6-0.6c0-0.3,0.2-0.5,0.4-0.6c23.3-8,34.4-4.8,34.9-4.6c0.3,0.1,0.5,0.4,0.4,0.8
	c-0.1,0.3-0.4,0.5-0.8,0.4l0,0c-0.1,0-11.3-3.2-34.1,4.6C8.3,68.8,8.3,68.8,8.2,68.8z"/>
<path class="st9" d="M79.1,58.3c-0.3,0-0.6-0.3-0.6-0.6c0-0.1,0.1-0.3,0.2-0.4c0.3-0.3,8.7-8.3,33-12c0.3,0,0.6,0.2,0.7,0.5
	c0,0.3-0.2,0.6-0.5,0.7C88,50.2,79.6,58.2,79.5,58.2C79.4,58.3,79.2,58.4,79.1,58.3z"/>
<path class="st9" d="M80.5,61.5c-0.3,0-0.6-0.2-0.6-0.6c0-0.2,0.1-0.4,0.3-0.5c0.4-0.2,10.5-5.8,35-3.3c0.3,0,0.6,0.3,0.5,0.7
	c0,0.3-0.3,0.6-0.7,0.5c-24.1-2.5-34.2,3.1-34.3,3.1C80.7,61.5,80.6,61.5,80.5,61.5z"/>
<path class="st9" d="M115.4,70c-0.1,0-0.1,0-0.2,0c-22.8-7.8-34-4.7-34.1-4.6c-0.3,0.1-0.7-0.1-0.8-0.4c-0.1-0.3,0.1-0.7,0.4-0.8
	c0.5-0.1,11.6-3.3,34.9,4.7c0.3,0.1,0.4,0.5,0.3,0.8C115.8,69.8,115.6,70,115.4,70z"/>
<circle class="st8" cx="75.1" cy="34.2" r="7.6"/>
<circle class="st8" cx="48.8" cy="34.2" r="7.6"/>
<circle class="st7" cx="48.3" cy="34.5" r="4.3"/>
<circle class="st8" cx="45.9" cy="31.1" r="2.7"/>
<circle class="st7" cx="75.1" cy="34.5" r="4.3"/>
<circle class="st8" cx="77.6" cy="31.1" r="2.7"/>
</svg>
