<svg id="background" xmlns="http://www.w3.org/2000/svg" xmlns:xlink="http://www.w3.org/1999/xlink" viewBox="0 0 123.08 85.76"><defs><style>.cls-1{fill:none;}.cls-2{fill:#7b5735;}.cls-3{fill:#e96332;}.cls-4{fill:#a84720;}.cls-5{fill:#c2986b;}.cls-6{clip-path:url(#clip-path);}.cls-7{fill:#f3dbbd;}.cls-8{fill:#3b3e43;}.cls-9{fill:#fff;}.cls-10{fill:#3d342f;}</style><clipPath id="clip-path" transform="translate(-1155.39 -829.45)"><path class="cls-1" d="M1252.47,871.67a34.81,34.81,0,0,0-34.75-34.81h-0.23a34.81,34.81,0,0,0-34.75,34.81c0,0.45-8.37,9.89-2.65,21.16,3.16,6.23,20.6,17.72,37.21,17.9,17.62,0.19,34.46-11.29,37.81-17.9C1260.83,881.56,1252.47,872.12,1252.47,871.67Z"/></clipPath></defs><title>avatar.dogears</title><path class="cls-2" d="M1192.33,846.49a22.75,22.75,0,0,0-4.62-3.86l-0.5-.28c-0.08.35-.29,1-0.44,1.85a33.53,33.53,0,0,0-.2,5.79c0,2.34.08,5.2-.15,8.13a65,65,0,0,1-1.28,8.8,100.79,100.79,0,0,1-5.16,16.32l-0.12.31a12.69,12.69,0,1,1-23.55-9.45,13.11,13.11,0,0,1,1.76-3.06,80,80,0,0,0,7.27-10.87,45.19,45.19,0,0,0,2.59-5.65,64.94,64.94,0,0,0,2-6.68A44.26,44.26,0,0,1,1173,839a23.31,23.31,0,0,1,3-4.79,14.8,14.8,0,0,1,2.61-2.5,11.65,11.65,0,0,1,3.92-1.92,10.85,10.85,0,0,1,4.42-.26,12.19,12.19,0,0,1,3.5,1.08,17.18,17.18,0,0,1,4.49,3.23,28.42,28.42,0,0,1,3,3.48,38.73,38.73,0,0,1,2.41,3.72,4.82,4.82,0,0,1-7.68,5.72Z" transform="translate(-1155.39 -829.45)"/><path class="cls-2" d="M1241.53,846.49a22.78,22.78,0,0,1,4.62-3.86l0.5-.28c0.09,0.35.29,1,.44,1.85a33.16,33.16,0,0,1,.2,5.79c-0.05,2.34-.08,5.2.15,8.13a65,65,0,0,0,1.28,8.8,100.64,100.64,0,0,0,5.16,16.32l0.12,0.31a12.69,12.69,0,1,0,23.55-9.45,13.13,13.13,0,0,0-1.76-3.06,80.11,80.11,0,0,1-7.27-10.87,45.77,45.77,0,0,1-2.59-5.65,66.45,66.45,0,0,1-2-6.68,44.09,44.09,0,0,0-3.07-8.79,23.18,23.18,0,0,0-3-4.79,14.79,14.79,0,0,0-2.6-2.5,11.68,11.68,0,0,0-3.92-1.92,10.85,10.85,0,0,0-4.42-.26,12.17,12.17,0,0,0-3.49,1.08,17.12,17.12,0,0,0-4.48,3.23,28.35,28.35,0,0,0-3,3.48,38.27,38.27,0,0,0-2.41,3.72,4.82,4.82,0,0,0,7.68,5.72Z" transform="translate(-1155.39 -829.45)"/><path class="cls-1" d="M1192.59,884.39a46.52,46.52,0,0,1,8.62,3.85l0-.13A33.47,33.47,0,0,0,1192.59,884.39Z" transform="translate(-1155.39 -829.45)"/><path class="cls-3" d="M1217.51,836.86h0Z" transform="translate(-1155.39 -829.45)"/><path class="cls-4" d="M1217.58,836.86h0Z" transform="translate(-1155.39 -829.45)"/><path class="cls-5" d="M1252.47,871.67a34.81,34.81,0,0,0-34.75-34.81h-0.23a34.81,34.81,0,0,0-34.75,34.81c0,0.45-8.37,9.89-2.65,21.16,3.16,6.23,20.6,17.72,37.21,17.9,17.62,0.19,34.46-11.29,37.81-17.9C1260.83,881.56,1252.47,872.12,1252.47,871.67Z" transform="translate(-1155.39 -829.45)"/><g class="cls-6"><path class="cls-7" d="M1243.25,895.69c0,8.11-11.62,19.51-25.95,19.51s-25.95-11.4-25.95-19.51S1203,881,1217.3,881,1243.25,887.59,1243.25,895.69Z" transform="translate(-1155.39 -829.45)"/></g><path class="cls-8" d="M1224.85,881.07c0,2.71-3.16,6.07-7.05,6.07s-7.05-3.37-7.05-6.07,3.16-4.9,7.05-4.9S1224.85,878.36,1224.85,881.07Z" transform="translate(-1155.39 -829.45)"/><path class="cls-8" d="M1210.45,895.41c-1.93,0-4.08-1-6.4-2.85a0.72,0.72,0,0,1,.92-1.12c2.71,2.22,5,3,6.94,2.26,3.77-1.44,4.89-8.19,4.9-8.26a0.72,0.72,0,1,1,1.43.23c0,0.31-1.27,7.65-5.82,9.38A5.53,5.53,0,0,1,1210.45,895.41Z" transform="translate(-1155.39 -829.45)"/><path class="cls-8" d="M1223.87,896a4.59,4.59,0,0,1-1.72-.33c-4.32-1.73-5.13-9.75-5.17-10.09a0.72,0.72,0,1,1,1.44-.14c0.2,2.08,1.36,7.72,4.27,8.89,1.6,0.64,3.63-.1,6-2.2a0.72,0.72,0,0,1,.95,1.09C1227.56,895.12,1225.61,896,1223.87,896Z" transform="translate(-1155.39 -829.45)"/><ellipse class="cls-9" cx="1220.54" cy="879.13" rx="1.21" ry="1.91" transform="translate(-1087.94 1015.59) rotate(-75.72)"/><path class="cls-10" d="M1199.91,886.59a0.61,0.61,0,0,1-.42-0.17c-0.08-.08-8.51-8.05-32.38-11.7a0.6,0.6,0,0,1-.5-0.69,0.61,0.61,0,0,1,.69-0.5c24.32,3.72,32.7,11.69,33,12A0.6,0.6,0,0,1,1199.91,886.59Z" transform="translate(-1155.39 -829.45)"/><path class="cls-10" d="M1198.51,889.72a0.6,0.6,0,0,1-.3-0.08c-0.1-.06-10.27-5.64-34.29-3.14a0.6,0.6,0,0,1-.12-1.2c24.48-2.55,34.59,3.05,35,3.29A0.6,0.6,0,0,1,1198.51,889.72Z" transform="translate(-1155.39 -829.45)"/><path class="cls-10" d="M1163.6,898.23a0.6,0.6,0,0,1-.2-1.17c23.28-8,34.4-4.79,34.86-4.64a0.6,0.6,0,0,1-.35,1.16c-0.11,0-11.27-3.19-34.12,4.63A0.62,0.62,0,0,1,1163.6,898.23Z" transform="translate(-1155.39 -829.45)"/><path class="cls-10" d="M1234.5,887.8a0.6,0.6,0,0,1-.42-1c0.35-.34,8.72-8.31,33-12a0.6,0.6,0,1,1,.18,1.19c-23.88,3.65-32.3,11.62-32.38,11.7A0.61,0.61,0,0,1,1234.5,887.8Z" transform="translate(-1155.39 -829.45)"/><path class="cls-10" d="M1235.91,890.93a0.6,0.6,0,0,1-.3-1.13c0.42-.24,10.54-5.84,35-3.29a0.6,0.6,0,1,1-.12,1.2c-24.09-2.51-34.19,3.08-34.29,3.14A0.6,0.6,0,0,1,1235.91,890.93Z" transform="translate(-1155.39 -829.45)"/><path class="cls-10" d="M1270.82,899.44a0.64,0.64,0,0,1-.2,0c-22.84-7.83-34-4.66-34.12-4.63a0.6,0.6,0,0,1-.35-1.16c0.46-.14,11.58-3.33,34.86,4.65A0.6,0.6,0,0,1,1270.82,899.44Z" transform="translate(-1155.39 -829.45)"/><circle class="cls-9" cx="75.1" cy="34.22" r="7.58"/><circle class="cls-9" cx="48.77" cy="34.22" r="7.58"/><circle class="cls-8" cx="48.32" cy="34.54" r="4.29"/><circle class="cls-9" cx="45.87" cy="31.08" r="2.74"/><circle class="cls-8" cx="75.1" cy="34.54" r="4.29"/><circle class="cls-9" cx="77.55" cy="31.08" r="2.74"/></svg>