<svg id="background" xmlns="http://www.w3.org/2000/svg" xmlns:xlink="http://www.w3.org/1999/xlink" viewBox="0 0 80.57 127.78"><defs><style>.cls-1{fill:none;}.cls-2{fill:#bab7b0;}.cls-3{fill:#e0dcd3;}.cls-4{clip-path:url(#clip-path);}.cls-5{fill:#f7f1e6;}.cls-6{fill:#fff;}.cls-7{fill:#3d342f;}</style><clipPath id="clip-path" transform="translate(-1681.16 -811.21)"><path class="cls-1" d="M1761.59,880.84c2.47,26-16.19,40-41.3,40S1677.65,905.93,1682,872c3.07-24.16,15-37.72,42-37.72C1757.3,834.25,1759.43,858.06,1761.59,880.84Z"/></clipPath></defs><title>avatar.doggrey</title><path class="cls-2" d="M1707.42,838.74c0.66,8.3-25.37,37.26-25.37,37.26s0.39-.61.39-34.68c0.43-13.91,11.5-28.67,12.94-29.08S1706.76,830.44,1707.42,838.74Z" transform="translate(-1681.16 -811.21)"/><path class="cls-2" d="M1736,837.72c-0.66,8.3,25.36,37.26,25.36,37.26s-0.39-.61-0.39-34.68c-0.43-13.91-11.5-28.67-12.94-29.08S1736.65,829.42,1736,837.72Z" transform="translate(-1681.16 -811.21)"/><path class="cls-3" d="M1761.59,880.84c1.85,26.94-16.19,40-41.3,40S1677,905.93,1682,872c3.5-24.1,14.42-39.57,41.42-39.57C1756.68,832.4,1760,858,1761.59,880.84Z" transform="translate(-1681.16 -811.21)"/><g class="cls-4"><path class="cls-5" d="M1722.4,881.49c-10,0-27,15.32-30.7,41.26-3.37,23.69,62,20.33,59.25-2.66C1748.78,902,1732.39,881.49,1722.4,881.49Z" transform="translate(-1681.16 -811.21)"/></g><circle class="cls-6" cx="63.27" cy="56" r="10.53"/><circle class="cls-7" cx="62.84" cy="56.08" r="6.27"/><circle class="cls-6" cx="64.93" cy="50.91" r="2.98"/><circle class="cls-6" cx="19.05" cy="56.92" r="10.53"/><circle class="cls-7" cx="17.94" cy="57.62" r="6.27"/><circle class="cls-6" cx="15.85" cy="52.45" r="2.98"/><path class="cls-7" d="M1734,891.58c0,2.37-9.14,6.18-12.33,6.18S1709,894.07,1709,891.7s5.34-4.29,11.93-4.29S1734,889.21,1734,891.58Z" transform="translate(-1681.16 -811.21)"/><path class="cls-7" d="M1721.89,914.87a20.53,20.53,0,0,1-12.06-4.29,0.92,0.92,0,0,1,1.2-1.4h0c0.41,0.35,10.17,8.42,20.77.26a0.92,0.92,0,1,1,1.13,1.46A17.78,17.78,0,0,1,1721.89,914.87Z" transform="translate(-1681.16 -811.21)"/><rect class="cls-7" x="39.46" y="84.06" width="2.31" height="19.37"/></svg>