<?xml version="1.0" encoding="utf-8"?>
<!-- Generator: Adobe Illustrator 19.2.1, SVG Export Plug-In . SVG Version: 6.00 Build 0)  -->
<svg version="1.1" id="background" xmlns="http://www.w3.org/2000/svg" xmlns:xlink="http://www.w3.org/1999/xlink" x="0px" y="0px"
	 viewBox="0 0 91.5 98.7" style="enable-background:new 0 0 91.5 98.7;" xml:space="preserve">
<style type="text/css">
	.st0{fill:#73D3DD;}
	.st1{fill:#91F9F6;}
	.st2{fill:#F9AE40;}
	.st3{fill:#F7EB32;}
	.st4{fill:#FFFFFF;}
	.st5{fill:#3B3E43;}
</style>
<title>animalavatars</title>
<ellipse class="st0" cx="45.7" cy="56.4" rx="38.8" ry="34.8"/>
<path class="st1" d="M22.2,60.9c-6.5-1.3-8.5-4.8-13.6-9.1C8.3,56,8.8,60.3,9.9,64.3c0,0.2,0.1,0.3,0.1,0.3c0.8,2.6,1.8,5.2,3.1,7.6
	C15.6,66.3,16.3,61.4,22.2,60.9z"/>
<path class="st1" d="M81.3,64.2c1-4.1,1.4-8.3,1.1-12.6c-5,4.4-6.9,7.9-13.5,9.3c6,0.4,6.6,5.4,9.3,11.3c1.3-2.5,2.2-5,3-7.6
	C81.2,64.4,81.2,64.3,81.3,64.2z M84.5,54.2c0.1,0.3,0.2,0.6,0.3,0.8C84.6,54.8,84.5,54.6,84.5,54.2L84.5,54.2z"/>
<path class="st1" d="M42.2,68.3H49c-1-16.5,3.3-28.2,12-42.2c-10-3.4-20.8-3.4-30.9,0C38.8,40.1,43.2,51.8,42.2,68.3z"/>
<path class="st2" d="M40.5,74.3c0-2.1,10.1-2.1,10.1,0s-2.3,3.9-5.1,3.9C42.7,78.2,40.5,76.5,40.5,74.3z"/>
<path class="st0" d="M42,20.2l3.6-8.3c0.4-1.1,1-2.2,1.8-3.1c2.5-2.6,7.7-1.3,9.1,2s-0.3,7.6-3.4,9.4c-3.1,1.9-7.2,1.7-10.6,0.3"/>
<path class="st3" d="M55.7,71.1c0,3.4-20.4,3.4-20.4,0c0-3.4,4.6-6.2,10.2-6.2S55.7,67.7,55.7,71.1z"/>
<g>
	<circle class="st4" cx="27.3" cy="61.3" r="9.4"/>
	<g>
		<circle class="st5" cx="27.3" cy="62.2" r="5.8"/>
		<circle class="st4" cx="25.5" cy="57.7" r="3"/>
	</g>
</g>
<g>
	<circle class="st4" cx="63.7" cy="61.3" r="9.4"/>
	<g>
		<circle class="st5" cx="63.7" cy="62.2" r="5.8"/>
		<circle class="st4" cx="65.4" cy="57.7" r="3"/>
	</g>
</g>
</svg>
