<svg id="background" xmlns="http://www.w3.org/2000/svg" viewBox="0 0 91.53 98.66"><defs><style>.cls-1{fill:#73d3dd;}.cls-2{fill:#91f9f6;}.cls-3{fill:#f9ae40;}.cls-4{fill:#f7eb32;}.cls-5{fill:#3b3e43;}.cls-6{fill:#fff;}</style></defs><title>animalavatars</title><ellipse class="cls-1" cx="45.72" cy="57.72" rx="45.72" ry="40.94"/><path class="cls-2" d="M864.08,707.26c-7.74-1.52-10-5.56-16-10.69a47.58,47.58,0,0,0,1.58,14.85c0,0.15.09,0.29,0.13,0.43a42.07,42.07,0,0,0,3.59,8.91C856.38,713.64,857.12,707.9,864.08,707.26Z" transform="translate(-846.06 -644.39)"/><path class="cls-2" d="M933.64,711.23A47.58,47.58,0,0,0,935,696.36c-5.9,5.23-8.14,9.3-15.86,10.94,7,0.53,7.8,6.26,10.94,13.33a42.08,42.08,0,0,0,3.45-9C933.56,711.52,933.6,711.37,933.64,711.23Zm3.67-11.7q0.15,0.49.28,1Q937.46,700,937.31,699.52Z" transform="translate(-846.06 -644.39)"/><path class="cls-2" d="M887.62,716.08h8c-1.13-19.43,3.92-33.16,14.13-49.72a57.17,57.17,0,0,0-36.25,0C883.7,682.92,888.75,696.65,887.62,716.08Z" transform="translate(-846.06 -644.39)"/><path class="cls-3" d="M885.65,723.12c0-2.52,11.91-2.52,11.91,0s-2.67,4.57-6,4.57S885.65,725.64,885.65,723.12Z" transform="translate(-846.06 -644.39)"/><path class="cls-1" d="M887.39,659.47l4.15-9.75a11.76,11.76,0,0,1,2.13-3.68c3-3.1,9-1.55,10.7,2.39s-0.35,8.89-4.05,11.11-8.48,2-12.45.34" transform="translate(-846.06 -644.39)"/><path class="cls-4" d="M903.61,719.43c0,4-24,4-24,0s5.37-7.31,12-7.31S903.61,715.39,903.61,719.43Z" transform="translate(-846.06 -644.39)"/><circle class="cls-5" cx="24.15" cy="63.51" r="5.79"/><circle class="cls-6" cx="22.42" cy="58.96" r="3.04"/><circle class="cls-5" cx="67.03" cy="63.51" r="5.79"/><circle class="cls-6" cx="68.77" cy="58.96" r="3.04"/></svg>