<?xml version="1.0" encoding="utf-8"?>
<!-- Generator: Adobe Illustrator 19.2.1, SVG Export Plug-In . SVG Version: 6.00 Build 0)  -->
<svg version="1.1" id="background" xmlns="http://www.w3.org/2000/svg" xmlns:xlink="http://www.w3.org/1999/xlink" x="0px" y="0px"
	 viewBox="0 0 91.4 92.7" style="enable-background:new 0 0 91.4 92.7;" xml:space="preserve">
<style type="text/css">
	.st0{fill:#0DB78B;}
	.st1{fill:#FFFFFF;}
	.st2{fill:#3B3E43;}
	.st3{fill:#262262;}
	.st4{fill:none;stroke:#035142;stroke-width:4;stroke-linecap:round;stroke-miterlimit:10;}
	.st5{fill:#057F68;}
</style>
<title>avatar.lizardblue</title>
<ellipse class="st0" cx="46.7" cy="50.6" rx="35.5" ry="31.8"/>
<ellipse class="st1" cx="31" cy="47.7" rx="9.3" ry="11.7"/>
<ellipse class="st2" cx="31" cy="47.7" rx="5.2" ry="6.7"/>
<ellipse class="st1" cx="33.6" cy="42.5" rx="3.6" ry="4.3"/>
<ellipse class="st1" cx="63.3" cy="47.7" rx="9.2" ry="11.7"/>
<ellipse class="st2" cx="63.3" cy="47.7" rx="5.2" ry="6.7"/>
<ellipse class="st1" cx="65.7" cy="42.5" rx="3.6" ry="4.3"/>
<ellipse class="st3" cx="45" cy="60.7" rx="1.6" ry="2.6"/>
<ellipse class="st3" cx="49.8" cy="60.7" rx="1.6" ry="2.6"/>
<path class="st4" d="M63.5,67.6c0,4-7.4,7.2-16.5,7.2s-16.5-3.2-16.5-7.2"/>
<path class="st5" d="M46.2,10.4c4.2-0.1,10.7,10.2,10.7,10.2H36.1C36.1,20.6,41.8,10.4,46.2,10.4z"/>
<path class="st5" d="M46.6,34.2c0,0,4.6-0.9,10.4-13.8c-6.6-3-14.3-3-20.9,0C41.6,33.9,46.6,34.2,46.6,34.2z"/>
</svg>
