<svg id="background" xmlns="http://www.w3.org/2000/svg" viewBox="0 0 90 108.27"><defs><style>.cls-1{fill:#babcbe;}.cls-2{fill:#fff;}.cls-3{fill:#3d342f;}</style></defs><title>avatar.wolf</title><path class="cls-1" d="M1238.78,396.67c2.85,7.82-14.51,42.68-14.51,42.68s0.21-.7-8.87-33.52c-3.29-13.52,3.44-30.7,4.72-31.48S1235.93,388.85,1238.78,396.67Z" transform="translate(-1209.75 -374.32)"/><path class="cls-1" d="M1271,395.84c-3.24,7.67,12.37,43.35,12.37,43.35s-0.17-.71,10.53-33c4-13.34-1.91-30.84-3.14-31.68S1274.27,388.17,1271,395.84Z" transform="translate(-1209.75 -374.32)"/><path class="cls-1" d="M1292.25,432.28c2,6.47,7.5,11.84,7.5,11.84s-5.67,4.67-5.28,7.19c0.36,2.33,4.41,13.78,4.41,13.78s-27.56,17.5-45.14,17.5c-15.33,0-42.23-17.63-42.23-17.63s5.89-10.9,4.62-14.22c-0.81-2.12-6.36-6.49-6.36-6.49s5.11-6.81,5.65-10.56c3.5-24.1,14.42-39.57,41.42-39.57C1290.12,394.13,1287.92,418.27,1292.25,432.28Z" transform="translate(-1209.75 -374.32)"/><circle class="cls-2" cx="62.88" cy="55.54" r="9.46"/><circle class="cls-3" cx="62.49" cy="55.62" r="5.63"/><circle class="cls-2" cx="28.83" cy="55.47" r="9.46"/><circle class="cls-3" cx="28.73" cy="56.1" r="5.63"/><path class="cls-3" d="M1267.47,449.31c0,2.37-9.14,6.18-12.33,6.18s-12.72-3.69-12.72-6.06,5.34-4.29,11.93-4.29S1267.47,446.94,1267.47,449.31Z" transform="translate(-1209.75 -374.32)"/><path class="cls-3" d="M1255.33,472.59a20.53,20.53,0,0,1-12.06-4.29,0.92,0.92,0,0,1,1.2-1.4h0c0.41,0.35,10.17,8.42,20.77.26a0.92,0.92,0,1,1,1.13,1.46A17.78,17.78,0,0,1,1255.33,472.59Z" transform="translate(-1209.75 -374.32)"/><rect class="cls-3" x="44.31" y="78.68" width="2.31" height="19.37"/></svg>