<svg id="background" xmlns="http://www.w3.org/2000/svg" viewBox="0 0 114.16 92.36"><defs><style>.cls-1{fill:#e0dcd3;}.cls-2{fill:#bab7b0;}.cls-3{fill:#fff;}.cls-4{fill:#3b3e43;}</style></defs><title>avatar.racoon</title><path class="cls-1" d="M1446.12,692.4c19.83,36.67-8.31,48.51-54,48.51-52,0-61.61-14.72-48.41-48.92,11.33-29.35,31.41-33,49.44-33S1431.87,666,1446.12,692.4Z" transform="translate(-1338.41 -648.54)"/><path class="cls-2" d="M1442.41,718.51c-4.7,7.79-17.16,9.91-31.83,11.46-7.79-4.7-9.35-32.43-7.43-41.32,2.06-9.53,11.5-16.82,24.08-6.9C1434.37,687.37,1447.11,710.71,1442.41,718.51Z" transform="translate(-1338.41 -648.54)"/><path class="cls-2" d="M1348.41,719.79c4.7,7.79,23.72,10,33.12,11.07,7.8-4.7,10.6-31.54,8.11-43.64-1.83-8.91-15.32-18.54-27.42-5.28S1343.71,712,1348.41,719.79Z" transform="translate(-1338.41 -648.54)"/><circle class="cls-3" cx="81.41" cy="47.87" r="8.32"/><circle class="cls-4" cx="81.41" cy="47.94" r="4.21"/><circle class="cls-3" cx="82.67" cy="44.63" r="2.21"/><circle class="cls-3" cx="32.64" cy="45.76" r="8.32"/><circle class="cls-4" cx="32.64" cy="45.83" r="4.21"/><circle class="cls-3" cx="31.38" cy="42.53" r="2.21"/><path class="cls-3" d="M1422.48,721.08c0,8.53-16,15.45-29.83,15.45s-25-6.92-25-15.45,11.21-15.45,25-15.45S1422.48,712.55,1422.48,721.08Z" transform="translate(-1338.41 -648.54)"/><path class="cls-4" d="M1405.43,720.05c0,4-4.65,8.95-10.39,8.95s-10.39-5-10.39-8.95,4.65-7.21,10.39-7.21S1405.43,716.07,1405.43,720.05Z" transform="translate(-1338.41 -648.54)"/><ellipse class="cls-3" cx="1399.08" cy="717.2" rx="1.79" ry="2.81" transform="translate(-978.95 1248.05) rotate(-75.74)"/><path class="cls-1" d="M1354,649.07c-7.55,3.65.28,27.81,0.28,27.81l25.58-15.09S1361.57,645.43,1354,649.07Z" transform="translate(-1338.41 -648.54)"/><path class="cls-2" d="M1357.1,652.61c-5.07,2.45.19,18.68,0.19,18.68l17.19-10.14S1362.18,650.16,1357.1,652.61Z" transform="translate(-1338.41 -648.54)"/><path class="cls-1" d="M1436.84,649.07c7.55,3.65-.28,27.81-0.28,27.81L1411,661.79S1429.29,645.43,1436.84,649.07Z" transform="translate(-1338.41 -648.54)"/><path class="cls-2" d="M1433.76,652.61c5.08,2.45-.18,18.68-0.18,18.68l-17.19-10.14S1428.68,650.16,1433.76,652.61Z" transform="translate(-1338.41 -648.54)"/></svg>