<svg id="background" xmlns="http://www.w3.org/2000/svg" viewBox="0 0 98.47 101.66"><defs><style>.cls-1{fill:#e9351e;}.cls-2{fill:#feb913;}.cls-3{fill:#f58b22;}.cls-4{fill:#fff;}.cls-5{fill:#221e1d;}.cls-6{fill:#fdda0e;}</style></defs><title>avatar.robot</title><path class="cls-1" d="M868,1092c0.91,0.56,1.77,1,2.59,1.48h3v-42.06C868.26,1054.58,838.06,1073.67,868,1092Z" transform="translate(-843.12 -995.59)"/><path class="cls-1" d="M914.42,1093.53c0.82-.44,1.68-0.93,2.59-1.48,30-18.37-.24-37.46-5.6-40.58v42.06h3Z" transform="translate(-843.12 -995.59)"/><rect class="cls-2" x="9.05" y="33.43" width="14.22" height="4.7"/><ellipse class="cls-1" cx="6.25" cy="35.78" rx="6.25" ry="6.2"/><rect class="cls-2" x="75.2" y="33.43" width="14.22" height="4.7"/><ellipse class="cls-1" cx="92.22" cy="35.78" rx="6.25" ry="6.2"/><path class="cls-2" d="M925,1039.49a12.87,12.87,0,0,1-12.93,12.82H872.42a12.87,12.87,0,0,1-12.93-12.82v-16.66A12.87,12.87,0,0,1,872.42,1010h39.64A12.87,12.87,0,0,1,925,1022.82v16.66Z" transform="translate(-843.12 -995.59)"/><rect class="cls-3" x="16.38" y="29.37" width="65.5" height="11.11"/><ellipse class="cls-4" cx="872.23" cy="1030.18" rx="8.62" ry="8.55" transform="translate(-875.26 -967.5) rotate(-1.81)"/><ellipse class="cls-5" cx="872.23" cy="1030.18" rx="5.6" ry="5.55" transform="translate(-875.26 -967.49) rotate(-1.81)"/><ellipse class="cls-4" cx="874.15" cy="1029.69" rx="1.29" ry="1.28" transform="translate(-875.15 -967.52) rotate(-1.81)"/><ellipse class="cls-4" cx="912.94" cy="1030.18" rx="8.62" ry="8.55" transform="translate(-875.25 -966.19) rotate(-1.81)"/><ellipse class="cls-5" cx="912.94" cy="1030.18" rx="5.6" ry="5.55" transform="matrix(1, -0.03, 0.03, 1, -875.24, -966.21)"/><ellipse class="cls-4" cx="914.86" cy="1029.69" rx="1.29" ry="1.28" transform="translate(-875.12 -966.24) rotate(-1.81)"/><polygon class="cls-1" points="49.79 29.79 45.91 40.47 54.53 40.47 49.79 29.79"/><path class="cls-5" d="M909.84,1040.34a1.08,1.08,0,0,0-1.42-.56c-17.34,7.37-30.35.14-30.49,0.06a1.08,1.08,0,0,0-1.47.39,1.06,1.06,0,0,0,.39,1.46,33.56,33.56,0,0,0,15.74,3.59,42.4,42.4,0,0,0,16.68-3.53A1.06,1.06,0,0,0,909.84,1040.34Z" transform="translate(-843.12 -995.59)"/><ellipse class="cls-6" cx="38.07" cy="19.54" rx="2.59" ry="2.56"/><ellipse class="cls-6" cx="45.53" cy="19.54" rx="2.59" ry="2.56"/><ellipse class="cls-6" cx="53" cy="19.54" rx="2.59" ry="2.56"/><ellipse class="cls-6" cx="60.47" cy="19.54" rx="2.59" ry="2.56"/><path class="cls-2" d="M917.43,1091.53c13.55-11-6-39.22-6-39.22H874s-21.17,29.32-7.1,39.22C877.22,1098.8,907.63,1099.5,917.43,1091.53Z" transform="translate(-843.12 -995.59)"/><path class="cls-3" d="M918.15,1072a89.86,89.86,0,0,0-6.69-19.66H874a94.73,94.73,0,0,0-7.1,19.66h51.28Z" transform="translate(-843.12 -995.59)"/><path class="cls-3" d="M901.68,1060.39H883.26a11.34,11.34,0,1,0,0,22.68h18.43A11.34,11.34,0,1,0,901.68,1060.39Z" transform="translate(-843.12 -995.59)"/><path class="cls-6" d="M910.53,1071.73a8.81,8.81,0,0,1-8.85,8.78H883.26a8.81,8.81,0,0,1-8.85-8.78h0a8.81,8.81,0,0,1,8.85-8.78h18.43a8.81,8.81,0,0,1,8.85,8.78h0Z" transform="translate(-843.12 -995.59)"/><path class="cls-1" d="M908,1010.1v-0.47a14.11,14.11,0,0,0-14.17-14h-3.78a14.11,14.11,0,0,0-14.17,14v0.47H908Z" transform="translate(-843.12 -995.59)"/></svg>