<svg id="background" xmlns="http://www.w3.org/2000/svg" viewBox="0 0 91.63 93.32"><defs><style>.cls-1{fill:#af5b2b;}.cls-2{fill:#4b190d;}.cls-3{fill:#c2986b;}.cls-4{fill:#8a603c;}.cls-5{fill:#f39e2b;}.cls-6{fill:#f6f3cf;}.cls-7{fill:#f3dbbd;}.cls-8{fill:#3b3e43;}.cls-9{fill:#fff;}</style></defs><title>avatar.bear</title><circle class="cls-1" cx="74.91" cy="16.72" r="16.72"/><circle class="cls-2" cx="74.91" cy="16.72" r="9.64"/><circle class="cls-3" cx="74.91" cy="16.72" r="16.72"/><circle class="cls-4" cx="74.91" cy="16.72" r="9.64"/><path class="cls-5" d="M1217.44,1004.49v59.23h0l0,8.45v2h0l0,13.69" transform="translate(-1171.26 -996.98)"/><line class="cls-6" x1="46.17" y1="92.46" x2="46.23" y2="66.75"/><path class="cls-2" d="M1217.44,1010.67h0Z" transform="translate(-1171.26 -996.98)"/><path class="cls-2" d="M1217.4,1010.67h0Z" transform="translate(-1171.26 -996.98)"/><circle class="cls-1" cx="17.3" cy="16.72" r="16.72"/><circle class="cls-2" cx="17.3" cy="16.72" r="9.64"/><circle class="cls-3" cx="17.3" cy="16.72" r="16.72"/><circle class="cls-4" cx="17.3" cy="16.72" r="9.64"/><path class="cls-5" d="M1217.29,1004.49v59.23h0l0,8.45v2h0l0,13.69" transform="translate(-1171.26 -996.98)"/><path class="cls-3" d="M1258.68,1047c0-22.17-10-42.54-41.29-42.54l0,0.47v-0.47c-31.34,0-41.29,20.37-41.29,42.54-2.33,9.51-6.41,9.24-4.12,21.38s15.3,16.64,24.79,16.9v-8c0-6,9.74-1.86,10.4-3.3,6.88,2.72,3.13-1.1,4.5,1.78a11.71,11.71,0,0,1,5.71-1.53V1074l0,0.21a11.71,11.71,0,0,1,5.71,1.53c1.37-2.88-5.65,3.62,1.24.9,0.66,1.45,13.66-5.4,13.66.62v8c8.14,0,23.06-1.87,23.83-17.37C1262.49,1054.47,1261,1056.53,1258.68,1047Z" transform="translate(-1171.26 -996.98)"/><line class="cls-6" x1="46.04" y1="92.46" x2="45.98" y2="66.75"/><path class="cls-2" d="M1217.28,1010.67h0Z" transform="translate(-1171.26 -996.98)"/><path class="cls-2" d="M1217.32,1010.67h0Z" transform="translate(-1171.26 -996.98)"/><path class="cls-7" d="M1230.92,1062.81c-3.61-1.14-6.45-2.58-13.55.92-7.11-3.5-9.94-2.06-13.55-.92-1.69.7-7.08,3.53-7.08,14.44,0,5.3-.12,8.52-0.12,9.23,6.38,2.28,8.7,3.82,21.33,3.82s13.31-1.64,19.69-3.92c0-.71.38-3.83,0.38-9.13C1238,1066.34,1232.61,1063.51,1230.92,1062.81Z" transform="translate(-1171.26 -996.98)"/><path class="cls-8" d="M1226.85,1061.86c0,3.44-4,7.73-8.89,7.73s-8.89-4.29-8.89-7.73,4-6.23,8.89-6.23S1226.85,1058.42,1226.85,1061.86Z" transform="translate(-1171.26 -996.98)"/><path class="cls-8" d="M1209.59,1079.07c-2.18,0-4.6-1.08-7.22-3.22a0.82,0.82,0,0,1,1-1.26c3.06,2.5,5.7,3.36,7.84,2.55,4.26-1.62,5.52-9.25,5.53-9.32a0.82,0.82,0,0,1,1.61.26c-0.05.35-1.43,8.64-6.57,10.59A6.21,6.21,0,0,1,1209.59,1079.07Z" transform="translate(-1171.26 -996.98)"/><path class="cls-8" d="M1224.75,1079.78a5.15,5.15,0,0,1-1.94-.37c-4.88-2-5.8-11-5.83-11.39a0.82,0.82,0,1,1,1.62-.15c0.23,2.35,1.53,8.72,4.82,10,1.8,0.72,4.1-.11,6.83-2.48a0.82,0.82,0,1,1,1.07,1.23C1228.91,1078.74,1226.71,1079.78,1224.75,1079.78Z" transform="translate(-1171.26 -996.98)"/><path class="cls-9" d="M1223.75,1060c-0.21.83-1.42,1.22-2.71,0.9s-2.16-1.27-2-2.1,1.42-1.22,2.71-.9S1224,1059.17,1223.75,1060Z" transform="translate(-1171.26 -996.98)"/><circle class="cls-9" cx="32.18" cy="44.57" r="7.1"/><circle class="cls-8" cx="32.18" cy="44.63" r="3.59"/><circle class="cls-9" cx="31.1" cy="41.81" r="1.89"/><circle class="cls-9" cx="62.11" cy="44.37" r="7.1"/><circle class="cls-8" cx="62.11" cy="44.43" r="3.59"/><circle class="cls-9" cx="63.19" cy="41.61" r="1.89"/></svg>