<?xml version="1.0" encoding="utf-8"?>
<!-- Generator: Adobe Illustrator 19.2.1, SVG Export Plug-In . SVG Version: 6.00 Build 0)  -->
<svg version="1.1" id="background" xmlns="http://www.w3.org/2000/svg" xmlns:xlink="http://www.w3.org/1999/xlink" x="0px" y="0px"
	 viewBox="0 0 110.4 99.4" style="enable-background:new 0 0 110.4 99.4;" xml:space="preserve">
<style type="text/css">
	.st0{fill:#5C474A;}
	.st1{fill:#EFC468;}
	.st2{fill:#F1D577;}
	.st3{fill:#EEE1CB;}
	.st4{fill:#F26B6F;}
	.st5{fill:#AF695D;}
	.st6{fill:#FFFFFF;}
	.st7{fill:#3D342F;}
</style>
<title>avatar.rabbitred</title>
<path class="st0" d="M41.4,35.1c-4.6-1.6-3.5-9.8,0.9-5.7c-1.5-1.6-4.7-6.7-2.5-8.8c3-2.9,7.1,2,9.1,3.7c-0.9-2.8,1.8-5.1,4.5-5.3
	c3.3-0.2,3.8,3.9,4.2,6.5c0.5-3.1,3.5-2.9,4.4-0.2c0.3-3.2,3.2-6.3,6.7-5.6c4.5,0.9,3.4,5.1,3.4,8.3c4-0.9,4.7,4.2,1.5,4.1
	c1.4,0.7-0.1,1.8-0.8,2.5c-0.4,0.4-1,0.4-1.4,0.8C71,36,70.9,37.3,70.2,38c-2.6,3.1-9.1,5.2-13.1,3.8L41.4,35.1z"/>
<g>
	<path class="st1" d="M43.4,8.4c0,0-6.4-1.9-2.6-5.4c3.9-3.5,7.8-1.7,8.3,0.1c0.4,1.8-2.3,4-2.3,4l6,27.6l-4.7-0.1L43.4,8.4z"/>
	<path class="st1" d="M71.9,8.9c0,0,6.5-1.7,2.8-5.3c-3.7-3.6-7.8-1.9-8.3-0.1c-0.5,1.8,2.2,4.1,2.2,4.1l-6.9,27.3l4.7,0.1L71.9,8.9
		z"/>
</g>
<g>
	<g>
		<path class="st2" d="M91.2,33.1c-5.2-7.5-14.1,4.2-14.1,4.2s-23.2-12.7-42.7,1.3c0,0-6.7-13.1-14.9-6.1c-8.2,7,6.4,17.1,10.4,17.1
			c0,0-4.7,16.6-2.8,30.4c2.5-4.3,11.7-17.5,29.3-17.2c16.9,0.3,26.7,13,29.9,18c0.2-1.7,0.2-3.5,0.1-5.5
			c-1.3-25.4-3.5-27.5-3.5-27.5S96.5,40.5,91.2,33.1z"/>
		<path class="st3" d="M56.5,62.8c-17.6-0.3-26.8,12.9-29.3,17.2c1.2,8.8,5.1,16.4,14.7,17.8c22.6,3.3,42.6,3,44.5-17.1
			C83.2,75.9,73.5,63.1,56.5,62.8z"/>
	</g>
	<g>
		<path class="st0" d="M32.6,42.3c0,0-0.4-0.6-0.6-0.9c-0.2-0.2-0.4-0.6-0.7-1c-0.3-0.4-0.7-0.9-1.1-1.3c-0.2-0.2-0.4-0.5-0.7-0.7
			c-0.2-0.2-0.5-0.5-0.8-0.7c-0.3-0.2-0.5-0.4-0.8-0.6c-0.3-0.2-0.6-0.4-0.8-0.5c-0.3-0.2-0.6-0.3-0.8-0.4c-0.3-0.1-0.5-0.2-0.8-0.3
			c-0.2-0.1-0.5-0.1-0.7-0.1c-0.2-0.1-0.4,0-0.5,0c-0.3,0-0.5,0-0.5,0s0.2,0,0.5-0.1c0.2,0,0.3-0.1,0.6,0c0.2,0,0.5,0,0.7,0.1
			c0.3,0.1,0.5,0.1,0.8,0.2c0.3,0.1,0.6,0.2,0.9,0.3c0.3,0.1,0.6,0.3,0.9,0.5c0.3,0.2,0.6,0.4,0.9,0.6c0.3,0.2,0.6,0.4,0.9,0.6
			c0.3,0.2,0.5,0.4,0.8,0.7c0.5,0.4,1,0.9,1.3,1.3c0.4,0.4,0.7,0.7,0.9,1c0.2,0.2,0.3,0.4,0.3,0.4L32.6,42.3z"/>
		<path class="st0" d="M79.8,42.3c0,0,0.4-0.6,0.6-0.9c0.2-0.2,0.4-0.6,0.7-1c0.3-0.4,0.7-0.9,1.1-1.3c0.2-0.2,0.4-0.5,0.7-0.7
			c0.2-0.2,0.5-0.5,0.8-0.7c0.3-0.2,0.5-0.4,0.8-0.6c0.3-0.2,0.6-0.4,0.8-0.5c0.3-0.2,0.6-0.3,0.8-0.4c0.3-0.1,0.5-0.2,0.8-0.3
			c0.2-0.1,0.5-0.1,0.7-0.1c0.2-0.1,0.4,0,0.5,0c0.3,0,0.5,0,0.5,0s-0.2,0-0.5-0.1c-0.2,0-0.3-0.1-0.6,0c-0.2,0-0.5,0-0.7,0.1
			c-0.3,0.1-0.5,0.1-0.8,0.2c-0.3,0.1-0.6,0.2-0.9,0.3c-0.3,0.1-0.6,0.3-0.9,0.5c-0.3,0.2-0.6,0.4-0.9,0.6c-0.3,0.2-0.6,0.4-0.9,0.6
			c-0.3,0.2-0.5,0.4-0.8,0.7c-0.5,0.4-1,0.9-1.3,1.3c-0.4,0.4-0.7,0.7-0.9,1c-0.2,0.2-0.3,0.4-0.3,0.4L79.8,42.3z"/>
	</g>
</g>
<path class="st4" d="M49.1,89.1c0,0,6.5,1,12.5-4.8c4.5-4.3,10.2,0.9,5.1,5.1C61.7,93.4,54.2,91.2,49.1,89.1z"/>
<g>
	
		<ellipse transform="matrix(1.726548e-002 -0.9999 0.9999 1.726548e-002 -28.5486 121.1472)" cx="47.4" cy="75.1" rx="2.1" ry="1.6"/>
	
		<ellipse transform="matrix(1.726083e-002 -0.9999 0.9999 1.726083e-002 -9.1496 139.8959)" cx="66.6" cy="74.6" rx="2.1" ry="1.6"/>
</g>
<path class="st5" d="M67,86"/>
<circle class="st6" cx="68.6" cy="52.4" r="6.3"/>
<circle class="st7" cx="68.3" cy="52.6" r="3.8"/>
<circle class="st6" cx="69.6" cy="49.4" r="1.8"/>
<circle class="st6" cx="46.9" cy="52.2" r="6.3"/>
<circle class="st7" cx="46.2" cy="52.6" r="3.8"/>
<circle class="st6" cx="45" cy="49.4" r="1.8"/>
</svg>
