<?xml version="1.0" encoding="utf-8"?>
<!-- Generator: Adobe Illustrator 19.2.1, SVG Export Plug-In . SVG Version: 6.00 Build 0)  -->
<svg version="1.1" id="background" xmlns="http://www.w3.org/2000/svg" xmlns:xlink="http://www.w3.org/1999/xlink" x="0px" y="0px"
	 viewBox="0 0 121.1 98.2" style="enable-background:new 0 0 121.1 98.2;" xml:space="preserve">
<style type="text/css">
	.st0{fill:#CCC8C0;}
	.st1{fill:#E0DCD3;stroke:#CCC8C0;stroke-width:2;stroke-miterlimit:10;}
	.st2{fill:#F7F1E6;stroke:#BABCBE;stroke-width:2;stroke-miterlimit:10;}
	.st3{fill:#FFFFFF;}
	.st4{fill:#3B3E43;}
</style>
<title>avatar.elephant</title>
<path class="st0" d="M40.9,8.9c-0.5-0.8-1.1-1.4-1.8-2.1c-3.4-3.2-7.7-5.3-12.3-6C17.5-0.6,2.3,8,0.3,35.9s9.2,30.6,18,30.6
	c7.3,0,15.7-5.1,22.1-12.4C44.4,38.9,40.9,8.9,40.9,8.9z"/>
<path class="st0" d="M80.7,9.2c0.5-0.8,1.1-1.4,1.8-2.1c3.4-3.2,7.7-5.3,12.3-6c9.3-1.4,23.9,6.6,25.9,34.5s-8.6,31.3-17.3,31.3
	c-7.3,0-15.7-5.1-22.1-12.4C77.3,39.2,80.7,9.2,80.7,9.2z"/>
<path class="st1" d="M96.5,90.5c-0.5-1.8,3.2-2.2,4-8s-4-0.2-4-0.2s-3.4,4-17.2,3.1c-12.7-0.8-9.2-16-9.1-21.1c0-1.5,0.5-2.8,1-3
	s1.7,0.5,2.5,1.8c1.9,3.1,3.6,8.1,4.6,11.2c0.4,1.4,1.5,1.6,2,0.2c1.7-4.6,0.4-10.9-0.7-15c-0.4-1.4,0.5-2.9,1-4.1
	C93,23.9,80.8,9,80.8,9.1c-0.7-0.5-1.4-1-2-1.6C68.4-1.1,53.3-1.2,42.8,7.4c-0.9,0.7-1.5,1.3-1.8,1.5C28,32.5,39.7,54.1,40.2,54.5
	s0.8,0.7,0.7,0.7c-0.4,0.8-0.7,1.6-1,2.5c-1.3,3.9-3.2,11.4-1.3,16.7c0.5,1.4,1.6,1.2,2-0.2c1-3.4,3-9.2,5.2-12.1
	c0.9-1.2,1.9-0.5,1.8,1c-0.3,9-1.4,17.2,11.9,27.8c11.5,9.2,21,6,31.9,5.3c1.5-0.1,3.5-0.5,4.9-0.3c1.1,0.2,2.3,0.3,3.4,0.2
	C103.9,95.8,97,92.3,96.5,90.5z"/>
<path class="st2" d="M43.8,52.2l-3.7,2.5c-1.6,5.3-2.3,10.8-2.3,16.3c2.7,12,3.5,2.4,4.8-1.4c1.1-2.6,2.7-5,4.8-7L43.8,52.2z"/>
<path class="st2" d="M79,54.6l-4.4-2.5l-4.1,10.3c0,0,4.1,3.2,5.6,7s2.5,13.4,5.6,1.4C81.8,65.4,80.9,59.9,79,54.6z"/>
<g>
	<circle class="st3" cx="50.9" cy="26.4" r="7.5"/>
	<g>
		<circle class="st4" cx="50.9" cy="27.1" r="4.6"/>
		<circle class="st3" cx="49.5" cy="23.5" r="2.4"/>
	</g>
</g>
<g>
	<circle class="st3" cx="69.7" cy="26.4" r="7.5"/>
	<g>
		<circle class="st4" cx="69.7" cy="27.1" r="4.6"/>
		<circle class="st3" cx="71" cy="23.5" r="2.4"/>
	</g>
</g>
</svg>
