<svg id="background" xmlns="http://www.w3.org/2000/svg" viewBox="0 0 66.1 107.29"><defs><style>.cls-1{fill:#ccc8c0;}.cls-2{fill:#fff;}.cls-3{fill:#e0dcd3;}.cls-4{fill:#313439;}.cls-5{fill:#f7f1e6;}.cls-6{fill:#3b3e43;}</style></defs><title>avatar.horsegrey</title><ellipse class="cls-1" cx="906.66" cy="1192.26" rx="29.52" ry="9.76" transform="translate(-1307.42 656.02) rotate(-77.5)"/><path class="cls-2" d="M904.61,1190.73c-1.78,11.51-1.76,21.53.89,22.37s5.55-7.81,7.32-19.32a64.45,64.45,0,0,0-.89-22.37A49.38,49.38,0,0,0,904.61,1190.73Z" transform="translate(-853.88 -1163.44)"/><ellipse class="cls-1" cx="867.2" cy="1192.26" rx="9.76" ry="29.52" transform="translate(-1091.32 -947.55) rotate(-12.5)"/><path class="cls-2" d="M867.35,1190.73c1.19,11.51,1.18,21.53-.6,22.37s-3.72-7.81-4.92-19.32a95.32,95.32,0,0,1,.6-22.37A64.53,64.53,0,0,1,867.35,1190.73Z" transform="translate(-853.88 -1163.44)"/><path class="cls-3" d="M917.82,1228.35c1.36-22.15-13-38.9-30.89-39.17-17.94.27-32.25,17-30.89,39.17,0.55,8.9-2.16,17.79-2.16,25S861,1268,886.18,1268h1.49c25.14,0,32.3-7.33,32.3-14.59S917.27,1237.25,917.82,1228.35Z" transform="translate(-853.88 -1163.44)"/><path class="cls-4" d="M887.4,1236.23h-0.94c-18,0-32.58,7.72-32.58,17.25s14.58,17.25,32.58,17.25h0.94c18,0,32.58-7.72,32.58-17.25S905.39,1236.23,887.4,1236.23Z" transform="translate(-853.88 -1163.44)"/><circle class="cls-5" cx="44.9" cy="86.05" r="4.38"/><circle class="cls-5" cx="21.2" cy="86.05" r="4.38"/><path class="cls-4" d="M871.45,1203.79l6.21-16.54a20.72,20.72,0,0,1,3.18-6.25c4.48-5.26,13.39-2.63,16,4.05s-0.53,15.09-6.06,18.85-12.69,3.42-18.63.57" transform="translate(-853.88 -1163.44)"/><ellipse class="cls-1" cx="32.76" cy="56.48" rx="2.02" ry="9.29"/><circle class="cls-2" cx="45.52" cy="57.3" r="7.58"/><circle class="cls-6" cx="45.45" cy="57.07" r="4.38"/><circle class="cls-2" cx="47.94" cy="53.54" r="2.8"/><circle class="cls-2" cx="20.56" cy="57.3" r="7.58"/><circle class="cls-6" cx="20.65" cy="57.07" r="4.38"/><circle class="cls-2" cx="18.16" cy="53.54" r="2.8"/></svg>