<?xml version="1.0" encoding="utf-8"?>
<!-- Generator: Adobe Illustrator 19.2.1, SVG Export Plug-In . SVG Version: 6.00 Build 0)  -->
<svg version="1.1" id="background" xmlns="http://www.w3.org/2000/svg" xmlns:xlink="http://www.w3.org/1999/xlink" x="0px" y="0px"
	 viewBox="0 0 98.2 100.8" style="enable-background:new 0 0 98.2 100.8;" xml:space="preserve">
<style type="text/css">
	.st0{fill:#D45F26;}
	.st1{fill:#F3DBBD;}
	.st2{fill:#EA692B;}
	.st3{fill:none;}
	.st4{fill:#3B3E43;}
	.st5{fill:#FFFFFF;}
	.st6{clip-path:url(#SVGID_2_);}
</style>
<title>avatar.fox</title>
<path class="st0" d="M63,39.2C70.2,10.2,93.8,0,93.8,0s16.9,44.1-15.4,54.6L63,39.2z"/>
<path class="st1" d="M66.5,41.9c9.2-27.6,24-32.4,24-32.4s12.8,26.3-15.3,42.4L66.5,41.9z"/>
<path class="st0" d="M35.2,39.2C28,10.2,4.4,0,4.4,0s-16.9,44.1,15.4,54.6L35.2,39.2z"/>
<path class="st1" d="M31.8,41.9c-9.2-27.6-24-32.4-24-32.4S-5,35.8,23,51.9L31.8,41.9z"/>
<path class="st2" d="M84.8,67.2c0-19.6-15.9-35.5-35.5-35.5h-0.2c-19.6,0-35.5,15.9-35.5,35.5c0,0.5-8.5,10.1-2.7,21.6
	c3.2,6.4,21,13.2,38,13.3c18,0.2,35.2-6.6,38.6-13.3C93.3,77.3,84.8,67.7,84.8,67.2z"/>
<path class="st3" d="M84.8,67.2c0-19.6-15.9-35.5-35.5-35.5h-0.2c-19.6,0-35.5,15.9-35.5,35.5c0,0.5-8.5,10.1-2.7,21.6
	c3.2,6.4,21,13.2,38,13.3c18,0.2,35.2-6.6,38.6-13.3C93.3,77.3,84.8,67.7,84.8,67.2z"/>
<path class="st4" d="M58.4,85.6c0,3.3-3.9,7.5-8.7,7.5s-8.7-4.2-8.7-7.5s3.9-6.1,8.7-6.1S58.4,82.3,58.4,85.6z"/>
<ellipse transform="matrix(0.2467 -0.9691 0.9691 0.2467 -40.6511 114.1088)" class="st5" cx="53.1" cy="83.2" rx="1.5" ry="2.4"/>
<g>
	<defs>
		<path id="SVGID_1_" d="M84.8,67.2c0-19.6-15.9-35.5-35.5-35.5h-0.2c-19.6,0-35.5,15.9-35.5,35.5c0,0.5-8.5,10.1-2.7,21.6
			c3.2,6.4,21,13.2,38,13.3c18,0.2,35.2-6.6,38.6-13.3C93.3,77.3,84.8,67.7,84.8,67.2z"/>
	</defs>
	<clipPath id="SVGID_2_">
		<use xlink:href="#SVGID_1_"  style="overflow:visible;"/>
	</clipPath>
	<g class="st6">
		<ellipse transform="matrix(0.6144 -0.789 0.789 0.6144 -62.5621 52.6823)" class="st1" cx="22.6" cy="90.3" rx="8.4" ry="24.8"/>
		<path class="st1" d="M56.4,104c2.8,3.5,14.2-0.4,25.3-8.5s17.8-17.6,15-21.1S82.5,74.8,71.4,83S53.5,100.6,56.4,104z"/>
	</g>
</g>
<circle class="st5" cx="60.8" cy="62.8" r="7.6"/>
<circle class="st5" cx="38.5" cy="62.8" r="7.6"/>
<circle class="st4" cx="38" cy="63.1" r="4.3"/>
<circle class="st5" cx="35.6" cy="59.7" r="2.7"/>
<circle class="st4" cx="60.8" cy="63.1" r="4.3"/>
<circle class="st5" cx="63.3" cy="59.7" r="2.7"/>
</svg>
