<svg id="Layer_1" data-name="Layer 1" xmlns="http://www.w3.org/2000/svg" xmlns:xlink="http://www.w3.org/1999/xlink" viewBox="0 0 128 116"><defs><style>.cls-1,.cls-7{fill:none;}.cls-2,.cls-4{fill:#fff;}.cls-2,.cls-7,.cls-8{stroke:#26a9e0;stroke-miterlimit:10;stroke-width:4px;}.cls-3{clip-path:url(#clip-path);}.cls-5{fill:#26a9e0;}.cls-6{fill:#66d7ff;}.cls-8{fill:#f7f9f9;}</style><clipPath id="clip-path" transform="translate(-3076 -3835.17)"><circle class="cls-1" cx="3139.56" cy="3893.17" r="56" transform="translate(-1829.42 3324.97) rotate(-44.59)"/></clipPath></defs><title>gallery_button_large</title><circle class="cls-2" cx="3139.56" cy="3893.17" r="56" transform="translate(-4905.42 -510.21) rotate(-44.59)"/><g class="cls-3"><circle class="cls-2" cx="3139.56" cy="3893.17" r="56" transform="translate(-4905.42 -510.21) rotate(-44.59)"/><rect class="cls-2" x="47" y="33.22" width="34" height="50"/><path class="cls-4" d="M3141.47,3880c-2.22-.59-4.93-1.18-6.41,1.18-1.23,2.06-.25,6.18,1,7.65,4.93,6.18,14.3-2.06,9.12-7.65" transform="translate(-3076 -3835.17)"/><path class="cls-5" d="M3141.47,3880l-1.49.05a10.51,10.51,0,0,0-1.59.18,3.25,3.25,0,0,0-1.51.73,2.57,2.57,0,0,0-.48.64l-0.09.2,0,0.1h0l0.06-.11v0l0,0.08-0.11.31a1.14,1.14,0,0,1,0,.15,7.12,7.12,0,0,0,.16,2.14,10.25,10.25,0,0,0,.81,2.35,3.91,3.91,0,0,0,.27.46,0.92,0.92,0,0,0,.12.16l0,0,0.13,0.15L3138,3888a1.4,1.4,0,0,0,.19.16,2.78,2.78,0,0,0,.37.29,3.37,3.37,0,0,0,1.81.64,4.68,4.68,0,0,0,2.06-.42,6.07,6.07,0,0,0,3-2.88,4.81,4.81,0,0,0,.45-1.73,5.77,5.77,0,0,0-.17-1.51,7,7,0,0,0-.35-1l-0.16-.37,0.33,0.22a4.67,4.67,0,0,1,.87.76,5.06,5.06,0,0,1,1,1.62,5.63,5.63,0,0,1,.3,2.57,7.64,7.64,0,0,1-3.53,5.42,7.39,7.39,0,0,1-3.78,1.21,6.82,6.82,0,0,1-4.12-1.24,8.11,8.11,0,0,1-1.5-1.4l-0.13-.15a3.25,3.25,0,0,1-.21-0.26,4.44,4.44,0,0,1-.32-0.49,7.9,7.9,0,0,1-.46-0.93,10.8,10.8,0,0,1-.8-3.54,8.1,8.1,0,0,1,.52-3.53l0.23-.49,0.19-.28,0.17-.26,0.14-.17,0.29-.32a4.69,4.69,0,0,1,1.4-.95,4.63,4.63,0,0,1,2.66-.24,7,7,0,0,1,1.73.56A9.45,9.45,0,0,1,3141.47,3880Z" transform="translate(-3076 -3835.17)"/><polygon class="cls-6" points="79 81.22 48.67 81.22 48.67 62.86 79 58.86 79 81.22"/><rect class="cls-7" x="2" y="33.22" width="34" height="50"/><rect class="cls-6" x="3.83" y="74.22" width="30.33" height="7.36"/><rect class="cls-8" x="92" y="33.22" width="34" height="50"/><polygon class="cls-6" points="124.17 81.58 93.83 81.58 93.83 71.22 124.17 72.22 124.17 81.58"/><path class="cls-4" d="M3196,3894.25c-3.77,1.55-17.72,5.11-20.84-.06-4-6.58,18-1.94,20-7.32,3.24-8.73-15.06-1.13-20.95-.46" transform="translate(-3076 -3835.17)"/><path class="cls-5" d="M3196,3894.25a20.33,20.33,0,0,1-2.77,1.34,35,35,0,0,1-3.34,1.2,34,34,0,0,1-4.51,1.09,21.39,21.39,0,0,1-5.66.31,10.58,10.58,0,0,1-3.31-.81,6.53,6.53,0,0,1-1.69-1.05,6.19,6.19,0,0,1-.74-0.79l-0.17-.22-0.08-.11,0-.06,0,0a0.29,0.29,0,0,1-.09-0.15l-0.19-.34a4.8,4.8,0,0,1-.45-1.19,3.42,3.42,0,0,1,.08-1.67,3.39,3.39,0,0,1,.89-1.43,4.62,4.62,0,0,1,1.08-.78,12.17,12.17,0,0,1,3.69-1.06c2.3-.35,4.53-0.43,6.7-0.6a35.36,35.36,0,0,0,6.12-.76,4.08,4.08,0,0,0,1.79-.83,0.92,0.92,0,0,0,.1-0.14l0.13-.38a1.67,1.67,0,0,0,.09-0.31,2.94,2.94,0,0,0,.06-0.36l0-.17a0.15,0.15,0,0,1,0-.09,0.16,0.16,0,0,0-.07-0.17,2.66,2.66,0,0,0-.8-0.3,10,10,0,0,0-2.52-.13c-1.77.11-3.53,0.36-5.14,0.62-3.24.55-6,1.05-7.93,1.29a19,19,0,0,1-3.07.21l0.77-.23c0.5-.15,1.21-0.42,2.12-0.75,1.82-.67,4.37-1.72,7.58-2.75a34.67,34.67,0,0,1,5.37-1.36,13,13,0,0,1,3.31-.17,5.44,5.44,0,0,1,2.06.6,3.78,3.78,0,0,1,1.76,2.21c0.06,0.22.1,0.45,0.14,0.68s0,0.41,0,.61a5.43,5.43,0,0,1-.14,1.2,3.82,3.82,0,0,1-.11.45l-0.11.38a4.55,4.55,0,0,1-.62,1.27,5.58,5.58,0,0,1-1.86,1.59,10.75,10.75,0,0,1-1.86.75,32.9,32.9,0,0,1-6.92,1c-2.23.14-4.43,0.22-6.44,0.44a10.67,10.67,0,0,0-2.54.55c-0.27.13-.26,0.2-0.19,0s0-.12,0-0.12-0.09-.05.08,0.27c0.38,1.12,1.91,1.87,3.58,2.2a24.79,24.79,0,0,0,5,.36,60.47,60.47,0,0,0,7.85-.78C3194.92,3894.52,3196,3894.25,3196,3894.25Z" transform="translate(-3076 -3835.17)"/><path class="cls-4" d="M3085.26,3893.46c-4-6.58,18-1.94,20-7.32" transform="translate(-3076 -3835.17)"/><path class="cls-5" d="M3085.26,3893.46l-0.22-.19a2.09,2.09,0,0,1-.56-0.65,1.93,1.93,0,0,1-.2-1.6,3.24,3.24,0,0,1,1.35-1.64,8.48,8.48,0,0,1,1.9-.94,15.87,15.87,0,0,1,2.1-.59,31,31,0,0,1,4.44-.57c3-.18,5.84-0.05,7.91-0.14a13.07,13.07,0,0,0,1.38-.14,5,5,0,0,0,1-.28,2.56,2.56,0,0,0,.62-0.39l0.22-.19a2.79,2.79,0,0,1,0,.29,2.15,2.15,0,0,1-.26.84,4.22,4.22,0,0,1-.87,1.09,7.75,7.75,0,0,1-1.44,1,13.3,13.3,0,0,1-1.83.78,18.5,18.5,0,0,1-2.07.56c-0.72.15-1.45,0.28-2.2,0.37s-1.5.15-2.24,0.21c-1.49.09-3,.1-4.29,0.1h-1.89a13.27,13.27,0,0,0-1.54.1,2.64,2.64,0,0,0-1,.26,0.89,0.89,0,0,0-.39.68,2.43,2.43,0,0,0,0,.75Z" transform="translate(-3076 -3835.17)"/></g><circle class="cls-7" cx="3139.56" cy="3893.17" r="56" transform="translate(-4905.42 -510.21) rotate(-44.59)"/></svg>