<?xml version="1.0" encoding="utf-8"?>
<!-- Generator: Adobe Illustrator 19.2.1, SVG Export Plug-In . SVG Version: 6.00 Build 0)  -->
<svg version="1.1" id="Layer_1" xmlns="http://www.w3.org/2000/svg" xmlns:xlink="http://www.w3.org/1999/xlink" x="0px" y="0px"
	 viewBox="0 0 600 700" style="enable-background:new 0 0 600 700;" xml:space="preserve">
<style type="text/css">
	.st0{fill:none;stroke:#000000;stroke-width:7;stroke-miterlimit:10;}
	.st1{fill:none;stroke:#000000;stroke-width:4;stroke-miterlimit:10;}
	.st2{stroke:#000000;stroke-width:2;stroke-miterlimit:10;}
	.st3{fill:none;stroke:#000000;stroke-width:8;stroke-miterlimit:10;}
</style>
<g>
	<g>
		<path d="M175.7,404.4c-24.7,4.4-48.6,14.8-65.3,34.2c-15.7,18.3-23.6,41.7-27.2,65.3c-2,13.1-2.4,26.2-3.3,39.4
			c-0.8,12.1-1.3,24.3-0.4,36.4c1.7,21.7,9.3,48,33.5,53.5c13.4,3,27.8,2,41.3,0.9c13.2-1.1,26.3-2.8,39.3-5.2
			c1.3-0.2,2.5-1.5,2.8-2.8c2.5-9.3,0.8-17.9-5.3-25.5c-5.5-6.9-13.2-11.7-18.6-18.7c-13.9-17.6-7.7-47.5,13.9-55.5
			c12.4-4.6,27.5-6.5,34.7,7c6.6,12.4,6.1,28.5,5.6,42c-0.5,15.8-3,31.7-2.2,47.5c0.1,1.7,1.2,3.5,2.9,3.9c18,3.5,35.9,3.8,53.5-1.4
			c1.8-0.5,2.8-2,2.9-3.9c1.1-10.7-1.3-22.1-2.1-32.7c-1-13.5-2.4-28.1,1-41.4c1-3.9,2.5-8.8,6.3-10.8c3.6-1.9,8.7-0.8,11.5,2
			c3.9,4,5,10.6,5.9,15.9c1.2,7.7,1.3,15.6,1.3,23.4c-0.1,15.8-2.8,32.5-0.1,48.1c0.2,1.3,1.6,2.5,2.8,2.8
			c16.5,3.5,33.1,3.1,49.3-1.7c1.8-0.5,2.9-2.1,2.9-3.9c0.9-19.8-0.8-39.6-1.2-59.3c-0.4-19.1-0.4-39.1,6.5-57.2
			c1.8-4.8-5.9-6.9-7.7-2.1c-6.9,18.2-7.1,38.6-6.8,57.8c0.4,20.3,2.2,40.6,1.3,60.9c1-1.3,2-2.6,2.9-3.9c-14.8,4.5-29.9,5-45.1,1.7
			c0.9,0.9,1.9,1.9,2.8,2.8c-1.1-6.4-0.6-13.3-0.3-19.8c0.3-8.9,0.7-17.9,0.7-26.8c0-13.7,0.9-33.7-9.5-44.4
			c-8.3-8.7-22.5-6.1-28,4.1c-6.6,12.2-5.6,28.6-4.9,42c0.4,8.4,1.2,16.8,2,25.2c0.5,5.7,1.4,11.6,0.8,17.3c1-1.3,2-2.6,2.9-3.9
			c-16.3,4.9-32.7,4.7-49.3,1.4c1,1.3,2,2.6,2.9,3.9c-0.8-15,1.6-30.2,2.1-45.2c0.6-15.5,0.9-32.9-6-47.2s-21.4-17.9-36-14.4
			c-11.1,2.6-21.2,7.8-27.8,17.3c-6.7,9.5-8.7,21.6-6.9,32.9c1.9,12.5,8.1,21.3,17.2,29.6c8.6,7.8,16.9,15.2,13.6,27.9
			c0.9-0.9,1.9-1.9,2.8-2.8c-22.1,4-45.4,7.2-67.8,5.5c-9.6-0.7-18.1-3.4-24.5-11.1c-7.2-8.7-10-20.6-11.2-31.6
			c-1.3-11.6-1-23.3-0.4-34.9c0.7-11.8,1-23.5,2.3-35.3c2.6-22.5,8.5-45.3,21.8-64c15.6-21.9,40.3-33.1,66.2-37.7
			C182.9,411.2,180.8,403.5,175.7,404.4L175.7,404.4z"/>
	</g>
</g>
<g>
	<path class="st0" d="M101,459.4c-21.3-4.8-38.2-0.5-54.7-13.7c-25-20-9.1-41.2,3.5-61.2c2.9-4.6,0.5-10.3-4.2-7.6
		C18.4,392.4,6.2,417.1,17.2,447C28,476.3,91,482.1,91,482.1L101,459.4z"/>
</g>
<g>
	<g>
		<path d="M54.2,378c-1.8-6.5-8.1-33,4.7-31.9c9.1,0.8,14.5,7.6,10.4,16c-3.3,6.8-10.9,13.5-18.9,12.9c-5.1-0.4-5.1,7.6,0,8
			c15.6,1.2,35.4-19.7,26.5-35.1c-4-7-15.1-11.5-22.9-9.4c-7.3,2-9.8,9.8-10.4,16.6c-0.7,8.3,0.8,17,3,24.9
			C47.9,385,55.6,382.9,54.2,378L54.2,378z"/>
	</g>
</g>
<g>
	<g>
		<path d="M393.5,80.9c-12.1,0-24.2,0.2-36.2,1.7c-10,1.2-19.8,3.3-29.6,5.5c-25.3,5.5-48.8,16.2-70.4,30.3
			c-37.1,24.2-68.9,55.3-87.9,95.7c-33.8,72-28.7,164.6,28.6,223.5c30.2,31,71.3,52.3,112.8,63.5c42,11.3,87.5,12.7,129.2-0.5
			c87.6-27.6,143.2-122,144.1-211c0.5-50.2-16.3-99.3-43.3-141.3c-12.3-19.1-27.9-37.1-48.2-48c-18.5-9.9-40-15-60.6-17.4
			C419.2,81.3,406.3,80.9,393.5,80.9c-5.1,0-5.2,8,0,8c22.7,0,45.5,1.4,67.5,7.7c21.3,6.1,39.7,15.9,54.9,32.3s26.4,36.3,36.1,56.4
			c10.9,22.7,18.7,47,22.1,71.9c6.2,45.4-2.1,92.2-22.9,133c-19.5,38.1-49.3,73.2-88,92.5c-75.6,37.6-172,17.6-237.5-31.6
			c-31.7-23.8-54.1-56.7-63.7-95.3c-9.3-37.2-6.9-76.9,4.8-113.3c5.9-18.2,14.2-35.6,24.9-51.5c11.6-17.4,26-31.9,42-45.2
			c19.1-15.9,40.2-29.9,63.2-39.7c19.7-8.4,41.7-13.5,63.1-15.8c11.2-1.2,22.4-1.4,33.6-1.4C398.7,88.9,398.7,80.9,393.5,80.9
			L393.5,80.9z"/>
	</g>
</g>
<path class="st1" d="M426.7,203.7c0-0.4,0.1-0.8,0.1-1.2c-0.1,0.2-0.2,0.5-0.3,0.7L426.7,203.7z"/>
<g>
	<g>
		<path d="M523.2,272.6c-4-18.6-14.9-34.7-29-47.2c0.2,1.6,0.4,3.2,0.6,4.8c5.9-8.2,10.4-18.1,8.8-28.5c-1.3-8.2-6.4-15-13.1-19.8
			c-13.7-9.7-34-12.1-49.5-5.4c-8.7,3.7-15.3,10.8-17.5,20.2c-0.3,1.3-0.1,3,1,3.9c-1.8-1.5-0.5-1.5-1.1-2.6
			c0.3,0.5,0.1-0.5,0.1-0.5c-0.3,0.5-0.3,1.4-0.4,2c-0.7,3.1-1.6,6.1-2.5,9.1c-4.7,16.2-9.5,32.3-14.3,48.5
			c-5.2,17.4-10.4,34.9-15.5,52.3c-0.7,2.2,0.8,4.2,2.8,4.9c15.8,5.9,25.8,22.4,23,39.2c-2.5,15.2-15,27.4-30.2,29.5
			c-8.2,1.1-17.5,0.8-25.7,0.2c-15.7-1.2-28.9-13.1-32.1-28.4c-3.9-18.5,8.1-36.5,25.9-41.5c2.1-0.6,3.4-2.8,2.8-4.9
			c-8.6-32.4-17.3-64.9-25.9-97.3c-1.2-4.6-2.4-9.1-3.7-13.7c-0.4-1.5-2.2-3.1-3.9-2.9c-8.2,1-14.7-7.5-19.9-12.6
			c-6.2-6.1-13.1-11.7-22-13.1c-21.3-3.2-39.1,14.3-38.3,35.2c0.4,11.4,5.2,22.1,12.6,30.6c0-1.9,0-3.8,0-5.7
			c-25.3,26.3-37.5,61.4-31.8,97.7c5.1,32,23.6,61.9,50,80.6c12.4,8.8,26.8,14.8,41.9,16.8c8.5,1.1,17,0.5,25.5,0.5
			c10.2,0,20.5,0.5,30.7,0.9c38.8,1.6,81.5,2.3,112.1-25.6C519.3,367.8,533.9,318.5,523.2,272.6c-1.2-5-8.9-2.9-7.7,2.1
			c9,38.4-1,80.8-27.6,110.2c-12.9,14.2-28.3,24.1-47,28.8c-18.2,4.5-37.1,4.6-55.7,4c-18.8-0.5-37.5-1.5-56.3-1.1
			c-14.1,0.3-28-3.4-40.4-10.2c-26.1-14.2-45.3-40.1-53.4-68.5c-10.6-37.3-0.1-75.6,26.7-103.5c1.6-1.6,1.4-4,0-5.7
			c-7.3-8.4-11.8-20.2-9.9-31.4c1.9-11.7,11.6-19.9,23.4-20.9c10.4-0.9,17.8,5.9,24.6,12.7c6.3,6.3,14.1,14.5,23.9,13.3
			c-1.3-1-2.6-2-3.9-2.9c8.6,32.4,17.3,64.9,25.9,97.3c1.2,4.6,2.4,9.1,3.7,13.7c0.9-1.6,1.9-3.3,2.8-4.9
			c-18.6,5.2-32.1,21.9-32.5,41.4c-0.3,18.7,11.7,35.7,29.3,41.9c6.4,2.3,12.9,2.4,19.6,2.4c5.6,0,11.3,0.3,16.9-0.2
			c18.2-1.8,33.8-15.1,38.2-32.9c5.4-22-7.2-43.8-28-51.7c0.9,1.6,1.9,3.3,2.8,4.9c8.1-27.3,16.3-54.6,24.3-82
			c2.8-9.4,6-18.7,8.1-28.2c0.5-2,1.2-4.8-0.7-6.4c0.3,1.3,0.7,2.6,1,3.9c6.2-26.9,57.1-22.5,64,2c2.6,9.1-2.1,18.2-7.3,25.4
			c-1,1.4-0.6,3.8,0.6,4.8c13.2,11.7,23.2,26.3,26.9,43.7C516.6,279.7,524.3,277.6,523.2,272.6z"/>
	</g>
</g>
<g>
	<g>
		<path d="M427.4,193.3c-19.1-12.5-43.1-16.3-65.5-13.6c-13.9,1.7-30.5,5.9-41,15.9c-1,1-1.4,2.5-1,3.9
			c8.6,32.4,17.3,64.9,25.9,97.3c1.2,4.6,2.4,9.1,3.7,13.7c0.6,2.1,2.8,3.3,4.9,2.8c6.2-1.5,12.6-1.2,19-1.2c7,0,13.5-0.1,20.2,2.2
			c4.9,1.6,7-6.1,2.1-7.7c-7.4-2.5-14.7-2.5-22.3-2.5c-7.1,0-14.1-0.2-21.1,1.5c1.6,0.9,3.3,1.9,4.9,2.8
			c-8.6-32.4-17.3-64.9-25.9-97.3c-1.2-4.6-2.4-9.1-3.7-13.7c-0.3,1.3-0.7,2.6-1,3.9c8.6-8.2,24.6-12.4,36.9-13.8
			c20.6-2.3,42.3,1.2,59.9,12.6C427.7,203,431.7,196.1,427.4,193.3L427.4,193.3z"/>
	</g>
</g>
<path class="st2" d="M376.1,338.7c0.2,5.1,0,10.8-1,16c0.1,0.2,0.2,0.4,0.2,0.7c0.6,6.9,5.5,13.5,13.1,13c8-0.6,11.9-7.6,12.7-14.9
	c0.3-2.8,4.7-2.8,4.4,0c-1,9.5-7,20-18,19.3c-7.1-0.4-12.2-4.6-14.8-10.4c-2.4,5.2-6.2,9.2-12.2,10.8c-14.6,3.8-20.3-12.6-19.6-24.2
	c0.2-2.8,4.6-2.8,4.4,0c-0.5,8.1,2.9,24.2,14.7,19.7c11.2-4.2,12.7-18.9,11.9-30.4l-17.2-27.7h39L376.1,338.7z"/>
<ellipse class="st3" cx="299" cy="281.3" rx="20" ry="26.2"/>
<ellipse class="st3" cx="453.2" cy="281.3" rx="20" ry="26.2"/>
</svg>
