<?xml version="1.0" encoding="utf-8"?>
<!-- Generator: Adobe Illustrator 19.2.1, SVG Export Plug-In . SVG Version: 6.00 Build 0)  -->
<svg version="1.1" id="Layer_1" xmlns="http://www.w3.org/2000/svg" xmlns:xlink="http://www.w3.org/1999/xlink" x="0px" y="0px"
	 viewBox="0 0 170 152" style="enable-background:new 0 0 170 152;" xml:space="preserve">
<style type="text/css">
	.st0{fill:none;stroke:#000000;stroke-width:1.8059;stroke-miterlimit:10;}
	.st1{fill:none;stroke:#000000;stroke-width:2.4079;stroke-miterlimit:10;}
	.st2{clip-path:url(#SVGID_2_);fill:none;}
	.st3{clip-path:url(#SVGID_2_);}
	.st4{stroke:#000000;stroke-width:1.5591;stroke-miterlimit:10;}
</style>
<title>shark</title>
<ellipse transform="matrix(8.715574e-002 -0.9962 0.9962 8.715574e-002 53.969 200.7056)" class="st0" cx="136.5" cy="70.9" rx="5" ry="4.9"/>
<ellipse transform="matrix(8.715574e-002 -0.9962 0.9962 8.715574e-002 55.5007 202.7086)" cx="138.4" cy="71.1" rx="2.4" ry="2.5"/>
<path class="st1" d="M104,99.9c0,2.9-1.6,7.9-12.7,8.6c-0.8-2.8-1.2-6.3-1.3-8.6"/>
<g>
	<defs>
		<path id="SVGID_1_" d="M74.9,97.3c-9.9-1.9-16.6-4.7-24.2-7.5"/>
	</defs>
	<clipPath id="SVGID_2_">
		<use xlink:href="#SVGID_1_"  style="overflow:visible;"/>
	</clipPath>
	<path class="st2" d="M41.1,86.9"/>
	<path class="st2" d="M111.7,58.5"/>
	<g class="st3">
		<path class="st1" d="M56.4,93.9c0,0,30.5-13.2,91.7-5.3s-71.8,17.8-71.8,17.8L56.4,93.9z"/>
	</g>
</g>
<path class="st1" d="M41.1,86.9"/>
<path class="st1" d="M74.9,97.3c-9.9-1.9-16.6-4.7-24.2-7.5"/>
<path class="st1" d="M111.7,58.5"/>
<path class="st1" d="M131.5,95.2c0,0-4.1-12.5-32-12.5c0,0-12.5,28.5-27.6,23.2c6.1-13.3,7.6-22.5,7.6-22.5c-20.1,1.9-28,4.9-28,4.9
	l-1.1,1.5c-2.7,3.9-8,10-13.8,8.1c3.8-4.9,4.3-9.3,4.1-11.9c0,0-3.8-2.7-10.2-4.7c-3.7-1.2-7.6-1.7-11.4-1.4c0,0-2.8,12.5-12.9,17.6
	c7.9-12.9,0-47.1-1.8-54c6.5,2.8,14.3,27.3,14.3,27.3l18-0.7c0,0,4.1-7.5,4-9.4c3.8,0.7,7.2,7.6,7.2,7.6c9.2-3.9,21.1-7.7,36.9-9.2
	h0.6c3.5-7.7,7-16.8,6.8-21.5c10.6,1.8,16.6,12.3,19.8,21.2h0.7c15.1,1,32.7,4.1,54.3,11.2c-20.9,27.2-50.5,32.3-77.1,29.6"/>
<path class="st4" d="M148,87.8c-4.5,4.4-11.4,1.8-13.6-6.4c-0.6-2.3,1.4-4.2,2-2c1.6,6.3,7.5,11.2,11,7.7
	C148.8,85.9,149.3,86.6,148,87.8L148,87.8L148,87.8z"/>
</svg>
