<?xml version="1.0" encoding="utf-8"?>
<!-- Generator: Adobe Illustrator 19.2.1, SVG Export Plug-In . SVG Version: 6.00 Build 0)  -->
<svg version="1.1" id="Layer_1" xmlns="http://www.w3.org/2000/svg" xmlns:xlink="http://www.w3.org/1999/xlink" x="0px" y="0px"
	 viewBox="0 0 600 700" style="enable-background:new 0 0 600 700;" xml:space="preserve">
<style type="text/css">
	.st0{fill:none;stroke:#000000;stroke-width:8;stroke-miterlimit:10;}
	.st1{clip-path:url(#SVGID_3_);fill:none;stroke:#000000;stroke-width:8;stroke-miterlimit:10;}
	.st2{clip-path:url(#SVGID_5_);}
	.st3{stroke:#000000;stroke-width:11.073;stroke-miterlimit:10;}
</style>
<path class="st0" d="M506.9,241.1c-68.3-69.8-156-76.9-194.8-78.3v-0.3c0,0-1.9,0-5.3,0.1c-3.4-0.1-5.3-0.1-5.3-0.1v0.3
	c-38.8,1.5-129.8,5.5-194.8,78.3C17,341.5,49.8,481.6,97.5,529.2c46,46,104,96.3,204,97.5v0.1c1.8,0,3.5-0.1,5.3,0
	c1.8,0,3.5,0.1,5.3,0v-0.1c100.1-1.2,158-51.5,204-97.5C563.7,481.6,605.2,341.5,506.9,241.1z"/>
<g>
	<g>
		<defs>
			<path id="SVGID_2_" d="M506.9,241.1c-68.3-69.8-156-76.9-194.8-78.3v-0.3c0,0-1.9,0-5.3,0.1c-3.4-0.1-5.3-0.1-5.3-0.1v0.3
				c-38.8,1.5-129.8,5.5-194.8,78.3C17,341.5,49.8,481.6,97.5,529.2c46,46,104,96.3,204,97.5v0.1c1.8,0,3.5-0.1,5.3,0
				c1.8,0,3.5,0.1,5.3,0v-0.1c100.1-1.2,158-51.5,204-97.5C563.7,481.6,605.2,341.5,506.9,241.1z"/>
		</defs>
		<clipPath id="SVGID_3_">
			<use xlink:href="#SVGID_2_"  style="overflow:visible;"/>
		</clipPath>
		<path class="st1" d="M255.8,453.4c-80.8,12.5-142,54-150.5,104.8c48.1,35.9,117.1,67.5,196.2,68.5v0.1c1.8,0,3.5-0.1,5.3,0
			c1.8,0,3.5,0.1,5.3,0v-0.1c79.1-1,148-32.6,196.2-68.5c-8.4-50.8-69.6-92.3-150.5-104.8"/>
	</g>
	<g>
		<defs>
			<path id="SVGID_4_" d="M506.9,241.1c-68.3-69.8-156-76.9-194.8-78.3v-0.3c0,0-1.9,0-5.3,0.1c-3.4-0.1-5.3-0.1-5.3-0.1v0.3
				c-38.8,1.5-129.8,5.5-194.8,78.3C17,341.5,49.8,481.6,97.5,529.2c46,46,104,96.3,204,97.5v0.1c1.8,0,3.5-0.1,5.3,0
				c1.8,0,3.5,0.1,5.3,0v-0.1c100.1-1.2,158-51.5,204-97.5C563.7,481.6,605.2,341.5,506.9,241.1z"/>
		</defs>
		<clipPath id="SVGID_5_">
			<use xlink:href="#SVGID_4_"  style="overflow:visible;"/>
		</clipPath>
		<g class="st2">
			<polygon class="st0" points="195.2,174.3 247.5,271.9 241.1,166.1 			"/>
			<path class="st0" d="M254.6,166.5l48.5,98.9L352,164.6L317.5,133c0,0-60.2,16-62.9,19.2C251.8,155.5,254.6,166.5,254.6,166.5z"/>
			<polygon class="st0" points="408.8,170.7 359,271.9 362.9,162.5 			"/>
			<polygon class="st0" points="563.6,304.8 488.9,341.9 581.5,374.8 			"/>
			<polygon class="st0" points="570.2,414.6 475.9,385.1 555.7,491.2 			"/>
			<polygon class="st0" points="54.3,304.8 129,341.9 36.4,374.8 			"/>
			<polygon class="st0" points="47.6,414.6 142,385.1 62.1,491.2 			"/>
		</g>
	</g>
	<g>
		<path id="SVGID_1_" class="st0" d="M506.9,241.1c-68.3-69.8-156-76.9-194.8-78.3v-0.3c0,0-1.9,0-5.3,0.1c-3.4-0.1-5.3-0.1-5.3-0.1
			v0.3c-38.8,1.5-129.8,5.5-194.8,78.3C17,341.5,49.8,481.6,97.5,529.2c46,46,104,96.3,204,97.5v0.1c1.8,0,3.5-0.1,5.3,0
			c1.8,0,3.5,0.1,5.3,0v-0.1c100.1-1.2,158-51.5,204-97.5C563.7,481.6,605.2,341.5,506.9,241.1z"/>
	</g>
</g>
<circle class="st0" cx="223.3" cy="351.9" r="38.9"/>
<ellipse class="st3" cx="241.4" cy="338.6" rx="14.3" ry="14.3"/>
<circle class="st0" cx="385.4" cy="351.9" r="38.9"/>
<path class="st3" d="M417.8,338.6c0,7.9-6.4,14.3-14.3,14.3s-14.3-6.4-14.3-14.3s6.4-14.3,14.3-14.3
	C411.5,324.4,417.8,330.8,417.8,338.6z"/>
<g>
	<g>
		<path class="st0" d="M303.6,559.4c-61.7,0-71.6-53-71.7-53.5l6.8-1.2c0.3,2,9.1,47.8,64.9,47.8c23.5,0,41.6-8.1,53.7-24
			c9-11.9,11.2-23.7,11.2-23.8l6.8,1.2C375.1,506.4,365.2,559.4,303.6,559.4z"/>
	</g>
</g>
<path class="st0" d="M358.3,440.6c-8.8-32.6-51.5-32.6-51.5-32.6s-42.7,0-51.5,32.6c-6,22.1,27.6,50.6,51.5,50.6
	C330.6,491.2,364.2,462.7,358.3,440.6z"/>
<g>
	<g>
		<path class="st0" d="M70.7,295.9c-26.6-15.8-44.4-44.8-44.4-77.9c0-50,40.5-90.5,90.5-90.5c36.4,0,67.8,21.5,82.2,52.5"/>
		<path class="st0" d="M85.8,268.3c-16.9-10.4-28.2-29.1-28.2-50.4c0-32.6,26.4-59.1,59.1-59.1c23.5,0,43.7,13.7,53.3,33.5"/>
	</g>
	<g>
		<path class="st0" d="M406.3,178.8c14.6-30.4,45.7-51.4,81.6-51.4c50,0,90.5,40.5,90.5,90.5c0,29.3-13.9,55.3-35.5,71.9"/>
		<path class="st0" d="M435.5,190.5c9.9-18.8,29.6-31.6,52.3-31.6c32.6,0,59.1,26.5,59.1,59.1c0,18.1-8.2,34.4-21.1,45.2"/>
	</g>
</g>
</svg>
